<?xml version="1.0" encoding="UTF-8"?>
<svg xmlns="http://www.w3.org/2000/svg" width="800.000" height="600.000" viewBox="0.0 0.0 800.000 600.000" version="1.1">
  <title>Produce by Acme CAD Converter</title>
  <desc>Produce by Acme CAD Converter</desc>
<path d="M416.61 270.51L421.25 270.51 421.25 394.61 416.61 399.26 416.61 270.51Z"
fill-rule="evenodd" fill="black"/>
<path d="M416.61 270.51L421.25 270.51 421.25 270.51 416.61 270.51Z"
fill-rule="evenodd" fill="black"/>
<path d="M416.61 270.51L421.25 270.51 421.25 394.61 416.61 399.26 416.61 270.51Z"
fill-rule="evenodd" fill="black"/>
<path d="M421.25 394.61L416.61 399.26 416.61 399.26 421.25 394.61Z"
fill-rule="evenodd" fill="black"/>
<path d="M416.61 270.51L416.61 399.26 416.61 399.26 416.61 270.51Z"
fill-rule="evenodd" fill="black"/>
<path d="M421.25 270.51L421.25 394.61 421.25 394.61 421.25 270.51Z"
fill-rule="evenodd" fill="black"/>
<path d="M416.61 399.26L421.25 394.61 547.14 394.61 547.14 399.26 416.61 399.26Z"
fill-rule="evenodd" fill="black"/>
<path d="M416.61 399.26L421.25 394.61 421.25 394.61 416.61 399.26Z"
fill-rule="evenodd" fill="black"/>
<path d="M416.61 399.26L421.25 394.61 547.14 394.61 547.14 399.26 416.61 399.26Z"
fill-rule="evenodd" fill="black"/>
<path d="M547.14 394.61L547.14 399.26 547.14 399.26 547.14 394.61Z"
fill-rule="evenodd" fill="black"/>
<path d="M416.61 399.26L547.14 399.26 547.14 399.26 416.61 399.26Z"
fill-rule="evenodd" fill="black"/>
<path d="M421.25 394.61L547.14 394.61 547.14 394.61 421.25 394.61Z"
fill-rule="evenodd" fill="black"/>
<path d="M452.6 254.37L452.6 249.72 563.82 249.72 563.82 254.37 452.6 254.37Z"
fill-rule="evenodd" fill="black"/>
<path d="M452.6 254.37L452.6 249.72 452.6 249.72 452.6 254.37Z"
fill-rule="evenodd" fill="black"/>
<path d="M452.6 254.37L452.6 249.72 563.82 249.72 563.82 254.37 452.6 254.37Z"
fill-rule="evenodd" fill="black"/>
<path d="M563.82 249.72L563.82 254.37 563.82 254.37 563.82 249.72Z"
fill-rule="evenodd" fill="black"/>
<path d="M452.6 254.37L563.82 254.37 563.82 254.37 452.6 254.37Z"
fill-rule="evenodd" fill="black"/>
<path d="M452.6 249.72L563.82 249.72 563.82 249.72 452.6 249.72Z"
fill-rule="evenodd" fill="black"/>
<path d="M258.85 254.37L258.85 249.72 322.84 249.72 324.08 254.37 258.85 254.37Z"
fill-rule="evenodd" fill="black"/>
<path d="M258.85 254.37L258.85 249.72 258.85 249.72 258.85 254.37Z"
fill-rule="evenodd" fill="black"/>
<path d="M258.85 254.37L258.85 249.72 322.84 249.72 324.08 254.37 258.85 254.37Z"
fill-rule="evenodd" fill="black"/>
<path d="M322.84 249.72L324.08 254.37 324.08 254.37 322.84 249.72Z"
fill-rule="evenodd" fill="black"/>
<path d="M258.85 254.37L324.08 254.37 324.08 254.37 258.85 254.37Z"
fill-rule="evenodd" fill="black"/>
<path d="M258.85 249.72L322.84 249.72 322.84 249.72 258.85 249.72Z"
fill-rule="evenodd" fill="black"/>
<path d="M324.08 254.37L322.84 249.72 451.44 175.47 453.77 179.5 324.08 254.37Z"
fill-rule="evenodd" fill="black"/>
<path d="M324.08 254.37L322.84 249.72 322.84 249.72 324.08 254.37Z"
fill-rule="evenodd" fill="black"/>
<path d="M324.08 254.37L322.84 249.72 451.44 175.47 453.77 179.5 324.08 254.37Z"
fill-rule="evenodd" fill="black"/>
<path d="M451.44 175.47L453.77 179.5 453.77 179.5 451.44 175.47Z"
fill-rule="evenodd" fill="black"/>
<path d="M324.08 254.37L453.77 179.5 453.77 179.5 324.08 254.37Z"
fill-rule="evenodd" fill="black"/>
<path d="M322.84 249.72L451.44 175.47 451.44 175.47 322.84 249.72Z"
fill-rule="evenodd" fill="black"/>
<path d="M454.93 268.19L450.28 268.19 450.28 235.91 454.93 235.91 454.93 268.19Z"
fill-rule="evenodd" fill="black"/>
<path d="M454.93 268.19L450.28 268.19 450.28 268.19 454.93 268.19Z"
fill-rule="evenodd" fill="black"/>
<path d="M454.93 268.19L450.28 268.19 450.28 235.91 454.93 235.91 454.93 268.19Z"
fill-rule="evenodd" fill="black"/>
<path d="M450.28 235.91L454.93 235.91 454.93 235.91 450.28 235.91Z"
fill-rule="evenodd" fill="black"/>
<path d="M454.93 268.19L454.93 235.91 454.93 235.91 454.93 268.19Z"
fill-rule="evenodd" fill="black"/>
<path d="M450.28 268.19L450.28 235.91 450.28 235.91 450.28 268.19Z"
fill-rule="evenodd" fill="black"/>
<path d="M261.17 305.86L256.52 305.86 256.52 198.24 261.17 198.24 261.17 305.86Z"
fill-rule="evenodd" fill="black"/>
<path d="M261.17 305.86L256.52 305.86 256.52 305.86 261.17 305.86Z"
fill-rule="evenodd" fill="black"/>
<path d="M261.17 305.86L256.52 305.86 256.52 198.24 261.17 198.24 261.17 305.86Z"
fill-rule="evenodd" fill="black"/>
<path d="M256.52 198.24L261.17 198.24 261.17 198.24 256.52 198.24Z"
fill-rule="evenodd" fill="black"/>
<path d="M261.17 305.86L261.17 198.24 261.17 198.24 261.17 305.86Z"
fill-rule="evenodd" fill="black"/>
<path d="M256.52 305.86L256.52 198.24 256.52 198.24 256.52 305.86Z"
fill-rule="evenodd" fill="black"/>
<path d="M235 219.76L239.65 219.76 239.65 284.33 235 284.33 235 219.76Z"
fill-rule="evenodd" fill="black"/>
<path d="M235 219.76L239.65 219.76 239.65 219.76 235 219.76Z"
fill-rule="evenodd" fill="black"/>
<path d="M235 219.76L239.65 219.76 239.65 284.33 235 284.33 235 219.76Z"
fill-rule="evenodd" fill="black"/>
<path d="M239.65 284.33L235 284.33 235 284.33 239.65 284.33Z"
fill-rule="evenodd" fill="black"/>
<path d="M235 219.76L235 284.33 235 284.33 235 219.76Z"
fill-rule="evenodd" fill="black"/>
<path d="M239.65 219.76L239.65 284.33 239.65 284.33 239.65 219.76Z"
fill-rule="evenodd" fill="black"/>
<path d="M218.13 262.81L213.48 262.81 213.48 241.29 218.13 241.29 218.13 262.81Z"
fill-rule="evenodd" fill="black"/>
<path d="M218.13 262.81L213.48 262.81 213.48 262.81 218.13 262.81Z"
fill-rule="evenodd" fill="black"/>
<path d="M218.13 262.81L213.48 262.81 213.48 241.29 218.13 241.29 218.13 262.81Z"
fill-rule="evenodd" fill="black"/>
<path d="M213.48 241.29L218.13 241.29 218.13 241.29 213.48 241.29Z"
fill-rule="evenodd" fill="black"/>
<path d="M218.13 262.81L218.13 241.29 218.13 241.29 218.13 262.81Z"
fill-rule="evenodd" fill="black"/>
<path d="M213.48 262.81L213.48 241.29 213.48 241.29 213.48 262.81Z"
fill-rule="evenodd" fill="black"/>
<path d="M566.14 346.27L561.5 346.27 561.5 1.7 566.14 1.7 566.14 346.27Z"
fill-rule="evenodd" fill="black"/>
<path d="M566.14 346.27L561.5 346.27 561.5 346.27 566.14 346.27Z"
fill-rule="evenodd" fill="black"/>
<path d="M566.14 346.27L561.5 346.27 561.5 1.7 566.14 1.7 566.14 346.27Z"
fill-rule="evenodd" fill="black"/>
<path d="M561.5 1.7L566.14 1.7 566.14 1.7 561.5 1.7Z"
fill-rule="evenodd" fill="black"/>
<path d="M566.14 346.27L566.14 1.7 566.14 1.7 566.14 346.27Z"
fill-rule="evenodd" fill="black"/>
<path d="M561.5 346.27L561.5 1.7 561.5 1.7 561.5 346.27Z"
fill-rule="evenodd" fill="black"/>
<path d="M553.88 348.6L553.88 343.95 573.76 343.95 573.76 348.6 553.88 348.6Z"
fill-rule="evenodd" fill="black"/>
<path d="M553.88 348.6L553.88 343.95 553.88 343.95 553.88 348.6Z"
fill-rule="evenodd" fill="black"/>
<path d="M553.88 348.6L553.88 343.95 573.76 343.95 573.76 348.6 553.88 348.6Z"
fill-rule="evenodd" fill="black"/>
<path d="M573.76 343.95L573.76 348.6 573.76 348.6 573.76 343.95Z"
fill-rule="evenodd" fill="black"/>
<path d="M553.88 348.6L573.76 348.6 573.76 348.6 553.88 348.6Z"
fill-rule="evenodd" fill="black"/>
<path d="M553.88 343.95L573.76 343.95 573.76 343.95 553.88 343.95Z"
fill-rule="evenodd" fill="black"/>
<path d="M563.82 358.53L565.71 358.28 564.5 353.79 563.82 353.88 563.82 358.53Z"
fill-rule="evenodd" fill="black"/>
<path d="M563.82 353.88L564.5 353.79 565.71 358.28 563.82 358.53 563.82 353.88Z"
fill-rule="evenodd" fill="black"/>
<path d="M565.71 358.28L563.82 358.53 563.82 358.53 565.71 358.28Z"
fill-rule="evenodd" fill="black"/>
<path d="M564.5 353.79L565.71 358.28 565.71 358.28 564.5 353.79Z"
fill-rule="evenodd" fill="black"/>
<path d="M563.82 353.88L564.5 353.79 564.5 353.79 563.82 353.88Z"
fill-rule="evenodd" fill="black"/>
<path d="M563.82 358.53L563.82 353.88 563.82 353.88 563.82 358.53Z"
fill-rule="evenodd" fill="black"/>
<path d="M565.71 358.28L567.47 357.55 565.14 353.53 564.5 353.79 565.71 358.28Z"
fill-rule="evenodd" fill="black"/>
<path d="M564.5 353.79L565.14 353.53 567.47 357.55 565.71 358.28 564.5 353.79Z"
fill-rule="evenodd" fill="black"/>
<path d="M567.47 357.55L565.71 358.28 565.71 358.28 567.47 357.55Z"
fill-rule="evenodd" fill="black"/>
<path d="M565.14 353.53L567.47 357.55 567.47 357.55 565.14 353.53Z"
fill-rule="evenodd" fill="black"/>
<path d="M564.5 353.79L565.14 353.53 565.14 353.53 564.5 353.79Z"
fill-rule="evenodd" fill="black"/>
<path d="M565.71 358.28L564.5 353.79 564.5 353.79 565.71 358.28Z"
fill-rule="evenodd" fill="black"/>
<path d="M567.47 357.55L568.98 356.4 565.69 353.11 565.14 353.53 567.47 357.55Z"
fill-rule="evenodd" fill="black"/>
<path d="M565.14 353.53L565.69 353.11 568.98 356.4 567.47 357.55 565.14 353.53Z"
fill-rule="evenodd" fill="black"/>
<path d="M568.98 356.4L567.47 357.55 567.47 357.55 568.98 356.4Z"
fill-rule="evenodd" fill="black"/>
<path d="M565.69 353.11L568.98 356.4 568.98 356.4 565.69 353.11Z"
fill-rule="evenodd" fill="black"/>
<path d="M565.14 353.53L565.69 353.11 565.69 353.11 565.14 353.53Z"
fill-rule="evenodd" fill="black"/>
<path d="M567.47 357.55L565.14 353.53 565.14 353.53 567.47 357.55Z"
fill-rule="evenodd" fill="black"/>
<path d="M568.98 356.4L570.13 354.89 566.11 352.56 565.69 353.11 568.98 356.4Z"
fill-rule="evenodd" fill="black"/>
<path d="M565.69 353.11L566.11 352.56 570.13 354.89 568.98 356.4 565.69 353.11Z"
fill-rule="evenodd" fill="black"/>
<path d="M570.13 354.89L568.98 356.4 568.98 356.4 570.13 354.89Z"
fill-rule="evenodd" fill="black"/>
<path d="M566.11 352.56L570.13 354.89 570.13 354.89 566.11 352.56Z"
fill-rule="evenodd" fill="black"/>
<path d="M565.69 353.11L566.11 352.56 566.11 352.56 565.69 353.11Z"
fill-rule="evenodd" fill="black"/>
<path d="M568.98 356.4L565.69 353.11 565.69 353.11 568.98 356.4Z"
fill-rule="evenodd" fill="black"/>
<path d="M570.13 354.89L570.86 353.13 566.37 351.92 566.11 352.56 570.13 354.89Z"
fill-rule="evenodd" fill="black"/>
<path d="M566.11 352.56L566.37 351.92 570.86 353.13 570.13 354.89 566.11 352.56Z"
fill-rule="evenodd" fill="black"/>
<path d="M570.86 353.13L570.13 354.89 570.13 354.89 570.86 353.13Z"
fill-rule="evenodd" fill="black"/>
<path d="M566.37 351.92L570.86 353.13 570.86 353.13 566.37 351.92Z"
fill-rule="evenodd" fill="black"/>
<path d="M566.11 352.56L566.37 351.92 566.37 351.92 566.11 352.56Z"
fill-rule="evenodd" fill="black"/>
<path d="M570.13 354.89L566.11 352.56 566.11 352.56 570.13 354.89Z"
fill-rule="evenodd" fill="black"/>
<path d="M570.86 353.13L571.11 351.24 566.46 351.24 566.37 351.92 570.86 353.13Z"
fill-rule="evenodd" fill="black"/>
<path d="M566.37 351.92L566.46 351.24 571.11 351.24 570.86 353.13 566.37 351.92Z"
fill-rule="evenodd" fill="black"/>
<path d="M571.11 351.24L570.86 353.13 570.86 353.13 571.11 351.24Z"
fill-rule="evenodd" fill="black"/>
<path d="M566.46 351.24L571.11 351.24 571.11 351.24 566.46 351.24Z"
fill-rule="evenodd" fill="black"/>
<path d="M566.37 351.92L566.46 351.24 566.46 351.24 566.37 351.92Z"
fill-rule="evenodd" fill="black"/>
<path d="M570.86 353.13L566.37 351.92 566.37 351.92 570.86 353.13Z"
fill-rule="evenodd" fill="black"/>
<path d="M571.11 351.24L570.86 349.35 566.37 350.56 566.46 351.24 571.11 351.24Z"
fill-rule="evenodd" fill="black"/>
<path d="M566.46 351.24L566.37 350.56 570.86 349.35 571.11 351.24 566.46 351.24Z"
fill-rule="evenodd" fill="black"/>
<path d="M570.86 349.35L571.11 351.24 571.11 351.24 570.86 349.35Z"
fill-rule="evenodd" fill="black"/>
<path d="M566.37 350.56L570.86 349.35 570.86 349.35 566.37 350.56Z"
fill-rule="evenodd" fill="black"/>
<path d="M566.46 351.24L566.37 350.56 566.37 350.56 566.46 351.24Z"
fill-rule="evenodd" fill="black"/>
<path d="M571.11 351.24L566.46 351.24 566.46 351.24 571.11 351.24Z"
fill-rule="evenodd" fill="black"/>
<path d="M570.86 349.35L570.13 347.59 566.11 349.92 566.37 350.56 570.86 349.35Z"
fill-rule="evenodd" fill="black"/>
<path d="M566.37 350.56L566.11 349.92 570.13 347.59 570.86 349.35 566.37 350.56Z"
fill-rule="evenodd" fill="black"/>
<path d="M570.13 347.59L570.86 349.35 570.86 349.35 570.13 347.59Z"
fill-rule="evenodd" fill="black"/>
<path d="M566.11 349.92L570.13 347.59 570.13 347.59 566.11 349.92Z"
fill-rule="evenodd" fill="black"/>
<path d="M566.37 350.56L566.11 349.92 566.11 349.92 566.37 350.56Z"
fill-rule="evenodd" fill="black"/>
<path d="M570.86 349.35L566.37 350.56 566.37 350.56 570.86 349.35Z"
fill-rule="evenodd" fill="black"/>
<path d="M570.13 347.59L568.98 346.08 565.69 349.37 566.11 349.92 570.13 347.59Z"
fill-rule="evenodd" fill="black"/>
<path d="M566.11 349.92L565.69 349.37 568.98 346.08 570.13 347.59 566.11 349.92Z"
fill-rule="evenodd" fill="black"/>
<path d="M568.98 346.08L570.13 347.59 570.13 347.59 568.98 346.08Z"
fill-rule="evenodd" fill="black"/>
<path d="M565.69 349.37L568.98 346.08 568.98 346.08 565.69 349.37Z"
fill-rule="evenodd" fill="black"/>
<path d="M566.11 349.92L565.69 349.37 565.69 349.37 566.11 349.92Z"
fill-rule="evenodd" fill="black"/>
<path d="M570.13 347.59L566.11 349.92 566.11 349.92 570.13 347.59Z"
fill-rule="evenodd" fill="black"/>
<path d="M568.98 346.08L567.47 344.93 565.14 348.95 565.69 349.37 568.98 346.08Z"
fill-rule="evenodd" fill="black"/>
<path d="M565.69 349.37L565.14 348.95 567.47 344.93 568.98 346.08 565.69 349.37Z"
fill-rule="evenodd" fill="black"/>
<path d="M567.47 344.93L568.98 346.08 568.98 346.08 567.47 344.93Z"
fill-rule="evenodd" fill="black"/>
<path d="M565.14 348.95L567.47 344.93 567.47 344.93 565.14 348.95Z"
fill-rule="evenodd" fill="black"/>
<path d="M565.69 349.37L565.14 348.95 565.14 348.95 565.69 349.37Z"
fill-rule="evenodd" fill="black"/>
<path d="M568.98 346.08L565.69 349.37 565.69 349.37 568.98 346.08Z"
fill-rule="evenodd" fill="black"/>
<path d="M567.47 344.93L565.71 344.2 564.5 348.69 565.14 348.95 567.47 344.93Z"
fill-rule="evenodd" fill="black"/>
<path d="M565.14 348.95L564.5 348.69 565.71 344.2 567.47 344.93 565.14 348.95Z"
fill-rule="evenodd" fill="black"/>
<path d="M565.71 344.2L567.47 344.93 567.47 344.93 565.71 344.2Z"
fill-rule="evenodd" fill="black"/>
<path d="M564.5 348.69L565.71 344.2 565.71 344.2 564.5 348.69Z"
fill-rule="evenodd" fill="black"/>
<path d="M565.14 348.95L564.5 348.69 564.5 348.69 565.14 348.95Z"
fill-rule="evenodd" fill="black"/>
<path d="M567.47 344.93L565.14 348.95 565.14 348.95 567.47 344.93Z"
fill-rule="evenodd" fill="black"/>
<path d="M565.71 344.2L563.82 343.95 563.82 348.6 564.5 348.69 565.71 344.2Z"
fill-rule="evenodd" fill="black"/>
<path d="M564.5 348.69L563.82 348.6 563.82 343.95 565.71 344.2 564.5 348.69Z"
fill-rule="evenodd" fill="black"/>
<path d="M563.82 343.95L565.71 344.2 565.71 344.2 563.82 343.95Z"
fill-rule="evenodd" fill="black"/>
<path d="M563.82 348.6L563.82 343.95 563.82 343.95 563.82 348.6Z"
fill-rule="evenodd" fill="black"/>
<path d="M564.5 348.69L563.82 348.6 563.82 348.6 564.5 348.69Z"
fill-rule="evenodd" fill="black"/>
<path d="M565.71 344.2L564.5 348.69 564.5 348.69 565.71 344.2Z"
fill-rule="evenodd" fill="black"/>
<path d="M563.82 343.95L561.93 344.2 563.13 348.69 563.82 348.6 563.82 343.95Z"
fill-rule="evenodd" fill="black"/>
<path d="M563.82 348.6L563.13 348.69 561.93 344.2 563.82 343.95 563.82 348.6Z"
fill-rule="evenodd" fill="black"/>
<path d="M561.93 344.2L563.82 343.95 563.82 343.95 561.93 344.2Z"
fill-rule="evenodd" fill="black"/>
<path d="M563.13 348.69L561.93 344.2 561.93 344.2 563.13 348.69Z"
fill-rule="evenodd" fill="black"/>
<path d="M563.82 348.6L563.13 348.69 563.13 348.69 563.82 348.6Z"
fill-rule="evenodd" fill="black"/>
<path d="M563.82 343.95L563.82 348.6 563.82 348.6 563.82 343.95Z"
fill-rule="evenodd" fill="black"/>
<path d="M561.93 344.2L560.17 344.93 562.5 348.95 563.13 348.69 561.93 344.2Z"
fill-rule="evenodd" fill="black"/>
<path d="M563.13 348.69L562.5 348.95 560.17 344.93 561.93 344.2 563.13 348.69Z"
fill-rule="evenodd" fill="black"/>
<path d="M560.17 344.93L561.93 344.2 561.93 344.2 560.17 344.93Z"
fill-rule="evenodd" fill="black"/>
<path d="M562.5 348.95L560.17 344.93 560.17 344.93 562.5 348.95Z"
fill-rule="evenodd" fill="black"/>
<path d="M563.13 348.69L562.5 348.95 562.5 348.95 563.13 348.69Z"
fill-rule="evenodd" fill="black"/>
<path d="M561.93 344.2L563.13 348.69 563.13 348.69 561.93 344.2Z"
fill-rule="evenodd" fill="black"/>
<path d="M560.17 344.93L558.66 346.09 561.95 349.37 562.5 348.95 560.17 344.93Z"
fill-rule="evenodd" fill="black"/>
<path d="M562.5 348.95L561.95 349.37 558.66 346.09 560.17 344.93 562.5 348.95Z"
fill-rule="evenodd" fill="black"/>
<path d="M558.66 346.09L560.17 344.93 560.17 344.93 558.66 346.09Z"
fill-rule="evenodd" fill="black"/>
<path d="M561.95 349.37L558.66 346.09 558.66 346.09 561.95 349.37Z"
fill-rule="evenodd" fill="black"/>
<path d="M562.5 348.95L561.95 349.37 561.95 349.37 562.5 348.95Z"
fill-rule="evenodd" fill="black"/>
<path d="M560.17 344.93L562.5 348.95 562.5 348.95 560.17 344.93Z"
fill-rule="evenodd" fill="black"/>
<path d="M558.66 346.09L557.5 347.6 561.53 349.92 561.95 349.37 558.66 346.09Z"
fill-rule="evenodd" fill="black"/>
<path d="M561.95 349.37L561.53 349.92 557.5 347.6 558.66 346.09 561.95 349.37Z"
fill-rule="evenodd" fill="black"/>
<path d="M557.5 347.6L558.66 346.09 558.66 346.09 557.5 347.6Z"
fill-rule="evenodd" fill="black"/>
<path d="M561.53 349.92L557.5 347.6 557.5 347.6 561.53 349.92Z"
fill-rule="evenodd" fill="black"/>
<path d="M561.95 349.37L561.53 349.92 561.53 349.92 561.95 349.37Z"
fill-rule="evenodd" fill="black"/>
<path d="M558.66 346.09L561.95 349.37 561.95 349.37 558.66 346.09Z"
fill-rule="evenodd" fill="black"/>
<path d="M557.5 347.6L556.77 349.36 561.26 350.56 561.53 349.92 557.5 347.6Z"
fill-rule="evenodd" fill="black"/>
<path d="M561.53 349.92L561.26 350.56 556.77 349.36 557.5 347.6 561.53 349.92Z"
fill-rule="evenodd" fill="black"/>
<path d="M556.77 349.36L557.5 347.6 557.5 347.6 556.77 349.36Z"
fill-rule="evenodd" fill="black"/>
<path d="M561.26 350.56L556.77 349.36 556.77 349.36 561.26 350.56Z"
fill-rule="evenodd" fill="black"/>
<path d="M561.53 349.92L561.26 350.56 561.26 350.56 561.53 349.92Z"
fill-rule="evenodd" fill="black"/>
<path d="M557.5 347.6L561.53 349.92 561.53 349.92 557.5 347.6Z"
fill-rule="evenodd" fill="black"/>
<path d="M556.77 349.36L556.52 351.24 561.17 351.24 561.26 350.56 556.77 349.36Z"
fill-rule="evenodd" fill="black"/>
<path d="M561.26 350.56L561.17 351.24 556.52 351.24 556.77 349.36 561.26 350.56Z"
fill-rule="evenodd" fill="black"/>
<path d="M556.52 351.24L556.77 349.36 556.77 349.36 556.52 351.24Z"
fill-rule="evenodd" fill="black"/>
<path d="M561.17 351.24L556.52 351.24 556.52 351.24 561.17 351.24Z"
fill-rule="evenodd" fill="black"/>
<path d="M561.26 350.56L561.17 351.24 561.17 351.24 561.26 350.56Z"
fill-rule="evenodd" fill="black"/>
<path d="M556.77 349.36L561.26 350.56 561.26 350.56 556.77 349.36Z"
fill-rule="evenodd" fill="black"/>
<path d="M556.52 351.24L556.77 353.13 561.26 351.93 561.17 351.24 556.52 351.24Z"
fill-rule="evenodd" fill="black"/>
<path d="M561.17 351.24L561.26 351.93 556.77 353.13 556.52 351.24 561.17 351.24Z"
fill-rule="evenodd" fill="black"/>
<path d="M556.77 353.13L556.52 351.24 556.52 351.24 556.77 353.13Z"
fill-rule="evenodd" fill="black"/>
<path d="M561.26 351.93L556.77 353.13 556.77 353.13 561.26 351.93Z"
fill-rule="evenodd" fill="black"/>
<path d="M561.17 351.24L561.26 351.93 561.26 351.93 561.17 351.24Z"
fill-rule="evenodd" fill="black"/>
<path d="M556.52 351.24L561.17 351.24 561.17 351.24 556.52 351.24Z"
fill-rule="evenodd" fill="black"/>
<path d="M556.77 353.13L557.5 354.89 561.53 352.57 561.26 351.93 556.77 353.13Z"
fill-rule="evenodd" fill="black"/>
<path d="M561.26 351.93L561.53 352.57 557.5 354.89 556.77 353.13 561.26 351.93Z"
fill-rule="evenodd" fill="black"/>
<path d="M557.5 354.89L556.77 353.13 556.77 353.13 557.5 354.89Z"
fill-rule="evenodd" fill="black"/>
<path d="M561.53 352.57L557.5 354.89 557.5 354.89 561.53 352.57Z"
fill-rule="evenodd" fill="black"/>
<path d="M561.26 351.93L561.53 352.57 561.53 352.57 561.26 351.93Z"
fill-rule="evenodd" fill="black"/>
<path d="M556.77 353.13L561.26 351.93 561.26 351.93 556.77 353.13Z"
fill-rule="evenodd" fill="black"/>
<path d="M557.5 354.89L558.66 356.4 561.95 353.12 561.53 352.57 557.5 354.89Z"
fill-rule="evenodd" fill="black"/>
<path d="M561.53 352.57L561.95 353.12 558.66 356.4 557.5 354.89 561.53 352.57Z"
fill-rule="evenodd" fill="black"/>
<path d="M558.66 356.4L557.5 354.89 557.5 354.89 558.66 356.4Z"
fill-rule="evenodd" fill="black"/>
<path d="M561.95 353.12L558.66 356.4 558.66 356.4 561.95 353.12Z"
fill-rule="evenodd" fill="black"/>
<path d="M561.53 352.57L561.95 353.12 561.95 353.12 561.53 352.57Z"
fill-rule="evenodd" fill="black"/>
<path d="M557.5 354.89L561.53 352.57 561.53 352.57 557.5 354.89Z"
fill-rule="evenodd" fill="black"/>
<path d="M558.66 356.4L560.17 357.56 562.5 353.54 561.95 353.12 558.66 356.4Z"
fill-rule="evenodd" fill="black"/>
<path d="M561.95 353.12L562.5 353.54 560.17 357.56 558.66 356.4 561.95 353.12Z"
fill-rule="evenodd" fill="black"/>
<path d="M560.17 357.56L558.66 356.4 558.66 356.4 560.17 357.56Z"
fill-rule="evenodd" fill="black"/>
<path d="M562.5 353.54L560.17 357.56 560.17 357.56 562.5 353.54Z"
fill-rule="evenodd" fill="black"/>
<path d="M561.95 353.12L562.5 353.54 562.5 353.54 561.95 353.12Z"
fill-rule="evenodd" fill="black"/>
<path d="M558.66 356.4L561.95 353.12 561.95 353.12 558.66 356.4Z"
fill-rule="evenodd" fill="black"/>
<path d="M560.17 357.56L561.93 358.29 563.13 353.8 562.5 353.54 560.17 357.56Z"
fill-rule="evenodd" fill="black"/>
<path d="M562.5 353.54L563.13 353.8 561.93 358.29 560.17 357.56 562.5 353.54Z"
fill-rule="evenodd" fill="black"/>
<path d="M561.93 358.29L560.17 357.56 560.17 357.56 561.93 358.29Z"
fill-rule="evenodd" fill="black"/>
<path d="M563.13 353.8L561.93 358.29 561.93 358.29 563.13 353.8Z"
fill-rule="evenodd" fill="black"/>
<path d="M562.5 353.54L563.13 353.8 563.13 353.8 562.5 353.54Z"
fill-rule="evenodd" fill="black"/>
<path d="M560.17 357.56L562.5 353.54 562.5 353.54 560.17 357.56Z"
fill-rule="evenodd" fill="black"/>
<path d="M561.93 358.29L563.82 358.54 563.82 353.89 563.13 353.8 561.93 358.29Z"
fill-rule="evenodd" fill="black"/>
<path d="M563.13 353.8L563.82 353.89 563.82 358.54 561.93 358.29 563.13 353.8Z"
fill-rule="evenodd" fill="black"/>
<path d="M563.82 358.54L561.93 358.29 561.93 358.29 563.82 358.54Z"
fill-rule="evenodd" fill="black"/>
<path d="M563.82 353.89L563.82 358.54 563.82 358.54 563.82 353.89Z"
fill-rule="evenodd" fill="black"/>
<path d="M563.13 353.8L563.82 353.89 563.82 353.89 563.13 353.8Z"
fill-rule="evenodd" fill="black"/>
<path d="M561.93 358.29L563.13 353.8 563.13 353.8 561.93 358.29Z"
fill-rule="evenodd" fill="black"/>
<path d="M566.14 598.3L561.5 598.3 561.5 426.44 566.14 425.2 566.14 598.3Z"
fill-rule="evenodd" fill="black"/>
<path d="M566.14 598.3L561.5 598.3 561.5 598.3 566.14 598.3Z"
fill-rule="evenodd" fill="black"/>
<path d="M566.14 598.3L561.5 598.3 561.5 426.44 566.14 425.2 566.14 598.3Z"
fill-rule="evenodd" fill="black"/>
<path d="M561.5 426.44L566.14 425.2 566.14 425.2 561.5 426.44Z"
fill-rule="evenodd" fill="black"/>
<path d="M566.14 598.3L566.14 425.2 566.14 425.2 566.14 598.3Z"
fill-rule="evenodd" fill="black"/>
<path d="M561.5 598.3L561.5 426.44 561.5 426.44 561.5 598.3Z"
fill-rule="evenodd" fill="black"/>
<path d="M566.14 425.2L561.5 426.44 515.88 347.44 519.91 345.11 566.14 425.2Z"
fill-rule="evenodd" fill="black"/>
<path d="M566.14 425.2L561.5 426.44 561.5 426.44 566.14 425.2Z"
fill-rule="evenodd" fill="black"/>
<path d="M566.14 425.2L561.5 426.44 515.88 347.44 519.91 345.11 566.14 425.2Z"
fill-rule="evenodd" fill="black"/>
<path d="M515.88 347.44L519.91 345.11 519.91 345.11 515.88 347.44Z"
fill-rule="evenodd" fill="black"/>
<path d="M566.14 425.2L519.91 345.11 519.91 345.11 566.14 425.2Z"
fill-rule="evenodd" fill="black"/>
<path d="M561.5 426.44L515.88 347.44 515.88 347.44 561.5 426.44Z"
fill-rule="evenodd" fill="black"/>
<path d="M563.82 244.76L565.71 245.01 564.5 249.5 563.82 249.41 563.82 244.76Z"
fill-rule="evenodd" fill="black"/>
<path d="M563.82 249.41L564.5 249.5 565.71 245.01 563.82 244.76 563.82 249.41Z"
fill-rule="evenodd" fill="black"/>
<path d="M565.71 245.01L563.82 244.76 563.82 244.76 565.71 245.01Z"
fill-rule="evenodd" fill="black"/>
<path d="M564.5 249.5L565.71 245.01 565.71 245.01 564.5 249.5Z"
fill-rule="evenodd" fill="black"/>
<path d="M563.82 249.41L564.5 249.5 564.5 249.5 563.82 249.41Z"
fill-rule="evenodd" fill="black"/>
<path d="M563.82 244.76L563.82 249.41 563.82 249.41 563.82 244.76Z"
fill-rule="evenodd" fill="black"/>
<path d="M565.71 245.01L567.46 245.73 565.14 249.76 564.5 249.5 565.71 245.01Z"
fill-rule="evenodd" fill="black"/>
<path d="M564.5 249.5L565.14 249.76 567.46 245.73 565.71 245.01 564.5 249.5Z"
fill-rule="evenodd" fill="black"/>
<path d="M567.46 245.73L565.71 245.01 565.71 245.01 567.46 245.73Z"
fill-rule="evenodd" fill="black"/>
<path d="M565.14 249.76L567.46 245.73 567.46 245.73 565.14 249.76Z"
fill-rule="evenodd" fill="black"/>
<path d="M564.5 249.5L565.14 249.76 565.14 249.76 564.5 249.5Z"
fill-rule="evenodd" fill="black"/>
<path d="M565.71 245.01L564.5 249.5 564.5 249.5 565.71 245.01Z"
fill-rule="evenodd" fill="black"/>
<path d="M567.46 245.73L568.97 246.89 565.69 250.18 565.14 249.76 567.46 245.73Z"
fill-rule="evenodd" fill="black"/>
<path d="M565.14 249.76L565.69 250.18 568.97 246.89 567.46 245.73 565.14 249.76Z"
fill-rule="evenodd" fill="black"/>
<path d="M568.97 246.89L567.46 245.73 567.46 245.73 568.97 246.89Z"
fill-rule="evenodd" fill="black"/>
<path d="M565.69 250.18L568.97 246.89 568.97 246.89 565.69 250.18Z"
fill-rule="evenodd" fill="black"/>
<path d="M565.14 249.76L565.69 250.18 565.69 250.18 565.14 249.76Z"
fill-rule="evenodd" fill="black"/>
<path d="M567.46 245.73L565.14 249.76 565.14 249.76 567.46 245.73Z"
fill-rule="evenodd" fill="black"/>
<path d="M568.97 246.89L570.13 248.4 566.11 250.73 565.69 250.18 568.97 246.89Z"
fill-rule="evenodd" fill="black"/>
<path d="M565.69 250.18L566.11 250.73 570.13 248.4 568.97 246.89 565.69 250.18Z"
fill-rule="evenodd" fill="black"/>
<path d="M570.13 248.4L568.97 246.89 568.97 246.89 570.13 248.4Z"
fill-rule="evenodd" fill="black"/>
<path d="M566.11 250.73L570.13 248.4 570.13 248.4 566.11 250.73Z"
fill-rule="evenodd" fill="black"/>
<path d="M565.69 250.18L566.11 250.73 566.11 250.73 565.69 250.18Z"
fill-rule="evenodd" fill="black"/>
<path d="M568.97 246.89L565.69 250.18 565.69 250.18 568.97 246.89Z"
fill-rule="evenodd" fill="black"/>
<path d="M570.13 248.4L570.86 250.16 566.37 251.36 566.11 250.73 570.13 248.4Z"
fill-rule="evenodd" fill="black"/>
<path d="M566.11 250.73L566.37 251.36 570.86 250.16 570.13 248.4 566.11 250.73Z"
fill-rule="evenodd" fill="black"/>
<path d="M570.86 250.16L570.13 248.4 570.13 248.4 570.86 250.16Z"
fill-rule="evenodd" fill="black"/>
<path d="M566.37 251.36L570.86 250.16 570.86 250.16 566.37 251.36Z"
fill-rule="evenodd" fill="black"/>
<path d="M566.11 250.73L566.37 251.36 566.37 251.36 566.11 250.73Z"
fill-rule="evenodd" fill="black"/>
<path d="M570.13 248.4L566.11 250.73 566.11 250.73 570.13 248.4Z"
fill-rule="evenodd" fill="black"/>
<path d="M570.86 250.16L571.11 252.05 566.46 252.05 566.37 251.36 570.86 250.16Z"
fill-rule="evenodd" fill="black"/>
<path d="M566.37 251.36L566.46 252.05 571.11 252.05 570.86 250.16 566.37 251.36Z"
fill-rule="evenodd" fill="black"/>
<path d="M571.11 252.05L570.86 250.16 570.86 250.16 571.11 252.05Z"
fill-rule="evenodd" fill="black"/>
<path d="M566.46 252.05L571.11 252.05 571.11 252.05 566.46 252.05Z"
fill-rule="evenodd" fill="black"/>
<path d="M566.37 251.36L566.46 252.05 566.46 252.05 566.37 251.36Z"
fill-rule="evenodd" fill="black"/>
<path d="M570.86 250.16L566.37 251.36 566.37 251.36 570.86 250.16Z"
fill-rule="evenodd" fill="black"/>
<path d="M571.11 252.05L570.86 253.93 566.37 252.73 566.46 252.05 571.11 252.05Z"
fill-rule="evenodd" fill="black"/>
<path d="M566.46 252.05L566.37 252.73 570.86 253.93 571.11 252.05 566.46 252.05Z"
fill-rule="evenodd" fill="black"/>
<path d="M570.86 253.93L571.11 252.05 571.11 252.05 570.86 253.93Z"
fill-rule="evenodd" fill="black"/>
<path d="M566.37 252.73L570.86 253.93 570.86 253.93 566.37 252.73Z"
fill-rule="evenodd" fill="black"/>
<path d="M566.46 252.05L566.37 252.73 566.37 252.73 566.46 252.05Z"
fill-rule="evenodd" fill="black"/>
<path d="M571.11 252.05L566.46 252.05 566.46 252.05 571.11 252.05Z"
fill-rule="evenodd" fill="black"/>
<path d="M570.86 253.93L570.13 255.69 566.11 253.37 566.37 252.73 570.86 253.93Z"
fill-rule="evenodd" fill="black"/>
<path d="M566.37 252.73L566.11 253.37 570.13 255.69 570.86 253.93 566.37 252.73Z"
fill-rule="evenodd" fill="black"/>
<path d="M570.13 255.69L570.86 253.93 570.86 253.93 570.13 255.69Z"
fill-rule="evenodd" fill="black"/>
<path d="M566.11 253.37L570.13 255.69 570.13 255.69 566.11 253.37Z"
fill-rule="evenodd" fill="black"/>
<path d="M566.37 252.73L566.11 253.37 566.11 253.37 566.37 252.73Z"
fill-rule="evenodd" fill="black"/>
<path d="M570.86 253.93L566.37 252.73 566.37 252.73 570.86 253.93Z"
fill-rule="evenodd" fill="black"/>
<path d="M570.13 255.69L568.97 257.2 565.69 253.92 566.11 253.37 570.13 255.69Z"
fill-rule="evenodd" fill="black"/>
<path d="M566.11 253.37L565.69 253.92 568.97 257.2 570.13 255.69 566.11 253.37Z"
fill-rule="evenodd" fill="black"/>
<path d="M568.97 257.2L570.13 255.69 570.13 255.69 568.97 257.2Z"
fill-rule="evenodd" fill="black"/>
<path d="M565.69 253.92L568.97 257.2 568.97 257.2 565.69 253.92Z"
fill-rule="evenodd" fill="black"/>
<path d="M566.11 253.37L565.69 253.92 565.69 253.92 566.11 253.37Z"
fill-rule="evenodd" fill="black"/>
<path d="M570.13 255.69L566.11 253.37 566.11 253.37 570.13 255.69Z"
fill-rule="evenodd" fill="black"/>
<path d="M568.97 257.2L567.46 258.36 565.14 254.34 565.69 253.92 568.97 257.2Z"
fill-rule="evenodd" fill="black"/>
<path d="M565.69 253.92L565.14 254.34 567.46 258.36 568.97 257.2 565.69 253.92Z"
fill-rule="evenodd" fill="black"/>
<path d="M567.46 258.36L568.97 257.2 568.97 257.2 567.46 258.36Z"
fill-rule="evenodd" fill="black"/>
<path d="M565.14 254.34L567.46 258.36 567.46 258.36 565.14 254.34Z"
fill-rule="evenodd" fill="black"/>
<path d="M565.69 253.92L565.14 254.34 565.14 254.34 565.69 253.92Z"
fill-rule="evenodd" fill="black"/>
<path d="M568.97 257.2L565.69 253.92 565.69 253.92 568.97 257.2Z"
fill-rule="evenodd" fill="black"/>
<path d="M567.46 258.36L565.71 259.09 564.5 254.6 565.14 254.34 567.46 258.36Z"
fill-rule="evenodd" fill="black"/>
<path d="M565.14 254.34L564.5 254.6 565.71 259.09 567.46 258.36 565.14 254.34Z"
fill-rule="evenodd" fill="black"/>
<path d="M565.71 259.09L567.46 258.36 567.46 258.36 565.71 259.09Z"
fill-rule="evenodd" fill="black"/>
<path d="M564.5 254.6L565.71 259.09 565.71 259.09 564.5 254.6Z"
fill-rule="evenodd" fill="black"/>
<path d="M565.14 254.34L564.5 254.6 564.5 254.6 565.14 254.34Z"
fill-rule="evenodd" fill="black"/>
<path d="M567.46 258.36L565.14 254.34 565.14 254.34 567.46 258.36Z"
fill-rule="evenodd" fill="black"/>
<path d="M565.71 259.09L563.82 259.34 563.82 254.69 564.5 254.6 565.71 259.09Z"
fill-rule="evenodd" fill="black"/>
<path d="M564.5 254.6L563.82 254.69 563.82 259.34 565.71 259.09 564.5 254.6Z"
fill-rule="evenodd" fill="black"/>
<path d="M563.82 259.34L565.71 259.09 565.71 259.09 563.82 259.34Z"
fill-rule="evenodd" fill="black"/>
<path d="M563.82 254.69L563.82 259.34 563.82 259.34 563.82 254.69Z"
fill-rule="evenodd" fill="black"/>
<path d="M564.5 254.6L563.82 254.69 563.82 254.69 564.5 254.6Z"
fill-rule="evenodd" fill="black"/>
<path d="M565.71 259.09L564.5 254.6 564.5 254.6 565.71 259.09Z"
fill-rule="evenodd" fill="black"/>
<path d="M563.82 259.34L561.93 259.09 563.13 254.6 563.82 254.69 563.82 259.34Z"
fill-rule="evenodd" fill="black"/>
<path d="M563.82 254.69L563.13 254.6 561.93 259.09 563.82 259.34 563.82 254.69Z"
fill-rule="evenodd" fill="black"/>
<path d="M561.93 259.09L563.82 259.34 563.82 259.34 561.93 259.09Z"
fill-rule="evenodd" fill="black"/>
<path d="M563.13 254.6L561.93 259.09 561.93 259.09 563.13 254.6Z"
fill-rule="evenodd" fill="black"/>
<path d="M563.82 254.69L563.13 254.6 563.13 254.6 563.82 254.69Z"
fill-rule="evenodd" fill="black"/>
<path d="M563.82 259.34L563.82 254.69 563.82 254.69 563.82 259.34Z"
fill-rule="evenodd" fill="black"/>
<path d="M561.93 259.09L560.17 258.36 562.5 254.34 563.13 254.6 561.93 259.09Z"
fill-rule="evenodd" fill="black"/>
<path d="M563.13 254.6L562.5 254.34 560.17 258.36 561.93 259.09 563.13 254.6Z"
fill-rule="evenodd" fill="black"/>
<path d="M560.17 258.36L561.93 259.09 561.93 259.09 560.17 258.36Z"
fill-rule="evenodd" fill="black"/>
<path d="M562.5 254.34L560.17 258.36 560.17 258.36 562.5 254.34Z"
fill-rule="evenodd" fill="black"/>
<path d="M563.13 254.6L562.5 254.34 562.5 254.34 563.13 254.6Z"
fill-rule="evenodd" fill="black"/>
<path d="M561.93 259.09L563.13 254.6 563.13 254.6 561.93 259.09Z"
fill-rule="evenodd" fill="black"/>
<path d="M560.17 258.36L558.66 257.2 561.95 253.91 562.5 254.34 560.17 258.36Z"
fill-rule="evenodd" fill="black"/>
<path d="M562.5 254.34L561.95 253.91 558.66 257.2 560.17 258.36 562.5 254.34Z"
fill-rule="evenodd" fill="black"/>
<path d="M558.66 257.2L560.17 258.36 560.17 258.36 558.66 257.2Z"
fill-rule="evenodd" fill="black"/>
<path d="M561.95 253.91L558.66 257.2 558.66 257.2 561.95 253.91Z"
fill-rule="evenodd" fill="black"/>
<path d="M562.5 254.34L561.95 253.91 561.95 253.91 562.5 254.34Z"
fill-rule="evenodd" fill="black"/>
<path d="M560.17 258.36L562.5 254.34 562.5 254.34 560.17 258.36Z"
fill-rule="evenodd" fill="black"/>
<path d="M558.66 257.2L557.5 255.69 561.53 253.37 561.95 253.91 558.66 257.2Z"
fill-rule="evenodd" fill="black"/>
<path d="M561.95 253.91L561.53 253.37 557.5 255.69 558.66 257.2 561.95 253.91Z"
fill-rule="evenodd" fill="black"/>
<path d="M557.5 255.69L558.66 257.2 558.66 257.2 557.5 255.69Z"
fill-rule="evenodd" fill="black"/>
<path d="M561.53 253.37L557.5 255.69 557.5 255.69 561.53 253.37Z"
fill-rule="evenodd" fill="black"/>
<path d="M561.95 253.91L561.53 253.37 561.53 253.37 561.95 253.91Z"
fill-rule="evenodd" fill="black"/>
<path d="M558.66 257.2L561.95 253.91 561.95 253.91 558.66 257.2Z"
fill-rule="evenodd" fill="black"/>
<path d="M557.5 255.69L556.77 253.93 561.26 252.73 561.53 253.37 557.5 255.69Z"
fill-rule="evenodd" fill="black"/>
<path d="M561.53 253.37L561.26 252.73 556.77 253.93 557.5 255.69 561.53 253.37Z"
fill-rule="evenodd" fill="black"/>
<path d="M556.77 253.93L557.5 255.69 557.5 255.69 556.77 253.93Z"
fill-rule="evenodd" fill="black"/>
<path d="M561.26 252.73L556.77 253.93 556.77 253.93 561.26 252.73Z"
fill-rule="evenodd" fill="black"/>
<path d="M561.53 253.37L561.26 252.73 561.26 252.73 561.53 253.37Z"
fill-rule="evenodd" fill="black"/>
<path d="M557.5 255.69L561.53 253.37 561.53 253.37 557.5 255.69Z"
fill-rule="evenodd" fill="black"/>
<path d="M556.77 253.93L556.52 252.04 561.17 252.04 561.26 252.73 556.77 253.93Z"
fill-rule="evenodd" fill="black"/>
<path d="M561.26 252.73L561.17 252.04 556.52 252.04 556.77 253.93 561.26 252.73Z"
fill-rule="evenodd" fill="black"/>
<path d="M556.52 252.04L556.77 253.93 556.77 253.93 556.52 252.04Z"
fill-rule="evenodd" fill="black"/>
<path d="M561.17 252.04L556.52 252.04 556.52 252.04 561.17 252.04Z"
fill-rule="evenodd" fill="black"/>
<path d="M561.26 252.73L561.17 252.04 561.17 252.04 561.26 252.73Z"
fill-rule="evenodd" fill="black"/>
<path d="M556.77 253.93L561.26 252.73 561.26 252.73 556.77 253.93Z"
fill-rule="evenodd" fill="black"/>
<path d="M556.52 252.04L556.77 250.15 561.26 251.36 561.17 252.04 556.52 252.04Z"
fill-rule="evenodd" fill="black"/>
<path d="M561.17 252.04L561.26 251.36 556.77 250.15 556.52 252.04 561.17 252.04Z"
fill-rule="evenodd" fill="black"/>
<path d="M556.77 250.15L556.52 252.04 556.52 252.04 556.77 250.15Z"
fill-rule="evenodd" fill="black"/>
<path d="M561.26 251.36L556.77 250.15 556.77 250.15 561.26 251.36Z"
fill-rule="evenodd" fill="black"/>
<path d="M561.17 252.04L561.26 251.36 561.26 251.36 561.17 252.04Z"
fill-rule="evenodd" fill="black"/>
<path d="M556.52 252.04L561.17 252.04 561.17 252.04 556.52 252.04Z"
fill-rule="evenodd" fill="black"/>
<path d="M556.77 250.15L557.5 248.39 561.53 250.72 561.26 251.36 556.77 250.15Z"
fill-rule="evenodd" fill="black"/>
<path d="M561.26 251.36L561.53 250.72 557.5 248.39 556.77 250.15 561.26 251.36Z"
fill-rule="evenodd" fill="black"/>
<path d="M557.5 248.39L556.77 250.15 556.77 250.15 557.5 248.39Z"
fill-rule="evenodd" fill="black"/>
<path d="M561.53 250.72L557.5 248.39 557.5 248.39 561.53 250.72Z"
fill-rule="evenodd" fill="black"/>
<path d="M561.26 251.36L561.53 250.72 561.53 250.72 561.26 251.36Z"
fill-rule="evenodd" fill="black"/>
<path d="M556.77 250.15L561.26 251.36 561.26 251.36 556.77 250.15Z"
fill-rule="evenodd" fill="black"/>
<path d="M557.5 248.39L558.66 246.88 561.95 250.17 561.53 250.72 557.5 248.39Z"
fill-rule="evenodd" fill="black"/>
<path d="M561.53 250.72L561.95 250.17 558.66 246.88 557.5 248.39 561.53 250.72Z"
fill-rule="evenodd" fill="black"/>
<path d="M558.66 246.88L557.5 248.39 557.5 248.39 558.66 246.88Z"
fill-rule="evenodd" fill="black"/>
<path d="M561.95 250.17L558.66 246.88 558.66 246.88 561.95 250.17Z"
fill-rule="evenodd" fill="black"/>
<path d="M561.53 250.72L561.95 250.17 561.95 250.17 561.53 250.72Z"
fill-rule="evenodd" fill="black"/>
<path d="M557.5 248.39L561.53 250.72 561.53 250.72 557.5 248.39Z"
fill-rule="evenodd" fill="black"/>
<path d="M558.66 246.88L560.17 245.72 562.5 249.75 561.95 250.17 558.66 246.88Z"
fill-rule="evenodd" fill="black"/>
<path d="M561.95 250.17L562.5 249.75 560.17 245.72 558.66 246.88 561.95 250.17Z"
fill-rule="evenodd" fill="black"/>
<path d="M560.17 245.72L558.66 246.88 558.66 246.88 560.17 245.72Z"
fill-rule="evenodd" fill="black"/>
<path d="M562.5 249.75L560.17 245.72 560.17 245.72 562.5 249.75Z"
fill-rule="evenodd" fill="black"/>
<path d="M561.95 250.17L562.5 249.75 562.5 249.75 561.95 250.17Z"
fill-rule="evenodd" fill="black"/>
<path d="M558.66 246.88L561.95 250.17 561.95 250.17 558.66 246.88Z"
fill-rule="evenodd" fill="black"/>
<path d="M560.17 245.72L561.93 245 563.13 249.49 562.5 249.75 560.17 245.72Z"
fill-rule="evenodd" fill="black"/>
<path d="M562.5 249.75L563.13 249.49 561.93 245 560.17 245.72 562.5 249.75Z"
fill-rule="evenodd" fill="black"/>
<path d="M561.93 245L560.17 245.72 560.17 245.72 561.93 245Z"
fill-rule="evenodd" fill="black"/>
<path d="M563.13 249.49L561.93 245 561.93 245 563.13 249.49Z"
fill-rule="evenodd" fill="black"/>
<path d="M562.5 249.75L563.13 249.49 563.13 249.49 562.5 249.75Z"
fill-rule="evenodd" fill="black"/>
<path d="M560.17 245.72L562.5 249.75 562.5 249.75 560.17 245.72Z"
fill-rule="evenodd" fill="black"/>
<path d="M561.93 245L563.82 244.75 563.82 249.4 563.13 249.49 561.93 245Z"
fill-rule="evenodd" fill="black"/>
<path d="M563.13 249.49L563.82 249.4 563.82 244.75 561.93 245 563.13 249.49Z"
fill-rule="evenodd" fill="black"/>
<path d="M563.82 244.75L561.93 245 561.93 245 563.82 244.75Z"
fill-rule="evenodd" fill="black"/>
<path d="M563.82 249.4L563.82 244.75 563.82 244.75 563.82 249.4Z"
fill-rule="evenodd" fill="black"/>
<path d="M563.13 249.49L563.82 249.4 563.82 249.4 563.13 249.49Z"
fill-rule="evenodd" fill="black"/>
<path d="M561.93 245L563.13 249.49 563.13 249.49 561.93 245Z"
fill-rule="evenodd" fill="black"/>
<path d="M546.75 458L542.1 453.36 586.52 453.36 581.87 458 546.75 458Z"
fill-rule="evenodd" fill="black"/>
<path d="M546.75 458L542.1 453.36 542.1 453.36 546.75 458Z"
fill-rule="evenodd" fill="black"/>
<path d="M546.75 458L542.1 453.36 586.52 453.36 581.87 458 546.75 458Z"
fill-rule="evenodd" fill="black"/>
<path d="M586.52 453.36L581.87 458 581.87 458 586.52 453.36Z"
fill-rule="evenodd" fill="black"/>
<path d="M546.75 458L581.87 458 581.87 458 546.75 458Z"
fill-rule="evenodd" fill="black"/>
<path d="M542.1 453.36L586.52 453.36 586.52 453.36 542.1 453.36Z"
fill-rule="evenodd" fill="black"/>
<path d="M581.87 458L586.52 453.36 586.52 557.44 581.87 552.79 581.87 458Z"
fill-rule="evenodd" fill="black"/>
<path d="M581.87 458L586.52 453.36 586.52 453.36 581.87 458Z"
fill-rule="evenodd" fill="black"/>
<path d="M581.87 458L586.52 453.36 586.52 557.44 581.87 552.79 581.87 458Z"
fill-rule="evenodd" fill="black"/>
<path d="M586.52 557.44L581.87 552.79 581.87 552.79 586.52 557.44Z"
fill-rule="evenodd" fill="black"/>
<path d="M581.87 458L581.87 552.79 581.87 552.79 581.87 458Z"
fill-rule="evenodd" fill="black"/>
<path d="M586.52 453.36L586.52 557.44 586.52 557.44 586.52 453.36Z"
fill-rule="evenodd" fill="black"/>
<path d="M581.87 552.79L586.52 557.44 542.1 557.44 546.75 552.79 581.87 552.79Z"
fill-rule="evenodd" fill="black"/>
<path d="M581.87 552.79L586.52 557.44 586.52 557.44 581.87 552.79Z"
fill-rule="evenodd" fill="black"/>
<path d="M581.87 552.79L586.52 557.44 542.1 557.44 546.75 552.79 581.87 552.79Z"
fill-rule="evenodd" fill="black"/>
<path d="M542.1 557.44L546.75 552.79 546.75 552.79 542.1 557.44Z"
fill-rule="evenodd" fill="black"/>
<path d="M581.87 552.79L546.75 552.79 546.75 552.79 581.87 552.79Z"
fill-rule="evenodd" fill="black"/>
<path d="M586.52 557.44L542.1 557.44 542.1 557.44 586.52 557.44Z"
fill-rule="evenodd" fill="black"/>
<path d="M546.75 552.79L542.1 557.44 542.1 453.36 546.75 458 546.75 552.79Z"
fill-rule="evenodd" fill="black"/>
<path d="M546.75 552.79L542.1 557.44 542.1 557.44 546.75 552.79Z"
fill-rule="evenodd" fill="black"/>
<path d="M546.75 552.79L542.1 557.44 542.1 453.36 546.75 458 546.75 552.79Z"
fill-rule="evenodd" fill="black"/>
<path d="M542.1 453.36L546.75 458 546.75 458 542.1 453.36Z"
fill-rule="evenodd" fill="black"/>
<path d="M546.75 552.79L546.75 458 546.75 458 546.75 552.79Z"
fill-rule="evenodd" fill="black"/>
<path d="M542.1 557.44L542.1 453.36 542.1 453.36 542.1 557.44Z"
fill-rule="evenodd" fill="black"/>
</svg>
