<?xml version="1.0" encoding="UTF-8"?>
<svg xmlns="http://www.w3.org/2000/svg" width="800.000" height="600.000" viewBox="0.0 0.0 800.000 600.000" version="1.1">
  <title>Produce by Acme CAD Converter</title>
  <desc>Produce by Acme CAD Converter</desc>
<path d="M421.5 324.77L416.85 324.77 416.85 247.16 421.5 251.81 421.5 324.77Z"
fill-rule="evenodd" fill="black"/>
<path d="M421.5 324.77L416.85 324.77 416.85 324.77 421.5 324.77Z"
fill-rule="evenodd" fill="black"/>
<path d="M421.5 324.77L416.85 324.77 416.85 247.16 421.5 251.81 421.5 324.77Z"
fill-rule="evenodd" fill="black"/>
<path d="M416.85 247.16L421.5 251.81 421.5 251.81 416.85 247.16Z"
fill-rule="evenodd" fill="black"/>
<path d="M421.5 324.77L421.5 251.81 421.5 251.81 421.5 324.77Z"
fill-rule="evenodd" fill="black"/>
<path d="M416.85 324.77L416.85 247.16 416.85 247.16 416.85 324.77Z"
fill-rule="evenodd" fill="black"/>
<path d="M421.5 251.81L416.85 247.16 554.77 247.16 554.77 251.81 421.5 251.81Z"
fill-rule="evenodd" fill="black"/>
<path d="M421.5 251.81L416.85 247.16 416.85 247.16 421.5 251.81Z"
fill-rule="evenodd" fill="black"/>
<path d="M421.5 251.81L416.85 247.16 554.77 247.16 554.77 251.81 421.5 251.81Z"
fill-rule="evenodd" fill="black"/>
<path d="M554.77 247.16L554.77 251.81 554.77 251.81 554.77 247.16Z"
fill-rule="evenodd" fill="black"/>
<path d="M421.5 251.81L554.77 251.81 554.77 251.81 421.5 251.81Z"
fill-rule="evenodd" fill="black"/>
<path d="M416.85 247.16L554.77 247.16 554.77 247.16 416.85 247.16Z"
fill-rule="evenodd" fill="black"/>
<path d="M452.85 345.57L452.85 340.92 564.07 340.92 564.07 345.57 452.85 345.57Z"
fill-rule="evenodd" fill="black"/>
<path d="M452.85 345.57L452.85 340.92 452.85 340.92 452.85 345.57Z"
fill-rule="evenodd" fill="black"/>
<path d="M452.85 345.57L452.85 340.92 564.07 340.92 564.07 345.57 452.85 345.57Z"
fill-rule="evenodd" fill="black"/>
<path d="M564.07 340.92L564.07 345.57 564.07 345.57 564.07 340.92Z"
fill-rule="evenodd" fill="black"/>
<path d="M452.85 345.57L564.07 345.57 564.07 345.57 452.85 345.57Z"
fill-rule="evenodd" fill="black"/>
<path d="M452.85 340.92L564.07 340.92 564.07 340.92 452.85 340.92Z"
fill-rule="evenodd" fill="black"/>
<path d="M259.09 345.57L259.09 340.92 323.09 340.92 324.33 345.57 259.09 345.57Z"
fill-rule="evenodd" fill="black"/>
<path d="M259.09 345.57L259.09 340.92 259.09 340.92 259.09 345.57Z"
fill-rule="evenodd" fill="black"/>
<path d="M259.09 345.57L259.09 340.92 323.09 340.92 324.33 345.57 259.09 345.57Z"
fill-rule="evenodd" fill="black"/>
<path d="M323.09 340.92L324.33 345.57 324.33 345.57 323.09 340.92Z"
fill-rule="evenodd" fill="black"/>
<path d="M259.09 345.57L324.33 345.57 324.33 345.57 259.09 345.57Z"
fill-rule="evenodd" fill="black"/>
<path d="M259.09 340.92L323.09 340.92 323.09 340.92 259.09 340.92Z"
fill-rule="evenodd" fill="black"/>
<path d="M324.33 345.57L323.09 340.92 451.69 266.67 454.01 270.69 324.33 345.57Z"
fill-rule="evenodd" fill="black"/>
<path d="M324.33 345.57L323.09 340.92 323.09 340.92 324.33 345.57Z"
fill-rule="evenodd" fill="black"/>
<path d="M324.33 345.57L323.09 340.92 451.69 266.67 454.01 270.69 324.33 345.57Z"
fill-rule="evenodd" fill="black"/>
<path d="M451.69 266.67L454.01 270.69 454.01 270.69 451.69 266.67Z"
fill-rule="evenodd" fill="black"/>
<path d="M324.33 345.57L454.01 270.69 454.01 270.69 324.33 345.57Z"
fill-rule="evenodd" fill="black"/>
<path d="M323.09 340.92L451.69 266.67 451.69 266.67 323.09 340.92Z"
fill-rule="evenodd" fill="black"/>
<path d="M450.53 327.1L455.18 327.1 455.18 359.38 450.53 359.38 450.53 327.1Z"
fill-rule="evenodd" fill="black"/>
<path d="M450.53 327.1L455.18 327.1 455.18 327.1 450.53 327.1Z"
fill-rule="evenodd" fill="black"/>
<path d="M450.53 327.1L455.18 327.1 455.18 359.38 450.53 359.38 450.53 327.1Z"
fill-rule="evenodd" fill="black"/>
<path d="M455.18 359.38L450.53 359.38 450.53 359.38 455.18 359.38Z"
fill-rule="evenodd" fill="black"/>
<path d="M450.53 327.1L450.53 359.38 450.53 359.38 450.53 327.1Z"
fill-rule="evenodd" fill="black"/>
<path d="M455.18 327.1L455.18 359.38 455.18 359.38 455.18 327.1Z"
fill-rule="evenodd" fill="black"/>
<path d="M256.77 289.43L261.42 289.43 261.42 397.05 256.77 397.05 256.77 289.43Z"
fill-rule="evenodd" fill="black"/>
<path d="M256.77 289.43L261.42 289.43 261.42 289.43 256.77 289.43Z"
fill-rule="evenodd" fill="black"/>
<path d="M256.77 289.43L261.42 289.43 261.42 397.05 256.77 397.05 256.77 289.43Z"
fill-rule="evenodd" fill="black"/>
<path d="M261.42 397.05L256.77 397.05 256.77 397.05 261.42 397.05Z"
fill-rule="evenodd" fill="black"/>
<path d="M256.77 289.43L256.77 397.05 256.77 397.05 256.77 289.43Z"
fill-rule="evenodd" fill="black"/>
<path d="M261.42 289.43L261.42 397.05 261.42 397.05 261.42 289.43Z"
fill-rule="evenodd" fill="black"/>
<path d="M239.9 375.53L235.25 375.53 235.25 310.96 239.9 310.96 239.9 375.53Z"
fill-rule="evenodd" fill="black"/>
<path d="M239.9 375.53L235.25 375.53 235.25 375.53 239.9 375.53Z"
fill-rule="evenodd" fill="black"/>
<path d="M239.9 375.53L235.25 375.53 235.25 310.96 239.9 310.96 239.9 375.53Z"
fill-rule="evenodd" fill="black"/>
<path d="M235.25 310.96L239.9 310.96 239.9 310.96 235.25 310.96Z"
fill-rule="evenodd" fill="black"/>
<path d="M239.9 375.53L239.9 310.96 239.9 310.96 239.9 375.53Z"
fill-rule="evenodd" fill="black"/>
<path d="M235.25 375.53L235.25 310.96 235.25 310.96 235.25 375.53Z"
fill-rule="evenodd" fill="black"/>
<path d="M213.72 332.48L218.37 332.48 218.37 354 213.72 354 213.72 332.48Z"
fill-rule="evenodd" fill="black"/>
<path d="M213.72 332.48L218.37 332.48 218.37 332.48 213.72 332.48Z"
fill-rule="evenodd" fill="black"/>
<path d="M213.72 332.48L218.37 332.48 218.37 354 213.72 354 213.72 332.48Z"
fill-rule="evenodd" fill="black"/>
<path d="M218.37 354L213.72 354 213.72 354 218.37 354Z"
fill-rule="evenodd" fill="black"/>
<path d="M213.72 332.48L213.72 354 213.72 354 213.72 332.48Z"
fill-rule="evenodd" fill="black"/>
<path d="M218.37 332.48L218.37 354 218.37 354 218.37 332.48Z"
fill-rule="evenodd" fill="black"/>
<path d="M566.39 186.04L561.74 186.04 561.74 1.7 566.39 1.7 566.39 186.04Z"
fill-rule="evenodd" fill="black"/>
<path d="M566.39 186.04L561.74 186.04 561.74 186.04 566.39 186.04Z"
fill-rule="evenodd" fill="black"/>
<path d="M566.39 186.04L561.74 186.04 561.74 1.7 566.39 1.7 566.39 186.04Z"
fill-rule="evenodd" fill="black"/>
<path d="M561.74 1.7L566.39 1.7 566.39 1.7 561.74 1.7Z"
fill-rule="evenodd" fill="black"/>
<path d="M566.39 186.04L566.39 1.7 566.39 1.7 566.39 186.04Z"
fill-rule="evenodd" fill="black"/>
<path d="M561.74 186.04L561.74 1.7 561.74 1.7 561.74 186.04Z"
fill-rule="evenodd" fill="black"/>
<path d="M554.12 188.36L554.12 183.72 574.01 183.72 574.01 188.36 554.12 188.36Z"
fill-rule="evenodd" fill="black"/>
<path d="M554.12 188.36L554.12 183.72 554.12 183.72 554.12 188.36Z"
fill-rule="evenodd" fill="black"/>
<path d="M554.12 188.36L554.12 183.72 574.01 183.72 574.01 188.36 554.12 188.36Z"
fill-rule="evenodd" fill="black"/>
<path d="M574.01 183.72L574.01 188.36 574.01 188.36 574.01 183.72Z"
fill-rule="evenodd" fill="black"/>
<path d="M554.12 188.36L574.01 188.36 574.01 188.36 554.12 188.36Z"
fill-rule="evenodd" fill="black"/>
<path d="M554.12 183.72L574.01 183.72 574.01 183.72 554.12 183.72Z"
fill-rule="evenodd" fill="black"/>
<path d="M564.07 198.3L565.95 198.05 564.75 193.56 564.07 193.65 564.07 198.3Z"
fill-rule="evenodd" fill="black"/>
<path d="M564.07 193.65L564.75 193.56 565.95 198.05 564.07 198.3 564.07 193.65Z"
fill-rule="evenodd" fill="black"/>
<path d="M565.95 198.05L564.07 198.3 564.07 198.3 565.95 198.05Z"
fill-rule="evenodd" fill="black"/>
<path d="M564.75 193.56L565.95 198.05 565.95 198.05 564.75 193.56Z"
fill-rule="evenodd" fill="black"/>
<path d="M564.07 193.65L564.75 193.56 564.75 193.56 564.07 193.65Z"
fill-rule="evenodd" fill="black"/>
<path d="M564.07 198.3L564.07 193.65 564.07 193.65 564.07 198.3Z"
fill-rule="evenodd" fill="black"/>
<path d="M565.95 198.05L567.71 197.32 565.39 193.3 564.75 193.56 565.95 198.05Z"
fill-rule="evenodd" fill="black"/>
<path d="M564.75 193.56L565.39 193.3 567.71 197.32 565.95 198.05 564.75 193.56Z"
fill-rule="evenodd" fill="black"/>
<path d="M567.71 197.32L565.95 198.05 565.95 198.05 567.71 197.32Z"
fill-rule="evenodd" fill="black"/>
<path d="M565.39 193.3L567.71 197.32 567.71 197.32 565.39 193.3Z"
fill-rule="evenodd" fill="black"/>
<path d="M564.75 193.56L565.39 193.3 565.39 193.3 564.75 193.56Z"
fill-rule="evenodd" fill="black"/>
<path d="M565.95 198.05L564.75 193.56 564.75 193.56 565.95 198.05Z"
fill-rule="evenodd" fill="black"/>
<path d="M567.71 197.32L569.22 196.16 565.93 192.88 565.39 193.3 567.71 197.32Z"
fill-rule="evenodd" fill="black"/>
<path d="M565.39 193.3L565.93 192.88 569.22 196.16 567.71 197.32 565.39 193.3Z"
fill-rule="evenodd" fill="black"/>
<path d="M569.22 196.16L567.71 197.32 567.71 197.32 569.22 196.16Z"
fill-rule="evenodd" fill="black"/>
<path d="M565.93 192.88L569.22 196.16 569.22 196.16 565.93 192.88Z"
fill-rule="evenodd" fill="black"/>
<path d="M565.39 193.3L565.93 192.88 565.93 192.88 565.39 193.3Z"
fill-rule="evenodd" fill="black"/>
<path d="M567.71 197.32L565.39 193.3 565.39 193.3 567.71 197.32Z"
fill-rule="evenodd" fill="black"/>
<path d="M569.22 196.16L570.38 194.65 566.35 192.33 565.93 192.88 569.22 196.16Z"
fill-rule="evenodd" fill="black"/>
<path d="M565.93 192.88L566.35 192.33 570.38 194.65 569.22 196.16 565.93 192.88Z"
fill-rule="evenodd" fill="black"/>
<path d="M570.38 194.65L569.22 196.16 569.22 196.16 570.38 194.65Z"
fill-rule="evenodd" fill="black"/>
<path d="M566.35 192.33L570.38 194.65 570.38 194.65 566.35 192.33Z"
fill-rule="evenodd" fill="black"/>
<path d="M565.93 192.88L566.35 192.33 566.35 192.33 565.93 192.88Z"
fill-rule="evenodd" fill="black"/>
<path d="M569.22 196.16L565.93 192.88 565.93 192.88 569.22 196.16Z"
fill-rule="evenodd" fill="black"/>
<path d="M570.38 194.65L571.11 192.89 566.62 191.69 566.35 192.33 570.38 194.65Z"
fill-rule="evenodd" fill="black"/>
<path d="M566.35 192.33L566.62 191.69 571.11 192.89 570.38 194.65 566.35 192.33Z"
fill-rule="evenodd" fill="black"/>
<path d="M571.11 192.89L570.38 194.65 570.38 194.65 571.11 192.89Z"
fill-rule="evenodd" fill="black"/>
<path d="M566.62 191.69L571.11 192.89 571.11 192.89 566.62 191.69Z"
fill-rule="evenodd" fill="black"/>
<path d="M566.35 192.33L566.62 191.69 566.62 191.69 566.35 192.33Z"
fill-rule="evenodd" fill="black"/>
<path d="M570.38 194.65L566.35 192.33 566.35 192.33 570.38 194.65Z"
fill-rule="evenodd" fill="black"/>
<path d="M571.11 192.89L571.36 191.01 566.71 191.01 566.62 191.69 571.11 192.89Z"
fill-rule="evenodd" fill="black"/>
<path d="M566.62 191.69L566.71 191.01 571.36 191.01 571.11 192.89 566.62 191.69Z"
fill-rule="evenodd" fill="black"/>
<path d="M571.36 191.01L571.11 192.89 571.11 192.89 571.36 191.01Z"
fill-rule="evenodd" fill="black"/>
<path d="M566.71 191.01L571.36 191.01 571.36 191.01 566.71 191.01Z"
fill-rule="evenodd" fill="black"/>
<path d="M566.62 191.69L566.71 191.01 566.71 191.01 566.62 191.69Z"
fill-rule="evenodd" fill="black"/>
<path d="M571.11 192.89L566.62 191.69 566.62 191.69 571.11 192.89Z"
fill-rule="evenodd" fill="black"/>
<path d="M571.36 191.01L571.11 189.12 566.62 190.32 566.71 191.01 571.36 191.01Z"
fill-rule="evenodd" fill="black"/>
<path d="M566.71 191.01L566.62 190.32 571.11 189.12 571.36 191.01 566.71 191.01Z"
fill-rule="evenodd" fill="black"/>
<path d="M571.11 189.12L571.36 191.01 571.36 191.01 571.11 189.12Z"
fill-rule="evenodd" fill="black"/>
<path d="M566.62 190.32L571.11 189.12 571.11 189.12 566.62 190.32Z"
fill-rule="evenodd" fill="black"/>
<path d="M566.71 191.01L566.62 190.32 566.62 190.32 566.71 191.01Z"
fill-rule="evenodd" fill="black"/>
<path d="M571.36 191.01L566.71 191.01 566.71 191.01 571.36 191.01Z"
fill-rule="evenodd" fill="black"/>
<path d="M571.11 189.12L570.38 187.36 566.35 189.69 566.62 190.32 571.11 189.12Z"
fill-rule="evenodd" fill="black"/>
<path d="M566.62 190.32L566.35 189.69 570.38 187.36 571.11 189.12 566.62 190.32Z"
fill-rule="evenodd" fill="black"/>
<path d="M570.38 187.36L571.11 189.12 571.11 189.12 570.38 187.36Z"
fill-rule="evenodd" fill="black"/>
<path d="M566.35 189.69L570.38 187.36 570.38 187.36 566.35 189.69Z"
fill-rule="evenodd" fill="black"/>
<path d="M566.62 190.32L566.35 189.69 566.35 189.69 566.62 190.32Z"
fill-rule="evenodd" fill="black"/>
<path d="M571.11 189.12L566.62 190.32 566.62 190.32 571.11 189.12Z"
fill-rule="evenodd" fill="black"/>
<path d="M570.38 187.36L569.22 185.85 565.93 189.14 566.35 189.69 570.38 187.36Z"
fill-rule="evenodd" fill="black"/>
<path d="M566.35 189.69L565.93 189.14 569.22 185.85 570.38 187.36 566.35 189.69Z"
fill-rule="evenodd" fill="black"/>
<path d="M569.22 185.85L570.38 187.36 570.38 187.36 569.22 185.85Z"
fill-rule="evenodd" fill="black"/>
<path d="M565.93 189.14L569.22 185.85 569.22 185.85 565.93 189.14Z"
fill-rule="evenodd" fill="black"/>
<path d="M566.35 189.69L565.93 189.14 565.93 189.14 566.35 189.69Z"
fill-rule="evenodd" fill="black"/>
<path d="M570.38 187.36L566.35 189.69 566.35 189.69 570.38 187.36Z"
fill-rule="evenodd" fill="black"/>
<path d="M569.22 185.85L567.71 184.69 565.39 188.72 565.93 189.14 569.22 185.85Z"
fill-rule="evenodd" fill="black"/>
<path d="M565.93 189.14L565.39 188.72 567.71 184.69 569.22 185.85 565.93 189.14Z"
fill-rule="evenodd" fill="black"/>
<path d="M567.71 184.69L569.22 185.85 569.22 185.85 567.71 184.69Z"
fill-rule="evenodd" fill="black"/>
<path d="M565.39 188.72L567.71 184.69 567.71 184.69 565.39 188.72Z"
fill-rule="evenodd" fill="black"/>
<path d="M565.93 189.14L565.39 188.72 565.39 188.72 565.93 189.14Z"
fill-rule="evenodd" fill="black"/>
<path d="M569.22 185.85L565.93 189.14 565.93 189.14 569.22 185.85Z"
fill-rule="evenodd" fill="black"/>
<path d="M567.71 184.69L565.95 183.96 564.75 188.45 565.39 188.72 567.71 184.69Z"
fill-rule="evenodd" fill="black"/>
<path d="M565.39 188.72L564.75 188.45 565.95 183.96 567.71 184.69 565.39 188.72Z"
fill-rule="evenodd" fill="black"/>
<path d="M565.95 183.96L567.71 184.69 567.71 184.69 565.95 183.96Z"
fill-rule="evenodd" fill="black"/>
<path d="M564.75 188.45L565.95 183.96 565.95 183.96 564.75 188.45Z"
fill-rule="evenodd" fill="black"/>
<path d="M565.39 188.72L564.75 188.45 564.75 188.45 565.39 188.72Z"
fill-rule="evenodd" fill="black"/>
<path d="M567.71 184.69L565.39 188.72 565.39 188.72 567.71 184.69Z"
fill-rule="evenodd" fill="black"/>
<path d="M565.95 183.96L564.07 183.72 564.07 188.36 564.75 188.45 565.95 183.96Z"
fill-rule="evenodd" fill="black"/>
<path d="M564.75 188.45L564.07 188.36 564.07 183.72 565.95 183.96 564.75 188.45Z"
fill-rule="evenodd" fill="black"/>
<path d="M564.07 183.72L565.95 183.96 565.95 183.96 564.07 183.72Z"
fill-rule="evenodd" fill="black"/>
<path d="M564.07 188.36L564.07 183.72 564.07 183.72 564.07 188.36Z"
fill-rule="evenodd" fill="black"/>
<path d="M564.75 188.45L564.07 188.36 564.07 188.36 564.75 188.45Z"
fill-rule="evenodd" fill="black"/>
<path d="M565.95 183.96L564.75 188.45 564.75 188.45 565.95 183.96Z"
fill-rule="evenodd" fill="black"/>
<path d="M564.07 183.72L562.18 183.96 563.38 188.46 564.07 188.36 564.07 183.72Z"
fill-rule="evenodd" fill="black"/>
<path d="M564.07 188.36L563.38 188.46 562.18 183.96 564.07 183.72 564.07 188.36Z"
fill-rule="evenodd" fill="black"/>
<path d="M562.18 183.96L564.07 183.72 564.07 183.72 562.18 183.96Z"
fill-rule="evenodd" fill="black"/>
<path d="M563.38 188.46L562.18 183.96 562.18 183.96 563.38 188.46Z"
fill-rule="evenodd" fill="black"/>
<path d="M564.07 188.36L563.38 188.46 563.38 188.46 564.07 188.36Z"
fill-rule="evenodd" fill="black"/>
<path d="M564.07 183.72L564.07 188.36 564.07 188.36 564.07 183.72Z"
fill-rule="evenodd" fill="black"/>
<path d="M562.18 183.96L560.42 184.69 562.74 188.72 563.38 188.46 562.18 183.96Z"
fill-rule="evenodd" fill="black"/>
<path d="M563.38 188.46L562.74 188.72 560.42 184.69 562.18 183.96 563.38 188.46Z"
fill-rule="evenodd" fill="black"/>
<path d="M560.42 184.69L562.18 183.96 562.18 183.96 560.42 184.69Z"
fill-rule="evenodd" fill="black"/>
<path d="M562.74 188.72L560.42 184.69 560.42 184.69 562.74 188.72Z"
fill-rule="evenodd" fill="black"/>
<path d="M563.38 188.46L562.74 188.72 562.74 188.72 563.38 188.46Z"
fill-rule="evenodd" fill="black"/>
<path d="M562.18 183.96L563.38 188.46 563.38 188.46 562.18 183.96Z"
fill-rule="evenodd" fill="black"/>
<path d="M560.42 184.69L558.91 185.85 562.19 189.14 562.74 188.72 560.42 184.69Z"
fill-rule="evenodd" fill="black"/>
<path d="M562.74 188.72L562.19 189.14 558.91 185.85 560.42 184.69 562.74 188.72Z"
fill-rule="evenodd" fill="black"/>
<path d="M558.91 185.85L560.42 184.69 560.42 184.69 558.91 185.85Z"
fill-rule="evenodd" fill="black"/>
<path d="M562.19 189.14L558.91 185.85 558.91 185.85 562.19 189.14Z"
fill-rule="evenodd" fill="black"/>
<path d="M562.74 188.72L562.19 189.14 562.19 189.14 562.74 188.72Z"
fill-rule="evenodd" fill="black"/>
<path d="M560.42 184.69L562.74 188.72 562.74 188.72 560.42 184.69Z"
fill-rule="evenodd" fill="black"/>
<path d="M558.91 185.85L557.75 187.36 561.77 189.69 562.19 189.14 558.91 185.85Z"
fill-rule="evenodd" fill="black"/>
<path d="M562.19 189.14L561.77 189.69 557.75 187.36 558.91 185.85 562.19 189.14Z"
fill-rule="evenodd" fill="black"/>
<path d="M557.75 187.36L558.91 185.85 558.91 185.85 557.75 187.36Z"
fill-rule="evenodd" fill="black"/>
<path d="M561.77 189.69L557.75 187.36 557.75 187.36 561.77 189.69Z"
fill-rule="evenodd" fill="black"/>
<path d="M562.19 189.14L561.77 189.69 561.77 189.69 562.19 189.14Z"
fill-rule="evenodd" fill="black"/>
<path d="M558.91 185.85L562.19 189.14 562.19 189.14 558.91 185.85Z"
fill-rule="evenodd" fill="black"/>
<path d="M557.75 187.36L557.02 189.12 561.51 190.33 561.77 189.69 557.75 187.36Z"
fill-rule="evenodd" fill="black"/>
<path d="M561.77 189.69L561.51 190.33 557.02 189.12 557.75 187.36 561.77 189.69Z"
fill-rule="evenodd" fill="black"/>
<path d="M557.02 189.12L557.75 187.36 557.75 187.36 557.02 189.12Z"
fill-rule="evenodd" fill="black"/>
<path d="M561.51 190.33L557.02 189.12 557.02 189.12 561.51 190.33Z"
fill-rule="evenodd" fill="black"/>
<path d="M561.77 189.69L561.51 190.33 561.51 190.33 561.77 189.69Z"
fill-rule="evenodd" fill="black"/>
<path d="M557.75 187.36L561.77 189.69 561.77 189.69 557.75 187.36Z"
fill-rule="evenodd" fill="black"/>
<path d="M557.02 189.12L556.77 191.01 561.42 191.01 561.51 190.33 557.02 189.12Z"
fill-rule="evenodd" fill="black"/>
<path d="M561.51 190.33L561.42 191.01 556.77 191.01 557.02 189.12 561.51 190.33Z"
fill-rule="evenodd" fill="black"/>
<path d="M556.77 191.01L557.02 189.12 557.02 189.12 556.77 191.01Z"
fill-rule="evenodd" fill="black"/>
<path d="M561.42 191.01L556.77 191.01 556.77 191.01 561.42 191.01Z"
fill-rule="evenodd" fill="black"/>
<path d="M561.51 190.33L561.42 191.01 561.42 191.01 561.51 190.33Z"
fill-rule="evenodd" fill="black"/>
<path d="M557.02 189.12L561.51 190.33 561.51 190.33 557.02 189.12Z"
fill-rule="evenodd" fill="black"/>
<path d="M556.77 191.01L557.02 192.9 561.51 191.7 561.42 191.01 556.77 191.01Z"
fill-rule="evenodd" fill="black"/>
<path d="M561.42 191.01L561.51 191.7 557.02 192.9 556.77 191.01 561.42 191.01Z"
fill-rule="evenodd" fill="black"/>
<path d="M557.02 192.9L556.77 191.01 556.77 191.01 557.02 192.9Z"
fill-rule="evenodd" fill="black"/>
<path d="M561.51 191.7L557.02 192.9 557.02 192.9 561.51 191.7Z"
fill-rule="evenodd" fill="black"/>
<path d="M561.42 191.01L561.51 191.7 561.51 191.7 561.42 191.01Z"
fill-rule="evenodd" fill="black"/>
<path d="M556.77 191.01L561.42 191.01 561.42 191.01 556.77 191.01Z"
fill-rule="evenodd" fill="black"/>
<path d="M557.02 192.9L557.75 194.66 561.77 192.34 561.51 191.7 557.02 192.9Z"
fill-rule="evenodd" fill="black"/>
<path d="M561.51 191.7L561.77 192.34 557.75 194.66 557.02 192.9 561.51 191.7Z"
fill-rule="evenodd" fill="black"/>
<path d="M557.75 194.66L557.02 192.9 557.02 192.9 557.75 194.66Z"
fill-rule="evenodd" fill="black"/>
<path d="M561.77 192.34L557.75 194.66 557.75 194.66 561.77 192.34Z"
fill-rule="evenodd" fill="black"/>
<path d="M561.51 191.7L561.77 192.34 561.77 192.34 561.51 191.7Z"
fill-rule="evenodd" fill="black"/>
<path d="M557.02 192.9L561.51 191.7 561.51 191.7 557.02 192.9Z"
fill-rule="evenodd" fill="black"/>
<path d="M557.75 194.66L558.91 196.17 562.19 192.88 561.77 192.34 557.75 194.66Z"
fill-rule="evenodd" fill="black"/>
<path d="M561.77 192.34L562.19 192.88 558.91 196.17 557.75 194.66 561.77 192.34Z"
fill-rule="evenodd" fill="black"/>
<path d="M558.91 196.17L557.75 194.66 557.75 194.66 558.91 196.17Z"
fill-rule="evenodd" fill="black"/>
<path d="M562.19 192.88L558.91 196.17 558.91 196.17 562.19 192.88Z"
fill-rule="evenodd" fill="black"/>
<path d="M561.77 192.34L562.19 192.88 562.19 192.88 561.77 192.34Z"
fill-rule="evenodd" fill="black"/>
<path d="M557.75 194.66L561.77 192.34 561.77 192.34 557.75 194.66Z"
fill-rule="evenodd" fill="black"/>
<path d="M558.91 196.17L560.42 197.33 562.74 193.3 562.19 192.88 558.91 196.17Z"
fill-rule="evenodd" fill="black"/>
<path d="M562.19 192.88L562.74 193.3 560.42 197.33 558.91 196.17 562.19 192.88Z"
fill-rule="evenodd" fill="black"/>
<path d="M560.42 197.33L558.91 196.17 558.91 196.17 560.42 197.33Z"
fill-rule="evenodd" fill="black"/>
<path d="M562.74 193.3L560.42 197.33 560.42 197.33 562.74 193.3Z"
fill-rule="evenodd" fill="black"/>
<path d="M562.19 192.88L562.74 193.3 562.74 193.3 562.19 192.88Z"
fill-rule="evenodd" fill="black"/>
<path d="M558.91 196.17L562.19 192.88 562.19 192.88 558.91 196.17Z"
fill-rule="evenodd" fill="black"/>
<path d="M560.42 197.33L562.18 198.06 563.38 193.57 562.74 193.3 560.42 197.33Z"
fill-rule="evenodd" fill="black"/>
<path d="M562.74 193.3L563.38 193.57 562.18 198.06 560.42 197.33 562.74 193.3Z"
fill-rule="evenodd" fill="black"/>
<path d="M562.18 198.06L560.42 197.33 560.42 197.33 562.18 198.06Z"
fill-rule="evenodd" fill="black"/>
<path d="M563.38 193.57L562.18 198.06 562.18 198.06 563.38 193.57Z"
fill-rule="evenodd" fill="black"/>
<path d="M562.74 193.3L563.38 193.57 563.38 193.57 562.74 193.3Z"
fill-rule="evenodd" fill="black"/>
<path d="M560.42 197.33L562.74 193.3 562.74 193.3 560.42 197.33Z"
fill-rule="evenodd" fill="black"/>
<path d="M562.18 198.06L564.07 198.31 564.07 193.66 563.38 193.57 562.18 198.06Z"
fill-rule="evenodd" fill="black"/>
<path d="M563.38 193.57L564.07 193.66 564.07 198.31 562.18 198.06 563.38 193.57Z"
fill-rule="evenodd" fill="black"/>
<path d="M564.07 198.31L562.18 198.06 562.18 198.06 564.07 198.31Z"
fill-rule="evenodd" fill="black"/>
<path d="M564.07 193.66L564.07 198.31 564.07 198.31 564.07 193.66Z"
fill-rule="evenodd" fill="black"/>
<path d="M563.38 193.57L564.07 193.66 564.07 193.66 563.38 193.57Z"
fill-rule="evenodd" fill="black"/>
<path d="M562.18 198.06L563.38 193.57 563.38 193.57 562.18 198.06Z"
fill-rule="evenodd" fill="black"/>
<path d="M566.39 598.3L561.74 598.3 561.74 266.21 566.39 264.96 566.39 598.3Z"
fill-rule="evenodd" fill="black"/>
<path d="M566.39 598.3L561.74 598.3 561.74 598.3 566.39 598.3Z"
fill-rule="evenodd" fill="black"/>
<path d="M566.39 598.3L561.74 598.3 561.74 266.21 566.39 264.96 566.39 598.3Z"
fill-rule="evenodd" fill="black"/>
<path d="M561.74 266.21L566.39 264.96 566.39 264.96 561.74 266.21Z"
fill-rule="evenodd" fill="black"/>
<path d="M566.39 598.3L566.39 264.96 566.39 264.96 566.39 598.3Z"
fill-rule="evenodd" fill="black"/>
<path d="M561.74 598.3L561.74 266.21 561.74 266.21 561.74 598.3Z"
fill-rule="evenodd" fill="black"/>
<path d="M566.39 264.96L561.74 266.21 516.13 187.2 520.15 184.88 566.39 264.96Z"
fill-rule="evenodd" fill="black"/>
<path d="M566.39 264.96L561.74 266.21 561.74 266.21 566.39 264.96Z"
fill-rule="evenodd" fill="black"/>
<path d="M566.39 264.96L561.74 266.21 516.13 187.2 520.15 184.88 566.39 264.96Z"
fill-rule="evenodd" fill="black"/>
<path d="M516.13 187.2L520.15 184.88 520.15 184.88 516.13 187.2Z"
fill-rule="evenodd" fill="black"/>
<path d="M566.39 264.96L520.15 184.88 520.15 184.88 566.39 264.96Z"
fill-rule="evenodd" fill="black"/>
<path d="M561.74 266.21L516.13 187.2 516.13 187.2 561.74 266.21Z"
fill-rule="evenodd" fill="black"/>
<path d="M564.07 350.53L565.95 350.28 564.75 345.79 564.07 345.88 564.07 350.53Z"
fill-rule="evenodd" fill="black"/>
<path d="M564.07 345.88L564.75 345.79 565.95 350.28 564.07 350.53 564.07 345.88Z"
fill-rule="evenodd" fill="black"/>
<path d="M565.95 350.28L564.07 350.53 564.07 350.53 565.95 350.28Z"
fill-rule="evenodd" fill="black"/>
<path d="M564.75 345.79L565.95 350.28 565.95 350.28 564.75 345.79Z"
fill-rule="evenodd" fill="black"/>
<path d="M564.07 345.88L564.75 345.79 564.75 345.79 564.07 345.88Z"
fill-rule="evenodd" fill="black"/>
<path d="M564.07 350.53L564.07 345.88 564.07 345.88 564.07 350.53Z"
fill-rule="evenodd" fill="black"/>
<path d="M565.95 350.28L567.71 349.56 565.39 345.53 564.75 345.79 565.95 350.28Z"
fill-rule="evenodd" fill="black"/>
<path d="M564.75 345.79L565.39 345.53 567.71 349.56 565.95 350.28 564.75 345.79Z"
fill-rule="evenodd" fill="black"/>
<path d="M567.71 349.56L565.95 350.28 565.95 350.28 567.71 349.56Z"
fill-rule="evenodd" fill="black"/>
<path d="M565.39 345.53L567.71 349.56 567.71 349.56 565.39 345.53Z"
fill-rule="evenodd" fill="black"/>
<path d="M564.75 345.79L565.39 345.53 565.39 345.53 564.75 345.79Z"
fill-rule="evenodd" fill="black"/>
<path d="M565.95 350.28L564.75 345.79 564.75 345.79 565.95 350.28Z"
fill-rule="evenodd" fill="black"/>
<path d="M567.71 349.56L569.22 348.4 565.93 345.11 565.39 345.53 567.71 349.56Z"
fill-rule="evenodd" fill="black"/>
<path d="M565.39 345.53L565.93 345.11 569.22 348.4 567.71 349.56 565.39 345.53Z"
fill-rule="evenodd" fill="black"/>
<path d="M569.22 348.4L567.71 349.56 567.71 349.56 569.22 348.4Z"
fill-rule="evenodd" fill="black"/>
<path d="M565.93 345.11L569.22 348.4 569.22 348.4 565.93 345.11Z"
fill-rule="evenodd" fill="black"/>
<path d="M565.39 345.53L565.93 345.11 565.93 345.11 565.39 345.53Z"
fill-rule="evenodd" fill="black"/>
<path d="M567.71 349.56L565.39 345.53 565.39 345.53 567.71 349.56Z"
fill-rule="evenodd" fill="black"/>
<path d="M569.22 348.4L570.38 346.89 566.35 344.56 565.93 345.11 569.22 348.4Z"
fill-rule="evenodd" fill="black"/>
<path d="M565.93 345.11L566.35 344.56 570.38 346.89 569.22 348.4 565.93 345.11Z"
fill-rule="evenodd" fill="black"/>
<path d="M570.38 346.89L569.22 348.4 569.22 348.4 570.38 346.89Z"
fill-rule="evenodd" fill="black"/>
<path d="M566.35 344.56L570.38 346.89 570.38 346.89 566.35 344.56Z"
fill-rule="evenodd" fill="black"/>
<path d="M565.93 345.11L566.35 344.56 566.35 344.56 565.93 345.11Z"
fill-rule="evenodd" fill="black"/>
<path d="M569.22 348.4L565.93 345.11 565.93 345.11 569.22 348.4Z"
fill-rule="evenodd" fill="black"/>
<path d="M570.38 346.89L571.11 345.13 566.62 343.93 566.35 344.56 570.38 346.89Z"
fill-rule="evenodd" fill="black"/>
<path d="M566.35 344.56L566.62 343.93 571.11 345.13 570.38 346.89 566.35 344.56Z"
fill-rule="evenodd" fill="black"/>
<path d="M571.11 345.13L570.38 346.89 570.38 346.89 571.11 345.13Z"
fill-rule="evenodd" fill="black"/>
<path d="M566.62 343.93L571.11 345.13 571.11 345.13 566.62 343.93Z"
fill-rule="evenodd" fill="black"/>
<path d="M566.35 344.56L566.62 343.93 566.62 343.93 566.35 344.56Z"
fill-rule="evenodd" fill="black"/>
<path d="M570.38 346.89L566.35 344.56 566.35 344.56 570.38 346.89Z"
fill-rule="evenodd" fill="black"/>
<path d="M571.11 345.13L571.36 343.24 566.71 343.24 566.62 343.93 571.11 345.13Z"
fill-rule="evenodd" fill="black"/>
<path d="M566.62 343.93L566.71 343.24 571.36 343.24 571.11 345.13 566.62 343.93Z"
fill-rule="evenodd" fill="black"/>
<path d="M571.36 343.24L571.11 345.13 571.11 345.13 571.36 343.24Z"
fill-rule="evenodd" fill="black"/>
<path d="M566.71 343.24L571.36 343.24 571.36 343.24 566.71 343.24Z"
fill-rule="evenodd" fill="black"/>
<path d="M566.62 343.93L566.71 343.24 566.71 343.24 566.62 343.93Z"
fill-rule="evenodd" fill="black"/>
<path d="M571.11 345.13L566.62 343.93 566.62 343.93 571.11 345.13Z"
fill-rule="evenodd" fill="black"/>
<path d="M571.36 343.24L571.11 341.35 566.62 342.56 566.71 343.24 571.36 343.24Z"
fill-rule="evenodd" fill="black"/>
<path d="M566.71 343.24L566.62 342.56 571.11 341.35 571.36 343.24 566.71 343.24Z"
fill-rule="evenodd" fill="black"/>
<path d="M571.11 341.35L571.36 343.24 571.36 343.24 571.11 341.35Z"
fill-rule="evenodd" fill="black"/>
<path d="M566.62 342.56L571.11 341.35 571.11 341.35 566.62 342.56Z"
fill-rule="evenodd" fill="black"/>
<path d="M566.71 343.24L566.62 342.56 566.62 342.56 566.71 343.24Z"
fill-rule="evenodd" fill="black"/>
<path d="M571.36 343.24L566.71 343.24 566.71 343.24 571.36 343.24Z"
fill-rule="evenodd" fill="black"/>
<path d="M571.11 341.35L570.38 339.6 566.35 341.92 566.62 342.56 571.11 341.35Z"
fill-rule="evenodd" fill="black"/>
<path d="M566.62 342.56L566.35 341.92 570.38 339.6 571.11 341.35 566.62 342.56Z"
fill-rule="evenodd" fill="black"/>
<path d="M570.38 339.6L571.11 341.35 571.11 341.35 570.38 339.6Z"
fill-rule="evenodd" fill="black"/>
<path d="M566.35 341.92L570.38 339.6 570.38 339.6 566.35 341.92Z"
fill-rule="evenodd" fill="black"/>
<path d="M566.62 342.56L566.35 341.92 566.35 341.92 566.62 342.56Z"
fill-rule="evenodd" fill="black"/>
<path d="M571.11 341.35L566.62 342.56 566.62 342.56 571.11 341.35Z"
fill-rule="evenodd" fill="black"/>
<path d="M570.38 339.6L569.22 338.09 565.93 341.37 566.35 341.92 570.38 339.6Z"
fill-rule="evenodd" fill="black"/>
<path d="M566.35 341.92L565.93 341.37 569.22 338.09 570.38 339.6 566.35 341.92Z"
fill-rule="evenodd" fill="black"/>
<path d="M569.22 338.09L570.38 339.6 570.38 339.6 569.22 338.09Z"
fill-rule="evenodd" fill="black"/>
<path d="M565.93 341.37L569.22 338.09 569.22 338.09 565.93 341.37Z"
fill-rule="evenodd" fill="black"/>
<path d="M566.35 341.92L565.93 341.37 565.93 341.37 566.35 341.92Z"
fill-rule="evenodd" fill="black"/>
<path d="M570.38 339.6L566.35 341.92 566.35 341.92 570.38 339.6Z"
fill-rule="evenodd" fill="black"/>
<path d="M569.22 338.09L567.71 336.93 565.39 340.95 565.93 341.37 569.22 338.09Z"
fill-rule="evenodd" fill="black"/>
<path d="M565.93 341.37L565.39 340.95 567.71 336.93 569.22 338.09 565.93 341.37Z"
fill-rule="evenodd" fill="black"/>
<path d="M567.71 336.93L569.22 338.09 569.22 338.09 567.71 336.93Z"
fill-rule="evenodd" fill="black"/>
<path d="M565.39 340.95L567.71 336.93 567.71 336.93 565.39 340.95Z"
fill-rule="evenodd" fill="black"/>
<path d="M565.93 341.37L565.39 340.95 565.39 340.95 565.93 341.37Z"
fill-rule="evenodd" fill="black"/>
<path d="M569.22 338.09L565.93 341.37 565.93 341.37 569.22 338.09Z"
fill-rule="evenodd" fill="black"/>
<path d="M567.71 336.93L565.95 336.2 564.75 340.69 565.39 340.95 567.71 336.93Z"
fill-rule="evenodd" fill="black"/>
<path d="M565.39 340.95L564.75 340.69 565.95 336.2 567.71 336.93 565.39 340.95Z"
fill-rule="evenodd" fill="black"/>
<path d="M565.95 336.2L567.71 336.93 567.71 336.93 565.95 336.2Z"
fill-rule="evenodd" fill="black"/>
<path d="M564.75 340.69L565.95 336.2 565.95 336.2 564.75 340.69Z"
fill-rule="evenodd" fill="black"/>
<path d="M565.39 340.95L564.75 340.69 564.75 340.69 565.39 340.95Z"
fill-rule="evenodd" fill="black"/>
<path d="M567.71 336.93L565.39 340.95 565.39 340.95 567.71 336.93Z"
fill-rule="evenodd" fill="black"/>
<path d="M565.95 336.2L564.07 335.95 564.07 340.6 564.75 340.69 565.95 336.2Z"
fill-rule="evenodd" fill="black"/>
<path d="M564.75 340.69L564.07 340.6 564.07 335.95 565.95 336.2 564.75 340.69Z"
fill-rule="evenodd" fill="black"/>
<path d="M564.07 335.95L565.95 336.2 565.95 336.2 564.07 335.95Z"
fill-rule="evenodd" fill="black"/>
<path d="M564.07 340.6L564.07 335.95 564.07 335.95 564.07 340.6Z"
fill-rule="evenodd" fill="black"/>
<path d="M564.75 340.69L564.07 340.6 564.07 340.6 564.75 340.69Z"
fill-rule="evenodd" fill="black"/>
<path d="M565.95 336.2L564.75 340.69 564.75 340.69 565.95 336.2Z"
fill-rule="evenodd" fill="black"/>
<path d="M564.07 335.95L562.18 336.2 563.38 340.69 564.07 340.6 564.07 335.95Z"
fill-rule="evenodd" fill="black"/>
<path d="M564.07 340.6L563.38 340.69 562.18 336.2 564.07 335.95 564.07 340.6Z"
fill-rule="evenodd" fill="black"/>
<path d="M562.18 336.2L564.07 335.95 564.07 335.95 562.18 336.2Z"
fill-rule="evenodd" fill="black"/>
<path d="M563.38 340.69L562.18 336.2 562.18 336.2 563.38 340.69Z"
fill-rule="evenodd" fill="black"/>
<path d="M564.07 340.6L563.38 340.69 563.38 340.69 564.07 340.6Z"
fill-rule="evenodd" fill="black"/>
<path d="M564.07 335.95L564.07 340.6 564.07 340.6 564.07 335.95Z"
fill-rule="evenodd" fill="black"/>
<path d="M562.18 336.2L560.42 336.93 562.74 340.95 563.38 340.69 562.18 336.2Z"
fill-rule="evenodd" fill="black"/>
<path d="M563.38 340.69L562.74 340.95 560.42 336.93 562.18 336.2 563.38 340.69Z"
fill-rule="evenodd" fill="black"/>
<path d="M560.42 336.93L562.18 336.2 562.18 336.2 560.42 336.93Z"
fill-rule="evenodd" fill="black"/>
<path d="M562.74 340.95L560.42 336.93 560.42 336.93 562.74 340.95Z"
fill-rule="evenodd" fill="black"/>
<path d="M563.38 340.69L562.74 340.95 562.74 340.95 563.38 340.69Z"
fill-rule="evenodd" fill="black"/>
<path d="M562.18 336.2L563.38 340.69 563.38 340.69 562.18 336.2Z"
fill-rule="evenodd" fill="black"/>
<path d="M560.42 336.93L558.91 338.09 562.19 341.37 562.74 340.95 560.42 336.93Z"
fill-rule="evenodd" fill="black"/>
<path d="M562.74 340.95L562.19 341.37 558.91 338.09 560.42 336.93 562.74 340.95Z"
fill-rule="evenodd" fill="black"/>
<path d="M558.91 338.09L560.42 336.93 560.42 336.93 558.91 338.09Z"
fill-rule="evenodd" fill="black"/>
<path d="M562.19 341.37L558.91 338.09 558.91 338.09 562.19 341.37Z"
fill-rule="evenodd" fill="black"/>
<path d="M562.74 340.95L562.19 341.37 562.19 341.37 562.74 340.95Z"
fill-rule="evenodd" fill="black"/>
<path d="M560.42 336.93L562.74 340.95 562.74 340.95 560.42 336.93Z"
fill-rule="evenodd" fill="black"/>
<path d="M558.91 338.09L557.75 339.6 561.77 341.92 562.19 341.37 558.91 338.09Z"
fill-rule="evenodd" fill="black"/>
<path d="M562.19 341.37L561.77 341.92 557.75 339.6 558.91 338.09 562.19 341.37Z"
fill-rule="evenodd" fill="black"/>
<path d="M557.75 339.6L558.91 338.09 558.91 338.09 557.75 339.6Z"
fill-rule="evenodd" fill="black"/>
<path d="M561.77 341.92L557.75 339.6 557.75 339.6 561.77 341.92Z"
fill-rule="evenodd" fill="black"/>
<path d="M562.19 341.37L561.77 341.92 561.77 341.92 562.19 341.37Z"
fill-rule="evenodd" fill="black"/>
<path d="M558.91 338.09L562.19 341.37 562.19 341.37 558.91 338.09Z"
fill-rule="evenodd" fill="black"/>
<path d="M557.75 339.6L557.02 341.36 561.51 342.56 561.77 341.92 557.75 339.6Z"
fill-rule="evenodd" fill="black"/>
<path d="M561.77 341.92L561.51 342.56 557.02 341.36 557.75 339.6 561.77 341.92Z"
fill-rule="evenodd" fill="black"/>
<path d="M557.02 341.36L557.75 339.6 557.75 339.6 557.02 341.36Z"
fill-rule="evenodd" fill="black"/>
<path d="M561.51 342.56L557.02 341.36 557.02 341.36 561.51 342.56Z"
fill-rule="evenodd" fill="black"/>
<path d="M561.77 341.92L561.51 342.56 561.51 342.56 561.77 341.92Z"
fill-rule="evenodd" fill="black"/>
<path d="M557.75 339.6L561.77 341.92 561.77 341.92 557.75 339.6Z"
fill-rule="evenodd" fill="black"/>
<path d="M557.02 341.36L556.77 343.25 561.42 343.25 561.51 342.56 557.02 341.36Z"
fill-rule="evenodd" fill="black"/>
<path d="M561.51 342.56L561.42 343.25 556.77 343.25 557.02 341.36 561.51 342.56Z"
fill-rule="evenodd" fill="black"/>
<path d="M556.77 343.25L557.02 341.36 557.02 341.36 556.77 343.25Z"
fill-rule="evenodd" fill="black"/>
<path d="M561.42 343.25L556.77 343.25 556.77 343.25 561.42 343.25Z"
fill-rule="evenodd" fill="black"/>
<path d="M561.51 342.56L561.42 343.25 561.42 343.25 561.51 342.56Z"
fill-rule="evenodd" fill="black"/>
<path d="M557.02 341.36L561.51 342.56 561.51 342.56 557.02 341.36Z"
fill-rule="evenodd" fill="black"/>
<path d="M556.77 343.25L557.02 345.13 561.51 343.93 561.42 343.25 556.77 343.25Z"
fill-rule="evenodd" fill="black"/>
<path d="M561.42 343.25L561.51 343.93 557.02 345.13 556.77 343.25 561.42 343.25Z"
fill-rule="evenodd" fill="black"/>
<path d="M557.02 345.13L556.77 343.25 556.77 343.25 557.02 345.13Z"
fill-rule="evenodd" fill="black"/>
<path d="M561.51 343.93L557.02 345.13 557.02 345.13 561.51 343.93Z"
fill-rule="evenodd" fill="black"/>
<path d="M561.42 343.25L561.51 343.93 561.51 343.93 561.42 343.25Z"
fill-rule="evenodd" fill="black"/>
<path d="M556.77 343.25L561.42 343.25 561.42 343.25 556.77 343.25Z"
fill-rule="evenodd" fill="black"/>
<path d="M557.02 345.13L557.75 346.89 561.77 344.57 561.51 343.93 557.02 345.13Z"
fill-rule="evenodd" fill="black"/>
<path d="M561.51 343.93L561.77 344.57 557.75 346.89 557.02 345.13 561.51 343.93Z"
fill-rule="evenodd" fill="black"/>
<path d="M557.75 346.89L557.02 345.13 557.02 345.13 557.75 346.89Z"
fill-rule="evenodd" fill="black"/>
<path d="M561.77 344.57L557.75 346.89 557.75 346.89 561.77 344.57Z"
fill-rule="evenodd" fill="black"/>
<path d="M561.51 343.93L561.77 344.57 561.77 344.57 561.51 343.93Z"
fill-rule="evenodd" fill="black"/>
<path d="M557.02 345.13L561.51 343.93 561.51 343.93 557.02 345.13Z"
fill-rule="evenodd" fill="black"/>
<path d="M557.75 346.89L558.91 348.41 562.19 345.12 561.77 344.57 557.75 346.89Z"
fill-rule="evenodd" fill="black"/>
<path d="M561.77 344.57L562.19 345.12 558.91 348.41 557.75 346.89 561.77 344.57Z"
fill-rule="evenodd" fill="black"/>
<path d="M558.91 348.41L557.75 346.89 557.75 346.89 558.91 348.41Z"
fill-rule="evenodd" fill="black"/>
<path d="M562.19 345.12L558.91 348.41 558.91 348.41 562.19 345.12Z"
fill-rule="evenodd" fill="black"/>
<path d="M561.77 344.57L562.19 345.12 562.19 345.12 561.77 344.57Z"
fill-rule="evenodd" fill="black"/>
<path d="M557.75 346.89L561.77 344.57 561.77 344.57 557.75 346.89Z"
fill-rule="evenodd" fill="black"/>
<path d="M558.91 348.41L560.42 349.57 562.74 345.54 562.19 345.12 558.91 348.41Z"
fill-rule="evenodd" fill="black"/>
<path d="M562.19 345.12L562.74 345.54 560.42 349.57 558.91 348.41 562.19 345.12Z"
fill-rule="evenodd" fill="black"/>
<path d="M560.42 349.57L558.91 348.41 558.91 348.41 560.42 349.57Z"
fill-rule="evenodd" fill="black"/>
<path d="M562.74 345.54L560.42 349.57 560.42 349.57 562.74 345.54Z"
fill-rule="evenodd" fill="black"/>
<path d="M562.19 345.12L562.74 345.54 562.74 345.54 562.19 345.12Z"
fill-rule="evenodd" fill="black"/>
<path d="M558.91 348.41L562.19 345.12 562.19 345.12 558.91 348.41Z"
fill-rule="evenodd" fill="black"/>
<path d="M560.42 349.57L562.18 350.29 563.38 345.8 562.74 345.54 560.42 349.57Z"
fill-rule="evenodd" fill="black"/>
<path d="M562.74 345.54L563.38 345.8 562.18 350.29 560.42 349.57 562.74 345.54Z"
fill-rule="evenodd" fill="black"/>
<path d="M562.18 350.29L560.42 349.57 560.42 349.57 562.18 350.29Z"
fill-rule="evenodd" fill="black"/>
<path d="M563.38 345.8L562.18 350.29 562.18 350.29 563.38 345.8Z"
fill-rule="evenodd" fill="black"/>
<path d="M562.74 345.54L563.38 345.8 563.38 345.8 562.74 345.54Z"
fill-rule="evenodd" fill="black"/>
<path d="M560.42 349.57L562.74 345.54 562.74 345.54 560.42 349.57Z"
fill-rule="evenodd" fill="black"/>
<path d="M562.18 350.29L564.07 350.54 564.07 345.89 563.38 345.8 562.18 350.29Z"
fill-rule="evenodd" fill="black"/>
<path d="M563.38 345.8L564.07 345.89 564.07 350.54 562.18 350.29 563.38 345.8Z"
fill-rule="evenodd" fill="black"/>
<path d="M564.07 350.54L562.18 350.29 562.18 350.29 564.07 350.54Z"
fill-rule="evenodd" fill="black"/>
<path d="M564.07 345.89L564.07 350.54 564.07 350.54 564.07 345.89Z"
fill-rule="evenodd" fill="black"/>
<path d="M563.38 345.8L564.07 345.89 564.07 345.89 563.38 345.8Z"
fill-rule="evenodd" fill="black"/>
<path d="M562.18 350.29L563.38 345.8 563.38 345.8 562.18 350.29Z"
fill-rule="evenodd" fill="black"/>
<path d="M416.85 148.63L421.5 148.63 421.5 221.6 416.85 226.24 416.85 148.63Z"
fill-rule="evenodd" fill="black"/>
<path d="M416.85 148.63L421.5 148.63 421.5 148.63 416.85 148.63Z"
fill-rule="evenodd" fill="black"/>
<path d="M416.85 148.63L421.5 148.63 421.5 221.6 416.85 226.24 416.85 148.63Z"
fill-rule="evenodd" fill="black"/>
<path d="M421.5 221.6L416.85 226.24 416.85 226.24 421.5 221.6Z"
fill-rule="evenodd" fill="black"/>
<path d="M416.85 148.63L416.85 226.24 416.85 226.24 416.85 148.63Z"
fill-rule="evenodd" fill="black"/>
<path d="M421.5 148.63L421.5 221.6 421.5 221.6 421.5 148.63Z"
fill-rule="evenodd" fill="black"/>
<path d="M416.85 226.24L421.5 221.6 540.01 221.6 540.01 226.24 416.85 226.24Z"
fill-rule="evenodd" fill="black"/>
<path d="M416.85 226.24L421.5 221.6 421.5 221.6 416.85 226.24Z"
fill-rule="evenodd" fill="black"/>
<path d="M416.85 226.24L421.5 221.6 540.01 221.6 540.01 226.24 416.85 226.24Z"
fill-rule="evenodd" fill="black"/>
<path d="M540.01 221.6L540.01 226.24 540.01 226.24 540.01 221.6Z"
fill-rule="evenodd" fill="black"/>
<path d="M416.85 226.24L540.01 226.24 540.01 226.24 416.85 226.24Z"
fill-rule="evenodd" fill="black"/>
<path d="M421.5 221.6L540.01 221.6 540.01 221.6 421.5 221.6Z"
fill-rule="evenodd" fill="black"/>
<path d="M452.85 132.49L452.85 127.84 564.07 127.84 564.07 132.49 452.85 132.49Z"
fill-rule="evenodd" fill="black"/>
<path d="M452.85 132.49L452.85 127.84 452.85 127.84 452.85 132.49Z"
fill-rule="evenodd" fill="black"/>
<path d="M452.85 132.49L452.85 127.84 564.07 127.84 564.07 132.49 452.85 132.49Z"
fill-rule="evenodd" fill="black"/>
<path d="M564.07 127.84L564.07 132.49 564.07 132.49 564.07 127.84Z"
fill-rule="evenodd" fill="black"/>
<path d="M452.85 132.49L564.07 132.49 564.07 132.49 452.85 132.49Z"
fill-rule="evenodd" fill="black"/>
<path d="M452.85 127.84L564.07 127.84 564.07 127.84 452.85 127.84Z"
fill-rule="evenodd" fill="black"/>
<path d="M259.09 132.49L259.09 127.84 323.09 127.84 324.33 132.49 259.09 132.49Z"
fill-rule="evenodd" fill="black"/>
<path d="M259.09 132.49L259.09 127.84 259.09 127.84 259.09 132.49Z"
fill-rule="evenodd" fill="black"/>
<path d="M259.09 132.49L259.09 127.84 323.09 127.84 324.33 132.49 259.09 132.49Z"
fill-rule="evenodd" fill="black"/>
<path d="M323.09 127.84L324.33 132.49 324.33 132.49 323.09 127.84Z"
fill-rule="evenodd" fill="black"/>
<path d="M259.09 132.49L324.33 132.49 324.33 132.49 259.09 132.49Z"
fill-rule="evenodd" fill="black"/>
<path d="M259.09 127.84L323.09 127.84 323.09 127.84 259.09 127.84Z"
fill-rule="evenodd" fill="black"/>
<path d="M324.33 132.49L323.09 127.84 451.69 53.59 454.01 57.62 324.33 132.49Z"
fill-rule="evenodd" fill="black"/>
<path d="M324.33 132.49L323.09 127.84 323.09 127.84 324.33 132.49Z"
fill-rule="evenodd" fill="black"/>
<path d="M324.33 132.49L323.09 127.84 451.69 53.59 454.01 57.62 324.33 132.49Z"
fill-rule="evenodd" fill="black"/>
<path d="M451.69 53.59L454.01 57.62 454.01 57.62 451.69 53.59Z"
fill-rule="evenodd" fill="black"/>
<path d="M324.33 132.49L454.01 57.62 454.01 57.62 324.33 132.49Z"
fill-rule="evenodd" fill="black"/>
<path d="M323.09 127.84L451.69 53.59 451.69 53.59 323.09 127.84Z"
fill-rule="evenodd" fill="black"/>
<path d="M455.18 146.31L450.53 146.31 450.53 114.03 455.18 114.03 455.18 146.31Z"
fill-rule="evenodd" fill="black"/>
<path d="M455.18 146.31L450.53 146.31 450.53 146.31 455.18 146.31Z"
fill-rule="evenodd" fill="black"/>
<path d="M455.18 146.31L450.53 146.31 450.53 114.03 455.18 114.03 455.18 146.31Z"
fill-rule="evenodd" fill="black"/>
<path d="M450.53 114.03L455.18 114.03 455.18 114.03 450.53 114.03Z"
fill-rule="evenodd" fill="black"/>
<path d="M455.18 146.31L455.18 114.03 455.18 114.03 455.18 146.31Z"
fill-rule="evenodd" fill="black"/>
<path d="M450.53 146.31L450.53 114.03 450.53 114.03 450.53 146.31Z"
fill-rule="evenodd" fill="black"/>
<path d="M261.42 183.98L256.77 183.98 256.77 76.36 261.42 76.36 261.42 183.98Z"
fill-rule="evenodd" fill="black"/>
<path d="M261.42 183.98L256.77 183.98 256.77 183.98 261.42 183.98Z"
fill-rule="evenodd" fill="black"/>
<path d="M261.42 183.98L256.77 183.98 256.77 76.36 261.42 76.36 261.42 183.98Z"
fill-rule="evenodd" fill="black"/>
<path d="M256.77 76.36L261.42 76.36 261.42 76.36 256.77 76.36Z"
fill-rule="evenodd" fill="black"/>
<path d="M261.42 183.98L261.42 76.36 261.42 76.36 261.42 183.98Z"
fill-rule="evenodd" fill="black"/>
<path d="M256.77 183.98L256.77 76.36 256.77 76.36 256.77 183.98Z"
fill-rule="evenodd" fill="black"/>
<path d="M235.25 97.88L239.9 97.88 239.9 162.45 235.25 162.45 235.25 97.88Z"
fill-rule="evenodd" fill="black"/>
<path d="M235.25 97.88L239.9 97.88 239.9 97.88 235.25 97.88Z"
fill-rule="evenodd" fill="black"/>
<path d="M235.25 97.88L239.9 97.88 239.9 162.45 235.25 162.45 235.25 97.88Z"
fill-rule="evenodd" fill="black"/>
<path d="M239.9 162.45L235.25 162.45 235.25 162.45 239.9 162.45Z"
fill-rule="evenodd" fill="black"/>
<path d="M235.25 97.88L235.25 162.45 235.25 162.45 235.25 97.88Z"
fill-rule="evenodd" fill="black"/>
<path d="M239.9 97.88L239.9 162.45 239.9 162.45 239.9 97.88Z"
fill-rule="evenodd" fill="black"/>
<path d="M218.37 140.93L213.72 140.93 213.72 119.41 218.37 119.41 218.37 140.93Z"
fill-rule="evenodd" fill="black"/>
<path d="M218.37 140.93L213.72 140.93 213.72 140.93 218.37 140.93Z"
fill-rule="evenodd" fill="black"/>
<path d="M218.37 140.93L213.72 140.93 213.72 119.41 218.37 119.41 218.37 140.93Z"
fill-rule="evenodd" fill="black"/>
<path d="M213.72 119.41L218.37 119.41 218.37 119.41 213.72 119.41Z"
fill-rule="evenodd" fill="black"/>
<path d="M218.37 140.93L218.37 119.41 218.37 119.41 218.37 140.93Z"
fill-rule="evenodd" fill="black"/>
<path d="M213.72 140.93L213.72 119.41 213.72 119.41 213.72 140.93Z"
fill-rule="evenodd" fill="black"/>
<path d="M546.5 392.91L541.85 388.26 586.28 388.26 581.63 392.91 546.5 392.91Z"
fill-rule="evenodd" fill="black"/>
<path d="M546.5 392.91L541.85 388.26 541.85 388.26 546.5 392.91Z"
fill-rule="evenodd" fill="black"/>
<path d="M546.5 392.91L541.85 388.26 586.28 388.26 581.63 392.91 546.5 392.91Z"
fill-rule="evenodd" fill="black"/>
<path d="M586.28 388.26L581.63 392.91 581.63 392.91 586.28 388.26Z"
fill-rule="evenodd" fill="black"/>
<path d="M546.5 392.91L581.63 392.91 581.63 392.91 546.5 392.91Z"
fill-rule="evenodd" fill="black"/>
<path d="M541.85 388.26L586.28 388.26 586.28 388.26 541.85 388.26Z"
fill-rule="evenodd" fill="black"/>
<path d="M581.63 392.91L586.28 388.26 586.28 492.34 581.63 487.69 581.63 392.91Z"
fill-rule="evenodd" fill="black"/>
<path d="M581.63 392.91L586.28 388.26 586.28 388.26 581.63 392.91Z"
fill-rule="evenodd" fill="black"/>
<path d="M581.63 392.91L586.28 388.26 586.28 492.34 581.63 487.69 581.63 392.91Z"
fill-rule="evenodd" fill="black"/>
<path d="M586.28 492.34L581.63 487.69 581.63 487.69 586.28 492.34Z"
fill-rule="evenodd" fill="black"/>
<path d="M581.63 392.91L581.63 487.69 581.63 487.69 581.63 392.91Z"
fill-rule="evenodd" fill="black"/>
<path d="M586.28 388.26L586.28 492.34 586.28 492.34 586.28 388.26Z"
fill-rule="evenodd" fill="black"/>
<path d="M581.63 487.69L586.28 492.34 541.85 492.34 546.5 487.69 581.63 487.69Z"
fill-rule="evenodd" fill="black"/>
<path d="M581.63 487.69L586.28 492.34 586.28 492.34 581.63 487.69Z"
fill-rule="evenodd" fill="black"/>
<path d="M581.63 487.69L586.28 492.34 541.85 492.34 546.5 487.69 581.63 487.69Z"
fill-rule="evenodd" fill="black"/>
<path d="M541.85 492.34L546.5 487.69 546.5 487.69 541.85 492.34Z"
fill-rule="evenodd" fill="black"/>
<path d="M581.63 487.69L546.5 487.69 546.5 487.69 581.63 487.69Z"
fill-rule="evenodd" fill="black"/>
<path d="M586.28 492.34L541.85 492.34 541.85 492.34 586.28 492.34Z"
fill-rule="evenodd" fill="black"/>
<path d="M546.5 487.69L541.85 492.34 541.85 388.26 546.5 392.91 546.5 487.69Z"
fill-rule="evenodd" fill="black"/>
<path d="M546.5 487.69L541.85 492.34 541.85 492.34 546.5 487.69Z"
fill-rule="evenodd" fill="black"/>
<path d="M546.5 487.69L541.85 492.34 541.85 388.26 546.5 392.91 546.5 487.69Z"
fill-rule="evenodd" fill="black"/>
<path d="M541.85 388.26L546.5 392.91 546.5 392.91 541.85 388.26Z"
fill-rule="evenodd" fill="black"/>
<path d="M546.5 487.69L546.5 392.91 546.5 392.91 546.5 487.69Z"
fill-rule="evenodd" fill="black"/>
<path d="M541.85 492.34L541.85 388.26 541.85 388.26 541.85 492.34Z"
fill-rule="evenodd" fill="black"/>
</svg>
