<?xml version="1.0" encoding="UTF-8"?>
<svg xmlns="http://www.w3.org/2000/svg" width="800.000" height="600.000" viewBox="0.0 0.0 800.000 600.000" version="1.1">
  <title>Produce by Acme CAD Converter</title>
  <desc>Produce by Acme CAD Converter</desc>
<path d="M427.63 369.95L422.99 369.95 422.99 241.2 427.63 245.85 427.63 369.95Z"
fill-rule="evenodd" fill="black"/>
<path d="M427.63 369.95L422.99 369.95 422.99 369.95 427.63 369.95Z"
fill-rule="evenodd" fill="black"/>
<path d="M427.63 369.95L422.99 369.95 422.99 241.2 427.63 245.85 427.63 369.95Z"
fill-rule="evenodd" fill="black"/>
<path d="M422.99 241.2L427.63 245.85 427.63 245.85 422.99 241.2Z"
fill-rule="evenodd" fill="black"/>
<path d="M427.63 369.95L427.63 245.85 427.63 245.85 427.63 369.95Z"
fill-rule="evenodd" fill="black"/>
<path d="M422.99 369.95L422.99 241.2 422.99 241.2 422.99 369.95Z"
fill-rule="evenodd" fill="black"/>
<path d="M427.63 245.85L422.99 241.2 553.52 241.2 553.52 245.85 427.63 245.85Z"
fill-rule="evenodd" fill="black"/>
<path d="M427.63 245.85L422.99 241.2 422.99 241.2 427.63 245.85Z"
fill-rule="evenodd" fill="black"/>
<path d="M427.63 245.85L422.99 241.2 553.52 241.2 553.52 245.85 427.63 245.85Z"
fill-rule="evenodd" fill="black"/>
<path d="M553.52 241.2L553.52 245.85 553.52 245.85 553.52 241.2Z"
fill-rule="evenodd" fill="black"/>
<path d="M427.63 245.85L553.52 245.85 553.52 245.85 427.63 245.85Z"
fill-rule="evenodd" fill="black"/>
<path d="M422.99 241.2L553.52 241.2 553.52 241.2 422.99 241.2Z"
fill-rule="evenodd" fill="black"/>
<path d="M458.98 390.74L458.98 386.09 570.2 386.09 570.2 390.74 458.98 390.74Z"
fill-rule="evenodd" fill="black"/>
<path d="M458.98 390.74L458.98 386.09 458.98 386.09 458.98 390.74Z"
fill-rule="evenodd" fill="black"/>
<path d="M458.98 390.74L458.98 386.09 570.2 386.09 570.2 390.74 458.98 390.74Z"
fill-rule="evenodd" fill="black"/>
<path d="M570.2 386.09L570.2 390.74 570.2 390.74 570.2 386.09Z"
fill-rule="evenodd" fill="black"/>
<path d="M458.98 390.74L570.2 390.74 570.2 390.74 458.98 390.74Z"
fill-rule="evenodd" fill="black"/>
<path d="M458.98 386.09L570.2 386.09 570.2 386.09 458.98 386.09Z"
fill-rule="evenodd" fill="black"/>
<path d="M265.23 390.74L265.23 386.09 329.22 386.09 330.47 390.74 265.23 390.74Z"
fill-rule="evenodd" fill="black"/>
<path d="M265.23 390.74L265.23 386.09 265.23 386.09 265.23 390.74Z"
fill-rule="evenodd" fill="black"/>
<path d="M265.23 390.74L265.23 386.09 329.22 386.09 330.47 390.74 265.23 390.74Z"
fill-rule="evenodd" fill="black"/>
<path d="M329.22 386.09L330.47 390.74 330.47 390.74 329.22 386.09Z"
fill-rule="evenodd" fill="black"/>
<path d="M265.23 390.74L330.47 390.74 330.47 390.74 265.23 390.74Z"
fill-rule="evenodd" fill="black"/>
<path d="M265.23 386.09L329.22 386.09 329.22 386.09 265.23 386.09Z"
fill-rule="evenodd" fill="black"/>
<path d="M330.47 390.74L329.22 386.09 457.82 311.84 460.15 315.87 330.47 390.74Z"
fill-rule="evenodd" fill="black"/>
<path d="M330.47 390.74L329.22 386.09 329.22 386.09 330.47 390.74Z"
fill-rule="evenodd" fill="black"/>
<path d="M330.47 390.74L329.22 386.09 457.82 311.84 460.15 315.87 330.47 390.74Z"
fill-rule="evenodd" fill="black"/>
<path d="M457.82 311.84L460.15 315.87 460.15 315.87 457.82 311.84Z"
fill-rule="evenodd" fill="black"/>
<path d="M330.47 390.74L460.15 315.87 460.15 315.87 330.47 390.74Z"
fill-rule="evenodd" fill="black"/>
<path d="M329.22 386.09L457.82 311.84 457.82 311.84 329.22 386.09Z"
fill-rule="evenodd" fill="black"/>
<path d="M456.66 372.27L461.31 372.27 461.31 404.56 456.66 404.56 456.66 372.27Z"
fill-rule="evenodd" fill="black"/>
<path d="M456.66 372.27L461.31 372.27 461.31 372.27 456.66 372.27Z"
fill-rule="evenodd" fill="black"/>
<path d="M456.66 372.27L461.31 372.27 461.31 404.56 456.66 404.56 456.66 372.27Z"
fill-rule="evenodd" fill="black"/>
<path d="M461.31 404.56L456.66 404.56 456.66 404.56 461.31 404.56Z"
fill-rule="evenodd" fill="black"/>
<path d="M456.66 372.27L456.66 404.56 456.66 404.56 456.66 372.27Z"
fill-rule="evenodd" fill="black"/>
<path d="M461.31 372.27L461.31 404.56 461.31 404.56 461.31 372.27Z"
fill-rule="evenodd" fill="black"/>
<path d="M262.9 334.61L267.55 334.61 267.55 442.22 262.9 442.22 262.9 334.61Z"
fill-rule="evenodd" fill="black"/>
<path d="M262.9 334.61L267.55 334.61 267.55 334.61 262.9 334.61Z"
fill-rule="evenodd" fill="black"/>
<path d="M262.9 334.61L267.55 334.61 267.55 442.22 262.9 442.22 262.9 334.61Z"
fill-rule="evenodd" fill="black"/>
<path d="M267.55 442.22L262.9 442.22 262.9 442.22 267.55 442.22Z"
fill-rule="evenodd" fill="black"/>
<path d="M262.9 334.61L262.9 442.22 262.9 442.22 262.9 334.61Z"
fill-rule="evenodd" fill="black"/>
<path d="M267.55 334.61L267.55 442.22 267.55 442.22 267.55 334.61Z"
fill-rule="evenodd" fill="black"/>
<path d="M246.03 420.7L241.38 420.7 241.38 356.13 246.03 356.13 246.03 420.7Z"
fill-rule="evenodd" fill="black"/>
<path d="M246.03 420.7L241.38 420.7 241.38 420.7 246.03 420.7Z"
fill-rule="evenodd" fill="black"/>
<path d="M246.03 420.7L241.38 420.7 241.38 356.13 246.03 356.13 246.03 420.7Z"
fill-rule="evenodd" fill="black"/>
<path d="M241.38 356.13L246.03 356.13 246.03 356.13 241.38 356.13Z"
fill-rule="evenodd" fill="black"/>
<path d="M246.03 420.7L246.03 356.13 246.03 356.13 246.03 420.7Z"
fill-rule="evenodd" fill="black"/>
<path d="M241.38 420.7L241.38 356.13 241.38 356.13 241.38 420.7Z"
fill-rule="evenodd" fill="black"/>
<path d="M219.86 377.65L224.51 377.65 224.51 399.18 219.86 399.18 219.86 377.65Z"
fill-rule="evenodd" fill="black"/>
<path d="M219.86 377.65L224.51 377.65 224.51 377.65 219.86 377.65Z"
fill-rule="evenodd" fill="black"/>
<path d="M219.86 377.65L224.51 377.65 224.51 399.18 219.86 399.18 219.86 377.65Z"
fill-rule="evenodd" fill="black"/>
<path d="M224.51 399.18L219.86 399.18 219.86 399.18 224.51 399.18Z"
fill-rule="evenodd" fill="black"/>
<path d="M219.86 377.65L219.86 399.18 219.86 399.18 219.86 377.65Z"
fill-rule="evenodd" fill="black"/>
<path d="M224.51 377.65L224.51 399.18 224.51 399.18 224.51 377.65Z"
fill-rule="evenodd" fill="black"/>
<path d="M572.52 192.86L567.88 192.86 567.88 1.7 572.52 1.7 572.52 192.86Z"
fill-rule="evenodd" fill="black"/>
<path d="M572.52 192.86L567.88 192.86 567.88 192.86 572.52 192.86Z"
fill-rule="evenodd" fill="black"/>
<path d="M572.52 192.86L567.88 192.86 567.88 1.7 572.52 1.7 572.52 192.86Z"
fill-rule="evenodd" fill="black"/>
<path d="M567.88 1.7L572.52 1.7 572.52 1.7 567.88 1.7Z"
fill-rule="evenodd" fill="black"/>
<path d="M572.52 192.86L572.52 1.7 572.52 1.7 572.52 192.86Z"
fill-rule="evenodd" fill="black"/>
<path d="M567.88 192.86L567.88 1.7 567.88 1.7 567.88 192.86Z"
fill-rule="evenodd" fill="black"/>
<path d="M560.26 195.19L560.26 190.54 580.14 190.54 580.14 195.19 560.26 195.19Z"
fill-rule="evenodd" fill="black"/>
<path d="M560.26 195.19L560.26 190.54 560.26 190.54 560.26 195.19Z"
fill-rule="evenodd" fill="black"/>
<path d="M560.26 195.19L560.26 190.54 580.14 190.54 580.14 195.19 560.26 195.19Z"
fill-rule="evenodd" fill="black"/>
<path d="M580.14 190.54L580.14 195.19 580.14 195.19 580.14 190.54Z"
fill-rule="evenodd" fill="black"/>
<path d="M560.26 195.19L580.14 195.19 580.14 195.19 560.26 195.19Z"
fill-rule="evenodd" fill="black"/>
<path d="M560.26 190.54L580.14 190.54 580.14 190.54 560.26 190.54Z"
fill-rule="evenodd" fill="black"/>
<path d="M570.2 205.12L572.09 204.87 570.88 200.38 570.2 200.47 570.2 205.12Z"
fill-rule="evenodd" fill="black"/>
<path d="M570.2 200.47L570.88 200.38 572.09 204.87 570.2 205.12 570.2 200.47Z"
fill-rule="evenodd" fill="black"/>
<path d="M572.09 204.87L570.2 205.12 570.2 205.12 572.09 204.87Z"
fill-rule="evenodd" fill="black"/>
<path d="M570.88 200.38L572.09 204.87 572.09 204.87 570.88 200.38Z"
fill-rule="evenodd" fill="black"/>
<path d="M570.2 200.47L570.88 200.38 570.88 200.38 570.2 200.47Z"
fill-rule="evenodd" fill="black"/>
<path d="M570.2 205.12L570.2 200.47 570.2 200.47 570.2 205.12Z"
fill-rule="evenodd" fill="black"/>
<path d="M572.09 204.87L573.85 204.14 571.52 200.12 570.88 200.38 572.09 204.87Z"
fill-rule="evenodd" fill="black"/>
<path d="M570.88 200.38L571.52 200.12 573.85 204.14 572.09 204.87 570.88 200.38Z"
fill-rule="evenodd" fill="black"/>
<path d="M573.85 204.14L572.09 204.87 572.09 204.87 573.85 204.14Z"
fill-rule="evenodd" fill="black"/>
<path d="M571.52 200.12L573.85 204.14 573.85 204.14 571.52 200.12Z"
fill-rule="evenodd" fill="black"/>
<path d="M570.88 200.38L571.52 200.12 571.52 200.12 570.88 200.38Z"
fill-rule="evenodd" fill="black"/>
<path d="M572.09 204.87L570.88 200.38 570.88 200.38 572.09 204.87Z"
fill-rule="evenodd" fill="black"/>
<path d="M573.85 204.14L575.36 202.98 572.07 199.7 571.52 200.12 573.85 204.14Z"
fill-rule="evenodd" fill="black"/>
<path d="M571.52 200.12L572.07 199.7 575.36 202.98 573.85 204.14 571.52 200.12Z"
fill-rule="evenodd" fill="black"/>
<path d="M575.36 202.98L573.85 204.14 573.85 204.14 575.36 202.98Z"
fill-rule="evenodd" fill="black"/>
<path d="M572.07 199.7L575.36 202.98 575.36 202.98 572.07 199.7Z"
fill-rule="evenodd" fill="black"/>
<path d="M571.52 200.12L572.07 199.7 572.07 199.7 571.52 200.12Z"
fill-rule="evenodd" fill="black"/>
<path d="M573.85 204.14L571.52 200.12 571.52 200.12 573.85 204.14Z"
fill-rule="evenodd" fill="black"/>
<path d="M575.36 202.98L576.51 201.47 572.49 199.15 572.07 199.7 575.36 202.98Z"
fill-rule="evenodd" fill="black"/>
<path d="M572.07 199.7L572.49 199.15 576.51 201.47 575.36 202.98 572.07 199.7Z"
fill-rule="evenodd" fill="black"/>
<path d="M576.51 201.47L575.36 202.98 575.36 202.98 576.51 201.47Z"
fill-rule="evenodd" fill="black"/>
<path d="M572.49 199.15L576.51 201.47 576.51 201.47 572.49 199.15Z"
fill-rule="evenodd" fill="black"/>
<path d="M572.07 199.7L572.49 199.15 572.49 199.15 572.07 199.7Z"
fill-rule="evenodd" fill="black"/>
<path d="M575.36 202.98L572.07 199.7 572.07 199.7 575.36 202.98Z"
fill-rule="evenodd" fill="black"/>
<path d="M576.51 201.47L577.24 199.71 572.75 198.51 572.49 199.15 576.51 201.47Z"
fill-rule="evenodd" fill="black"/>
<path d="M572.49 199.15L572.75 198.51 577.24 199.71 576.51 201.47 572.49 199.15Z"
fill-rule="evenodd" fill="black"/>
<path d="M577.24 199.71L576.51 201.47 576.51 201.47 577.24 199.71Z"
fill-rule="evenodd" fill="black"/>
<path d="M572.75 198.51L577.24 199.71 577.24 199.71 572.75 198.51Z"
fill-rule="evenodd" fill="black"/>
<path d="M572.49 199.15L572.75 198.51 572.75 198.51 572.49 199.15Z"
fill-rule="evenodd" fill="black"/>
<path d="M576.51 201.47L572.49 199.15 572.49 199.15 576.51 201.47Z"
fill-rule="evenodd" fill="black"/>
<path d="M577.24 199.71L577.49 197.83 572.84 197.83 572.75 198.51 577.24 199.71Z"
fill-rule="evenodd" fill="black"/>
<path d="M572.75 198.51L572.84 197.83 577.49 197.83 577.24 199.71 572.75 198.51Z"
fill-rule="evenodd" fill="black"/>
<path d="M577.49 197.83L577.24 199.71 577.24 199.71 577.49 197.83Z"
fill-rule="evenodd" fill="black"/>
<path d="M572.84 197.83L577.49 197.83 577.49 197.83 572.84 197.83Z"
fill-rule="evenodd" fill="black"/>
<path d="M572.75 198.51L572.84 197.83 572.84 197.83 572.75 198.51Z"
fill-rule="evenodd" fill="black"/>
<path d="M577.24 199.71L572.75 198.51 572.75 198.51 577.24 199.71Z"
fill-rule="evenodd" fill="black"/>
<path d="M577.49 197.83L577.24 195.94 572.75 197.14 572.84 197.83 577.49 197.83Z"
fill-rule="evenodd" fill="black"/>
<path d="M572.84 197.83L572.75 197.14 577.24 195.94 577.49 197.83 572.84 197.83Z"
fill-rule="evenodd" fill="black"/>
<path d="M577.24 195.94L577.49 197.83 577.49 197.83 577.24 195.94Z"
fill-rule="evenodd" fill="black"/>
<path d="M572.75 197.14L577.24 195.94 577.24 195.94 572.75 197.14Z"
fill-rule="evenodd" fill="black"/>
<path d="M572.84 197.83L572.75 197.14 572.75 197.14 572.84 197.83Z"
fill-rule="evenodd" fill="black"/>
<path d="M577.49 197.83L572.84 197.83 572.84 197.83 577.49 197.83Z"
fill-rule="evenodd" fill="black"/>
<path d="M577.24 195.94L576.51 194.18 572.49 196.51 572.75 197.14 577.24 195.94Z"
fill-rule="evenodd" fill="black"/>
<path d="M572.75 197.14L572.49 196.51 576.51 194.18 577.24 195.94 572.75 197.14Z"
fill-rule="evenodd" fill="black"/>
<path d="M576.51 194.18L577.24 195.94 577.24 195.94 576.51 194.18Z"
fill-rule="evenodd" fill="black"/>
<path d="M572.49 196.51L576.51 194.18 576.51 194.18 572.49 196.51Z"
fill-rule="evenodd" fill="black"/>
<path d="M572.75 197.14L572.49 196.51 572.49 196.51 572.75 197.14Z"
fill-rule="evenodd" fill="black"/>
<path d="M577.24 195.94L572.75 197.14 572.75 197.14 577.24 195.94Z"
fill-rule="evenodd" fill="black"/>
<path d="M576.51 194.18L575.36 192.67 572.07 195.96 572.49 196.51 576.51 194.18Z"
fill-rule="evenodd" fill="black"/>
<path d="M572.49 196.51L572.07 195.96 575.36 192.67 576.51 194.18 572.49 196.51Z"
fill-rule="evenodd" fill="black"/>
<path d="M575.36 192.67L576.51 194.18 576.51 194.18 575.36 192.67Z"
fill-rule="evenodd" fill="black"/>
<path d="M572.07 195.96L575.36 192.67 575.36 192.67 572.07 195.96Z"
fill-rule="evenodd" fill="black"/>
<path d="M572.49 196.51L572.07 195.96 572.07 195.96 572.49 196.51Z"
fill-rule="evenodd" fill="black"/>
<path d="M576.51 194.18L572.49 196.51 572.49 196.51 576.51 194.18Z"
fill-rule="evenodd" fill="black"/>
<path d="M575.36 192.67L573.85 191.51 571.52 195.54 572.07 195.96 575.36 192.67Z"
fill-rule="evenodd" fill="black"/>
<path d="M572.07 195.96L571.52 195.54 573.85 191.51 575.36 192.67 572.07 195.96Z"
fill-rule="evenodd" fill="black"/>
<path d="M573.85 191.51L575.36 192.67 575.36 192.67 573.85 191.51Z"
fill-rule="evenodd" fill="black"/>
<path d="M571.52 195.54L573.85 191.51 573.85 191.51 571.52 195.54Z"
fill-rule="evenodd" fill="black"/>
<path d="M572.07 195.96L571.52 195.54 571.52 195.54 572.07 195.96Z"
fill-rule="evenodd" fill="black"/>
<path d="M575.36 192.67L572.07 195.96 572.07 195.96 575.36 192.67Z"
fill-rule="evenodd" fill="black"/>
<path d="M573.85 191.51L572.09 190.78 570.88 195.28 571.52 195.54 573.85 191.51Z"
fill-rule="evenodd" fill="black"/>
<path d="M571.52 195.54L570.88 195.28 572.09 190.78 573.85 191.51 571.52 195.54Z"
fill-rule="evenodd" fill="black"/>
<path d="M572.09 190.78L573.85 191.51 573.85 191.51 572.09 190.78Z"
fill-rule="evenodd" fill="black"/>
<path d="M570.88 195.28L572.09 190.78 572.09 190.78 570.88 195.28Z"
fill-rule="evenodd" fill="black"/>
<path d="M571.52 195.54L570.88 195.28 570.88 195.28 571.52 195.54Z"
fill-rule="evenodd" fill="black"/>
<path d="M573.85 191.51L571.52 195.54 571.52 195.54 573.85 191.51Z"
fill-rule="evenodd" fill="black"/>
<path d="M572.09 190.78L570.2 190.54 570.2 195.19 570.88 195.28 572.09 190.78Z"
fill-rule="evenodd" fill="black"/>
<path d="M570.88 195.28L570.2 195.19 570.2 190.54 572.09 190.78 570.88 195.28Z"
fill-rule="evenodd" fill="black"/>
<path d="M570.2 190.54L572.09 190.78 572.09 190.78 570.2 190.54Z"
fill-rule="evenodd" fill="black"/>
<path d="M570.2 195.19L570.2 190.54 570.2 190.54 570.2 195.19Z"
fill-rule="evenodd" fill="black"/>
<path d="M570.88 195.28L570.2 195.19 570.2 195.19 570.88 195.28Z"
fill-rule="evenodd" fill="black"/>
<path d="M572.09 190.78L570.88 195.28 570.88 195.28 572.09 190.78Z"
fill-rule="evenodd" fill="black"/>
<path d="M570.2 190.54L568.31 190.78 569.51 195.28 570.2 195.19 570.2 190.54Z"
fill-rule="evenodd" fill="black"/>
<path d="M570.2 195.19L569.51 195.28 568.31 190.78 570.2 190.54 570.2 195.19Z"
fill-rule="evenodd" fill="black"/>
<path d="M568.31 190.78L570.2 190.54 570.2 190.54 568.31 190.78Z"
fill-rule="evenodd" fill="black"/>
<path d="M569.51 195.28L568.31 190.78 568.31 190.78 569.51 195.28Z"
fill-rule="evenodd" fill="black"/>
<path d="M570.2 195.19L569.51 195.28 569.51 195.28 570.2 195.19Z"
fill-rule="evenodd" fill="black"/>
<path d="M570.2 190.54L570.2 195.19 570.2 195.19 570.2 190.54Z"
fill-rule="evenodd" fill="black"/>
<path d="M568.31 190.78L566.55 191.51 568.88 195.54 569.51 195.28 568.31 190.78Z"
fill-rule="evenodd" fill="black"/>
<path d="M569.51 195.28L568.88 195.54 566.55 191.51 568.31 190.78 569.51 195.28Z"
fill-rule="evenodd" fill="black"/>
<path d="M566.55 191.51L568.31 190.78 568.31 190.78 566.55 191.51Z"
fill-rule="evenodd" fill="black"/>
<path d="M568.88 195.54L566.55 191.51 566.55 191.51 568.88 195.54Z"
fill-rule="evenodd" fill="black"/>
<path d="M569.51 195.28L568.88 195.54 568.88 195.54 569.51 195.28Z"
fill-rule="evenodd" fill="black"/>
<path d="M568.31 190.78L569.51 195.28 569.51 195.28 568.31 190.78Z"
fill-rule="evenodd" fill="black"/>
<path d="M566.55 191.51L565.04 192.67 568.33 195.96 568.88 195.54 566.55 191.51Z"
fill-rule="evenodd" fill="black"/>
<path d="M568.88 195.54L568.33 195.96 565.04 192.67 566.55 191.51 568.88 195.54Z"
fill-rule="evenodd" fill="black"/>
<path d="M565.04 192.67L566.55 191.51 566.55 191.51 565.04 192.67Z"
fill-rule="evenodd" fill="black"/>
<path d="M568.33 195.96L565.04 192.67 565.04 192.67 568.33 195.96Z"
fill-rule="evenodd" fill="black"/>
<path d="M568.88 195.54L568.33 195.96 568.33 195.96 568.88 195.54Z"
fill-rule="evenodd" fill="black"/>
<path d="M566.55 191.51L568.88 195.54 568.88 195.54 566.55 191.51Z"
fill-rule="evenodd" fill="black"/>
<path d="M565.04 192.67L563.88 194.18 567.91 196.51 568.33 195.96 565.04 192.67Z"
fill-rule="evenodd" fill="black"/>
<path d="M568.33 195.96L567.91 196.51 563.88 194.18 565.04 192.67 568.33 195.96Z"
fill-rule="evenodd" fill="black"/>
<path d="M563.88 194.18L565.04 192.67 565.04 192.67 563.88 194.18Z"
fill-rule="evenodd" fill="black"/>
<path d="M567.91 196.51L563.88 194.18 563.88 194.18 567.91 196.51Z"
fill-rule="evenodd" fill="black"/>
<path d="M568.33 195.96L567.91 196.51 567.91 196.51 568.33 195.96Z"
fill-rule="evenodd" fill="black"/>
<path d="M565.04 192.67L568.33 195.96 568.33 195.96 565.04 192.67Z"
fill-rule="evenodd" fill="black"/>
<path d="M563.88 194.18L563.15 195.94 567.64 197.15 567.91 196.51 563.88 194.18Z"
fill-rule="evenodd" fill="black"/>
<path d="M567.91 196.51L567.64 197.15 563.15 195.94 563.88 194.18 567.91 196.51Z"
fill-rule="evenodd" fill="black"/>
<path d="M563.15 195.94L563.88 194.18 563.88 194.18 563.15 195.94Z"
fill-rule="evenodd" fill="black"/>
<path d="M567.64 197.15L563.15 195.94 563.15 195.94 567.64 197.15Z"
fill-rule="evenodd" fill="black"/>
<path d="M567.91 196.51L567.64 197.15 567.64 197.15 567.91 196.51Z"
fill-rule="evenodd" fill="black"/>
<path d="M563.88 194.18L567.91 196.51 567.91 196.51 563.88 194.18Z"
fill-rule="evenodd" fill="black"/>
<path d="M563.15 195.94L562.9 197.83 567.55 197.83 567.64 197.15 563.15 195.94Z"
fill-rule="evenodd" fill="black"/>
<path d="M567.64 197.15L567.55 197.83 562.9 197.83 563.15 195.94 567.64 197.15Z"
fill-rule="evenodd" fill="black"/>
<path d="M562.9 197.83L563.15 195.94 563.15 195.94 562.9 197.83Z"
fill-rule="evenodd" fill="black"/>
<path d="M567.55 197.83L562.9 197.83 562.9 197.83 567.55 197.83Z"
fill-rule="evenodd" fill="black"/>
<path d="M567.64 197.15L567.55 197.83 567.55 197.83 567.64 197.15Z"
fill-rule="evenodd" fill="black"/>
<path d="M563.15 195.94L567.64 197.15 567.64 197.15 563.15 195.94Z"
fill-rule="evenodd" fill="black"/>
<path d="M562.9 197.83L563.15 199.72 567.64 198.52 567.55 197.83 562.9 197.83Z"
fill-rule="evenodd" fill="black"/>
<path d="M567.55 197.83L567.64 198.52 563.15 199.72 562.9 197.83 567.55 197.83Z"
fill-rule="evenodd" fill="black"/>
<path d="M563.15 199.72L562.9 197.83 562.9 197.83 563.15 199.72Z"
fill-rule="evenodd" fill="black"/>
<path d="M567.64 198.52L563.15 199.72 563.15 199.72 567.64 198.52Z"
fill-rule="evenodd" fill="black"/>
<path d="M567.55 197.83L567.64 198.52 567.64 198.52 567.55 197.83Z"
fill-rule="evenodd" fill="black"/>
<path d="M562.9 197.83L567.55 197.83 567.55 197.83 562.9 197.83Z"
fill-rule="evenodd" fill="black"/>
<path d="M563.15 199.72L563.88 201.48 567.91 199.16 567.64 198.52 563.15 199.72Z"
fill-rule="evenodd" fill="black"/>
<path d="M567.64 198.52L567.91 199.16 563.88 201.48 563.15 199.72 567.64 198.52Z"
fill-rule="evenodd" fill="black"/>
<path d="M563.88 201.48L563.15 199.72 563.15 199.72 563.88 201.48Z"
fill-rule="evenodd" fill="black"/>
<path d="M567.91 199.16L563.88 201.48 563.88 201.48 567.91 199.16Z"
fill-rule="evenodd" fill="black"/>
<path d="M567.64 198.52L567.91 199.16 567.91 199.16 567.64 198.52Z"
fill-rule="evenodd" fill="black"/>
<path d="M563.15 199.72L567.64 198.52 567.64 198.52 563.15 199.72Z"
fill-rule="evenodd" fill="black"/>
<path d="M563.88 201.48L565.04 202.99 568.33 199.7 567.91 199.16 563.88 201.48Z"
fill-rule="evenodd" fill="black"/>
<path d="M567.91 199.16L568.33 199.7 565.04 202.99 563.88 201.48 567.91 199.16Z"
fill-rule="evenodd" fill="black"/>
<path d="M565.04 202.99L563.88 201.48 563.88 201.48 565.04 202.99Z"
fill-rule="evenodd" fill="black"/>
<path d="M568.33 199.7L565.04 202.99 565.04 202.99 568.33 199.7Z"
fill-rule="evenodd" fill="black"/>
<path d="M567.91 199.16L568.33 199.7 568.33 199.7 567.91 199.16Z"
fill-rule="evenodd" fill="black"/>
<path d="M563.88 201.48L567.91 199.16 567.91 199.16 563.88 201.48Z"
fill-rule="evenodd" fill="black"/>
<path d="M565.04 202.99L566.55 204.15 568.88 200.13 568.33 199.7 565.04 202.99Z"
fill-rule="evenodd" fill="black"/>
<path d="M568.33 199.7L568.88 200.13 566.55 204.15 565.04 202.99 568.33 199.7Z"
fill-rule="evenodd" fill="black"/>
<path d="M566.55 204.15L565.04 202.99 565.04 202.99 566.55 204.15Z"
fill-rule="evenodd" fill="black"/>
<path d="M568.88 200.13L566.55 204.15 566.55 204.15 568.88 200.13Z"
fill-rule="evenodd" fill="black"/>
<path d="M568.33 199.7L568.88 200.13 568.88 200.13 568.33 199.7Z"
fill-rule="evenodd" fill="black"/>
<path d="M565.04 202.99L568.33 199.7 568.33 199.7 565.04 202.99Z"
fill-rule="evenodd" fill="black"/>
<path d="M566.55 204.15L568.31 204.88 569.51 200.39 568.88 200.13 566.55 204.15Z"
fill-rule="evenodd" fill="black"/>
<path d="M568.88 200.13L569.51 200.39 568.31 204.88 566.55 204.15 568.88 200.13Z"
fill-rule="evenodd" fill="black"/>
<path d="M568.31 204.88L566.55 204.15 566.55 204.15 568.31 204.88Z"
fill-rule="evenodd" fill="black"/>
<path d="M569.51 200.39L568.31 204.88 568.31 204.88 569.51 200.39Z"
fill-rule="evenodd" fill="black"/>
<path d="M568.88 200.13L569.51 200.39 569.51 200.39 568.88 200.13Z"
fill-rule="evenodd" fill="black"/>
<path d="M566.55 204.15L568.88 200.13 568.88 200.13 566.55 204.15Z"
fill-rule="evenodd" fill="black"/>
<path d="M568.31 204.88L570.2 205.13 570.2 200.48 569.51 200.39 568.31 204.88Z"
fill-rule="evenodd" fill="black"/>
<path d="M569.51 200.39L570.2 200.48 570.2 205.13 568.31 204.88 569.51 200.39Z"
fill-rule="evenodd" fill="black"/>
<path d="M570.2 205.13L568.31 204.88 568.31 204.88 570.2 205.13Z"
fill-rule="evenodd" fill="black"/>
<path d="M570.2 200.48L570.2 205.13 570.2 205.13 570.2 200.48Z"
fill-rule="evenodd" fill="black"/>
<path d="M569.51 200.39L570.2 200.48 570.2 200.48 569.51 200.39Z"
fill-rule="evenodd" fill="black"/>
<path d="M568.31 204.88L569.51 200.39 569.51 200.39 568.31 204.88Z"
fill-rule="evenodd" fill="black"/>
<path d="M572.52 598.3L567.88 598.3 567.88 273.03 572.52 271.79 572.52 598.3Z"
fill-rule="evenodd" fill="black"/>
<path d="M572.52 598.3L567.88 598.3 567.88 598.3 572.52 598.3Z"
fill-rule="evenodd" fill="black"/>
<path d="M572.52 598.3L567.88 598.3 567.88 273.03 572.52 271.79 572.52 598.3Z"
fill-rule="evenodd" fill="black"/>
<path d="M567.88 273.03L572.52 271.79 572.52 271.79 567.88 273.03Z"
fill-rule="evenodd" fill="black"/>
<path d="M572.52 598.3L572.52 271.79 572.52 271.79 572.52 598.3Z"
fill-rule="evenodd" fill="black"/>
<path d="M567.88 598.3L567.88 273.03 567.88 273.03 567.88 598.3Z"
fill-rule="evenodd" fill="black"/>
<path d="M572.52 271.79L567.88 273.03 522.26 194.02 526.29 191.7 572.52 271.79Z"
fill-rule="evenodd" fill="black"/>
<path d="M572.52 271.79L567.88 273.03 567.88 273.03 572.52 271.79Z"
fill-rule="evenodd" fill="black"/>
<path d="M572.52 271.79L567.88 273.03 522.26 194.02 526.29 191.7 572.52 271.79Z"
fill-rule="evenodd" fill="black"/>
<path d="M522.26 194.02L526.29 191.7 526.29 191.7 522.26 194.02Z"
fill-rule="evenodd" fill="black"/>
<path d="M572.52 271.79L526.29 191.7 526.29 191.7 572.52 271.79Z"
fill-rule="evenodd" fill="black"/>
<path d="M567.88 273.03L522.26 194.02 522.26 194.02 567.88 273.03Z"
fill-rule="evenodd" fill="black"/>
<path d="M570.2 395.71L572.09 395.46 570.88 390.97 570.2 391.06 570.2 395.71Z"
fill-rule="evenodd" fill="black"/>
<path d="M570.2 391.06L570.88 390.97 572.09 395.46 570.2 395.71 570.2 391.06Z"
fill-rule="evenodd" fill="black"/>
<path d="M572.09 395.46L570.2 395.71 570.2 395.71 572.09 395.46Z"
fill-rule="evenodd" fill="black"/>
<path d="M570.88 390.97L572.09 395.46 572.09 395.46 570.88 390.97Z"
fill-rule="evenodd" fill="black"/>
<path d="M570.2 391.06L570.88 390.97 570.88 390.97 570.2 391.06Z"
fill-rule="evenodd" fill="black"/>
<path d="M570.2 395.71L570.2 391.06 570.2 391.06 570.2 395.71Z"
fill-rule="evenodd" fill="black"/>
<path d="M572.09 395.46L573.85 394.73 571.52 390.7 570.88 390.97 572.09 395.46Z"
fill-rule="evenodd" fill="black"/>
<path d="M570.88 390.97L571.52 390.7 573.85 394.73 572.09 395.46 570.88 390.97Z"
fill-rule="evenodd" fill="black"/>
<path d="M573.85 394.73L572.09 395.46 572.09 395.46 573.85 394.73Z"
fill-rule="evenodd" fill="black"/>
<path d="M571.52 390.7L573.85 394.73 573.85 394.73 571.52 390.7Z"
fill-rule="evenodd" fill="black"/>
<path d="M570.88 390.97L571.52 390.7 571.52 390.7 570.88 390.97Z"
fill-rule="evenodd" fill="black"/>
<path d="M572.09 395.46L570.88 390.97 570.88 390.97 572.09 395.46Z"
fill-rule="evenodd" fill="black"/>
<path d="M573.85 394.73L575.36 393.57 572.07 390.28 571.52 390.7 573.85 394.73Z"
fill-rule="evenodd" fill="black"/>
<path d="M571.52 390.7L572.07 390.28 575.36 393.57 573.85 394.73 571.52 390.7Z"
fill-rule="evenodd" fill="black"/>
<path d="M575.36 393.57L573.85 394.73 573.85 394.73 575.36 393.57Z"
fill-rule="evenodd" fill="black"/>
<path d="M572.07 390.28L575.36 393.57 575.36 393.57 572.07 390.28Z"
fill-rule="evenodd" fill="black"/>
<path d="M571.52 390.7L572.07 390.28 572.07 390.28 571.52 390.7Z"
fill-rule="evenodd" fill="black"/>
<path d="M573.85 394.73L571.52 390.7 571.52 390.7 573.85 394.73Z"
fill-rule="evenodd" fill="black"/>
<path d="M575.36 393.57L576.51 392.06 572.49 389.74 572.07 390.28 575.36 393.57Z"
fill-rule="evenodd" fill="black"/>
<path d="M572.07 390.28L572.49 389.74 576.51 392.06 575.36 393.57 572.07 390.28Z"
fill-rule="evenodd" fill="black"/>
<path d="M576.51 392.06L575.36 393.57 575.36 393.57 576.51 392.06Z"
fill-rule="evenodd" fill="black"/>
<path d="M572.49 389.74L576.51 392.06 576.51 392.06 572.49 389.74Z"
fill-rule="evenodd" fill="black"/>
<path d="M572.07 390.28L572.49 389.74 572.49 389.74 572.07 390.28Z"
fill-rule="evenodd" fill="black"/>
<path d="M575.36 393.57L572.07 390.28 572.07 390.28 575.36 393.57Z"
fill-rule="evenodd" fill="black"/>
<path d="M576.51 392.06L577.24 390.3 572.75 389.1 572.49 389.74 576.51 392.06Z"
fill-rule="evenodd" fill="black"/>
<path d="M572.49 389.74L572.75 389.1 577.24 390.3 576.51 392.06 572.49 389.74Z"
fill-rule="evenodd" fill="black"/>
<path d="M577.24 390.3L576.51 392.06 576.51 392.06 577.24 390.3Z"
fill-rule="evenodd" fill="black"/>
<path d="M572.75 389.1L577.24 390.3 577.24 390.3 572.75 389.1Z"
fill-rule="evenodd" fill="black"/>
<path d="M572.49 389.74L572.75 389.1 572.75 389.1 572.49 389.74Z"
fill-rule="evenodd" fill="black"/>
<path d="M576.51 392.06L572.49 389.74 572.49 389.74 576.51 392.06Z"
fill-rule="evenodd" fill="black"/>
<path d="M577.24 390.3L577.49 388.41 572.84 388.41 572.75 389.1 577.24 390.3Z"
fill-rule="evenodd" fill="black"/>
<path d="M572.75 389.1L572.84 388.41 577.49 388.41 577.24 390.3 572.75 389.1Z"
fill-rule="evenodd" fill="black"/>
<path d="M577.49 388.41L577.24 390.3 577.24 390.3 577.49 388.41Z"
fill-rule="evenodd" fill="black"/>
<path d="M572.84 388.41L577.49 388.41 577.49 388.41 572.84 388.41Z"
fill-rule="evenodd" fill="black"/>
<path d="M572.75 389.1L572.84 388.41 572.84 388.41 572.75 389.1Z"
fill-rule="evenodd" fill="black"/>
<path d="M577.24 390.3L572.75 389.1 572.75 389.1 577.24 390.3Z"
fill-rule="evenodd" fill="black"/>
<path d="M577.49 388.41L577.24 386.53 572.75 387.73 572.84 388.41 577.49 388.41Z"
fill-rule="evenodd" fill="black"/>
<path d="M572.84 388.41L572.75 387.73 577.24 386.53 577.49 388.41 572.84 388.41Z"
fill-rule="evenodd" fill="black"/>
<path d="M577.24 386.53L577.49 388.41 577.49 388.41 577.24 386.53Z"
fill-rule="evenodd" fill="black"/>
<path d="M572.75 387.73L577.24 386.53 577.24 386.53 572.75 387.73Z"
fill-rule="evenodd" fill="black"/>
<path d="M572.84 388.41L572.75 387.73 572.75 387.73 572.84 388.41Z"
fill-rule="evenodd" fill="black"/>
<path d="M577.49 388.41L572.84 388.41 572.84 388.41 577.49 388.41Z"
fill-rule="evenodd" fill="black"/>
<path d="M577.24 386.53L576.51 384.77 572.49 387.09 572.75 387.73 577.24 386.53Z"
fill-rule="evenodd" fill="black"/>
<path d="M572.75 387.73L572.49 387.09 576.51 384.77 577.24 386.53 572.75 387.73Z"
fill-rule="evenodd" fill="black"/>
<path d="M576.51 384.77L577.24 386.53 577.24 386.53 576.51 384.77Z"
fill-rule="evenodd" fill="black"/>
<path d="M572.49 387.09L576.51 384.77 576.51 384.77 572.49 387.09Z"
fill-rule="evenodd" fill="black"/>
<path d="M572.75 387.73L572.49 387.09 572.49 387.09 572.75 387.73Z"
fill-rule="evenodd" fill="black"/>
<path d="M577.24 386.53L572.75 387.73 572.75 387.73 577.24 386.53Z"
fill-rule="evenodd" fill="black"/>
<path d="M576.51 384.77L575.36 383.26 572.07 386.55 572.49 387.09 576.51 384.77Z"
fill-rule="evenodd" fill="black"/>
<path d="M572.49 387.09L572.07 386.55 575.36 383.26 576.51 384.77 572.49 387.09Z"
fill-rule="evenodd" fill="black"/>
<path d="M575.36 383.26L576.51 384.77 576.51 384.77 575.36 383.26Z"
fill-rule="evenodd" fill="black"/>
<path d="M572.07 386.55L575.36 383.26 575.36 383.26 572.07 386.55Z"
fill-rule="evenodd" fill="black"/>
<path d="M572.49 387.09L572.07 386.55 572.07 386.55 572.49 387.09Z"
fill-rule="evenodd" fill="black"/>
<path d="M576.51 384.77L572.49 387.09 572.49 387.09 576.51 384.77Z"
fill-rule="evenodd" fill="black"/>
<path d="M575.36 383.26L573.85 382.1 571.52 386.13 572.07 386.55 575.36 383.26Z"
fill-rule="evenodd" fill="black"/>
<path d="M572.07 386.55L571.52 386.13 573.85 382.1 575.36 383.26 572.07 386.55Z"
fill-rule="evenodd" fill="black"/>
<path d="M573.85 382.1L575.36 383.26 575.36 383.26 573.85 382.1Z"
fill-rule="evenodd" fill="black"/>
<path d="M571.52 386.13L573.85 382.1 573.85 382.1 571.52 386.13Z"
fill-rule="evenodd" fill="black"/>
<path d="M572.07 386.55L571.52 386.13 571.52 386.13 572.07 386.55Z"
fill-rule="evenodd" fill="black"/>
<path d="M575.36 383.26L572.07 386.55 572.07 386.55 575.36 383.26Z"
fill-rule="evenodd" fill="black"/>
<path d="M573.85 382.1L572.09 381.37 570.88 385.86 571.52 386.13 573.85 382.1Z"
fill-rule="evenodd" fill="black"/>
<path d="M571.52 386.13L570.88 385.86 572.09 381.37 573.85 382.1 571.52 386.13Z"
fill-rule="evenodd" fill="black"/>
<path d="M572.09 381.37L573.85 382.1 573.85 382.1 572.09 381.37Z"
fill-rule="evenodd" fill="black"/>
<path d="M570.88 385.86L572.09 381.37 572.09 381.37 570.88 385.86Z"
fill-rule="evenodd" fill="black"/>
<path d="M571.52 386.13L570.88 385.86 570.88 385.86 571.52 386.13Z"
fill-rule="evenodd" fill="black"/>
<path d="M573.85 382.1L571.52 386.13 571.52 386.13 573.85 382.1Z"
fill-rule="evenodd" fill="black"/>
<path d="M572.09 381.37L570.2 381.12 570.2 385.77 570.88 385.86 572.09 381.37Z"
fill-rule="evenodd" fill="black"/>
<path d="M570.88 385.86L570.2 385.77 570.2 381.12 572.09 381.37 570.88 385.86Z"
fill-rule="evenodd" fill="black"/>
<path d="M570.2 381.12L572.09 381.37 572.09 381.37 570.2 381.12Z"
fill-rule="evenodd" fill="black"/>
<path d="M570.2 385.77L570.2 381.12 570.2 381.12 570.2 385.77Z"
fill-rule="evenodd" fill="black"/>
<path d="M570.88 385.86L570.2 385.77 570.2 385.77 570.88 385.86Z"
fill-rule="evenodd" fill="black"/>
<path d="M572.09 381.37L570.88 385.86 570.88 385.86 572.09 381.37Z"
fill-rule="evenodd" fill="black"/>
<path d="M570.2 381.12L568.31 381.37 569.51 385.86 570.2 385.77 570.2 381.12Z"
fill-rule="evenodd" fill="black"/>
<path d="M570.2 385.77L569.51 385.86 568.31 381.37 570.2 381.12 570.2 385.77Z"
fill-rule="evenodd" fill="black"/>
<path d="M568.31 381.37L570.2 381.12 570.2 381.12 568.31 381.37Z"
fill-rule="evenodd" fill="black"/>
<path d="M569.51 385.86L568.31 381.37 568.31 381.37 569.51 385.86Z"
fill-rule="evenodd" fill="black"/>
<path d="M570.2 385.77L569.51 385.86 569.51 385.86 570.2 385.77Z"
fill-rule="evenodd" fill="black"/>
<path d="M570.2 381.12L570.2 385.77 570.2 385.77 570.2 381.12Z"
fill-rule="evenodd" fill="black"/>
<path d="M568.31 381.37L566.55 382.1 568.88 386.13 569.51 385.86 568.31 381.37Z"
fill-rule="evenodd" fill="black"/>
<path d="M569.51 385.86L568.88 386.13 566.55 382.1 568.31 381.37 569.51 385.86Z"
fill-rule="evenodd" fill="black"/>
<path d="M566.55 382.1L568.31 381.37 568.31 381.37 566.55 382.1Z"
fill-rule="evenodd" fill="black"/>
<path d="M568.88 386.13L566.55 382.1 566.55 382.1 568.88 386.13Z"
fill-rule="evenodd" fill="black"/>
<path d="M569.51 385.86L568.88 386.13 568.88 386.13 569.51 385.86Z"
fill-rule="evenodd" fill="black"/>
<path d="M568.31 381.37L569.51 385.86 569.51 385.86 568.31 381.37Z"
fill-rule="evenodd" fill="black"/>
<path d="M566.55 382.1L565.04 383.26 568.33 386.55 568.88 386.13 566.55 382.1Z"
fill-rule="evenodd" fill="black"/>
<path d="M568.88 386.13L568.33 386.55 565.04 383.26 566.55 382.1 568.88 386.13Z"
fill-rule="evenodd" fill="black"/>
<path d="M565.04 383.26L566.55 382.1 566.55 382.1 565.04 383.26Z"
fill-rule="evenodd" fill="black"/>
<path d="M568.33 386.55L565.04 383.26 565.04 383.26 568.33 386.55Z"
fill-rule="evenodd" fill="black"/>
<path d="M568.88 386.13L568.33 386.55 568.33 386.55 568.88 386.13Z"
fill-rule="evenodd" fill="black"/>
<path d="M566.55 382.1L568.88 386.13 568.88 386.13 566.55 382.1Z"
fill-rule="evenodd" fill="black"/>
<path d="M565.04 383.26L563.88 384.77 567.91 387.1 568.33 386.55 565.04 383.26Z"
fill-rule="evenodd" fill="black"/>
<path d="M568.33 386.55L567.91 387.1 563.88 384.77 565.04 383.26 568.33 386.55Z"
fill-rule="evenodd" fill="black"/>
<path d="M563.88 384.77L565.04 383.26 565.04 383.26 563.88 384.77Z"
fill-rule="evenodd" fill="black"/>
<path d="M567.91 387.1L563.88 384.77 563.88 384.77 567.91 387.1Z"
fill-rule="evenodd" fill="black"/>
<path d="M568.33 386.55L567.91 387.1 567.91 387.1 568.33 386.55Z"
fill-rule="evenodd" fill="black"/>
<path d="M565.04 383.26L568.33 386.55 568.33 386.55 565.04 383.26Z"
fill-rule="evenodd" fill="black"/>
<path d="M563.88 384.77L563.15 386.53 567.64 387.73 567.91 387.1 563.88 384.77Z"
fill-rule="evenodd" fill="black"/>
<path d="M567.91 387.1L567.64 387.73 563.15 386.53 563.88 384.77 567.91 387.1Z"
fill-rule="evenodd" fill="black"/>
<path d="M563.15 386.53L563.88 384.77 563.88 384.77 563.15 386.53Z"
fill-rule="evenodd" fill="black"/>
<path d="M567.64 387.73L563.15 386.53 563.15 386.53 567.64 387.73Z"
fill-rule="evenodd" fill="black"/>
<path d="M567.91 387.1L567.64 387.73 567.64 387.73 567.91 387.1Z"
fill-rule="evenodd" fill="black"/>
<path d="M563.88 384.77L567.91 387.1 567.91 387.1 563.88 384.77Z"
fill-rule="evenodd" fill="black"/>
<path d="M563.15 386.53L562.9 388.42 567.55 388.42 567.64 387.73 563.15 386.53Z"
fill-rule="evenodd" fill="black"/>
<path d="M567.64 387.73L567.55 388.42 562.9 388.42 563.15 386.53 567.64 387.73Z"
fill-rule="evenodd" fill="black"/>
<path d="M562.9 388.42L563.15 386.53 563.15 386.53 562.9 388.42Z"
fill-rule="evenodd" fill="black"/>
<path d="M567.55 388.42L562.9 388.42 562.9 388.42 567.55 388.42Z"
fill-rule="evenodd" fill="black"/>
<path d="M567.64 387.73L567.55 388.42 567.55 388.42 567.64 387.73Z"
fill-rule="evenodd" fill="black"/>
<path d="M563.15 386.53L567.64 387.73 567.64 387.73 563.15 386.53Z"
fill-rule="evenodd" fill="black"/>
<path d="M562.9 388.42L563.15 390.31 567.64 389.1 567.55 388.42 562.9 388.42Z"
fill-rule="evenodd" fill="black"/>
<path d="M567.55 388.42L567.64 389.1 563.15 390.31 562.9 388.42 567.55 388.42Z"
fill-rule="evenodd" fill="black"/>
<path d="M563.15 390.31L562.9 388.42 562.9 388.42 563.15 390.31Z"
fill-rule="evenodd" fill="black"/>
<path d="M567.64 389.1L563.15 390.31 563.15 390.31 567.64 389.1Z"
fill-rule="evenodd" fill="black"/>
<path d="M567.55 388.42L567.64 389.1 567.64 389.1 567.55 388.42Z"
fill-rule="evenodd" fill="black"/>
<path d="M562.9 388.42L567.55 388.42 567.55 388.42 562.9 388.42Z"
fill-rule="evenodd" fill="black"/>
<path d="M563.15 390.31L563.88 392.07 567.91 389.74 567.64 389.1 563.15 390.31Z"
fill-rule="evenodd" fill="black"/>
<path d="M567.64 389.1L567.91 389.74 563.88 392.07 563.15 390.31 567.64 389.1Z"
fill-rule="evenodd" fill="black"/>
<path d="M563.88 392.07L563.15 390.31 563.15 390.31 563.88 392.07Z"
fill-rule="evenodd" fill="black"/>
<path d="M567.91 389.74L563.88 392.07 563.88 392.07 567.91 389.74Z"
fill-rule="evenodd" fill="black"/>
<path d="M567.64 389.1L567.91 389.74 567.91 389.74 567.64 389.1Z"
fill-rule="evenodd" fill="black"/>
<path d="M563.15 390.31L567.64 389.1 567.64 389.1 563.15 390.31Z"
fill-rule="evenodd" fill="black"/>
<path d="M563.88 392.07L565.04 393.58 568.33 390.29 567.91 389.74 563.88 392.07Z"
fill-rule="evenodd" fill="black"/>
<path d="M567.91 389.74L568.33 390.29 565.04 393.58 563.88 392.07 567.91 389.74Z"
fill-rule="evenodd" fill="black"/>
<path d="M565.04 393.58L563.88 392.07 563.88 392.07 565.04 393.58Z"
fill-rule="evenodd" fill="black"/>
<path d="M568.33 390.29L565.04 393.58 565.04 393.58 568.33 390.29Z"
fill-rule="evenodd" fill="black"/>
<path d="M567.91 389.74L568.33 390.29 568.33 390.29 567.91 389.74Z"
fill-rule="evenodd" fill="black"/>
<path d="M563.88 392.07L567.91 389.74 567.91 389.74 563.88 392.07Z"
fill-rule="evenodd" fill="black"/>
<path d="M565.04 393.58L566.55 394.74 568.88 390.71 568.33 390.29 565.04 393.58Z"
fill-rule="evenodd" fill="black"/>
<path d="M568.33 390.29L568.88 390.71 566.55 394.74 565.04 393.58 568.33 390.29Z"
fill-rule="evenodd" fill="black"/>
<path d="M566.55 394.74L565.04 393.58 565.04 393.58 566.55 394.74Z"
fill-rule="evenodd" fill="black"/>
<path d="M568.88 390.71L566.55 394.74 566.55 394.74 568.88 390.71Z"
fill-rule="evenodd" fill="black"/>
<path d="M568.33 390.29L568.88 390.71 568.88 390.71 568.33 390.29Z"
fill-rule="evenodd" fill="black"/>
<path d="M565.04 393.58L568.33 390.29 568.33 390.29 565.04 393.58Z"
fill-rule="evenodd" fill="black"/>
<path d="M566.55 394.74L568.31 395.47 569.51 390.98 568.88 390.71 566.55 394.74Z"
fill-rule="evenodd" fill="black"/>
<path d="M568.88 390.71L569.51 390.98 568.31 395.47 566.55 394.74 568.88 390.71Z"
fill-rule="evenodd" fill="black"/>
<path d="M568.31 395.47L566.55 394.74 566.55 394.74 568.31 395.47Z"
fill-rule="evenodd" fill="black"/>
<path d="M569.51 390.98L568.31 395.47 568.31 395.47 569.51 390.98Z"
fill-rule="evenodd" fill="black"/>
<path d="M568.88 390.71L569.51 390.98 569.51 390.98 568.88 390.71Z"
fill-rule="evenodd" fill="black"/>
<path d="M566.55 394.74L568.88 390.71 568.88 390.71 566.55 394.74Z"
fill-rule="evenodd" fill="black"/>
<path d="M568.31 395.47L570.2 395.72 570.2 391.07 569.51 390.98 568.31 395.47Z"
fill-rule="evenodd" fill="black"/>
<path d="M569.51 390.98L570.2 391.07 570.2 395.72 568.31 395.47 569.51 390.98Z"
fill-rule="evenodd" fill="black"/>
<path d="M570.2 395.72L568.31 395.47 568.31 395.47 570.2 395.72Z"
fill-rule="evenodd" fill="black"/>
<path d="M570.2 391.07L570.2 395.72 570.2 395.72 570.2 391.07Z"
fill-rule="evenodd" fill="black"/>
<path d="M569.51 390.98L570.2 391.07 570.2 391.07 569.51 390.98Z"
fill-rule="evenodd" fill="black"/>
<path d="M568.31 395.47L569.51 390.98 569.51 390.98 568.31 395.47Z"
fill-rule="evenodd" fill="black"/>
</svg>
