<svg width="800" height="600" viewBox="0 0 800 600" fill="none" xmlns="http://www.w3.org/2000/svg">
<path fill-rule="evenodd" clip-rule="evenodd" d="M282.23 336.07H285.95V435.35L282.23 439.07V336.07Z" fill="black"/>
<path fill-rule="evenodd" clip-rule="evenodd" d="M282.23 336.07H285.95V435.35L282.23 439.07V336.07Z" fill="black"/>
<path fill-rule="evenodd" clip-rule="evenodd" d="M282.23 439.07L285.95 435.35H386.66V439.07H282.23Z" fill="black"/>
<path fill-rule="evenodd" clip-rule="evenodd" d="M282.23 439.07L285.95 435.35H386.66V439.07H282.23Z" fill="black"/>
<path fill-rule="evenodd" clip-rule="evenodd" d="M311.03 323.16V319.44H400V323.16H311.03Z" fill="black"/>
<path fill-rule="evenodd" clip-rule="evenodd" d="M311.03 323.16V319.44H400V323.16H311.03Z" fill="black"/>
<path fill-rule="evenodd" clip-rule="evenodd" d="M156.02 323.16V319.44H207.22L208.21 323.16H156.02Z" fill="black"/>
<path fill-rule="evenodd" clip-rule="evenodd" d="M156.02 323.16V319.44H207.22L208.21 323.16H156.02Z" fill="black"/>
<path fill-rule="evenodd" clip-rule="evenodd" d="M208.21 323.16L207.22 319.44L310.1 260.04L311.96 263.26L208.21 323.16Z" fill="black"/>
<path fill-rule="evenodd" clip-rule="evenodd" d="M208.21 323.16L207.22 319.44L310.1 260.04L311.96 263.26L208.21 323.16Z" fill="black"/>
<path fill-rule="evenodd" clip-rule="evenodd" d="M312.89 334.21H309.17V308.38H312.89V334.21Z" fill="black"/>
<path fill-rule="evenodd" clip-rule="evenodd" d="M312.89 334.21H309.17V308.38H312.89V334.21Z" fill="black"/>
<path fill-rule="evenodd" clip-rule="evenodd" d="M157.88 364.35H154.16V278.25H157.88V364.35Z" fill="black"/>
<path fill-rule="evenodd" clip-rule="evenodd" d="M157.88 364.35H154.16V278.25H157.88V364.35Z" fill="black"/>
<path fill-rule="evenodd" clip-rule="evenodd" d="M136.94 295.47H140.66V347.13H136.94V295.47Z" fill="black"/>
<path fill-rule="evenodd" clip-rule="evenodd" d="M136.94 295.47H140.66V347.13H136.94V295.47Z" fill="black"/>
<path fill-rule="evenodd" clip-rule="evenodd" d="M123.44 329.91H119.72V312.69H123.44V329.91Z" fill="black"/>
<path fill-rule="evenodd" clip-rule="evenodd" d="M123.44 329.91H119.72V312.69H123.44V329.91Z" fill="black"/>
<path fill-rule="evenodd" clip-rule="evenodd" d="M401.86 396.68H398.14V121.02H401.86V396.68Z" fill="black"/>
<path fill-rule="evenodd" clip-rule="evenodd" d="M403 397H397V0H403V397Z" fill="black"/>
<path fill-rule="evenodd" clip-rule="evenodd" d="M392.05 398.54V394.82H407.95V398.54H392.05Z" fill="black"/>
<path fill-rule="evenodd" clip-rule="evenodd" d="M392.05 398.54V394.82H407.95V398.54H392.05Z" fill="black"/>
<path fill-rule="evenodd" clip-rule="evenodd" d="M400 406.49L401.8 406.2L400.65 402.66L400 402.77V406.49Z" fill="black"/>
<path fill-rule="evenodd" clip-rule="evenodd" d="M400 402.77L400.65 402.66L401.8 406.2L400 406.49V402.77Z" fill="black"/>
<path fill-rule="evenodd" clip-rule="evenodd" d="M401.8 406.2L403.43 405.37L401.24 402.36L400.65 402.66L401.8 406.2Z" fill="black"/>
<path fill-rule="evenodd" clip-rule="evenodd" d="M400.65 402.66L401.24 402.36L403.43 405.37L401.8 406.2L400.65 402.66Z" fill="black"/>
<path fill-rule="evenodd" clip-rule="evenodd" d="M403.43 405.37L404.72 404.08L401.71 401.89L401.24 402.36L403.43 405.37Z" fill="black"/>
<path fill-rule="evenodd" clip-rule="evenodd" d="M401.24 402.36L401.71 401.89L404.72 404.08L403.43 405.37L401.24 402.36Z" fill="black"/>
<path fill-rule="evenodd" clip-rule="evenodd" d="M404.72 404.08L405.55 402.45L402.01 401.31L401.71 401.89L404.72 404.08Z" fill="black"/>
<path fill-rule="evenodd" clip-rule="evenodd" d="M401.71 401.89L402.01 401.31L405.55 402.45L404.72 404.08L401.71 401.89Z" fill="black"/>
<path fill-rule="evenodd" clip-rule="evenodd" d="M405.55 402.45L405.83 400.65H402.11L402.01 401.31L405.55 402.45Z" fill="black"/>
<path fill-rule="evenodd" clip-rule="evenodd" d="M402.01 401.31L402.11 400.65H405.83L405.55 402.45L402.01 401.31Z" fill="black"/>
<path fill-rule="evenodd" clip-rule="evenodd" d="M405.83 400.65L405.55 398.85L402.01 400L402.11 400.65H405.83Z" fill="black"/>
<path fill-rule="evenodd" clip-rule="evenodd" d="M402.11 400.65L402.01 400L405.55 398.85L405.83 400.65H402.11Z" fill="black"/>
<path fill-rule="evenodd" clip-rule="evenodd" d="M405.55 398.85L404.72 397.22L401.71 399.41L402.01 400L405.55 398.85Z" fill="black"/>
<path fill-rule="evenodd" clip-rule="evenodd" d="M402.01 400L401.71 399.41L404.72 397.22L405.55 398.85L402.01 400Z" fill="black"/>
<path fill-rule="evenodd" clip-rule="evenodd" d="M404.72 397.22L403.43 395.93L401.24 398.94L401.71 399.41L404.72 397.22Z" fill="black"/>
<path fill-rule="evenodd" clip-rule="evenodd" d="M401.71 399.41L401.24 398.94L403.43 395.93L404.72 397.22L401.71 399.41Z" fill="black"/>
<path fill-rule="evenodd" clip-rule="evenodd" d="M403.43 395.93L401.8 395.1L400.65 398.64L401.24 398.94L403.43 395.93Z" fill="black"/>
<path fill-rule="evenodd" clip-rule="evenodd" d="M401.24 398.94L400.65 398.64L401.8 395.1L403.43 395.93L401.24 398.94Z" fill="black"/>
<path fill-rule="evenodd" clip-rule="evenodd" d="M401.8 395.1L400 394.82V398.54L400.65 398.64L401.8 395.1Z" fill="black"/>
<path fill-rule="evenodd" clip-rule="evenodd" d="M400.65 398.64L400 398.54V394.82L401.8 395.1L400.65 398.64Z" fill="black"/>
<path fill-rule="evenodd" clip-rule="evenodd" d="M400 394.82L398.2 395.11L399.35 398.64L400 398.54V394.82Z" fill="black"/>
<path fill-rule="evenodd" clip-rule="evenodd" d="M400 398.54L399.35 398.64L398.2 395.11L400 394.82V398.54Z" fill="black"/>
<path fill-rule="evenodd" clip-rule="evenodd" d="M398.2 395.11L396.57 395.93L398.76 398.94L399.35 398.64L398.2 395.11Z" fill="black"/>
<path fill-rule="evenodd" clip-rule="evenodd" d="M399.35 398.64L398.76 398.94L396.57 395.93L398.2 395.11L399.35 398.64Z" fill="black"/>
<path fill-rule="evenodd" clip-rule="evenodd" d="M396.57 395.93L395.28 397.23L398.29 399.41L398.76 398.94L396.57 395.93Z" fill="black"/>
<path fill-rule="evenodd" clip-rule="evenodd" d="M398.76 398.94L398.29 399.41L395.28 397.23L396.57 395.93L398.76 398.94Z" fill="black"/>
<path fill-rule="evenodd" clip-rule="evenodd" d="M395.28 397.23L394.45 398.85L397.99 400L398.29 399.41L395.28 397.23Z" fill="black"/>
<path fill-rule="evenodd" clip-rule="evenodd" d="M398.29 399.41L397.99 400L394.45 398.85L395.28 397.23L398.29 399.41Z" fill="black"/>
<path fill-rule="evenodd" clip-rule="evenodd" d="M394.45 398.85L394.16 400.66H397.88L397.99 400L394.45 398.85Z" fill="black"/>
<path fill-rule="evenodd" clip-rule="evenodd" d="M397.99 400L397.88 400.66H394.16L394.45 398.85L397.99 400Z" fill="black"/>
<path fill-rule="evenodd" clip-rule="evenodd" d="M394.16 400.66L394.45 402.46L397.99 401.31L397.88 400.66H394.16Z" fill="black"/>
<path fill-rule="evenodd" clip-rule="evenodd" d="M397.88 400.66L397.99 401.31L394.45 402.46L394.16 400.66H397.88Z" fill="black"/>
<path fill-rule="evenodd" clip-rule="evenodd" d="M394.45 402.46L395.28 404.09L398.29 401.9L397.99 401.31L394.45 402.46Z" fill="black"/>
<path fill-rule="evenodd" clip-rule="evenodd" d="M397.99 401.31L398.29 401.9L395.28 404.09L394.45 402.46L397.99 401.31Z" fill="black"/>
<path fill-rule="evenodd" clip-rule="evenodd" d="M395.28 404.09L396.57 405.38L398.76 402.37L398.29 401.9L395.28 404.09Z" fill="black"/>
<path fill-rule="evenodd" clip-rule="evenodd" d="M398.29 401.9L398.76 402.37L396.57 405.38L395.28 404.09L398.29 401.9Z" fill="black"/>
<path fill-rule="evenodd" clip-rule="evenodd" d="M396.57 405.38L398.2 406.21L399.35 402.67L398.76 402.37L396.57 405.38Z" fill="black"/>
<path fill-rule="evenodd" clip-rule="evenodd" d="M398.76 402.37L399.35 402.67L398.2 406.21L396.57 405.38L398.76 402.37Z" fill="black"/>
<path fill-rule="evenodd" clip-rule="evenodd" d="M398.2 406.21L400 406.49V402.77L399.35 402.67L398.2 406.21Z" fill="black"/>
<path fill-rule="evenodd" clip-rule="evenodd" d="M399.35 402.67L400 402.77V406.49L398.2 406.21L399.35 402.67Z" fill="black"/>
<path fill-rule="evenodd" clip-rule="evenodd" d="M401.86 598.3H398.14V460.82L401.86 459.82V598.3Z" fill="black"/>
<path fill-rule="evenodd" clip-rule="evenodd" d="M401.86 598.3H398.14V460.82L401.86 459.82V598.3Z" fill="black"/>
<path fill-rule="evenodd" clip-rule="evenodd" d="M401.86 459.82L398.14 460.82L361.65 397.61L364.87 395.75L401.86 459.82Z" fill="black"/>
<path fill-rule="evenodd" clip-rule="evenodd" d="M401.86 459.82L398.14 460.82L361.65 397.61L364.87 395.75L401.86 459.82Z" fill="black"/>
<path fill-rule="evenodd" clip-rule="evenodd" d="M400 315.47L401.8 315.75L400.65 319.29L400 319.19V315.47Z" fill="black"/>
<path fill-rule="evenodd" clip-rule="evenodd" d="M400 319.19L400.65 319.29L401.8 315.75L400 315.47V319.19Z" fill="black"/>
<path fill-rule="evenodd" clip-rule="evenodd" d="M401.8 315.75L403.43 316.58L401.24 319.59L400.65 319.29L401.8 315.75Z" fill="black"/>
<path fill-rule="evenodd" clip-rule="evenodd" d="M400.65 319.29L401.24 319.59L403.43 316.58L401.8 315.75L400.65 319.29Z" fill="black"/>
<path fill-rule="evenodd" clip-rule="evenodd" d="M403.43 316.58L404.72 317.87L401.71 320.06L401.24 319.59L403.43 316.58Z" fill="black"/>
<path fill-rule="evenodd" clip-rule="evenodd" d="M401.24 319.59L401.71 320.06L404.72 317.87L403.43 316.58L401.24 319.59Z" fill="black"/>
<path fill-rule="evenodd" clip-rule="evenodd" d="M404.72 317.87L405.55 319.5L402.01 320.65L401.71 320.06L404.72 317.87Z" fill="black"/>
<path fill-rule="evenodd" clip-rule="evenodd" d="M401.71 320.06L402.01 320.65L405.55 319.5L404.72 317.87L401.71 320.06Z" fill="black"/>
<path fill-rule="evenodd" clip-rule="evenodd" d="M405.55 319.5L405.83 321.3H402.11L402.01 320.65L405.55 319.5Z" fill="black"/>
<path fill-rule="evenodd" clip-rule="evenodd" d="M402.01 320.65L402.11 321.3H405.83L405.55 319.5L402.01 320.65Z" fill="black"/>
<path fill-rule="evenodd" clip-rule="evenodd" d="M405.83 321.3L405.55 323.1L402.01 321.95L402.11 321.3H405.83Z" fill="black"/>
<path fill-rule="evenodd" clip-rule="evenodd" d="M402.11 321.3L402.01 321.95L405.55 323.1L405.83 321.3H402.11Z" fill="black"/>
<path fill-rule="evenodd" clip-rule="evenodd" d="M405.55 323.1L404.72 324.73L401.71 322.54L402.01 321.95L405.55 323.1Z" fill="black"/>
<path fill-rule="evenodd" clip-rule="evenodd" d="M402.01 321.95L401.71 322.54L404.72 324.73L405.55 323.1L402.01 321.95Z" fill="black"/>
<path fill-rule="evenodd" clip-rule="evenodd" d="M404.72 324.73L403.43 326.02L401.24 323.01L401.71 322.54L404.72 324.73Z" fill="black"/>
<path fill-rule="evenodd" clip-rule="evenodd" d="M401.71 322.54L401.24 323.01L403.43 326.02L404.72 324.73L401.71 322.54Z" fill="black"/>
<path fill-rule="evenodd" clip-rule="evenodd" d="M403.43 326.02L401.8 326.85L400.65 323.31L401.24 323.01L403.43 326.02Z" fill="black"/>
<path fill-rule="evenodd" clip-rule="evenodd" d="M401.24 323.01L400.65 323.31L401.8 326.85L403.43 326.02L401.24 323.01Z" fill="black"/>
<path fill-rule="evenodd" clip-rule="evenodd" d="M401.8 326.85L400 327.13V323.41L400.65 323.31L401.8 326.85Z" fill="black"/>
<path fill-rule="evenodd" clip-rule="evenodd" d="M400.65 323.31L400 323.41V327.13L401.8 326.85L400.65 323.31Z" fill="black"/>
<path fill-rule="evenodd" clip-rule="evenodd" d="M400 327.13L398.2 326.85L399.35 323.31L400 323.41V327.13Z" fill="black"/>
<path fill-rule="evenodd" clip-rule="evenodd" d="M400 323.41L399.35 323.31L398.2 326.85L400 327.13V323.41Z" fill="black"/>
<path fill-rule="evenodd" clip-rule="evenodd" d="M398.2 326.85L396.57 326.02L398.75 323.01L399.35 323.31L398.2 326.85Z" fill="black"/>
<path fill-rule="evenodd" clip-rule="evenodd" d="M399.35 323.31L398.75 323.01L396.57 326.02L398.2 326.85L399.35 323.31Z" fill="black"/>
<path fill-rule="evenodd" clip-rule="evenodd" d="M396.57 326.02L395.28 324.73L398.29 322.54L398.75 323.01L396.57 326.02Z" fill="black"/>
<path fill-rule="evenodd" clip-rule="evenodd" d="M398.75 323.01L398.29 322.54L395.28 324.73L396.57 326.02L398.75 323.01Z" fill="black"/>
<path fill-rule="evenodd" clip-rule="evenodd" d="M395.28 324.73L394.45 323.1L397.99 321.95L398.29 322.54L395.28 324.73Z" fill="black"/>
<path fill-rule="evenodd" clip-rule="evenodd" d="M398.29 322.54L397.99 321.95L394.45 323.1L395.28 324.73L398.29 322.54Z" fill="black"/>
<path fill-rule="evenodd" clip-rule="evenodd" d="M394.45 323.1L394.16 321.29H397.88L397.99 321.95L394.45 323.1Z" fill="black"/>
<path fill-rule="evenodd" clip-rule="evenodd" d="M397.99 321.95L397.88 321.29H394.16L394.45 323.1L397.99 321.95Z" fill="black"/>
<path fill-rule="evenodd" clip-rule="evenodd" d="M394.16 321.29L394.45 319.49L397.99 320.64L397.88 321.29H394.16Z" fill="black"/>
<path fill-rule="evenodd" clip-rule="evenodd" d="M397.88 321.29L397.99 320.64L394.45 319.49L394.16 321.29H397.88Z" fill="black"/>
<path fill-rule="evenodd" clip-rule="evenodd" d="M394.45 319.49L395.28 317.86L398.29 320.05L397.99 320.64L394.45 319.49Z" fill="black"/>
<path fill-rule="evenodd" clip-rule="evenodd" d="M397.99 320.64L398.29 320.05L395.28 317.86L394.45 319.49L397.99 320.64Z" fill="black"/>
<path fill-rule="evenodd" clip-rule="evenodd" d="M395.28 317.86L396.57 316.57L398.75 319.58L398.29 320.05L395.28 317.86Z" fill="black"/>
<path fill-rule="evenodd" clip-rule="evenodd" d="M398.29 320.05L398.75 319.58L396.57 316.57L395.28 317.86L398.29 320.05Z" fill="black"/>
<path fill-rule="evenodd" clip-rule="evenodd" d="M396.57 316.57L398.2 315.74L399.35 319.28L398.75 319.58L396.57 316.57Z" fill="black"/>
<path fill-rule="evenodd" clip-rule="evenodd" d="M398.75 319.58L399.35 319.28L398.2 315.74L396.57 316.57L398.75 319.58Z" fill="black"/>
<path fill-rule="evenodd" clip-rule="evenodd" d="M398.2 315.74L400 315.46V319.18L399.35 319.28L398.2 315.74Z" fill="black"/>
<path fill-rule="evenodd" clip-rule="evenodd" d="M399.35 319.28L400 319.18V315.46L398.2 315.74L399.35 319.28Z" fill="black"/>
</svg>
