<?xml version="1.0" encoding="UTF-8"?>
<svg xmlns="http://www.w3.org/2000/svg" width="800.000" height="600.000" viewBox="0.0 0.0 800.000 600.000" version="1.1">
  <title>Produce by Acme CAD Converter</title>
  <desc>Produce by Acme CAD Converter</desc>
<path d="M560.62 1.7L565.27 1.7 565.27 52.04 560.62 56.69 560.62 1.7Z"
fill-rule="evenodd" fill="black"/>
<path d="M560.62 1.7L565.27 1.7 565.27 1.7 560.62 1.7Z"
fill-rule="evenodd" fill="black"/>
<path d="M560.62 1.7L565.27 1.7 565.27 52.04 560.62 56.69 560.62 1.7Z"
fill-rule="evenodd" fill="black"/>
<path d="M565.27 52.04L560.62 56.69 560.62 56.69 565.27 52.04Z"
fill-rule="evenodd" fill="black"/>
<path d="M560.62 1.7L560.62 56.69 560.62 56.69 560.62 1.7Z"
fill-rule="evenodd" fill="black"/>
<path d="M565.27 1.7L565.27 52.04 565.27 52.04 565.27 1.7Z"
fill-rule="evenodd" fill="black"/>
<path d="M560.62 56.69L565.27 52.04 572.82 52.04 572.82 56.69 560.62 56.69Z"
fill-rule="evenodd" fill="black"/>
<path d="M560.62 56.69L565.27 52.04 565.27 52.04 560.62 56.69Z"
fill-rule="evenodd" fill="black"/>
<path d="M560.62 56.69L565.27 52.04 572.82 52.04 572.82 56.69 560.62 56.69Z"
fill-rule="evenodd" fill="black"/>
<path d="M572.82 52.04L572.82 56.69 572.82 56.69 572.82 52.04Z"
fill-rule="evenodd" fill="black"/>
<path d="M560.62 56.69L572.82 56.69 572.82 56.69 560.62 56.69Z"
fill-rule="evenodd" fill="black"/>
<path d="M565.27 52.04L572.82 52.04 572.82 52.04 565.27 52.04Z"
fill-rule="evenodd" fill="black"/>
<path d="M553.07 56.69L553.07 52.04 572.82 52.04 572.82 56.69 553.07 56.69Z"
fill-rule="evenodd" fill="black"/>
<path d="M553.07 56.69L553.07 52.04 553.07 52.04 553.07 56.69Z"
fill-rule="evenodd" fill="black"/>
<path d="M553.07 56.69L553.07 52.04 572.82 52.04 572.82 56.69 553.07 56.69Z"
fill-rule="evenodd" fill="black"/>
<path d="M572.82 52.04L572.82 56.69 572.82 56.69 572.82 52.04Z"
fill-rule="evenodd" fill="black"/>
<path d="M553.07 56.69L572.82 56.69 572.82 56.69 553.07 56.69Z"
fill-rule="evenodd" fill="black"/>
<path d="M553.07 52.04L572.82 52.04 572.82 52.04 553.07 52.04Z"
fill-rule="evenodd" fill="black"/>
<path d="M515.32 55.53L519.35 53.21 565.27 132.75 560.62 134 515.32 55.53Z"
fill-rule="evenodd" fill="black"/>
<path d="M515.32 55.53L519.35 53.21 519.35 53.21 515.32 55.53Z"
fill-rule="evenodd" fill="black"/>
<path d="M515.32 55.53L519.35 53.21 565.27 132.75 560.62 134 515.32 55.53Z"
fill-rule="evenodd" fill="black"/>
<path d="M565.27 132.75L560.62 134 560.62 134 565.27 132.75Z"
fill-rule="evenodd" fill="black"/>
<path d="M515.32 55.53L560.62 134 560.62 134 515.32 55.53Z"
fill-rule="evenodd" fill="black"/>
<path d="M519.35 53.21L565.27 132.75 565.27 132.75 519.35 53.21Z"
fill-rule="evenodd" fill="black"/>
<path d="M560.62 134L565.27 132.75 565.27 248.59 560.62 248.59 560.62 134Z"
fill-rule="evenodd" fill="black"/>
<path d="M560.62 134L565.27 132.75 565.27 132.75 560.62 134Z"
fill-rule="evenodd" fill="black"/>
<path d="M560.62 134L565.27 132.75 565.27 248.59 560.62 248.59 560.62 134Z"
fill-rule="evenodd" fill="black"/>
<path d="M565.27 248.59L560.62 248.59 560.62 248.59 565.27 248.59Z"
fill-rule="evenodd" fill="black"/>
<path d="M560.62 134L560.62 248.59 560.62 248.59 560.62 134Z"
fill-rule="evenodd" fill="black"/>
<path d="M565.27 132.75L565.27 248.59 565.27 248.59 565.27 132.75Z"
fill-rule="evenodd" fill="black"/>
<path d="M565.27 248.59L560.62 248.59 560.62 134 565.27 132.75 565.27 248.59Z"
fill-rule="evenodd" fill="black"/>
<path d="M565.27 248.59L560.62 248.59 560.62 248.59 565.27 248.59Z"
fill-rule="evenodd" fill="black"/>
<path d="M565.27 248.59L560.62 248.59 560.62 134 565.27 132.75 565.27 248.59Z"
fill-rule="evenodd" fill="black"/>
<path d="M560.62 134L565.27 132.75 565.27 132.75 560.62 134Z"
fill-rule="evenodd" fill="black"/>
<path d="M565.27 248.59L565.27 132.75 565.27 132.75 565.27 248.59Z"
fill-rule="evenodd" fill="black"/>
<path d="M560.62 248.59L560.62 134 560.62 134 560.62 248.59Z"
fill-rule="evenodd" fill="black"/>
<path d="M565.27 132.75L560.62 134 545.04 107.01 547.73 102.36 565.27 132.75Z"
fill-rule="evenodd" fill="black"/>
<path d="M565.27 132.75L560.62 134 560.62 134 565.27 132.75Z"
fill-rule="evenodd" fill="black"/>
<path d="M565.27 132.75L560.62 134 545.04 107.01 547.73 102.36 565.27 132.75Z"
fill-rule="evenodd" fill="black"/>
<path d="M545.04 107.01L547.73 102.36 547.73 102.36 545.04 107.01Z"
fill-rule="evenodd" fill="black"/>
<path d="M565.27 132.75L547.73 102.36 547.73 102.36 565.27 132.75Z"
fill-rule="evenodd" fill="black"/>
<path d="M560.62 134L545.04 107.01 545.04 107.01 560.62 134Z"
fill-rule="evenodd" fill="black"/>
<path d="M547.73 102.36L545.04 107.01 417.13 107.01 412.48 102.36 547.73 102.36Z"
fill-rule="evenodd" fill="black"/>
<path d="M547.73 102.36L545.04 107.01 545.04 107.01 547.73 102.36Z"
fill-rule="evenodd" fill="black"/>
<path d="M547.73 102.36L545.04 107.01 417.13 107.01 412.48 102.36 547.73 102.36Z"
fill-rule="evenodd" fill="black"/>
<path d="M417.13 107.01L412.48 102.36 412.48 102.36 417.13 107.01Z"
fill-rule="evenodd" fill="black"/>
<path d="M547.73 102.36L412.48 102.36 412.48 102.36 547.73 102.36Z"
fill-rule="evenodd" fill="black"/>
<path d="M545.04 107.01L417.13 107.01 417.13 107.01 545.04 107.01Z"
fill-rule="evenodd" fill="black"/>
<path d="M412.48 102.36L417.13 107.01 417.13 202.03 412.48 202.03 412.48 102.36Z"
fill-rule="evenodd" fill="black"/>
<path d="M412.48 102.36L417.13 107.01 417.13 107.01 412.48 102.36Z"
fill-rule="evenodd" fill="black"/>
<path d="M412.48 102.36L417.13 107.01 417.13 202.03 412.48 202.03 412.48 102.36Z"
fill-rule="evenodd" fill="black"/>
<path d="M417.13 202.03L412.48 202.03 412.48 202.03 417.13 202.03Z"
fill-rule="evenodd" fill="black"/>
<path d="M412.48 102.36L412.48 202.03 412.48 202.03 412.48 102.36Z"
fill-rule="evenodd" fill="black"/>
<path d="M417.13 107.01L417.13 202.03 417.13 202.03 417.13 107.01Z"
fill-rule="evenodd" fill="black"/>
<path d="M413.9 261.29L418.55 261.29 418.55 360.04 413.9 360.04 413.9 261.29Z"
fill-rule="evenodd" fill="black"/>
<path d="M413.9 261.29L418.55 261.29 418.55 261.29 413.9 261.29Z"
fill-rule="evenodd" fill="black"/>
<path d="M413.9 261.29L418.55 261.29 418.55 360.04 413.9 360.04 413.9 261.29Z"
fill-rule="evenodd" fill="black"/>
<path d="M418.55 360.04L413.9 360.04 413.9 360.04 418.55 360.04Z"
fill-rule="evenodd" fill="black"/>
<path d="M413.9 261.29L413.9 360.04 413.9 360.04 413.9 261.29Z"
fill-rule="evenodd" fill="black"/>
<path d="M418.55 261.29L418.55 360.04 418.55 360.04 418.55 261.29Z"
fill-rule="evenodd" fill="black"/>
<path d="M451.33 468.79L453.65 472.82 413.9 495.77 418.55 487.72 451.33 468.79Z"
fill-rule="evenodd" fill="black"/>
<path d="M451.33 468.79L453.65 472.82 453.65 472.82 451.33 468.79Z"
fill-rule="evenodd" fill="black"/>
<path d="M451.33 468.79L453.65 472.82 413.9 495.77 418.55 487.72 451.33 468.79Z"
fill-rule="evenodd" fill="black"/>
<path d="M413.9 495.77L418.55 487.72 418.55 487.72 413.9 495.77Z"
fill-rule="evenodd" fill="black"/>
<path d="M451.33 468.79L418.55 487.72 418.55 487.72 451.33 468.79Z"
fill-rule="evenodd" fill="black"/>
<path d="M453.65 472.82L413.9 495.77 413.9 495.77 453.65 472.82Z"
fill-rule="evenodd" fill="black"/>
<path d="M418.55 487.72L413.9 495.77 413.9 427.76 418.55 427.76 418.55 487.72Z"
fill-rule="evenodd" fill="black"/>
<path d="M418.55 487.72L413.9 495.77 413.9 495.77 418.55 487.72Z"
fill-rule="evenodd" fill="black"/>
<path d="M418.55 487.72L413.9 495.77 413.9 427.76 418.55 427.76 418.55 487.72Z"
fill-rule="evenodd" fill="black"/>
<path d="M413.9 427.76L418.55 427.76 418.55 427.76 413.9 427.76Z"
fill-rule="evenodd" fill="black"/>
<path d="M418.55 487.72L418.55 427.76 418.55 427.76 418.55 487.72Z"
fill-rule="evenodd" fill="black"/>
<path d="M413.9 495.77L413.9 427.76 413.9 427.76 413.9 495.77Z"
fill-rule="evenodd" fill="black"/>
<path d="M413.9 427.76L418.55 427.76 418.55 526.52 413.9 526.52 413.9 427.76Z"
fill-rule="evenodd" fill="black"/>
<path d="M413.9 427.76L418.55 427.76 418.55 427.76 413.9 427.76Z"
fill-rule="evenodd" fill="black"/>
<path d="M413.9 427.76L418.55 427.76 418.55 526.52 413.9 526.52 413.9 427.76Z"
fill-rule="evenodd" fill="black"/>
<path d="M418.55 526.52L413.9 526.52 413.9 526.52 418.55 526.52Z"
fill-rule="evenodd" fill="black"/>
<path d="M413.9 427.76L413.9 526.52 413.9 526.52 413.9 427.76Z"
fill-rule="evenodd" fill="black"/>
<path d="M418.55 427.76L418.55 526.52 418.55 526.52 418.55 427.76Z"
fill-rule="evenodd" fill="black"/>
<path d="M418.55 526.52L413.9 526.52 413.9 484.98 418.55 484.98 418.55 526.52Z"
fill-rule="evenodd" fill="black"/>
<path d="M418.55 526.52L413.9 526.52 413.9 526.52 418.55 526.52Z"
fill-rule="evenodd" fill="black"/>
<path d="M418.55 526.52L413.9 526.52 413.9 484.98 418.55 484.98 418.55 526.52Z"
fill-rule="evenodd" fill="black"/>
<path d="M413.9 484.98L418.55 484.98 418.55 484.98 413.9 484.98Z"
fill-rule="evenodd" fill="black"/>
<path d="M418.55 526.52L418.55 484.98 418.55 484.98 418.55 526.52Z"
fill-rule="evenodd" fill="black"/>
<path d="M413.9 526.52L413.9 484.98 413.9 484.98 413.9 526.52Z"
fill-rule="evenodd" fill="black"/>
<path d="M413.9 484.98L418.55 484.98 418.55 493.09 413.9 490.4 413.9 484.98Z"
fill-rule="evenodd" fill="black"/>
<path d="M413.9 484.98L418.55 484.98 418.55 484.98 413.9 484.98Z"
fill-rule="evenodd" fill="black"/>
<path d="M413.9 484.98L418.55 484.98 418.55 493.09 413.9 490.4 413.9 484.98Z"
fill-rule="evenodd" fill="black"/>
<path d="M418.55 493.09L413.9 490.4 413.9 490.4 418.55 493.09Z"
fill-rule="evenodd" fill="black"/>
<path d="M413.9 484.98L413.9 490.4 413.9 490.4 413.9 484.98Z"
fill-rule="evenodd" fill="black"/>
<path d="M418.55 484.98L418.55 493.09 418.55 493.09 418.55 484.98Z"
fill-rule="evenodd" fill="black"/>
<path d="M413.9 490.4L418.55 493.09 324.85 547.18 323.61 542.54 413.9 490.4Z"
fill-rule="evenodd" fill="black"/>
<path d="M413.9 490.4L418.55 493.09 418.55 493.09 413.9 490.4Z"
fill-rule="evenodd" fill="black"/>
<path d="M413.9 490.4L418.55 493.09 324.85 547.18 323.61 542.54 413.9 490.4Z"
fill-rule="evenodd" fill="black"/>
<path d="M324.85 547.18L323.61 542.54 323.61 542.54 324.85 547.18Z"
fill-rule="evenodd" fill="black"/>
<path d="M413.9 490.4L323.61 542.54 323.61 542.54 413.9 490.4Z"
fill-rule="evenodd" fill="black"/>
<path d="M418.55 493.09L324.85 547.18 324.85 547.18 418.55 493.09Z"
fill-rule="evenodd" fill="black"/>
<path d="M323.61 542.54L324.85 547.18 257.73 547.18 262.38 542.54 323.61 542.54Z"
fill-rule="evenodd" fill="black"/>
<path d="M323.61 542.54L324.85 547.18 324.85 547.18 323.61 542.54Z"
fill-rule="evenodd" fill="black"/>
<path d="M323.61 542.54L324.85 547.18 257.73 547.18 262.38 542.54 323.61 542.54Z"
fill-rule="evenodd" fill="black"/>
<path d="M257.73 547.18L262.38 542.54 262.38 542.54 257.73 547.18Z"
fill-rule="evenodd" fill="black"/>
<path d="M323.61 542.54L262.38 542.54 262.38 542.54 323.61 542.54Z"
fill-rule="evenodd" fill="black"/>
<path d="M324.85 547.18L257.73 547.18 257.73 547.18 324.85 547.18Z"
fill-rule="evenodd" fill="black"/>
<path d="M262.38 542.54L257.73 547.18 257.73 491.42 262.38 491.42 262.38 542.54Z"
fill-rule="evenodd" fill="black"/>
<path d="M262.38 542.54L257.73 547.18 257.73 547.18 262.38 542.54Z"
fill-rule="evenodd" fill="black"/>
<path d="M262.38 542.54L257.73 547.18 257.73 491.42 262.38 491.42 262.38 542.54Z"
fill-rule="evenodd" fill="black"/>
<path d="M257.73 491.42L262.38 491.42 262.38 491.42 257.73 491.42Z"
fill-rule="evenodd" fill="black"/>
<path d="M262.38 542.54L262.38 491.42 262.38 491.42 262.38 542.54Z"
fill-rule="evenodd" fill="black"/>
<path d="M257.73 547.18L257.73 491.42 257.73 491.42 257.73 547.18Z"
fill-rule="evenodd" fill="black"/>
<path d="M257.73 491.42L262.38 491.42 262.38 598.3 257.73 598.3 257.73 491.42Z"
fill-rule="evenodd" fill="black"/>
<path d="M257.73 491.42L262.38 491.42 262.38 491.42 257.73 491.42Z"
fill-rule="evenodd" fill="black"/>
<path d="M257.73 491.42L262.38 491.42 262.38 598.3 257.73 598.3 257.73 491.42Z"
fill-rule="evenodd" fill="black"/>
<path d="M262.38 598.3L257.73 598.3 257.73 598.3 262.38 598.3Z"
fill-rule="evenodd" fill="black"/>
<path d="M257.73 491.42L257.73 598.3 257.73 598.3 257.73 491.42Z"
fill-rule="evenodd" fill="black"/>
<path d="M262.38 491.42L262.38 598.3 262.38 598.3 262.38 491.42Z"
fill-rule="evenodd" fill="black"/>
<path d="M236.35 512.79L241 512.79 241 576.93 236.35 576.93 236.35 512.79Z"
fill-rule="evenodd" fill="black"/>
<path d="M236.35 512.79L241 512.79 241 512.79 236.35 512.79Z"
fill-rule="evenodd" fill="black"/>
<path d="M236.35 512.79L241 512.79 241 576.93 236.35 576.93 236.35 512.79Z"
fill-rule="evenodd" fill="black"/>
<path d="M241 576.93L236.35 576.93 236.35 576.93 241 576.93Z"
fill-rule="evenodd" fill="black"/>
<path d="M236.35 512.79L236.35 576.93 236.35 576.93 236.35 512.79Z"
fill-rule="evenodd" fill="black"/>
<path d="M241 512.79L241 576.93 241 576.93 241 512.79Z"
fill-rule="evenodd" fill="black"/>
<path d="M214.98 534.17L219.62 534.17 219.62 555.55 214.98 555.55 214.98 534.17Z"
fill-rule="evenodd" fill="black"/>
<path d="M214.98 534.17L219.62 534.17 219.62 534.17 214.98 534.17Z"
fill-rule="evenodd" fill="black"/>
<path d="M214.98 534.17L219.62 534.17 219.62 555.55 214.98 555.55 214.98 534.17Z"
fill-rule="evenodd" fill="black"/>
<path d="M219.62 555.55L214.98 555.55 214.98 555.55 219.62 555.55Z"
fill-rule="evenodd" fill="black"/>
<path d="M214.98 534.17L214.98 555.55 214.98 555.55 214.98 534.17Z"
fill-rule="evenodd" fill="black"/>
<path d="M219.62 534.17L219.62 555.55 219.62 555.55 219.62 534.17Z"
fill-rule="evenodd" fill="black"/>
<path d="M450.17 528.83L454.82 528.83 454.82 560.89 450.17 560.89 450.17 528.83Z"
fill-rule="evenodd" fill="black"/>
<path d="M450.17 528.83L454.82 528.83 454.82 528.83 450.17 528.83Z"
fill-rule="evenodd" fill="black"/>
<path d="M450.17 528.83L454.82 528.83 454.82 560.89 450.17 560.89 450.17 528.83Z"
fill-rule="evenodd" fill="black"/>
<path d="M454.82 560.89L450.17 560.89 450.17 560.89 454.82 560.89Z"
fill-rule="evenodd" fill="black"/>
<path d="M450.17 528.83L450.17 560.89 450.17 560.89 450.17 528.83Z"
fill-rule="evenodd" fill="black"/>
<path d="M454.82 528.83L454.82 560.89 454.82 560.89 454.82 528.83Z"
fill-rule="evenodd" fill="black"/>
<path d="M454.82 560.89L450.17 560.89 450.17 542.54 454.82 547.18 454.82 560.89Z"
fill-rule="evenodd" fill="black"/>
<path d="M454.82 560.89L450.17 560.89 450.17 560.89 454.82 560.89Z"
fill-rule="evenodd" fill="black"/>
<path d="M454.82 560.89L450.17 560.89 450.17 542.54 454.82 547.18 454.82 560.89Z"
fill-rule="evenodd" fill="black"/>
<path d="M450.17 542.54L454.82 547.18 454.82 547.18 450.17 542.54Z"
fill-rule="evenodd" fill="black"/>
<path d="M454.82 560.89L454.82 547.18 454.82 547.18 454.82 560.89Z"
fill-rule="evenodd" fill="black"/>
<path d="M450.17 560.89L450.17 542.54 450.17 542.54 450.17 560.89Z"
fill-rule="evenodd" fill="black"/>
<path d="M454.82 547.18L450.17 542.54 565.27 542.54 560.62 547.18 454.82 547.18Z"
fill-rule="evenodd" fill="black"/>
<path d="M454.82 547.18L450.17 542.54 450.17 542.54 454.82 547.18Z"
fill-rule="evenodd" fill="black"/>
<path d="M454.82 547.18L450.17 542.54 565.27 542.54 560.62 547.18 454.82 547.18Z"
fill-rule="evenodd" fill="black"/>
<path d="M565.27 542.54L560.62 547.18 560.62 547.18 565.27 542.54Z"
fill-rule="evenodd" fill="black"/>
<path d="M454.82 547.18L560.62 547.18 560.62 547.18 454.82 547.18Z"
fill-rule="evenodd" fill="black"/>
<path d="M450.17 542.54L565.27 542.54 565.27 542.54 450.17 542.54Z"
fill-rule="evenodd" fill="black"/>
<path d="M560.62 547.18L565.27 542.54 565.27 594.24 560.62 594.24 560.62 547.18Z"
fill-rule="evenodd" fill="black"/>
<path d="M560.62 547.18L565.27 542.54 565.27 542.54 560.62 547.18Z"
fill-rule="evenodd" fill="black"/>
<path d="M560.62 547.18L565.27 542.54 565.27 594.24 560.62 594.24 560.62 547.18Z"
fill-rule="evenodd" fill="black"/>
<path d="M565.27 594.24L560.62 594.24 560.62 594.24 565.27 594.24Z"
fill-rule="evenodd" fill="black"/>
<path d="M560.62 547.18L560.62 594.24 560.62 594.24 560.62 547.18Z"
fill-rule="evenodd" fill="black"/>
<path d="M565.27 542.54L565.27 594.24 565.27 594.24 565.27 542.54Z"
fill-rule="evenodd" fill="black"/>
<path d="M565.27 594.24L560.62 594.24 560.62 495.48 565.27 495.48 565.27 594.24Z"
fill-rule="evenodd" fill="black"/>
<path d="M565.27 594.24L560.62 594.24 560.62 594.24 565.27 594.24Z"
fill-rule="evenodd" fill="black"/>
<path d="M565.27 594.24L560.62 594.24 560.62 495.48 565.27 495.48 565.27 594.24Z"
fill-rule="evenodd" fill="black"/>
<path d="M560.62 495.48L565.27 495.48 565.27 495.48 560.62 495.48Z"
fill-rule="evenodd" fill="black"/>
<path d="M565.27 594.24L565.27 495.48 565.27 495.48 565.27 594.24Z"
fill-rule="evenodd" fill="black"/>
<path d="M560.62 594.24L560.62 495.48 560.62 495.48 560.62 594.24Z"
fill-rule="evenodd" fill="black"/>
<path d="M565.27 396.73L560.62 396.73 560.62 250.91 565.27 246.27 565.27 396.73Z"
fill-rule="evenodd" fill="black"/>
<path d="M565.27 396.73L560.62 396.73 560.62 396.73 565.27 396.73Z"
fill-rule="evenodd" fill="black"/>
<path d="M565.27 396.73L560.62 396.73 560.62 250.91 565.27 246.27 565.27 396.73Z"
fill-rule="evenodd" fill="black"/>
<path d="M560.62 250.91L565.27 246.27 565.27 246.27 560.62 250.91Z"
fill-rule="evenodd" fill="black"/>
<path d="M565.27 396.73L565.27 246.27 565.27 246.27 565.27 396.73Z"
fill-rule="evenodd" fill="black"/>
<path d="M560.62 396.73L560.62 250.91 560.62 250.91 560.62 396.73Z"
fill-rule="evenodd" fill="black"/>
<path d="M565.27 246.27L560.62 250.91 545.52 250.91 540.87 246.27 565.27 246.27Z"
fill-rule="evenodd" fill="black"/>
<path d="M565.27 246.27L560.62 250.91 560.62 250.91 565.27 246.27Z"
fill-rule="evenodd" fill="black"/>
<path d="M565.27 246.27L560.62 250.91 545.52 250.91 540.87 246.27 565.27 246.27Z"
fill-rule="evenodd" fill="black"/>
<path d="M545.52 250.91L540.87 246.27 540.87 246.27 545.52 250.91Z"
fill-rule="evenodd" fill="black"/>
<path d="M565.27 246.27L540.87 246.27 540.87 246.27 565.27 246.27Z"
fill-rule="evenodd" fill="black"/>
<path d="M560.62 250.91L545.52 250.91 545.52 250.91 560.62 250.91Z"
fill-rule="evenodd" fill="black"/>
<path d="M540.87 246.27L545.52 250.91 545.52 345.02 540.87 349.67 540.87 246.27Z"
fill-rule="evenodd" fill="black"/>
<path d="M540.87 246.27L545.52 250.91 545.52 250.91 540.87 246.27Z"
fill-rule="evenodd" fill="black"/>
<path d="M540.87 246.27L545.52 250.91 545.52 345.02 540.87 349.67 540.87 246.27Z"
fill-rule="evenodd" fill="black"/>
<path d="M545.52 345.02L540.87 349.67 540.87 349.67 545.52 345.02Z"
fill-rule="evenodd" fill="black"/>
<path d="M540.87 246.27L540.87 349.67 540.87 349.67 540.87 246.27Z"
fill-rule="evenodd" fill="black"/>
<path d="M545.52 250.91L545.52 345.02 545.52 345.02 545.52 250.91Z"
fill-rule="evenodd" fill="black"/>
<path d="M540.87 349.67L545.52 345.02 580.38 345.02 585.02 349.67 540.87 349.67Z"
fill-rule="evenodd" fill="black"/>
<path d="M540.87 349.67L545.52 345.02 545.52 345.02 540.87 349.67Z"
fill-rule="evenodd" fill="black"/>
<path d="M540.87 349.67L545.52 345.02 580.38 345.02 585.02 349.67 540.87 349.67Z"
fill-rule="evenodd" fill="black"/>
<path d="M580.38 345.02L585.02 349.67 585.02 349.67 580.38 345.02Z"
fill-rule="evenodd" fill="black"/>
<path d="M540.87 349.67L585.02 349.67 585.02 349.67 540.87 349.67Z"
fill-rule="evenodd" fill="black"/>
<path d="M545.52 345.02L580.38 345.02 580.38 345.02 545.52 345.02Z"
fill-rule="evenodd" fill="black"/>
<path d="M585.02 349.67L580.38 345.02 580.38 250.91 585.02 246.27 585.02 349.67Z"
fill-rule="evenodd" fill="black"/>
<path d="M585.02 349.67L580.38 345.02 580.38 345.02 585.02 349.67Z"
fill-rule="evenodd" fill="black"/>
<path d="M585.02 349.67L580.38 345.02 580.38 250.91 585.02 246.27 585.02 349.67Z"
fill-rule="evenodd" fill="black"/>
<path d="M580.38 250.91L585.02 246.27 585.02 246.27 580.38 250.91Z"
fill-rule="evenodd" fill="black"/>
<path d="M585.02 349.67L585.02 246.27 585.02 246.27 585.02 349.67Z"
fill-rule="evenodd" fill="black"/>
<path d="M580.38 345.02L580.38 250.91 580.38 250.91 580.38 345.02Z"
fill-rule="evenodd" fill="black"/>
<path d="M585.02 246.27L580.38 250.91 562.95 250.91 562.95 246.27 585.02 246.27Z"
fill-rule="evenodd" fill="black"/>
<path d="M585.02 246.27L580.38 250.91 580.38 250.91 585.02 246.27Z"
fill-rule="evenodd" fill="black"/>
<path d="M585.02 246.27L580.38 250.91 562.95 250.91 562.95 246.27 585.02 246.27Z"
fill-rule="evenodd" fill="black"/>
<path d="M562.95 250.91L562.95 246.27 562.95 246.27 562.95 250.91Z"
fill-rule="evenodd" fill="black"/>
<path d="M585.02 246.27L562.95 246.27 562.95 246.27 585.02 246.27Z"
fill-rule="evenodd" fill="black"/>
<path d="M580.38 250.91L562.95 250.91 562.95 250.91 580.38 250.91Z"
fill-rule="evenodd" fill="black"/>
<path d="M562.95 52.04L560.57 52.28 561.48 56.84 562.95 56.69 562.95 52.04Z"
fill-rule="evenodd" fill="black"/>
<path d="M562.95 56.69L561.48 56.84 560.57 52.28 562.95 52.04 562.95 56.69Z"
fill-rule="evenodd" fill="black"/>
<path d="M560.57 52.28L562.95 52.04 562.95 52.04 560.57 52.28Z"
fill-rule="evenodd" fill="black"/>
<path d="M561.48 56.84L560.57 52.28 560.57 52.28 561.48 56.84Z"
fill-rule="evenodd" fill="black"/>
<path d="M562.95 56.69L561.48 56.84 561.48 56.84 562.95 56.69Z"
fill-rule="evenodd" fill="black"/>
<path d="M562.95 52.04L562.95 56.69 562.95 56.69 562.95 52.04Z"
fill-rule="evenodd" fill="black"/>
<path d="M560.57 52.28L558.28 52.97 560.06 57.27 561.48 56.84 560.57 52.28Z"
fill-rule="evenodd" fill="black"/>
<path d="M561.48 56.84L560.06 57.27 558.28 52.97 560.57 52.28 561.48 56.84Z"
fill-rule="evenodd" fill="black"/>
<path d="M558.28 52.97L560.57 52.28 560.57 52.28 558.28 52.97Z"
fill-rule="evenodd" fill="black"/>
<path d="M560.06 57.27L558.28 52.97 558.28 52.97 560.06 57.27Z"
fill-rule="evenodd" fill="black"/>
<path d="M561.48 56.84L560.06 57.27 560.06 57.27 561.48 56.84Z"
fill-rule="evenodd" fill="black"/>
<path d="M560.57 52.28L561.48 56.84 561.48 56.84 560.57 52.28Z"
fill-rule="evenodd" fill="black"/>
<path d="M558.28 52.97L556.17 54.1 558.75 57.97 560.06 57.27 558.28 52.97Z"
fill-rule="evenodd" fill="black"/>
<path d="M560.06 57.27L558.75 57.97 556.17 54.1 558.28 52.97 560.06 57.27Z"
fill-rule="evenodd" fill="black"/>
<path d="M556.17 54.1L558.28 52.97 558.28 52.97 556.17 54.1Z"
fill-rule="evenodd" fill="black"/>
<path d="M558.75 57.97L556.17 54.1 556.17 54.1 558.75 57.97Z"
fill-rule="evenodd" fill="black"/>
<path d="M560.06 57.27L558.75 57.97 558.75 57.97 560.06 57.27Z"
fill-rule="evenodd" fill="black"/>
<path d="M558.28 52.97L560.06 57.27 560.06 57.27 558.28 52.97Z"
fill-rule="evenodd" fill="black"/>
<path d="M556.17 54.1L554.32 55.62 557.61 58.9 558.75 57.97 556.17 54.1Z"
fill-rule="evenodd" fill="black"/>
<path d="M558.75 57.97L557.61 58.9 554.32 55.62 556.17 54.1 558.75 57.97Z"
fill-rule="evenodd" fill="black"/>
<path d="M554.32 55.62L556.17 54.1 556.17 54.1 554.32 55.62Z"
fill-rule="evenodd" fill="black"/>
<path d="M557.61 58.9L554.32 55.62 554.32 55.62 557.61 58.9Z"
fill-rule="evenodd" fill="black"/>
<path d="M558.75 57.97L557.61 58.9 557.61 58.9 558.75 57.97Z"
fill-rule="evenodd" fill="black"/>
<path d="M556.17 54.1L558.75 57.97 558.75 57.97 556.17 54.1Z"
fill-rule="evenodd" fill="black"/>
<path d="M554.32 55.62L552.8 57.47 556.67 60.05 557.61 58.9 554.32 55.62Z"
fill-rule="evenodd" fill="black"/>
<path d="M557.61 58.9L556.67 60.05 552.8 57.47 554.32 55.62 557.61 58.9Z"
fill-rule="evenodd" fill="black"/>
<path d="M552.8 57.47L554.32 55.62 554.32 55.62 552.8 57.47Z"
fill-rule="evenodd" fill="black"/>
<path d="M556.67 60.05L552.8 57.47 552.8 57.47 556.67 60.05Z"
fill-rule="evenodd" fill="black"/>
<path d="M557.61 58.9L556.67 60.05 556.67 60.05 557.61 58.9Z"
fill-rule="evenodd" fill="black"/>
<path d="M554.32 55.62L557.61 58.9 557.61 58.9 554.32 55.62Z"
fill-rule="evenodd" fill="black"/>
<path d="M552.8 57.47L551.68 59.57 555.97 61.35 556.67 60.05 552.8 57.47Z"
fill-rule="evenodd" fill="black"/>
<path d="M556.67 60.05L555.97 61.35 551.68 59.57 552.8 57.47 556.67 60.05Z"
fill-rule="evenodd" fill="black"/>
<path d="M551.68 59.57L552.8 57.47 552.8 57.47 551.68 59.57Z"
fill-rule="evenodd" fill="black"/>
<path d="M555.97 61.35L551.68 59.57 551.68 59.57 555.97 61.35Z"
fill-rule="evenodd" fill="black"/>
<path d="M556.67 60.05L555.97 61.35 555.97 61.35 556.67 60.05Z"
fill-rule="evenodd" fill="black"/>
<path d="M552.8 57.47L556.67 60.05 556.67 60.05 552.8 57.47Z"
fill-rule="evenodd" fill="black"/>
<path d="M551.68 59.57L550.98 61.86 555.54 62.77 555.97 61.35 551.68 59.57Z"
fill-rule="evenodd" fill="black"/>
<path d="M555.97 61.35L555.54 62.77 550.98 61.86 551.68 59.57 555.97 61.35Z"
fill-rule="evenodd" fill="black"/>
<path d="M550.98 61.86L551.68 59.57 551.68 59.57 550.98 61.86Z"
fill-rule="evenodd" fill="black"/>
<path d="M555.54 62.77L550.98 61.86 550.98 61.86 555.54 62.77Z"
fill-rule="evenodd" fill="black"/>
<path d="M555.97 61.35L555.54 62.77 555.54 62.77 555.97 61.35Z"
fill-rule="evenodd" fill="black"/>
<path d="M551.68 59.57L555.97 61.35 555.97 61.35 551.68 59.57Z"
fill-rule="evenodd" fill="black"/>
<path d="M550.98 61.86L550.75 64.24 555.4 64.24 555.54 62.77 550.98 61.86Z"
fill-rule="evenodd" fill="black"/>
<path d="M555.54 62.77L555.4 64.24 550.75 64.24 550.98 61.86 555.54 62.77Z"
fill-rule="evenodd" fill="black"/>
<path d="M550.75 64.24L550.98 61.86 550.98 61.86 550.75 64.24Z"
fill-rule="evenodd" fill="black"/>
<path d="M555.4 64.24L550.75 64.24 550.75 64.24 555.4 64.24Z"
fill-rule="evenodd" fill="black"/>
<path d="M555.54 62.77L555.4 64.24 555.4 64.24 555.54 62.77Z"
fill-rule="evenodd" fill="black"/>
<path d="M550.98 61.86L555.54 62.77 555.54 62.77 550.98 61.86Z"
fill-rule="evenodd" fill="black"/>
<path d="M550.75 64.24L550.98 66.62 555.54 65.72 555.4 64.24 550.75 64.24Z"
fill-rule="evenodd" fill="black"/>
<path d="M555.4 64.24L555.54 65.72 550.98 66.62 550.75 64.24 555.4 64.24Z"
fill-rule="evenodd" fill="black"/>
<path d="M550.98 66.62L550.75 64.24 550.75 64.24 550.98 66.62Z"
fill-rule="evenodd" fill="black"/>
<path d="M555.54 65.72L550.98 66.62 550.98 66.62 555.54 65.72Z"
fill-rule="evenodd" fill="black"/>
<path d="M555.4 64.24L555.54 65.72 555.54 65.72 555.4 64.24Z"
fill-rule="evenodd" fill="black"/>
<path d="M550.75 64.24L555.4 64.24 555.4 64.24 550.75 64.24Z"
fill-rule="evenodd" fill="black"/>
<path d="M550.98 66.62L551.68 68.91 555.97 67.13 555.54 65.72 550.98 66.62Z"
fill-rule="evenodd" fill="black"/>
<path d="M555.54 65.72L555.97 67.13 551.68 68.91 550.98 66.62 555.54 65.72Z"
fill-rule="evenodd" fill="black"/>
<path d="M551.68 68.91L550.98 66.62 550.98 66.62 551.68 68.91Z"
fill-rule="evenodd" fill="black"/>
<path d="M555.97 67.13L551.68 68.91 551.68 68.91 555.97 67.13Z"
fill-rule="evenodd" fill="black"/>
<path d="M555.54 65.72L555.97 67.13 555.97 67.13 555.54 65.72Z"
fill-rule="evenodd" fill="black"/>
<path d="M550.98 66.62L555.54 65.72 555.54 65.72 550.98 66.62Z"
fill-rule="evenodd" fill="black"/>
<path d="M551.68 68.91L552.8 71.02 556.67 68.44 555.97 67.13 551.68 68.91Z"
fill-rule="evenodd" fill="black"/>
<path d="M555.97 67.13L556.67 68.44 552.8 71.02 551.68 68.91 555.97 67.13Z"
fill-rule="evenodd" fill="black"/>
<path d="M552.8 71.02L551.68 68.91 551.68 68.91 552.8 71.02Z"
fill-rule="evenodd" fill="black"/>
<path d="M556.67 68.44L552.8 71.02 552.8 71.02 556.67 68.44Z"
fill-rule="evenodd" fill="black"/>
<path d="M555.97 67.13L556.67 68.44 556.67 68.44 555.97 67.13Z"
fill-rule="evenodd" fill="black"/>
<path d="M551.68 68.91L555.97 67.13 555.97 67.13 551.68 68.91Z"
fill-rule="evenodd" fill="black"/>
<path d="M552.8 71.02L554.32 72.87 557.61 69.58 556.67 68.44 552.8 71.02Z"
fill-rule="evenodd" fill="black"/>
<path d="M556.67 68.44L557.61 69.58 554.32 72.87 552.8 71.02 556.67 68.44Z"
fill-rule="evenodd" fill="black"/>
<path d="M554.32 72.87L552.8 71.02 552.8 71.02 554.32 72.87Z"
fill-rule="evenodd" fill="black"/>
<path d="M557.61 69.58L554.32 72.87 554.32 72.87 557.61 69.58Z"
fill-rule="evenodd" fill="black"/>
<path d="M556.67 68.44L557.61 69.58 557.61 69.58 556.67 68.44Z"
fill-rule="evenodd" fill="black"/>
<path d="M552.8 71.02L556.67 68.44 556.67 68.44 552.8 71.02Z"
fill-rule="evenodd" fill="black"/>
<path d="M554.32 72.87L556.17 74.39 558.75 70.52 557.61 69.58 554.32 72.87Z"
fill-rule="evenodd" fill="black"/>
<path d="M557.61 69.58L558.75 70.52 556.17 74.39 554.32 72.87 557.61 69.58Z"
fill-rule="evenodd" fill="black"/>
<path d="M556.17 74.39L554.32 72.87 554.32 72.87 556.17 74.39Z"
fill-rule="evenodd" fill="black"/>
<path d="M558.75 70.52L556.17 74.39 556.17 74.39 558.75 70.52Z"
fill-rule="evenodd" fill="black"/>
<path d="M557.61 69.58L558.75 70.52 558.75 70.52 557.61 69.58Z"
fill-rule="evenodd" fill="black"/>
<path d="M554.32 72.87L557.61 69.58 557.61 69.58 554.32 72.87Z"
fill-rule="evenodd" fill="black"/>
<path d="M556.17 74.39L558.28 75.52 560.06 71.22 558.75 70.52 556.17 74.39Z"
fill-rule="evenodd" fill="black"/>
<path d="M558.75 70.52L560.06 71.22 558.28 75.52 556.17 74.39 558.75 70.52Z"
fill-rule="evenodd" fill="black"/>
<path d="M558.28 75.52L556.17 74.39 556.17 74.39 558.28 75.52Z"
fill-rule="evenodd" fill="black"/>
<path d="M560.06 71.22L558.28 75.52 558.28 75.52 560.06 71.22Z"
fill-rule="evenodd" fill="black"/>
<path d="M558.75 70.52L560.06 71.22 560.06 71.22 558.75 70.52Z"
fill-rule="evenodd" fill="black"/>
<path d="M556.17 74.39L558.75 70.52 558.75 70.52 556.17 74.39Z"
fill-rule="evenodd" fill="black"/>
<path d="M558.28 75.52L560.57 76.21 561.48 71.65 560.06 71.22 558.28 75.52Z"
fill-rule="evenodd" fill="black"/>
<path d="M560.06 71.22L561.48 71.65 560.57 76.21 558.28 75.52 560.06 71.22Z"
fill-rule="evenodd" fill="black"/>
<path d="M560.57 76.21L558.28 75.52 558.28 75.52 560.57 76.21Z"
fill-rule="evenodd" fill="black"/>
<path d="M561.48 71.65L560.57 76.21 560.57 76.21 561.48 71.65Z"
fill-rule="evenodd" fill="black"/>
<path d="M560.06 71.22L561.48 71.65 561.48 71.65 560.06 71.22Z"
fill-rule="evenodd" fill="black"/>
<path d="M558.28 75.52L560.06 71.22 560.06 71.22 558.28 75.52Z"
fill-rule="evenodd" fill="black"/>
<path d="M560.57 76.21L562.95 76.44 562.95 71.79 561.48 71.65 560.57 76.21Z"
fill-rule="evenodd" fill="black"/>
<path d="M561.48 71.65L562.95 71.79 562.95 76.44 560.57 76.21 561.48 71.65Z"
fill-rule="evenodd" fill="black"/>
<path d="M562.95 76.44L560.57 76.21 560.57 76.21 562.95 76.44Z"
fill-rule="evenodd" fill="black"/>
<path d="M562.95 71.79L562.95 76.44 562.95 76.44 562.95 71.79Z"
fill-rule="evenodd" fill="black"/>
<path d="M561.48 71.65L562.95 71.79 562.95 71.79 561.48 71.65Z"
fill-rule="evenodd" fill="black"/>
<path d="M560.57 76.21L561.48 71.65 561.48 71.65 560.57 76.21Z"
fill-rule="evenodd" fill="black"/>
<path d="M562.95 76.44L565.33 76.21 564.42 71.65 562.95 71.79 562.95 76.44Z"
fill-rule="evenodd" fill="black"/>
<path d="M562.95 71.79L564.42 71.65 565.33 76.21 562.95 76.44 562.95 71.79Z"
fill-rule="evenodd" fill="black"/>
<path d="M565.33 76.21L562.95 76.44 562.95 76.44 565.33 76.21Z"
fill-rule="evenodd" fill="black"/>
<path d="M564.42 71.65L565.33 76.21 565.33 76.21 564.42 71.65Z"
fill-rule="evenodd" fill="black"/>
<path d="M562.95 71.79L564.42 71.65 564.42 71.65 562.95 71.79Z"
fill-rule="evenodd" fill="black"/>
<path d="M562.95 76.44L562.95 71.79 562.95 71.79 562.95 76.44Z"
fill-rule="evenodd" fill="black"/>
<path d="M565.33 76.21L567.62 75.52 565.84 71.22 564.42 71.65 565.33 76.21Z"
fill-rule="evenodd" fill="black"/>
<path d="M564.42 71.65L565.84 71.22 567.62 75.52 565.33 76.21 564.42 71.65Z"
fill-rule="evenodd" fill="black"/>
<path d="M567.62 75.52L565.33 76.21 565.33 76.21 567.62 75.52Z"
fill-rule="evenodd" fill="black"/>
<path d="M565.84 71.22L567.62 75.52 567.62 75.52 565.84 71.22Z"
fill-rule="evenodd" fill="black"/>
<path d="M564.42 71.65L565.84 71.22 565.84 71.22 564.42 71.65Z"
fill-rule="evenodd" fill="black"/>
<path d="M565.33 76.21L564.42 71.65 564.42 71.65 565.33 76.21Z"
fill-rule="evenodd" fill="black"/>
<path d="M567.62 75.52L569.73 74.39 567.14 70.52 565.84 71.22 567.62 75.52Z"
fill-rule="evenodd" fill="black"/>
<path d="M565.84 71.22L567.14 70.52 569.73 74.39 567.62 75.52 565.84 71.22Z"
fill-rule="evenodd" fill="black"/>
<path d="M569.73 74.39L567.62 75.52 567.62 75.52 569.73 74.39Z"
fill-rule="evenodd" fill="black"/>
<path d="M567.14 70.52L569.73 74.39 569.73 74.39 567.14 70.52Z"
fill-rule="evenodd" fill="black"/>
<path d="M565.84 71.22L567.14 70.52 567.14 70.52 565.84 71.22Z"
fill-rule="evenodd" fill="black"/>
<path d="M567.62 75.52L565.84 71.22 565.84 71.22 567.62 75.52Z"
fill-rule="evenodd" fill="black"/>
<path d="M569.73 74.39L571.58 72.87 568.29 69.58 567.14 70.52 569.73 74.39Z"
fill-rule="evenodd" fill="black"/>
<path d="M567.14 70.52L568.29 69.58 571.58 72.87 569.73 74.39 567.14 70.52Z"
fill-rule="evenodd" fill="black"/>
<path d="M571.58 72.87L569.73 74.39 569.73 74.39 571.58 72.87Z"
fill-rule="evenodd" fill="black"/>
<path d="M568.29 69.58L571.58 72.87 571.58 72.87 568.29 69.58Z"
fill-rule="evenodd" fill="black"/>
<path d="M567.14 70.52L568.29 69.58 568.29 69.58 567.14 70.52Z"
fill-rule="evenodd" fill="black"/>
<path d="M569.73 74.39L567.14 70.52 567.14 70.52 569.73 74.39Z"
fill-rule="evenodd" fill="black"/>
<path d="M571.58 72.87L573.09 71.02 569.23 68.44 568.29 69.58 571.58 72.87Z"
fill-rule="evenodd" fill="black"/>
<path d="M568.29 69.58L569.23 68.44 573.09 71.02 571.58 72.87 568.29 69.58Z"
fill-rule="evenodd" fill="black"/>
<path d="M573.09 71.02L571.58 72.87 571.58 72.87 573.09 71.02Z"
fill-rule="evenodd" fill="black"/>
<path d="M569.23 68.44L573.09 71.02 573.09 71.02 569.23 68.44Z"
fill-rule="evenodd" fill="black"/>
<path d="M568.29 69.58L569.23 68.44 569.23 68.44 568.29 69.58Z"
fill-rule="evenodd" fill="black"/>
<path d="M571.58 72.87L568.29 69.58 568.29 69.58 571.58 72.87Z"
fill-rule="evenodd" fill="black"/>
<path d="M573.09 71.02L574.22 68.91 569.92 67.13 569.23 68.44 573.09 71.02Z"
fill-rule="evenodd" fill="black"/>
<path d="M569.23 68.44L569.92 67.13 574.22 68.91 573.09 71.02 569.23 68.44Z"
fill-rule="evenodd" fill="black"/>
<path d="M574.22 68.91L573.09 71.02 573.09 71.02 574.22 68.91Z"
fill-rule="evenodd" fill="black"/>
<path d="M569.92 67.13L574.22 68.91 574.22 68.91 569.92 67.13Z"
fill-rule="evenodd" fill="black"/>
<path d="M569.23 68.44L569.92 67.13 569.92 67.13 569.23 68.44Z"
fill-rule="evenodd" fill="black"/>
<path d="M573.09 71.02L569.23 68.44 569.23 68.44 573.09 71.02Z"
fill-rule="evenodd" fill="black"/>
<path d="M574.22 68.91L574.91 66.62 570.35 65.72 569.92 67.13 574.22 68.91Z"
fill-rule="evenodd" fill="black"/>
<path d="M569.92 67.13L570.35 65.72 574.91 66.62 574.22 68.91 569.92 67.13Z"
fill-rule="evenodd" fill="black"/>
<path d="M574.91 66.62L574.22 68.91 574.22 68.91 574.91 66.62Z"
fill-rule="evenodd" fill="black"/>
<path d="M570.35 65.72L574.91 66.62 574.91 66.62 570.35 65.72Z"
fill-rule="evenodd" fill="black"/>
<path d="M569.92 67.13L570.35 65.72 570.35 65.72 569.92 67.13Z"
fill-rule="evenodd" fill="black"/>
<path d="M574.22 68.91L569.92 67.13 569.92 67.13 574.22 68.91Z"
fill-rule="evenodd" fill="black"/>
<path d="M574.91 66.62L575.15 64.24 570.5 64.24 570.35 65.72 574.91 66.62Z"
fill-rule="evenodd" fill="black"/>
<path d="M570.35 65.72L570.5 64.24 575.15 64.24 574.91 66.62 570.35 65.72Z"
fill-rule="evenodd" fill="black"/>
<path d="M575.15 64.24L574.91 66.62 574.91 66.62 575.15 64.24Z"
fill-rule="evenodd" fill="black"/>
<path d="M570.5 64.24L575.15 64.24 575.15 64.24 570.5 64.24Z"
fill-rule="evenodd" fill="black"/>
<path d="M570.35 65.72L570.5 64.24 570.5 64.24 570.35 65.72Z"
fill-rule="evenodd" fill="black"/>
<path d="M574.91 66.62L570.35 65.72 570.35 65.72 574.91 66.62Z"
fill-rule="evenodd" fill="black"/>
<path d="M575.15 64.24L574.91 61.86 570.35 62.77 570.5 64.24 575.15 64.24Z"
fill-rule="evenodd" fill="black"/>
<path d="M570.5 64.24L570.35 62.77 574.91 61.86 575.15 64.24 570.5 64.24Z"
fill-rule="evenodd" fill="black"/>
<path d="M574.91 61.86L575.15 64.24 575.15 64.24 574.91 61.86Z"
fill-rule="evenodd" fill="black"/>
<path d="M570.35 62.77L574.91 61.86 574.91 61.86 570.35 62.77Z"
fill-rule="evenodd" fill="black"/>
<path d="M570.5 64.24L570.35 62.77 570.35 62.77 570.5 64.24Z"
fill-rule="evenodd" fill="black"/>
<path d="M575.15 64.24L570.5 64.24 570.5 64.24 575.15 64.24Z"
fill-rule="evenodd" fill="black"/>
<path d="M574.91 61.86L574.22 59.57 569.92 61.35 570.35 62.77 574.91 61.86Z"
fill-rule="evenodd" fill="black"/>
<path d="M570.35 62.77L569.92 61.35 574.22 59.57 574.91 61.86 570.35 62.77Z"
fill-rule="evenodd" fill="black"/>
<path d="M574.22 59.57L574.91 61.86 574.91 61.86 574.22 59.57Z"
fill-rule="evenodd" fill="black"/>
<path d="M569.92 61.35L574.22 59.57 574.22 59.57 569.92 61.35Z"
fill-rule="evenodd" fill="black"/>
<path d="M570.35 62.77L569.92 61.35 569.92 61.35 570.35 62.77Z"
fill-rule="evenodd" fill="black"/>
<path d="M574.91 61.86L570.35 62.77 570.35 62.77 574.91 61.86Z"
fill-rule="evenodd" fill="black"/>
<path d="M574.22 59.57L573.09 57.47 569.23 60.05 569.92 61.35 574.22 59.57Z"
fill-rule="evenodd" fill="black"/>
<path d="M569.92 61.35L569.23 60.05 573.09 57.47 574.22 59.57 569.92 61.35Z"
fill-rule="evenodd" fill="black"/>
<path d="M573.09 57.47L574.22 59.57 574.22 59.57 573.09 57.47Z"
fill-rule="evenodd" fill="black"/>
<path d="M569.23 60.05L573.09 57.47 573.09 57.47 569.23 60.05Z"
fill-rule="evenodd" fill="black"/>
<path d="M569.92 61.35L569.23 60.05 569.23 60.05 569.92 61.35Z"
fill-rule="evenodd" fill="black"/>
<path d="M574.22 59.57L569.92 61.35 569.92 61.35 574.22 59.57Z"
fill-rule="evenodd" fill="black"/>
<path d="M573.09 57.47L571.58 55.62 568.29 58.9 569.23 60.05 573.09 57.47Z"
fill-rule="evenodd" fill="black"/>
<path d="M569.23 60.05L568.29 58.9 571.58 55.62 573.09 57.47 569.23 60.05Z"
fill-rule="evenodd" fill="black"/>
<path d="M571.58 55.62L573.09 57.47 573.09 57.47 571.58 55.62Z"
fill-rule="evenodd" fill="black"/>
<path d="M568.29 58.9L571.58 55.62 571.58 55.62 568.29 58.9Z"
fill-rule="evenodd" fill="black"/>
<path d="M569.23 60.05L568.29 58.9 568.29 58.9 569.23 60.05Z"
fill-rule="evenodd" fill="black"/>
<path d="M573.09 57.47L569.23 60.05 569.23 60.05 573.09 57.47Z"
fill-rule="evenodd" fill="black"/>
<path d="M571.58 55.62L569.73 54.1 567.14 57.97 568.29 58.9 571.58 55.62Z"
fill-rule="evenodd" fill="black"/>
<path d="M568.29 58.9L567.14 57.97 569.73 54.1 571.58 55.62 568.29 58.9Z"
fill-rule="evenodd" fill="black"/>
<path d="M569.73 54.1L571.58 55.62 571.58 55.62 569.73 54.1Z"
fill-rule="evenodd" fill="black"/>
<path d="M567.14 57.97L569.73 54.1 569.73 54.1 567.14 57.97Z"
fill-rule="evenodd" fill="black"/>
<path d="M568.29 58.9L567.14 57.97 567.14 57.97 568.29 58.9Z"
fill-rule="evenodd" fill="black"/>
<path d="M571.58 55.62L568.29 58.9 568.29 58.9 571.58 55.62Z"
fill-rule="evenodd" fill="black"/>
<path d="M569.73 54.1L567.62 52.97 565.84 57.27 567.14 57.97 569.73 54.1Z"
fill-rule="evenodd" fill="black"/>
<path d="M567.14 57.97L565.84 57.27 567.62 52.97 569.73 54.1 567.14 57.97Z"
fill-rule="evenodd" fill="black"/>
<path d="M567.62 52.97L569.73 54.1 569.73 54.1 567.62 52.97Z"
fill-rule="evenodd" fill="black"/>
<path d="M565.84 57.27L567.62 52.97 567.62 52.97 565.84 57.27Z"
fill-rule="evenodd" fill="black"/>
<path d="M567.14 57.97L565.84 57.27 565.84 57.27 567.14 57.97Z"
fill-rule="evenodd" fill="black"/>
<path d="M569.73 54.1L567.14 57.97 567.14 57.97 569.73 54.1Z"
fill-rule="evenodd" fill="black"/>
<path d="M567.62 52.97L565.33 52.28 564.42 56.84 565.84 57.27 567.62 52.97Z"
fill-rule="evenodd" fill="black"/>
<path d="M565.84 57.27L564.42 56.84 565.33 52.28 567.62 52.97 565.84 57.27Z"
fill-rule="evenodd" fill="black"/>
<path d="M565.33 52.28L567.62 52.97 567.62 52.97 565.33 52.28Z"
fill-rule="evenodd" fill="black"/>
<path d="M564.42 56.84L565.33 52.28 565.33 52.28 564.42 56.84Z"
fill-rule="evenodd" fill="black"/>
<path d="M565.84 57.27L564.42 56.84 564.42 56.84 565.84 57.27Z"
fill-rule="evenodd" fill="black"/>
<path d="M567.62 52.97L565.84 57.27 565.84 57.27 567.62 52.97Z"
fill-rule="evenodd" fill="black"/>
<path d="M565.33 52.28L562.95 52.04 562.95 56.69 564.42 56.84 565.33 52.28Z"
fill-rule="evenodd" fill="black"/>
<path d="M564.42 56.84L562.95 56.69 562.95 52.04 565.33 52.28 564.42 56.84Z"
fill-rule="evenodd" fill="black"/>
<path d="M562.95 52.04L565.33 52.28 565.33 52.28 562.95 52.04Z"
fill-rule="evenodd" fill="black"/>
<path d="M562.95 56.69L562.95 52.04 562.95 52.04 562.95 56.69Z"
fill-rule="evenodd" fill="black"/>
<path d="M564.42 56.84L562.95 56.69 562.95 56.69 564.42 56.84Z"
fill-rule="evenodd" fill="black"/>
<path d="M565.33 52.28L564.42 56.84 564.42 56.84 565.33 52.28Z"
fill-rule="evenodd" fill="black"/>
<path d="M545.81 544.86L546.03 547.58 550.62 546.85 550.46 544.86 545.81 544.86Z"
fill-rule="evenodd" fill="black"/>
<path d="M550.46 544.86L550.62 546.85 546.03 547.58 545.81 544.86 550.46 544.86Z"
fill-rule="evenodd" fill="black"/>
<path d="M546.03 547.58L545.81 544.86 545.81 544.86 546.03 547.58Z"
fill-rule="evenodd" fill="black"/>
<path d="M550.62 546.85L546.03 547.58 546.03 547.58 550.62 546.85Z"
fill-rule="evenodd" fill="black"/>
<path d="M550.46 544.86L550.62 546.85 550.62 546.85 550.46 544.86Z"
fill-rule="evenodd" fill="black"/>
<path d="M545.81 544.86L550.46 544.86 550.46 544.86 545.81 544.86Z"
fill-rule="evenodd" fill="black"/>
<path d="M546.03 547.58L546.67 550.24 551.09 548.78 550.62 546.85 546.03 547.58Z"
fill-rule="evenodd" fill="black"/>
<path d="M550.62 546.85L551.09 548.78 546.67 550.24 546.03 547.58 550.62 546.85Z"
fill-rule="evenodd" fill="black"/>
<path d="M546.67 550.24L546.03 547.58 546.03 547.58 546.67 550.24Z"
fill-rule="evenodd" fill="black"/>
<path d="M551.09 548.78L546.67 550.24 546.67 550.24 551.09 548.78Z"
fill-rule="evenodd" fill="black"/>
<path d="M550.62 546.85L551.09 548.78 551.09 548.78 550.62 546.85Z"
fill-rule="evenodd" fill="black"/>
<path d="M546.03 547.58L550.62 546.85 550.62 546.85 546.03 547.58Z"
fill-rule="evenodd" fill="black"/>
<path d="M546.67 550.24L547.73 552.75 551.86 550.61 551.09 548.78 546.67 550.24Z"
fill-rule="evenodd" fill="black"/>
<path d="M551.09 548.78L551.86 550.61 547.73 552.75 546.67 550.24 551.09 548.78Z"
fill-rule="evenodd" fill="black"/>
<path d="M547.73 552.75L546.67 550.24 546.67 550.24 547.73 552.75Z"
fill-rule="evenodd" fill="black"/>
<path d="M551.86 550.61L547.73 552.75 547.73 552.75 551.86 550.61Z"
fill-rule="evenodd" fill="black"/>
<path d="M551.09 548.78L551.86 550.61 551.86 550.61 551.09 548.78Z"
fill-rule="evenodd" fill="black"/>
<path d="M546.67 550.24L551.09 548.78 551.09 548.78 546.67 550.24Z"
fill-rule="evenodd" fill="black"/>
<path d="M547.73 552.75L549.18 555.07 552.91 552.3 551.86 550.61 547.73 552.75Z"
fill-rule="evenodd" fill="black"/>
<path d="M551.86 550.61L552.91 552.3 549.18 555.07 547.73 552.75 551.86 550.61Z"
fill-rule="evenodd" fill="black"/>
<path d="M549.18 555.07L547.73 552.75 547.73 552.75 549.18 555.07Z"
fill-rule="evenodd" fill="black"/>
<path d="M552.91 552.3L549.18 555.07 549.18 555.07 552.91 552.3Z"
fill-rule="evenodd" fill="black"/>
<path d="M551.86 550.61L552.91 552.3 552.91 552.3 551.86 550.61Z"
fill-rule="evenodd" fill="black"/>
<path d="M547.73 552.75L551.86 550.61 551.86 550.61 547.73 552.75Z"
fill-rule="evenodd" fill="black"/>
<path d="M549.18 555.07L550.98 557.13 554.22 553.8 552.91 552.3 549.18 555.07Z"
fill-rule="evenodd" fill="black"/>
<path d="M552.91 552.3L554.22 553.8 550.98 557.13 549.18 555.07 552.91 552.3Z"
fill-rule="evenodd" fill="black"/>
<path d="M550.98 557.13L549.18 555.07 549.18 555.07 550.98 557.13Z"
fill-rule="evenodd" fill="black"/>
<path d="M554.22 553.8L550.98 557.13 550.98 557.13 554.22 553.8Z"
fill-rule="evenodd" fill="black"/>
<path d="M552.91 552.3L554.22 553.8 554.22 553.8 552.91 552.3Z"
fill-rule="evenodd" fill="black"/>
<path d="M549.18 555.07L552.91 552.3 552.91 552.3 549.18 555.07Z"
fill-rule="evenodd" fill="black"/>
<path d="M550.98 557.13L553.08 558.88 555.75 555.08 554.22 553.8 550.98 557.13Z"
fill-rule="evenodd" fill="black"/>
<path d="M554.22 553.8L555.75 555.08 553.08 558.88 550.98 557.13 554.22 553.8Z"
fill-rule="evenodd" fill="black"/>
<path d="M553.08 558.88L550.98 557.13 550.98 557.13 553.08 558.88Z"
fill-rule="evenodd" fill="black"/>
<path d="M555.75 555.08L553.08 558.88 553.08 558.88 555.75 555.08Z"
fill-rule="evenodd" fill="black"/>
<path d="M554.22 553.8L555.75 555.08 555.75 555.08 554.22 553.8Z"
fill-rule="evenodd" fill="black"/>
<path d="M550.98 557.13L554.22 553.8 554.22 553.8 550.98 557.13Z"
fill-rule="evenodd" fill="black"/>
<path d="M553.08 558.88L555.43 560.27 557.47 556.09 555.75 555.08 553.08 558.88Z"
fill-rule="evenodd" fill="black"/>
<path d="M555.75 555.08L557.47 556.09 555.43 560.27 553.08 558.88 555.75 555.08Z"
fill-rule="evenodd" fill="black"/>
<path d="M555.43 560.27L553.08 558.88 553.08 558.88 555.43 560.27Z"
fill-rule="evenodd" fill="black"/>
<path d="M557.47 556.09L555.43 560.27 555.43 560.27 557.47 556.09Z"
fill-rule="evenodd" fill="black"/>
<path d="M555.75 555.08L557.47 556.09 557.47 556.09 555.75 555.08Z"
fill-rule="evenodd" fill="black"/>
<path d="M553.08 558.88L555.75 555.08 555.75 555.08 553.08 558.88Z"
fill-rule="evenodd" fill="black"/>
<path d="M555.43 560.27L557.97 561.27 559.32 556.82 557.47 556.09 555.43 560.27Z"
fill-rule="evenodd" fill="black"/>
<path d="M557.47 556.09L559.32 556.82 557.97 561.27 555.43 560.27 557.47 556.09Z"
fill-rule="evenodd" fill="black"/>
<path d="M557.97 561.27L555.43 560.27 555.43 560.27 557.97 561.27Z"
fill-rule="evenodd" fill="black"/>
<path d="M559.32 556.82L557.97 561.27 557.97 561.27 559.32 556.82Z"
fill-rule="evenodd" fill="black"/>
<path d="M557.47 556.09L559.32 556.82 559.32 556.82 557.47 556.09Z"
fill-rule="evenodd" fill="black"/>
<path d="M555.43 560.27L557.47 556.09 557.47 556.09 555.43 560.27Z"
fill-rule="evenodd" fill="black"/>
<path d="M557.97 561.27L560.64 561.85 561.27 557.24 559.32 556.82 557.97 561.27Z"
fill-rule="evenodd" fill="black"/>
<path d="M559.32 556.82L561.27 557.24 560.64 561.85 557.97 561.27 559.32 556.82Z"
fill-rule="evenodd" fill="black"/>
<path d="M560.64 561.85L557.97 561.27 557.97 561.27 560.64 561.85Z"
fill-rule="evenodd" fill="black"/>
<path d="M561.27 557.24L560.64 561.85 560.64 561.85 561.27 557.24Z"
fill-rule="evenodd" fill="black"/>
<path d="M559.32 556.82L561.27 557.24 561.27 557.24 559.32 556.82Z"
fill-rule="evenodd" fill="black"/>
<path d="M557.97 561.27L559.32 556.82 559.32 556.82 557.97 561.27Z"
fill-rule="evenodd" fill="black"/>
<path d="M560.64 561.85L563.37 562 563.25 557.35 561.27 557.24 560.64 561.85Z"
fill-rule="evenodd" fill="black"/>
<path d="M561.27 557.24L563.25 557.35 563.37 562 560.64 561.85 561.27 557.24Z"
fill-rule="evenodd" fill="black"/>
<path d="M563.37 562L560.64 561.85 560.64 561.85 563.37 562Z"
fill-rule="evenodd" fill="black"/>
<path d="M563.25 557.35L563.37 562 563.37 562 563.25 557.35Z"
fill-rule="evenodd" fill="black"/>
<path d="M561.27 557.24L563.25 557.35 563.25 557.35 561.27 557.24Z"
fill-rule="evenodd" fill="black"/>
<path d="M560.64 561.85L561.27 557.24 561.27 557.24 560.64 561.85Z"
fill-rule="evenodd" fill="black"/>
<path d="M563.37 562L566.08 561.72 565.23 557.15 563.25 557.35 563.37 562Z"
fill-rule="evenodd" fill="black"/>
<path d="M563.25 557.35L565.23 557.15 566.08 561.72 563.37 562 563.25 557.35Z"
fill-rule="evenodd" fill="black"/>
<path d="M566.08 561.72L563.37 562 563.37 562 566.08 561.72Z"
fill-rule="evenodd" fill="black"/>
<path d="M565.23 557.15L566.08 561.72 566.08 561.72 565.23 557.15Z"
fill-rule="evenodd" fill="black"/>
<path d="M563.25 557.35L565.23 557.15 565.23 557.15 563.25 557.35Z"
fill-rule="evenodd" fill="black"/>
<path d="M563.37 562L563.25 557.35 563.25 557.35 563.37 562Z"
fill-rule="evenodd" fill="black"/>
<path d="M566.08 561.72L568.72 561 567.15 556.63 565.23 557.15 566.08 561.72Z"
fill-rule="evenodd" fill="black"/>
<path d="M565.23 557.15L567.15 556.63 568.72 561 566.08 561.72 565.23 557.15Z"
fill-rule="evenodd" fill="black"/>
<path d="M568.72 561L566.08 561.72 566.08 561.72 568.72 561Z"
fill-rule="evenodd" fill="black"/>
<path d="M567.15 556.63L568.72 561 568.72 561 567.15 556.63Z"
fill-rule="evenodd" fill="black"/>
<path d="M565.23 557.15L567.15 556.63 567.15 556.63 565.23 557.15Z"
fill-rule="evenodd" fill="black"/>
<path d="M566.08 561.72L565.23 557.15 565.23 557.15 566.08 561.72Z"
fill-rule="evenodd" fill="black"/>
<path d="M568.72 561L571.21 559.88 568.97 555.81 567.15 556.63 568.72 561Z"
fill-rule="evenodd" fill="black"/>
<path d="M567.15 556.63L568.97 555.81 571.21 559.88 568.72 561 567.15 556.63Z"
fill-rule="evenodd" fill="black"/>
<path d="M571.21 559.88L568.72 561 568.72 561 571.21 559.88Z"
fill-rule="evenodd" fill="black"/>
<path d="M568.97 555.81L571.21 559.88 571.21 559.88 568.97 555.81Z"
fill-rule="evenodd" fill="black"/>
<path d="M567.15 556.63L568.97 555.81 568.97 555.81 567.15 556.63Z"
fill-rule="evenodd" fill="black"/>
<path d="M568.72 561L567.15 556.63 567.15 556.63 568.72 561Z"
fill-rule="evenodd" fill="black"/>
<path d="M571.21 559.88L573.49 558.38 570.63 554.71 568.97 555.81 571.21 559.88Z"
fill-rule="evenodd" fill="black"/>
<path d="M568.97 555.81L570.63 554.71 573.49 558.38 571.21 559.88 568.97 555.81Z"
fill-rule="evenodd" fill="black"/>
<path d="M573.49 558.38L571.21 559.88 571.21 559.88 573.49 558.38Z"
fill-rule="evenodd" fill="black"/>
<path d="M570.63 554.71L573.49 558.38 573.49 558.38 570.63 554.71Z"
fill-rule="evenodd" fill="black"/>
<path d="M568.97 555.81L570.63 554.71 570.63 554.71 568.97 555.81Z"
fill-rule="evenodd" fill="black"/>
<path d="M571.21 559.88L568.97 555.81 568.97 555.81 571.21 559.88Z"
fill-rule="evenodd" fill="black"/>
<path d="M573.49 558.38L575.5 556.53 572.1 553.37 570.63 554.71 573.49 558.38Z"
fill-rule="evenodd" fill="black"/>
<path d="M570.63 554.71L572.1 553.37 575.5 556.53 573.49 558.38 570.63 554.71Z"
fill-rule="evenodd" fill="black"/>
<path d="M575.5 556.53L573.49 558.38 573.49 558.38 575.5 556.53Z"
fill-rule="evenodd" fill="black"/>
<path d="M572.1 553.37L575.5 556.53 575.5 556.53 572.1 553.37Z"
fill-rule="evenodd" fill="black"/>
<path d="M570.63 554.71L572.1 553.37 572.1 553.37 570.63 554.71Z"
fill-rule="evenodd" fill="black"/>
<path d="M573.49 558.38L570.63 554.71 570.63 554.71 573.49 558.38Z"
fill-rule="evenodd" fill="black"/>
<path d="M575.5 556.53L577.2 554.39 573.33 551.8 572.1 553.37 575.5 556.53Z"
fill-rule="evenodd" fill="black"/>
<path d="M572.1 553.37L573.33 551.8 577.2 554.39 575.5 556.53 572.1 553.37Z"
fill-rule="evenodd" fill="black"/>
<path d="M577.2 554.39L575.5 556.53 575.5 556.53 577.2 554.39Z"
fill-rule="evenodd" fill="black"/>
<path d="M573.33 551.8L577.2 554.39 577.2 554.39 573.33 551.8Z"
fill-rule="evenodd" fill="black"/>
<path d="M572.1 553.37L573.33 551.8 573.33 551.8 572.1 553.37Z"
fill-rule="evenodd" fill="black"/>
<path d="M575.5 556.53L572.1 553.37 572.1 553.37 575.5 556.53Z"
fill-rule="evenodd" fill="black"/>
<path d="M577.2 554.39L578.53 552 574.3 550.07 573.33 551.8 577.2 554.39Z"
fill-rule="evenodd" fill="black"/>
<path d="M573.33 551.8L574.3 550.07 578.53 552 577.2 554.39 573.33 551.8Z"
fill-rule="evenodd" fill="black"/>
<path d="M578.53 552L577.2 554.39 577.2 554.39 578.53 552Z"
fill-rule="evenodd" fill="black"/>
<path d="M574.3 550.07L578.53 552 578.53 552 574.3 550.07Z"
fill-rule="evenodd" fill="black"/>
<path d="M573.33 551.8L574.3 550.07 574.3 550.07 573.33 551.8Z"
fill-rule="evenodd" fill="black"/>
<path d="M577.2 554.39L573.33 551.8 573.33 551.8 577.2 554.39Z"
fill-rule="evenodd" fill="black"/>
<path d="M578.53 552L579.47 549.44 574.98 548.2 574.3 550.07 578.53 552Z"
fill-rule="evenodd" fill="black"/>
<path d="M574.3 550.07L574.98 548.2 579.47 549.44 578.53 552 574.3 550.07Z"
fill-rule="evenodd" fill="black"/>
<path d="M579.47 549.44L578.53 552 578.53 552 579.47 549.44Z"
fill-rule="evenodd" fill="black"/>
<path d="M574.98 548.2L579.47 549.44 579.47 549.44 574.98 548.2Z"
fill-rule="evenodd" fill="black"/>
<path d="M574.3 550.07L574.98 548.2 574.98 548.2 574.3 550.07Z"
fill-rule="evenodd" fill="black"/>
<path d="M578.53 552L574.3 550.07 574.3 550.07 578.53 552Z"
fill-rule="evenodd" fill="black"/>
<path d="M579.47 549.44L579.98 546.75 575.36 546.24 574.98 548.2 579.47 549.44Z"
fill-rule="evenodd" fill="black"/>
<path d="M574.98 548.2L575.36 546.24 579.98 546.75 579.47 549.44 574.98 548.2Z"
fill-rule="evenodd" fill="black"/>
<path d="M579.98 546.75L579.47 549.44 579.47 549.44 579.98 546.75Z"
fill-rule="evenodd" fill="black"/>
<path d="M575.36 546.24L579.98 546.75 579.98 546.75 575.36 546.24Z"
fill-rule="evenodd" fill="black"/>
<path d="M574.98 548.2L575.36 546.24 575.36 546.24 574.98 548.2Z"
fill-rule="evenodd" fill="black"/>
<path d="M579.47 549.44L574.98 548.2 574.98 548.2 579.47 549.44Z"
fill-rule="evenodd" fill="black"/>
<path d="M579.98 546.75L580.07 544.03 575.42 544.26 575.36 546.24 579.98 546.75Z"
fill-rule="evenodd" fill="black"/>
<path d="M575.36 546.24L575.42 544.26 580.07 544.03 579.98 546.75 575.36 546.24Z"
fill-rule="evenodd" fill="black"/>
<path d="M580.07 544.03L579.98 546.75 579.98 546.75 580.07 544.03Z"
fill-rule="evenodd" fill="black"/>
<path d="M575.42 544.26L580.07 544.03 580.07 544.03 575.42 544.26Z"
fill-rule="evenodd" fill="black"/>
<path d="M575.36 546.24L575.42 544.26 575.42 544.26 575.36 546.24Z"
fill-rule="evenodd" fill="black"/>
<path d="M579.98 546.75L575.36 546.24 575.36 546.24 579.98 546.75Z"
fill-rule="evenodd" fill="black"/>
<path d="M580.07 544.03L579.72 541.32 575.17 542.29 575.42 544.26 580.07 544.03Z"
fill-rule="evenodd" fill="black"/>
<path d="M575.42 544.26L575.17 542.29 579.72 541.32 580.07 544.03 575.42 544.26Z"
fill-rule="evenodd" fill="black"/>
<path d="M579.72 541.32L580.07 544.03 580.07 544.03 579.72 541.32Z"
fill-rule="evenodd" fill="black"/>
<path d="M575.17 542.29L579.72 541.32 579.72 541.32 575.17 542.29Z"
fill-rule="evenodd" fill="black"/>
<path d="M575.42 544.26L575.17 542.29 575.17 542.29 575.42 544.26Z"
fill-rule="evenodd" fill="black"/>
<path d="M580.07 544.03L575.42 544.26 575.42 544.26 580.07 544.03Z"
fill-rule="evenodd" fill="black"/>
<path d="M579.72 541.32L578.94 538.71 574.6 540.38 575.17 542.29 579.72 541.32Z"
fill-rule="evenodd" fill="black"/>
<path d="M575.17 542.29L574.6 540.38 578.94 538.71 579.72 541.32 575.17 542.29Z"
fill-rule="evenodd" fill="black"/>
<path d="M578.94 538.71L579.72 541.32 579.72 541.32 578.94 538.71Z"
fill-rule="evenodd" fill="black"/>
<path d="M574.6 540.38L578.94 538.71 578.94 538.71 574.6 540.38Z"
fill-rule="evenodd" fill="black"/>
<path d="M575.17 542.29L574.6 540.38 574.6 540.38 575.17 542.29Z"
fill-rule="evenodd" fill="black"/>
<path d="M579.72 541.32L575.17 542.29 575.17 542.29 579.72 541.32Z"
fill-rule="evenodd" fill="black"/>
<path d="M578.94 538.71L577.76 536.25 573.74 538.59 574.6 540.38 578.94 538.71Z"
fill-rule="evenodd" fill="black"/>
<path d="M574.6 540.38L573.74 538.59 577.76 536.25 578.94 538.71 574.6 540.38Z"
fill-rule="evenodd" fill="black"/>
<path d="M577.76 536.25L578.94 538.71 578.94 538.71 577.76 536.25Z"
fill-rule="evenodd" fill="black"/>
<path d="M573.74 538.59L577.76 536.25 577.76 536.25 573.74 538.59Z"
fill-rule="evenodd" fill="black"/>
<path d="M574.6 540.38L573.74 538.59 573.74 538.59 574.6 540.38Z"
fill-rule="evenodd" fill="black"/>
<path d="M578.94 538.71L574.6 540.38 574.6 540.38 578.94 538.71Z"
fill-rule="evenodd" fill="black"/>
<path d="M577.76 536.25L576.21 534.01 572.61 536.96 573.74 538.59 577.76 536.25Z"
fill-rule="evenodd" fill="black"/>
<path d="M573.74 538.59L572.61 536.96 576.21 534.01 577.76 536.25 573.74 538.59Z"
fill-rule="evenodd" fill="black"/>
<path d="M576.21 534.01L577.76 536.25 577.76 536.25 576.21 534.01Z"
fill-rule="evenodd" fill="black"/>
<path d="M572.61 536.96L576.21 534.01 576.21 534.01 572.61 536.96Z"
fill-rule="evenodd" fill="black"/>
<path d="M573.74 538.59L572.61 536.96 572.61 536.96 573.74 538.59Z"
fill-rule="evenodd" fill="black"/>
<path d="M577.76 536.25L573.74 538.59 573.74 538.59 577.76 536.25Z"
fill-rule="evenodd" fill="black"/>
<path d="M576.21 534.01L574.32 532.05 571.23 535.52 572.61 536.96 576.21 534.01Z"
fill-rule="evenodd" fill="black"/>
<path d="M572.61 536.96L571.23 535.52 574.32 532.05 576.21 534.01 572.61 536.96Z"
fill-rule="evenodd" fill="black"/>
<path d="M574.32 532.05L576.21 534.01 576.21 534.01 574.32 532.05Z"
fill-rule="evenodd" fill="black"/>
<path d="M571.23 535.52L574.32 532.05 574.32 532.05 571.23 535.52Z"
fill-rule="evenodd" fill="black"/>
<path d="M572.61 536.96L571.23 535.52 571.23 535.52 572.61 536.96Z"
fill-rule="evenodd" fill="black"/>
<path d="M576.21 534.01L572.61 536.96 572.61 536.96 576.21 534.01Z"
fill-rule="evenodd" fill="black"/>
<path d="M574.32 532.05L572.14 530.4 569.65 534.33 571.23 535.52 574.32 532.05Z"
fill-rule="evenodd" fill="black"/>
<path d="M571.23 535.52L569.65 534.33 572.14 530.4 574.32 532.05 571.23 535.52Z"
fill-rule="evenodd" fill="black"/>
<path d="M572.14 530.4L574.32 532.05 574.32 532.05 572.14 530.4Z"
fill-rule="evenodd" fill="black"/>
<path d="M569.65 534.33L572.14 530.4 572.14 530.4 569.65 534.33Z"
fill-rule="evenodd" fill="black"/>
<path d="M571.23 535.52L569.65 534.33 569.65 534.33 571.23 535.52Z"
fill-rule="evenodd" fill="black"/>
<path d="M574.32 532.05L571.23 535.52 571.23 535.52 574.32 532.05Z"
fill-rule="evenodd" fill="black"/>
<path d="M572.14 530.4L569.73 529.13 567.89 533.4 569.65 534.33 572.14 530.4Z"
fill-rule="evenodd" fill="black"/>
<path d="M569.65 534.33L567.89 533.4 569.73 529.13 572.14 530.4 569.65 534.33Z"
fill-rule="evenodd" fill="black"/>
<path d="M569.73 529.13L572.14 530.4 572.14 530.4 569.73 529.13Z"
fill-rule="evenodd" fill="black"/>
<path d="M567.89 533.4L569.73 529.13 569.73 529.13 567.89 533.4Z"
fill-rule="evenodd" fill="black"/>
<path d="M569.65 534.33L567.89 533.4 567.89 533.4 569.65 534.33Z"
fill-rule="evenodd" fill="black"/>
<path d="M572.14 530.4L569.65 534.33 569.65 534.33 572.14 530.4Z"
fill-rule="evenodd" fill="black"/>
<path d="M569.73 529.13L567.15 528.25 566.01 532.76 567.89 533.4 569.73 529.13Z"
fill-rule="evenodd" fill="black"/>
<path d="M567.89 533.4L566.01 532.76 567.15 528.25 569.73 529.13 567.89 533.4Z"
fill-rule="evenodd" fill="black"/>
<path d="M567.15 528.25L569.73 529.13 569.73 529.13 567.15 528.25Z"
fill-rule="evenodd" fill="black"/>
<path d="M566.01 532.76L567.15 528.25 567.15 528.25 566.01 532.76Z"
fill-rule="evenodd" fill="black"/>
<path d="M567.89 533.4L566.01 532.76 566.01 532.76 567.89 533.4Z"
fill-rule="evenodd" fill="black"/>
<path d="M569.73 529.13L567.89 533.4 567.89 533.4 569.73 529.13Z"
fill-rule="evenodd" fill="black"/>
<path d="M567.15 528.25L564.46 527.8 564.05 532.43 566.01 532.76 567.15 528.25Z"
fill-rule="evenodd" fill="black"/>
<path d="M566.01 532.76L564.05 532.43 564.46 527.8 567.15 528.25 566.01 532.76Z"
fill-rule="evenodd" fill="black"/>
<path d="M564.46 527.8L567.15 528.25 567.15 528.25 564.46 527.8Z"
fill-rule="evenodd" fill="black"/>
<path d="M564.05 532.43L564.46 527.8 564.46 527.8 564.05 532.43Z"
fill-rule="evenodd" fill="black"/>
<path d="M566.01 532.76L564.05 532.43 564.05 532.43 566.01 532.76Z"
fill-rule="evenodd" fill="black"/>
<path d="M567.15 528.25L566.01 532.76 566.01 532.76 567.15 528.25Z"
fill-rule="evenodd" fill="black"/>
<path d="M564.46 527.8L561.74 527.77 562.06 532.41 564.05 532.43 564.46 527.8Z"
fill-rule="evenodd" fill="black"/>
<path d="M564.05 532.43L562.06 532.41 561.74 527.77 564.46 527.8 564.05 532.43Z"
fill-rule="evenodd" fill="black"/>
<path d="M561.74 527.77L564.46 527.8 564.46 527.8 561.74 527.77Z"
fill-rule="evenodd" fill="black"/>
<path d="M562.06 532.41L561.74 527.77 561.74 527.77 562.06 532.41Z"
fill-rule="evenodd" fill="black"/>
<path d="M564.05 532.43L562.06 532.41 562.06 532.41 564.05 532.43Z"
fill-rule="evenodd" fill="black"/>
<path d="M564.46 527.8L564.05 532.43 564.05 532.43 564.46 527.8Z"
fill-rule="evenodd" fill="black"/>
<path d="M561.74 527.77L559.04 528.18 560.1 532.71 562.06 532.41 561.74 527.77Z"
fill-rule="evenodd" fill="black"/>
<path d="M562.06 532.41L560.1 532.71 559.04 528.18 561.74 527.77 562.06 532.41Z"
fill-rule="evenodd" fill="black"/>
<path d="M559.04 528.18L561.74 527.77 561.74 527.77 559.04 528.18Z"
fill-rule="evenodd" fill="black"/>
<path d="M560.1 532.71L559.04 528.18 559.04 528.18 560.1 532.71Z"
fill-rule="evenodd" fill="black"/>
<path d="M562.06 532.41L560.1 532.71 560.1 532.71 562.06 532.41Z"
fill-rule="evenodd" fill="black"/>
<path d="M561.74 527.77L562.06 532.41 562.06 532.41 561.74 527.77Z"
fill-rule="evenodd" fill="black"/>
<path d="M559.04 528.18L556.44 529.01 558.21 533.31 560.1 532.71 559.04 528.18Z"
fill-rule="evenodd" fill="black"/>
<path d="M560.1 532.71L558.21 533.31 556.44 529.01 559.04 528.18 560.1 532.71Z"
fill-rule="evenodd" fill="black"/>
<path d="M556.44 529.01L559.04 528.18 559.04 528.18 556.44 529.01Z"
fill-rule="evenodd" fill="black"/>
<path d="M558.21 533.31L556.44 529.01 556.44 529.01 558.21 533.31Z"
fill-rule="evenodd" fill="black"/>
<path d="M560.1 532.71L558.21 533.31 558.21 533.31 560.1 532.71Z"
fill-rule="evenodd" fill="black"/>
<path d="M559.04 528.18L560.1 532.71 560.1 532.71 559.04 528.18Z"
fill-rule="evenodd" fill="black"/>
<path d="M556.44 529.01L554.01 530.24 556.44 534.21 558.21 533.31 556.44 529.01Z"
fill-rule="evenodd" fill="black"/>
<path d="M558.21 533.31L556.44 534.21 554.01 530.24 556.44 529.01 558.21 533.31Z"
fill-rule="evenodd" fill="black"/>
<path d="M554.01 530.24L556.44 529.01 556.44 529.01 554.01 530.24Z"
fill-rule="evenodd" fill="black"/>
<path d="M556.44 534.21L554.01 530.24 554.01 530.24 556.44 534.21Z"
fill-rule="evenodd" fill="black"/>
<path d="M558.21 533.31L556.44 534.21 556.44 534.21 558.21 533.31Z"
fill-rule="evenodd" fill="black"/>
<path d="M556.44 529.01L558.21 533.31 558.21 533.31 556.44 529.01Z"
fill-rule="evenodd" fill="black"/>
<path d="M554.01 530.24L551.81 531.85 554.83 535.38 556.44 534.21 554.01 530.24Z"
fill-rule="evenodd" fill="black"/>
<path d="M556.44 534.21L554.83 535.38 551.81 531.85 554.01 530.24 556.44 534.21Z"
fill-rule="evenodd" fill="black"/>
<path d="M551.81 531.85L554.01 530.24 554.01 530.24 551.81 531.85Z"
fill-rule="evenodd" fill="black"/>
<path d="M554.83 535.38L551.81 531.85 551.81 531.85 554.83 535.38Z"
fill-rule="evenodd" fill="black"/>
<path d="M556.44 534.21L554.83 535.38 554.83 535.38 556.44 534.21Z"
fill-rule="evenodd" fill="black"/>
<path d="M554.01 530.24L556.44 534.21 556.44 534.21 554.01 530.24Z"
fill-rule="evenodd" fill="black"/>
<path d="M551.81 531.85L549.88 533.78 553.43 536.79 554.83 535.38 551.81 531.85Z"
fill-rule="evenodd" fill="black"/>
<path d="M554.83 535.38L553.43 536.79 549.88 533.78 551.81 531.85 554.83 535.38Z"
fill-rule="evenodd" fill="black"/>
<path d="M549.88 533.78L551.81 531.85 551.81 531.85 549.88 533.78Z"
fill-rule="evenodd" fill="black"/>
<path d="M553.43 536.79L549.88 533.78 549.88 533.78 553.43 536.79Z"
fill-rule="evenodd" fill="black"/>
<path d="M554.83 535.38L553.43 536.79 553.43 536.79 554.83 535.38Z"
fill-rule="evenodd" fill="black"/>
<path d="M551.81 531.85L554.83 535.38 554.83 535.38 551.81 531.85Z"
fill-rule="evenodd" fill="black"/>
<path d="M549.88 533.78L548.29 535.99 552.27 538.4 553.43 536.79 549.88 533.78Z"
fill-rule="evenodd" fill="black"/>
<path d="M553.43 536.79L552.27 538.4 548.29 535.99 549.88 533.78 553.43 536.79Z"
fill-rule="evenodd" fill="black"/>
<path d="M548.29 535.99L549.88 533.78 549.88 533.78 548.29 535.99Z"
fill-rule="evenodd" fill="black"/>
<path d="M552.27 538.4L548.29 535.99 548.29 535.99 552.27 538.4Z"
fill-rule="evenodd" fill="black"/>
<path d="M553.43 536.79L552.27 538.4 552.27 538.4 553.43 536.79Z"
fill-rule="evenodd" fill="black"/>
<path d="M549.88 533.78L553.43 536.79 553.43 536.79 549.88 533.78Z"
fill-rule="evenodd" fill="black"/>
<path d="M548.29 535.99L547.07 538.43 551.37 540.17 552.27 538.4 548.29 535.99Z"
fill-rule="evenodd" fill="black"/>
<path d="M552.27 538.4L551.37 540.17 547.07 538.43 548.29 535.99 552.27 538.4Z"
fill-rule="evenodd" fill="black"/>
<path d="M547.07 538.43L548.29 535.99 548.29 535.99 547.07 538.43Z"
fill-rule="evenodd" fill="black"/>
<path d="M551.37 540.17L547.07 538.43 547.07 538.43 551.37 540.17Z"
fill-rule="evenodd" fill="black"/>
<path d="M552.27 538.4L551.37 540.17 551.37 540.17 552.27 538.4Z"
fill-rule="evenodd" fill="black"/>
<path d="M548.29 535.99L552.27 538.4 552.27 538.4 548.29 535.99Z"
fill-rule="evenodd" fill="black"/>
<path d="M547.07 538.43L546.25 541.03 550.78 542.07 551.37 540.17 547.07 538.43Z"
fill-rule="evenodd" fill="black"/>
<path d="M551.37 540.17L550.78 542.07 546.25 541.03 547.07 538.43 551.37 540.17Z"
fill-rule="evenodd" fill="black"/>
<path d="M546.25 541.03L547.07 538.43 547.07 538.43 546.25 541.03Z"
fill-rule="evenodd" fill="black"/>
<path d="M550.78 542.07L546.25 541.03 546.25 541.03 550.78 542.07Z"
fill-rule="evenodd" fill="black"/>
<path d="M551.37 540.17L550.78 542.07 550.78 542.07 551.37 540.17Z"
fill-rule="evenodd" fill="black"/>
<path d="M547.07 538.43L551.37 540.17 551.37 540.17 547.07 538.43Z"
fill-rule="evenodd" fill="black"/>
<path d="M546.25 541.03L545.85 543.73 550.49 544.03 550.78 542.07 546.25 541.03Z"
fill-rule="evenodd" fill="black"/>
<path d="M550.78 542.07L550.49 544.03 545.85 543.73 546.25 541.03 550.78 542.07Z"
fill-rule="evenodd" fill="black"/>
<path d="M545.85 543.73L546.25 541.03 546.25 541.03 545.85 543.73Z"
fill-rule="evenodd" fill="black"/>
<path d="M550.49 544.03L545.85 543.73 545.85 543.73 550.49 544.03Z"
fill-rule="evenodd" fill="black"/>
<path d="M550.78 542.07L550.49 544.03 550.49 544.03 550.78 542.07Z"
fill-rule="evenodd" fill="black"/>
<path d="M546.25 541.03L550.78 542.07 550.78 542.07 546.25 541.03Z"
fill-rule="evenodd" fill="black"/>
<path d="M545.85 543.73L545.88 546.45 550.51 546.02 550.49 544.03 545.85 543.73Z"
fill-rule="evenodd" fill="black"/>
<path d="M550.49 544.03L550.51 546.02 545.88 546.45 545.85 543.73 550.49 544.03Z"
fill-rule="evenodd" fill="black"/>
<path d="M545.88 546.45L545.85 543.73 545.85 543.73 545.88 546.45Z"
fill-rule="evenodd" fill="black"/>
<path d="M550.51 546.02L545.88 546.45 545.88 546.45 550.51 546.02Z"
fill-rule="evenodd" fill="black"/>
<path d="M550.49 544.03L550.51 546.02 550.51 546.02 550.49 544.03Z"
fill-rule="evenodd" fill="black"/>
<path d="M545.85 543.73L550.49 544.03 550.49 544.03 545.85 543.73Z"
fill-rule="evenodd" fill="black"/>
</svg>
