<?xml version="1.0" encoding="UTF-8"?>
<svg xmlns="http://www.w3.org/2000/svg" width="800.000" height="600.000" viewBox="0.0 0.0 800.000 600.000" version="1.1">
  <title>Produce by Acme CAD Converter</title>
  <desc>Produce by Acme CAD Converter</desc>
<path d="M402.32 598.3L397.68 598.3 397.68 566.58 402.32 566.58 402.32 598.3Z"
fill-rule="evenodd" fill="black"/>
<path d="M402.32 598.3L397.68 598.3 397.68 598.3 402.32 598.3Z"
fill-rule="evenodd" fill="black"/>
<path d="M402.32 598.3L397.68 598.3 397.68 566.58 402.32 566.58 402.32 598.3Z"
fill-rule="evenodd" fill="black"/>
<path d="M397.68 566.58L402.32 566.58 402.32 566.58 397.68 566.58Z"
fill-rule="evenodd" fill="black"/>
<path d="M402.32 598.3L402.32 566.58 402.32 566.58 402.32 598.3Z"
fill-rule="evenodd" fill="black"/>
<path d="M397.68 598.3L397.68 566.58 397.68 566.58 397.68 598.3Z"
fill-rule="evenodd" fill="black"/>
<path d="M378.47 548.34L381.76 545.05 400 563.3 400 569.87 378.47 548.34Z"
fill-rule="evenodd" fill="black"/>
<path d="M378.47 548.34L381.76 545.05 381.76 545.05 378.47 548.34Z"
fill-rule="evenodd" fill="black"/>
<path d="M378.47 548.34L381.76 545.05 400 563.3 400 569.87 378.47 548.34Z"
fill-rule="evenodd" fill="black"/>
<path d="M400 563.3L400 569.87 400 569.87 400 563.3Z"
fill-rule="evenodd" fill="black"/>
<path d="M378.47 548.34L400 569.87 400 569.87 378.47 548.34Z"
fill-rule="evenodd" fill="black"/>
<path d="M381.76 545.05L400 563.3 400 563.3 381.76 545.05Z"
fill-rule="evenodd" fill="black"/>
<path d="M400 569.87L400 563.3 418.24 545.05 421.53 548.34 400 569.87Z"
fill-rule="evenodd" fill="black"/>
<path d="M400 569.87L400 563.3 400 563.3 400 569.87Z"
fill-rule="evenodd" fill="black"/>
<path d="M400 569.87L400 563.3 418.24 545.05 421.53 548.34 400 569.87Z"
fill-rule="evenodd" fill="black"/>
<path d="M418.24 545.05L421.53 548.34 421.53 548.34 418.24 545.05Z"
fill-rule="evenodd" fill="black"/>
<path d="M400 569.87L421.53 548.34 421.53 548.34 400 569.87Z"
fill-rule="evenodd" fill="black"/>
<path d="M400 563.3L418.24 545.05 418.24 545.05 400 563.3Z"
fill-rule="evenodd" fill="black"/>
<path d="M378.47 535.08L381.76 531.8 400 550.04 400 556.61 378.47 535.08Z"
fill-rule="evenodd" fill="black"/>
<path d="M378.47 535.08L381.76 531.8 381.76 531.8 378.47 535.08Z"
fill-rule="evenodd" fill="black"/>
<path d="M378.47 535.08L381.76 531.8 400 550.04 400 556.61 378.47 535.08Z"
fill-rule="evenodd" fill="black"/>
<path d="M400 550.04L400 556.61 400 556.61 400 550.04Z"
fill-rule="evenodd" fill="black"/>
<path d="M378.47 535.08L400 556.61 400 556.61 378.47 535.08Z"
fill-rule="evenodd" fill="black"/>
<path d="M381.76 531.8L400 550.04 400 550.04 381.76 531.8Z"
fill-rule="evenodd" fill="black"/>
<path d="M400 556.61L400 550.04 418.24 531.8 421.53 535.08 400 556.61Z"
fill-rule="evenodd" fill="black"/>
<path d="M400 556.61L400 550.04 400 550.04 400 556.61Z"
fill-rule="evenodd" fill="black"/>
<path d="M400 556.61L400 550.04 418.24 531.8 421.53 535.08 400 556.61Z"
fill-rule="evenodd" fill="black"/>
<path d="M418.24 531.8L421.53 535.08 421.53 535.08 418.24 531.8Z"
fill-rule="evenodd" fill="black"/>
<path d="M400 556.61L421.53 535.08 421.53 535.08 400 556.61Z"
fill-rule="evenodd" fill="black"/>
<path d="M400 550.04L418.24 531.8 418.24 531.8 400 550.04Z"
fill-rule="evenodd" fill="black"/>
<path d="M402.32 553.33L397.68 553.33 397.68 46.67 402.32 46.67 402.32 553.33Z"
fill-rule="evenodd" fill="black"/>
<path d="M402.32 553.33L397.68 553.33 397.68 553.33 402.32 553.33Z"
fill-rule="evenodd" fill="black"/>
<path d="M402.32 553.33L397.68 553.33 397.68 46.67 402.32 46.67 402.32 553.33Z"
fill-rule="evenodd" fill="black"/>
<path d="M397.68 46.67L402.32 46.67 402.32 46.67 397.68 46.67Z"
fill-rule="evenodd" fill="black"/>
<path d="M402.32 553.33L402.32 46.67 402.32 46.67 402.32 553.33Z"
fill-rule="evenodd" fill="black"/>
<path d="M397.68 553.33L397.68 46.67 397.68 46.67 397.68 553.33Z"
fill-rule="evenodd" fill="black"/>
<path d="M397.68 1.7L402.32 1.7 402.32 33.42 397.68 33.42 397.68 1.7Z"
fill-rule="evenodd" fill="black"/>
<path d="M397.68 1.7L402.32 1.7 402.32 1.7 397.68 1.7Z"
fill-rule="evenodd" fill="black"/>
<path d="M397.68 1.7L402.32 1.7 402.32 33.42 397.68 33.42 397.68 1.7Z"
fill-rule="evenodd" fill="black"/>
<path d="M402.32 33.42L397.68 33.42 397.68 33.42 402.32 33.42Z"
fill-rule="evenodd" fill="black"/>
<path d="M397.68 1.7L397.68 33.42 397.68 33.42 397.68 1.7Z"
fill-rule="evenodd" fill="black"/>
<path d="M402.32 1.7L402.32 33.42 402.32 33.42 402.32 1.7Z"
fill-rule="evenodd" fill="black"/>
<path d="M381.76 54.95L378.47 51.66 400 30.13 400 36.7 381.76 54.95Z"
fill-rule="evenodd" fill="black"/>
<path d="M381.76 54.95L378.47 51.66 378.47 51.66 381.76 54.95Z"
fill-rule="evenodd" fill="black"/>
<path d="M381.76 54.95L378.47 51.66 400 30.13 400 36.7 381.76 54.95Z"
fill-rule="evenodd" fill="black"/>
<path d="M400 30.13L400 36.7 400 36.7 400 30.13Z"
fill-rule="evenodd" fill="black"/>
<path d="M381.76 54.95L400 36.7 400 36.7 381.76 54.95Z"
fill-rule="evenodd" fill="black"/>
<path d="M378.47 51.66L400 30.13 400 30.13 378.47 51.66Z"
fill-rule="evenodd" fill="black"/>
<path d="M400 36.7L400 30.13 421.53 51.66 418.24 54.95 400 36.7Z"
fill-rule="evenodd" fill="black"/>
<path d="M400 36.7L400 30.13 400 30.13 400 36.7Z"
fill-rule="evenodd" fill="black"/>
<path d="M400 36.7L400 30.13 421.53 51.66 418.24 54.95 400 36.7Z"
fill-rule="evenodd" fill="black"/>
<path d="M421.53 51.66L418.24 54.95 418.24 54.95 421.53 51.66Z"
fill-rule="evenodd" fill="black"/>
<path d="M400 36.7L418.24 54.95 418.24 54.95 400 36.7Z"
fill-rule="evenodd" fill="black"/>
<path d="M400 30.13L421.53 51.66 421.53 51.66 400 30.13Z"
fill-rule="evenodd" fill="black"/>
<path d="M381.76 68.2L378.47 64.92 400 43.39 400 49.96 381.76 68.2Z"
fill-rule="evenodd" fill="black"/>
<path d="M381.76 68.2L378.47 64.92 378.47 64.92 381.76 68.2Z"
fill-rule="evenodd" fill="black"/>
<path d="M381.76 68.2L378.47 64.92 400 43.39 400 49.96 381.76 68.2Z"
fill-rule="evenodd" fill="black"/>
<path d="M400 43.39L400 49.96 400 49.96 400 43.39Z"
fill-rule="evenodd" fill="black"/>
<path d="M381.76 68.2L400 49.96 400 49.96 381.76 68.2Z"
fill-rule="evenodd" fill="black"/>
<path d="M378.47 64.92L400 43.39 400 43.39 378.47 64.92Z"
fill-rule="evenodd" fill="black"/>
<path d="M400 49.96L400 43.39 421.53 64.92 418.24 68.2 400 49.96Z"
fill-rule="evenodd" fill="black"/>
<path d="M400 49.96L400 43.39 400 43.39 400 49.96Z"
fill-rule="evenodd" fill="black"/>
<path d="M400 49.96L400 43.39 421.53 64.92 418.24 68.2 400 49.96Z"
fill-rule="evenodd" fill="black"/>
<path d="M421.53 64.92L418.24 68.2 418.24 68.2 421.53 64.92Z"
fill-rule="evenodd" fill="black"/>
<path d="M400 49.96L418.24 68.2 418.24 68.2 400 49.96Z"
fill-rule="evenodd" fill="black"/>
<path d="M400 43.39L421.53 64.92 421.53 64.92 400 43.39Z"
fill-rule="evenodd" fill="black"/>
</svg>
