<?xml version="1.0" encoding="UTF-8"?>
<svg xmlns="http://www.w3.org/2000/svg" width="800.000" height="600.000" viewBox="0.0 0.0 800.000 600.000" version="1.1">
  <title>Produce by Acme CAD Converter</title>
  <desc>Produce by Acme CAD Converter</desc>
<path d="M415.19 598.3L410.54 598.3 410.54 566.58 415.19 566.58 415.19 598.3Z"
fill-rule="evenodd" fill="black"/>
<path d="M415.19 598.3L410.54 598.3 410.54 598.3 415.19 598.3Z"
fill-rule="evenodd" fill="black"/>
<path d="M415.19 598.3L410.54 598.3 410.54 566.58 415.19 566.58 415.19 598.3Z"
fill-rule="evenodd" fill="black"/>
<path d="M410.54 566.58L415.19 566.58 415.19 566.58 410.54 566.58Z"
fill-rule="evenodd" fill="black"/>
<path d="M415.19 598.3L415.19 566.58 415.19 566.58 415.19 598.3Z"
fill-rule="evenodd" fill="black"/>
<path d="M410.54 598.3L410.54 566.58 410.54 566.58 410.54 598.3Z"
fill-rule="evenodd" fill="black"/>
<path d="M391.33 548.34L394.62 545.05 412.86 563.3 412.86 569.87 391.33 548.34Z"
fill-rule="evenodd" fill="black"/>
<path d="M391.33 548.34L394.62 545.05 394.62 545.05 391.33 548.34Z"
fill-rule="evenodd" fill="black"/>
<path d="M391.33 548.34L394.62 545.05 412.86 563.3 412.86 569.87 391.33 548.34Z"
fill-rule="evenodd" fill="black"/>
<path d="M412.86 563.3L412.86 569.87 412.86 569.87 412.86 563.3Z"
fill-rule="evenodd" fill="black"/>
<path d="M391.33 548.34L412.86 569.87 412.86 569.87 391.33 548.34Z"
fill-rule="evenodd" fill="black"/>
<path d="M394.62 545.05L412.86 563.3 412.86 563.3 394.62 545.05Z"
fill-rule="evenodd" fill="black"/>
<path d="M412.86 569.87L412.86 563.3 431.11 545.05 434.39 548.34 412.86 569.87Z"
fill-rule="evenodd" fill="black"/>
<path d="M412.86 569.87L412.86 563.3 412.86 563.3 412.86 569.87Z"
fill-rule="evenodd" fill="black"/>
<path d="M412.86 569.87L412.86 563.3 431.11 545.05 434.39 548.34 412.86 569.87Z"
fill-rule="evenodd" fill="black"/>
<path d="M431.11 545.05L434.39 548.34 434.39 548.34 431.11 545.05Z"
fill-rule="evenodd" fill="black"/>
<path d="M412.86 569.87L434.39 548.34 434.39 548.34 412.86 569.87Z"
fill-rule="evenodd" fill="black"/>
<path d="M412.86 563.3L431.11 545.05 431.11 545.05 412.86 563.3Z"
fill-rule="evenodd" fill="black"/>
<path d="M391.33 535.08L394.62 531.8 412.86 550.04 412.86 556.61 391.33 535.08Z"
fill-rule="evenodd" fill="black"/>
<path d="M391.33 535.08L394.62 531.8 394.62 531.8 391.33 535.08Z"
fill-rule="evenodd" fill="black"/>
<path d="M391.33 535.08L394.62 531.8 412.86 550.04 412.86 556.61 391.33 535.08Z"
fill-rule="evenodd" fill="black"/>
<path d="M412.86 550.04L412.86 556.61 412.86 556.61 412.86 550.04Z"
fill-rule="evenodd" fill="black"/>
<path d="M391.33 535.08L412.86 556.61 412.86 556.61 391.33 535.08Z"
fill-rule="evenodd" fill="black"/>
<path d="M394.62 531.8L412.86 550.04 412.86 550.04 394.62 531.8Z"
fill-rule="evenodd" fill="black"/>
<path d="M412.86 556.61L412.86 550.04 431.11 531.8 434.39 535.08 412.86 556.61Z"
fill-rule="evenodd" fill="black"/>
<path d="M412.86 556.61L412.86 550.04 412.86 550.04 412.86 556.61Z"
fill-rule="evenodd" fill="black"/>
<path d="M412.86 556.61L412.86 550.04 431.11 531.8 434.39 535.08 412.86 556.61Z"
fill-rule="evenodd" fill="black"/>
<path d="M431.11 531.8L434.39 535.08 434.39 535.08 431.11 531.8Z"
fill-rule="evenodd" fill="black"/>
<path d="M412.86 556.61L434.39 535.08 434.39 535.08 412.86 556.61Z"
fill-rule="evenodd" fill="black"/>
<path d="M412.86 550.04L431.11 531.8 431.11 531.8 412.86 550.04Z"
fill-rule="evenodd" fill="black"/>
<path d="M415.19 553.33L410.54 553.33 410.54 431.31 415.19 430.06 415.19 553.33Z"
fill-rule="evenodd" fill="black"/>
<path d="M415.19 553.33L410.54 553.33 410.54 553.33 415.19 553.33Z"
fill-rule="evenodd" fill="black"/>
<path d="M415.19 553.33L410.54 553.33 410.54 431.31 415.19 430.06 415.19 553.33Z"
fill-rule="evenodd" fill="black"/>
<path d="M410.54 431.31L415.19 430.06 415.19 430.06 410.54 431.31Z"
fill-rule="evenodd" fill="black"/>
<path d="M415.19 553.33L415.19 430.06 415.19 430.06 415.19 553.33Z"
fill-rule="evenodd" fill="black"/>
<path d="M410.54 553.33L410.54 431.31 410.54 431.31 410.54 553.33Z"
fill-rule="evenodd" fill="black"/>
<path d="M415.19 430.06L410.54 431.31 364.93 352.3 368.95 349.98 415.19 430.06Z"
fill-rule="evenodd" fill="black"/>
<path d="M415.19 430.06L410.54 431.31 410.54 431.31 415.19 430.06Z"
fill-rule="evenodd" fill="black"/>
<path d="M415.19 430.06L410.54 431.31 364.93 352.3 368.95 349.98 415.19 430.06Z"
fill-rule="evenodd" fill="black"/>
<path d="M364.93 352.3L368.95 349.98 368.95 349.98 364.93 352.3Z"
fill-rule="evenodd" fill="black"/>
<path d="M415.19 430.06L368.95 349.98 368.95 349.98 415.19 430.06Z"
fill-rule="evenodd" fill="black"/>
<path d="M410.54 431.31L364.93 352.3 364.93 352.3 410.54 431.31Z"
fill-rule="evenodd" fill="black"/>
<path d="M415.19 361.08L410.54 361.08 410.54 46.67 415.19 46.67 415.19 361.08Z"
fill-rule="evenodd" fill="black"/>
<path d="M415.19 361.08L410.54 361.08 410.54 361.08 415.19 361.08Z"
fill-rule="evenodd" fill="black"/>
<path d="M415.19 361.08L410.54 361.08 410.54 46.67 415.19 46.67 415.19 361.08Z"
fill-rule="evenodd" fill="black"/>
<path d="M410.54 46.67L415.19 46.67 415.19 46.67 410.54 46.67Z"
fill-rule="evenodd" fill="black"/>
<path d="M415.19 361.08L415.19 46.67 415.19 46.67 415.19 361.08Z"
fill-rule="evenodd" fill="black"/>
<path d="M410.54 361.08L410.54 46.67 410.54 46.67 410.54 361.08Z"
fill-rule="evenodd" fill="black"/>
<path d="M395.3 153.17L390.65 148.53 435.07 148.53 430.43 153.17 395.3 153.17Z"
fill-rule="evenodd" fill="black"/>
<path d="M395.3 153.17L390.65 148.53 390.65 148.53 395.3 153.17Z"
fill-rule="evenodd" fill="black"/>
<path d="M395.3 153.17L390.65 148.53 435.07 148.53 430.43 153.17 395.3 153.17Z"
fill-rule="evenodd" fill="black"/>
<path d="M435.07 148.53L430.43 153.17 430.43 153.17 435.07 148.53Z"
fill-rule="evenodd" fill="black"/>
<path d="M395.3 153.17L430.43 153.17 430.43 153.17 395.3 153.17Z"
fill-rule="evenodd" fill="black"/>
<path d="M390.65 148.53L435.07 148.53 435.07 148.53 390.65 148.53Z"
fill-rule="evenodd" fill="black"/>
<path d="M430.43 153.17L435.07 148.53 435.07 252.61 430.43 247.96 430.43 153.17Z"
fill-rule="evenodd" fill="black"/>
<path d="M430.43 153.17L435.07 148.53 435.07 148.53 430.43 153.17Z"
fill-rule="evenodd" fill="black"/>
<path d="M430.43 153.17L435.07 148.53 435.07 252.61 430.43 247.96 430.43 153.17Z"
fill-rule="evenodd" fill="black"/>
<path d="M435.07 252.61L430.43 247.96 430.43 247.96 435.07 252.61Z"
fill-rule="evenodd" fill="black"/>
<path d="M430.43 153.17L430.43 247.96 430.43 247.96 430.43 153.17Z"
fill-rule="evenodd" fill="black"/>
<path d="M435.07 148.53L435.07 252.61 435.07 252.61 435.07 148.53Z"
fill-rule="evenodd" fill="black"/>
<path d="M430.43 247.96L435.07 252.61 390.65 252.61 395.3 247.96 430.43 247.96Z"
fill-rule="evenodd" fill="black"/>
<path d="M430.43 247.96L435.07 252.61 435.07 252.61 430.43 247.96Z"
fill-rule="evenodd" fill="black"/>
<path d="M430.43 247.96L435.07 252.61 390.65 252.61 395.3 247.96 430.43 247.96Z"
fill-rule="evenodd" fill="black"/>
<path d="M390.65 252.61L395.3 247.96 395.3 247.96 390.65 252.61Z"
fill-rule="evenodd" fill="black"/>
<path d="M430.43 247.96L395.3 247.96 395.3 247.96 430.43 247.96Z"
fill-rule="evenodd" fill="black"/>
<path d="M435.07 252.61L390.65 252.61 390.65 252.61 435.07 252.61Z"
fill-rule="evenodd" fill="black"/>
<path d="M395.3 247.96L390.65 252.61 390.65 148.53 395.3 153.17 395.3 247.96Z"
fill-rule="evenodd" fill="black"/>
<path d="M395.3 247.96L390.65 252.61 390.65 252.61 395.3 247.96Z"
fill-rule="evenodd" fill="black"/>
<path d="M395.3 247.96L390.65 252.61 390.65 148.53 395.3 153.17 395.3 247.96Z"
fill-rule="evenodd" fill="black"/>
<path d="M390.65 148.53L395.3 153.17 395.3 153.17 390.65 148.53Z"
fill-rule="evenodd" fill="black"/>
<path d="M395.3 247.96L395.3 153.17 395.3 153.17 395.3 247.96Z"
fill-rule="evenodd" fill="black"/>
<path d="M390.65 252.61L390.65 148.53 390.65 148.53 390.65 252.61Z"
fill-rule="evenodd" fill="black"/>
<path d="M412.86 363.4L410.47 363.17 411.38 358.61 412.86 358.76 412.86 363.4Z"
fill-rule="evenodd" fill="black"/>
<path d="M412.86 358.76L411.38 358.61 410.47 363.17 412.86 363.4 412.86 358.76Z"
fill-rule="evenodd" fill="black"/>
<path d="M410.47 363.17L412.86 363.4 412.86 363.4 410.47 363.17Z"
fill-rule="evenodd" fill="black"/>
<path d="M411.38 358.61L410.47 363.17 410.47 363.17 411.38 358.61Z"
fill-rule="evenodd" fill="black"/>
<path d="M412.86 358.76L411.38 358.61 411.38 358.61 412.86 358.76Z"
fill-rule="evenodd" fill="black"/>
<path d="M412.86 363.4L412.86 358.76 412.86 358.76 412.86 363.4Z"
fill-rule="evenodd" fill="black"/>
<path d="M410.47 363.17L408.17 362.47 409.95 358.18 411.38 358.61 410.47 363.17Z"
fill-rule="evenodd" fill="black"/>
<path d="M411.38 358.61L409.95 358.18 408.17 362.47 410.47 363.17 411.38 358.61Z"
fill-rule="evenodd" fill="black"/>
<path d="M408.17 362.47L410.47 363.17 410.47 363.17 408.17 362.47Z"
fill-rule="evenodd" fill="black"/>
<path d="M409.95 358.18L408.17 362.47 408.17 362.47 409.95 358.18Z"
fill-rule="evenodd" fill="black"/>
<path d="M411.38 358.61L409.95 358.18 409.95 358.18 411.38 358.61Z"
fill-rule="evenodd" fill="black"/>
<path d="M410.47 363.17L411.38 358.61 411.38 358.61 410.47 363.17Z"
fill-rule="evenodd" fill="black"/>
<path d="M408.17 362.47L406.05 361.34 408.63 357.47 409.95 358.18 408.17 362.47Z"
fill-rule="evenodd" fill="black"/>
<path d="M409.95 358.18L408.63 357.47 406.05 361.34 408.17 362.47 409.95 358.18Z"
fill-rule="evenodd" fill="black"/>
<path d="M406.05 361.34L408.17 362.47 408.17 362.47 406.05 361.34Z"
fill-rule="evenodd" fill="black"/>
<path d="M408.63 357.47L406.05 361.34 406.05 361.34 408.63 357.47Z"
fill-rule="evenodd" fill="black"/>
<path d="M409.95 358.18L408.63 357.47 408.63 357.47 409.95 358.18Z"
fill-rule="evenodd" fill="black"/>
<path d="M408.17 362.47L409.95 358.18 409.95 358.18 408.17 362.47Z"
fill-rule="evenodd" fill="black"/>
<path d="M406.05 361.34L404.19 359.81 407.48 356.53 408.63 357.47 406.05 361.34Z"
fill-rule="evenodd" fill="black"/>
<path d="M408.63 357.47L407.48 356.53 404.19 359.81 406.05 361.34 408.63 357.47Z"
fill-rule="evenodd" fill="black"/>
<path d="M404.19 359.81L406.05 361.34 406.05 361.34 404.19 359.81Z"
fill-rule="evenodd" fill="black"/>
<path d="M407.48 356.53L404.19 359.81 404.19 359.81 407.48 356.53Z"
fill-rule="evenodd" fill="black"/>
<path d="M408.63 357.47L407.48 356.53 407.48 356.53 408.63 357.47Z"
fill-rule="evenodd" fill="black"/>
<path d="M406.05 361.34L408.63 357.47 408.63 357.47 406.05 361.34Z"
fill-rule="evenodd" fill="black"/>
<path d="M404.19 359.81L402.67 357.95 406.53 355.37 407.48 356.53 404.19 359.81Z"
fill-rule="evenodd" fill="black"/>
<path d="M407.48 356.53L406.53 355.37 402.67 357.95 404.19 359.81 407.48 356.53Z"
fill-rule="evenodd" fill="black"/>
<path d="M402.67 357.95L404.19 359.81 404.19 359.81 402.67 357.95Z"
fill-rule="evenodd" fill="black"/>
<path d="M406.53 355.37L402.67 357.95 402.67 357.95 406.53 355.37Z"
fill-rule="evenodd" fill="black"/>
<path d="M407.48 356.53L406.53 355.37 406.53 355.37 407.48 356.53Z"
fill-rule="evenodd" fill="black"/>
<path d="M404.19 359.81L407.48 356.53 407.48 356.53 404.19 359.81Z"
fill-rule="evenodd" fill="black"/>
<path d="M402.67 357.95L401.53 355.83 405.82 354.05 406.53 355.37 402.67 357.95Z"
fill-rule="evenodd" fill="black"/>
<path d="M406.53 355.37L405.82 354.05 401.53 355.83 402.67 357.95 406.53 355.37Z"
fill-rule="evenodd" fill="black"/>
<path d="M401.53 355.83L402.67 357.95 402.67 357.95 401.53 355.83Z"
fill-rule="evenodd" fill="black"/>
<path d="M405.82 354.05L401.53 355.83 401.53 355.83 405.82 354.05Z"
fill-rule="evenodd" fill="black"/>
<path d="M406.53 355.37L405.82 354.05 405.82 354.05 406.53 355.37Z"
fill-rule="evenodd" fill="black"/>
<path d="M402.67 357.95L406.53 355.37 406.53 355.37 402.67 357.95Z"
fill-rule="evenodd" fill="black"/>
<path d="M401.53 355.83L400.83 353.53 405.39 352.62 405.82 354.05 401.53 355.83Z"
fill-rule="evenodd" fill="black"/>
<path d="M405.82 354.05L405.39 352.62 400.83 353.53 401.53 355.83 405.82 354.05Z"
fill-rule="evenodd" fill="black"/>
<path d="M400.83 353.53L401.53 355.83 401.53 355.83 400.83 353.53Z"
fill-rule="evenodd" fill="black"/>
<path d="M405.39 352.62L400.83 353.53 400.83 353.53 405.39 352.62Z"
fill-rule="evenodd" fill="black"/>
<path d="M405.82 354.05L405.39 352.62 405.39 352.62 405.82 354.05Z"
fill-rule="evenodd" fill="black"/>
<path d="M401.53 355.83L405.82 354.05 405.82 354.05 401.53 355.83Z"
fill-rule="evenodd" fill="black"/>
<path d="M400.83 353.53L400.6 351.14 405.24 351.14 405.39 352.62 400.83 353.53Z"
fill-rule="evenodd" fill="black"/>
<path d="M405.39 352.62L405.24 351.14 400.6 351.14 400.83 353.53 405.39 352.62Z"
fill-rule="evenodd" fill="black"/>
<path d="M400.6 351.14L400.83 353.53 400.83 353.53 400.6 351.14Z"
fill-rule="evenodd" fill="black"/>
<path d="M405.24 351.14L400.6 351.14 400.6 351.14 405.24 351.14Z"
fill-rule="evenodd" fill="black"/>
<path d="M405.39 352.62L405.24 351.14 405.24 351.14 405.39 352.62Z"
fill-rule="evenodd" fill="black"/>
<path d="M400.83 353.53L405.39 352.62 405.39 352.62 400.83 353.53Z"
fill-rule="evenodd" fill="black"/>
<path d="M400.6 351.14L400.83 348.75 405.39 349.65 405.24 351.14 400.6 351.14Z"
fill-rule="evenodd" fill="black"/>
<path d="M405.24 351.14L405.39 349.65 400.83 348.75 400.6 351.14 405.24 351.14Z"
fill-rule="evenodd" fill="black"/>
<path d="M400.83 348.75L400.6 351.14 400.6 351.14 400.83 348.75Z"
fill-rule="evenodd" fill="black"/>
<path d="M405.39 349.65L400.83 348.75 400.83 348.75 405.39 349.65Z"
fill-rule="evenodd" fill="black"/>
<path d="M405.24 351.14L405.39 349.65 405.39 349.65 405.24 351.14Z"
fill-rule="evenodd" fill="black"/>
<path d="M400.6 351.14L405.24 351.14 405.24 351.14 400.6 351.14Z"
fill-rule="evenodd" fill="black"/>
<path d="M400.83 348.75L401.53 346.44 405.82 348.22 405.39 349.65 400.83 348.75Z"
fill-rule="evenodd" fill="black"/>
<path d="M405.39 349.65L405.82 348.22 401.53 346.44 400.83 348.75 405.39 349.65Z"
fill-rule="evenodd" fill="black"/>
<path d="M401.53 346.44L400.83 348.75 400.83 348.75 401.53 346.44Z"
fill-rule="evenodd" fill="black"/>
<path d="M405.82 348.22L401.53 346.44 401.53 346.44 405.82 348.22Z"
fill-rule="evenodd" fill="black"/>
<path d="M405.39 349.65L405.82 348.22 405.82 348.22 405.39 349.65Z"
fill-rule="evenodd" fill="black"/>
<path d="M400.83 348.75L405.39 349.65 405.39 349.65 400.83 348.75Z"
fill-rule="evenodd" fill="black"/>
<path d="M401.53 346.44L402.67 344.32 406.53 346.9 405.82 348.22 401.53 346.44Z"
fill-rule="evenodd" fill="black"/>
<path d="M405.82 348.22L406.53 346.9 402.67 344.32 401.53 346.44 405.82 348.22Z"
fill-rule="evenodd" fill="black"/>
<path d="M402.67 344.32L401.53 346.44 401.53 346.44 402.67 344.32Z"
fill-rule="evenodd" fill="black"/>
<path d="M406.53 346.9L402.67 344.32 402.67 344.32 406.53 346.9Z"
fill-rule="evenodd" fill="black"/>
<path d="M405.82 348.22L406.53 346.9 406.53 346.9 405.82 348.22Z"
fill-rule="evenodd" fill="black"/>
<path d="M401.53 346.44L405.82 348.22 405.82 348.22 401.53 346.44Z"
fill-rule="evenodd" fill="black"/>
<path d="M402.67 344.32L404.19 342.46 407.48 345.75 406.53 346.9 402.67 344.32Z"
fill-rule="evenodd" fill="black"/>
<path d="M406.53 346.9L407.48 345.75 404.19 342.46 402.67 344.32 406.53 346.9Z"
fill-rule="evenodd" fill="black"/>
<path d="M404.19 342.46L402.67 344.32 402.67 344.32 404.19 342.46Z"
fill-rule="evenodd" fill="black"/>
<path d="M407.48 345.75L404.19 342.46 404.19 342.46 407.48 345.75Z"
fill-rule="evenodd" fill="black"/>
<path d="M406.53 346.9L407.48 345.75 407.48 345.75 406.53 346.9Z"
fill-rule="evenodd" fill="black"/>
<path d="M402.67 344.32L406.53 346.9 406.53 346.9 402.67 344.32Z"
fill-rule="evenodd" fill="black"/>
<path d="M404.19 342.46L406.05 340.94 408.63 344.8 407.48 345.75 404.19 342.46Z"
fill-rule="evenodd" fill="black"/>
<path d="M407.48 345.75L408.63 344.8 406.05 340.94 404.19 342.46 407.48 345.75Z"
fill-rule="evenodd" fill="black"/>
<path d="M406.05 340.94L404.19 342.46 404.19 342.46 406.05 340.94Z"
fill-rule="evenodd" fill="black"/>
<path d="M408.63 344.8L406.05 340.94 406.05 340.94 408.63 344.8Z"
fill-rule="evenodd" fill="black"/>
<path d="M407.48 345.75L408.63 344.8 408.63 344.8 407.48 345.75Z"
fill-rule="evenodd" fill="black"/>
<path d="M404.19 342.46L407.48 345.75 407.48 345.75 404.19 342.46Z"
fill-rule="evenodd" fill="black"/>
<path d="M406.05 340.94L408.17 339.81 409.95 344.1 408.63 344.8 406.05 340.94Z"
fill-rule="evenodd" fill="black"/>
<path d="M408.63 344.8L409.95 344.1 408.17 339.81 406.05 340.94 408.63 344.8Z"
fill-rule="evenodd" fill="black"/>
<path d="M408.17 339.81L406.05 340.94 406.05 340.94 408.17 339.81Z"
fill-rule="evenodd" fill="black"/>
<path d="M409.95 344.1L408.17 339.81 408.17 339.81 409.95 344.1Z"
fill-rule="evenodd" fill="black"/>
<path d="M408.63 344.8L409.95 344.1 409.95 344.1 408.63 344.8Z"
fill-rule="evenodd" fill="black"/>
<path d="M406.05 340.94L408.63 344.8 408.63 344.8 406.05 340.94Z"
fill-rule="evenodd" fill="black"/>
<path d="M408.17 339.81L410.47 339.11 411.38 343.66 409.95 344.1 408.17 339.81Z"
fill-rule="evenodd" fill="black"/>
<path d="M409.95 344.1L411.38 343.66 410.47 339.11 408.17 339.81 409.95 344.1Z"
fill-rule="evenodd" fill="black"/>
<path d="M410.47 339.11L408.17 339.81 408.17 339.81 410.47 339.11Z"
fill-rule="evenodd" fill="black"/>
<path d="M411.38 343.66L410.47 339.11 410.47 339.11 411.38 343.66Z"
fill-rule="evenodd" fill="black"/>
<path d="M409.95 344.1L411.38 343.66 411.38 343.66 409.95 344.1Z"
fill-rule="evenodd" fill="black"/>
<path d="M408.17 339.81L409.95 344.1 409.95 344.1 408.17 339.81Z"
fill-rule="evenodd" fill="black"/>
<path d="M410.47 339.11L412.86 338.87 412.86 343.52 411.38 343.66 410.47 339.11Z"
fill-rule="evenodd" fill="black"/>
<path d="M411.38 343.66L412.86 343.52 412.86 338.87 410.47 339.11 411.38 343.66Z"
fill-rule="evenodd" fill="black"/>
<path d="M412.86 338.87L410.47 339.11 410.47 339.11 412.86 338.87Z"
fill-rule="evenodd" fill="black"/>
<path d="M412.86 343.52L412.86 338.87 412.86 338.87 412.86 343.52Z"
fill-rule="evenodd" fill="black"/>
<path d="M411.38 343.66L412.86 343.52 412.86 343.52 411.38 343.66Z"
fill-rule="evenodd" fill="black"/>
<path d="M410.47 339.11L411.38 343.66 411.38 343.66 410.47 339.11Z"
fill-rule="evenodd" fill="black"/>
<path d="M410.54 1.7L415.19 1.7 415.19 33.42 410.54 33.42 410.54 1.7Z"
fill-rule="evenodd" fill="black"/>
<path d="M410.54 1.7L415.19 1.7 415.19 1.7 410.54 1.7Z"
fill-rule="evenodd" fill="black"/>
<path d="M410.54 1.7L415.19 1.7 415.19 33.42 410.54 33.42 410.54 1.7Z"
fill-rule="evenodd" fill="black"/>
<path d="M415.19 33.42L410.54 33.42 410.54 33.42 415.19 33.42Z"
fill-rule="evenodd" fill="black"/>
<path d="M410.54 1.7L410.54 33.42 410.54 33.42 410.54 1.7Z"
fill-rule="evenodd" fill="black"/>
<path d="M415.19 1.7L415.19 33.42 415.19 33.42 415.19 1.7Z"
fill-rule="evenodd" fill="black"/>
<path d="M394.62 54.95L391.33 51.66 412.86 30.13 412.86 36.7 394.62 54.95Z"
fill-rule="evenodd" fill="black"/>
<path d="M394.62 54.95L391.33 51.66 391.33 51.66 394.62 54.95Z"
fill-rule="evenodd" fill="black"/>
<path d="M394.62 54.95L391.33 51.66 412.86 30.13 412.86 36.7 394.62 54.95Z"
fill-rule="evenodd" fill="black"/>
<path d="M412.86 30.13L412.86 36.7 412.86 36.7 412.86 30.13Z"
fill-rule="evenodd" fill="black"/>
<path d="M394.62 54.95L412.86 36.7 412.86 36.7 394.62 54.95Z"
fill-rule="evenodd" fill="black"/>
<path d="M391.33 51.66L412.86 30.13 412.86 30.13 391.33 51.66Z"
fill-rule="evenodd" fill="black"/>
<path d="M412.86 36.7L412.86 30.13 434.39 51.66 431.11 54.95 412.86 36.7Z"
fill-rule="evenodd" fill="black"/>
<path d="M412.86 36.7L412.86 30.13 412.86 30.13 412.86 36.7Z"
fill-rule="evenodd" fill="black"/>
<path d="M412.86 36.7L412.86 30.13 434.39 51.66 431.11 54.95 412.86 36.7Z"
fill-rule="evenodd" fill="black"/>
<path d="M434.39 51.66L431.11 54.95 431.11 54.95 434.39 51.66Z"
fill-rule="evenodd" fill="black"/>
<path d="M412.86 36.7L431.11 54.95 431.11 54.95 412.86 36.7Z"
fill-rule="evenodd" fill="black"/>
<path d="M412.86 30.13L434.39 51.66 434.39 51.66 412.86 30.13Z"
fill-rule="evenodd" fill="black"/>
<path d="M394.62 68.2L391.33 64.92 412.86 43.39 412.86 49.96 394.62 68.2Z"
fill-rule="evenodd" fill="black"/>
<path d="M394.62 68.2L391.33 64.92 391.33 64.92 394.62 68.2Z"
fill-rule="evenodd" fill="black"/>
<path d="M394.62 68.2L391.33 64.92 412.86 43.39 412.86 49.96 394.62 68.2Z"
fill-rule="evenodd" fill="black"/>
<path d="M412.86 43.39L412.86 49.96 412.86 49.96 412.86 43.39Z"
fill-rule="evenodd" fill="black"/>
<path d="M394.62 68.2L412.86 49.96 412.86 49.96 394.62 68.2Z"
fill-rule="evenodd" fill="black"/>
<path d="M391.33 64.92L412.86 43.39 412.86 43.39 391.33 64.92Z"
fill-rule="evenodd" fill="black"/>
<path d="M412.86 49.96L412.86 43.39 434.39 64.92 431.11 68.2 412.86 49.96Z"
fill-rule="evenodd" fill="black"/>
<path d="M412.86 49.96L412.86 43.39 412.86 43.39 412.86 49.96Z"
fill-rule="evenodd" fill="black"/>
<path d="M412.86 49.96L412.86 43.39 434.39 64.92 431.11 68.2 412.86 49.96Z"
fill-rule="evenodd" fill="black"/>
<path d="M434.39 64.92L431.11 68.2 431.11 68.2 434.39 64.92Z"
fill-rule="evenodd" fill="black"/>
<path d="M412.86 49.96L431.11 68.2 431.11 68.2 412.86 49.96Z"
fill-rule="evenodd" fill="black"/>
<path d="M412.86 43.39L434.39 64.92 434.39 64.92 412.86 43.39Z"
fill-rule="evenodd" fill="black"/>
</svg>
