<svg width="800" height="600" viewBox="0 0 800 600" fill="none" xmlns="http://www.w3.org/2000/svg">
<path fill-rule="evenodd" clip-rule="evenodd" d="M285.95 466.76H282.23V373.99L285.95 377.7V466.76Z" fill="black"/>
<path fill-rule="evenodd" clip-rule="evenodd" d="M285.95 466.76H282.23V373.99L285.95 377.7V466.76Z" fill="black"/>
<path fill-rule="evenodd" clip-rule="evenodd" d="M285.95 377.7L282.23 373.99H392.56V377.7H285.95Z" fill="black"/>
<path fill-rule="evenodd" clip-rule="evenodd" d="M285.95 377.7L282.23 373.99H392.56V377.7H285.95Z" fill="black"/>
<path fill-rule="evenodd" clip-rule="evenodd" d="M311.03 483.39V479.67H400V483.39H311.03Z" fill="black"/>
<path fill-rule="evenodd" clip-rule="evenodd" d="M311.03 483.39V479.67H400V483.39H311.03Z" fill="black"/>
<path fill-rule="evenodd" clip-rule="evenodd" d="M156.02 483.39V479.67H207.22L208.21 483.39H156.02Z" fill="black"/>
<path fill-rule="evenodd" clip-rule="evenodd" d="M156.02 483.39V479.67H207.22L208.21 483.39H156.02Z" fill="black"/>
<path fill-rule="evenodd" clip-rule="evenodd" d="M208.21 483.39L207.22 479.67L310.1 420.27L311.96 423.49L208.21 483.39Z" fill="black"/>
<path fill-rule="evenodd" clip-rule="evenodd" d="M208.21 483.39L207.22 479.67L310.1 420.27L311.96 423.49L208.21 483.39Z" fill="black"/>
<path fill-rule="evenodd" clip-rule="evenodd" d="M309.17 468.62H312.89V494.44H309.17V468.62Z" fill="black"/>
<path fill-rule="evenodd" clip-rule="evenodd" d="M309.17 468.62H312.89V494.44H309.17V468.62Z" fill="black"/>
<path fill-rule="evenodd" clip-rule="evenodd" d="M154.16 438.48H157.88V524.58H154.16V438.48Z" fill="black"/>
<path fill-rule="evenodd" clip-rule="evenodd" d="M154.16 438.48H157.88V524.58H154.16V438.48Z" fill="black"/>
<path fill-rule="evenodd" clip-rule="evenodd" d="M140.66 507.36H136.94V455.7H140.66V507.36Z" fill="black"/>
<path fill-rule="evenodd" clip-rule="evenodd" d="M140.66 507.36H136.94V455.7H140.66V507.36Z" fill="black"/>
<path fill-rule="evenodd" clip-rule="evenodd" d="M119.72 472.92H123.44V490.14H119.72V472.92Z" fill="black"/>
<path fill-rule="evenodd" clip-rule="evenodd" d="M119.72 472.92H123.44V490.14H119.72V472.92Z" fill="black"/>
<path fill-rule="evenodd" clip-rule="evenodd" d="M401.86 325.09H398.14V121.02H401.86V325.09Z" fill="black"/>
<path fill-rule="evenodd" clip-rule="evenodd" d="M401.86 325.09H398.14V121.02H401.86V325.09Z" fill="black"/>
<path fill-rule="evenodd" clip-rule="evenodd" d="M392.05 326.95V323.23H407.95V326.95H392.05Z" fill="black"/>
<path fill-rule="evenodd" clip-rule="evenodd" d="M392.05 326.95V323.23H407.95V326.95H392.05Z" fill="black"/>
<path fill-rule="evenodd" clip-rule="evenodd" d="M400 334.89L401.8 334.61L400.65 331.07L400 331.17V334.89Z" fill="black"/>
<path fill-rule="evenodd" clip-rule="evenodd" d="M400 331.17L400.65 331.07L401.8 334.61L400 334.89V331.17Z" fill="black"/>
<path fill-rule="evenodd" clip-rule="evenodd" d="M401.8 334.61L403.43 333.78L401.24 330.77L400.65 331.07L401.8 334.61Z" fill="black"/>
<path fill-rule="evenodd" clip-rule="evenodd" d="M400.65 331.07L401.24 330.77L403.43 333.78L401.8 334.61L400.65 331.07Z" fill="black"/>
<path fill-rule="evenodd" clip-rule="evenodd" d="M403.43 333.78L404.72 332.49L401.71 330.3L401.24 330.77L403.43 333.78Z" fill="black"/>
<path fill-rule="evenodd" clip-rule="evenodd" d="M401.24 330.77L401.71 330.3L404.72 332.49L403.43 333.78L401.24 330.77Z" fill="black"/>
<path fill-rule="evenodd" clip-rule="evenodd" d="M404.72 332.49L405.55 330.86L402.01 329.71L401.71 330.3L404.72 332.49Z" fill="black"/>
<path fill-rule="evenodd" clip-rule="evenodd" d="M401.71 330.3L402.01 329.71L405.55 330.86L404.72 332.49L401.71 330.3Z" fill="black"/>
<path fill-rule="evenodd" clip-rule="evenodd" d="M405.55 330.86L405.83 329.06H402.11L402.01 329.71L405.55 330.86Z" fill="black"/>
<path fill-rule="evenodd" clip-rule="evenodd" d="M402.01 329.71L402.11 329.06H405.83L405.55 330.86L402.01 329.71Z" fill="black"/>
<path fill-rule="evenodd" clip-rule="evenodd" d="M405.83 329.06L405.55 327.26L402.01 328.41L402.11 329.06H405.83Z" fill="black"/>
<path fill-rule="evenodd" clip-rule="evenodd" d="M402.11 329.06L402.01 328.41L405.55 327.26L405.83 329.06H402.11Z" fill="black"/>
<path fill-rule="evenodd" clip-rule="evenodd" d="M405.55 327.26L404.72 325.63L401.71 327.82L402.01 328.41L405.55 327.26Z" fill="black"/>
<path fill-rule="evenodd" clip-rule="evenodd" d="M402.01 328.41L401.71 327.82L404.72 325.63L405.55 327.26L402.01 328.41Z" fill="black"/>
<path fill-rule="evenodd" clip-rule="evenodd" d="M404.72 325.63L403.43 324.34L401.24 327.35L401.71 327.82L404.72 325.63Z" fill="black"/>
<path fill-rule="evenodd" clip-rule="evenodd" d="M401.71 327.82L401.24 327.35L403.43 324.34L404.72 325.63L401.71 327.82Z" fill="black"/>
<path fill-rule="evenodd" clip-rule="evenodd" d="M403.43 324.34L401.8 323.51L400.65 327.05L401.24 327.35L403.43 324.34Z" fill="black"/>
<path fill-rule="evenodd" clip-rule="evenodd" d="M401.24 327.35L400.65 327.05L401.8 323.51L403.43 324.34L401.24 327.35Z" fill="black"/>
<path fill-rule="evenodd" clip-rule="evenodd" d="M401.8 323.51L400 323.23V326.95L400.65 327.05L401.8 323.51Z" fill="black"/>
<path fill-rule="evenodd" clip-rule="evenodd" d="M400.65 327.05L400 326.95V323.23L401.8 323.51L400.65 327.05Z" fill="black"/>
<path fill-rule="evenodd" clip-rule="evenodd" d="M400 323.23L398.2 323.51L399.35 327.05L400 326.95V323.23Z" fill="black"/>
<path fill-rule="evenodd" clip-rule="evenodd" d="M400 326.95L399.35 327.05L398.2 323.51L400 323.23V326.95Z" fill="black"/>
<path fill-rule="evenodd" clip-rule="evenodd" d="M398.2 323.51L396.57 324.34L398.76 327.35L399.35 327.05L398.2 323.51Z" fill="black"/>
<path fill-rule="evenodd" clip-rule="evenodd" d="M399.35 327.05L398.76 327.35L396.57 324.34L398.2 323.51L399.35 327.05Z" fill="black"/>
<path fill-rule="evenodd" clip-rule="evenodd" d="M396.57 324.34L395.28 325.63L398.29 327.82L398.76 327.35L396.57 324.34Z" fill="black"/>
<path fill-rule="evenodd" clip-rule="evenodd" d="M398.76 327.35L398.29 327.82L395.28 325.63L396.57 324.34L398.76 327.35Z" fill="black"/>
<path fill-rule="evenodd" clip-rule="evenodd" d="M395.28 325.63L394.45 327.26L397.99 328.41L398.29 327.82L395.28 325.63Z" fill="black"/>
<path fill-rule="evenodd" clip-rule="evenodd" d="M398.29 327.82L397.99 328.41L394.45 327.26L395.28 325.63L398.29 327.82Z" fill="black"/>
<path fill-rule="evenodd" clip-rule="evenodd" d="M394.45 327.26L394.16 329.06H397.88L397.99 328.41L394.45 327.26Z" fill="black"/>
<path fill-rule="evenodd" clip-rule="evenodd" d="M397.99 328.41L397.88 329.06H394.16L394.45 327.26L397.99 328.41Z" fill="black"/>
<path fill-rule="evenodd" clip-rule="evenodd" d="M394.16 329.06L394.45 330.87L397.99 329.72L397.88 329.06H394.16Z" fill="black"/>
<path fill-rule="evenodd" clip-rule="evenodd" d="M397.88 329.06L397.99 329.72L394.45 330.87L394.16 329.06H397.88Z" fill="black"/>
<path fill-rule="evenodd" clip-rule="evenodd" d="M394.45 330.87L395.28 332.49L398.29 330.31L397.99 329.72L394.45 330.87Z" fill="black"/>
<path fill-rule="evenodd" clip-rule="evenodd" d="M397.99 329.72L398.29 330.31L395.28 332.49L394.45 330.87L397.99 329.72Z" fill="black"/>
<path fill-rule="evenodd" clip-rule="evenodd" d="M395.28 332.49L396.57 333.79L398.76 330.78L398.29 330.31L395.28 332.49Z" fill="black"/>
<path fill-rule="evenodd" clip-rule="evenodd" d="M398.29 330.31L398.76 330.78L396.57 333.79L395.28 332.49L398.29 330.31Z" fill="black"/>
<path fill-rule="evenodd" clip-rule="evenodd" d="M396.57 333.79L398.2 334.62L399.35 331.08L398.76 330.78L396.57 333.79Z" fill="black"/>
<path fill-rule="evenodd" clip-rule="evenodd" d="M398.76 330.78L399.35 331.08L398.2 334.62L396.57 333.79L398.76 330.78Z" fill="black"/>
<path fill-rule="evenodd" clip-rule="evenodd" d="M398.2 334.62L400 334.9V331.18L399.35 331.08L398.2 334.62Z" fill="black"/>
<path fill-rule="evenodd" clip-rule="evenodd" d="M399.35 331.08L400 331.18V334.9L398.2 334.62L399.35 331.08Z" fill="black"/>
<path fill-rule="evenodd" clip-rule="evenodd" d="M401.86 598.3H398.14V389.22L401.86 388.23V598.3Z" fill="black"/>
<path fill-rule="evenodd" clip-rule="evenodd" d="M401.86 598.3H398.14V389.22L401.86 388.23V598.3Z" fill="black"/>
<path fill-rule="evenodd" clip-rule="evenodd" d="M401.86 388.23L398.14 389.22L361.65 326.02L364.87 324.16L401.86 388.23Z" fill="black"/>
<path fill-rule="evenodd" clip-rule="evenodd" d="M401.86 388.23L398.14 389.22L361.65 326.02L364.87 324.16L401.86 388.23Z" fill="black"/>
<path fill-rule="evenodd" clip-rule="evenodd" d="M400 487.36L401.8 487.08L400.65 483.54L400 483.64V487.36Z" fill="black"/>
<path fill-rule="evenodd" clip-rule="evenodd" d="M400 483.64L400.65 483.54L401.8 487.08L400 487.36V483.64Z" fill="black"/>
<path fill-rule="evenodd" clip-rule="evenodd" d="M401.8 487.08L403.43 486.25L401.24 483.24L400.65 483.54L401.8 487.08Z" fill="black"/>
<path fill-rule="evenodd" clip-rule="evenodd" d="M400.65 483.54L401.24 483.24L403.43 486.25L401.8 487.08L400.65 483.54Z" fill="black"/>
<path fill-rule="evenodd" clip-rule="evenodd" d="M403.43 486.25L404.72 484.96L401.71 482.77L401.24 483.24L403.43 486.25Z" fill="black"/>
<path fill-rule="evenodd" clip-rule="evenodd" d="M401.24 483.24L401.71 482.77L404.72 484.96L403.43 486.25L401.24 483.24Z" fill="black"/>
<path fill-rule="evenodd" clip-rule="evenodd" d="M404.72 484.96L405.55 483.33L402.01 482.18L401.71 482.77L404.72 484.96Z" fill="black"/>
<path fill-rule="evenodd" clip-rule="evenodd" d="M401.71 482.77L402.01 482.18L405.55 483.33L404.72 484.96L401.71 482.77Z" fill="black"/>
<path fill-rule="evenodd" clip-rule="evenodd" d="M405.55 483.33L405.83 481.53H402.11L402.01 482.18L405.55 483.33Z" fill="black"/>
<path fill-rule="evenodd" clip-rule="evenodd" d="M402.01 482.18L402.11 481.53H405.83L405.55 483.33L402.01 482.18Z" fill="black"/>
<path fill-rule="evenodd" clip-rule="evenodd" d="M405.83 481.53L405.55 479.73L402.01 480.88L402.11 481.53H405.83Z" fill="black"/>
<path fill-rule="evenodd" clip-rule="evenodd" d="M402.11 481.53L402.01 480.88L405.55 479.73L405.83 481.53H402.11Z" fill="black"/>
<path fill-rule="evenodd" clip-rule="evenodd" d="M405.55 479.73L404.72 478.1L401.71 480.29L402.01 480.88L405.55 479.73Z" fill="black"/>
<path fill-rule="evenodd" clip-rule="evenodd" d="M402.01 480.88L401.71 480.29L404.72 478.1L405.55 479.73L402.01 480.88Z" fill="black"/>
<path fill-rule="evenodd" clip-rule="evenodd" d="M404.72 478.1L403.43 476.81L401.24 479.82L401.71 480.29L404.72 478.1Z" fill="black"/>
<path fill-rule="evenodd" clip-rule="evenodd" d="M401.71 480.29L401.24 479.82L403.43 476.81L404.72 478.1L401.71 480.29Z" fill="black"/>
<path fill-rule="evenodd" clip-rule="evenodd" d="M403.43 476.81L401.8 475.98L400.65 479.52L401.24 479.82L403.43 476.81Z" fill="black"/>
<path fill-rule="evenodd" clip-rule="evenodd" d="M401.24 479.82L400.65 479.52L401.8 475.98L403.43 476.81L401.24 479.82Z" fill="black"/>
<path fill-rule="evenodd" clip-rule="evenodd" d="M401.8 475.98L400 475.7V479.42L400.65 479.52L401.8 475.98Z" fill="black"/>
<path fill-rule="evenodd" clip-rule="evenodd" d="M400.65 479.52L400 479.42V475.7L401.8 475.98L400.65 479.52Z" fill="black"/>
<path fill-rule="evenodd" clip-rule="evenodd" d="M400 475.7L398.2 475.98L399.35 479.52L400 479.42V475.7Z" fill="black"/>
<path fill-rule="evenodd" clip-rule="evenodd" d="M400 479.42L399.35 479.52L398.2 475.98L400 475.7V479.42Z" fill="black"/>
<path fill-rule="evenodd" clip-rule="evenodd" d="M398.2 475.98L396.57 476.81L398.75 479.82L399.35 479.52L398.2 475.98Z" fill="black"/>
<path fill-rule="evenodd" clip-rule="evenodd" d="M399.35 479.52L398.75 479.82L396.57 476.81L398.2 475.98L399.35 479.52Z" fill="black"/>
<path fill-rule="evenodd" clip-rule="evenodd" d="M396.57 476.81L395.28 478.1L398.29 480.29L398.75 479.82L396.57 476.81Z" fill="black"/>
<path fill-rule="evenodd" clip-rule="evenodd" d="M398.75 479.82L398.29 480.29L395.28 478.1L396.57 476.81L398.75 479.82Z" fill="black"/>
<path fill-rule="evenodd" clip-rule="evenodd" d="M395.28 478.1L394.45 479.73L397.99 480.88L398.29 480.29L395.28 478.1Z" fill="black"/>
<path fill-rule="evenodd" clip-rule="evenodd" d="M398.29 480.29L397.99 480.88L394.45 479.73L395.28 478.1L398.29 480.29Z" fill="black"/>
<path fill-rule="evenodd" clip-rule="evenodd" d="M394.45 479.73L394.16 481.53H397.88L397.99 480.88L394.45 479.73Z" fill="black"/>
<path fill-rule="evenodd" clip-rule="evenodd" d="M397.99 480.88L397.88 481.53H394.16L394.45 479.73L397.99 480.88Z" fill="black"/>
<path fill-rule="evenodd" clip-rule="evenodd" d="M394.16 481.53L394.45 483.34L397.99 482.19L397.88 481.53H394.16Z" fill="black"/>
<path fill-rule="evenodd" clip-rule="evenodd" d="M397.88 481.53L397.99 482.19L394.45 483.34L394.16 481.53H397.88Z" fill="black"/>
<path fill-rule="evenodd" clip-rule="evenodd" d="M394.45 483.34L395.28 484.96L398.29 482.78L397.99 482.19L394.45 483.34Z" fill="black"/>
<path fill-rule="evenodd" clip-rule="evenodd" d="M397.99 482.19L398.29 482.78L395.28 484.96L394.45 483.34L397.99 482.19Z" fill="black"/>
<path fill-rule="evenodd" clip-rule="evenodd" d="M395.28 484.96L396.57 486.26L398.75 483.25L398.29 482.78L395.28 484.96Z" fill="black"/>
<path fill-rule="evenodd" clip-rule="evenodd" d="M398.29 482.78L398.75 483.25L396.57 486.26L395.28 484.96L398.29 482.78Z" fill="black"/>
<path fill-rule="evenodd" clip-rule="evenodd" d="M396.57 486.26L398.2 487.08L399.35 483.55L398.75 483.25L396.57 486.26Z" fill="black"/>
<path fill-rule="evenodd" clip-rule="evenodd" d="M398.75 483.25L399.35 483.55L398.2 487.08L396.57 486.26L398.75 483.25Z" fill="black"/>
<path fill-rule="evenodd" clip-rule="evenodd" d="M398.2 487.08L400 487.37V483.65L399.35 483.55L398.2 487.08Z" fill="black"/>
<path fill-rule="evenodd" clip-rule="evenodd" d="M399.35 483.55L400 483.65V487.37L398.2 487.08L399.35 483.55Z" fill="black"/>
<path fill-rule="evenodd" clip-rule="evenodd" d="M282.23 264.48H285.95V353.53L282.23 357.25V264.48Z" fill="black"/>
<path fill-rule="evenodd" clip-rule="evenodd" d="M282.23 264.48H285.95V353.53L282.23 357.25V264.48Z" fill="black"/>
<path fill-rule="evenodd" clip-rule="evenodd" d="M282.23 357.25L285.95 353.53H380.75V357.25H282.23Z" fill="black"/>
<path fill-rule="evenodd" clip-rule="evenodd" d="M282.23 357.25L285.95 353.53H380.75V357.25H282.23Z" fill="black"/>
<path fill-rule="evenodd" clip-rule="evenodd" d="M311.03 251.57V247.85H400V251.57H311.03Z" fill="black"/>
<path fill-rule="evenodd" clip-rule="evenodd" d="M311.03 251.57V247.85H400V251.57H311.03Z" fill="black"/>
<path fill-rule="evenodd" clip-rule="evenodd" d="M175 233.72V230H226.2L227.19 233.72H175Z" fill="black"/>
<path fill-rule="evenodd" clip-rule="evenodd" d="M172 233.72V230H223.2L224.19 233.72H172Z" fill="black"/>
<path fill-rule="evenodd" clip-rule="evenodd" d="M239.99 265.12L239 261.4L341.88 202L343.74 205.22L239.99 265.12Z" fill="black"/>
<path fill-rule="evenodd" clip-rule="evenodd" d="M177.99 339.12L177 335.4L279.88 276L281.74 279.22L177.99 339.12Z" fill="black"/>
<path fill-rule="evenodd" clip-rule="evenodd" d="M312.89 262.62H309.17V236.79H312.89V262.62Z" fill="black"/>
<path fill-rule="evenodd" clip-rule="evenodd" d="M312.89 262.62H309.17V236.79H312.89V262.62Z" fill="black"/>
<path fill-rule="evenodd" clip-rule="evenodd" d="M157.88 292.75H154.16V206.66H157.88V292.75Z" fill="black"/>
<path fill-rule="evenodd" clip-rule="evenodd" d="M157.88 292.75H154.16V206.66H157.88V292.75Z" fill="black"/>
<path fill-rule="evenodd" clip-rule="evenodd" d="M136.94 223.88H140.66V275.53H136.94V223.88Z" fill="black"/>
<path fill-rule="evenodd" clip-rule="evenodd" d="M136.94 223.88H140.66V275.53H136.94V223.88Z" fill="black"/>
<path fill-rule="evenodd" clip-rule="evenodd" d="M123.44 258.32H119.72V241.1H123.44V258.32Z" fill="black"/>
<path fill-rule="evenodd" clip-rule="evenodd" d="M123.44 258.32H119.72V241.1H123.44V258.32Z" fill="black"/>
<line x1="400" y1="-8.74228e-08" x2="400" y2="323" stroke="#0A0A0A" stroke-width="4"/>
</svg>
