<svg width="800" height="600" viewBox="0 0 800 600" fill="none" xmlns="http://www.w3.org/2000/svg">
<path fill-rule="evenodd" clip-rule="evenodd" d="M285.95 415.62H282.23V312.62L285.95 316.34V415.62Z" fill="black"/>
<path fill-rule="evenodd" clip-rule="evenodd" d="M285.95 415.62H282.23V312.62L285.95 316.34V415.62Z" fill="black"/>
<path fill-rule="evenodd" clip-rule="evenodd" d="M285.95 316.34L282.23 312.62H386.66V316.34H285.95Z" fill="black"/>
<path fill-rule="evenodd" clip-rule="evenodd" d="M285.95 316.34L282.23 312.62H386.66V316.34H285.95Z" fill="black"/>
<path fill-rule="evenodd" clip-rule="evenodd" d="M311.03 432.25V428.53H400V432.25H311.03Z" fill="black"/>
<path fill-rule="evenodd" clip-rule="evenodd" d="M311.03 432.25V428.53H400V432.25H311.03Z" fill="black"/>
<path fill-rule="evenodd" clip-rule="evenodd" d="M156.02 432.25V428.53H207.22L208.21 432.25H156.02Z" fill="black"/>
<path fill-rule="evenodd" clip-rule="evenodd" d="M156.02 432.25V428.53H207.22L208.21 432.25H156.02Z" fill="black"/>
<path fill-rule="evenodd" clip-rule="evenodd" d="M208.21 432.25L207.22 428.53L310.1 369.13L311.96 372.35L208.21 432.25Z" fill="black"/>
<path fill-rule="evenodd" clip-rule="evenodd" d="M208.21 432.25L207.22 428.53L310.1 369.13L311.96 372.35L208.21 432.25Z" fill="black"/>
<path fill-rule="evenodd" clip-rule="evenodd" d="M309.17 417.48H312.89V443.31H309.17V417.48Z" fill="black"/>
<path fill-rule="evenodd" clip-rule="evenodd" d="M309.17 417.48H312.89V443.31H309.17V417.48Z" fill="black"/>
<path fill-rule="evenodd" clip-rule="evenodd" d="M154.16 387.34H157.88V473.44H154.16V387.34Z" fill="black"/>
<path fill-rule="evenodd" clip-rule="evenodd" d="M154.16 387.34H157.88V473.44H154.16V387.34Z" fill="black"/>
<path fill-rule="evenodd" clip-rule="evenodd" d="M140.66 456.22H136.94V404.56H140.66V456.22Z" fill="black"/>
<path fill-rule="evenodd" clip-rule="evenodd" d="M140.66 456.22H136.94V404.56H140.66V456.22Z" fill="black"/>
<path fill-rule="evenodd" clip-rule="evenodd" d="M119.72 421.78H123.44V439H119.72V421.78Z" fill="black"/>
<path fill-rule="evenodd" clip-rule="evenodd" d="M119.72 421.78H123.44V439H119.72V421.78Z" fill="black"/>
<path fill-rule="evenodd" clip-rule="evenodd" d="M401.86 273.95H398.14V121.02H401.86V273.95Z" fill="black"/>
<path fill-rule="evenodd" clip-rule="evenodd" d="M402 274H398V0H402V274Z" fill="black"/>
<path fill-rule="evenodd" clip-rule="evenodd" d="M392.05 275.81V272.09H407.95V275.81H392.05Z" fill="black"/>
<path fill-rule="evenodd" clip-rule="evenodd" d="M392.05 275.81V272.09H407.95V275.81H392.05Z" fill="black"/>
<path fill-rule="evenodd" clip-rule="evenodd" d="M400 283.76L401.8 283.47L400.65 279.93L400 280.04V283.76Z" fill="black"/>
<path fill-rule="evenodd" clip-rule="evenodd" d="M400 280.04L400.65 279.93L401.8 283.47L400 283.76V280.04Z" fill="black"/>
<path fill-rule="evenodd" clip-rule="evenodd" d="M401.8 283.47L403.43 282.64L401.24 279.63L400.65 279.93L401.8 283.47Z" fill="black"/>
<path fill-rule="evenodd" clip-rule="evenodd" d="M400.65 279.93L401.24 279.63L403.43 282.64L401.8 283.47L400.65 279.93Z" fill="black"/>
<path fill-rule="evenodd" clip-rule="evenodd" d="M403.43 282.64L404.72 281.35L401.71 279.16L401.24 279.63L403.43 282.64Z" fill="black"/>
<path fill-rule="evenodd" clip-rule="evenodd" d="M401.24 279.63L401.71 279.16L404.72 281.35L403.43 282.64L401.24 279.63Z" fill="black"/>
<path fill-rule="evenodd" clip-rule="evenodd" d="M404.72 281.35L405.55 279.72L402.01 278.58L401.71 279.16L404.72 281.35Z" fill="black"/>
<path fill-rule="evenodd" clip-rule="evenodd" d="M401.71 279.16L402.01 278.58L405.55 279.72L404.72 281.35L401.71 279.16Z" fill="black"/>
<path fill-rule="evenodd" clip-rule="evenodd" d="M405.55 279.72L405.83 277.92H402.11L402.01 278.58L405.55 279.72Z" fill="black"/>
<path fill-rule="evenodd" clip-rule="evenodd" d="M402.01 278.58L402.11 277.92H405.83L405.55 279.72L402.01 278.58Z" fill="black"/>
<path fill-rule="evenodd" clip-rule="evenodd" d="M405.83 277.92L405.55 276.12L402.01 277.27L402.11 277.92H405.83Z" fill="black"/>
<path fill-rule="evenodd" clip-rule="evenodd" d="M402.11 277.92L402.01 277.27L405.55 276.12L405.83 277.92H402.11Z" fill="black"/>
<path fill-rule="evenodd" clip-rule="evenodd" d="M405.55 276.12L404.72 274.49L401.71 276.68L402.01 277.27L405.55 276.12Z" fill="black"/>
<path fill-rule="evenodd" clip-rule="evenodd" d="M402.01 277.27L401.71 276.68L404.72 274.49L405.55 276.12L402.01 277.27Z" fill="black"/>
<path fill-rule="evenodd" clip-rule="evenodd" d="M404.72 274.49L403.43 273.2L401.24 276.21L401.71 276.68L404.72 274.49Z" fill="black"/>
<path fill-rule="evenodd" clip-rule="evenodd" d="M401.71 276.68L401.24 276.21L403.43 273.2L404.72 274.49L401.71 276.68Z" fill="black"/>
<path fill-rule="evenodd" clip-rule="evenodd" d="M403.43 273.2L401.8 272.37L400.65 275.91L401.24 276.21L403.43 273.2Z" fill="black"/>
<path fill-rule="evenodd" clip-rule="evenodd" d="M401.24 276.21L400.65 275.91L401.8 272.37L403.43 273.2L401.24 276.21Z" fill="black"/>
<path fill-rule="evenodd" clip-rule="evenodd" d="M401.8 272.37L400 272.09V275.81L400.65 275.91L401.8 272.37Z" fill="black"/>
<path fill-rule="evenodd" clip-rule="evenodd" d="M400.65 275.91L400 275.81V272.09L401.8 272.37L400.65 275.91Z" fill="black"/>
<path fill-rule="evenodd" clip-rule="evenodd" d="M400 272.09L398.2 272.38L399.35 275.91L400 275.81V272.09Z" fill="black"/>
<path fill-rule="evenodd" clip-rule="evenodd" d="M400 275.81L399.35 275.91L398.2 272.38L400 272.09V275.81Z" fill="black"/>
<path fill-rule="evenodd" clip-rule="evenodd" d="M398.2 272.38L396.57 273.2L398.76 276.21L399.35 275.91L398.2 272.38Z" fill="black"/>
<path fill-rule="evenodd" clip-rule="evenodd" d="M399.35 275.91L398.76 276.21L396.57 273.2L398.2 272.38L399.35 275.91Z" fill="black"/>
<path fill-rule="evenodd" clip-rule="evenodd" d="M396.57 273.2L395.28 274.5L398.29 276.68L398.76 276.21L396.57 273.2Z" fill="black"/>
<path fill-rule="evenodd" clip-rule="evenodd" d="M398.76 276.21L398.29 276.68L395.28 274.5L396.57 273.2L398.76 276.21Z" fill="black"/>
<path fill-rule="evenodd" clip-rule="evenodd" d="M395.28 274.5L394.45 276.12L397.99 277.27L398.29 276.68L395.28 274.5Z" fill="black"/>
<path fill-rule="evenodd" clip-rule="evenodd" d="M398.29 276.68L397.99 277.27L394.45 276.12L395.28 274.5L398.29 276.68Z" fill="black"/>
<path fill-rule="evenodd" clip-rule="evenodd" d="M394.45 276.12L394.16 277.93H397.88L397.99 277.27L394.45 276.12Z" fill="black"/>
<path fill-rule="evenodd" clip-rule="evenodd" d="M397.99 277.27L397.88 277.93H394.16L394.45 276.12L397.99 277.27Z" fill="black"/>
<path fill-rule="evenodd" clip-rule="evenodd" d="M394.16 277.93L394.45 279.73L397.99 278.58L397.88 277.93H394.16Z" fill="black"/>
<path fill-rule="evenodd" clip-rule="evenodd" d="M397.88 277.93L397.99 278.58L394.45 279.73L394.16 277.93H397.88Z" fill="black"/>
<path fill-rule="evenodd" clip-rule="evenodd" d="M394.45 279.73L395.28 281.36L398.29 279.17L397.99 278.58L394.45 279.73Z" fill="black"/>
<path fill-rule="evenodd" clip-rule="evenodd" d="M397.99 278.58L398.29 279.17L395.28 281.36L394.45 279.73L397.99 278.58Z" fill="black"/>
<path fill-rule="evenodd" clip-rule="evenodd" d="M395.28 281.36L396.57 282.65L398.76 279.64L398.29 279.17L395.28 281.36Z" fill="black"/>
<path fill-rule="evenodd" clip-rule="evenodd" d="M398.29 279.17L398.76 279.64L396.57 282.65L395.28 281.36L398.29 279.17Z" fill="black"/>
<path fill-rule="evenodd" clip-rule="evenodd" d="M396.57 282.65L398.2 283.48L399.35 279.94L398.76 279.64L396.57 282.65Z" fill="black"/>
<path fill-rule="evenodd" clip-rule="evenodd" d="M398.76 279.64L399.35 279.94L398.2 283.48L396.57 282.65L398.76 279.64Z" fill="black"/>
<path fill-rule="evenodd" clip-rule="evenodd" d="M398.2 283.48L400 283.76V280.04L399.35 279.94L398.2 283.48Z" fill="black"/>
<path fill-rule="evenodd" clip-rule="evenodd" d="M399.35 279.94L400 280.04V283.76L398.2 283.48L399.35 279.94Z" fill="black"/>
<path fill-rule="evenodd" clip-rule="evenodd" d="M401.86 598.3H398.14V338.09L401.86 337.09V598.3Z" fill="black"/>
<path fill-rule="evenodd" clip-rule="evenodd" d="M401.86 598.3H398.14V338.09L401.86 337.09V598.3Z" fill="black"/>
<path fill-rule="evenodd" clip-rule="evenodd" d="M401.86 337.09L398.14 338.09L361.65 274.88L364.87 273.02L401.86 337.09Z" fill="black"/>
<path fill-rule="evenodd" clip-rule="evenodd" d="M401.86 337.09L398.14 338.09L361.65 274.88L364.87 273.02L401.86 337.09Z" fill="black"/>
<path fill-rule="evenodd" clip-rule="evenodd" d="M400 436.22L401.8 435.94L400.65 432.4L400 432.51V436.22Z" fill="black"/>
<path fill-rule="evenodd" clip-rule="evenodd" d="M400 432.51L400.65 432.4L401.8 435.94L400 436.22V432.51Z" fill="black"/>
<path fill-rule="evenodd" clip-rule="evenodd" d="M401.8 435.94L403.43 435.11L401.24 432.1L400.65 432.4L401.8 435.94Z" fill="black"/>
<path fill-rule="evenodd" clip-rule="evenodd" d="M400.65 432.4L401.24 432.1L403.43 435.11L401.8 435.94L400.65 432.4Z" fill="black"/>
<path fill-rule="evenodd" clip-rule="evenodd" d="M403.43 435.11L404.72 433.82L401.71 431.63L401.24 432.1L403.43 435.11Z" fill="black"/>
<path fill-rule="evenodd" clip-rule="evenodd" d="M401.24 432.1L401.71 431.63L404.72 433.82L403.43 435.11L401.24 432.1Z" fill="black"/>
<path fill-rule="evenodd" clip-rule="evenodd" d="M404.72 433.82L405.55 432.19L402.01 431.05L401.71 431.63L404.72 433.82Z" fill="black"/>
<path fill-rule="evenodd" clip-rule="evenodd" d="M401.71 431.63L402.01 431.05L405.55 432.19L404.72 433.82L401.71 431.63Z" fill="black"/>
<path fill-rule="evenodd" clip-rule="evenodd" d="M405.55 432.19L405.83 430.39H402.11L402.01 431.05L405.55 432.19Z" fill="black"/>
<path fill-rule="evenodd" clip-rule="evenodd" d="M402.01 431.05L402.11 430.39H405.83L405.55 432.19L402.01 431.05Z" fill="black"/>
<path fill-rule="evenodd" clip-rule="evenodd" d="M405.83 430.39L405.55 428.59L402.01 429.74L402.11 430.39H405.83Z" fill="black"/>
<path fill-rule="evenodd" clip-rule="evenodd" d="M402.11 430.39L402.01 429.74L405.55 428.59L405.83 430.39H402.11Z" fill="black"/>
<path fill-rule="evenodd" clip-rule="evenodd" d="M405.55 428.59L404.72 426.96L401.71 429.15L402.01 429.74L405.55 428.59Z" fill="black"/>
<path fill-rule="evenodd" clip-rule="evenodd" d="M402.01 429.74L401.71 429.15L404.72 426.96L405.55 428.59L402.01 429.74Z" fill="black"/>
<path fill-rule="evenodd" clip-rule="evenodd" d="M404.72 426.96L403.43 425.67L401.24 428.68L401.71 429.15L404.72 426.96Z" fill="black"/>
<path fill-rule="evenodd" clip-rule="evenodd" d="M401.71 429.15L401.24 428.68L403.43 425.67L404.72 426.96L401.71 429.15Z" fill="black"/>
<path fill-rule="evenodd" clip-rule="evenodd" d="M403.43 425.67L401.8 424.84L400.65 428.38L401.24 428.68L403.43 425.67Z" fill="black"/>
<path fill-rule="evenodd" clip-rule="evenodd" d="M401.24 428.68L400.65 428.38L401.8 424.84L403.43 425.67L401.24 428.68Z" fill="black"/>
<path fill-rule="evenodd" clip-rule="evenodd" d="M401.8 424.84L400 424.56V428.28L400.65 428.38L401.8 424.84Z" fill="black"/>
<path fill-rule="evenodd" clip-rule="evenodd" d="M400.65 428.38L400 428.28V424.56L401.8 424.84L400.65 428.38Z" fill="black"/>
<path fill-rule="evenodd" clip-rule="evenodd" d="M400 424.56L398.2 424.85L399.35 428.38L400 428.28V424.56Z" fill="black"/>
<path fill-rule="evenodd" clip-rule="evenodd" d="M400 428.28L399.35 428.38L398.2 424.85L400 424.56V428.28Z" fill="black"/>
<path fill-rule="evenodd" clip-rule="evenodd" d="M398.2 424.85L396.57 425.67L398.75 428.68L399.35 428.38L398.2 424.85Z" fill="black"/>
<path fill-rule="evenodd" clip-rule="evenodd" d="M399.35 428.38L398.75 428.68L396.57 425.67L398.2 424.85L399.35 428.38Z" fill="black"/>
<path fill-rule="evenodd" clip-rule="evenodd" d="M396.57 425.67L395.28 426.97L398.29 429.15L398.75 428.68L396.57 425.67Z" fill="black"/>
<path fill-rule="evenodd" clip-rule="evenodd" d="M398.75 428.68L398.29 429.15L395.28 426.97L396.57 425.67L398.75 428.68Z" fill="black"/>
<path fill-rule="evenodd" clip-rule="evenodd" d="M395.28 426.97L394.45 428.59L397.99 429.74L398.29 429.15L395.28 426.97Z" fill="black"/>
<path fill-rule="evenodd" clip-rule="evenodd" d="M398.29 429.15L397.99 429.74L394.45 428.59L395.28 426.97L398.29 429.15Z" fill="black"/>
<path fill-rule="evenodd" clip-rule="evenodd" d="M394.45 428.59L394.16 430.4H397.88L397.99 429.74L394.45 428.59Z" fill="black"/>
<path fill-rule="evenodd" clip-rule="evenodd" d="M397.99 429.74L397.88 430.4H394.16L394.45 428.59L397.99 429.74Z" fill="black"/>
<path fill-rule="evenodd" clip-rule="evenodd" d="M394.16 430.4L394.45 432.2L397.99 431.05L397.88 430.4H394.16Z" fill="black"/>
<path fill-rule="evenodd" clip-rule="evenodd" d="M397.88 430.4L397.99 431.05L394.45 432.2L394.16 430.4H397.88Z" fill="black"/>
<path fill-rule="evenodd" clip-rule="evenodd" d="M394.45 432.2L395.28 433.83L398.29 431.64L397.99 431.05L394.45 432.2Z" fill="black"/>
<path fill-rule="evenodd" clip-rule="evenodd" d="M397.99 431.05L398.29 431.64L395.28 433.83L394.45 432.2L397.99 431.05Z" fill="black"/>
<path fill-rule="evenodd" clip-rule="evenodd" d="M395.28 433.83L396.57 435.12L398.75 432.11L398.29 431.64L395.28 433.83Z" fill="black"/>
<path fill-rule="evenodd" clip-rule="evenodd" d="M398.29 431.64L398.75 432.11L396.57 435.12L395.28 433.83L398.29 431.64Z" fill="black"/>
<path fill-rule="evenodd" clip-rule="evenodd" d="M396.57 435.12L398.2 435.95L399.35 432.41L398.75 432.11L396.57 435.12Z" fill="black"/>
<path fill-rule="evenodd" clip-rule="evenodd" d="M398.75 432.11L399.35 432.41L398.2 435.95L396.57 435.12L398.75 432.11Z" fill="black"/>
<path fill-rule="evenodd" clip-rule="evenodd" d="M398.2 435.95L400 436.23V432.51L399.35 432.41L398.2 435.95Z" fill="black"/>
<path fill-rule="evenodd" clip-rule="evenodd" d="M399.35 432.41L400 432.51V436.23L398.2 435.95L399.35 432.41Z" fill="black"/>
</svg>
