<svg width="800" height="600" viewBox="0 0 800 600" fill="none" xmlns="http://www.w3.org/2000/svg">
<path fill-rule="evenodd" clip-rule="evenodd" d="M401.86 598.3H398.14V572.93H401.86V598.3Z" fill="black"/>
<path fill-rule="evenodd" clip-rule="evenodd" d="M401.86 598.3H398.14V572.93H401.86V598.3Z" fill="black"/>
<path fill-rule="evenodd" clip-rule="evenodd" d="M382.78 558.33L385.41 555.7L400 570.3V575.56L382.78 558.33Z" fill="black"/>
<path fill-rule="evenodd" clip-rule="evenodd" d="M382.78 558.33L385.41 555.7L400 570.3V575.56L382.78 558.33Z" fill="black"/>
<path fill-rule="evenodd" clip-rule="evenodd" d="M400 575.56V570.3L414.59 555.7L417.22 558.33L400 575.56Z" fill="black"/>
<path fill-rule="evenodd" clip-rule="evenodd" d="M400 575.56V570.3L414.59 555.7L417.22 558.33L400 575.56Z" fill="black"/>
<path fill-rule="evenodd" clip-rule="evenodd" d="M382.78 547.73L385.41 545.1L400 559.69V564.95L382.78 547.73Z" fill="black"/>
<path fill-rule="evenodd" clip-rule="evenodd" d="M382.78 547.73L385.41 545.1L400 559.69V564.95L382.78 547.73Z" fill="black"/>
<path fill-rule="evenodd" clip-rule="evenodd" d="M400 564.95V559.69L414.59 545.1L417.22 547.73L400 564.95Z" fill="black"/>
<path fill-rule="evenodd" clip-rule="evenodd" d="M400 564.95V559.69L414.59 545.1L417.22 547.73L400 564.95Z" fill="black"/>
<path fill-rule="evenodd" clip-rule="evenodd" d="M401.86 562.32H398.14V157H401.86V562.32Z" fill="black"/>
<path fill-rule="evenodd" clip-rule="evenodd" d="M401.86 562.32H398.14V157H401.86V562.32Z" fill="black"/>
<path fill-rule="evenodd" clip-rule="evenodd" d="M398.14 121.02H401.86V146.39H398.14V121.02Z" fill="black"/>
<path fill-rule="evenodd" clip-rule="evenodd" d="M398 0H402V146H398V0Z" fill="black"/>
<path fill-rule="evenodd" clip-rule="evenodd" d="M385.41 163.62L382.78 160.99L400 143.76V149.02L385.41 163.62Z" fill="black"/>
<path fill-rule="evenodd" clip-rule="evenodd" d="M385.41 163.62L382.78 160.99L400 143.76V149.02L385.41 163.62Z" fill="black"/>
<path fill-rule="evenodd" clip-rule="evenodd" d="M400 149.02V143.76L417.22 160.99L414.59 163.62L400 149.02Z" fill="black"/>
<path fill-rule="evenodd" clip-rule="evenodd" d="M400 149.02V143.76L417.22 160.99L414.59 163.62L400 149.02Z" fill="black"/>
<path fill-rule="evenodd" clip-rule="evenodd" d="M385.41 174.22L382.78 171.59L400 154.37V159.63L385.41 174.22Z" fill="black"/>
<path fill-rule="evenodd" clip-rule="evenodd" d="M385.41 174.22L382.78 171.59L400 154.37V159.63L385.41 174.22Z" fill="black"/>
<path fill-rule="evenodd" clip-rule="evenodd" d="M400 159.63V154.37L417.22 171.59L414.59 174.22L400 159.63Z" fill="black"/>
<path fill-rule="evenodd" clip-rule="evenodd" d="M400 159.63V154.37L417.22 171.59L414.59 174.22L400 159.63Z" fill="black"/>
</svg>
