<?xml version="1.0" encoding="UTF-8"?>
<svg xmlns="http://www.w3.org/2000/svg" width="800.000" height="600.000" viewBox="0.0 0.0 800.000 600.000" version="1.1">
  <title>Produce by Acme CAD Converter</title>
  <desc>Produce by Acme CAD Converter</desc>
<path d="M422.99 270.51L427.63 270.51 427.63 394.61 422.99 399.26 422.99 270.51Z"
fill-rule="evenodd" fill="black"/>
<path d="M422.99 270.51L427.63 270.51 427.63 270.51 422.99 270.51Z"
fill-rule="evenodd" fill="black"/>
<path d="M422.99 270.51L427.63 270.51 427.63 394.61 422.99 399.26 422.99 270.51Z"
fill-rule="evenodd" fill="black"/>
<path d="M427.63 394.61L422.99 399.26 422.99 399.26 427.63 394.61Z"
fill-rule="evenodd" fill="black"/>
<path d="M422.99 270.51L422.99 399.26 422.99 399.26 422.99 270.51Z"
fill-rule="evenodd" fill="black"/>
<path d="M427.63 270.51L427.63 394.61 427.63 394.61 427.63 270.51Z"
fill-rule="evenodd" fill="black"/>
<path d="M422.99 399.26L427.63 394.61 553.52 394.61 553.52 399.26 422.99 399.26Z"
fill-rule="evenodd" fill="black"/>
<path d="M422.99 399.26L427.63 394.61 427.63 394.61 422.99 399.26Z"
fill-rule="evenodd" fill="black"/>
<path d="M422.99 399.26L427.63 394.61 553.52 394.61 553.52 399.26 422.99 399.26Z"
fill-rule="evenodd" fill="black"/>
<path d="M553.52 394.61L553.52 399.26 553.52 399.26 553.52 394.61Z"
fill-rule="evenodd" fill="black"/>
<path d="M422.99 399.26L553.52 399.26 553.52 399.26 422.99 399.26Z"
fill-rule="evenodd" fill="black"/>
<path d="M427.63 394.61L553.52 394.61 553.52 394.61 427.63 394.61Z"
fill-rule="evenodd" fill="black"/>
<path d="M458.98 254.37L458.98 249.72 570.2 249.72 570.2 254.37 458.98 254.37Z"
fill-rule="evenodd" fill="black"/>
<path d="M458.98 254.37L458.98 249.72 458.98 249.72 458.98 254.37Z"
fill-rule="evenodd" fill="black"/>
<path d="M458.98 254.37L458.98 249.72 570.2 249.72 570.2 254.37 458.98 254.37Z"
fill-rule="evenodd" fill="black"/>
<path d="M570.2 249.72L570.2 254.37 570.2 254.37 570.2 249.72Z"
fill-rule="evenodd" fill="black"/>
<path d="M458.98 254.37L570.2 254.37 570.2 254.37 458.98 254.37Z"
fill-rule="evenodd" fill="black"/>
<path d="M458.98 249.72L570.2 249.72 570.2 249.72 458.98 249.72Z"
fill-rule="evenodd" fill="black"/>
<path d="M265.23 254.37L265.23 249.72 329.22 249.72 330.47 254.37 265.23 254.37Z"
fill-rule="evenodd" fill="black"/>
<path d="M265.23 254.37L265.23 249.72 265.23 249.72 265.23 254.37Z"
fill-rule="evenodd" fill="black"/>
<path d="M265.23 254.37L265.23 249.72 329.22 249.72 330.47 254.37 265.23 254.37Z"
fill-rule="evenodd" fill="black"/>
<path d="M329.22 249.72L330.47 254.37 330.47 254.37 329.22 249.72Z"
fill-rule="evenodd" fill="black"/>
<path d="M265.23 254.37L330.47 254.37 330.47 254.37 265.23 254.37Z"
fill-rule="evenodd" fill="black"/>
<path d="M265.23 249.72L329.22 249.72 329.22 249.72 265.23 249.72Z"
fill-rule="evenodd" fill="black"/>
<path d="M330.47 254.37L329.22 249.72 457.82 175.47 460.15 179.5 330.47 254.37Z"
fill-rule="evenodd" fill="black"/>
<path d="M330.47 254.37L329.22 249.72 329.22 249.72 330.47 254.37Z"
fill-rule="evenodd" fill="black"/>
<path d="M330.47 254.37L329.22 249.72 457.82 175.47 460.15 179.5 330.47 254.37Z"
fill-rule="evenodd" fill="black"/>
<path d="M457.82 175.47L460.15 179.5 460.15 179.5 457.82 175.47Z"
fill-rule="evenodd" fill="black"/>
<path d="M330.47 254.37L460.15 179.5 460.15 179.5 330.47 254.37Z"
fill-rule="evenodd" fill="black"/>
<path d="M329.22 249.72L457.82 175.47 457.82 175.47 329.22 249.72Z"
fill-rule="evenodd" fill="black"/>
<path d="M461.31 268.19L456.66 268.19 456.66 235.91 461.31 235.91 461.31 268.19Z"
fill-rule="evenodd" fill="black"/>
<path d="M461.31 268.19L456.66 268.19 456.66 268.19 461.31 268.19Z"
fill-rule="evenodd" fill="black"/>
<path d="M461.31 268.19L456.66 268.19 456.66 235.91 461.31 235.91 461.31 268.19Z"
fill-rule="evenodd" fill="black"/>
<path d="M456.66 235.91L461.31 235.91 461.31 235.91 456.66 235.91Z"
fill-rule="evenodd" fill="black"/>
<path d="M461.31 268.19L461.31 235.91 461.31 235.91 461.31 268.19Z"
fill-rule="evenodd" fill="black"/>
<path d="M456.66 268.19L456.66 235.91 456.66 235.91 456.66 268.19Z"
fill-rule="evenodd" fill="black"/>
<path d="M267.55 305.86L262.9 305.86 262.9 198.24 267.55 198.24 267.55 305.86Z"
fill-rule="evenodd" fill="black"/>
<path d="M267.55 305.86L262.9 305.86 262.9 305.86 267.55 305.86Z"
fill-rule="evenodd" fill="black"/>
<path d="M267.55 305.86L262.9 305.86 262.9 198.24 267.55 198.24 267.55 305.86Z"
fill-rule="evenodd" fill="black"/>
<path d="M262.9 198.24L267.55 198.24 267.55 198.24 262.9 198.24Z"
fill-rule="evenodd" fill="black"/>
<path d="M267.55 305.86L267.55 198.24 267.55 198.24 267.55 305.86Z"
fill-rule="evenodd" fill="black"/>
<path d="M262.9 305.86L262.9 198.24 262.9 198.24 262.9 305.86Z"
fill-rule="evenodd" fill="black"/>
<path d="M241.38 219.76L246.03 219.76 246.03 284.33 241.38 284.33 241.38 219.76Z"
fill-rule="evenodd" fill="black"/>
<path d="M241.38 219.76L246.03 219.76 246.03 219.76 241.38 219.76Z"
fill-rule="evenodd" fill="black"/>
<path d="M241.38 219.76L246.03 219.76 246.03 284.33 241.38 284.33 241.38 219.76Z"
fill-rule="evenodd" fill="black"/>
<path d="M246.03 284.33L241.38 284.33 241.38 284.33 246.03 284.33Z"
fill-rule="evenodd" fill="black"/>
<path d="M241.38 219.76L241.38 284.33 241.38 284.33 241.38 219.76Z"
fill-rule="evenodd" fill="black"/>
<path d="M246.03 219.76L246.03 284.33 246.03 284.33 246.03 219.76Z"
fill-rule="evenodd" fill="black"/>
<path d="M224.51 262.81L219.86 262.81 219.86 241.29 224.51 241.29 224.51 262.81Z"
fill-rule="evenodd" fill="black"/>
<path d="M224.51 262.81L219.86 262.81 219.86 262.81 224.51 262.81Z"
fill-rule="evenodd" fill="black"/>
<path d="M224.51 262.81L219.86 262.81 219.86 241.29 224.51 241.29 224.51 262.81Z"
fill-rule="evenodd" fill="black"/>
<path d="M219.86 241.29L224.51 241.29 224.51 241.29 219.86 241.29Z"
fill-rule="evenodd" fill="black"/>
<path d="M224.51 262.81L224.51 241.29 224.51 241.29 224.51 262.81Z"
fill-rule="evenodd" fill="black"/>
<path d="M219.86 262.81L219.86 241.29 219.86 241.29 219.86 262.81Z"
fill-rule="evenodd" fill="black"/>
<path d="M572.52 346.27L567.88 346.27 567.88 1.7 572.52 1.7 572.52 346.27Z"
fill-rule="evenodd" fill="black"/>
<path d="M572.52 346.27L567.88 346.27 567.88 346.27 572.52 346.27Z"
fill-rule="evenodd" fill="black"/>
<path d="M572.52 346.27L567.88 346.27 567.88 1.7 572.52 1.7 572.52 346.27Z"
fill-rule="evenodd" fill="black"/>
<path d="M567.88 1.7L572.52 1.7 572.52 1.7 567.88 1.7Z"
fill-rule="evenodd" fill="black"/>
<path d="M572.52 346.27L572.52 1.7 572.52 1.7 572.52 346.27Z"
fill-rule="evenodd" fill="black"/>
<path d="M567.88 346.27L567.88 1.7 567.88 1.7 567.88 346.27Z"
fill-rule="evenodd" fill="black"/>
<path d="M560.26 348.6L560.26 343.95 580.14 343.95 580.14 348.6 560.26 348.6Z"
fill-rule="evenodd" fill="black"/>
<path d="M560.26 348.6L560.26 343.95 560.26 343.95 560.26 348.6Z"
fill-rule="evenodd" fill="black"/>
<path d="M560.26 348.6L560.26 343.95 580.14 343.95 580.14 348.6 560.26 348.6Z"
fill-rule="evenodd" fill="black"/>
<path d="M580.14 343.95L580.14 348.6 580.14 348.6 580.14 343.95Z"
fill-rule="evenodd" fill="black"/>
<path d="M560.26 348.6L580.14 348.6 580.14 348.6 560.26 348.6Z"
fill-rule="evenodd" fill="black"/>
<path d="M560.26 343.95L580.14 343.95 580.14 343.95 560.26 343.95Z"
fill-rule="evenodd" fill="black"/>
<path d="M570.2 358.53L572.09 358.28 570.88 353.79 570.2 353.88 570.2 358.53Z"
fill-rule="evenodd" fill="black"/>
<path d="M570.2 353.88L570.88 353.79 572.09 358.28 570.2 358.53 570.2 353.88Z"
fill-rule="evenodd" fill="black"/>
<path d="M572.09 358.28L570.2 358.53 570.2 358.53 572.09 358.28Z"
fill-rule="evenodd" fill="black"/>
<path d="M570.88 353.79L572.09 358.28 572.09 358.28 570.88 353.79Z"
fill-rule="evenodd" fill="black"/>
<path d="M570.2 353.88L570.88 353.79 570.88 353.79 570.2 353.88Z"
fill-rule="evenodd" fill="black"/>
<path d="M570.2 358.53L570.2 353.88 570.2 353.88 570.2 358.53Z"
fill-rule="evenodd" fill="black"/>
<path d="M572.09 358.28L573.85 357.55 571.52 353.53 570.88 353.79 572.09 358.28Z"
fill-rule="evenodd" fill="black"/>
<path d="M570.88 353.79L571.52 353.53 573.85 357.55 572.09 358.28 570.88 353.79Z"
fill-rule="evenodd" fill="black"/>
<path d="M573.85 357.55L572.09 358.28 572.09 358.28 573.85 357.55Z"
fill-rule="evenodd" fill="black"/>
<path d="M571.52 353.53L573.85 357.55 573.85 357.55 571.52 353.53Z"
fill-rule="evenodd" fill="black"/>
<path d="M570.88 353.79L571.52 353.53 571.52 353.53 570.88 353.79Z"
fill-rule="evenodd" fill="black"/>
<path d="M572.09 358.28L570.88 353.79 570.88 353.79 572.09 358.28Z"
fill-rule="evenodd" fill="black"/>
<path d="M573.85 357.55L575.36 356.4 572.07 353.11 571.52 353.53 573.85 357.55Z"
fill-rule="evenodd" fill="black"/>
<path d="M571.52 353.53L572.07 353.11 575.36 356.4 573.85 357.55 571.52 353.53Z"
fill-rule="evenodd" fill="black"/>
<path d="M575.36 356.4L573.85 357.55 573.85 357.55 575.36 356.4Z"
fill-rule="evenodd" fill="black"/>
<path d="M572.07 353.11L575.36 356.4 575.36 356.4 572.07 353.11Z"
fill-rule="evenodd" fill="black"/>
<path d="M571.52 353.53L572.07 353.11 572.07 353.11 571.52 353.53Z"
fill-rule="evenodd" fill="black"/>
<path d="M573.85 357.55L571.52 353.53 571.52 353.53 573.85 357.55Z"
fill-rule="evenodd" fill="black"/>
<path d="M575.36 356.4L576.51 354.89 572.49 352.56 572.07 353.11 575.36 356.4Z"
fill-rule="evenodd" fill="black"/>
<path d="M572.07 353.11L572.49 352.56 576.51 354.89 575.36 356.4 572.07 353.11Z"
fill-rule="evenodd" fill="black"/>
<path d="M576.51 354.89L575.36 356.4 575.36 356.4 576.51 354.89Z"
fill-rule="evenodd" fill="black"/>
<path d="M572.49 352.56L576.51 354.89 576.51 354.89 572.49 352.56Z"
fill-rule="evenodd" fill="black"/>
<path d="M572.07 353.11L572.49 352.56 572.49 352.56 572.07 353.11Z"
fill-rule="evenodd" fill="black"/>
<path d="M575.36 356.4L572.07 353.11 572.07 353.11 575.36 356.4Z"
fill-rule="evenodd" fill="black"/>
<path d="M576.51 354.89L577.24 353.13 572.75 351.92 572.49 352.56 576.51 354.89Z"
fill-rule="evenodd" fill="black"/>
<path d="M572.49 352.56L572.75 351.92 577.24 353.13 576.51 354.89 572.49 352.56Z"
fill-rule="evenodd" fill="black"/>
<path d="M577.24 353.13L576.51 354.89 576.51 354.89 577.24 353.13Z"
fill-rule="evenodd" fill="black"/>
<path d="M572.75 351.92L577.24 353.13 577.24 353.13 572.75 351.92Z"
fill-rule="evenodd" fill="black"/>
<path d="M572.49 352.56L572.75 351.92 572.75 351.92 572.49 352.56Z"
fill-rule="evenodd" fill="black"/>
<path d="M576.51 354.89L572.49 352.56 572.49 352.56 576.51 354.89Z"
fill-rule="evenodd" fill="black"/>
<path d="M577.24 353.13L577.49 351.24 572.84 351.24 572.75 351.92 577.24 353.13Z"
fill-rule="evenodd" fill="black"/>
<path d="M572.75 351.92L572.84 351.24 577.49 351.24 577.24 353.13 572.75 351.92Z"
fill-rule="evenodd" fill="black"/>
<path d="M577.49 351.24L577.24 353.13 577.24 353.13 577.49 351.24Z"
fill-rule="evenodd" fill="black"/>
<path d="M572.84 351.24L577.49 351.24 577.49 351.24 572.84 351.24Z"
fill-rule="evenodd" fill="black"/>
<path d="M572.75 351.92L572.84 351.24 572.84 351.24 572.75 351.92Z"
fill-rule="evenodd" fill="black"/>
<path d="M577.24 353.13L572.75 351.92 572.75 351.92 577.24 353.13Z"
fill-rule="evenodd" fill="black"/>
<path d="M577.49 351.24L577.24 349.35 572.75 350.56 572.84 351.24 577.49 351.24Z"
fill-rule="evenodd" fill="black"/>
<path d="M572.84 351.24L572.75 350.56 577.24 349.35 577.49 351.24 572.84 351.24Z"
fill-rule="evenodd" fill="black"/>
<path d="M577.24 349.35L577.49 351.24 577.49 351.24 577.24 349.35Z"
fill-rule="evenodd" fill="black"/>
<path d="M572.75 350.56L577.24 349.35 577.24 349.35 572.75 350.56Z"
fill-rule="evenodd" fill="black"/>
<path d="M572.84 351.24L572.75 350.56 572.75 350.56 572.84 351.24Z"
fill-rule="evenodd" fill="black"/>
<path d="M577.49 351.24L572.84 351.24 572.84 351.24 577.49 351.24Z"
fill-rule="evenodd" fill="black"/>
<path d="M577.24 349.35L576.51 347.59 572.49 349.92 572.75 350.56 577.24 349.35Z"
fill-rule="evenodd" fill="black"/>
<path d="M572.75 350.56L572.49 349.92 576.51 347.59 577.24 349.35 572.75 350.56Z"
fill-rule="evenodd" fill="black"/>
<path d="M576.51 347.59L577.24 349.35 577.24 349.35 576.51 347.59Z"
fill-rule="evenodd" fill="black"/>
<path d="M572.49 349.92L576.51 347.59 576.51 347.59 572.49 349.92Z"
fill-rule="evenodd" fill="black"/>
<path d="M572.75 350.56L572.49 349.92 572.49 349.92 572.75 350.56Z"
fill-rule="evenodd" fill="black"/>
<path d="M577.24 349.35L572.75 350.56 572.75 350.56 577.24 349.35Z"
fill-rule="evenodd" fill="black"/>
<path d="M576.51 347.59L575.36 346.08 572.07 349.37 572.49 349.92 576.51 347.59Z"
fill-rule="evenodd" fill="black"/>
<path d="M572.49 349.92L572.07 349.37 575.36 346.08 576.51 347.59 572.49 349.92Z"
fill-rule="evenodd" fill="black"/>
<path d="M575.36 346.08L576.51 347.59 576.51 347.59 575.36 346.08Z"
fill-rule="evenodd" fill="black"/>
<path d="M572.07 349.37L575.36 346.08 575.36 346.08 572.07 349.37Z"
fill-rule="evenodd" fill="black"/>
<path d="M572.49 349.92L572.07 349.37 572.07 349.37 572.49 349.92Z"
fill-rule="evenodd" fill="black"/>
<path d="M576.51 347.59L572.49 349.92 572.49 349.92 576.51 347.59Z"
fill-rule="evenodd" fill="black"/>
<path d="M575.36 346.08L573.85 344.93 571.52 348.95 572.07 349.37 575.36 346.08Z"
fill-rule="evenodd" fill="black"/>
<path d="M572.07 349.37L571.52 348.95 573.85 344.93 575.36 346.08 572.07 349.37Z"
fill-rule="evenodd" fill="black"/>
<path d="M573.85 344.93L575.36 346.08 575.36 346.08 573.85 344.93Z"
fill-rule="evenodd" fill="black"/>
<path d="M571.52 348.95L573.85 344.93 573.85 344.93 571.52 348.95Z"
fill-rule="evenodd" fill="black"/>
<path d="M572.07 349.37L571.52 348.95 571.52 348.95 572.07 349.37Z"
fill-rule="evenodd" fill="black"/>
<path d="M575.36 346.08L572.07 349.37 572.07 349.37 575.36 346.08Z"
fill-rule="evenodd" fill="black"/>
<path d="M573.85 344.93L572.09 344.2 570.88 348.69 571.52 348.95 573.85 344.93Z"
fill-rule="evenodd" fill="black"/>
<path d="M571.52 348.95L570.88 348.69 572.09 344.2 573.85 344.93 571.52 348.95Z"
fill-rule="evenodd" fill="black"/>
<path d="M572.09 344.2L573.85 344.93 573.85 344.93 572.09 344.2Z"
fill-rule="evenodd" fill="black"/>
<path d="M570.88 348.69L572.09 344.2 572.09 344.2 570.88 348.69Z"
fill-rule="evenodd" fill="black"/>
<path d="M571.52 348.95L570.88 348.69 570.88 348.69 571.52 348.95Z"
fill-rule="evenodd" fill="black"/>
<path d="M573.85 344.93L571.52 348.95 571.52 348.95 573.85 344.93Z"
fill-rule="evenodd" fill="black"/>
<path d="M572.09 344.2L570.2 343.95 570.2 348.6 570.88 348.69 572.09 344.2Z"
fill-rule="evenodd" fill="black"/>
<path d="M570.88 348.69L570.2 348.6 570.2 343.95 572.09 344.2 570.88 348.69Z"
fill-rule="evenodd" fill="black"/>
<path d="M570.2 343.95L572.09 344.2 572.09 344.2 570.2 343.95Z"
fill-rule="evenodd" fill="black"/>
<path d="M570.2 348.6L570.2 343.95 570.2 343.95 570.2 348.6Z"
fill-rule="evenodd" fill="black"/>
<path d="M570.88 348.69L570.2 348.6 570.2 348.6 570.88 348.69Z"
fill-rule="evenodd" fill="black"/>
<path d="M572.09 344.2L570.88 348.69 570.88 348.69 572.09 344.2Z"
fill-rule="evenodd" fill="black"/>
<path d="M570.2 343.95L568.31 344.2 569.51 348.69 570.2 348.6 570.2 343.95Z"
fill-rule="evenodd" fill="black"/>
<path d="M570.2 348.6L569.51 348.69 568.31 344.2 570.2 343.95 570.2 348.6Z"
fill-rule="evenodd" fill="black"/>
<path d="M568.31 344.2L570.2 343.95 570.2 343.95 568.31 344.2Z"
fill-rule="evenodd" fill="black"/>
<path d="M569.51 348.69L568.31 344.2 568.31 344.2 569.51 348.69Z"
fill-rule="evenodd" fill="black"/>
<path d="M570.2 348.6L569.51 348.69 569.51 348.69 570.2 348.6Z"
fill-rule="evenodd" fill="black"/>
<path d="M570.2 343.95L570.2 348.6 570.2 348.6 570.2 343.95Z"
fill-rule="evenodd" fill="black"/>
<path d="M568.31 344.2L566.55 344.93 568.88 348.95 569.51 348.69 568.31 344.2Z"
fill-rule="evenodd" fill="black"/>
<path d="M569.51 348.69L568.88 348.95 566.55 344.93 568.31 344.2 569.51 348.69Z"
fill-rule="evenodd" fill="black"/>
<path d="M566.55 344.93L568.31 344.2 568.31 344.2 566.55 344.93Z"
fill-rule="evenodd" fill="black"/>
<path d="M568.88 348.95L566.55 344.93 566.55 344.93 568.88 348.95Z"
fill-rule="evenodd" fill="black"/>
<path d="M569.51 348.69L568.88 348.95 568.88 348.95 569.51 348.69Z"
fill-rule="evenodd" fill="black"/>
<path d="M568.31 344.2L569.51 348.69 569.51 348.69 568.31 344.2Z"
fill-rule="evenodd" fill="black"/>
<path d="M566.55 344.93L565.04 346.09 568.33 349.37 568.88 348.95 566.55 344.93Z"
fill-rule="evenodd" fill="black"/>
<path d="M568.88 348.95L568.33 349.37 565.04 346.09 566.55 344.93 568.88 348.95Z"
fill-rule="evenodd" fill="black"/>
<path d="M565.04 346.09L566.55 344.93 566.55 344.93 565.04 346.09Z"
fill-rule="evenodd" fill="black"/>
<path d="M568.33 349.37L565.04 346.09 565.04 346.09 568.33 349.37Z"
fill-rule="evenodd" fill="black"/>
<path d="M568.88 348.95L568.33 349.37 568.33 349.37 568.88 348.95Z"
fill-rule="evenodd" fill="black"/>
<path d="M566.55 344.93L568.88 348.95 568.88 348.95 566.55 344.93Z"
fill-rule="evenodd" fill="black"/>
<path d="M565.04 346.09L563.88 347.6 567.91 349.92 568.33 349.37 565.04 346.09Z"
fill-rule="evenodd" fill="black"/>
<path d="M568.33 349.37L567.91 349.92 563.88 347.6 565.04 346.09 568.33 349.37Z"
fill-rule="evenodd" fill="black"/>
<path d="M563.88 347.6L565.04 346.09 565.04 346.09 563.88 347.6Z"
fill-rule="evenodd" fill="black"/>
<path d="M567.91 349.92L563.88 347.6 563.88 347.6 567.91 349.92Z"
fill-rule="evenodd" fill="black"/>
<path d="M568.33 349.37L567.91 349.92 567.91 349.92 568.33 349.37Z"
fill-rule="evenodd" fill="black"/>
<path d="M565.04 346.09L568.33 349.37 568.33 349.37 565.04 346.09Z"
fill-rule="evenodd" fill="black"/>
<path d="M563.88 347.6L563.15 349.36 567.64 350.56 567.91 349.92 563.88 347.6Z"
fill-rule="evenodd" fill="black"/>
<path d="M567.91 349.92L567.64 350.56 563.15 349.36 563.88 347.6 567.91 349.92Z"
fill-rule="evenodd" fill="black"/>
<path d="M563.15 349.36L563.88 347.6 563.88 347.6 563.15 349.36Z"
fill-rule="evenodd" fill="black"/>
<path d="M567.64 350.56L563.15 349.36 563.15 349.36 567.64 350.56Z"
fill-rule="evenodd" fill="black"/>
<path d="M567.91 349.92L567.64 350.56 567.64 350.56 567.91 349.92Z"
fill-rule="evenodd" fill="black"/>
<path d="M563.88 347.6L567.91 349.92 567.91 349.92 563.88 347.6Z"
fill-rule="evenodd" fill="black"/>
<path d="M563.15 349.36L562.9 351.24 567.55 351.24 567.64 350.56 563.15 349.36Z"
fill-rule="evenodd" fill="black"/>
<path d="M567.64 350.56L567.55 351.24 562.9 351.24 563.15 349.36 567.64 350.56Z"
fill-rule="evenodd" fill="black"/>
<path d="M562.9 351.24L563.15 349.36 563.15 349.36 562.9 351.24Z"
fill-rule="evenodd" fill="black"/>
<path d="M567.55 351.24L562.9 351.24 562.9 351.24 567.55 351.24Z"
fill-rule="evenodd" fill="black"/>
<path d="M567.64 350.56L567.55 351.24 567.55 351.24 567.64 350.56Z"
fill-rule="evenodd" fill="black"/>
<path d="M563.15 349.36L567.64 350.56 567.64 350.56 563.15 349.36Z"
fill-rule="evenodd" fill="black"/>
<path d="M562.9 351.24L563.15 353.13 567.64 351.93 567.55 351.24 562.9 351.24Z"
fill-rule="evenodd" fill="black"/>
<path d="M567.55 351.24L567.64 351.93 563.15 353.13 562.9 351.24 567.55 351.24Z"
fill-rule="evenodd" fill="black"/>
<path d="M563.15 353.13L562.9 351.24 562.9 351.24 563.15 353.13Z"
fill-rule="evenodd" fill="black"/>
<path d="M567.64 351.93L563.15 353.13 563.15 353.13 567.64 351.93Z"
fill-rule="evenodd" fill="black"/>
<path d="M567.55 351.24L567.64 351.93 567.64 351.93 567.55 351.24Z"
fill-rule="evenodd" fill="black"/>
<path d="M562.9 351.24L567.55 351.24 567.55 351.24 562.9 351.24Z"
fill-rule="evenodd" fill="black"/>
<path d="M563.15 353.13L563.88 354.89 567.91 352.57 567.64 351.93 563.15 353.13Z"
fill-rule="evenodd" fill="black"/>
<path d="M567.64 351.93L567.91 352.57 563.88 354.89 563.15 353.13 567.64 351.93Z"
fill-rule="evenodd" fill="black"/>
<path d="M563.88 354.89L563.15 353.13 563.15 353.13 563.88 354.89Z"
fill-rule="evenodd" fill="black"/>
<path d="M567.91 352.57L563.88 354.89 563.88 354.89 567.91 352.57Z"
fill-rule="evenodd" fill="black"/>
<path d="M567.64 351.93L567.91 352.57 567.91 352.57 567.64 351.93Z"
fill-rule="evenodd" fill="black"/>
<path d="M563.15 353.13L567.64 351.93 567.64 351.93 563.15 353.13Z"
fill-rule="evenodd" fill="black"/>
<path d="M563.88 354.89L565.04 356.4 568.33 353.12 567.91 352.57 563.88 354.89Z"
fill-rule="evenodd" fill="black"/>
<path d="M567.91 352.57L568.33 353.12 565.04 356.4 563.88 354.89 567.91 352.57Z"
fill-rule="evenodd" fill="black"/>
<path d="M565.04 356.4L563.88 354.89 563.88 354.89 565.04 356.4Z"
fill-rule="evenodd" fill="black"/>
<path d="M568.33 353.12L565.04 356.4 565.04 356.4 568.33 353.12Z"
fill-rule="evenodd" fill="black"/>
<path d="M567.91 352.57L568.33 353.12 568.33 353.12 567.91 352.57Z"
fill-rule="evenodd" fill="black"/>
<path d="M563.88 354.89L567.91 352.57 567.91 352.57 563.88 354.89Z"
fill-rule="evenodd" fill="black"/>
<path d="M565.04 356.4L566.55 357.56 568.88 353.54 568.33 353.12 565.04 356.4Z"
fill-rule="evenodd" fill="black"/>
<path d="M568.33 353.12L568.88 353.54 566.55 357.56 565.04 356.4 568.33 353.12Z"
fill-rule="evenodd" fill="black"/>
<path d="M566.55 357.56L565.04 356.4 565.04 356.4 566.55 357.56Z"
fill-rule="evenodd" fill="black"/>
<path d="M568.88 353.54L566.55 357.56 566.55 357.56 568.88 353.54Z"
fill-rule="evenodd" fill="black"/>
<path d="M568.33 353.12L568.88 353.54 568.88 353.54 568.33 353.12Z"
fill-rule="evenodd" fill="black"/>
<path d="M565.04 356.4L568.33 353.12 568.33 353.12 565.04 356.4Z"
fill-rule="evenodd" fill="black"/>
<path d="M566.55 357.56L568.31 358.29 569.51 353.8 568.88 353.54 566.55 357.56Z"
fill-rule="evenodd" fill="black"/>
<path d="M568.88 353.54L569.51 353.8 568.31 358.29 566.55 357.56 568.88 353.54Z"
fill-rule="evenodd" fill="black"/>
<path d="M568.31 358.29L566.55 357.56 566.55 357.56 568.31 358.29Z"
fill-rule="evenodd" fill="black"/>
<path d="M569.51 353.8L568.31 358.29 568.31 358.29 569.51 353.8Z"
fill-rule="evenodd" fill="black"/>
<path d="M568.88 353.54L569.51 353.8 569.51 353.8 568.88 353.54Z"
fill-rule="evenodd" fill="black"/>
<path d="M566.55 357.56L568.88 353.54 568.88 353.54 566.55 357.56Z"
fill-rule="evenodd" fill="black"/>
<path d="M568.31 358.29L570.2 358.54 570.2 353.89 569.51 353.8 568.31 358.29Z"
fill-rule="evenodd" fill="black"/>
<path d="M569.51 353.8L570.2 353.89 570.2 358.54 568.31 358.29 569.51 353.8Z"
fill-rule="evenodd" fill="black"/>
<path d="M570.2 358.54L568.31 358.29 568.31 358.29 570.2 358.54Z"
fill-rule="evenodd" fill="black"/>
<path d="M570.2 353.89L570.2 358.54 570.2 358.54 570.2 353.89Z"
fill-rule="evenodd" fill="black"/>
<path d="M569.51 353.8L570.2 353.89 570.2 353.89 569.51 353.8Z"
fill-rule="evenodd" fill="black"/>
<path d="M568.31 358.29L569.51 353.8 569.51 353.8 568.31 358.29Z"
fill-rule="evenodd" fill="black"/>
<path d="M572.52 598.3L567.88 598.3 567.88 426.44 572.52 425.2 572.52 598.3Z"
fill-rule="evenodd" fill="black"/>
<path d="M572.52 598.3L567.88 598.3 567.88 598.3 572.52 598.3Z"
fill-rule="evenodd" fill="black"/>
<path d="M572.52 598.3L567.88 598.3 567.88 426.44 572.52 425.2 572.52 598.3Z"
fill-rule="evenodd" fill="black"/>
<path d="M567.88 426.44L572.52 425.2 572.52 425.2 567.88 426.44Z"
fill-rule="evenodd" fill="black"/>
<path d="M572.52 598.3L572.52 425.2 572.52 425.2 572.52 598.3Z"
fill-rule="evenodd" fill="black"/>
<path d="M567.88 598.3L567.88 426.44 567.88 426.44 567.88 598.3Z"
fill-rule="evenodd" fill="black"/>
<path d="M572.52 425.2L567.88 426.44 522.26 347.44 526.29 345.11 572.52 425.2Z"
fill-rule="evenodd" fill="black"/>
<path d="M572.52 425.2L567.88 426.44 567.88 426.44 572.52 425.2Z"
fill-rule="evenodd" fill="black"/>
<path d="M572.52 425.2L567.88 426.44 522.26 347.44 526.29 345.11 572.52 425.2Z"
fill-rule="evenodd" fill="black"/>
<path d="M522.26 347.44L526.29 345.11 526.29 345.11 522.26 347.44Z"
fill-rule="evenodd" fill="black"/>
<path d="M572.52 425.2L526.29 345.11 526.29 345.11 572.52 425.2Z"
fill-rule="evenodd" fill="black"/>
<path d="M567.88 426.44L522.26 347.44 522.26 347.44 567.88 426.44Z"
fill-rule="evenodd" fill="black"/>
<path d="M570.2 244.76L572.09 245.01 570.88 249.5 570.2 249.41 570.2 244.76Z"
fill-rule="evenodd" fill="black"/>
<path d="M570.2 249.41L570.88 249.5 572.09 245.01 570.2 244.76 570.2 249.41Z"
fill-rule="evenodd" fill="black"/>
<path d="M572.09 245.01L570.2 244.76 570.2 244.76 572.09 245.01Z"
fill-rule="evenodd" fill="black"/>
<path d="M570.88 249.5L572.09 245.01 572.09 245.01 570.88 249.5Z"
fill-rule="evenodd" fill="black"/>
<path d="M570.2 249.41L570.88 249.5 570.88 249.5 570.2 249.41Z"
fill-rule="evenodd" fill="black"/>
<path d="M570.2 244.76L570.2 249.41 570.2 249.41 570.2 244.76Z"
fill-rule="evenodd" fill="black"/>
<path d="M572.09 245.01L573.85 245.73 571.52 249.76 570.88 249.5 572.09 245.01Z"
fill-rule="evenodd" fill="black"/>
<path d="M570.88 249.5L571.52 249.76 573.85 245.73 572.09 245.01 570.88 249.5Z"
fill-rule="evenodd" fill="black"/>
<path d="M573.85 245.73L572.09 245.01 572.09 245.01 573.85 245.73Z"
fill-rule="evenodd" fill="black"/>
<path d="M571.52 249.76L573.85 245.73 573.85 245.73 571.52 249.76Z"
fill-rule="evenodd" fill="black"/>
<path d="M570.88 249.5L571.52 249.76 571.52 249.76 570.88 249.5Z"
fill-rule="evenodd" fill="black"/>
<path d="M572.09 245.01L570.88 249.5 570.88 249.5 572.09 245.01Z"
fill-rule="evenodd" fill="black"/>
<path d="M573.85 245.73L575.36 246.89 572.07 250.18 571.52 249.76 573.85 245.73Z"
fill-rule="evenodd" fill="black"/>
<path d="M571.52 249.76L572.07 250.18 575.36 246.89 573.85 245.73 571.52 249.76Z"
fill-rule="evenodd" fill="black"/>
<path d="M575.36 246.89L573.85 245.73 573.85 245.73 575.36 246.89Z"
fill-rule="evenodd" fill="black"/>
<path d="M572.07 250.18L575.36 246.89 575.36 246.89 572.07 250.18Z"
fill-rule="evenodd" fill="black"/>
<path d="M571.52 249.76L572.07 250.18 572.07 250.18 571.52 249.76Z"
fill-rule="evenodd" fill="black"/>
<path d="M573.85 245.73L571.52 249.76 571.52 249.76 573.85 245.73Z"
fill-rule="evenodd" fill="black"/>
<path d="M575.36 246.89L576.51 248.4 572.49 250.73 572.07 250.18 575.36 246.89Z"
fill-rule="evenodd" fill="black"/>
<path d="M572.07 250.18L572.49 250.73 576.51 248.4 575.36 246.89 572.07 250.18Z"
fill-rule="evenodd" fill="black"/>
<path d="M576.51 248.4L575.36 246.89 575.36 246.89 576.51 248.4Z"
fill-rule="evenodd" fill="black"/>
<path d="M572.49 250.73L576.51 248.4 576.51 248.4 572.49 250.73Z"
fill-rule="evenodd" fill="black"/>
<path d="M572.07 250.18L572.49 250.73 572.49 250.73 572.07 250.18Z"
fill-rule="evenodd" fill="black"/>
<path d="M575.36 246.89L572.07 250.18 572.07 250.18 575.36 246.89Z"
fill-rule="evenodd" fill="black"/>
<path d="M576.51 248.4L577.24 250.16 572.75 251.36 572.49 250.73 576.51 248.4Z"
fill-rule="evenodd" fill="black"/>
<path d="M572.49 250.73L572.75 251.36 577.24 250.16 576.51 248.4 572.49 250.73Z"
fill-rule="evenodd" fill="black"/>
<path d="M577.24 250.16L576.51 248.4 576.51 248.4 577.24 250.16Z"
fill-rule="evenodd" fill="black"/>
<path d="M572.75 251.36L577.24 250.16 577.24 250.16 572.75 251.36Z"
fill-rule="evenodd" fill="black"/>
<path d="M572.49 250.73L572.75 251.36 572.75 251.36 572.49 250.73Z"
fill-rule="evenodd" fill="black"/>
<path d="M576.51 248.4L572.49 250.73 572.49 250.73 576.51 248.4Z"
fill-rule="evenodd" fill="black"/>
<path d="M577.24 250.16L577.49 252.05 572.84 252.05 572.75 251.36 577.24 250.16Z"
fill-rule="evenodd" fill="black"/>
<path d="M572.75 251.36L572.84 252.05 577.49 252.05 577.24 250.16 572.75 251.36Z"
fill-rule="evenodd" fill="black"/>
<path d="M577.49 252.05L577.24 250.16 577.24 250.16 577.49 252.05Z"
fill-rule="evenodd" fill="black"/>
<path d="M572.84 252.05L577.49 252.05 577.49 252.05 572.84 252.05Z"
fill-rule="evenodd" fill="black"/>
<path d="M572.75 251.36L572.84 252.05 572.84 252.05 572.75 251.36Z"
fill-rule="evenodd" fill="black"/>
<path d="M577.24 250.16L572.75 251.36 572.75 251.36 577.24 250.16Z"
fill-rule="evenodd" fill="black"/>
<path d="M577.49 252.05L577.24 253.93 572.75 252.73 572.84 252.05 577.49 252.05Z"
fill-rule="evenodd" fill="black"/>
<path d="M572.84 252.05L572.75 252.73 577.24 253.93 577.49 252.05 572.84 252.05Z"
fill-rule="evenodd" fill="black"/>
<path d="M577.24 253.93L577.49 252.05 577.49 252.05 577.24 253.93Z"
fill-rule="evenodd" fill="black"/>
<path d="M572.75 252.73L577.24 253.93 577.24 253.93 572.75 252.73Z"
fill-rule="evenodd" fill="black"/>
<path d="M572.84 252.05L572.75 252.73 572.75 252.73 572.84 252.05Z"
fill-rule="evenodd" fill="black"/>
<path d="M577.49 252.05L572.84 252.05 572.84 252.05 577.49 252.05Z"
fill-rule="evenodd" fill="black"/>
<path d="M577.24 253.93L576.51 255.69 572.49 253.37 572.75 252.73 577.24 253.93Z"
fill-rule="evenodd" fill="black"/>
<path d="M572.75 252.73L572.49 253.37 576.51 255.69 577.24 253.93 572.75 252.73Z"
fill-rule="evenodd" fill="black"/>
<path d="M576.51 255.69L577.24 253.93 577.24 253.93 576.51 255.69Z"
fill-rule="evenodd" fill="black"/>
<path d="M572.49 253.37L576.51 255.69 576.51 255.69 572.49 253.37Z"
fill-rule="evenodd" fill="black"/>
<path d="M572.75 252.73L572.49 253.37 572.49 253.37 572.75 252.73Z"
fill-rule="evenodd" fill="black"/>
<path d="M577.24 253.93L572.75 252.73 572.75 252.73 577.24 253.93Z"
fill-rule="evenodd" fill="black"/>
<path d="M576.51 255.69L575.36 257.2 572.07 253.92 572.49 253.37 576.51 255.69Z"
fill-rule="evenodd" fill="black"/>
<path d="M572.49 253.37L572.07 253.92 575.36 257.2 576.51 255.69 572.49 253.37Z"
fill-rule="evenodd" fill="black"/>
<path d="M575.36 257.2L576.51 255.69 576.51 255.69 575.36 257.2Z"
fill-rule="evenodd" fill="black"/>
<path d="M572.07 253.92L575.36 257.2 575.36 257.2 572.07 253.92Z"
fill-rule="evenodd" fill="black"/>
<path d="M572.49 253.37L572.07 253.92 572.07 253.92 572.49 253.37Z"
fill-rule="evenodd" fill="black"/>
<path d="M576.51 255.69L572.49 253.37 572.49 253.37 576.51 255.69Z"
fill-rule="evenodd" fill="black"/>
<path d="M575.36 257.2L573.85 258.36 571.52 254.34 572.07 253.92 575.36 257.2Z"
fill-rule="evenodd" fill="black"/>
<path d="M572.07 253.92L571.52 254.34 573.85 258.36 575.36 257.2 572.07 253.92Z"
fill-rule="evenodd" fill="black"/>
<path d="M573.85 258.36L575.36 257.2 575.36 257.2 573.85 258.36Z"
fill-rule="evenodd" fill="black"/>
<path d="M571.52 254.34L573.85 258.36 573.85 258.36 571.52 254.34Z"
fill-rule="evenodd" fill="black"/>
<path d="M572.07 253.92L571.52 254.34 571.52 254.34 572.07 253.92Z"
fill-rule="evenodd" fill="black"/>
<path d="M575.36 257.2L572.07 253.92 572.07 253.92 575.36 257.2Z"
fill-rule="evenodd" fill="black"/>
<path d="M573.85 258.36L572.09 259.09 570.88 254.6 571.52 254.34 573.85 258.36Z"
fill-rule="evenodd" fill="black"/>
<path d="M571.52 254.34L570.88 254.6 572.09 259.09 573.85 258.36 571.52 254.34Z"
fill-rule="evenodd" fill="black"/>
<path d="M572.09 259.09L573.85 258.36 573.85 258.36 572.09 259.09Z"
fill-rule="evenodd" fill="black"/>
<path d="M570.88 254.6L572.09 259.09 572.09 259.09 570.88 254.6Z"
fill-rule="evenodd" fill="black"/>
<path d="M571.52 254.34L570.88 254.6 570.88 254.6 571.52 254.34Z"
fill-rule="evenodd" fill="black"/>
<path d="M573.85 258.36L571.52 254.34 571.52 254.34 573.85 258.36Z"
fill-rule="evenodd" fill="black"/>
<path d="M572.09 259.09L570.2 259.34 570.2 254.69 570.88 254.6 572.09 259.09Z"
fill-rule="evenodd" fill="black"/>
<path d="M570.88 254.6L570.2 254.69 570.2 259.34 572.09 259.09 570.88 254.6Z"
fill-rule="evenodd" fill="black"/>
<path d="M570.2 259.34L572.09 259.09 572.09 259.09 570.2 259.34Z"
fill-rule="evenodd" fill="black"/>
<path d="M570.2 254.69L570.2 259.34 570.2 259.34 570.2 254.69Z"
fill-rule="evenodd" fill="black"/>
<path d="M570.88 254.6L570.2 254.69 570.2 254.69 570.88 254.6Z"
fill-rule="evenodd" fill="black"/>
<path d="M572.09 259.09L570.88 254.6 570.88 254.6 572.09 259.09Z"
fill-rule="evenodd" fill="black"/>
<path d="M570.2 259.34L568.31 259.09 569.51 254.6 570.2 254.69 570.2 259.34Z"
fill-rule="evenodd" fill="black"/>
<path d="M570.2 254.69L569.51 254.6 568.31 259.09 570.2 259.34 570.2 254.69Z"
fill-rule="evenodd" fill="black"/>
<path d="M568.31 259.09L570.2 259.34 570.2 259.34 568.31 259.09Z"
fill-rule="evenodd" fill="black"/>
<path d="M569.51 254.6L568.31 259.09 568.31 259.09 569.51 254.6Z"
fill-rule="evenodd" fill="black"/>
<path d="M570.2 254.69L569.51 254.6 569.51 254.6 570.2 254.69Z"
fill-rule="evenodd" fill="black"/>
<path d="M570.2 259.34L570.2 254.69 570.2 254.69 570.2 259.34Z"
fill-rule="evenodd" fill="black"/>
<path d="M568.31 259.09L566.55 258.36 568.88 254.34 569.51 254.6 568.31 259.09Z"
fill-rule="evenodd" fill="black"/>
<path d="M569.51 254.6L568.88 254.34 566.55 258.36 568.31 259.09 569.51 254.6Z"
fill-rule="evenodd" fill="black"/>
<path d="M566.55 258.36L568.31 259.09 568.31 259.09 566.55 258.36Z"
fill-rule="evenodd" fill="black"/>
<path d="M568.88 254.34L566.55 258.36 566.55 258.36 568.88 254.34Z"
fill-rule="evenodd" fill="black"/>
<path d="M569.51 254.6L568.88 254.34 568.88 254.34 569.51 254.6Z"
fill-rule="evenodd" fill="black"/>
<path d="M568.31 259.09L569.51 254.6 569.51 254.6 568.31 259.09Z"
fill-rule="evenodd" fill="black"/>
<path d="M566.55 258.36L565.04 257.2 568.33 253.91 568.88 254.34 566.55 258.36Z"
fill-rule="evenodd" fill="black"/>
<path d="M568.88 254.34L568.33 253.91 565.04 257.2 566.55 258.36 568.88 254.34Z"
fill-rule="evenodd" fill="black"/>
<path d="M565.04 257.2L566.55 258.36 566.55 258.36 565.04 257.2Z"
fill-rule="evenodd" fill="black"/>
<path d="M568.33 253.91L565.04 257.2 565.04 257.2 568.33 253.91Z"
fill-rule="evenodd" fill="black"/>
<path d="M568.88 254.34L568.33 253.91 568.33 253.91 568.88 254.34Z"
fill-rule="evenodd" fill="black"/>
<path d="M566.55 258.36L568.88 254.34 568.88 254.34 566.55 258.36Z"
fill-rule="evenodd" fill="black"/>
<path d="M565.04 257.2L563.88 255.69 567.91 253.37 568.33 253.91 565.04 257.2Z"
fill-rule="evenodd" fill="black"/>
<path d="M568.33 253.91L567.91 253.37 563.88 255.69 565.04 257.2 568.33 253.91Z"
fill-rule="evenodd" fill="black"/>
<path d="M563.88 255.69L565.04 257.2 565.04 257.2 563.88 255.69Z"
fill-rule="evenodd" fill="black"/>
<path d="M567.91 253.37L563.88 255.69 563.88 255.69 567.91 253.37Z"
fill-rule="evenodd" fill="black"/>
<path d="M568.33 253.91L567.91 253.37 567.91 253.37 568.33 253.91Z"
fill-rule="evenodd" fill="black"/>
<path d="M565.04 257.2L568.33 253.91 568.33 253.91 565.04 257.2Z"
fill-rule="evenodd" fill="black"/>
<path d="M563.88 255.69L563.15 253.93 567.64 252.73 567.91 253.37 563.88 255.69Z"
fill-rule="evenodd" fill="black"/>
<path d="M567.91 253.37L567.64 252.73 563.15 253.93 563.88 255.69 567.91 253.37Z"
fill-rule="evenodd" fill="black"/>
<path d="M563.15 253.93L563.88 255.69 563.88 255.69 563.15 253.93Z"
fill-rule="evenodd" fill="black"/>
<path d="M567.64 252.73L563.15 253.93 563.15 253.93 567.64 252.73Z"
fill-rule="evenodd" fill="black"/>
<path d="M567.91 253.37L567.64 252.73 567.64 252.73 567.91 253.37Z"
fill-rule="evenodd" fill="black"/>
<path d="M563.88 255.69L567.91 253.37 567.91 253.37 563.88 255.69Z"
fill-rule="evenodd" fill="black"/>
<path d="M563.15 253.93L562.9 252.04 567.55 252.04 567.64 252.73 563.15 253.93Z"
fill-rule="evenodd" fill="black"/>
<path d="M567.64 252.73L567.55 252.04 562.9 252.04 563.15 253.93 567.64 252.73Z"
fill-rule="evenodd" fill="black"/>
<path d="M562.9 252.04L563.15 253.93 563.15 253.93 562.9 252.04Z"
fill-rule="evenodd" fill="black"/>
<path d="M567.55 252.04L562.9 252.04 562.9 252.04 567.55 252.04Z"
fill-rule="evenodd" fill="black"/>
<path d="M567.64 252.73L567.55 252.04 567.55 252.04 567.64 252.73Z"
fill-rule="evenodd" fill="black"/>
<path d="M563.15 253.93L567.64 252.73 567.64 252.73 563.15 253.93Z"
fill-rule="evenodd" fill="black"/>
<path d="M562.9 252.04L563.15 250.15 567.64 251.36 567.55 252.04 562.9 252.04Z"
fill-rule="evenodd" fill="black"/>
<path d="M567.55 252.04L567.64 251.36 563.15 250.15 562.9 252.04 567.55 252.04Z"
fill-rule="evenodd" fill="black"/>
<path d="M563.15 250.15L562.9 252.04 562.9 252.04 563.15 250.15Z"
fill-rule="evenodd" fill="black"/>
<path d="M567.64 251.36L563.15 250.15 563.15 250.15 567.64 251.36Z"
fill-rule="evenodd" fill="black"/>
<path d="M567.55 252.04L567.64 251.36 567.64 251.36 567.55 252.04Z"
fill-rule="evenodd" fill="black"/>
<path d="M562.9 252.04L567.55 252.04 567.55 252.04 562.9 252.04Z"
fill-rule="evenodd" fill="black"/>
<path d="M563.15 250.15L563.88 248.39 567.91 250.72 567.64 251.36 563.15 250.15Z"
fill-rule="evenodd" fill="black"/>
<path d="M567.64 251.36L567.91 250.72 563.88 248.39 563.15 250.15 567.64 251.36Z"
fill-rule="evenodd" fill="black"/>
<path d="M563.88 248.39L563.15 250.15 563.15 250.15 563.88 248.39Z"
fill-rule="evenodd" fill="black"/>
<path d="M567.91 250.72L563.88 248.39 563.88 248.39 567.91 250.72Z"
fill-rule="evenodd" fill="black"/>
<path d="M567.64 251.36L567.91 250.72 567.91 250.72 567.64 251.36Z"
fill-rule="evenodd" fill="black"/>
<path d="M563.15 250.15L567.64 251.36 567.64 251.36 563.15 250.15Z"
fill-rule="evenodd" fill="black"/>
<path d="M563.88 248.39L565.04 246.88 568.33 250.17 567.91 250.72 563.88 248.39Z"
fill-rule="evenodd" fill="black"/>
<path d="M567.91 250.72L568.33 250.17 565.04 246.88 563.88 248.39 567.91 250.72Z"
fill-rule="evenodd" fill="black"/>
<path d="M565.04 246.88L563.88 248.39 563.88 248.39 565.04 246.88Z"
fill-rule="evenodd" fill="black"/>
<path d="M568.33 250.17L565.04 246.88 565.04 246.88 568.33 250.17Z"
fill-rule="evenodd" fill="black"/>
<path d="M567.91 250.72L568.33 250.17 568.33 250.17 567.91 250.72Z"
fill-rule="evenodd" fill="black"/>
<path d="M563.88 248.39L567.91 250.72 567.91 250.72 563.88 248.39Z"
fill-rule="evenodd" fill="black"/>
<path d="M565.04 246.88L566.55 245.72 568.88 249.75 568.33 250.17 565.04 246.88Z"
fill-rule="evenodd" fill="black"/>
<path d="M568.33 250.17L568.88 249.75 566.55 245.72 565.04 246.88 568.33 250.17Z"
fill-rule="evenodd" fill="black"/>
<path d="M566.55 245.72L565.04 246.88 565.04 246.88 566.55 245.72Z"
fill-rule="evenodd" fill="black"/>
<path d="M568.88 249.75L566.55 245.72 566.55 245.72 568.88 249.75Z"
fill-rule="evenodd" fill="black"/>
<path d="M568.33 250.17L568.88 249.75 568.88 249.75 568.33 250.17Z"
fill-rule="evenodd" fill="black"/>
<path d="M565.04 246.88L568.33 250.17 568.33 250.17 565.04 246.88Z"
fill-rule="evenodd" fill="black"/>
<path d="M566.55 245.72L568.31 245 569.51 249.49 568.88 249.75 566.55 245.72Z"
fill-rule="evenodd" fill="black"/>
<path d="M568.88 249.75L569.51 249.49 568.31 245 566.55 245.72 568.88 249.75Z"
fill-rule="evenodd" fill="black"/>
<path d="M568.31 245L566.55 245.72 566.55 245.72 568.31 245Z"
fill-rule="evenodd" fill="black"/>
<path d="M569.51 249.49L568.31 245 568.31 245 569.51 249.49Z"
fill-rule="evenodd" fill="black"/>
<path d="M568.88 249.75L569.51 249.49 569.51 249.49 568.88 249.75Z"
fill-rule="evenodd" fill="black"/>
<path d="M566.55 245.72L568.88 249.75 568.88 249.75 566.55 245.72Z"
fill-rule="evenodd" fill="black"/>
<path d="M568.31 245L570.2 244.75 570.2 249.4 569.51 249.49 568.31 245Z"
fill-rule="evenodd" fill="black"/>
<path d="M569.51 249.49L570.2 249.4 570.2 244.75 568.31 245 569.51 249.49Z"
fill-rule="evenodd" fill="black"/>
<path d="M570.2 244.75L568.31 245 568.31 245 570.2 244.75Z"
fill-rule="evenodd" fill="black"/>
<path d="M570.2 249.4L570.2 244.75 570.2 244.75 570.2 249.4Z"
fill-rule="evenodd" fill="black"/>
<path d="M569.51 249.49L570.2 249.4 570.2 249.4 569.51 249.49Z"
fill-rule="evenodd" fill="black"/>
<path d="M568.31 245L569.51 249.49 569.51 249.49 568.31 245Z"
fill-rule="evenodd" fill="black"/>
</svg>
