<?xml version="1.0" encoding="UTF-8"?>
<svg xmlns="http://www.w3.org/2000/svg" width="800.000" height="600.000" viewBox="0.0 0.0 800.000 600.000" version="1.1">
  <title>Produce by Acme CAD Converter</title>
  <desc>Produce by Acme CAD Converter</desc>
<path d="M608.88 454.51L613.51 454.51 613.51 541.71 608.88 537.08 608.88 454.51Z"
fill-rule="evenodd" fill="black"/>
<path d="M608.88 454.51L613.51 454.51 613.51 454.51 608.88 454.51Z"
fill-rule="evenodd" fill="black"/>
<path d="M608.88 454.51L613.51 454.51 613.51 541.71 608.88 537.08 608.88 454.51Z"
fill-rule="evenodd" fill="black"/>
<path d="M613.51 541.71L608.88 537.08 608.88 537.08 613.51 541.71Z"
fill-rule="evenodd" fill="black"/>
<path d="M608.88 454.51L608.88 537.08 608.88 537.08 608.88 454.51Z"
fill-rule="evenodd" fill="black"/>
<path d="M613.51 454.51L613.51 541.71 613.51 541.71 613.51 454.51Z"
fill-rule="evenodd" fill="black"/>
<path d="M608.88 537.08L613.51 541.71 540.45 541.71 540.45 537.08 608.88 537.08Z"
fill-rule="evenodd" fill="black"/>
<path d="M608.88 537.08L613.51 541.71 613.51 541.71 608.88 537.08Z"
fill-rule="evenodd" fill="black"/>
<path d="M608.88 537.08L613.51 541.71 540.45 541.71 540.45 537.08 608.88 537.08Z"
fill-rule="evenodd" fill="black"/>
<path d="M540.45 541.71L540.45 537.08 540.45 537.08 540.45 541.71Z"
fill-rule="evenodd" fill="black"/>
<path d="M608.88 537.08L540.45 537.08 540.45 537.08 608.88 537.08Z"
fill-rule="evenodd" fill="black"/>
<path d="M613.51 541.71L540.45 541.71 540.45 541.71 613.51 541.71Z"
fill-rule="evenodd" fill="black"/>
<path d="M540.45 541.71L540.45 537.08 681.93 537.08 681.93 541.71 540.45 541.71Z"
fill-rule="evenodd" fill="black"/>
<path d="M540.45 541.71L540.45 537.08 540.45 537.08 540.45 541.71Z"
fill-rule="evenodd" fill="black"/>
<path d="M540.45 541.71L540.45 537.08 681.93 537.08 681.93 541.71 540.45 541.71Z"
fill-rule="evenodd" fill="black"/>
<path d="M681.93 537.08L681.93 541.71 681.93 541.71 681.93 537.08Z"
fill-rule="evenodd" fill="black"/>
<path d="M540.45 541.71L681.93 541.71 681.93 541.71 540.45 541.71Z"
fill-rule="evenodd" fill="black"/>
<path d="M540.45 537.08L681.93 537.08 681.93 537.08 540.45 537.08Z"
fill-rule="evenodd" fill="black"/>
<path d="M568.75 570.01L568.75 565.38 653.64 565.38 653.64 570.01 568.75 570.01Z"
fill-rule="evenodd" fill="black"/>
<path d="M568.75 570.01L568.75 565.38 568.75 565.38 568.75 570.01Z"
fill-rule="evenodd" fill="black"/>
<path d="M568.75 570.01L568.75 565.38 653.64 565.38 653.64 570.01 568.75 570.01Z"
fill-rule="evenodd" fill="black"/>
<path d="M653.64 565.38L653.64 570.01 653.64 570.01 653.64 565.38Z"
fill-rule="evenodd" fill="black"/>
<path d="M568.75 570.01L653.64 570.01 653.64 570.01 568.75 570.01Z"
fill-rule="evenodd" fill="black"/>
<path d="M568.75 565.38L653.64 565.38 653.64 565.38 568.75 565.38Z"
fill-rule="evenodd" fill="black"/>
<path d="M597.04 598.3L597.04 593.67 625.34 593.67 625.34 598.3 597.04 598.3Z"
fill-rule="evenodd" fill="black"/>
<path d="M597.04 598.3L597.04 593.67 597.04 593.67 597.04 598.3Z"
fill-rule="evenodd" fill="black"/>
<path d="M597.04 598.3L597.04 593.67 625.34 593.67 625.34 598.3 597.04 598.3Z"
fill-rule="evenodd" fill="black"/>
<path d="M625.34 593.67L625.34 598.3 625.34 598.3 625.34 593.67Z"
fill-rule="evenodd" fill="black"/>
<path d="M597.04 598.3L625.34 598.3 625.34 598.3 597.04 598.3Z"
fill-rule="evenodd" fill="black"/>
<path d="M597.04 593.67L625.34 593.67 625.34 593.67 597.04 593.67Z"
fill-rule="evenodd" fill="black"/>
<path d="M99.93 1.7L104.56 1.7 104.56 171.47 99.93 171.47 99.93 1.7Z"
fill-rule="evenodd" fill="black"/>
<path d="M99.93 1.7L104.56 1.7 104.56 1.7 99.93 1.7Z"
fill-rule="evenodd" fill="black"/>
<path d="M99.93 1.7L104.56 1.7 104.56 171.47 99.93 171.47 99.93 1.7Z"
fill-rule="evenodd" fill="black"/>
<path d="M104.56 171.47L99.93 171.47 99.93 171.47 104.56 171.47Z"
fill-rule="evenodd" fill="black"/>
<path d="M99.93 1.7L99.93 171.47 99.93 171.47 99.93 1.7Z"
fill-rule="evenodd" fill="black"/>
<path d="M104.56 1.7L104.56 171.47 104.56 171.47 104.56 1.7Z"
fill-rule="evenodd" fill="black"/>
<path d="M130.02 86.59L129.82 89.93 125.22 89.38 125.39 86.59 130.02 86.59Z"
fill-rule="evenodd" fill="black"/>
<path d="M125.39 86.59L125.22 89.38 129.82 89.93 130.02 86.59 125.39 86.59Z"
fill-rule="evenodd" fill="black"/>
<path d="M129.82 89.93L130.02 86.59 130.02 86.59 129.82 89.93Z"
fill-rule="evenodd" fill="black"/>
<path d="M125.22 89.38L129.82 89.93 129.82 89.93 125.22 89.38Z"
fill-rule="evenodd" fill="black"/>
<path d="M125.39 86.59L125.22 89.38 125.22 89.38 125.39 86.59Z"
fill-rule="evenodd" fill="black"/>
<path d="M130.02 86.59L125.39 86.59 125.39 86.59 130.02 86.59Z"
fill-rule="evenodd" fill="black"/>
<path d="M129.82 89.93L129.22 93.23 124.72 92.13 125.22 89.38 129.82 89.93Z"
fill-rule="evenodd" fill="black"/>
<path d="M125.22 89.38L124.72 92.13 129.22 93.23 129.82 89.93 125.22 89.38Z"
fill-rule="evenodd" fill="black"/>
<path d="M129.22 93.23L129.82 89.93 129.82 89.93 129.22 93.23Z"
fill-rule="evenodd" fill="black"/>
<path d="M124.72 92.13L129.22 93.23 129.22 93.23 124.72 92.13Z"
fill-rule="evenodd" fill="black"/>
<path d="M125.22 89.38L124.72 92.13 124.72 92.13 125.22 89.38Z"
fill-rule="evenodd" fill="black"/>
<path d="M129.82 89.93L125.22 89.38 125.22 89.38 129.82 89.93Z"
fill-rule="evenodd" fill="black"/>
<path d="M129.22 93.23L128.22 96.44 123.89 94.79 124.72 92.13 129.22 93.23Z"
fill-rule="evenodd" fill="black"/>
<path d="M124.72 92.13L123.89 94.79 128.22 96.44 129.22 93.23 124.72 92.13Z"
fill-rule="evenodd" fill="black"/>
<path d="M128.22 96.44L129.22 93.23 129.22 93.23 128.22 96.44Z"
fill-rule="evenodd" fill="black"/>
<path d="M123.89 94.79L128.22 96.44 128.22 96.44 123.89 94.79Z"
fill-rule="evenodd" fill="black"/>
<path d="M124.72 92.13L123.89 94.79 123.89 94.79 124.72 92.13Z"
fill-rule="evenodd" fill="black"/>
<path d="M129.22 93.23L124.72 92.13 124.72 92.13 129.22 93.23Z"
fill-rule="evenodd" fill="black"/>
<path d="M128.22 96.44L126.84 99.5 122.74 97.34 123.89 94.79 128.22 96.44Z"
fill-rule="evenodd" fill="black"/>
<path d="M123.89 94.79L122.74 97.34 126.84 99.5 128.22 96.44 123.89 94.79Z"
fill-rule="evenodd" fill="black"/>
<path d="M126.84 99.5L128.22 96.44 128.22 96.44 126.84 99.5Z"
fill-rule="evenodd" fill="black"/>
<path d="M122.74 97.34L126.84 99.5 126.84 99.5 122.74 97.34Z"
fill-rule="evenodd" fill="black"/>
<path d="M123.89 94.79L122.74 97.34 122.74 97.34 123.89 94.79Z"
fill-rule="evenodd" fill="black"/>
<path d="M128.22 96.44L123.89 94.79 123.89 94.79 128.22 96.44Z"
fill-rule="evenodd" fill="black"/>
<path d="M126.84 99.5L125.11 102.37 121.3 99.74 122.74 97.34 126.84 99.5Z"
fill-rule="evenodd" fill="black"/>
<path d="M122.74 97.34L121.3 99.74 125.11 102.37 126.84 99.5 122.74 97.34Z"
fill-rule="evenodd" fill="black"/>
<path d="M125.11 102.37L126.84 99.5 126.84 99.5 125.11 102.37Z"
fill-rule="evenodd" fill="black"/>
<path d="M121.3 99.74L125.11 102.37 125.11 102.37 121.3 99.74Z"
fill-rule="evenodd" fill="black"/>
<path d="M122.74 97.34L121.3 99.74 121.3 99.74 122.74 97.34Z"
fill-rule="evenodd" fill="black"/>
<path d="M126.84 99.5L122.74 97.34 122.74 97.34 126.84 99.5Z"
fill-rule="evenodd" fill="black"/>
<path d="M125.11 102.37L123.04 105.01 119.57 101.94 121.3 99.74 125.11 102.37Z"
fill-rule="evenodd" fill="black"/>
<path d="M121.3 99.74L119.57 101.94 123.04 105.01 125.11 102.37 121.3 99.74Z"
fill-rule="evenodd" fill="black"/>
<path d="M123.04 105.01L125.11 102.37 125.11 102.37 123.04 105.01Z"
fill-rule="evenodd" fill="black"/>
<path d="M119.57 101.94L123.04 105.01 123.04 105.01 119.57 101.94Z"
fill-rule="evenodd" fill="black"/>
<path d="M121.3 99.74L119.57 101.94 119.57 101.94 121.3 99.74Z"
fill-rule="evenodd" fill="black"/>
<path d="M125.11 102.37L121.3 99.74 121.3 99.74 125.11 102.37Z"
fill-rule="evenodd" fill="black"/>
<path d="M123.04 105.01L120.67 107.38 117.59 103.91 119.57 101.94 123.04 105.01Z"
fill-rule="evenodd" fill="black"/>
<path d="M119.57 101.94L117.59 103.91 120.67 107.38 123.04 105.01 119.57 101.94Z"
fill-rule="evenodd" fill="black"/>
<path d="M120.67 107.38L123.04 105.01 123.04 105.01 120.67 107.38Z"
fill-rule="evenodd" fill="black"/>
<path d="M117.59 103.91L120.67 107.38 120.67 107.38 117.59 103.91Z"
fill-rule="evenodd" fill="black"/>
<path d="M119.57 101.94L117.59 103.91 117.59 103.91 119.57 101.94Z"
fill-rule="evenodd" fill="black"/>
<path d="M123.04 105.01L119.57 101.94 119.57 101.94 123.04 105.01Z"
fill-rule="evenodd" fill="black"/>
<path d="M120.67 107.38L118.02 109.45 115.39 105.64 117.59 103.91 120.67 107.38Z"
fill-rule="evenodd" fill="black"/>
<path d="M117.59 103.91L115.39 105.64 118.02 109.45 120.67 107.38 117.59 103.91Z"
fill-rule="evenodd" fill="black"/>
<path d="M118.02 109.45L120.67 107.38 120.67 107.38 118.02 109.45Z"
fill-rule="evenodd" fill="black"/>
<path d="M115.39 105.64L118.02 109.45 118.02 109.45 115.39 105.64Z"
fill-rule="evenodd" fill="black"/>
<path d="M117.59 103.91L115.39 105.64 115.39 105.64 117.59 103.91Z"
fill-rule="evenodd" fill="black"/>
<path d="M120.67 107.38L117.59 103.91 117.59 103.91 120.67 107.38Z"
fill-rule="evenodd" fill="black"/>
<path d="M118.02 109.45L115.15 111.18 113 107.08 115.39 105.64 118.02 109.45Z"
fill-rule="evenodd" fill="black"/>
<path d="M115.39 105.64L113 107.08 115.15 111.18 118.02 109.45 115.39 105.64Z"
fill-rule="evenodd" fill="black"/>
<path d="M115.15 111.18L118.02 109.45 118.02 109.45 115.15 111.18Z"
fill-rule="evenodd" fill="black"/>
<path d="M113 107.08L115.15 111.18 115.15 111.18 113 107.08Z"
fill-rule="evenodd" fill="black"/>
<path d="M115.39 105.64L113 107.08 113 107.08 115.39 105.64Z"
fill-rule="evenodd" fill="black"/>
<path d="M118.02 109.45L115.39 105.64 115.39 105.64 118.02 109.45Z"
fill-rule="evenodd" fill="black"/>
<path d="M115.15 111.18L112.09 112.56 110.45 108.23 113 107.08 115.15 111.18Z"
fill-rule="evenodd" fill="black"/>
<path d="M113 107.08L110.45 108.23 112.09 112.56 115.15 111.18 113 107.08Z"
fill-rule="evenodd" fill="black"/>
<path d="M112.09 112.56L115.15 111.18 115.15 111.18 112.09 112.56Z"
fill-rule="evenodd" fill="black"/>
<path d="M110.45 108.23L112.09 112.56 112.09 112.56 110.45 108.23Z"
fill-rule="evenodd" fill="black"/>
<path d="M113 107.08L110.45 108.23 110.45 108.23 113 107.08Z"
fill-rule="evenodd" fill="black"/>
<path d="M115.15 111.18L113 107.08 113 107.08 115.15 111.18Z"
fill-rule="evenodd" fill="black"/>
<path d="M112.09 112.56L108.89 113.56 107.78 109.06 110.45 108.23 112.09 112.56Z"
fill-rule="evenodd" fill="black"/>
<path d="M110.45 108.23L107.78 109.06 108.89 113.56 112.09 112.56 110.45 108.23Z"
fill-rule="evenodd" fill="black"/>
<path d="M108.89 113.56L112.09 112.56 112.09 112.56 108.89 113.56Z"
fill-rule="evenodd" fill="black"/>
<path d="M107.78 109.06L108.89 113.56 108.89 113.56 107.78 109.06Z"
fill-rule="evenodd" fill="black"/>
<path d="M110.45 108.23L107.78 109.06 107.78 109.06 110.45 108.23Z"
fill-rule="evenodd" fill="black"/>
<path d="M112.09 112.56L110.45 108.23 110.45 108.23 112.09 112.56Z"
fill-rule="evenodd" fill="black"/>
<path d="M108.89 113.56L105.59 114.16 105.03 109.57 107.78 109.06 108.89 113.56Z"
fill-rule="evenodd" fill="black"/>
<path d="M107.78 109.06L105.03 109.57 105.59 114.16 108.89 113.56 107.78 109.06Z"
fill-rule="evenodd" fill="black"/>
<path d="M105.59 114.16L108.89 113.56 108.89 113.56 105.59 114.16Z"
fill-rule="evenodd" fill="black"/>
<path d="M105.03 109.57L105.59 114.16 105.59 114.16 105.03 109.57Z"
fill-rule="evenodd" fill="black"/>
<path d="M107.78 109.06L105.03 109.57 105.03 109.57 107.78 109.06Z"
fill-rule="evenodd" fill="black"/>
<path d="M108.89 113.56L107.78 109.06 107.78 109.06 108.89 113.56Z"
fill-rule="evenodd" fill="black"/>
<path d="M105.59 114.16L102.24 114.37 102.24 109.74 105.03 109.57 105.59 114.16Z"
fill-rule="evenodd" fill="black"/>
<path d="M105.03 109.57L102.24 109.74 102.24 114.37 105.59 114.16 105.03 109.57Z"
fill-rule="evenodd" fill="black"/>
<path d="M102.24 114.37L105.59 114.16 105.59 114.16 102.24 114.37Z"
fill-rule="evenodd" fill="black"/>
<path d="M102.24 109.74L102.24 114.37 102.24 114.37 102.24 109.74Z"
fill-rule="evenodd" fill="black"/>
<path d="M105.03 109.57L102.24 109.74 102.24 109.74 105.03 109.57Z"
fill-rule="evenodd" fill="black"/>
<path d="M105.59 114.16L105.03 109.57 105.03 109.57 105.59 114.16Z"
fill-rule="evenodd" fill="black"/>
<path d="M102.24 114.37L98.89 114.16 99.45 109.57 102.24 109.74 102.24 114.37Z"
fill-rule="evenodd" fill="black"/>
<path d="M102.24 109.74L99.45 109.57 98.89 114.16 102.24 114.37 102.24 109.74Z"
fill-rule="evenodd" fill="black"/>
<path d="M98.89 114.16L102.24 114.37 102.24 114.37 98.89 114.16Z"
fill-rule="evenodd" fill="black"/>
<path d="M99.45 109.57L98.89 114.16 98.89 114.16 99.45 109.57Z"
fill-rule="evenodd" fill="black"/>
<path d="M102.24 109.74L99.45 109.57 99.45 109.57 102.24 109.74Z"
fill-rule="evenodd" fill="black"/>
<path d="M102.24 114.37L102.24 109.74 102.24 109.74 102.24 114.37Z"
fill-rule="evenodd" fill="black"/>
<path d="M98.89 114.16L95.59 113.56 96.7 109.06 99.45 109.57 98.89 114.16Z"
fill-rule="evenodd" fill="black"/>
<path d="M99.45 109.57L96.7 109.06 95.59 113.56 98.89 114.16 99.45 109.57Z"
fill-rule="evenodd" fill="black"/>
<path d="M95.59 113.56L98.89 114.16 98.89 114.16 95.59 113.56Z"
fill-rule="evenodd" fill="black"/>
<path d="M96.7 109.06L95.59 113.56 95.59 113.56 96.7 109.06Z"
fill-rule="evenodd" fill="black"/>
<path d="M99.45 109.57L96.7 109.06 96.7 109.06 99.45 109.57Z"
fill-rule="evenodd" fill="black"/>
<path d="M98.89 114.16L99.45 109.57 99.45 109.57 98.89 114.16Z"
fill-rule="evenodd" fill="black"/>
<path d="M95.59 113.56L92.39 112.56 94.03 108.23 96.7 109.06 95.59 113.56Z"
fill-rule="evenodd" fill="black"/>
<path d="M96.7 109.06L94.03 108.23 92.39 112.56 95.59 113.56 96.7 109.06Z"
fill-rule="evenodd" fill="black"/>
<path d="M92.39 112.56L95.59 113.56 95.59 113.56 92.39 112.56Z"
fill-rule="evenodd" fill="black"/>
<path d="M94.03 108.23L92.39 112.56 92.39 112.56 94.03 108.23Z"
fill-rule="evenodd" fill="black"/>
<path d="M96.7 109.06L94.03 108.23 94.03 108.23 96.7 109.06Z"
fill-rule="evenodd" fill="black"/>
<path d="M95.59 113.56L96.7 109.06 96.7 109.06 95.59 113.56Z"
fill-rule="evenodd" fill="black"/>
<path d="M92.39 112.56L89.33 111.18 91.48 107.08 94.03 108.23 92.39 112.56Z"
fill-rule="evenodd" fill="black"/>
<path d="M94.03 108.23L91.48 107.08 89.33 111.18 92.39 112.56 94.03 108.23Z"
fill-rule="evenodd" fill="black"/>
<path d="M89.33 111.18L92.39 112.56 92.39 112.56 89.33 111.18Z"
fill-rule="evenodd" fill="black"/>
<path d="M91.48 107.08L89.33 111.18 89.33 111.18 91.48 107.08Z"
fill-rule="evenodd" fill="black"/>
<path d="M94.03 108.23L91.48 107.08 91.48 107.08 94.03 108.23Z"
fill-rule="evenodd" fill="black"/>
<path d="M92.39 112.56L94.03 108.23 94.03 108.23 92.39 112.56Z"
fill-rule="evenodd" fill="black"/>
<path d="M89.33 111.18L86.46 109.45 89.09 105.64 91.48 107.08 89.33 111.18Z"
fill-rule="evenodd" fill="black"/>
<path d="M91.48 107.08L89.09 105.64 86.46 109.45 89.33 111.18 91.48 107.08Z"
fill-rule="evenodd" fill="black"/>
<path d="M86.46 109.45L89.33 111.18 89.33 111.18 86.46 109.45Z"
fill-rule="evenodd" fill="black"/>
<path d="M89.09 105.64L86.46 109.45 86.46 109.45 89.09 105.64Z"
fill-rule="evenodd" fill="black"/>
<path d="M91.48 107.08L89.09 105.64 89.09 105.64 91.48 107.08Z"
fill-rule="evenodd" fill="black"/>
<path d="M89.33 111.18L91.48 107.08 91.48 107.08 89.33 111.18Z"
fill-rule="evenodd" fill="black"/>
<path d="M86.46 109.45L83.82 107.38 86.89 103.91 89.09 105.64 86.46 109.45Z"
fill-rule="evenodd" fill="black"/>
<path d="M89.09 105.64L86.89 103.91 83.82 107.38 86.46 109.45 89.09 105.64Z"
fill-rule="evenodd" fill="black"/>
<path d="M83.82 107.38L86.46 109.45 86.46 109.45 83.82 107.38Z"
fill-rule="evenodd" fill="black"/>
<path d="M86.89 103.91L83.82 107.38 83.82 107.38 86.89 103.91Z"
fill-rule="evenodd" fill="black"/>
<path d="M89.09 105.64L86.89 103.91 86.89 103.91 89.09 105.64Z"
fill-rule="evenodd" fill="black"/>
<path d="M86.46 109.45L89.09 105.64 89.09 105.64 86.46 109.45Z"
fill-rule="evenodd" fill="black"/>
<path d="M83.82 107.38L81.45 105.01 84.91 101.94 86.89 103.91 83.82 107.38Z"
fill-rule="evenodd" fill="black"/>
<path d="M86.89 103.91L84.91 101.94 81.45 105.01 83.82 107.38 86.89 103.91Z"
fill-rule="evenodd" fill="black"/>
<path d="M81.45 105.01L83.82 107.38 83.82 107.38 81.45 105.01Z"
fill-rule="evenodd" fill="black"/>
<path d="M84.91 101.94L81.45 105.01 81.45 105.01 84.91 101.94Z"
fill-rule="evenodd" fill="black"/>
<path d="M86.89 103.91L84.91 101.94 84.91 101.94 86.89 103.91Z"
fill-rule="evenodd" fill="black"/>
<path d="M83.82 107.38L86.89 103.91 86.89 103.91 83.82 107.38Z"
fill-rule="evenodd" fill="black"/>
<path d="M81.45 105.01L79.38 102.37 83.19 99.74 84.91 101.94 81.45 105.01Z"
fill-rule="evenodd" fill="black"/>
<path d="M84.91 101.94L83.19 99.74 79.38 102.37 81.45 105.01 84.91 101.94Z"
fill-rule="evenodd" fill="black"/>
<path d="M79.38 102.37L81.45 105.01 81.45 105.01 79.38 102.37Z"
fill-rule="evenodd" fill="black"/>
<path d="M83.19 99.74L79.38 102.37 79.38 102.37 83.19 99.74Z"
fill-rule="evenodd" fill="black"/>
<path d="M84.91 101.94L83.19 99.74 83.19 99.74 84.91 101.94Z"
fill-rule="evenodd" fill="black"/>
<path d="M81.45 105.01L84.91 101.94 84.91 101.94 81.45 105.01Z"
fill-rule="evenodd" fill="black"/>
<path d="M79.38 102.37L77.64 99.5 81.74 97.34 83.19 99.74 79.38 102.37Z"
fill-rule="evenodd" fill="black"/>
<path d="M83.19 99.74L81.74 97.34 77.64 99.5 79.38 102.37 83.19 99.74Z"
fill-rule="evenodd" fill="black"/>
<path d="M77.64 99.5L79.38 102.37 79.38 102.37 77.64 99.5Z"
fill-rule="evenodd" fill="black"/>
<path d="M81.74 97.34L77.64 99.5 77.64 99.5 81.74 97.34Z"
fill-rule="evenodd" fill="black"/>
<path d="M83.19 99.74L81.74 97.34 81.74 97.34 83.19 99.74Z"
fill-rule="evenodd" fill="black"/>
<path d="M79.38 102.37L83.19 99.74 83.19 99.74 79.38 102.37Z"
fill-rule="evenodd" fill="black"/>
<path d="M77.64 99.5L76.27 96.44 80.6 94.79 81.74 97.34 77.64 99.5Z"
fill-rule="evenodd" fill="black"/>
<path d="M81.74 97.34L80.6 94.79 76.27 96.44 77.64 99.5 81.74 97.34Z"
fill-rule="evenodd" fill="black"/>
<path d="M76.27 96.44L77.64 99.5 77.64 99.5 76.27 96.44Z"
fill-rule="evenodd" fill="black"/>
<path d="M80.6 94.79L76.27 96.44 76.27 96.44 80.6 94.79Z"
fill-rule="evenodd" fill="black"/>
<path d="M81.74 97.34L80.6 94.79 80.6 94.79 81.74 97.34Z"
fill-rule="evenodd" fill="black"/>
<path d="M77.64 99.5L81.74 97.34 81.74 97.34 77.64 99.5Z"
fill-rule="evenodd" fill="black"/>
<path d="M76.27 96.44L75.27 93.23 79.76 92.13 80.6 94.79 76.27 96.44Z"
fill-rule="evenodd" fill="black"/>
<path d="M80.6 94.79L79.76 92.13 75.27 93.23 76.27 96.44 80.6 94.79Z"
fill-rule="evenodd" fill="black"/>
<path d="M75.27 93.23L76.27 96.44 76.27 96.44 75.27 93.23Z"
fill-rule="evenodd" fill="black"/>
<path d="M79.76 92.13L75.27 93.23 75.27 93.23 79.76 92.13Z"
fill-rule="evenodd" fill="black"/>
<path d="M80.6 94.79L79.76 92.13 79.76 92.13 80.6 94.79Z"
fill-rule="evenodd" fill="black"/>
<path d="M76.27 96.44L80.6 94.79 80.6 94.79 76.27 96.44Z"
fill-rule="evenodd" fill="black"/>
<path d="M75.27 93.23L74.66 89.93 79.26 89.38 79.76 92.13 75.27 93.23Z"
fill-rule="evenodd" fill="black"/>
<path d="M79.76 92.13L79.26 89.38 74.66 89.93 75.27 93.23 79.76 92.13Z"
fill-rule="evenodd" fill="black"/>
<path d="M74.66 89.93L75.27 93.23 75.27 93.23 74.66 89.93Z"
fill-rule="evenodd" fill="black"/>
<path d="M79.26 89.38L74.66 89.93 74.66 89.93 79.26 89.38Z"
fill-rule="evenodd" fill="black"/>
<path d="M79.76 92.13L79.26 89.38 79.26 89.38 79.76 92.13Z"
fill-rule="evenodd" fill="black"/>
<path d="M75.27 93.23L79.76 92.13 79.76 92.13 75.27 93.23Z"
fill-rule="evenodd" fill="black"/>
<path d="M74.66 89.93L74.46 86.59 79.09 86.59 79.26 89.38 74.66 89.93Z"
fill-rule="evenodd" fill="black"/>
<path d="M79.26 89.38L79.09 86.59 74.46 86.59 74.66 89.93 79.26 89.38Z"
fill-rule="evenodd" fill="black"/>
<path d="M74.46 86.59L74.66 89.93 74.66 89.93 74.46 86.59Z"
fill-rule="evenodd" fill="black"/>
<path d="M79.09 86.59L74.46 86.59 74.46 86.59 79.09 86.59Z"
fill-rule="evenodd" fill="black"/>
<path d="M79.26 89.38L79.09 86.59 79.09 86.59 79.26 89.38Z"
fill-rule="evenodd" fill="black"/>
<path d="M74.66 89.93L79.26 89.38 79.26 89.38 74.66 89.93Z"
fill-rule="evenodd" fill="black"/>
<path d="M74.46 86.59L74.66 83.24 79.26 83.79 79.09 86.59 74.46 86.59Z"
fill-rule="evenodd" fill="black"/>
<path d="M79.09 86.59L79.26 83.79 74.66 83.24 74.46 86.59 79.09 86.59Z"
fill-rule="evenodd" fill="black"/>
<path d="M74.66 83.24L74.46 86.59 74.46 86.59 74.66 83.24Z"
fill-rule="evenodd" fill="black"/>
<path d="M79.26 83.79L74.66 83.24 74.66 83.24 79.26 83.79Z"
fill-rule="evenodd" fill="black"/>
<path d="M79.09 86.59L79.26 83.79 79.26 83.79 79.09 86.59Z"
fill-rule="evenodd" fill="black"/>
<path d="M74.46 86.59L79.09 86.59 79.09 86.59 74.46 86.59Z"
fill-rule="evenodd" fill="black"/>
<path d="M74.66 83.24L75.27 79.94 79.76 81.04 79.26 83.79 74.66 83.24Z"
fill-rule="evenodd" fill="black"/>
<path d="M79.26 83.79L79.76 81.04 75.27 79.94 74.66 83.24 79.26 83.79Z"
fill-rule="evenodd" fill="black"/>
<path d="M75.27 79.94L74.66 83.24 74.66 83.24 75.27 79.94Z"
fill-rule="evenodd" fill="black"/>
<path d="M79.76 81.04L75.27 79.94 75.27 79.94 79.76 81.04Z"
fill-rule="evenodd" fill="black"/>
<path d="M79.26 83.79L79.76 81.04 79.76 81.04 79.26 83.79Z"
fill-rule="evenodd" fill="black"/>
<path d="M74.66 83.24L79.26 83.79 79.26 83.79 74.66 83.24Z"
fill-rule="evenodd" fill="black"/>
<path d="M75.27 79.94L76.27 76.73 80.6 78.38 79.76 81.04 75.27 79.94Z"
fill-rule="evenodd" fill="black"/>
<path d="M79.76 81.04L80.6 78.38 76.27 76.73 75.27 79.94 79.76 81.04Z"
fill-rule="evenodd" fill="black"/>
<path d="M76.27 76.73L75.27 79.94 75.27 79.94 76.27 76.73Z"
fill-rule="evenodd" fill="black"/>
<path d="M80.6 78.38L76.27 76.73 76.27 76.73 80.6 78.38Z"
fill-rule="evenodd" fill="black"/>
<path d="M79.76 81.04L80.6 78.38 80.6 78.38 79.76 81.04Z"
fill-rule="evenodd" fill="black"/>
<path d="M75.27 79.94L79.76 81.04 79.76 81.04 75.27 79.94Z"
fill-rule="evenodd" fill="black"/>
<path d="M76.27 76.73L77.64 73.67 81.74 75.83 80.6 78.38 76.27 76.73Z"
fill-rule="evenodd" fill="black"/>
<path d="M80.6 78.38L81.74 75.83 77.64 73.67 76.27 76.73 80.6 78.38Z"
fill-rule="evenodd" fill="black"/>
<path d="M77.64 73.67L76.27 76.73 76.27 76.73 77.64 73.67Z"
fill-rule="evenodd" fill="black"/>
<path d="M81.74 75.83L77.64 73.67 77.64 73.67 81.74 75.83Z"
fill-rule="evenodd" fill="black"/>
<path d="M80.6 78.38L81.74 75.83 81.74 75.83 80.6 78.38Z"
fill-rule="evenodd" fill="black"/>
<path d="M76.27 76.73L80.6 78.38 80.6 78.38 76.27 76.73Z"
fill-rule="evenodd" fill="black"/>
<path d="M77.64 73.67L79.38 70.8 83.19 73.43 81.74 75.83 77.64 73.67Z"
fill-rule="evenodd" fill="black"/>
<path d="M81.74 75.83L83.19 73.43 79.38 70.8 77.64 73.67 81.74 75.83Z"
fill-rule="evenodd" fill="black"/>
<path d="M79.38 70.8L77.64 73.67 77.64 73.67 79.38 70.8Z"
fill-rule="evenodd" fill="black"/>
<path d="M83.19 73.43L79.38 70.8 79.38 70.8 83.19 73.43Z"
fill-rule="evenodd" fill="black"/>
<path d="M81.74 75.83L83.19 73.43 83.19 73.43 81.74 75.83Z"
fill-rule="evenodd" fill="black"/>
<path d="M77.64 73.67L81.74 75.83 81.74 75.83 77.64 73.67Z"
fill-rule="evenodd" fill="black"/>
<path d="M79.38 70.8L81.45 68.16 84.91 71.23 83.19 73.43 79.38 70.8Z"
fill-rule="evenodd" fill="black"/>
<path d="M83.19 73.43L84.91 71.23 81.45 68.16 79.38 70.8 83.19 73.43Z"
fill-rule="evenodd" fill="black"/>
<path d="M81.45 68.16L79.38 70.8 79.38 70.8 81.45 68.16Z"
fill-rule="evenodd" fill="black"/>
<path d="M84.91 71.23L81.45 68.16 81.45 68.16 84.91 71.23Z"
fill-rule="evenodd" fill="black"/>
<path d="M83.19 73.43L84.91 71.23 84.91 71.23 83.19 73.43Z"
fill-rule="evenodd" fill="black"/>
<path d="M79.38 70.8L83.19 73.43 83.19 73.43 79.38 70.8Z"
fill-rule="evenodd" fill="black"/>
<path d="M81.45 68.16L83.82 65.79 86.89 69.26 84.91 71.23 81.45 68.16Z"
fill-rule="evenodd" fill="black"/>
<path d="M84.91 71.23L86.89 69.26 83.82 65.79 81.45 68.16 84.91 71.23Z"
fill-rule="evenodd" fill="black"/>
<path d="M83.82 65.79L81.45 68.16 81.45 68.16 83.82 65.79Z"
fill-rule="evenodd" fill="black"/>
<path d="M86.89 69.26L83.82 65.79 83.82 65.79 86.89 69.26Z"
fill-rule="evenodd" fill="black"/>
<path d="M84.91 71.23L86.89 69.26 86.89 69.26 84.91 71.23Z"
fill-rule="evenodd" fill="black"/>
<path d="M81.45 68.16L84.91 71.23 84.91 71.23 81.45 68.16Z"
fill-rule="evenodd" fill="black"/>
<path d="M83.82 65.79L86.46 63.72 89.09 67.53 86.89 69.26 83.82 65.79Z"
fill-rule="evenodd" fill="black"/>
<path d="M86.89 69.26L89.09 67.53 86.46 63.72 83.82 65.79 86.89 69.26Z"
fill-rule="evenodd" fill="black"/>
<path d="M86.46 63.72L83.82 65.79 83.82 65.79 86.46 63.72Z"
fill-rule="evenodd" fill="black"/>
<path d="M89.09 67.53L86.46 63.72 86.46 63.72 89.09 67.53Z"
fill-rule="evenodd" fill="black"/>
<path d="M86.89 69.26L89.09 67.53 89.09 67.53 86.89 69.26Z"
fill-rule="evenodd" fill="black"/>
<path d="M83.82 65.79L86.89 69.26 86.89 69.26 83.82 65.79Z"
fill-rule="evenodd" fill="black"/>
<path d="M86.46 63.72L89.33 61.99 91.48 66.09 89.09 67.53 86.46 63.72Z"
fill-rule="evenodd" fill="black"/>
<path d="M89.09 67.53L91.48 66.09 89.33 61.99 86.46 63.72 89.09 67.53Z"
fill-rule="evenodd" fill="black"/>
<path d="M89.33 61.99L86.46 63.72 86.46 63.72 89.33 61.99Z"
fill-rule="evenodd" fill="black"/>
<path d="M91.48 66.09L89.33 61.99 89.33 61.99 91.48 66.09Z"
fill-rule="evenodd" fill="black"/>
<path d="M89.09 67.53L91.48 66.09 91.48 66.09 89.09 67.53Z"
fill-rule="evenodd" fill="black"/>
<path d="M86.46 63.72L89.09 67.53 89.09 67.53 86.46 63.72Z"
fill-rule="evenodd" fill="black"/>
<path d="M89.33 61.99L92.39 60.61 94.03 64.94 91.48 66.09 89.33 61.99Z"
fill-rule="evenodd" fill="black"/>
<path d="M91.48 66.09L94.03 64.94 92.39 60.61 89.33 61.99 91.48 66.09Z"
fill-rule="evenodd" fill="black"/>
<path d="M92.39 60.61L89.33 61.99 89.33 61.99 92.39 60.61Z"
fill-rule="evenodd" fill="black"/>
<path d="M94.03 64.94L92.39 60.61 92.39 60.61 94.03 64.94Z"
fill-rule="evenodd" fill="black"/>
<path d="M91.48 66.09L94.03 64.94 94.03 64.94 91.48 66.09Z"
fill-rule="evenodd" fill="black"/>
<path d="M89.33 61.99L91.48 66.09 91.48 66.09 89.33 61.99Z"
fill-rule="evenodd" fill="black"/>
<path d="M92.39 60.61L95.59 59.61 96.7 64.11 94.03 64.94 92.39 60.61Z"
fill-rule="evenodd" fill="black"/>
<path d="M94.03 64.94L96.7 64.11 95.59 59.61 92.39 60.61 94.03 64.94Z"
fill-rule="evenodd" fill="black"/>
<path d="M95.59 59.61L92.39 60.61 92.39 60.61 95.59 59.61Z"
fill-rule="evenodd" fill="black"/>
<path d="M96.7 64.11L95.59 59.61 95.59 59.61 96.7 64.11Z"
fill-rule="evenodd" fill="black"/>
<path d="M94.03 64.94L96.7 64.11 96.7 64.11 94.03 64.94Z"
fill-rule="evenodd" fill="black"/>
<path d="M92.39 60.61L94.03 64.94 94.03 64.94 92.39 60.61Z"
fill-rule="evenodd" fill="black"/>
<path d="M95.59 59.61L98.89 59.01 99.45 63.6 96.7 64.11 95.59 59.61Z"
fill-rule="evenodd" fill="black"/>
<path d="M96.7 64.11L99.45 63.6 98.89 59.01 95.59 59.61 96.7 64.11Z"
fill-rule="evenodd" fill="black"/>
<path d="M98.89 59.01L95.59 59.61 95.59 59.61 98.89 59.01Z"
fill-rule="evenodd" fill="black"/>
<path d="M99.45 63.6L98.89 59.01 98.89 59.01 99.45 63.6Z"
fill-rule="evenodd" fill="black"/>
<path d="M96.7 64.11L99.45 63.6 99.45 63.6 96.7 64.11Z"
fill-rule="evenodd" fill="black"/>
<path d="M95.59 59.61L96.7 64.11 96.7 64.11 95.59 59.61Z"
fill-rule="evenodd" fill="black"/>
<path d="M98.89 59.01L102.24 58.8 102.24 63.43 99.45 63.6 98.89 59.01Z"
fill-rule="evenodd" fill="black"/>
<path d="M99.45 63.6L102.24 63.43 102.24 58.8 98.89 59.01 99.45 63.6Z"
fill-rule="evenodd" fill="black"/>
<path d="M102.24 58.8L98.89 59.01 98.89 59.01 102.24 58.8Z"
fill-rule="evenodd" fill="black"/>
<path d="M102.24 63.43L102.24 58.8 102.24 58.8 102.24 63.43Z"
fill-rule="evenodd" fill="black"/>
<path d="M99.45 63.6L102.24 63.43 102.24 63.43 99.45 63.6Z"
fill-rule="evenodd" fill="black"/>
<path d="M98.89 59.01L99.45 63.6 99.45 63.6 98.89 59.01Z"
fill-rule="evenodd" fill="black"/>
<path d="M102.24 58.8L105.59 59.01 105.03 63.6 102.24 63.43 102.24 58.8Z"
fill-rule="evenodd" fill="black"/>
<path d="M102.24 63.43L105.03 63.6 105.59 59.01 102.24 58.8 102.24 63.43Z"
fill-rule="evenodd" fill="black"/>
<path d="M105.59 59.01L102.24 58.8 102.24 58.8 105.59 59.01Z"
fill-rule="evenodd" fill="black"/>
<path d="M105.03 63.6L105.59 59.01 105.59 59.01 105.03 63.6Z"
fill-rule="evenodd" fill="black"/>
<path d="M102.24 63.43L105.03 63.6 105.03 63.6 102.24 63.43Z"
fill-rule="evenodd" fill="black"/>
<path d="M102.24 58.8L102.24 63.43 102.24 63.43 102.24 58.8Z"
fill-rule="evenodd" fill="black"/>
<path d="M105.59 59.01L108.89 59.61 107.78 64.11 105.03 63.6 105.59 59.01Z"
fill-rule="evenodd" fill="black"/>
<path d="M105.03 63.6L107.78 64.11 108.89 59.61 105.59 59.01 105.03 63.6Z"
fill-rule="evenodd" fill="black"/>
<path d="M108.89 59.61L105.59 59.01 105.59 59.01 108.89 59.61Z"
fill-rule="evenodd" fill="black"/>
<path d="M107.78 64.11L108.89 59.61 108.89 59.61 107.78 64.11Z"
fill-rule="evenodd" fill="black"/>
<path d="M105.03 63.6L107.78 64.11 107.78 64.11 105.03 63.6Z"
fill-rule="evenodd" fill="black"/>
<path d="M105.59 59.01L105.03 63.6 105.03 63.6 105.59 59.01Z"
fill-rule="evenodd" fill="black"/>
<path d="M108.89 59.61L112.09 60.61 110.45 64.94 107.78 64.11 108.89 59.61Z"
fill-rule="evenodd" fill="black"/>
<path d="M107.78 64.11L110.45 64.94 112.09 60.61 108.89 59.61 107.78 64.11Z"
fill-rule="evenodd" fill="black"/>
<path d="M112.09 60.61L108.89 59.61 108.89 59.61 112.09 60.61Z"
fill-rule="evenodd" fill="black"/>
<path d="M110.45 64.94L112.09 60.61 112.09 60.61 110.45 64.94Z"
fill-rule="evenodd" fill="black"/>
<path d="M107.78 64.11L110.45 64.94 110.45 64.94 107.78 64.11Z"
fill-rule="evenodd" fill="black"/>
<path d="M108.89 59.61L107.78 64.11 107.78 64.11 108.89 59.61Z"
fill-rule="evenodd" fill="black"/>
<path d="M112.09 60.61L115.15 61.99 113 66.09 110.45 64.94 112.09 60.61Z"
fill-rule="evenodd" fill="black"/>
<path d="M110.45 64.94L113 66.09 115.15 61.99 112.09 60.61 110.45 64.94Z"
fill-rule="evenodd" fill="black"/>
<path d="M115.15 61.99L112.09 60.61 112.09 60.61 115.15 61.99Z"
fill-rule="evenodd" fill="black"/>
<path d="M113 66.09L115.15 61.99 115.15 61.99 113 66.09Z"
fill-rule="evenodd" fill="black"/>
<path d="M110.45 64.94L113 66.09 113 66.09 110.45 64.94Z"
fill-rule="evenodd" fill="black"/>
<path d="M112.09 60.61L110.45 64.94 110.45 64.94 112.09 60.61Z"
fill-rule="evenodd" fill="black"/>
<path d="M115.15 61.99L118.02 63.72 115.39 67.53 113 66.09 115.15 61.99Z"
fill-rule="evenodd" fill="black"/>
<path d="M113 66.09L115.39 67.53 118.02 63.72 115.15 61.99 113 66.09Z"
fill-rule="evenodd" fill="black"/>
<path d="M118.02 63.72L115.15 61.99 115.15 61.99 118.02 63.72Z"
fill-rule="evenodd" fill="black"/>
<path d="M115.39 67.53L118.02 63.72 118.02 63.72 115.39 67.53Z"
fill-rule="evenodd" fill="black"/>
<path d="M113 66.09L115.39 67.53 115.39 67.53 113 66.09Z"
fill-rule="evenodd" fill="black"/>
<path d="M115.15 61.99L113 66.09 113 66.09 115.15 61.99Z"
fill-rule="evenodd" fill="black"/>
<path d="M118.02 63.72L120.67 65.79 117.59 69.26 115.39 67.53 118.02 63.72Z"
fill-rule="evenodd" fill="black"/>
<path d="M115.39 67.53L117.59 69.26 120.67 65.79 118.02 63.72 115.39 67.53Z"
fill-rule="evenodd" fill="black"/>
<path d="M120.67 65.79L118.02 63.72 118.02 63.72 120.67 65.79Z"
fill-rule="evenodd" fill="black"/>
<path d="M117.59 69.26L120.67 65.79 120.67 65.79 117.59 69.26Z"
fill-rule="evenodd" fill="black"/>
<path d="M115.39 67.53L117.59 69.26 117.59 69.26 115.39 67.53Z"
fill-rule="evenodd" fill="black"/>
<path d="M118.02 63.72L115.39 67.53 115.39 67.53 118.02 63.72Z"
fill-rule="evenodd" fill="black"/>
<path d="M120.67 65.79L123.04 68.16 119.57 71.23 117.59 69.26 120.67 65.79Z"
fill-rule="evenodd" fill="black"/>
<path d="M117.59 69.26L119.57 71.23 123.04 68.16 120.67 65.79 117.59 69.26Z"
fill-rule="evenodd" fill="black"/>
<path d="M123.04 68.16L120.67 65.79 120.67 65.79 123.04 68.16Z"
fill-rule="evenodd" fill="black"/>
<path d="M119.57 71.23L123.04 68.16 123.04 68.16 119.57 71.23Z"
fill-rule="evenodd" fill="black"/>
<path d="M117.59 69.26L119.57 71.23 119.57 71.23 117.59 69.26Z"
fill-rule="evenodd" fill="black"/>
<path d="M120.67 65.79L117.59 69.26 117.59 69.26 120.67 65.79Z"
fill-rule="evenodd" fill="black"/>
<path d="M123.04 68.16L125.11 70.8 121.3 73.43 119.57 71.23 123.04 68.16Z"
fill-rule="evenodd" fill="black"/>
<path d="M119.57 71.23L121.3 73.43 125.11 70.8 123.04 68.16 119.57 71.23Z"
fill-rule="evenodd" fill="black"/>
<path d="M125.11 70.8L123.04 68.16 123.04 68.16 125.11 70.8Z"
fill-rule="evenodd" fill="black"/>
<path d="M121.3 73.43L125.11 70.8 125.11 70.8 121.3 73.43Z"
fill-rule="evenodd" fill="black"/>
<path d="M119.57 71.23L121.3 73.43 121.3 73.43 119.57 71.23Z"
fill-rule="evenodd" fill="black"/>
<path d="M123.04 68.16L119.57 71.23 119.57 71.23 123.04 68.16Z"
fill-rule="evenodd" fill="black"/>
<path d="M125.11 70.8L126.84 73.67 122.74 75.83 121.3 73.43 125.11 70.8Z"
fill-rule="evenodd" fill="black"/>
<path d="M121.3 73.43L122.74 75.83 126.84 73.67 125.11 70.8 121.3 73.43Z"
fill-rule="evenodd" fill="black"/>
<path d="M126.84 73.67L125.11 70.8 125.11 70.8 126.84 73.67Z"
fill-rule="evenodd" fill="black"/>
<path d="M122.74 75.83L126.84 73.67 126.84 73.67 122.74 75.83Z"
fill-rule="evenodd" fill="black"/>
<path d="M121.3 73.43L122.74 75.83 122.74 75.83 121.3 73.43Z"
fill-rule="evenodd" fill="black"/>
<path d="M125.11 70.8L121.3 73.43 121.3 73.43 125.11 70.8Z"
fill-rule="evenodd" fill="black"/>
<path d="M126.84 73.67L128.22 76.73 123.89 78.38 122.74 75.83 126.84 73.67Z"
fill-rule="evenodd" fill="black"/>
<path d="M122.74 75.83L123.89 78.38 128.22 76.73 126.84 73.67 122.74 75.83Z"
fill-rule="evenodd" fill="black"/>
<path d="M128.22 76.73L126.84 73.67 126.84 73.67 128.22 76.73Z"
fill-rule="evenodd" fill="black"/>
<path d="M123.89 78.38L128.22 76.73 128.22 76.73 123.89 78.38Z"
fill-rule="evenodd" fill="black"/>
<path d="M122.74 75.83L123.89 78.38 123.89 78.38 122.74 75.83Z"
fill-rule="evenodd" fill="black"/>
<path d="M126.84 73.67L122.74 75.83 122.74 75.83 126.84 73.67Z"
fill-rule="evenodd" fill="black"/>
<path d="M128.22 76.73L129.22 79.94 124.72 81.04 123.89 78.38 128.22 76.73Z"
fill-rule="evenodd" fill="black"/>
<path d="M123.89 78.38L124.72 81.04 129.22 79.94 128.22 76.73 123.89 78.38Z"
fill-rule="evenodd" fill="black"/>
<path d="M129.22 79.94L128.22 76.73 128.22 76.73 129.22 79.94Z"
fill-rule="evenodd" fill="black"/>
<path d="M124.72 81.04L129.22 79.94 129.22 79.94 124.72 81.04Z"
fill-rule="evenodd" fill="black"/>
<path d="M123.89 78.38L124.72 81.04 124.72 81.04 123.89 78.38Z"
fill-rule="evenodd" fill="black"/>
<path d="M128.22 76.73L123.89 78.38 123.89 78.38 128.22 76.73Z"
fill-rule="evenodd" fill="black"/>
<path d="M129.22 79.94L129.82 83.24 125.22 83.79 124.72 81.04 129.22 79.94Z"
fill-rule="evenodd" fill="black"/>
<path d="M124.72 81.04L125.22 83.79 129.82 83.24 129.22 79.94 124.72 81.04Z"
fill-rule="evenodd" fill="black"/>
<path d="M129.82 83.24L129.22 79.94 129.22 79.94 129.82 83.24Z"
fill-rule="evenodd" fill="black"/>
<path d="M125.22 83.79L129.82 83.24 129.82 83.24 125.22 83.79Z"
fill-rule="evenodd" fill="black"/>
<path d="M124.72 81.04L125.22 83.79 125.22 83.79 124.72 81.04Z"
fill-rule="evenodd" fill="black"/>
<path d="M129.22 79.94L124.72 81.04 124.72 81.04 129.22 79.94Z"
fill-rule="evenodd" fill="black"/>
<path d="M129.82 83.24L130.02 86.59 125.39 86.59 125.22 83.79 129.82 83.24Z"
fill-rule="evenodd" fill="black"/>
<path d="M125.22 83.79L125.39 86.59 130.02 86.59 129.82 83.24 125.22 83.79Z"
fill-rule="evenodd" fill="black"/>
<path d="M130.02 86.59L129.82 83.24 129.82 83.24 130.02 86.59Z"
fill-rule="evenodd" fill="black"/>
<path d="M125.39 86.59L130.02 86.59 130.02 86.59 125.39 86.59Z"
fill-rule="evenodd" fill="black"/>
<path d="M125.22 83.79L125.39 86.59 125.39 86.59 125.22 83.79Z"
fill-rule="evenodd" fill="black"/>
<path d="M129.82 83.24L125.22 83.79 125.22 83.79 129.82 83.24Z"
fill-rule="evenodd" fill="black"/>
<path d="M723.22 298.61L725.54 302.62 500.33 432.65 495.7 429.98 723.22 298.61Z"
fill-rule="evenodd" fill="black"/>
<path d="M723.22 298.61L725.54 302.62 725.54 302.62 723.22 298.61Z"
fill-rule="evenodd" fill="black"/>
<path d="M723.22 298.61L725.54 302.62 500.33 432.65 495.7 429.98 723.22 298.61Z"
fill-rule="evenodd" fill="black"/>
<path d="M500.33 432.65L495.7 429.98 495.7 429.98 500.33 432.65Z"
fill-rule="evenodd" fill="black"/>
<path d="M723.22 298.61L495.7 429.98 495.7 429.98 723.22 298.61Z"
fill-rule="evenodd" fill="black"/>
<path d="M725.54 302.62L500.33 432.65 500.33 432.65 725.54 302.62Z"
fill-rule="evenodd" fill="black"/>
<path d="M495.7 429.98L500.33 432.65 500.33 507.45 495.7 507.45 495.7 429.98Z"
fill-rule="evenodd" fill="black"/>
<path d="M495.7 429.98L500.33 432.65 500.33 432.65 495.7 429.98Z"
fill-rule="evenodd" fill="black"/>
<path d="M495.7 429.98L500.33 432.65 500.33 507.45 495.7 507.45 495.7 429.98Z"
fill-rule="evenodd" fill="black"/>
<path d="M500.33 507.45L495.7 507.45 495.7 507.45 500.33 507.45Z"
fill-rule="evenodd" fill="black"/>
<path d="M495.7 429.98L495.7 507.45 495.7 507.45 495.7 429.98Z"
fill-rule="evenodd" fill="black"/>
<path d="M500.33 432.65L500.33 507.45 500.33 507.45 500.33 432.65Z"
fill-rule="evenodd" fill="black"/>
<path d="M102.24 88.9L102.24 84.27 613.88 84.27 609.25 88.9 102.24 88.9Z"
fill-rule="evenodd" fill="black"/>
<path d="M102.24 88.9L102.24 84.27 102.24 84.27 102.24 88.9Z"
fill-rule="evenodd" fill="black"/>
<path d="M102.24 88.9L102.24 84.27 613.88 84.27 609.25 88.9 102.24 88.9Z"
fill-rule="evenodd" fill="black"/>
<path d="M613.88 84.27L609.25 88.9 609.25 88.9 613.88 84.27Z"
fill-rule="evenodd" fill="black"/>
<path d="M102.24 88.9L609.25 88.9 609.25 88.9 102.24 88.9Z"
fill-rule="evenodd" fill="black"/>
<path d="M102.24 84.27L613.88 84.27 613.88 84.27 102.24 84.27Z"
fill-rule="evenodd" fill="black"/>
<path d="M609.25 88.9L613.88 84.27 613.88 282.08 609.25 282.08 609.25 88.9Z"
fill-rule="evenodd" fill="black"/>
<path d="M609.25 88.9L613.88 84.27 613.88 84.27 609.25 88.9Z"
fill-rule="evenodd" fill="black"/>
<path d="M609.25 88.9L613.88 84.27 613.88 282.08 609.25 282.08 609.25 88.9Z"
fill-rule="evenodd" fill="black"/>
<path d="M613.88 282.08L609.25 282.08 609.25 282.08 613.88 282.08Z"
fill-rule="evenodd" fill="black"/>
<path d="M609.25 88.9L609.25 282.08 609.25 282.08 609.25 88.9Z"
fill-rule="evenodd" fill="black"/>
<path d="M613.88 84.27L613.88 282.08 613.88 282.08 613.88 84.27Z"
fill-rule="evenodd" fill="black"/>
<path d="M579.59 285.82L574.96 281.19 647.5 281.19 642.87 285.82 579.59 285.82Z"
fill-rule="evenodd" fill="black"/>
<path d="M579.59 285.82L574.96 281.19 574.96 281.19 579.59 285.82Z"
fill-rule="evenodd" fill="black"/>
<path d="M579.59 285.82L574.96 281.19 647.5 281.19 642.87 285.82 579.59 285.82Z"
fill-rule="evenodd" fill="black"/>
<path d="M647.5 281.19L642.87 285.82 642.87 285.82 647.5 281.19Z"
fill-rule="evenodd" fill="black"/>
<path d="M579.59 285.82L642.87 285.82 642.87 285.82 579.59 285.82Z"
fill-rule="evenodd" fill="black"/>
<path d="M574.96 281.19L647.5 281.19 647.5 281.19 574.96 281.19Z"
fill-rule="evenodd" fill="black"/>
<path d="M642.87 285.82L647.5 281.19 647.5 455.59 642.87 450.96 642.87 285.82Z"
fill-rule="evenodd" fill="black"/>
<path d="M642.87 285.82L647.5 281.19 647.5 281.19 642.87 285.82Z"
fill-rule="evenodd" fill="black"/>
<path d="M642.87 285.82L647.5 281.19 647.5 455.59 642.87 450.96 642.87 285.82Z"
fill-rule="evenodd" fill="black"/>
<path d="M647.5 455.59L642.87 450.96 642.87 450.96 647.5 455.59Z"
fill-rule="evenodd" fill="black"/>
<path d="M642.87 285.82L642.87 450.96 642.87 450.96 642.87 285.82Z"
fill-rule="evenodd" fill="black"/>
<path d="M647.5 281.19L647.5 455.59 647.5 455.59 647.5 281.19Z"
fill-rule="evenodd" fill="black"/>
<path d="M642.87 450.96L647.5 455.59 574.96 455.59 579.59 450.96 642.87 450.96Z"
fill-rule="evenodd" fill="black"/>
<path d="M642.87 450.96L647.5 455.59 647.5 455.59 642.87 450.96Z"
fill-rule="evenodd" fill="black"/>
<path d="M642.87 450.96L647.5 455.59 574.96 455.59 579.59 450.96 642.87 450.96Z"
fill-rule="evenodd" fill="black"/>
<path d="M574.96 455.59L579.59 450.96 579.59 450.96 574.96 455.59Z"
fill-rule="evenodd" fill="black"/>
<path d="M642.87 450.96L579.59 450.96 579.59 450.96 642.87 450.96Z"
fill-rule="evenodd" fill="black"/>
<path d="M647.5 455.59L574.96 455.59 574.96 455.59 647.5 455.59Z"
fill-rule="evenodd" fill="black"/>
<path d="M579.59 450.96L574.96 455.59 574.96 281.19 579.59 285.82 579.59 450.96Z"
fill-rule="evenodd" fill="black"/>
<path d="M579.59 450.96L574.96 455.59 574.96 455.59 579.59 450.96Z"
fill-rule="evenodd" fill="black"/>
<path d="M579.59 450.96L574.96 455.59 574.96 281.19 579.59 285.82 579.59 450.96Z"
fill-rule="evenodd" fill="black"/>
<path d="M574.96 281.19L579.59 285.82 579.59 285.82 574.96 281.19Z"
fill-rule="evenodd" fill="black"/>
<path d="M579.59 450.96L579.59 285.82 579.59 285.82 579.59 450.96Z"
fill-rule="evenodd" fill="black"/>
<path d="M574.96 455.59L574.96 281.19 574.96 281.19 574.96 455.59Z"
fill-rule="evenodd" fill="black"/>
</svg>
