<?xml version="1.0" encoding="UTF-8"?>
<svg xmlns="http://www.w3.org/2000/svg" width="800.000" height="600.000" viewBox="0.0 0.0 800.000 600.000" version="1.1">
  <title>Produce by Acme CAD Converter</title>
  <desc>Produce by Acme CAD Converter</desc>
<path d="M797.74 296.91L797.74 303.09 30.91 303.09 30.91 296.91 797.74 296.91Z"
fill-rule="evenodd" fill="black"/>
<path d="M27.82 214.8L34 214.8 34 385.2 27.82 385.2 27.82 214.8Z"
fill-rule="evenodd" fill="black"/>
<path d="M173.56 300L167.39 300 167.39 263.23 173.56 273.22 173.56 300Z"
fill-rule="evenodd" fill="black"/>
<path d="M173.56 273.22L167.39 263.23 240.93 300 227.12 300 173.56 273.22Z"
fill-rule="evenodd" fill="black"/>
<path d="M227.12 300L240.93 300 167.39 336.77 173.56 326.78 227.12 300Z"
fill-rule="evenodd" fill="black"/>
<path d="M173.56 326.78L167.39 336.77 167.39 268.22 173.56 268.22 173.56 326.78Z"
fill-rule="evenodd" fill="black"/>
<path d="M59.56 300L59.35 296.55 53.22 297.29 53.39 300 59.56 300Z"
fill-rule="nonzero" fill="black"/>
<path d="M59.35 296.55L58.73 293.14 52.73 294.62 53.22 297.29 59.35 296.55Z"
fill-rule="nonzero" fill="black"/>
<path d="M58.73 293.14L57.7 289.84 51.92 292.03 52.73 294.62 58.73 293.14Z"
fill-rule="nonzero" fill="black"/>
<path d="M57.7 289.84L56.28 286.69 50.81 289.56 51.92 292.03 57.7 289.84Z"
fill-rule="nonzero" fill="black"/>
<path d="M56.28 286.69L54.49 283.73 49.41 287.23 50.81 289.56 56.28 286.69Z"
fill-rule="nonzero" fill="black"/>
<path d="M54.49 283.73L52.35 281 47.73 285.1 49.41 287.23 54.49 283.73Z"
fill-rule="nonzero" fill="black"/>
<path d="M52.35 281L49.91 278.56 45.81 283.18 47.73 285.1 52.35 281Z"
fill-rule="nonzero" fill="black"/>
<path d="M49.91 278.56L47.19 276.42 43.68 281.5 45.81 283.18 49.91 278.56Z"
fill-rule="nonzero" fill="black"/>
<path d="M47.19 276.42L44.22 274.63 41.36 280.1 43.68 281.5 47.19 276.42Z"
fill-rule="nonzero" fill="black"/>
<path d="M44.22 274.63L41.07 273.21 38.88 278.99 41.36 280.1 44.22 274.63Z"
fill-rule="nonzero" fill="black"/>
<path d="M41.07 273.21L37.77 272.18 36.29 278.18 38.88 278.99 41.07 273.21Z"
fill-rule="nonzero" fill="black"/>
<path d="M37.77 272.18L34.36 271.56 33.62 277.69 36.29 278.18 37.77 272.18Z"
fill-rule="nonzero" fill="black"/>
<path d="M34.36 271.56L30.91 271.35 30.91 277.53 33.62 277.69 34.36 271.56Z"
fill-rule="nonzero" fill="black"/>
<path d="M30.91 271.35L27.46 271.56 28.2 277.69 30.91 277.53 30.91 271.35Z"
fill-rule="nonzero" fill="black"/>
<path d="M27.46 271.56L24.06 272.18 25.53 278.18 28.2 277.69 27.46 271.56Z"
fill-rule="nonzero" fill="black"/>
<path d="M24.06 272.18L20.75 273.21 22.94 278.99 25.53 278.18 24.06 272.18Z"
fill-rule="nonzero" fill="black"/>
<path d="M20.75 273.21L17.6 274.63 20.47 280.1 22.94 278.99 20.75 273.21Z"
fill-rule="nonzero" fill="black"/>
<path d="M17.6 274.63L14.64 276.42 18.14 281.5 20.47 280.1 17.6 274.63Z"
fill-rule="nonzero" fill="black"/>
<path d="M14.64 276.42L11.91 278.56 16.01 283.18 18.14 281.5 14.64 276.42Z"
fill-rule="nonzero" fill="black"/>
<path d="M11.91 278.56L9.47 281 14.09 285.1 16.01 283.18 11.91 278.56Z"
fill-rule="nonzero" fill="black"/>
<path d="M9.47 281L7.33 283.73 12.42 287.23 14.09 285.1 9.47 281Z"
fill-rule="nonzero" fill="black"/>
<path d="M7.33 283.73L5.55 286.69 11.01 289.56 12.42 287.23 7.33 283.73Z"
fill-rule="nonzero" fill="black"/>
<path d="M5.55 286.69L4.13 289.84 9.9 292.03 11.01 289.56 5.55 286.69Z"
fill-rule="nonzero" fill="black"/>
<path d="M4.13 289.84L3.1 293.14 9.09 294.62 9.9 292.03 4.13 289.84Z"
fill-rule="nonzero" fill="black"/>
<path d="M3.1 293.14L2.47 296.55 8.6 297.29 9.09 294.62 3.1 293.14Z"
fill-rule="nonzero" fill="black"/>
<path d="M2.47 296.55L2.26 300 8.44 300 8.6 297.29 2.47 296.55Z"
fill-rule="nonzero" fill="black"/>
<path d="M2.26 300L2.47 303.45 8.6 302.71 8.44 300 2.26 300Z"
fill-rule="nonzero" fill="black"/>
<path d="M2.47 303.45L3.1 306.86 9.09 305.38 8.6 302.71 2.47 303.45Z"
fill-rule="nonzero" fill="black"/>
<path d="M3.1 306.86L4.13 310.16 9.9 307.97 9.09 305.38 3.1 306.86Z"
fill-rule="nonzero" fill="black"/>
<path d="M4.13 310.16L5.55 313.31 11.01 310.44 9.9 307.97 4.13 310.16Z"
fill-rule="nonzero" fill="black"/>
<path d="M5.55 313.31L7.33 316.27 12.42 312.77 11.01 310.44 5.55 313.31Z"
fill-rule="nonzero" fill="black"/>
<path d="M7.33 316.27L9.47 319 14.09 314.9 12.42 312.77 7.33 316.27Z"
fill-rule="nonzero" fill="black"/>
<path d="M9.47 319L11.91 321.44 16.01 316.82 14.09 314.9 9.47 319Z"
fill-rule="nonzero" fill="black"/>
<path d="M11.91 321.44L14.64 323.58 18.14 318.49 16.01 316.82 11.91 321.44Z"
fill-rule="nonzero" fill="black"/>
<path d="M14.64 323.58L17.6 325.37 20.47 319.9 18.14 318.49 14.64 323.58Z"
fill-rule="nonzero" fill="black"/>
<path d="M17.6 325.37L20.75 326.79 22.94 321.01 20.47 319.9 17.6 325.37Z"
fill-rule="nonzero" fill="black"/>
<path d="M20.75 326.79L24.06 327.81 25.53 321.82 22.94 321.01 20.75 326.79Z"
fill-rule="nonzero" fill="black"/>
<path d="M24.06 327.81L27.46 328.44 28.2 322.31 25.53 321.82 24.06 327.81Z"
fill-rule="nonzero" fill="black"/>
<path d="M27.46 328.44L30.91 328.65 30.91 322.47 28.2 322.31 27.46 328.44Z"
fill-rule="nonzero" fill="black"/>
<path d="M30.91 328.65L34.36 328.44 33.62 322.31 30.91 322.47 30.91 328.65Z"
fill-rule="nonzero" fill="black"/>
<path d="M34.36 328.44L37.77 327.81 36.29 321.82 33.62 322.31 34.36 328.44Z"
fill-rule="nonzero" fill="black"/>
<path d="M37.77 327.81L41.07 326.79 38.88 321.01 36.29 321.82 37.77 327.81Z"
fill-rule="nonzero" fill="black"/>
<path d="M41.07 326.79L44.22 325.37 41.36 319.9 38.88 321.01 41.07 326.79Z"
fill-rule="nonzero" fill="black"/>
<path d="M44.22 325.37L47.18 323.58 43.68 318.5 41.36 319.9 44.22 325.37Z"
fill-rule="nonzero" fill="black"/>
<path d="M47.18 323.58L49.91 321.44 45.81 316.82 43.68 318.5 47.18 323.58Z"
fill-rule="nonzero" fill="black"/>
<path d="M49.91 321.44L52.35 319 47.73 314.9 45.81 316.82 49.91 321.44Z"
fill-rule="nonzero" fill="black"/>
<path d="M52.35 319L54.49 316.27 49.41 312.77 47.73 314.9 52.35 319Z"
fill-rule="nonzero" fill="black"/>
<path d="M54.49 316.27L56.28 313.31 50.81 310.44 49.41 312.77 54.49 316.27Z"
fill-rule="nonzero" fill="black"/>
<path d="M56.28 313.31L57.7 310.16 51.92 307.97 50.81 310.44 56.28 313.31Z"
fill-rule="nonzero" fill="black"/>
<path d="M57.7 310.16L58.73 306.86 52.73 305.38 51.92 307.97 57.7 310.16Z"
fill-rule="nonzero" fill="black"/>
<path d="M58.73 306.86L59.35 303.45 53.22 302.71 52.73 305.38 58.73 306.86Z"
fill-rule="nonzero" fill="black"/>
<path d="M59.35 303.45L59.56 300 53.39 300 53.22 302.71 59.35 303.45Z"
fill-rule="nonzero" fill="black"/>
</svg>
