<?xml version="1.0" encoding="UTF-8"?>
<svg xmlns="http://www.w3.org/2000/svg" width="800.000" height="600.000" viewBox="0.0 0.0 800.000 600.000" version="1.1">
  <title>Produce by Acme CAD Converter</title>
  <desc>Produce by Acme CAD Converter</desc>
<path d="M2.26 287.89L2.26 283.41 797.74 283.41 797.74 287.89 2.26 287.89Z"
fill-rule="evenodd" fill="black"/>
<path d="M402.24 329.84L397.76 329.84 397.76 285.65 402.24 285.65 402.24 329.84Z"
fill-rule="evenodd" fill="black"/>
<path d="M415.5 285.65L415.28 283.1 410.87 283.84 411.02 285.65 415.5 285.65Z"
fill-rule="nonzero" fill="black"/>
<path d="M415.28 283.1L414.66 280.62 410.42 282.07 410.87 283.84 415.28 283.1Z"
fill-rule="nonzero" fill="black"/>
<path d="M414.66 280.62L413.63 278.28 409.69 280.41 410.42 282.07 414.66 280.62Z"
fill-rule="nonzero" fill="black"/>
<path d="M413.63 278.28L412.23 276.13 408.7 278.88 409.69 280.41 413.63 278.28Z"
fill-rule="nonzero" fill="black"/>
<path d="M412.23 276.13L410.49 274.25 407.46 277.54 408.7 278.88 412.23 276.13Z"
fill-rule="nonzero" fill="black"/>
<path d="M410.49 274.25L408.48 272.68 406.03 276.43 407.46 277.54 410.49 274.25Z"
fill-rule="nonzero" fill="black"/>
<path d="M408.48 272.68L406.22 271.46 404.43 275.56 406.03 276.43 408.48 272.68Z"
fill-rule="nonzero" fill="black"/>
<path d="M406.22 271.46L403.8 270.63 402.7 274.97 404.43 275.56 406.22 271.46Z"
fill-rule="nonzero" fill="black"/>
<path d="M403.8 270.63L401.28 270.21 400.91 274.67 402.7 274.97 403.8 270.63Z"
fill-rule="nonzero" fill="black"/>
<path d="M401.28 270.21L398.72 270.21 399.09 274.67 400.91 274.67 401.28 270.21Z"
fill-rule="nonzero" fill="black"/>
<path d="M398.72 270.21L396.2 270.63 397.29 274.97 399.09 274.67 398.72 270.21Z"
fill-rule="nonzero" fill="black"/>
<path d="M396.2 270.63L393.78 271.46 395.57 275.56 397.29 274.97 396.2 270.63Z"
fill-rule="nonzero" fill="black"/>
<path d="M393.78 271.46L391.52 272.68 393.97 276.43 395.57 275.56 393.78 271.46Z"
fill-rule="nonzero" fill="black"/>
<path d="M391.52 272.68L389.5 274.25 392.54 277.54 393.97 276.43 391.52 272.68Z"
fill-rule="nonzero" fill="black"/>
<path d="M389.5 274.25L387.77 276.13 391.3 278.88 392.54 277.54 389.5 274.25Z"
fill-rule="nonzero" fill="black"/>
<path d="M387.77 276.13L386.37 278.28 390.31 280.41 391.3 278.88 387.77 276.13Z"
fill-rule="nonzero" fill="black"/>
<path d="M386.37 278.28L385.34 280.62 389.58 282.07 390.31 280.41 386.37 278.28Z"
fill-rule="nonzero" fill="black"/>
<path d="M385.34 280.62L384.72 283.1 389.13 283.84 389.58 282.07 385.34 280.62Z"
fill-rule="nonzero" fill="black"/>
<path d="M384.72 283.1L384.5 285.65 388.98 285.65 389.13 283.84 384.72 283.1Z"
fill-rule="nonzero" fill="black"/>
<path d="M384.5 285.65L384.72 288.2 389.13 287.47 388.98 285.65 384.5 285.65Z"
fill-rule="nonzero" fill="black"/>
<path d="M384.72 288.2L385.34 290.68 389.58 289.23 389.13 287.47 384.72 288.2Z"
fill-rule="nonzero" fill="black"/>
<path d="M385.34 290.68L386.37 293.03 390.31 290.9 389.58 289.23 385.34 290.68Z"
fill-rule="nonzero" fill="black"/>
<path d="M386.37 293.03L387.77 295.17 391.3 292.42 390.31 290.9 386.37 293.03Z"
fill-rule="nonzero" fill="black"/>
<path d="M387.77 295.17L389.5 297.05 392.54 293.76 391.3 292.42 387.77 295.17Z"
fill-rule="nonzero" fill="black"/>
<path d="M389.5 297.05L391.52 298.62 393.97 294.88 392.54 293.76 389.5 297.05Z"
fill-rule="nonzero" fill="black"/>
<path d="M391.52 298.62L393.78 299.84 395.57 295.74 393.97 294.88 391.52 298.62Z"
fill-rule="nonzero" fill="black"/>
<path d="M393.78 299.84L396.2 300.67 397.29 296.33 395.57 295.74 393.78 299.84Z"
fill-rule="nonzero" fill="black"/>
<path d="M396.2 300.67L398.72 301.1 399.09 296.63 397.29 296.33 396.2 300.67Z"
fill-rule="nonzero" fill="black"/>
<path d="M398.72 301.1L401.28 301.1 400.91 296.63 399.09 296.63 398.72 301.1Z"
fill-rule="nonzero" fill="black"/>
<path d="M401.28 301.1L403.8 300.67 402.71 296.33 400.91 296.63 401.28 301.1Z"
fill-rule="nonzero" fill="black"/>
<path d="M403.8 300.67L406.22 299.84 404.43 295.74 402.71 296.33 403.8 300.67Z"
fill-rule="nonzero" fill="black"/>
<path d="M406.22 299.84L408.48 298.62 406.03 294.88 404.43 295.74 406.22 299.84Z"
fill-rule="nonzero" fill="black"/>
<path d="M408.48 298.62L410.5 297.05 407.46 293.76 406.03 294.88 408.48 298.62Z"
fill-rule="nonzero" fill="black"/>
<path d="M410.5 297.05L412.23 295.17 408.7 292.42 407.46 293.76 410.5 297.05Z"
fill-rule="nonzero" fill="black"/>
<path d="M412.23 295.17L413.63 293.03 409.69 290.9 408.7 292.42 412.23 295.17Z"
fill-rule="nonzero" fill="black"/>
<path d="M413.63 293.03L414.66 290.68 410.42 289.23 409.69 290.9 413.63 293.03Z"
fill-rule="nonzero" fill="black"/>
<path d="M414.66 290.68L415.28 288.2 410.87 287.47 410.42 289.23 414.66 290.68Z"
fill-rule="nonzero" fill="black"/>
<path d="M415.28 288.2L415.5 285.65 411.02 285.65 410.87 287.47 415.28 288.2Z"
fill-rule="nonzero" fill="black"/>
</svg>
