<?xml version="1.0" encoding="UTF-8"?>
<svg xmlns="http://www.w3.org/2000/svg" width="800.000" height="600.000" viewBox="0.0 0.0 800.000 600.000" version="1.1">
  <title>Produce by Acme CAD Converter</title>
  <desc>Produce by Acme CAD Converter</desc>
<path d="M343.07 1.7L347.68 1.7 347.68 587.18 343.07 598.3 343.07 1.7Z"
fill-rule="evenodd" fill="black"/>
<path d="M343.07 1.7L347.68 1.7 347.68 1.7 343.07 1.7Z"
fill-rule="evenodd" fill="black"/>
<path d="M343.07 1.7L347.68 1.7 347.68 587.18 343.07 598.3 343.07 1.7Z"
fill-rule="evenodd" fill="black"/>
<path d="M347.68 587.18L343.07 598.3 343.07 598.3 347.68 587.18Z"
fill-rule="evenodd" fill="black"/>
<path d="M343.07 1.7L343.07 598.3 343.07 598.3 343.07 1.7Z"
fill-rule="evenodd" fill="black"/>
<path d="M347.68 1.7L347.68 587.18 347.68 587.18 347.68 1.7Z"
fill-rule="evenodd" fill="black"/>
<path d="M343.07 598.3L347.68 587.18 453.51 481.35 456.77 484.61 343.07 598.3Z"
fill-rule="evenodd" fill="black"/>
<path d="M343.07 598.3L347.68 587.18 347.68 587.18 343.07 598.3Z"
fill-rule="evenodd" fill="black"/>
<path d="M343.07 598.3L347.68 587.18 453.51 481.35 456.77 484.61 343.07 598.3Z"
fill-rule="evenodd" fill="black"/>
<path d="M453.51 481.35L456.77 484.61 456.77 484.61 453.51 481.35Z"
fill-rule="evenodd" fill="black"/>
<path d="M343.07 598.3L456.77 484.61 456.77 484.61 343.07 598.3Z"
fill-rule="evenodd" fill="black"/>
<path d="M347.68 587.18L453.51 481.35 453.51 481.35 347.68 587.18Z"
fill-rule="evenodd" fill="black"/>
<path d="M453.36 481.52L456.93 484.44 442.95 501.51 439.39 498.59 453.36 481.52Z"
fill-rule="evenodd" fill="black"/>
<path d="M453.36 481.52L456.93 484.44 456.93 484.44 453.36 481.52Z"
fill-rule="evenodd" fill="black"/>
<path d="M453.36 481.52L456.93 484.44 442.95 501.51 439.39 498.59 453.36 481.52Z"
fill-rule="evenodd" fill="black"/>
<path d="M442.95 501.51L439.39 498.59 439.39 498.59 442.95 501.51Z"
fill-rule="evenodd" fill="black"/>
<path d="M453.36 481.52L439.39 498.59 439.39 498.59 453.36 481.52Z"
fill-rule="evenodd" fill="black"/>
<path d="M456.93 484.44L442.95 501.51 442.95 501.51 456.93 484.44Z"
fill-rule="evenodd" fill="black"/>
<path d="M442.95 501.51L439.39 498.59 453.36 481.52 456.93 484.44 442.95 501.51Z"
fill-rule="evenodd" fill="black"/>
<path d="M442.95 501.51L439.39 498.59 439.39 498.59 442.95 501.51Z"
fill-rule="evenodd" fill="black"/>
<path d="M442.95 501.51L439.39 498.59 453.36 481.52 456.93 484.44 442.95 501.51Z"
fill-rule="evenodd" fill="black"/>
<path d="M453.36 481.52L456.93 484.44 456.93 484.44 453.36 481.52Z"
fill-rule="evenodd" fill="black"/>
<path d="M442.95 501.51L456.93 484.44 456.93 484.44 442.95 501.51Z"
fill-rule="evenodd" fill="black"/>
<path d="M439.39 498.59L453.36 481.52 453.36 481.52 439.39 498.59Z"
fill-rule="evenodd" fill="black"/>
<path d="M453.68 481.2L456.6 484.76 439.53 498.73 436.61 495.17 453.68 481.2Z"
fill-rule="evenodd" fill="black"/>
<path d="M453.68 481.2L456.6 484.76 456.6 484.76 453.68 481.2Z"
fill-rule="evenodd" fill="black"/>
<path d="M453.68 481.2L456.6 484.76 439.53 498.73 436.61 495.17 453.68 481.2Z"
fill-rule="evenodd" fill="black"/>
<path d="M439.53 498.73L436.61 495.17 436.61 495.17 439.53 498.73Z"
fill-rule="evenodd" fill="black"/>
<path d="M453.68 481.2L436.61 495.17 436.61 495.17 453.68 481.2Z"
fill-rule="evenodd" fill="black"/>
<path d="M456.6 484.76L439.53 498.73 439.53 498.73 456.6 484.76Z"
fill-rule="evenodd" fill="black"/>
<path d="M404.74 532.25L401.48 528.99 418.89 511.58 422.15 514.84 404.74 532.25Z"
fill-rule="evenodd" fill="black"/>
<path d="M404.74 532.25L401.48 528.99 401.48 528.99 404.74 532.25Z"
fill-rule="evenodd" fill="black"/>
<path d="M404.74 532.25L401.48 528.99 418.89 511.58 422.15 514.84 404.74 532.25Z"
fill-rule="evenodd" fill="black"/>
<path d="M418.89 511.58L422.15 514.84 422.15 514.84 418.89 511.58Z"
fill-rule="evenodd" fill="black"/>
<path d="M404.74 532.25L422.15 514.84 422.15 514.84 404.74 532.25Z"
fill-rule="evenodd" fill="black"/>
<path d="M401.48 528.99L418.89 511.58 418.89 511.58 401.48 528.99Z"
fill-rule="evenodd" fill="black"/>
<path d="M409.54 536.23L406.28 532.97 423.15 516.1 426.41 519.36 409.54 536.23Z"
fill-rule="evenodd" fill="black"/>
<path d="M409.54 536.23L406.28 532.97 406.28 532.97 409.54 536.23Z"
fill-rule="evenodd" fill="black"/>
<path d="M409.54 536.23L406.28 532.97 423.15 516.1 426.41 519.36 409.54 536.23Z"
fill-rule="evenodd" fill="black"/>
<path d="M423.15 516.1L426.41 519.36 426.41 519.36 423.15 516.1Z"
fill-rule="evenodd" fill="black"/>
<path d="M409.54 536.23L426.41 519.36 426.41 519.36 409.54 536.23Z"
fill-rule="evenodd" fill="black"/>
<path d="M406.28 532.97L423.15 516.1 423.15 516.1 406.28 532.97Z"
fill-rule="evenodd" fill="black"/>
</svg>
