<?xml version="1.0" encoding="UTF-8"?>
<svg xmlns="http://www.w3.org/2000/svg" width="800.000" height="600.000" viewBox="0.0 0.0 800.000 600.000" version="1.1">
  <title>Produce by Acme CAD Converter</title>
  <desc>Produce by Acme CAD Converter</desc>
<path d="M769.09 296.91L769.09 303.09 2.26 303.09 2.26 296.91 769.09 296.91Z"
fill-rule="evenodd" fill="black"/>
<path d="M2.26 303.09L2.26 296.91 766 296.91 772.18 303.09 2.26 303.09Z"
fill-rule="evenodd" fill="black"/>
<path d="M772.18 303.09L766 296.91 766 214.8 772.18 214.8 772.18 303.09Z"
fill-rule="evenodd" fill="black"/>
<path d="M766 214.8L772.18 214.8 772.18 385.2 766 385.2 766 214.8Z"
fill-rule="evenodd" fill="black"/>
<path d="M632.61 300L626.44 300 626.44 273.22 632.61 263.23 632.61 300Z"
fill-rule="evenodd" fill="black"/>
<path d="M632.61 263.23L626.44 273.22 572.88 300 559.07 300 632.61 263.23Z"
fill-rule="evenodd" fill="black"/>
<path d="M559.07 300L572.88 300 626.44 326.78 632.61 336.77 559.07 300Z"
fill-rule="evenodd" fill="black"/>
<path d="M632.61 336.77L626.44 326.78 626.44 268.22 632.61 268.22 632.61 336.77Z"
fill-rule="evenodd" fill="black"/>
<path d="M797.74 300L797.53 296.55 791.4 297.29 791.56 300 797.74 300Z"
fill-rule="nonzero" fill="black"/>
<path d="M797.53 296.55L796.9 293.14 790.91 294.62 791.4 297.29 797.53 296.55Z"
fill-rule="nonzero" fill="black"/>
<path d="M796.9 293.14L795.87 289.84 790.1 292.03 790.91 294.62 796.9 293.14Z"
fill-rule="nonzero" fill="black"/>
<path d="M795.87 289.84L794.45 286.69 788.99 289.56 790.1 292.03 795.87 289.84Z"
fill-rule="nonzero" fill="black"/>
<path d="M794.45 286.69L792.66 283.73 787.58 287.23 788.99 289.56 794.45 286.69Z"
fill-rule="nonzero" fill="black"/>
<path d="M792.66 283.73L790.53 281 785.91 285.1 787.58 287.23 792.66 283.73Z"
fill-rule="nonzero" fill="black"/>
<path d="M790.53 281L788.08 278.56 783.99 283.18 785.91 285.1 790.53 281Z"
fill-rule="nonzero" fill="black"/>
<path d="M788.08 278.56L785.36 276.42 781.85 281.5 783.99 283.18 788.08 278.56Z"
fill-rule="nonzero" fill="black"/>
<path d="M785.36 276.42L782.4 274.63 779.53 280.1 781.85 281.5 785.36 276.42Z"
fill-rule="nonzero" fill="black"/>
<path d="M782.4 274.63L779.25 273.21 777.06 278.99 779.53 280.1 782.4 274.63Z"
fill-rule="nonzero" fill="black"/>
<path d="M779.25 273.21L775.94 272.18 774.47 278.18 777.06 278.99 779.25 273.21Z"
fill-rule="nonzero" fill="black"/>
<path d="M775.94 272.18L772.54 271.56 771.8 277.69 774.47 278.18 775.94 272.18Z"
fill-rule="nonzero" fill="black"/>
<path d="M772.54 271.56L769.09 271.35 769.09 277.53 771.8 277.69 772.54 271.56Z"
fill-rule="nonzero" fill="black"/>
<path d="M769.09 271.35L765.64 271.56 766.38 277.69 769.09 277.53 769.09 271.35Z"
fill-rule="nonzero" fill="black"/>
<path d="M765.64 271.56L762.23 272.18 763.71 278.18 766.38 277.69 765.64 271.56Z"
fill-rule="nonzero" fill="black"/>
<path d="M762.23 272.18L758.93 273.21 761.12 278.99 763.71 278.18 762.23 272.18Z"
fill-rule="nonzero" fill="black"/>
<path d="M758.93 273.21L755.78 274.63 758.64 280.1 761.12 278.99 758.93 273.21Z"
fill-rule="nonzero" fill="black"/>
<path d="M755.78 274.63L752.82 276.42 756.32 281.5 758.64 280.1 755.78 274.63Z"
fill-rule="nonzero" fill="black"/>
<path d="M752.82 276.42L750.09 278.56 754.19 283.18 756.32 281.5 752.82 276.42Z"
fill-rule="nonzero" fill="black"/>
<path d="M750.09 278.56L747.65 281 752.27 285.1 754.19 283.18 750.09 278.56Z"
fill-rule="nonzero" fill="black"/>
<path d="M747.65 281L745.51 283.73 750.59 287.23 752.27 285.1 747.65 281Z"
fill-rule="nonzero" fill="black"/>
<path d="M745.51 283.73L743.72 286.69 749.19 289.56 750.59 287.23 745.51 283.73Z"
fill-rule="nonzero" fill="black"/>
<path d="M743.72 286.69L742.3 289.84 748.08 292.03 749.19 289.56 743.72 286.69Z"
fill-rule="nonzero" fill="black"/>
<path d="M742.3 289.84L741.27 293.14 747.27 294.62 748.08 292.03 742.3 289.84Z"
fill-rule="nonzero" fill="black"/>
<path d="M741.27 293.14L740.65 296.55 746.78 297.29 747.27 294.62 741.27 293.14Z"
fill-rule="nonzero" fill="black"/>
<path d="M740.65 296.55L740.44 300 746.61 300 746.78 297.29 740.65 296.55Z"
fill-rule="nonzero" fill="black"/>
<path d="M740.44 300L740.65 303.45 746.78 302.71 746.61 300 740.44 300Z"
fill-rule="nonzero" fill="black"/>
<path d="M740.65 303.45L741.27 306.85 747.27 305.38 746.78 302.71 740.65 303.45Z"
fill-rule="nonzero" fill="black"/>
<path d="M741.27 306.85L742.3 310.16 748.07 307.97 747.27 305.38 741.27 306.85Z"
fill-rule="nonzero" fill="black"/>
<path d="M742.3 310.16L743.72 313.31 749.19 310.44 748.07 307.97 742.3 310.16Z"
fill-rule="nonzero" fill="black"/>
<path d="M743.72 313.31L745.51 316.27 750.59 312.77 749.19 310.44 743.72 313.31Z"
fill-rule="nonzero" fill="black"/>
<path d="M745.51 316.27L747.64 319 752.27 314.9 750.59 312.77 745.51 316.27Z"
fill-rule="nonzero" fill="black"/>
<path d="M747.64 319L750.09 321.44 754.18 316.82 752.27 314.9 747.64 319Z"
fill-rule="nonzero" fill="black"/>
<path d="M750.09 321.44L752.81 323.58 756.32 318.49 754.18 316.82 750.09 321.44Z"
fill-rule="nonzero" fill="black"/>
<path d="M752.81 323.58L755.77 325.37 758.64 319.9 756.32 318.49 752.81 323.58Z"
fill-rule="nonzero" fill="black"/>
<path d="M755.77 325.37L758.93 326.79 761.12 321.01 758.64 319.9 755.77 325.37Z"
fill-rule="nonzero" fill="black"/>
<path d="M758.93 326.79L762.23 327.82 763.71 321.82 761.12 321.01 758.93 326.79Z"
fill-rule="nonzero" fill="black"/>
<path d="M762.23 327.82L765.63 328.44 766.38 322.31 763.71 321.82 762.23 327.82Z"
fill-rule="nonzero" fill="black"/>
<path d="M765.63 328.44L769.09 328.65 769.09 322.47 766.38 322.31 765.63 328.44Z"
fill-rule="nonzero" fill="black"/>
<path d="M769.09 328.65L772.54 328.44 771.8 322.31 769.09 322.47 769.09 328.65Z"
fill-rule="nonzero" fill="black"/>
<path d="M772.54 328.44L775.94 327.82 774.47 321.82 771.8 322.31 772.54 328.44Z"
fill-rule="nonzero" fill="black"/>
<path d="M775.94 327.82L779.25 326.79 777.06 321.01 774.47 321.82 775.94 327.82Z"
fill-rule="nonzero" fill="black"/>
<path d="M779.25 326.79L782.4 325.37 779.53 319.9 777.06 321.01 779.25 326.79Z"
fill-rule="nonzero" fill="black"/>
<path d="M782.4 325.37L785.36 323.58 781.85 318.5 779.53 319.9 782.4 325.37Z"
fill-rule="nonzero" fill="black"/>
<path d="M785.36 323.58L788.09 321.44 783.99 316.82 781.85 318.5 785.36 323.58Z"
fill-rule="nonzero" fill="black"/>
<path d="M788.09 321.44L790.53 319 785.91 314.9 783.99 316.82 788.09 321.44Z"
fill-rule="nonzero" fill="black"/>
<path d="M790.53 319L792.66 316.27 787.58 312.77 785.91 314.9 790.53 319Z"
fill-rule="nonzero" fill="black"/>
<path d="M792.66 316.27L794.45 313.31 788.99 310.44 787.58 312.77 792.66 316.27Z"
fill-rule="nonzero" fill="black"/>
<path d="M794.45 313.31L795.87 310.16 790.1 307.97 788.99 310.44 794.45 313.31Z"
fill-rule="nonzero" fill="black"/>
<path d="M795.87 310.16L796.9 306.86 790.91 305.38 790.1 307.97 795.87 310.16Z"
fill-rule="nonzero" fill="black"/>
<path d="M796.9 306.86L797.53 303.45 791.4 302.71 790.91 305.38 796.9 306.86Z"
fill-rule="nonzero" fill="black"/>
<path d="M797.53 303.45L797.74 300 791.56 300 791.4 302.71 797.53 303.45Z"
fill-rule="nonzero" fill="black"/>
</svg>
