<?xml version="1.0" encoding="UTF-8"?>
<svg xmlns="http://www.w3.org/2000/svg" width="800.000" height="600.000" viewBox="0.0 0.0 800.000 600.000" version="1.1">
  <title>Produce by Acme CAD Converter</title>
  <desc>Produce by Acme CAD Converter</desc>
<path d="M243.3 6.31L243.3 1.7 402.31 1.7 397.69 6.31 243.3 6.31Z"
fill-rule="evenodd" fill="black"/>
<path d="M243.3 6.31L243.3 1.7 243.3 1.7 243.3 6.31Z"
fill-rule="evenodd" fill="black"/>
<path d="M243.3 6.31L243.3 1.7 402.31 1.7 397.69 6.31 243.3 6.31Z"
fill-rule="evenodd" fill="black"/>
<path d="M402.31 1.7L397.69 6.31 397.69 6.31 402.31 1.7Z"
fill-rule="evenodd" fill="black"/>
<path d="M243.3 6.31L397.69 6.31 397.69 6.31 243.3 6.31Z"
fill-rule="evenodd" fill="black"/>
<path d="M243.3 1.7L402.31 1.7 402.31 1.7 243.3 1.7Z"
fill-rule="evenodd" fill="black"/>
<path d="M397.69 6.31L402.31 1.7 402.31 56.24 397.69 56.24 397.69 6.31Z"
fill-rule="evenodd" fill="black"/>
<path d="M397.69 6.31L402.31 1.7 402.31 1.7 397.69 6.31Z"
fill-rule="evenodd" fill="black"/>
<path d="M397.69 6.31L402.31 1.7 402.31 56.24 397.69 56.24 397.69 6.31Z"
fill-rule="evenodd" fill="black"/>
<path d="M402.31 56.24L397.69 56.24 397.69 56.24 402.31 56.24Z"
fill-rule="evenodd" fill="black"/>
<path d="M397.69 6.31L397.69 56.24 397.69 56.24 397.69 6.31Z"
fill-rule="evenodd" fill="black"/>
<path d="M402.31 1.7L402.31 56.24 402.31 56.24 402.31 1.7Z"
fill-rule="evenodd" fill="black"/>
<path d="M397.69 195.53L402.31 195.53 402.31 593.69 397.69 598.3 397.69 195.53Z"
fill-rule="evenodd" fill="black"/>
<path d="M397.69 195.53L402.31 195.53 402.31 195.53 397.69 195.53Z"
fill-rule="evenodd" fill="black"/>
<path d="M397.69 195.53L402.31 195.53 402.31 593.69 397.69 598.3 397.69 195.53Z"
fill-rule="evenodd" fill="black"/>
<path d="M402.31 593.69L397.69 598.3 397.69 598.3 402.31 593.69Z"
fill-rule="evenodd" fill="black"/>
<path d="M397.69 195.53L397.69 598.3 397.69 598.3 397.69 195.53Z"
fill-rule="evenodd" fill="black"/>
<path d="M402.31 195.53L402.31 593.69 402.31 593.69 402.31 195.53Z"
fill-rule="evenodd" fill="black"/>
<path d="M397.69 598.3L402.31 593.69 556.7 593.69 556.7 598.3 397.69 598.3Z"
fill-rule="evenodd" fill="black"/>
<path d="M397.69 598.3L402.31 593.69 402.31 593.69 397.69 598.3Z"
fill-rule="evenodd" fill="black"/>
<path d="M397.69 598.3L402.31 593.69 556.7 593.69 556.7 598.3 397.69 598.3Z"
fill-rule="evenodd" fill="black"/>
<path d="M556.7 593.69L556.7 598.3 556.7 598.3 556.7 593.69Z"
fill-rule="evenodd" fill="black"/>
<path d="M397.69 598.3L556.7 598.3 556.7 598.3 397.69 598.3Z"
fill-rule="evenodd" fill="black"/>
<path d="M402.31 593.69L556.7 593.69 556.7 593.69 402.31 593.69Z"
fill-rule="evenodd" fill="black"/>
</svg>
