<?xml version="1.0" encoding="UTF-8"?>
<svg xmlns="http://www.w3.org/2000/svg" width="800.000" height="600.000" viewBox="0.0 0.0 800.000 600.000" version="1.1">
  <title>Produce by Acme CAD Converter</title>
  <desc>Produce by Acme CAD Converter</desc>
<path d="M402.32 598.3L397.68 598.3 397.68 1.7 402.32 1.7 402.32 598.3Z"
fill-rule="evenodd" fill="black"/>
<path d="M402.32 598.3L397.68 598.3 397.68 598.3 402.32 598.3Z"
fill-rule="evenodd" fill="black"/>
<path d="M402.32 598.3L397.68 598.3 397.68 1.7 402.32 1.7 402.32 598.3Z"
fill-rule="evenodd" fill="black"/>
<path d="M397.68 1.7L402.32 1.7 402.32 1.7 397.68 1.7Z"
fill-rule="evenodd" fill="black"/>
<path d="M402.32 598.3L402.32 1.7 402.32 1.7 402.32 598.3Z"
fill-rule="evenodd" fill="black"/>
<path d="M397.68 598.3L397.68 1.7 397.68 1.7 397.68 598.3Z"
fill-rule="evenodd" fill="black"/>
<path d="M397.68 1.7L402.32 1.7 402.32 524.34 397.68 528.99 397.68 1.7Z"
fill-rule="evenodd" fill="black"/>
<path d="M397.68 1.7L402.32 1.7 402.32 1.7 397.68 1.7Z"
fill-rule="evenodd" fill="black"/>
<path d="M397.68 1.7L402.32 1.7 402.32 524.34 397.68 528.99 397.68 1.7Z"
fill-rule="evenodd" fill="black"/>
<path d="M402.32 524.34L397.68 528.99 397.68 528.99 402.32 524.34Z"
fill-rule="evenodd" fill="black"/>
<path d="M397.68 1.7L397.68 528.99 397.68 528.99 397.68 1.7Z"
fill-rule="evenodd" fill="black"/>
<path d="M402.32 1.7L402.32 524.34 402.32 524.34 402.32 1.7Z"
fill-rule="evenodd" fill="black"/>
<path d="M397.68 528.99L402.32 524.34 411.71 524.34 404.19 528.99 397.68 528.99Z"
fill-rule="evenodd" fill="black"/>
<path d="M397.68 528.99L402.32 524.34 402.32 524.34 397.68 528.99Z"
fill-rule="evenodd" fill="black"/>
<path d="M397.68 528.99L402.32 524.34 411.71 524.34 404.19 528.99 397.68 528.99Z"
fill-rule="evenodd" fill="black"/>
<path d="M411.71 524.34L404.19 528.99 404.19 528.99 411.71 524.34Z"
fill-rule="evenodd" fill="black"/>
<path d="M397.68 528.99L404.19 528.99 404.19 528.99 397.68 528.99Z"
fill-rule="evenodd" fill="black"/>
<path d="M402.32 524.34L411.71 524.34 411.71 524.34 402.32 524.34Z"
fill-rule="evenodd" fill="black"/>
<path d="M404.19 528.99L411.71 524.34 400 547.76 400 537.36 404.19 528.99Z"
fill-rule="evenodd" fill="black"/>
<path d="M404.19 528.99L411.71 524.34 411.71 524.34 404.19 528.99Z"
fill-rule="evenodd" fill="black"/>
<path d="M404.19 528.99L411.71 524.34 400 547.76 400 537.36 404.19 528.99Z"
fill-rule="evenodd" fill="black"/>
<path d="M400 547.76L400 537.36 400 537.36 400 547.76Z"
fill-rule="evenodd" fill="black"/>
<path d="M404.19 528.99L400 537.36 400 537.36 404.19 528.99Z"
fill-rule="evenodd" fill="black"/>
<path d="M411.71 524.34L400 547.76 400 547.76 411.71 524.34Z"
fill-rule="evenodd" fill="black"/>
<path d="M400 537.36L400 547.76 388.29 524.34 395.81 528.99 400 537.36Z"
fill-rule="evenodd" fill="black"/>
<path d="M400 537.36L400 547.76 400 547.76 400 537.36Z"
fill-rule="evenodd" fill="black"/>
<path d="M400 537.36L400 547.76 388.29 524.34 395.81 528.99 400 537.36Z"
fill-rule="evenodd" fill="black"/>
<path d="M388.29 524.34L395.81 528.99 395.81 528.99 388.29 524.34Z"
fill-rule="evenodd" fill="black"/>
<path d="M400 537.36L395.81 528.99 395.81 528.99 400 537.36Z"
fill-rule="evenodd" fill="black"/>
<path d="M400 547.76L388.29 524.34 388.29 524.34 400 547.76Z"
fill-rule="evenodd" fill="black"/>
<path d="M395.81 528.99L388.29 524.34 407.95 524.34 407.95 528.99 395.81 528.99Z"
fill-rule="evenodd" fill="black"/>
<path d="M395.81 528.99L388.29 524.34 388.29 524.34 395.81 528.99Z"
fill-rule="evenodd" fill="black"/>
<path d="M395.81 528.99L388.29 524.34 407.95 524.34 407.95 528.99 395.81 528.99Z"
fill-rule="evenodd" fill="black"/>
<path d="M407.95 524.34L407.95 528.99 407.95 528.99 407.95 524.34Z"
fill-rule="evenodd" fill="black"/>
<path d="M395.81 528.99L407.95 528.99 407.95 528.99 395.81 528.99Z"
fill-rule="evenodd" fill="black"/>
<path d="M388.29 524.34L407.95 524.34 407.95 524.34 388.29 524.34Z"
fill-rule="evenodd" fill="black"/>
<path d="M397.68 594.04L402.32 594.04 402.32 598.3 397.68 598.3 397.68 594.04Z"
fill-rule="evenodd" fill="black"/>
<path d="M397.68 594.04L402.32 594.04 402.32 594.04 397.68 594.04Z"
fill-rule="evenodd" fill="black"/>
<path d="M397.68 594.04L402.32 594.04 402.32 598.3 397.68 598.3 397.68 594.04Z"
fill-rule="evenodd" fill="black"/>
<path d="M402.32 598.3L397.68 598.3 397.68 598.3 402.32 598.3Z"
fill-rule="evenodd" fill="black"/>
<path d="M397.68 594.04L397.68 598.3 397.68 598.3 397.68 594.04Z"
fill-rule="evenodd" fill="black"/>
<path d="M402.32 594.04L402.32 598.3 402.32 598.3 402.32 594.04Z"
fill-rule="evenodd" fill="black"/>
</svg>
