<?xml version="1.0" encoding="UTF-8"?>
<svg xmlns="http://www.w3.org/2000/svg" width="800.000" height="600.000" viewBox="0.0 0.0 800.000 600.000" version="1.1">
  <title>Produce by Acme CAD Converter</title>
  <desc>Produce by Acme CAD Converter</desc>
<path d="M317.78 1.7L322.55 1.7 322.55 593.53 317.78 598.3 317.78 1.7Z"
fill-rule="evenodd" fill="black"/>
<path d="M317.78 1.7L322.55 1.7 322.55 1.7 317.78 1.7Z"
fill-rule="evenodd" fill="black"/>
<path d="M317.78 1.7L322.55 1.7 322.55 593.53 317.78 598.3 317.78 1.7Z"
fill-rule="evenodd" fill="black"/>
<path d="M322.55 593.53L317.78 598.3 317.78 598.3 322.55 593.53Z"
fill-rule="evenodd" fill="black"/>
<path d="M317.78 1.7L317.78 598.3 317.78 598.3 317.78 1.7Z"
fill-rule="evenodd" fill="black"/>
<path d="M322.55 1.7L322.55 593.53 322.55 593.53 322.55 1.7Z"
fill-rule="evenodd" fill="black"/>
<path d="M317.78 598.3L322.55 593.53 482.22 593.53 482.22 598.3 317.78 598.3Z"
fill-rule="evenodd" fill="black"/>
<path d="M317.78 598.3L322.55 593.53 322.55 593.53 317.78 598.3Z"
fill-rule="evenodd" fill="black"/>
<path d="M317.78 598.3L322.55 593.53 482.22 593.53 482.22 598.3 317.78 598.3Z"
fill-rule="evenodd" fill="black"/>
<path d="M482.22 593.53L482.22 598.3 482.22 598.3 482.22 593.53Z"
fill-rule="evenodd" fill="black"/>
<path d="M317.78 598.3L482.22 598.3 482.22 598.3 317.78 598.3Z"
fill-rule="evenodd" fill="black"/>
<path d="M322.55 593.53L482.22 593.53 482.22 593.53 322.55 593.53Z"
fill-rule="evenodd" fill="black"/>
</svg>
