<?xml version="1.0" encoding="UTF-8"?>
<svg xmlns="http://www.w3.org/2000/svg" width="800.000" height="600.000" viewBox="0.0 0.0 800.000 600.000" version="1.1">
  <title>Produce by Acme CAD Converter</title>
  <desc>Produce by Acme CAD Converter</desc>
<path d="M402.41 596.18L397.78 596.18 397.78 1.7 402.41 1.7 402.41 596.18Z"
fill-rule="evenodd" fill="black"/>
<path d="M402.41 596.18L397.78 596.18 397.78 596.18 402.41 596.18Z"
fill-rule="evenodd" fill="black"/>
<path d="M402.41 596.18L397.78 596.18 397.78 1.7 402.41 1.7 402.41 596.18Z"
fill-rule="evenodd" fill="black"/>
<path d="M397.78 1.7L402.41 1.7 402.41 1.7 397.78 1.7Z"
fill-rule="evenodd" fill="black"/>
<path d="M402.41 596.18L402.41 1.7 402.41 1.7 402.41 596.18Z"
fill-rule="evenodd" fill="black"/>
<path d="M397.78 596.18L397.78 1.7 397.78 1.7 397.78 596.18Z"
fill-rule="evenodd" fill="black"/>
<path d="M397.78 1.7L402.41 1.7 402.41 522.48 397.78 527.11 397.78 1.7Z"
fill-rule="evenodd" fill="black"/>
<path d="M397.78 1.7L402.41 1.7 402.41 1.7 397.78 1.7Z"
fill-rule="evenodd" fill="black"/>
<path d="M397.78 1.7L402.41 1.7 402.41 522.48 397.78 527.11 397.78 1.7Z"
fill-rule="evenodd" fill="black"/>
<path d="M402.41 522.48L397.78 527.11 397.78 527.11 402.41 522.48Z"
fill-rule="evenodd" fill="black"/>
<path d="M397.78 1.7L397.78 527.11 397.78 527.11 397.78 1.7Z"
fill-rule="evenodd" fill="black"/>
<path d="M402.41 1.7L402.41 522.48 402.41 522.48 402.41 1.7Z"
fill-rule="evenodd" fill="black"/>
<path d="M397.78 527.11L402.41 522.48 411.76 522.48 404.27 527.11 397.78 527.11Z"
fill-rule="evenodd" fill="black"/>
<path d="M397.78 527.11L402.41 522.48 402.41 522.48 397.78 527.11Z"
fill-rule="evenodd" fill="black"/>
<path d="M397.78 527.11L402.41 522.48 411.76 522.48 404.27 527.11 397.78 527.11Z"
fill-rule="evenodd" fill="black"/>
<path d="M411.76 522.48L404.27 527.11 404.27 527.11 411.76 522.48Z"
fill-rule="evenodd" fill="black"/>
<path d="M397.78 527.11L404.27 527.11 404.27 527.11 397.78 527.11Z"
fill-rule="evenodd" fill="black"/>
<path d="M402.41 522.48L411.76 522.48 411.76 522.48 402.41 522.48Z"
fill-rule="evenodd" fill="black"/>
<path d="M404.27 527.11L411.76 522.48 400.1 545.81 400.1 535.46 404.27 527.11Z"
fill-rule="evenodd" fill="black"/>
<path d="M404.27 527.11L411.76 522.48 411.76 522.48 404.27 527.11Z"
fill-rule="evenodd" fill="black"/>
<path d="M404.27 527.11L411.76 522.48 400.1 545.81 400.1 535.46 404.27 527.11Z"
fill-rule="evenodd" fill="black"/>
<path d="M400.1 545.81L400.1 535.46 400.1 535.46 400.1 545.81Z"
fill-rule="evenodd" fill="black"/>
<path d="M404.27 527.11L400.1 535.46 400.1 535.46 404.27 527.11Z"
fill-rule="evenodd" fill="black"/>
<path d="M411.76 522.48L400.1 545.81 400.1 545.81 411.76 522.48Z"
fill-rule="evenodd" fill="black"/>
<path d="M400.1 535.46L400.1 545.81 388.43 522.48 395.93 527.11 400.1 535.46Z"
fill-rule="evenodd" fill="black"/>
<path d="M400.1 535.46L400.1 545.81 400.1 545.81 400.1 535.46Z"
fill-rule="evenodd" fill="black"/>
<path d="M400.1 535.46L400.1 545.81 388.43 522.48 395.93 527.11 400.1 535.46Z"
fill-rule="evenodd" fill="black"/>
<path d="M388.43 522.48L395.93 527.11 395.93 527.11 388.43 522.48Z"
fill-rule="evenodd" fill="black"/>
<path d="M400.1 535.46L395.93 527.11 395.93 527.11 400.1 535.46Z"
fill-rule="evenodd" fill="black"/>
<path d="M400.1 545.81L388.43 522.48 388.43 522.48 400.1 545.81Z"
fill-rule="evenodd" fill="black"/>
<path d="M395.93 527.11L388.43 522.48 408.02 522.48 408.02 527.11 395.93 527.11Z"
fill-rule="evenodd" fill="black"/>
<path d="M395.93 527.11L388.43 522.48 388.43 522.48 395.93 527.11Z"
fill-rule="evenodd" fill="black"/>
<path d="M395.93 527.11L388.43 522.48 408.02 522.48 408.02 527.11 395.93 527.11Z"
fill-rule="evenodd" fill="black"/>
<path d="M408.02 522.48L408.02 527.11 408.02 527.11 408.02 522.48Z"
fill-rule="evenodd" fill="black"/>
<path d="M395.93 527.11L408.02 527.11 408.02 527.11 395.93 527.11Z"
fill-rule="evenodd" fill="black"/>
<path d="M388.43 522.48L408.02 522.48 408.02 522.48 388.43 522.48Z"
fill-rule="evenodd" fill="black"/>
<path d="M412.84 559.89L412.84 564.52 395.85 564.52 395.85 559.89 412.84 559.89Z"
fill-rule="evenodd" fill="black"/>
<path d="M412.84 559.89L412.84 564.52 412.84 564.52 412.84 559.89Z"
fill-rule="evenodd" fill="black"/>
<path d="M412.84 559.89L412.84 564.52 395.85 564.52 395.85 559.89 412.84 559.89Z"
fill-rule="evenodd" fill="black"/>
<path d="M395.85 564.52L395.85 559.89 395.85 559.89 395.85 564.52Z"
fill-rule="evenodd" fill="black"/>
<path d="M412.84 559.89L395.85 559.89 395.85 559.89 412.84 559.89Z"
fill-rule="evenodd" fill="black"/>
<path d="M412.84 564.52L395.85 564.52 395.85 564.52 412.84 564.52Z"
fill-rule="evenodd" fill="black"/>
<path d="M395.85 559.89L393.77 560.14 394.88 564.64 395.85 564.52 395.85 559.89Z"
fill-rule="evenodd" fill="black"/>
<path d="M395.85 564.52L394.88 564.64 393.77 560.14 395.85 559.89 395.85 564.52Z"
fill-rule="evenodd" fill="black"/>
<path d="M393.77 560.14L395.85 559.89 395.85 559.89 393.77 560.14Z"
fill-rule="evenodd" fill="black"/>
<path d="M394.88 564.64L393.77 560.14 393.77 560.14 394.88 564.64Z"
fill-rule="evenodd" fill="black"/>
<path d="M395.85 564.52L394.88 564.64 394.88 564.64 395.85 564.52Z"
fill-rule="evenodd" fill="black"/>
<path d="M395.85 559.89L395.85 564.52 395.85 564.52 395.85 559.89Z"
fill-rule="evenodd" fill="black"/>
<path d="M393.77 560.14L391.81 560.89 393.97 564.99 394.88 564.64 393.77 560.14Z"
fill-rule="evenodd" fill="black"/>
<path d="M394.88 564.64L393.97 564.99 391.81 560.89 393.77 560.14 394.88 564.64Z"
fill-rule="evenodd" fill="black"/>
<path d="M391.81 560.89L393.77 560.14 393.77 560.14 391.81 560.89Z"
fill-rule="evenodd" fill="black"/>
<path d="M393.97 564.99L391.81 560.89 391.81 560.89 393.97 564.99Z"
fill-rule="evenodd" fill="black"/>
<path d="M394.88 564.64L393.97 564.99 393.97 564.99 394.88 564.64Z"
fill-rule="evenodd" fill="black"/>
<path d="M393.77 560.14L394.88 564.64 394.88 564.64 393.77 560.14Z"
fill-rule="evenodd" fill="black"/>
<path d="M391.81 560.89L390.09 562.08 393.16 565.54 393.97 564.99 391.81 560.89Z"
fill-rule="evenodd" fill="black"/>
<path d="M393.97 564.99L393.16 565.54 390.09 562.08 391.81 560.89 393.97 564.99Z"
fill-rule="evenodd" fill="black"/>
<path d="M390.09 562.08L391.81 560.89 391.81 560.89 390.09 562.08Z"
fill-rule="evenodd" fill="black"/>
<path d="M393.16 565.54L390.09 562.08 390.09 562.08 393.16 565.54Z"
fill-rule="evenodd" fill="black"/>
<path d="M393.97 564.99L393.16 565.54 393.16 565.54 393.97 564.99Z"
fill-rule="evenodd" fill="black"/>
<path d="M391.81 560.89L393.97 564.99 393.97 564.99 391.81 560.89Z"
fill-rule="evenodd" fill="black"/>
<path d="M390.09 562.08L388.7 563.64 392.51 566.28 393.16 565.54 390.09 562.08Z"
fill-rule="evenodd" fill="black"/>
<path d="M393.16 565.54L392.51 566.28 388.7 563.64 390.09 562.08 393.16 565.54Z"
fill-rule="evenodd" fill="black"/>
<path d="M388.7 563.64L390.09 562.08 390.09 562.08 388.7 563.64Z"
fill-rule="evenodd" fill="black"/>
<path d="M392.51 566.28L388.7 563.64 388.7 563.64 392.51 566.28Z"
fill-rule="evenodd" fill="black"/>
<path d="M393.16 565.54L392.51 566.28 392.51 566.28 393.16 565.54Z"
fill-rule="evenodd" fill="black"/>
<path d="M390.09 562.08L393.16 565.54 393.16 565.54 390.09 562.08Z"
fill-rule="evenodd" fill="black"/>
<path d="M388.7 563.64L387.73 565.5 392.06 567.14 392.51 566.28 388.7 563.64Z"
fill-rule="evenodd" fill="black"/>
<path d="M392.51 566.28L392.06 567.14 387.73 565.5 388.7 563.64 392.51 566.28Z"
fill-rule="evenodd" fill="black"/>
<path d="M387.73 565.5L388.7 563.64 388.7 563.64 387.73 565.5Z"
fill-rule="evenodd" fill="black"/>
<path d="M392.06 567.14L387.73 565.5 387.73 565.5 392.06 567.14Z"
fill-rule="evenodd" fill="black"/>
<path d="M392.51 566.28L392.06 567.14 392.06 567.14 392.51 566.28Z"
fill-rule="evenodd" fill="black"/>
<path d="M388.7 563.64L392.51 566.28 392.51 566.28 388.7 563.64Z"
fill-rule="evenodd" fill="black"/>
<path d="M387.73 565.5L387.23 567.53 391.83 568.09 392.06 567.14 387.73 565.5Z"
fill-rule="evenodd" fill="black"/>
<path d="M392.06 567.14L391.83 568.09 387.23 567.53 387.73 565.5 392.06 567.14Z"
fill-rule="evenodd" fill="black"/>
<path d="M387.23 567.53L387.73 565.5 387.73 565.5 387.23 567.53Z"
fill-rule="evenodd" fill="black"/>
<path d="M391.83 568.09L387.23 567.53 387.23 567.53 391.83 568.09Z"
fill-rule="evenodd" fill="black"/>
<path d="M392.06 567.14L391.83 568.09 391.83 568.09 392.06 567.14Z"
fill-rule="evenodd" fill="black"/>
<path d="M387.73 565.5L392.06 567.14 392.06 567.14 387.73 565.5Z"
fill-rule="evenodd" fill="black"/>
<path d="M387.23 567.53L387.23 569.63 391.83 569.07 391.83 568.09 387.23 567.53Z"
fill-rule="evenodd" fill="black"/>
<path d="M391.83 568.09L391.83 569.07 387.23 569.63 387.23 567.53 391.83 568.09Z"
fill-rule="evenodd" fill="black"/>
<path d="M387.23 569.63L387.23 567.53 387.23 567.53 387.23 569.63Z"
fill-rule="evenodd" fill="black"/>
<path d="M391.83 569.07L387.23 569.63 387.23 569.63 391.83 569.07Z"
fill-rule="evenodd" fill="black"/>
<path d="M391.83 568.09L391.83 569.07 391.83 569.07 391.83 568.09Z"
fill-rule="evenodd" fill="black"/>
<path d="M387.23 567.53L391.83 568.09 391.83 568.09 387.23 567.53Z"
fill-rule="evenodd" fill="black"/>
<path d="M387.23 569.63L387.73 571.66 392.06 570.02 391.83 569.07 387.23 569.63Z"
fill-rule="evenodd" fill="black"/>
<path d="M391.83 569.07L392.06 570.02 387.73 571.66 387.23 569.63 391.83 569.07Z"
fill-rule="evenodd" fill="black"/>
<path d="M387.73 571.66L387.23 569.63 387.23 569.63 387.73 571.66Z"
fill-rule="evenodd" fill="black"/>
<path d="M392.06 570.02L387.73 571.66 387.73 571.66 392.06 570.02Z"
fill-rule="evenodd" fill="black"/>
<path d="M391.83 569.07L392.06 570.02 392.06 570.02 391.83 569.07Z"
fill-rule="evenodd" fill="black"/>
<path d="M387.23 569.63L391.83 569.07 391.83 569.07 387.23 569.63Z"
fill-rule="evenodd" fill="black"/>
<path d="M387.73 571.66L388.7 573.51 392.51 570.88 392.06 570.02 387.73 571.66Z"
fill-rule="evenodd" fill="black"/>
<path d="M392.06 570.02L392.51 570.88 388.7 573.51 387.73 571.66 392.06 570.02Z"
fill-rule="evenodd" fill="black"/>
<path d="M388.7 573.51L387.73 571.66 387.73 571.66 388.7 573.51Z"
fill-rule="evenodd" fill="black"/>
<path d="M392.51 570.88L388.7 573.51 388.7 573.51 392.51 570.88Z"
fill-rule="evenodd" fill="black"/>
<path d="M392.06 570.02L392.51 570.88 392.51 570.88 392.06 570.02Z"
fill-rule="evenodd" fill="black"/>
<path d="M387.73 571.66L392.06 570.02 392.06 570.02 387.73 571.66Z"
fill-rule="evenodd" fill="black"/>
<path d="M388.7 573.51L390.09 575.08 393.16 571.61 392.51 570.88 388.7 573.51Z"
fill-rule="evenodd" fill="black"/>
<path d="M392.51 570.88L393.16 571.61 390.09 575.08 388.7 573.51 392.51 570.88Z"
fill-rule="evenodd" fill="black"/>
<path d="M390.09 575.08L388.7 573.51 388.7 573.51 390.09 575.08Z"
fill-rule="evenodd" fill="black"/>
<path d="M393.16 571.61L390.09 575.08 390.09 575.08 393.16 571.61Z"
fill-rule="evenodd" fill="black"/>
<path d="M392.51 570.88L393.16 571.61 393.16 571.61 392.51 570.88Z"
fill-rule="evenodd" fill="black"/>
<path d="M388.7 573.51L392.51 570.88 392.51 570.88 388.7 573.51Z"
fill-rule="evenodd" fill="black"/>
<path d="M390.09 575.08L391.81 576.27 393.97 572.17 393.16 571.61 390.09 575.08Z"
fill-rule="evenodd" fill="black"/>
<path d="M393.16 571.61L393.97 572.17 391.81 576.27 390.09 575.08 393.16 571.61Z"
fill-rule="evenodd" fill="black"/>
<path d="M391.81 576.27L390.09 575.08 390.09 575.08 391.81 576.27Z"
fill-rule="evenodd" fill="black"/>
<path d="M393.97 572.17L391.81 576.27 391.81 576.27 393.97 572.17Z"
fill-rule="evenodd" fill="black"/>
<path d="M393.16 571.61L393.97 572.17 393.97 572.17 393.16 571.61Z"
fill-rule="evenodd" fill="black"/>
<path d="M390.09 575.08L393.16 571.61 393.16 571.61 390.09 575.08Z"
fill-rule="evenodd" fill="black"/>
<path d="M391.81 576.27L393.77 577.01 394.88 572.51 393.97 572.17 391.81 576.27Z"
fill-rule="evenodd" fill="black"/>
<path d="M393.97 572.17L394.88 572.51 393.77 577.01 391.81 576.27 393.97 572.17Z"
fill-rule="evenodd" fill="black"/>
<path d="M393.77 577.01L391.81 576.27 391.81 576.27 393.77 577.01Z"
fill-rule="evenodd" fill="black"/>
<path d="M394.88 572.51L393.77 577.01 393.77 577.01 394.88 572.51Z"
fill-rule="evenodd" fill="black"/>
<path d="M393.97 572.17L394.88 572.51 394.88 572.51 393.97 572.17Z"
fill-rule="evenodd" fill="black"/>
<path d="M391.81 576.27L393.97 572.17 393.97 572.17 391.81 576.27Z"
fill-rule="evenodd" fill="black"/>
<path d="M393.77 577.01L395.85 577.26 395.85 572.63 394.88 572.51 393.77 577.01Z"
fill-rule="evenodd" fill="black"/>
<path d="M394.88 572.51L395.85 572.63 395.85 577.26 393.77 577.01 394.88 572.51Z"
fill-rule="evenodd" fill="black"/>
<path d="M395.85 577.26L393.77 577.01 393.77 577.01 395.85 577.26Z"
fill-rule="evenodd" fill="black"/>
<path d="M395.85 572.63L395.85 577.26 395.85 577.26 395.85 572.63Z"
fill-rule="evenodd" fill="black"/>
<path d="M394.88 572.51L395.85 572.63 395.85 572.63 394.88 572.51Z"
fill-rule="evenodd" fill="black"/>
<path d="M393.77 577.01L394.88 572.51 394.88 572.51 393.77 577.01Z"
fill-rule="evenodd" fill="black"/>
<path d="M412.84 585.37L412.84 590 395.85 590 395.85 585.37 412.84 585.37Z"
fill-rule="evenodd" fill="black"/>
<path d="M412.84 585.37L412.84 590 412.84 590 412.84 585.37Z"
fill-rule="evenodd" fill="black"/>
<path d="M412.84 585.37L412.84 590 395.85 590 395.85 585.37 412.84 585.37Z"
fill-rule="evenodd" fill="black"/>
<path d="M395.85 590L395.85 585.37 395.85 585.37 395.85 590Z"
fill-rule="evenodd" fill="black"/>
<path d="M412.84 585.37L395.85 585.37 395.85 585.37 412.84 585.37Z"
fill-rule="evenodd" fill="black"/>
<path d="M412.84 590L395.85 590 395.85 590 412.84 590Z"
fill-rule="evenodd" fill="black"/>
<path d="M395.85 590L393.77 589.75 394.88 585.25 395.85 585.37 395.85 590Z"
fill-rule="evenodd" fill="black"/>
<path d="M395.85 585.37L394.88 585.25 393.77 589.75 395.85 590 395.85 585.37Z"
fill-rule="evenodd" fill="black"/>
<path d="M393.77 589.75L395.85 590 395.85 590 393.77 589.75Z"
fill-rule="evenodd" fill="black"/>
<path d="M394.88 585.25L393.77 589.75 393.77 589.75 394.88 585.25Z"
fill-rule="evenodd" fill="black"/>
<path d="M395.85 585.37L394.88 585.25 394.88 585.25 395.85 585.37Z"
fill-rule="evenodd" fill="black"/>
<path d="M395.85 590L395.85 585.37 395.85 585.37 395.85 590Z"
fill-rule="evenodd" fill="black"/>
<path d="M393.77 589.75L391.81 589.01 393.97 584.91 394.88 585.25 393.77 589.75Z"
fill-rule="evenodd" fill="black"/>
<path d="M394.88 585.25L393.97 584.91 391.81 589.01 393.77 589.75 394.88 585.25Z"
fill-rule="evenodd" fill="black"/>
<path d="M391.81 589.01L393.77 589.75 393.77 589.75 391.81 589.01Z"
fill-rule="evenodd" fill="black"/>
<path d="M393.97 584.91L391.81 589.01 391.81 589.01 393.97 584.91Z"
fill-rule="evenodd" fill="black"/>
<path d="M394.88 585.25L393.97 584.91 393.97 584.91 394.88 585.25Z"
fill-rule="evenodd" fill="black"/>
<path d="M393.77 589.75L394.88 585.25 394.88 585.25 393.77 589.75Z"
fill-rule="evenodd" fill="black"/>
<path d="M391.81 589.01L390.09 587.82 393.16 584.35 393.97 584.91 391.81 589.01Z"
fill-rule="evenodd" fill="black"/>
<path d="M393.97 584.91L393.16 584.35 390.09 587.82 391.81 589.01 393.97 584.91Z"
fill-rule="evenodd" fill="black"/>
<path d="M390.09 587.82L391.81 589.01 391.81 589.01 390.09 587.82Z"
fill-rule="evenodd" fill="black"/>
<path d="M393.16 584.35L390.09 587.82 390.09 587.82 393.16 584.35Z"
fill-rule="evenodd" fill="black"/>
<path d="M393.97 584.91L393.16 584.35 393.16 584.35 393.97 584.91Z"
fill-rule="evenodd" fill="black"/>
<path d="M391.81 589.01L393.97 584.91 393.97 584.91 391.81 589.01Z"
fill-rule="evenodd" fill="black"/>
<path d="M390.09 587.82L388.7 586.25 392.51 583.62 393.16 584.35 390.09 587.82Z"
fill-rule="evenodd" fill="black"/>
<path d="M393.16 584.35L392.51 583.62 388.7 586.25 390.09 587.82 393.16 584.35Z"
fill-rule="evenodd" fill="black"/>
<path d="M388.7 586.25L390.09 587.82 390.09 587.82 388.7 586.25Z"
fill-rule="evenodd" fill="black"/>
<path d="M392.51 583.62L388.7 586.25 388.7 586.25 392.51 583.62Z"
fill-rule="evenodd" fill="black"/>
<path d="M393.16 584.35L392.51 583.62 392.51 583.62 393.16 584.35Z"
fill-rule="evenodd" fill="black"/>
<path d="M390.09 587.82L393.16 584.35 393.16 584.35 390.09 587.82Z"
fill-rule="evenodd" fill="black"/>
<path d="M388.7 586.25L387.73 584.4 392.06 582.75 392.51 583.62 388.7 586.25Z"
fill-rule="evenodd" fill="black"/>
<path d="M392.51 583.62L392.06 582.75 387.73 584.4 388.7 586.25 392.51 583.62Z"
fill-rule="evenodd" fill="black"/>
<path d="M387.73 584.4L388.7 586.25 388.7 586.25 387.73 584.4Z"
fill-rule="evenodd" fill="black"/>
<path d="M392.06 582.75L387.73 584.4 387.73 584.4 392.06 582.75Z"
fill-rule="evenodd" fill="black"/>
<path d="M392.51 583.62L392.06 582.75 392.06 582.75 392.51 583.62Z"
fill-rule="evenodd" fill="black"/>
<path d="M388.7 586.25L392.51 583.62 392.51 583.62 388.7 586.25Z"
fill-rule="evenodd" fill="black"/>
<path d="M387.73 584.4L387.23 582.36 391.83 581.81 392.06 582.75 387.73 584.4Z"
fill-rule="evenodd" fill="black"/>
<path d="M392.06 582.75L391.83 581.81 387.23 582.36 387.73 584.4 392.06 582.75Z"
fill-rule="evenodd" fill="black"/>
<path d="M387.23 582.36L387.73 584.4 387.73 584.4 387.23 582.36Z"
fill-rule="evenodd" fill="black"/>
<path d="M391.83 581.81L387.23 582.36 387.23 582.36 391.83 581.81Z"
fill-rule="evenodd" fill="black"/>
<path d="M392.06 582.75L391.83 581.81 391.83 581.81 392.06 582.75Z"
fill-rule="evenodd" fill="black"/>
<path d="M387.73 584.4L392.06 582.75 392.06 582.75 387.73 584.4Z"
fill-rule="evenodd" fill="black"/>
<path d="M387.23 582.36L387.23 580.27 391.83 580.83 391.83 581.81 387.23 582.36Z"
fill-rule="evenodd" fill="black"/>
<path d="M391.83 581.81L391.83 580.83 387.23 580.27 387.23 582.36 391.83 581.81Z"
fill-rule="evenodd" fill="black"/>
<path d="M387.23 580.27L387.23 582.36 387.23 582.36 387.23 580.27Z"
fill-rule="evenodd" fill="black"/>
<path d="M391.83 580.83L387.23 580.27 387.23 580.27 391.83 580.83Z"
fill-rule="evenodd" fill="black"/>
<path d="M391.83 581.81L391.83 580.83 391.83 580.83 391.83 581.81Z"
fill-rule="evenodd" fill="black"/>
<path d="M387.23 582.36L391.83 581.81 391.83 581.81 387.23 582.36Z"
fill-rule="evenodd" fill="black"/>
<path d="M387.23 580.27L387.73 578.24 392.06 579.88 391.83 580.83 387.23 580.27Z"
fill-rule="evenodd" fill="black"/>
<path d="M391.83 580.83L392.06 579.88 387.73 578.24 387.23 580.27 391.83 580.83Z"
fill-rule="evenodd" fill="black"/>
<path d="M387.73 578.24L387.23 580.27 387.23 580.27 387.73 578.24Z"
fill-rule="evenodd" fill="black"/>
<path d="M392.06 579.88L387.73 578.24 387.73 578.24 392.06 579.88Z"
fill-rule="evenodd" fill="black"/>
<path d="M391.83 580.83L392.06 579.88 392.06 579.88 391.83 580.83Z"
fill-rule="evenodd" fill="black"/>
<path d="M387.23 580.27L391.83 580.83 391.83 580.83 387.23 580.27Z"
fill-rule="evenodd" fill="black"/>
<path d="M387.73 578.24L388.7 576.38 392.51 579.01 392.06 579.88 387.73 578.24Z"
fill-rule="evenodd" fill="black"/>
<path d="M392.06 579.88L392.51 579.01 388.7 576.38 387.73 578.24 392.06 579.88Z"
fill-rule="evenodd" fill="black"/>
<path d="M388.7 576.38L387.73 578.24 387.73 578.24 388.7 576.38Z"
fill-rule="evenodd" fill="black"/>
<path d="M392.51 579.01L388.7 576.38 388.7 576.38 392.51 579.01Z"
fill-rule="evenodd" fill="black"/>
<path d="M392.06 579.88L392.51 579.01 392.51 579.01 392.06 579.88Z"
fill-rule="evenodd" fill="black"/>
<path d="M387.73 578.24L392.06 579.88 392.06 579.88 387.73 578.24Z"
fill-rule="evenodd" fill="black"/>
<path d="M388.7 576.38L390.09 574.82 393.16 578.28 392.51 579.01 388.7 576.38Z"
fill-rule="evenodd" fill="black"/>
<path d="M392.51 579.01L393.16 578.28 390.09 574.82 388.7 576.38 392.51 579.01Z"
fill-rule="evenodd" fill="black"/>
<path d="M390.09 574.82L388.7 576.38 388.7 576.38 390.09 574.82Z"
fill-rule="evenodd" fill="black"/>
<path d="M393.16 578.28L390.09 574.82 390.09 574.82 393.16 578.28Z"
fill-rule="evenodd" fill="black"/>
<path d="M392.51 579.01L393.16 578.28 393.16 578.28 392.51 579.01Z"
fill-rule="evenodd" fill="black"/>
<path d="M388.7 576.38L392.51 579.01 392.51 579.01 388.7 576.38Z"
fill-rule="evenodd" fill="black"/>
<path d="M390.09 574.82L391.81 573.63 393.97 577.73 393.16 578.28 390.09 574.82Z"
fill-rule="evenodd" fill="black"/>
<path d="M393.16 578.28L393.97 577.73 391.81 573.63 390.09 574.82 393.16 578.28Z"
fill-rule="evenodd" fill="black"/>
<path d="M391.81 573.63L390.09 574.82 390.09 574.82 391.81 573.63Z"
fill-rule="evenodd" fill="black"/>
<path d="M393.97 577.73L391.81 573.63 391.81 573.63 393.97 577.73Z"
fill-rule="evenodd" fill="black"/>
<path d="M393.16 578.28L393.97 577.73 393.97 577.73 393.16 578.28Z"
fill-rule="evenodd" fill="black"/>
<path d="M390.09 574.82L393.16 578.28 393.16 578.28 390.09 574.82Z"
fill-rule="evenodd" fill="black"/>
<path d="M391.81 573.63L393.77 572.88 394.88 577.38 393.97 577.73 391.81 573.63Z"
fill-rule="evenodd" fill="black"/>
<path d="M393.97 577.73L394.88 577.38 393.77 572.88 391.81 573.63 393.97 577.73Z"
fill-rule="evenodd" fill="black"/>
<path d="M393.77 572.88L391.81 573.63 391.81 573.63 393.77 572.88Z"
fill-rule="evenodd" fill="black"/>
<path d="M394.88 577.38L393.77 572.88 393.77 572.88 394.88 577.38Z"
fill-rule="evenodd" fill="black"/>
<path d="M393.97 577.73L394.88 577.38 394.88 577.38 393.97 577.73Z"
fill-rule="evenodd" fill="black"/>
<path d="M391.81 573.63L393.97 577.73 393.97 577.73 391.81 573.63Z"
fill-rule="evenodd" fill="black"/>
<path d="M393.77 572.88L395.85 572.63 395.85 577.26 394.88 577.38 393.77 572.88Z"
fill-rule="evenodd" fill="black"/>
<path d="M394.88 577.38L395.85 577.26 395.85 572.63 393.77 572.88 394.88 577.38Z"
fill-rule="evenodd" fill="black"/>
<path d="M395.85 572.63L393.77 572.88 393.77 572.88 395.85 572.63Z"
fill-rule="evenodd" fill="black"/>
<path d="M395.85 577.26L395.85 572.63 395.85 572.63 395.85 577.26Z"
fill-rule="evenodd" fill="black"/>
<path d="M394.88 577.38L395.85 577.26 395.85 577.26 394.88 577.38Z"
fill-rule="evenodd" fill="black"/>
<path d="M393.77 572.88L394.88 577.38 394.88 577.38 393.77 572.88Z"
fill-rule="evenodd" fill="black"/>
<path d="M395.85 555.85L396.18 557.47 400.1 555.83 400.1 555.83 395.85 555.85Z"
fill-rule="evenodd" fill="black"/>
<path d="M400.1 555.83L400.1 555.83 396.18 557.47 395.85 555.85 400.1 555.83Z"
fill-rule="evenodd" fill="black"/>
<path d="M396.18 557.47L395.85 555.85 395.85 555.85 396.18 557.47Z"
fill-rule="evenodd" fill="black"/>
<path d="M400.1 555.83L396.18 557.47 396.18 557.47 400.1 555.83Z"
fill-rule="evenodd" fill="black"/>
<path d="M400.1 555.83L400.1 555.83 400.1 555.83 400.1 555.83Z"
fill-rule="evenodd" fill="black"/>
<path d="M395.85 555.85L400.1 555.83 400.1 555.83 395.85 555.85Z"
fill-rule="evenodd" fill="black"/>
<path d="M396.18 557.47L397.1 558.84 400.1 555.83 400.1 555.83 396.18 557.47Z"
fill-rule="evenodd" fill="black"/>
<path d="M400.1 555.83L400.1 555.83 397.1 558.84 396.18 557.47 400.1 555.83Z"
fill-rule="evenodd" fill="black"/>
<path d="M397.1 558.84L396.18 557.47 396.18 557.47 397.1 558.84Z"
fill-rule="evenodd" fill="black"/>
<path d="M400.1 555.83L397.1 558.84 397.1 558.84 400.1 555.83Z"
fill-rule="evenodd" fill="black"/>
<path d="M400.1 555.83L400.1 555.83 400.1 555.83 400.1 555.83Z"
fill-rule="evenodd" fill="black"/>
<path d="M396.18 557.47L400.1 555.83 400.1 555.83 396.18 557.47Z"
fill-rule="evenodd" fill="black"/>
<path d="M397.1 558.84L398.48 559.76 400.1 555.83 400.1 555.83 397.1 558.84Z"
fill-rule="evenodd" fill="black"/>
<path d="M400.1 555.83L400.1 555.83 398.48 559.76 397.1 558.84 400.1 555.83Z"
fill-rule="evenodd" fill="black"/>
<path d="M398.48 559.76L397.1 558.84 397.1 558.84 398.48 559.76Z"
fill-rule="evenodd" fill="black"/>
<path d="M400.1 555.83L398.48 559.76 398.48 559.76 400.1 555.83Z"
fill-rule="evenodd" fill="black"/>
<path d="M400.1 555.83L400.1 555.83 400.1 555.83 400.1 555.83Z"
fill-rule="evenodd" fill="black"/>
<path d="M397.1 558.84L400.1 555.83 400.1 555.83 397.1 558.84Z"
fill-rule="evenodd" fill="black"/>
<path d="M398.48 559.76L400.1 560.08 400.1 555.83 400.1 555.83 398.48 559.76Z"
fill-rule="evenodd" fill="black"/>
<path d="M400.1 555.83L400.1 555.83 400.1 560.08 398.48 559.76 400.1 555.83Z"
fill-rule="evenodd" fill="black"/>
<path d="M400.1 560.08L398.48 559.76 398.48 559.76 400.1 560.08Z"
fill-rule="evenodd" fill="black"/>
<path d="M400.1 555.83L400.1 560.08 400.1 560.08 400.1 555.83Z"
fill-rule="evenodd" fill="black"/>
<path d="M400.1 555.83L400.1 555.83 400.1 555.83 400.1 555.83Z"
fill-rule="evenodd" fill="black"/>
<path d="M398.48 559.76L400.1 555.83 400.1 555.83 398.48 559.76Z"
fill-rule="evenodd" fill="black"/>
<path d="M400.1 560.08L401.72 559.76 400.1 555.83 400.1 555.83 400.1 560.08Z"
fill-rule="evenodd" fill="black"/>
<path d="M400.1 555.83L400.1 555.83 401.72 559.76 400.1 560.08 400.1 555.83Z"
fill-rule="evenodd" fill="black"/>
<path d="M401.72 559.76L400.1 560.08 400.1 560.08 401.72 559.76Z"
fill-rule="evenodd" fill="black"/>
<path d="M400.1 555.83L401.72 559.76 401.72 559.76 400.1 555.83Z"
fill-rule="evenodd" fill="black"/>
<path d="M400.1 555.83L400.1 555.83 400.1 555.83 400.1 555.83Z"
fill-rule="evenodd" fill="black"/>
<path d="M400.1 560.08L400.1 555.83 400.1 555.83 400.1 560.08Z"
fill-rule="evenodd" fill="black"/>
<path d="M401.72 559.76L403.09 558.84 400.1 555.83 400.1 555.83 401.72 559.76Z"
fill-rule="evenodd" fill="black"/>
<path d="M400.1 555.83L400.1 555.83 403.09 558.84 401.72 559.76 400.1 555.83Z"
fill-rule="evenodd" fill="black"/>
<path d="M403.09 558.84L401.72 559.76 401.72 559.76 403.09 558.84Z"
fill-rule="evenodd" fill="black"/>
<path d="M400.1 555.83L403.09 558.84 403.09 558.84 400.1 555.83Z"
fill-rule="evenodd" fill="black"/>
<path d="M400.1 555.83L400.1 555.83 400.1 555.83 400.1 555.83Z"
fill-rule="evenodd" fill="black"/>
<path d="M401.72 559.76L400.1 555.83 400.1 555.83 401.72 559.76Z"
fill-rule="evenodd" fill="black"/>
<path d="M403.09 558.84L404.01 557.47 400.1 555.83 400.1 555.83 403.09 558.84Z"
fill-rule="evenodd" fill="black"/>
<path d="M400.1 555.83L400.1 555.83 404.01 557.47 403.09 558.84 400.1 555.83Z"
fill-rule="evenodd" fill="black"/>
<path d="M404.01 557.47L403.09 558.84 403.09 558.84 404.01 557.47Z"
fill-rule="evenodd" fill="black"/>
<path d="M400.1 555.83L404.01 557.47 404.01 557.47 400.1 555.83Z"
fill-rule="evenodd" fill="black"/>
<path d="M400.1 555.83L400.1 555.83 400.1 555.83 400.1 555.83Z"
fill-rule="evenodd" fill="black"/>
<path d="M403.09 558.84L400.1 555.83 400.1 555.83 403.09 558.84Z"
fill-rule="evenodd" fill="black"/>
<path d="M404.01 557.47L404.34 555.85 400.1 555.83 400.1 555.83 404.01 557.47Z"
fill-rule="evenodd" fill="black"/>
<path d="M400.1 555.83L400.1 555.83 404.34 555.85 404.01 557.47 400.1 555.83Z"
fill-rule="evenodd" fill="black"/>
<path d="M404.34 555.85L404.01 557.47 404.01 557.47 404.34 555.85Z"
fill-rule="evenodd" fill="black"/>
<path d="M400.1 555.83L404.34 555.85 404.34 555.85 400.1 555.83Z"
fill-rule="evenodd" fill="black"/>
<path d="M400.1 555.83L400.1 555.83 400.1 555.83 400.1 555.83Z"
fill-rule="evenodd" fill="black"/>
<path d="M404.01 557.47L400.1 555.83 400.1 555.83 404.01 557.47Z"
fill-rule="evenodd" fill="black"/>
<path d="M404.34 555.85L404.02 554.22 400.1 555.83 400.1 555.83 404.34 555.85Z"
fill-rule="evenodd" fill="black"/>
<path d="M400.1 555.83L400.1 555.83 404.02 554.22 404.34 555.85 400.1 555.83Z"
fill-rule="evenodd" fill="black"/>
<path d="M404.02 554.22L404.34 555.85 404.34 555.85 404.02 554.22Z"
fill-rule="evenodd" fill="black"/>
<path d="M400.1 555.83L404.02 554.22 404.02 554.22 400.1 555.83Z"
fill-rule="evenodd" fill="black"/>
<path d="M400.1 555.83L400.1 555.83 400.1 555.83 400.1 555.83Z"
fill-rule="evenodd" fill="black"/>
<path d="M404.34 555.85L400.1 555.83 400.1 555.83 404.34 555.85Z"
fill-rule="evenodd" fill="black"/>
<path d="M404.02 554.22L403.11 552.83 400.1 555.83 400.1 555.83 404.02 554.22Z"
fill-rule="evenodd" fill="black"/>
<path d="M400.1 555.83L400.1 555.83 403.11 552.83 404.02 554.22 400.1 555.83Z"
fill-rule="evenodd" fill="black"/>
<path d="M403.11 552.83L404.02 554.22 404.02 554.22 403.11 552.83Z"
fill-rule="evenodd" fill="black"/>
<path d="M400.1 555.83L403.11 552.83 403.11 552.83 400.1 555.83Z"
fill-rule="evenodd" fill="black"/>
<path d="M400.1 555.83L400.1 555.83 400.1 555.83 400.1 555.83Z"
fill-rule="evenodd" fill="black"/>
<path d="M404.02 554.22L400.1 555.83 400.1 555.83 404.02 554.22Z"
fill-rule="evenodd" fill="black"/>
<path d="M403.11 552.83L401.73 551.91 400.1 555.83 400.1 555.83 403.11 552.83Z"
fill-rule="evenodd" fill="black"/>
<path d="M400.1 555.83L400.1 555.83 401.73 551.91 403.11 552.83 400.1 555.83Z"
fill-rule="evenodd" fill="black"/>
<path d="M401.73 551.91L403.11 552.83 403.11 552.83 401.73 551.91Z"
fill-rule="evenodd" fill="black"/>
<path d="M400.1 555.83L401.73 551.91 401.73 551.91 400.1 555.83Z"
fill-rule="evenodd" fill="black"/>
<path d="M400.1 555.83L400.1 555.83 400.1 555.83 400.1 555.83Z"
fill-rule="evenodd" fill="black"/>
<path d="M403.11 552.83L400.1 555.83 400.1 555.83 403.11 552.83Z"
fill-rule="evenodd" fill="black"/>
<path d="M401.73 551.91L400.1 551.58 400.1 555.83 400.1 555.83 401.73 551.91Z"
fill-rule="evenodd" fill="black"/>
<path d="M400.1 555.83L400.1 555.83 400.1 551.58 401.73 551.91 400.1 555.83Z"
fill-rule="evenodd" fill="black"/>
<path d="M400.1 551.58L401.73 551.91 401.73 551.91 400.1 551.58Z"
fill-rule="evenodd" fill="black"/>
<path d="M400.1 555.83L400.1 551.58 400.1 551.58 400.1 555.83Z"
fill-rule="evenodd" fill="black"/>
<path d="M400.1 555.83L400.1 555.83 400.1 555.83 400.1 555.83Z"
fill-rule="evenodd" fill="black"/>
<path d="M401.73 551.91L400.1 555.83 400.1 555.83 401.73 551.91Z"
fill-rule="evenodd" fill="black"/>
<path d="M400.1 551.58L398.47 551.91 400.1 555.83 400.1 555.83 400.1 551.58Z"
fill-rule="evenodd" fill="black"/>
<path d="M400.1 555.83L400.1 555.83 398.47 551.91 400.1 551.58 400.1 555.83Z"
fill-rule="evenodd" fill="black"/>
<path d="M398.47 551.91L400.1 551.58 400.1 551.58 398.47 551.91Z"
fill-rule="evenodd" fill="black"/>
<path d="M400.1 555.83L398.47 551.91 398.47 551.91 400.1 555.83Z"
fill-rule="evenodd" fill="black"/>
<path d="M400.1 555.83L400.1 555.83 400.1 555.83 400.1 555.83Z"
fill-rule="evenodd" fill="black"/>
<path d="M400.1 551.58L400.1 555.83 400.1 555.83 400.1 551.58Z"
fill-rule="evenodd" fill="black"/>
<path d="M398.47 551.91L397.09 552.83 400.1 555.83 400.1 555.83 398.47 551.91Z"
fill-rule="evenodd" fill="black"/>
<path d="M400.1 555.83L400.1 555.83 397.09 552.83 398.47 551.91 400.1 555.83Z"
fill-rule="evenodd" fill="black"/>
<path d="M397.09 552.83L398.47 551.91 398.47 551.91 397.09 552.83Z"
fill-rule="evenodd" fill="black"/>
<path d="M400.1 555.83L397.09 552.83 397.09 552.83 400.1 555.83Z"
fill-rule="evenodd" fill="black"/>
<path d="M400.1 555.83L400.1 555.83 400.1 555.83 400.1 555.83Z"
fill-rule="evenodd" fill="black"/>
<path d="M398.47 551.91L400.1 555.83 400.1 555.83 398.47 551.91Z"
fill-rule="evenodd" fill="black"/>
<path d="M397.09 552.83L396.17 554.22 400.1 555.83 400.1 555.83 397.09 552.83Z"
fill-rule="evenodd" fill="black"/>
<path d="M400.1 555.83L400.1 555.83 396.17 554.22 397.09 552.83 400.1 555.83Z"
fill-rule="evenodd" fill="black"/>
<path d="M396.17 554.22L397.09 552.83 397.09 552.83 396.17 554.22Z"
fill-rule="evenodd" fill="black"/>
<path d="M400.1 555.83L396.17 554.22 396.17 554.22 400.1 555.83Z"
fill-rule="evenodd" fill="black"/>
<path d="M400.1 555.83L400.1 555.83 400.1 555.83 400.1 555.83Z"
fill-rule="evenodd" fill="black"/>
<path d="M397.09 552.83L400.1 555.83 400.1 555.83 397.09 552.83Z"
fill-rule="evenodd" fill="black"/>
<path d="M396.17 554.22L395.85 555.85 400.1 555.83 400.1 555.83 396.17 554.22Z"
fill-rule="evenodd" fill="black"/>
<path d="M400.1 555.83L400.1 555.83 395.85 555.85 396.17 554.22 400.1 555.83Z"
fill-rule="evenodd" fill="black"/>
<path d="M395.85 555.85L396.17 554.22 396.17 554.22 395.85 555.85Z"
fill-rule="evenodd" fill="black"/>
<path d="M400.1 555.83L395.85 555.85 395.85 555.85 400.1 555.83Z"
fill-rule="evenodd" fill="black"/>
<path d="M400.1 555.83L400.1 555.83 400.1 555.83 400.1 555.83Z"
fill-rule="evenodd" fill="black"/>
<path d="M396.17 554.22L400.1 555.83 400.1 555.83 396.17 554.22Z"
fill-rule="evenodd" fill="black"/>
<path d="M397.78 591.93L402.41 591.93 402.41 596.18 397.78 596.18 397.78 591.93Z"
fill-rule="evenodd" fill="black"/>
<path d="M397.78 591.93L402.41 591.93 402.41 591.93 397.78 591.93Z"
fill-rule="evenodd" fill="black"/>
<path d="M397.78 591.93L402.41 591.93 402.41 596.18 397.78 596.18 397.78 591.93Z"
fill-rule="evenodd" fill="black"/>
<path d="M402.41 596.18L397.78 596.18 397.78 596.18 402.41 596.18Z"
fill-rule="evenodd" fill="black"/>
<path d="M397.78 591.93L397.78 596.18 397.78 596.18 397.78 591.93Z"
fill-rule="evenodd" fill="black"/>
<path d="M402.41 591.93L402.41 596.18 402.41 596.18 402.41 591.93Z"
fill-rule="evenodd" fill="black"/>
<path d="M400.1 589.81L398.47 590.13 400.1 594.06 400.1 594.06 400.1 589.81Z"
fill-rule="evenodd" fill="black"/>
<path d="M400.1 594.06L400.1 594.06 398.47 590.13 400.1 589.81 400.1 594.06Z"
fill-rule="evenodd" fill="black"/>
<path d="M398.47 590.13L400.1 589.81 400.1 589.81 398.47 590.13Z"
fill-rule="evenodd" fill="black"/>
<path d="M400.1 594.06L398.47 590.13 398.47 590.13 400.1 594.06Z"
fill-rule="evenodd" fill="black"/>
<path d="M400.1 594.06L400.1 594.06 400.1 594.06 400.1 594.06Z"
fill-rule="evenodd" fill="black"/>
<path d="M400.1 589.81L400.1 594.06 400.1 594.06 400.1 589.81Z"
fill-rule="evenodd" fill="black"/>
<path d="M398.47 590.13L397.09 591.05 400.1 594.06 400.1 594.06 398.47 590.13Z"
fill-rule="evenodd" fill="black"/>
<path d="M400.1 594.06L400.1 594.06 397.09 591.05 398.47 590.13 400.1 594.06Z"
fill-rule="evenodd" fill="black"/>
<path d="M397.09 591.05L398.47 590.13 398.47 590.13 397.09 591.05Z"
fill-rule="evenodd" fill="black"/>
<path d="M400.1 594.06L397.09 591.05 397.09 591.05 400.1 594.06Z"
fill-rule="evenodd" fill="black"/>
<path d="M400.1 594.06L400.1 594.06 400.1 594.06 400.1 594.06Z"
fill-rule="evenodd" fill="black"/>
<path d="M398.47 590.13L400.1 594.06 400.1 594.06 398.47 590.13Z"
fill-rule="evenodd" fill="black"/>
<path d="M397.09 591.05L396.17 592.43 400.1 594.06 400.1 594.06 397.09 591.05Z"
fill-rule="evenodd" fill="black"/>
<path d="M400.1 594.06L400.1 594.06 396.17 592.43 397.09 591.05 400.1 594.06Z"
fill-rule="evenodd" fill="black"/>
<path d="M396.17 592.43L397.09 591.05 397.09 591.05 396.17 592.43Z"
fill-rule="evenodd" fill="black"/>
<path d="M400.1 594.06L396.17 592.43 396.17 592.43 400.1 594.06Z"
fill-rule="evenodd" fill="black"/>
<path d="M400.1 594.06L400.1 594.06 400.1 594.06 400.1 594.06Z"
fill-rule="evenodd" fill="black"/>
<path d="M397.09 591.05L400.1 594.06 400.1 594.06 397.09 591.05Z"
fill-rule="evenodd" fill="black"/>
<path d="M396.17 592.43L395.85 594.06 400.1 594.06 400.1 594.06 396.17 592.43Z"
fill-rule="evenodd" fill="black"/>
<path d="M400.1 594.06L400.1 594.06 395.85 594.06 396.17 592.43 400.1 594.06Z"
fill-rule="evenodd" fill="black"/>
<path d="M395.85 594.06L396.17 592.43 396.17 592.43 395.85 594.06Z"
fill-rule="evenodd" fill="black"/>
<path d="M400.1 594.06L395.85 594.06 395.85 594.06 400.1 594.06Z"
fill-rule="evenodd" fill="black"/>
<path d="M400.1 594.06L400.1 594.06 400.1 594.06 400.1 594.06Z"
fill-rule="evenodd" fill="black"/>
<path d="M396.17 592.43L400.1 594.06 400.1 594.06 396.17 592.43Z"
fill-rule="evenodd" fill="black"/>
<path d="M395.85 594.06L396.17 595.68 400.1 594.06 400.1 594.06 395.85 594.06Z"
fill-rule="evenodd" fill="black"/>
<path d="M400.1 594.06L400.1 594.06 396.17 595.68 395.85 594.06 400.1 594.06Z"
fill-rule="evenodd" fill="black"/>
<path d="M396.17 595.68L395.85 594.06 395.85 594.06 396.17 595.68Z"
fill-rule="evenodd" fill="black"/>
<path d="M400.1 594.06L396.17 595.68 396.17 595.68 400.1 594.06Z"
fill-rule="evenodd" fill="black"/>
<path d="M400.1 594.06L400.1 594.06 400.1 594.06 400.1 594.06Z"
fill-rule="evenodd" fill="black"/>
<path d="M395.85 594.06L400.1 594.06 400.1 594.06 395.85 594.06Z"
fill-rule="evenodd" fill="black"/>
<path d="M396.17 595.68L397.09 597.06 400.1 594.06 400.1 594.06 396.17 595.68Z"
fill-rule="evenodd" fill="black"/>
<path d="M400.1 594.06L400.1 594.06 397.09 597.06 396.17 595.68 400.1 594.06Z"
fill-rule="evenodd" fill="black"/>
<path d="M397.09 597.06L396.17 595.68 396.17 595.68 397.09 597.06Z"
fill-rule="evenodd" fill="black"/>
<path d="M400.1 594.06L397.09 597.06 397.09 597.06 400.1 594.06Z"
fill-rule="evenodd" fill="black"/>
<path d="M400.1 594.06L400.1 594.06 400.1 594.06 400.1 594.06Z"
fill-rule="evenodd" fill="black"/>
<path d="M396.17 595.68L400.1 594.06 400.1 594.06 396.17 595.68Z"
fill-rule="evenodd" fill="black"/>
<path d="M397.09 597.06L398.47 597.98 400.1 594.06 400.1 594.06 397.09 597.06Z"
fill-rule="evenodd" fill="black"/>
<path d="M400.1 594.06L400.1 594.06 398.47 597.98 397.09 597.06 400.1 594.06Z"
fill-rule="evenodd" fill="black"/>
<path d="M398.47 597.98L397.09 597.06 397.09 597.06 398.47 597.98Z"
fill-rule="evenodd" fill="black"/>
<path d="M400.1 594.06L398.47 597.98 398.47 597.98 400.1 594.06Z"
fill-rule="evenodd" fill="black"/>
<path d="M400.1 594.06L400.1 594.06 400.1 594.06 400.1 594.06Z"
fill-rule="evenodd" fill="black"/>
<path d="M397.09 597.06L400.1 594.06 400.1 594.06 397.09 597.06Z"
fill-rule="evenodd" fill="black"/>
<path d="M398.47 597.98L400.1 598.3 400.1 594.06 400.1 594.06 398.47 597.98Z"
fill-rule="evenodd" fill="black"/>
<path d="M400.1 594.06L400.1 594.06 400.1 598.3 398.47 597.98 400.1 594.06Z"
fill-rule="evenodd" fill="black"/>
<path d="M400.1 598.3L398.47 597.98 398.47 597.98 400.1 598.3Z"
fill-rule="evenodd" fill="black"/>
<path d="M400.1 594.06L400.1 598.3 400.1 598.3 400.1 594.06Z"
fill-rule="evenodd" fill="black"/>
<path d="M400.1 594.06L400.1 594.06 400.1 594.06 400.1 594.06Z"
fill-rule="evenodd" fill="black"/>
<path d="M398.47 597.98L400.1 594.06 400.1 594.06 398.47 597.98Z"
fill-rule="evenodd" fill="black"/>
<path d="M400.1 598.3L401.72 597.98 400.1 594.06 400.1 594.06 400.1 598.3Z"
fill-rule="evenodd" fill="black"/>
<path d="M400.1 594.06L400.1 594.06 401.72 597.98 400.1 598.3 400.1 594.06Z"
fill-rule="evenodd" fill="black"/>
<path d="M401.72 597.98L400.1 598.3 400.1 598.3 401.72 597.98Z"
fill-rule="evenodd" fill="black"/>
<path d="M400.1 594.06L401.72 597.98 401.72 597.98 400.1 594.06Z"
fill-rule="evenodd" fill="black"/>
<path d="M400.1 594.06L400.1 594.06 400.1 594.06 400.1 594.06Z"
fill-rule="evenodd" fill="black"/>
<path d="M400.1 598.3L400.1 594.06 400.1 594.06 400.1 598.3Z"
fill-rule="evenodd" fill="black"/>
<path d="M401.72 597.98L403.1 597.06 400.1 594.06 400.1 594.06 401.72 597.98Z"
fill-rule="evenodd" fill="black"/>
<path d="M400.1 594.06L400.1 594.06 403.1 597.06 401.72 597.98 400.1 594.06Z"
fill-rule="evenodd" fill="black"/>
<path d="M403.1 597.06L401.72 597.98 401.72 597.98 403.1 597.06Z"
fill-rule="evenodd" fill="black"/>
<path d="M400.1 594.06L403.1 597.06 403.1 597.06 400.1 594.06Z"
fill-rule="evenodd" fill="black"/>
<path d="M400.1 594.06L400.1 594.06 400.1 594.06 400.1 594.06Z"
fill-rule="evenodd" fill="black"/>
<path d="M401.72 597.98L400.1 594.06 400.1 594.06 401.72 597.98Z"
fill-rule="evenodd" fill="black"/>
<path d="M403.1 597.06L404.02 595.68 400.1 594.06 400.1 594.06 403.1 597.06Z"
fill-rule="evenodd" fill="black"/>
<path d="M400.1 594.06L400.1 594.06 404.02 595.68 403.1 597.06 400.1 594.06Z"
fill-rule="evenodd" fill="black"/>
<path d="M404.02 595.68L403.1 597.06 403.1 597.06 404.02 595.68Z"
fill-rule="evenodd" fill="black"/>
<path d="M400.1 594.06L404.02 595.68 404.02 595.68 400.1 594.06Z"
fill-rule="evenodd" fill="black"/>
<path d="M400.1 594.06L400.1 594.06 400.1 594.06 400.1 594.06Z"
fill-rule="evenodd" fill="black"/>
<path d="M403.1 597.06L400.1 594.06 400.1 594.06 403.1 597.06Z"
fill-rule="evenodd" fill="black"/>
<path d="M404.02 595.68L404.34 594.06 400.1 594.06 400.1 594.06 404.02 595.68Z"
fill-rule="evenodd" fill="black"/>
<path d="M400.1 594.06L400.1 594.06 404.34 594.06 404.02 595.68 400.1 594.06Z"
fill-rule="evenodd" fill="black"/>
<path d="M404.34 594.06L404.02 595.68 404.02 595.68 404.34 594.06Z"
fill-rule="evenodd" fill="black"/>
<path d="M400.1 594.06L404.34 594.06 404.34 594.06 400.1 594.06Z"
fill-rule="evenodd" fill="black"/>
<path d="M400.1 594.06L400.1 594.06 400.1 594.06 400.1 594.06Z"
fill-rule="evenodd" fill="black"/>
<path d="M404.02 595.68L400.1 594.06 400.1 594.06 404.02 595.68Z"
fill-rule="evenodd" fill="black"/>
<path d="M404.34 594.06L404.02 592.43 400.1 594.06 400.1 594.06 404.34 594.06Z"
fill-rule="evenodd" fill="black"/>
<path d="M400.1 594.06L400.1 594.06 404.02 592.43 404.34 594.06 400.1 594.06Z"
fill-rule="evenodd" fill="black"/>
<path d="M404.02 592.43L404.34 594.06 404.34 594.06 404.02 592.43Z"
fill-rule="evenodd" fill="black"/>
<path d="M400.1 594.06L404.02 592.43 404.02 592.43 400.1 594.06Z"
fill-rule="evenodd" fill="black"/>
<path d="M400.1 594.06L400.1 594.06 400.1 594.06 400.1 594.06Z"
fill-rule="evenodd" fill="black"/>
<path d="M404.34 594.06L400.1 594.06 400.1 594.06 404.34 594.06Z"
fill-rule="evenodd" fill="black"/>
<path d="M404.02 592.43L403.1 591.05 400.1 594.06 400.1 594.06 404.02 592.43Z"
fill-rule="evenodd" fill="black"/>
<path d="M400.1 594.06L400.1 594.06 403.1 591.05 404.02 592.43 400.1 594.06Z"
fill-rule="evenodd" fill="black"/>
<path d="M403.1 591.05L404.02 592.43 404.02 592.43 403.1 591.05Z"
fill-rule="evenodd" fill="black"/>
<path d="M400.1 594.06L403.1 591.05 403.1 591.05 400.1 594.06Z"
fill-rule="evenodd" fill="black"/>
<path d="M400.1 594.06L400.1 594.06 400.1 594.06 400.1 594.06Z"
fill-rule="evenodd" fill="black"/>
<path d="M404.02 592.43L400.1 594.06 400.1 594.06 404.02 592.43Z"
fill-rule="evenodd" fill="black"/>
<path d="M403.1 591.05L401.72 590.13 400.1 594.06 400.1 594.06 403.1 591.05Z"
fill-rule="evenodd" fill="black"/>
<path d="M400.1 594.06L400.1 594.06 401.72 590.13 403.1 591.05 400.1 594.06Z"
fill-rule="evenodd" fill="black"/>
<path d="M401.72 590.13L403.1 591.05 403.1 591.05 401.72 590.13Z"
fill-rule="evenodd" fill="black"/>
<path d="M400.1 594.06L401.72 590.13 401.72 590.13 400.1 594.06Z"
fill-rule="evenodd" fill="black"/>
<path d="M400.1 594.06L400.1 594.06 400.1 594.06 400.1 594.06Z"
fill-rule="evenodd" fill="black"/>
<path d="M403.1 591.05L400.1 594.06 400.1 594.06 403.1 591.05Z"
fill-rule="evenodd" fill="black"/>
<path d="M401.72 590.13L400.1 589.81 400.1 594.06 400.1 594.06 401.72 590.13Z"
fill-rule="evenodd" fill="black"/>
<path d="M400.1 594.06L400.1 594.06 400.1 589.81 401.72 590.13 400.1 594.06Z"
fill-rule="evenodd" fill="black"/>
<path d="M400.1 589.81L401.72 590.13 401.72 590.13 400.1 589.81Z"
fill-rule="evenodd" fill="black"/>
<path d="M400.1 594.06L400.1 589.81 400.1 589.81 400.1 594.06Z"
fill-rule="evenodd" fill="black"/>
<path d="M400.1 594.06L400.1 594.06 400.1 594.06 400.1 594.06Z"
fill-rule="evenodd" fill="black"/>
<path d="M401.72 590.13L400.1 594.06 400.1 594.06 401.72 590.13Z"
fill-rule="evenodd" fill="black"/>
</svg>
