<?xml version="1.0" encoding="UTF-8"?>
<svg xmlns="http://www.w3.org/2000/svg" width="800.000" height="600.000" viewBox="0.0 0.0 800.000 600.000" version="1.1">
  <title>Produce by Acme CAD Converter</title>
  <desc>Produce by Acme CAD Converter</desc>
<path d="M444 1.7L448.64 1.7 448.64 504.31 444 502.39 444 1.7Z"
fill-rule="evenodd" fill="black"/>
<path d="M444 1.7L448.64 1.7 448.64 1.7 444 1.7Z"
fill-rule="evenodd" fill="black"/>
<path d="M444 1.7L448.64 1.7 448.64 504.31 444 502.39 444 1.7Z"
fill-rule="evenodd" fill="black"/>
<path d="M448.64 504.31L444 502.39 444 502.39 448.64 504.31Z"
fill-rule="evenodd" fill="black"/>
<path d="M444 1.7L444 502.39 444 502.39 444 1.7Z"
fill-rule="evenodd" fill="black"/>
<path d="M448.64 1.7L448.64 504.31 448.64 504.31 448.64 1.7Z"
fill-rule="evenodd" fill="black"/>
<path d="M444 502.39L448.64 504.31 354.8 598.15 351.52 594.87 444 502.39Z"
fill-rule="evenodd" fill="black"/>
<path d="M444 502.39L448.64 504.31 448.64 504.31 444 502.39Z"
fill-rule="evenodd" fill="black"/>
<path d="M444 502.39L448.64 504.31 354.8 598.15 351.52 594.87 444 502.39Z"
fill-rule="evenodd" fill="black"/>
<path d="M354.8 598.15L351.52 594.87 351.52 594.87 354.8 598.15Z"
fill-rule="evenodd" fill="black"/>
<path d="M444 502.39L351.52 594.87 351.52 594.87 444 502.39Z"
fill-rule="evenodd" fill="black"/>
<path d="M448.64 504.31L354.8 598.15 354.8 598.15 448.64 504.31Z"
fill-rule="evenodd" fill="black"/>
<path d="M354.95 597.98L351.36 595.04 363.22 580.55 366.81 583.48 354.95 597.98Z"
fill-rule="evenodd" fill="black"/>
<path d="M354.95 597.98L351.36 595.04 351.36 595.04 354.95 597.98Z"
fill-rule="evenodd" fill="black"/>
<path d="M354.95 597.98L351.36 595.04 363.22 580.55 366.81 583.48 354.95 597.98Z"
fill-rule="evenodd" fill="black"/>
<path d="M363.22 580.55L366.81 583.48 366.81 583.48 363.22 580.55Z"
fill-rule="evenodd" fill="black"/>
<path d="M354.95 597.98L366.81 583.48 366.81 583.48 354.95 597.98Z"
fill-rule="evenodd" fill="black"/>
<path d="M351.36 595.04L363.22 580.55 363.22 580.55 351.36 595.04Z"
fill-rule="evenodd" fill="black"/>
<path d="M363.22 580.55L366.81 583.48 354.95 597.98 351.36 595.04 363.22 580.55Z"
fill-rule="evenodd" fill="black"/>
<path d="M363.22 580.55L366.81 583.48 366.81 583.48 363.22 580.55Z"
fill-rule="evenodd" fill="black"/>
<path d="M363.22 580.55L366.81 583.48 354.95 597.98 351.36 595.04 363.22 580.55Z"
fill-rule="evenodd" fill="black"/>
<path d="M354.95 597.98L351.36 595.04 351.36 595.04 354.95 597.98Z"
fill-rule="evenodd" fill="black"/>
<path d="M363.22 580.55L351.36 595.04 351.36 595.04 363.22 580.55Z"
fill-rule="evenodd" fill="black"/>
<path d="M366.81 583.48L354.95 597.98 354.95 597.98 366.81 583.48Z"
fill-rule="evenodd" fill="black"/>
<path d="M354.62 598.3L351.69 594.72 366.18 582.86 369.12 586.44 354.62 598.3Z"
fill-rule="evenodd" fill="black"/>
<path d="M354.62 598.3L351.69 594.72 351.69 594.72 354.62 598.3Z"
fill-rule="evenodd" fill="black"/>
<path d="M354.62 598.3L351.69 594.72 366.18 582.86 369.12 586.44 354.62 598.3Z"
fill-rule="evenodd" fill="black"/>
<path d="M366.18 582.86L369.12 586.44 369.12 586.44 366.18 582.86Z"
fill-rule="evenodd" fill="black"/>
<path d="M354.62 598.3L369.12 586.44 369.12 586.44 354.62 598.3Z"
fill-rule="evenodd" fill="black"/>
<path d="M351.69 594.72L366.18 582.86 366.18 582.86 351.69 594.72Z"
fill-rule="evenodd" fill="black"/>
<path d="M391.61 551.05L394.88 554.33 380.56 568.65 377.29 565.37 391.61 551.05Z"
fill-rule="evenodd" fill="black"/>
<path d="M391.61 551.05L394.88 554.33 394.88 554.33 391.61 551.05Z"
fill-rule="evenodd" fill="black"/>
<path d="M391.61 551.05L394.88 554.33 380.56 568.65 377.29 565.37 391.61 551.05Z"
fill-rule="evenodd" fill="black"/>
<path d="M380.56 568.65L377.29 565.37 377.29 565.37 380.56 568.65Z"
fill-rule="evenodd" fill="black"/>
<path d="M391.61 551.05L377.29 565.37 377.29 565.37 391.61 551.05Z"
fill-rule="evenodd" fill="black"/>
<path d="M394.88 554.33L380.56 568.65 380.56 568.65 394.88 554.33Z"
fill-rule="evenodd" fill="black"/>
<path d="M395.68 554.43L398.96 557.71 384.18 572.49 380.9 569.21 395.68 554.43Z"
fill-rule="evenodd" fill="black"/>
<path d="M395.68 554.43L398.96 557.71 398.96 557.71 395.68 554.43Z"
fill-rule="evenodd" fill="black"/>
<path d="M395.68 554.43L398.96 557.71 384.18 572.49 380.9 569.21 395.68 554.43Z"
fill-rule="evenodd" fill="black"/>
<path d="M384.18 572.49L380.9 569.21 380.9 569.21 384.18 572.49Z"
fill-rule="evenodd" fill="black"/>
<path d="M395.68 554.43L380.9 569.21 380.9 569.21 395.68 554.43Z"
fill-rule="evenodd" fill="black"/>
<path d="M398.96 557.71L384.18 572.49 384.18 572.49 398.96 557.71Z"
fill-rule="evenodd" fill="black"/>
</svg>
