<?xml version="1.0" encoding="UTF-8"?>
<svg xmlns="http://www.w3.org/2000/svg" width="800.000" height="600.000" viewBox="0.0 0.0 800.000 600.000" version="1.1">
  <title>Produce by Acme CAD Converter</title>
  <desc>Produce by Acme CAD Converter</desc>
<path d="M249.82 598.3L245.17 598.3 245.17 1.7 249.82 1.7 249.82 598.3Z"
fill-rule="evenodd" fill="black"/>
<path d="M301.73 234.4L301.73 239.05 229.41 239.05 229.41 234.4 301.73 234.4Z"
fill-rule="evenodd" fill="black"/>
<path d="M229.41 239.05L225.87 238.83 226.43 234.22 229.41 234.4 229.41 239.05Z"
fill-rule="nonzero" fill="black"/>
<path d="M225.87 238.83L222.37 238.19 223.48 233.68 226.43 234.22 225.87 238.83Z"
fill-rule="nonzero" fill="black"/>
<path d="M222.37 238.19L218.97 237.13 220.62 232.79 223.48 233.68 222.37 238.19Z"
fill-rule="nonzero" fill="black"/>
<path d="M218.97 237.13L215.73 235.68 217.89 231.56 220.62 232.79 218.97 237.13Z"
fill-rule="nonzero" fill="black"/>
<path d="M215.73 235.68L212.69 233.84 215.33 230.01 217.89 231.56 215.73 235.68Z"
fill-rule="nonzero" fill="black"/>
<path d="M212.69 233.84L209.89 231.64 212.97 228.16 215.33 230.01 212.69 233.84Z"
fill-rule="nonzero" fill="black"/>
<path d="M209.89 231.64L207.38 229.13 210.86 226.05 212.97 228.16 209.89 231.64Z"
fill-rule="nonzero" fill="black"/>
<path d="M207.38 229.13L205.18 226.33 209.01 223.69 210.86 226.05 207.38 229.13Z"
fill-rule="nonzero" fill="black"/>
<path d="M205.18 226.33L203.34 223.29 207.46 221.13 209.01 223.69 205.18 226.33Z"
fill-rule="nonzero" fill="black"/>
<path d="M203.34 223.29L201.88 220.05 206.23 218.4 207.46 221.13 203.34 223.29Z"
fill-rule="nonzero" fill="black"/>
<path d="M201.88 220.05L200.83 216.65 205.34 215.54 206.23 218.4 201.88 220.05Z"
fill-rule="nonzero" fill="black"/>
<path d="M200.83 216.65L200.19 213.15 204.8 212.59 205.34 215.54 200.83 216.65Z"
fill-rule="nonzero" fill="black"/>
<path d="M200.19 213.15L199.97 209.61 204.62 209.61 204.8 212.59 200.19 213.15Z"
fill-rule="nonzero" fill="black"/>
<path d="M199.97 209.61L200.19 206.06 204.8 206.62 204.62 209.61 199.97 209.61Z"
fill-rule="nonzero" fill="black"/>
<path d="M200.19 206.06L200.83 202.56 205.34 203.67 204.8 206.62 200.19 206.06Z"
fill-rule="nonzero" fill="black"/>
<path d="M200.83 202.56L201.88 199.16 206.23 200.81 205.34 203.67 200.83 202.56Z"
fill-rule="nonzero" fill="black"/>
<path d="M201.88 199.16L203.34 195.92 207.46 198.08 206.23 200.81 201.88 199.16Z"
fill-rule="nonzero" fill="black"/>
<path d="M203.34 195.92L205.18 192.88 209.01 195.52 207.46 198.08 203.34 195.92Z"
fill-rule="nonzero" fill="black"/>
<path d="M205.18 192.88L207.38 190.08 210.86 193.16 209.01 195.52 205.18 192.88Z"
fill-rule="nonzero" fill="black"/>
<path d="M207.38 190.08L209.89 187.57 212.97 191.05 210.86 193.16 207.38 190.08Z"
fill-rule="nonzero" fill="black"/>
<path d="M209.89 187.57L212.69 185.37 215.33 189.2 212.97 191.05 209.89 187.57Z"
fill-rule="nonzero" fill="black"/>
<path d="M212.69 185.37L215.73 183.54 217.89 187.65 215.33 189.2 212.69 185.37Z"
fill-rule="nonzero" fill="black"/>
<path d="M215.73 183.54L218.97 182.08 220.62 186.42 217.89 187.65 215.73 183.54Z"
fill-rule="nonzero" fill="black"/>
<path d="M218.97 182.08L222.37 181.02 223.48 185.53 220.62 186.42 218.97 182.08Z"
fill-rule="nonzero" fill="black"/>
<path d="M222.37 181.02L225.87 180.38 226.43 184.99 223.48 185.53 222.37 181.02Z"
fill-rule="nonzero" fill="black"/>
<path d="M225.87 180.38L229.41 180.16 229.41 184.81 226.43 184.99 225.87 180.38Z"
fill-rule="nonzero" fill="black"/>
<path d="M229.41 184.81L225.87 184.6 226.43 179.98 229.41 180.16 229.41 184.81Z"
fill-rule="nonzero" fill="black"/>
<path d="M225.87 184.6L222.37 183.96 223.48 179.44 226.43 179.98 225.87 184.6Z"
fill-rule="nonzero" fill="black"/>
<path d="M222.37 183.96L218.97 182.9 220.62 178.55 223.48 179.44 222.37 183.96Z"
fill-rule="nonzero" fill="black"/>
<path d="M218.97 182.9L215.73 181.44 217.89 177.32 220.62 178.55 218.97 182.9Z"
fill-rule="nonzero" fill="black"/>
<path d="M215.73 181.44L212.69 179.6 215.33 175.77 217.89 177.32 215.73 181.44Z"
fill-rule="nonzero" fill="black"/>
<path d="M212.69 179.6L209.89 177.41 212.97 173.93 215.33 175.77 212.69 179.6Z"
fill-rule="nonzero" fill="black"/>
<path d="M209.89 177.41L207.38 174.89 210.86 171.81 212.97 173.93 209.89 177.41Z"
fill-rule="nonzero" fill="black"/>
<path d="M207.38 174.89L205.18 172.09 209.01 169.45 210.86 171.81 207.38 174.89Z"
fill-rule="nonzero" fill="black"/>
<path d="M205.18 172.09L203.34 169.05 207.46 166.89 209.01 169.45 205.18 172.09Z"
fill-rule="nonzero" fill="black"/>
<path d="M203.34 169.05L201.88 165.81 206.23 164.16 207.46 166.89 203.34 169.05Z"
fill-rule="nonzero" fill="black"/>
<path d="M201.88 165.81L200.83 162.41 205.34 161.3 206.23 164.16 201.88 165.81Z"
fill-rule="nonzero" fill="black"/>
<path d="M200.83 162.41L200.19 158.92 204.8 158.36 205.34 161.3 200.83 162.41Z"
fill-rule="nonzero" fill="black"/>
<path d="M200.19 158.92L199.97 155.37 204.62 155.37 204.8 158.36 200.19 158.92Z"
fill-rule="nonzero" fill="black"/>
<path d="M199.97 155.37L200.19 151.82 204.8 152.38 204.62 155.37 199.97 155.37Z"
fill-rule="nonzero" fill="black"/>
<path d="M200.19 151.82L200.83 148.32 205.34 149.44 204.8 152.38 200.19 151.82Z"
fill-rule="nonzero" fill="black"/>
<path d="M200.83 148.32L201.88 144.93 206.23 146.58 205.34 149.44 200.83 148.32Z"
fill-rule="nonzero" fill="black"/>
<path d="M201.88 144.93L203.34 141.69 207.46 143.85 206.23 146.58 201.88 144.93Z"
fill-rule="nonzero" fill="black"/>
<path d="M203.34 141.69L205.18 138.64 209.01 141.28 207.46 143.85 203.34 141.69Z"
fill-rule="nonzero" fill="black"/>
<path d="M205.18 138.64L207.38 135.84 210.86 138.93 209.01 141.28 205.18 138.64Z"
fill-rule="nonzero" fill="black"/>
<path d="M207.38 135.84L209.89 133.33 212.97 136.81 210.86 138.93 207.38 135.84Z"
fill-rule="nonzero" fill="black"/>
<path d="M209.89 133.33L212.69 131.14 215.33 134.96 212.97 136.81 209.89 133.33Z"
fill-rule="nonzero" fill="black"/>
<path d="M212.69 131.14L215.73 129.3 217.89 133.41 215.33 134.96 212.69 131.14Z"
fill-rule="nonzero" fill="black"/>
<path d="M215.73 129.3L218.97 127.84 220.62 132.19 217.89 133.41 215.73 129.3Z"
fill-rule="nonzero" fill="black"/>
<path d="M218.97 127.84L222.37 126.78 223.48 131.3 220.62 132.19 218.97 127.84Z"
fill-rule="nonzero" fill="black"/>
<path d="M222.37 126.78L225.87 126.14 226.43 130.76 223.48 131.3 222.37 126.78Z"
fill-rule="nonzero" fill="black"/>
<path d="M225.87 126.14L229.41 125.93 229.41 130.57 226.43 130.76 225.87 126.14Z"
fill-rule="nonzero" fill="black"/>
<path d="M229.41 130.57L229.41 125.93 301.73 125.93 301.73 130.57 229.41 130.57Z"
fill-rule="evenodd" fill="black"/>
<path d="M301.73 351.91L301.73 356.56 229.41 356.56 229.41 351.91 301.73 351.91Z"
fill-rule="evenodd" fill="black"/>
<path d="M229.41 356.56L225.87 356.35 226.43 351.73 229.41 351.91 229.41 356.56Z"
fill-rule="nonzero" fill="black"/>
<path d="M225.87 356.35L222.37 355.71 223.48 351.19 226.43 351.73 225.87 356.35Z"
fill-rule="nonzero" fill="black"/>
<path d="M222.37 355.71L218.97 354.65 220.62 350.3 223.48 351.19 222.37 355.71Z"
fill-rule="nonzero" fill="black"/>
<path d="M218.97 354.65L215.73 353.19 217.89 349.07 220.62 350.3 218.97 354.65Z"
fill-rule="nonzero" fill="black"/>
<path d="M215.73 353.19L212.69 351.35 215.33 347.52 217.89 349.07 215.73 353.19Z"
fill-rule="nonzero" fill="black"/>
<path d="M212.69 351.35L209.89 349.16 212.97 345.68 215.33 347.52 212.69 351.35Z"
fill-rule="nonzero" fill="black"/>
<path d="M209.89 349.16L207.38 346.64 210.86 343.56 212.97 345.68 209.89 349.16Z"
fill-rule="nonzero" fill="black"/>
<path d="M207.38 346.64L205.18 343.84 209.01 341.2 210.86 343.56 207.38 346.64Z"
fill-rule="nonzero" fill="black"/>
<path d="M205.18 343.84L203.34 340.8 207.46 338.64 209.01 341.2 205.18 343.84Z"
fill-rule="nonzero" fill="black"/>
<path d="M203.34 340.8L201.88 337.56 206.23 335.91 207.46 338.64 203.34 340.8Z"
fill-rule="nonzero" fill="black"/>
<path d="M201.88 337.56L200.83 334.16 205.34 333.05 206.23 335.91 201.88 337.56Z"
fill-rule="nonzero" fill="black"/>
<path d="M200.83 334.16L200.19 330.67 204.8 330.11 205.34 333.05 200.83 334.16Z"
fill-rule="nonzero" fill="black"/>
<path d="M200.19 330.67L199.97 327.12 204.62 327.12 204.8 330.11 200.19 330.67Z"
fill-rule="nonzero" fill="black"/>
<path d="M199.97 327.12L200.19 323.57 204.8 324.13 204.62 327.12 199.97 327.12Z"
fill-rule="nonzero" fill="black"/>
<path d="M200.19 323.57L200.83 320.07 205.34 321.18 204.8 324.13 200.19 323.57Z"
fill-rule="nonzero" fill="black"/>
<path d="M200.83 320.07L201.88 316.68 206.23 318.33 205.34 321.18 200.83 320.07Z"
fill-rule="nonzero" fill="black"/>
<path d="M201.88 316.68L203.34 313.44 207.46 315.6 206.23 318.33 201.88 316.68Z"
fill-rule="nonzero" fill="black"/>
<path d="M203.34 313.44L205.18 310.39 209.01 313.03 207.46 315.6 203.34 313.44Z"
fill-rule="nonzero" fill="black"/>
<path d="M205.18 310.39L207.38 307.59 210.86 310.68 209.01 313.03 205.18 310.39Z"
fill-rule="nonzero" fill="black"/>
<path d="M207.38 307.59L209.89 305.08 212.97 308.56 210.86 310.68 207.38 307.59Z"
fill-rule="nonzero" fill="black"/>
<path d="M209.89 305.08L212.69 302.89 215.33 306.71 212.97 308.56 209.89 305.08Z"
fill-rule="nonzero" fill="black"/>
<path d="M212.69 302.89L215.73 301.05 217.89 305.16 215.33 306.71 212.69 302.89Z"
fill-rule="nonzero" fill="black"/>
<path d="M215.73 301.05L218.97 299.59 220.62 303.94 217.89 305.16 215.73 301.05Z"
fill-rule="nonzero" fill="black"/>
<path d="M218.97 299.59L222.37 298.53 223.48 303.04 220.62 303.94 218.97 299.59Z"
fill-rule="nonzero" fill="black"/>
<path d="M222.37 298.53L225.87 297.89 226.43 302.51 223.48 303.04 222.37 298.53Z"
fill-rule="nonzero" fill="black"/>
<path d="M225.87 297.89L229.41 297.68 229.41 302.32 226.43 302.51 225.87 297.89Z"
fill-rule="nonzero" fill="black"/>
<path d="M229.41 302.32L225.87 302.11 226.43 297.49 229.41 297.68 229.41 302.32Z"
fill-rule="nonzero" fill="black"/>
<path d="M225.87 302.11L222.37 301.47 223.48 296.96 226.43 297.49 225.87 302.11Z"
fill-rule="nonzero" fill="black"/>
<path d="M222.37 301.47L218.97 300.41 220.62 296.06 223.48 296.96 222.37 301.47Z"
fill-rule="nonzero" fill="black"/>
<path d="M218.97 300.41L215.73 298.95 217.89 294.84 220.62 296.06 218.97 300.41Z"
fill-rule="nonzero" fill="black"/>
<path d="M215.73 298.95L212.69 297.11 215.33 293.29 217.89 294.84 215.73 298.95Z"
fill-rule="nonzero" fill="black"/>
<path d="M212.69 297.11L209.89 294.92 212.97 291.44 215.33 293.29 212.69 297.11Z"
fill-rule="nonzero" fill="black"/>
<path d="M209.89 294.92L207.38 292.41 210.86 289.32 212.97 291.44 209.89 294.92Z"
fill-rule="nonzero" fill="black"/>
<path d="M207.38 292.41L205.18 289.61 209.01 286.97 210.86 289.32 207.38 292.41Z"
fill-rule="nonzero" fill="black"/>
<path d="M205.18 289.61L203.34 286.56 207.46 284.4 209.01 286.97 205.18 289.61Z"
fill-rule="nonzero" fill="black"/>
<path d="M203.34 286.56L201.88 283.32 206.23 281.67 207.46 284.4 203.34 286.56Z"
fill-rule="nonzero" fill="black"/>
<path d="M201.88 283.32L200.83 279.93 205.34 278.82 206.23 281.67 201.88 283.32Z"
fill-rule="nonzero" fill="black"/>
<path d="M200.83 279.93L200.19 276.43 204.8 275.87 205.34 278.82 200.83 279.93Z"
fill-rule="nonzero" fill="black"/>
<path d="M200.19 276.43L199.97 272.88 204.62 272.88 204.8 275.87 200.19 276.43Z"
fill-rule="nonzero" fill="black"/>
<path d="M199.97 272.88L200.19 269.33 204.8 269.89 204.62 272.88 199.97 272.88Z"
fill-rule="nonzero" fill="black"/>
<path d="M200.19 269.33L200.83 265.84 205.34 266.95 204.8 269.89 200.19 269.33Z"
fill-rule="nonzero" fill="black"/>
<path d="M200.83 265.84L201.88 262.44 206.23 264.09 205.34 266.95 200.83 265.84Z"
fill-rule="nonzero" fill="black"/>
<path d="M201.88 262.44L203.34 259.2 207.46 261.36 206.23 264.09 201.88 262.44Z"
fill-rule="nonzero" fill="black"/>
<path d="M203.34 259.2L205.18 256.16 209.01 258.8 207.46 261.36 203.34 259.2Z"
fill-rule="nonzero" fill="black"/>
<path d="M205.18 256.16L207.38 253.36 210.86 256.44 209.01 258.8 205.18 256.16Z"
fill-rule="nonzero" fill="black"/>
<path d="M207.38 253.36L209.89 250.84 212.97 254.32 210.86 256.44 207.38 253.36Z"
fill-rule="nonzero" fill="black"/>
<path d="M209.89 250.84L212.69 248.65 215.33 252.48 212.97 254.32 209.89 250.84Z"
fill-rule="nonzero" fill="black"/>
<path d="M212.69 248.65L215.73 246.81 217.89 250.93 215.33 252.48 212.69 248.65Z"
fill-rule="nonzero" fill="black"/>
<path d="M215.73 246.81L218.97 245.35 220.62 249.7 217.89 250.93 215.73 246.81Z"
fill-rule="nonzero" fill="black"/>
<path d="M218.97 245.35L222.37 244.29 223.48 248.81 220.62 249.7 218.97 245.35Z"
fill-rule="nonzero" fill="black"/>
<path d="M222.37 244.29L225.87 243.65 226.43 248.27 223.48 248.81 222.37 244.29Z"
fill-rule="nonzero" fill="black"/>
<path d="M225.87 243.65L229.41 243.44 229.41 248.09 226.43 248.27 225.87 243.65Z"
fill-rule="nonzero" fill="black"/>
<path d="M229.41 248.09L229.41 243.44 301.73 243.44 301.73 248.09 229.41 248.09Z"
fill-rule="evenodd" fill="black"/>
<path d="M301.73 469.43L301.73 474.07 229.41 474.07 229.41 469.43 301.73 469.43Z"
fill-rule="evenodd" fill="black"/>
<path d="M229.41 474.07L225.87 473.86 226.43 469.24 229.41 469.43 229.41 474.07Z"
fill-rule="nonzero" fill="black"/>
<path d="M225.87 473.86L222.37 473.22 223.48 468.7 226.43 469.24 225.87 473.86Z"
fill-rule="nonzero" fill="black"/>
<path d="M222.37 473.22L218.97 472.16 220.62 467.81 223.48 468.7 222.37 473.22Z"
fill-rule="nonzero" fill="black"/>
<path d="M218.97 472.16L215.73 470.7 217.89 466.59 220.62 467.81 218.97 472.16Z"
fill-rule="nonzero" fill="black"/>
<path d="M215.73 470.7L212.69 468.86 215.33 465.04 217.89 466.59 215.73 470.7Z"
fill-rule="nonzero" fill="black"/>
<path d="M212.69 468.86L209.89 466.67 212.97 463.19 215.33 465.04 212.69 468.86Z"
fill-rule="nonzero" fill="black"/>
<path d="M209.89 466.67L207.38 464.16 210.86 461.07 212.97 463.19 209.89 466.67Z"
fill-rule="nonzero" fill="black"/>
<path d="M207.38 464.16L205.18 461.36 209.01 458.72 210.86 461.07 207.38 464.16Z"
fill-rule="nonzero" fill="black"/>
<path d="M205.18 461.36L203.34 458.31 207.46 456.15 209.01 458.72 205.18 461.36Z"
fill-rule="nonzero" fill="black"/>
<path d="M203.34 458.31L201.88 455.07 206.23 453.42 207.46 456.15 203.34 458.31Z"
fill-rule="nonzero" fill="black"/>
<path d="M201.88 455.07L200.83 451.68 205.34 450.56 206.23 453.42 201.88 455.07Z"
fill-rule="nonzero" fill="black"/>
<path d="M200.83 451.68L200.19 448.18 204.8 447.62 205.34 450.56 200.83 451.68Z"
fill-rule="nonzero" fill="black"/>
<path d="M200.19 448.18L199.97 444.63 204.62 444.63 204.8 447.62 200.19 448.18Z"
fill-rule="nonzero" fill="black"/>
<path d="M199.97 444.63L200.19 441.08 204.8 441.64 204.62 444.63 199.97 444.63Z"
fill-rule="nonzero" fill="black"/>
<path d="M200.19 441.08L200.83 437.59 205.34 438.7 204.8 441.64 200.19 441.08Z"
fill-rule="nonzero" fill="black"/>
<path d="M200.83 437.59L201.88 434.19 206.23 435.84 205.34 438.7 200.83 437.59Z"
fill-rule="nonzero" fill="black"/>
<path d="M201.88 434.19L203.34 430.95 207.46 433.11 206.23 435.84 201.88 434.19Z"
fill-rule="nonzero" fill="black"/>
<path d="M203.34 430.95L205.18 427.91 209.01 430.55 207.46 433.11 203.34 430.95Z"
fill-rule="nonzero" fill="black"/>
<path d="M205.18 427.91L207.38 425.11 210.86 428.19 209.01 430.55 205.18 427.91Z"
fill-rule="nonzero" fill="black"/>
<path d="M207.38 425.11L209.89 422.59 212.97 426.07 210.86 428.19 207.38 425.11Z"
fill-rule="nonzero" fill="black"/>
<path d="M209.89 422.59L212.69 420.4 215.33 424.23 212.97 426.07 209.89 422.59Z"
fill-rule="nonzero" fill="black"/>
<path d="M212.69 420.4L215.73 418.56 217.89 422.68 215.33 424.23 212.69 420.4Z"
fill-rule="nonzero" fill="black"/>
<path d="M215.73 418.56L218.97 417.1 220.62 421.45 217.89 422.68 215.73 418.56Z"
fill-rule="nonzero" fill="black"/>
<path d="M218.97 417.1L222.37 416.04 223.48 420.56 220.62 421.45 218.97 417.1Z"
fill-rule="nonzero" fill="black"/>
<path d="M222.37 416.04L225.87 415.4 226.43 420.02 223.48 420.56 222.37 416.04Z"
fill-rule="nonzero" fill="black"/>
<path d="M225.87 415.4L229.41 415.19 229.41 419.84 226.43 420.02 225.87 415.4Z"
fill-rule="nonzero" fill="black"/>
<path d="M229.41 419.84L225.87 419.62 226.43 415.01 229.41 415.19 229.41 419.84Z"
fill-rule="nonzero" fill="black"/>
<path d="M225.87 419.62L222.37 418.98 223.48 414.47 226.43 415.01 225.87 419.62Z"
fill-rule="nonzero" fill="black"/>
<path d="M222.37 418.98L218.97 417.92 220.62 413.58 223.48 414.47 222.37 418.98Z"
fill-rule="nonzero" fill="black"/>
<path d="M218.97 417.92L215.73 416.46 217.89 412.35 220.62 413.58 218.97 417.92Z"
fill-rule="nonzero" fill="black"/>
<path d="M215.73 416.46L212.69 414.63 215.33 410.8 217.89 412.35 215.73 416.46Z"
fill-rule="nonzero" fill="black"/>
<path d="M212.69 414.63L209.89 412.43 212.97 408.95 215.33 410.8 212.69 414.63Z"
fill-rule="nonzero" fill="black"/>
<path d="M209.89 412.43L207.38 409.92 210.86 406.84 212.97 408.95 209.89 412.43Z"
fill-rule="nonzero" fill="black"/>
<path d="M207.38 409.92L205.18 407.12 209.01 404.48 210.86 406.84 207.38 409.92Z"
fill-rule="nonzero" fill="black"/>
<path d="M205.18 407.12L203.34 404.08 207.46 401.92 209.01 404.48 205.18 407.12Z"
fill-rule="nonzero" fill="black"/>
<path d="M203.34 404.08L201.88 400.84 206.23 399.19 207.46 401.92 203.34 404.08Z"
fill-rule="nonzero" fill="black"/>
<path d="M201.88 400.84L200.83 397.44 205.34 396.33 206.23 399.19 201.88 400.84Z"
fill-rule="nonzero" fill="black"/>
<path d="M200.83 397.44L200.19 393.94 204.8 393.38 205.34 396.33 200.83 397.44Z"
fill-rule="nonzero" fill="black"/>
<path d="M200.19 393.94L199.97 390.39 204.62 390.39 204.8 393.38 200.19 393.94Z"
fill-rule="nonzero" fill="black"/>
<path d="M199.97 390.39L200.19 386.85 204.8 387.41 204.62 390.39 199.97 390.39Z"
fill-rule="nonzero" fill="black"/>
<path d="M200.19 386.85L200.83 383.35 205.34 384.46 204.8 387.41 200.19 386.85Z"
fill-rule="nonzero" fill="black"/>
<path d="M200.83 383.35L201.88 379.95 206.23 381.6 205.34 384.46 200.83 383.35Z"
fill-rule="nonzero" fill="black"/>
<path d="M201.88 379.95L203.34 376.71 207.46 378.87 206.23 381.6 201.88 379.95Z"
fill-rule="nonzero" fill="black"/>
<path d="M203.34 376.71L205.18 373.67 209.01 376.31 207.46 378.87 203.34 376.71Z"
fill-rule="nonzero" fill="black"/>
<path d="M205.18 373.67L207.38 370.87 210.86 373.95 209.01 376.31 205.18 373.67Z"
fill-rule="nonzero" fill="black"/>
<path d="M207.38 370.87L209.89 368.36 212.97 371.84 210.86 373.95 207.38 370.87Z"
fill-rule="nonzero" fill="black"/>
<path d="M209.89 368.36L212.69 366.16 215.33 369.99 212.97 371.84 209.89 368.36Z"
fill-rule="nonzero" fill="black"/>
<path d="M212.69 366.16L215.73 364.32 217.89 368.44 215.33 369.99 212.69 366.16Z"
fill-rule="nonzero" fill="black"/>
<path d="M215.73 364.32L218.97 362.87 220.62 367.21 217.89 368.44 215.73 364.32Z"
fill-rule="nonzero" fill="black"/>
<path d="M218.97 362.87L222.37 361.81 223.48 366.32 220.62 367.21 218.97 362.87Z"
fill-rule="nonzero" fill="black"/>
<path d="M222.37 361.81L225.87 361.17 226.43 365.78 223.48 366.32 222.37 361.81Z"
fill-rule="nonzero" fill="black"/>
<path d="M225.87 361.17L229.41 360.95 229.41 365.6 226.43 365.78 225.87 361.17Z"
fill-rule="nonzero" fill="black"/>
<path d="M229.41 365.6L229.41 360.95 301.73 360.95 301.73 365.6 229.41 365.6Z"
fill-rule="evenodd" fill="black"/>
<path d="M247.49 112.48L249.85 112.23 248.89 107.68 247.49 107.83 247.49 112.48Z"
fill-rule="nonzero" fill="black"/>
<path d="M249.85 112.23L252.11 111.5 250.22 107.25 248.89 107.68 249.85 112.23Z"
fill-rule="nonzero" fill="black"/>
<path d="M252.11 111.5L254.17 110.31 251.43 106.55 250.22 107.25 252.11 111.5Z"
fill-rule="nonzero" fill="black"/>
<path d="M254.17 110.31L255.93 108.72 252.48 105.61 251.43 106.55 254.17 110.31Z"
fill-rule="nonzero" fill="black"/>
<path d="M255.93 108.72L257.33 106.8 253.3 104.48 252.48 105.61 255.93 108.72Z"
fill-rule="nonzero" fill="black"/>
<path d="M257.33 106.8L258.29 104.63 253.87 103.19 253.3 104.48 257.33 106.8Z"
fill-rule="nonzero" fill="black"/>
<path d="M258.29 104.63L258.79 102.31 254.16 101.82 253.87 103.19 258.29 104.63Z"
fill-rule="nonzero" fill="black"/>
<path d="M258.79 102.31L258.79 99.94 254.16 100.42 254.16 101.82 258.79 102.31Z"
fill-rule="nonzero" fill="black"/>
<path d="M258.79 99.94L258.29 97.61 253.87 99.05 254.16 100.42 258.79 99.94Z"
fill-rule="nonzero" fill="black"/>
<path d="M258.29 97.61L257.33 95.45 253.3 97.77 253.87 99.05 258.29 97.61Z"
fill-rule="nonzero" fill="black"/>
<path d="M257.33 95.45L255.93 93.52 252.48 96.64 253.3 97.77 257.33 95.45Z"
fill-rule="nonzero" fill="black"/>
<path d="M255.93 93.52L254.17 91.94 251.43 95.7 252.48 96.64 255.93 93.52Z"
fill-rule="nonzero" fill="black"/>
<path d="M254.17 91.94L252.11 90.75 250.22 95 251.43 95.7 254.17 91.94Z"
fill-rule="nonzero" fill="black"/>
<path d="M252.11 90.75L249.85 90.02 248.89 94.56 250.22 95 252.11 90.75Z"
fill-rule="nonzero" fill="black"/>
<path d="M249.85 90.02L247.49 89.77 247.49 94.42 248.89 94.56 249.85 90.02Z"
fill-rule="nonzero" fill="black"/>
<path d="M247.49 89.77L245.13 90.02 246.1 94.56 247.49 94.42 247.49 89.77Z"
fill-rule="nonzero" fill="black"/>
<path d="M245.13 90.02L242.87 90.75 244.76 95 246.1 94.56 245.13 90.02Z"
fill-rule="nonzero" fill="black"/>
<path d="M242.87 90.75L240.81 91.94 243.55 95.7 244.76 95 242.87 90.75Z"
fill-rule="nonzero" fill="black"/>
<path d="M240.81 91.94L239.05 93.53 242.5 96.64 243.55 95.7 240.81 91.94Z"
fill-rule="nonzero" fill="black"/>
<path d="M239.05 93.53L237.65 95.45 241.68 97.77 242.5 96.64 239.05 93.53Z"
fill-rule="nonzero" fill="black"/>
<path d="M237.65 95.45L236.69 97.62 241.11 99.06 241.68 97.77 237.65 95.45Z"
fill-rule="nonzero" fill="black"/>
<path d="M236.69 97.62L236.19 99.94 240.81 100.43 241.11 99.06 236.69 97.62Z"
fill-rule="nonzero" fill="black"/>
<path d="M236.19 99.94L236.19 102.32 240.81 101.83 240.81 100.43 236.19 99.94Z"
fill-rule="nonzero" fill="black"/>
<path d="M236.19 102.32L236.69 104.64 241.11 103.21 240.81 101.83 236.19 102.32Z"
fill-rule="nonzero" fill="black"/>
<path d="M236.69 104.64L237.65 106.81 241.68 104.49 241.11 103.21 236.69 104.64Z"
fill-rule="nonzero" fill="black"/>
<path d="M237.65 106.81L239.05 108.74 242.5 105.63 241.68 104.49 237.65 106.81Z"
fill-rule="nonzero" fill="black"/>
<path d="M239.05 108.74L240.81 110.33 243.55 106.56 242.5 105.63 239.05 108.74Z"
fill-rule="nonzero" fill="black"/>
<path d="M240.81 110.33L242.87 111.51 244.76 107.27 243.55 106.56 240.81 110.33Z"
fill-rule="nonzero" fill="black"/>
<path d="M242.87 111.51L245.13 112.25 246.1 107.7 244.76 107.27 242.87 111.51Z"
fill-rule="nonzero" fill="black"/>
<path d="M245.13 112.25L247.49 112.5 247.49 107.85 246.1 107.7 245.13 112.25Z"
fill-rule="nonzero" fill="black"/>
<path d="M247.49 487.52L249.85 487.77 248.89 492.32 247.49 492.17 247.49 487.52Z"
fill-rule="nonzero" fill="black"/>
<path d="M249.85 487.77L252.11 488.5 250.22 492.75 248.89 492.32 249.85 487.77Z"
fill-rule="nonzero" fill="black"/>
<path d="M252.11 488.5L254.17 489.69 251.43 493.45 250.22 492.75 252.11 488.5Z"
fill-rule="nonzero" fill="black"/>
<path d="M254.17 489.69L255.93 491.28 252.48 494.39 251.43 493.45 254.17 489.69Z"
fill-rule="nonzero" fill="black"/>
<path d="M255.93 491.28L257.33 493.2 253.3 495.52 252.48 494.39 255.93 491.28Z"
fill-rule="nonzero" fill="black"/>
<path d="M257.33 493.2L258.29 495.37 253.87 496.81 253.3 495.52 257.33 493.2Z"
fill-rule="nonzero" fill="black"/>
<path d="M258.29 495.37L258.79 497.69 254.16 498.18 253.87 496.81 258.29 495.37Z"
fill-rule="nonzero" fill="black"/>
<path d="M258.79 497.69L258.79 500.06 254.16 499.58 254.16 498.18 258.79 497.69Z"
fill-rule="nonzero" fill="black"/>
<path d="M258.79 500.06L258.29 502.39 253.87 500.95 254.16 499.58 258.79 500.06Z"
fill-rule="nonzero" fill="black"/>
<path d="M258.29 502.39L257.33 504.55 253.3 502.23 253.87 500.95 258.29 502.39Z"
fill-rule="nonzero" fill="black"/>
<path d="M257.33 504.55L255.93 506.48 252.48 503.36 253.3 502.23 257.33 504.55Z"
fill-rule="nonzero" fill="black"/>
<path d="M255.93 506.48L254.17 508.06 251.43 504.3 252.48 503.36 255.93 506.48Z"
fill-rule="nonzero" fill="black"/>
<path d="M254.17 508.06L252.11 509.25 250.22 505 251.43 504.3 254.17 508.06Z"
fill-rule="nonzero" fill="black"/>
<path d="M252.11 509.25L249.85 509.98 248.89 505.44 250.22 505 252.11 509.25Z"
fill-rule="nonzero" fill="black"/>
<path d="M249.85 509.98L247.49 510.23 247.49 505.58 248.89 505.44 249.85 509.98Z"
fill-rule="nonzero" fill="black"/>
<path d="M247.49 510.23L245.13 509.98 246.1 505.44 247.49 505.58 247.49 510.23Z"
fill-rule="nonzero" fill="black"/>
<path d="M245.13 509.98L242.87 509.25 244.76 505 246.1 505.44 245.13 509.98Z"
fill-rule="nonzero" fill="black"/>
<path d="M242.87 509.25L240.81 508.06 243.55 504.3 244.76 505 242.87 509.25Z"
fill-rule="nonzero" fill="black"/>
<path d="M240.81 508.06L239.05 506.47 242.5 503.36 243.55 504.3 240.81 508.06Z"
fill-rule="nonzero" fill="black"/>
<path d="M239.05 506.47L237.65 504.55 241.68 502.23 242.5 503.36 239.05 506.47Z"
fill-rule="nonzero" fill="black"/>
<path d="M237.65 504.55L236.69 502.38 241.11 500.94 241.68 502.23 237.65 504.55Z"
fill-rule="nonzero" fill="black"/>
<path d="M236.69 502.38L236.19 500.06 240.81 499.57 241.11 500.94 236.69 502.38Z"
fill-rule="nonzero" fill="black"/>
<path d="M236.19 500.06L236.19 497.68 240.81 498.17 240.81 499.57 236.19 500.06Z"
fill-rule="nonzero" fill="black"/>
<path d="M236.19 497.68L236.69 495.36 241.11 496.79 240.81 498.17 236.19 497.68Z"
fill-rule="nonzero" fill="black"/>
<path d="M236.69 495.36L237.65 493.19 241.68 495.51 241.11 496.79 236.69 495.36Z"
fill-rule="nonzero" fill="black"/>
<path d="M237.65 493.19L239.05 491.26 242.5 494.37 241.68 495.51 237.65 493.19Z"
fill-rule="nonzero" fill="black"/>
<path d="M239.05 491.26L240.81 489.67 243.55 493.44 242.5 494.37 239.05 491.26Z"
fill-rule="nonzero" fill="black"/>
<path d="M240.81 489.67L242.87 488.49 244.76 492.73 243.55 493.44 240.81 489.67Z"
fill-rule="nonzero" fill="black"/>
<path d="M242.87 488.49L245.13 487.75 246.1 492.3 244.76 492.73 242.87 488.49Z"
fill-rule="nonzero" fill="black"/>
<path d="M245.13 487.75L247.49 487.5 247.49 492.15 246.1 492.3 245.13 487.75Z"
fill-rule="nonzero" fill="black"/>
<path d="M548.12 598.3L543.47 598.3 543.47 1.7 548.12 1.7 548.12 598.3Z"
fill-rule="evenodd" fill="black"/>
<path d="M600.03 234.4L600.03 239.05 527.71 239.05 527.71 234.4 600.03 234.4Z"
fill-rule="evenodd" fill="black"/>
<path d="M527.71 239.05L524.16 238.83 524.72 234.22 527.71 234.4 527.71 239.05Z"
fill-rule="nonzero" fill="black"/>
<path d="M524.16 238.83L520.67 238.19 521.78 233.68 524.72 234.22 524.16 238.83Z"
fill-rule="nonzero" fill="black"/>
<path d="M520.67 238.19L517.27 237.13 518.92 232.79 521.78 233.68 520.67 238.19Z"
fill-rule="nonzero" fill="black"/>
<path d="M517.27 237.13L514.03 235.68 516.19 231.56 518.92 232.79 517.27 237.13Z"
fill-rule="nonzero" fill="black"/>
<path d="M514.03 235.68L510.99 233.84 513.63 230.01 516.19 231.56 514.03 235.68Z"
fill-rule="nonzero" fill="black"/>
<path d="M510.99 233.84L508.19 231.64 511.27 228.16 513.63 230.01 510.99 233.84Z"
fill-rule="nonzero" fill="black"/>
<path d="M508.19 231.64L505.67 229.13 509.15 226.05 511.27 228.16 508.19 231.64Z"
fill-rule="nonzero" fill="black"/>
<path d="M505.67 229.13L503.48 226.33 507.31 223.69 509.15 226.05 505.67 229.13Z"
fill-rule="nonzero" fill="black"/>
<path d="M503.48 226.33L501.64 223.29 505.76 221.13 507.31 223.69 503.48 226.33Z"
fill-rule="nonzero" fill="black"/>
<path d="M501.64 223.29L500.18 220.05 504.53 218.4 505.76 221.13 501.64 223.29Z"
fill-rule="nonzero" fill="black"/>
<path d="M500.18 220.05L499.13 216.65 503.64 215.54 504.53 218.4 500.18 220.05Z"
fill-rule="nonzero" fill="black"/>
<path d="M499.13 216.65L498.48 213.15 503.1 212.59 503.64 215.54 499.13 216.65Z"
fill-rule="nonzero" fill="black"/>
<path d="M498.48 213.15L498.27 209.61 502.92 209.61 503.1 212.59 498.48 213.15Z"
fill-rule="nonzero" fill="black"/>
<path d="M498.27 209.61L498.48 206.06 503.1 206.62 502.92 209.61 498.27 209.61Z"
fill-rule="nonzero" fill="black"/>
<path d="M498.48 206.06L499.13 202.56 503.64 203.67 503.1 206.62 498.48 206.06Z"
fill-rule="nonzero" fill="black"/>
<path d="M499.13 202.56L500.18 199.16 504.53 200.81 503.64 203.67 499.13 202.56Z"
fill-rule="nonzero" fill="black"/>
<path d="M500.18 199.16L501.64 195.92 505.76 198.08 504.53 200.81 500.18 199.16Z"
fill-rule="nonzero" fill="black"/>
<path d="M501.64 195.92L503.48 192.88 507.31 195.52 505.76 198.08 501.64 195.92Z"
fill-rule="nonzero" fill="black"/>
<path d="M503.48 192.88L505.67 190.08 509.15 193.16 507.31 195.52 503.48 192.88Z"
fill-rule="nonzero" fill="black"/>
<path d="M505.67 190.08L508.19 187.57 511.27 191.05 509.15 193.16 505.67 190.08Z"
fill-rule="nonzero" fill="black"/>
<path d="M508.19 187.57L510.99 185.37 513.63 189.2 511.27 191.05 508.19 187.57Z"
fill-rule="nonzero" fill="black"/>
<path d="M510.99 185.37L514.03 183.54 516.19 187.65 513.63 189.2 510.99 185.37Z"
fill-rule="nonzero" fill="black"/>
<path d="M514.03 183.54L517.27 182.08 518.92 186.42 516.19 187.65 514.03 183.54Z"
fill-rule="nonzero" fill="black"/>
<path d="M517.27 182.08L520.67 181.02 521.78 185.53 518.92 186.42 517.27 182.08Z"
fill-rule="nonzero" fill="black"/>
<path d="M520.67 181.02L524.16 180.38 524.72 184.99 521.78 185.53 520.67 181.02Z"
fill-rule="nonzero" fill="black"/>
<path d="M524.16 180.38L527.71 180.16 527.71 184.81 524.72 184.99 524.16 180.38Z"
fill-rule="nonzero" fill="black"/>
<path d="M527.71 184.81L524.16 184.6 524.72 179.98 527.71 180.16 527.71 184.81Z"
fill-rule="nonzero" fill="black"/>
<path d="M524.16 184.6L520.67 183.96 521.78 179.44 524.72 179.98 524.16 184.6Z"
fill-rule="nonzero" fill="black"/>
<path d="M520.67 183.96L517.27 182.9 518.92 178.55 521.78 179.44 520.67 183.96Z"
fill-rule="nonzero" fill="black"/>
<path d="M517.27 182.9L514.03 181.44 516.19 177.32 518.92 178.55 517.27 182.9Z"
fill-rule="nonzero" fill="black"/>
<path d="M514.03 181.44L510.99 179.6 513.63 175.77 516.19 177.32 514.03 181.44Z"
fill-rule="nonzero" fill="black"/>
<path d="M510.99 179.6L508.19 177.41 511.27 173.93 513.63 175.77 510.99 179.6Z"
fill-rule="nonzero" fill="black"/>
<path d="M508.19 177.41L505.67 174.89 509.15 171.81 511.27 173.93 508.19 177.41Z"
fill-rule="nonzero" fill="black"/>
<path d="M505.67 174.89L503.48 172.09 507.31 169.45 509.15 171.81 505.67 174.89Z"
fill-rule="nonzero" fill="black"/>
<path d="M503.48 172.09L501.64 169.05 505.76 166.89 507.31 169.45 503.48 172.09Z"
fill-rule="nonzero" fill="black"/>
<path d="M501.64 169.05L500.18 165.81 504.53 164.16 505.76 166.89 501.64 169.05Z"
fill-rule="nonzero" fill="black"/>
<path d="M500.18 165.81L499.13 162.41 503.64 161.3 504.53 164.16 500.18 165.81Z"
fill-rule="nonzero" fill="black"/>
<path d="M499.13 162.41L498.48 158.92 503.1 158.36 503.64 161.3 499.13 162.41Z"
fill-rule="nonzero" fill="black"/>
<path d="M498.48 158.92L498.27 155.37 502.92 155.37 503.1 158.36 498.48 158.92Z"
fill-rule="nonzero" fill="black"/>
<path d="M498.27 155.37L498.48 151.82 503.1 152.38 502.92 155.37 498.27 155.37Z"
fill-rule="nonzero" fill="black"/>
<path d="M498.48 151.82L499.13 148.32 503.64 149.44 503.1 152.38 498.48 151.82Z"
fill-rule="nonzero" fill="black"/>
<path d="M499.13 148.32L500.18 144.93 504.53 146.58 503.64 149.44 499.13 148.32Z"
fill-rule="nonzero" fill="black"/>
<path d="M500.18 144.93L501.64 141.69 505.76 143.85 504.53 146.58 500.18 144.93Z"
fill-rule="nonzero" fill="black"/>
<path d="M501.64 141.69L503.48 138.64 507.31 141.28 505.76 143.85 501.64 141.69Z"
fill-rule="nonzero" fill="black"/>
<path d="M503.48 138.64L505.67 135.84 509.15 138.93 507.31 141.28 503.48 138.64Z"
fill-rule="nonzero" fill="black"/>
<path d="M505.67 135.84L508.19 133.33 511.27 136.81 509.15 138.93 505.67 135.84Z"
fill-rule="nonzero" fill="black"/>
<path d="M508.19 133.33L510.99 131.14 513.63 134.96 511.27 136.81 508.19 133.33Z"
fill-rule="nonzero" fill="black"/>
<path d="M510.99 131.14L514.03 129.3 516.19 133.41 513.63 134.96 510.99 131.14Z"
fill-rule="nonzero" fill="black"/>
<path d="M514.03 129.3L517.27 127.84 518.92 132.19 516.19 133.41 514.03 129.3Z"
fill-rule="nonzero" fill="black"/>
<path d="M517.27 127.84L520.67 126.78 521.78 131.3 518.92 132.19 517.27 127.84Z"
fill-rule="nonzero" fill="black"/>
<path d="M520.67 126.78L524.16 126.14 524.72 130.76 521.78 131.3 520.67 126.78Z"
fill-rule="nonzero" fill="black"/>
<path d="M524.16 126.14L527.71 125.93 527.71 130.57 524.72 130.76 524.16 126.14Z"
fill-rule="nonzero" fill="black"/>
<path d="M527.71 130.57L527.71 125.93 600.03 125.93 600.03 130.57 527.71 130.57Z"
fill-rule="evenodd" fill="black"/>
<path d="M600.03 351.91L600.03 356.56 527.71 356.56 527.71 351.91 600.03 351.91Z"
fill-rule="evenodd" fill="black"/>
<path d="M527.71 356.56L524.16 356.35 524.72 351.73 527.71 351.91 527.71 356.56Z"
fill-rule="nonzero" fill="black"/>
<path d="M524.16 356.35L520.67 355.71 521.78 351.19 524.72 351.73 524.16 356.35Z"
fill-rule="nonzero" fill="black"/>
<path d="M520.67 355.71L517.27 354.65 518.92 350.3 521.78 351.19 520.67 355.71Z"
fill-rule="nonzero" fill="black"/>
<path d="M517.27 354.65L514.03 353.19 516.19 349.07 518.92 350.3 517.27 354.65Z"
fill-rule="nonzero" fill="black"/>
<path d="M514.03 353.19L510.99 351.35 513.63 347.52 516.19 349.07 514.03 353.19Z"
fill-rule="nonzero" fill="black"/>
<path d="M510.99 351.35L508.19 349.16 511.27 345.68 513.63 347.52 510.99 351.35Z"
fill-rule="nonzero" fill="black"/>
<path d="M508.19 349.16L505.67 346.64 509.15 343.56 511.27 345.68 508.19 349.16Z"
fill-rule="nonzero" fill="black"/>
<path d="M505.67 346.64L503.48 343.84 507.31 341.2 509.15 343.56 505.67 346.64Z"
fill-rule="nonzero" fill="black"/>
<path d="M503.48 343.84L501.64 340.8 505.76 338.64 507.31 341.2 503.48 343.84Z"
fill-rule="nonzero" fill="black"/>
<path d="M501.64 340.8L500.18 337.56 504.53 335.91 505.76 338.64 501.64 340.8Z"
fill-rule="nonzero" fill="black"/>
<path d="M500.18 337.56L499.13 334.16 503.64 333.05 504.53 335.91 500.18 337.56Z"
fill-rule="nonzero" fill="black"/>
<path d="M499.13 334.16L498.48 330.67 503.1 330.11 503.64 333.05 499.13 334.16Z"
fill-rule="nonzero" fill="black"/>
<path d="M498.48 330.67L498.27 327.12 502.92 327.12 503.1 330.11 498.48 330.67Z"
fill-rule="nonzero" fill="black"/>
<path d="M498.27 327.12L498.48 323.57 503.1 324.13 502.92 327.12 498.27 327.12Z"
fill-rule="nonzero" fill="black"/>
<path d="M498.48 323.57L499.13 320.07 503.64 321.18 503.1 324.13 498.48 323.57Z"
fill-rule="nonzero" fill="black"/>
<path d="M499.13 320.07L500.18 316.68 504.53 318.33 503.64 321.18 499.13 320.07Z"
fill-rule="nonzero" fill="black"/>
<path d="M500.18 316.68L501.64 313.44 505.76 315.6 504.53 318.33 500.18 316.68Z"
fill-rule="nonzero" fill="black"/>
<path d="M501.64 313.44L503.48 310.39 507.31 313.03 505.76 315.6 501.64 313.44Z"
fill-rule="nonzero" fill="black"/>
<path d="M503.48 310.39L505.67 307.59 509.15 310.68 507.31 313.03 503.48 310.39Z"
fill-rule="nonzero" fill="black"/>
<path d="M505.67 307.59L508.19 305.08 511.27 308.56 509.15 310.68 505.67 307.59Z"
fill-rule="nonzero" fill="black"/>
<path d="M508.19 305.08L510.99 302.89 513.63 306.71 511.27 308.56 508.19 305.08Z"
fill-rule="nonzero" fill="black"/>
<path d="M510.99 302.89L514.03 301.05 516.19 305.16 513.63 306.71 510.99 302.89Z"
fill-rule="nonzero" fill="black"/>
<path d="M514.03 301.05L517.27 299.59 518.92 303.94 516.19 305.16 514.03 301.05Z"
fill-rule="nonzero" fill="black"/>
<path d="M517.27 299.59L520.67 298.53 521.78 303.04 518.92 303.94 517.27 299.59Z"
fill-rule="nonzero" fill="black"/>
<path d="M520.67 298.53L524.16 297.89 524.72 302.51 521.78 303.04 520.67 298.53Z"
fill-rule="nonzero" fill="black"/>
<path d="M524.16 297.89L527.71 297.68 527.71 302.32 524.72 302.51 524.16 297.89Z"
fill-rule="nonzero" fill="black"/>
<path d="M527.71 302.32L524.16 302.11 524.72 297.49 527.71 297.68 527.71 302.32Z"
fill-rule="nonzero" fill="black"/>
<path d="M524.16 302.11L520.67 301.47 521.78 296.96 524.72 297.49 524.16 302.11Z"
fill-rule="nonzero" fill="black"/>
<path d="M520.67 301.47L517.27 300.41 518.92 296.06 521.78 296.96 520.67 301.47Z"
fill-rule="nonzero" fill="black"/>
<path d="M517.27 300.41L514.03 298.95 516.19 294.84 518.92 296.06 517.27 300.41Z"
fill-rule="nonzero" fill="black"/>
<path d="M514.03 298.95L510.99 297.11 513.63 293.29 516.19 294.84 514.03 298.95Z"
fill-rule="nonzero" fill="black"/>
<path d="M510.99 297.11L508.19 294.92 511.27 291.44 513.63 293.29 510.99 297.11Z"
fill-rule="nonzero" fill="black"/>
<path d="M508.19 294.92L505.67 292.41 509.15 289.32 511.27 291.44 508.19 294.92Z"
fill-rule="nonzero" fill="black"/>
<path d="M505.67 292.41L503.48 289.61 507.31 286.97 509.15 289.32 505.67 292.41Z"
fill-rule="nonzero" fill="black"/>
<path d="M503.48 289.61L501.64 286.56 505.76 284.4 507.31 286.97 503.48 289.61Z"
fill-rule="nonzero" fill="black"/>
<path d="M501.64 286.56L500.18 283.32 504.53 281.67 505.76 284.4 501.64 286.56Z"
fill-rule="nonzero" fill="black"/>
<path d="M500.18 283.32L499.13 279.93 503.64 278.82 504.53 281.67 500.18 283.32Z"
fill-rule="nonzero" fill="black"/>
<path d="M499.13 279.93L498.48 276.43 503.1 275.87 503.64 278.82 499.13 279.93Z"
fill-rule="nonzero" fill="black"/>
<path d="M498.48 276.43L498.27 272.88 502.92 272.88 503.1 275.87 498.48 276.43Z"
fill-rule="nonzero" fill="black"/>
<path d="M498.27 272.88L498.48 269.33 503.1 269.89 502.92 272.88 498.27 272.88Z"
fill-rule="nonzero" fill="black"/>
<path d="M498.48 269.33L499.13 265.84 503.64 266.95 503.1 269.89 498.48 269.33Z"
fill-rule="nonzero" fill="black"/>
<path d="M499.13 265.84L500.18 262.44 504.53 264.09 503.64 266.95 499.13 265.84Z"
fill-rule="nonzero" fill="black"/>
<path d="M500.18 262.44L501.64 259.2 505.76 261.36 504.53 264.09 500.18 262.44Z"
fill-rule="nonzero" fill="black"/>
<path d="M501.64 259.2L503.48 256.16 507.31 258.8 505.76 261.36 501.64 259.2Z"
fill-rule="nonzero" fill="black"/>
<path d="M503.48 256.16L505.67 253.36 509.15 256.44 507.31 258.8 503.48 256.16Z"
fill-rule="nonzero" fill="black"/>
<path d="M505.67 253.36L508.19 250.84 511.27 254.32 509.15 256.44 505.67 253.36Z"
fill-rule="nonzero" fill="black"/>
<path d="M508.19 250.84L510.99 248.65 513.63 252.48 511.27 254.32 508.19 250.84Z"
fill-rule="nonzero" fill="black"/>
<path d="M510.99 248.65L514.03 246.81 516.19 250.93 513.63 252.48 510.99 248.65Z"
fill-rule="nonzero" fill="black"/>
<path d="M514.03 246.81L517.27 245.35 518.92 249.7 516.19 250.93 514.03 246.81Z"
fill-rule="nonzero" fill="black"/>
<path d="M517.27 245.35L520.67 244.29 521.78 248.81 518.92 249.7 517.27 245.35Z"
fill-rule="nonzero" fill="black"/>
<path d="M520.67 244.29L524.16 243.65 524.72 248.27 521.78 248.81 520.67 244.29Z"
fill-rule="nonzero" fill="black"/>
<path d="M524.16 243.65L527.71 243.44 527.71 248.09 524.72 248.27 524.16 243.65Z"
fill-rule="nonzero" fill="black"/>
<path d="M527.71 248.09L527.71 243.44 600.03 243.44 600.03 248.09 527.71 248.09Z"
fill-rule="evenodd" fill="black"/>
<path d="M600.03 469.43L600.03 474.07 527.71 474.07 527.71 469.43 600.03 469.43Z"
fill-rule="evenodd" fill="black"/>
<path d="M527.71 474.07L524.16 473.86 524.72 469.24 527.71 469.43 527.71 474.07Z"
fill-rule="nonzero" fill="black"/>
<path d="M524.16 473.86L520.67 473.22 521.78 468.7 524.72 469.24 524.16 473.86Z"
fill-rule="nonzero" fill="black"/>
<path d="M520.67 473.22L517.27 472.16 518.92 467.81 521.78 468.7 520.67 473.22Z"
fill-rule="nonzero" fill="black"/>
<path d="M517.27 472.16L514.03 470.7 516.19 466.59 518.92 467.81 517.27 472.16Z"
fill-rule="nonzero" fill="black"/>
<path d="M514.03 470.7L510.99 468.86 513.63 465.04 516.19 466.59 514.03 470.7Z"
fill-rule="nonzero" fill="black"/>
<path d="M510.99 468.86L508.19 466.67 511.27 463.19 513.63 465.04 510.99 468.86Z"
fill-rule="nonzero" fill="black"/>
<path d="M508.19 466.67L505.67 464.16 509.15 461.07 511.27 463.19 508.19 466.67Z"
fill-rule="nonzero" fill="black"/>
<path d="M505.67 464.16L503.48 461.36 507.31 458.72 509.15 461.07 505.67 464.16Z"
fill-rule="nonzero" fill="black"/>
<path d="M503.48 461.36L501.64 458.31 505.76 456.15 507.31 458.72 503.48 461.36Z"
fill-rule="nonzero" fill="black"/>
<path d="M501.64 458.31L500.18 455.07 504.53 453.42 505.76 456.15 501.64 458.31Z"
fill-rule="nonzero" fill="black"/>
<path d="M500.18 455.07L499.13 451.68 503.64 450.56 504.53 453.42 500.18 455.07Z"
fill-rule="nonzero" fill="black"/>
<path d="M499.13 451.68L498.48 448.18 503.1 447.62 503.64 450.56 499.13 451.68Z"
fill-rule="nonzero" fill="black"/>
<path d="M498.48 448.18L498.27 444.63 502.92 444.63 503.1 447.62 498.48 448.18Z"
fill-rule="nonzero" fill="black"/>
<path d="M498.27 444.63L498.48 441.08 503.1 441.64 502.92 444.63 498.27 444.63Z"
fill-rule="nonzero" fill="black"/>
<path d="M498.48 441.08L499.13 437.59 503.64 438.7 503.1 441.64 498.48 441.08Z"
fill-rule="nonzero" fill="black"/>
<path d="M499.13 437.59L500.18 434.19 504.53 435.84 503.64 438.7 499.13 437.59Z"
fill-rule="nonzero" fill="black"/>
<path d="M500.18 434.19L501.64 430.95 505.76 433.11 504.53 435.84 500.18 434.19Z"
fill-rule="nonzero" fill="black"/>
<path d="M501.64 430.95L503.48 427.91 507.31 430.55 505.76 433.11 501.64 430.95Z"
fill-rule="nonzero" fill="black"/>
<path d="M503.48 427.91L505.67 425.11 509.15 428.19 507.31 430.55 503.48 427.91Z"
fill-rule="nonzero" fill="black"/>
<path d="M505.67 425.11L508.19 422.59 511.27 426.07 509.15 428.19 505.67 425.11Z"
fill-rule="nonzero" fill="black"/>
<path d="M508.19 422.59L510.99 420.4 513.63 424.23 511.27 426.07 508.19 422.59Z"
fill-rule="nonzero" fill="black"/>
<path d="M510.99 420.4L514.03 418.56 516.19 422.68 513.63 424.23 510.99 420.4Z"
fill-rule="nonzero" fill="black"/>
<path d="M514.03 418.56L517.27 417.1 518.92 421.45 516.19 422.68 514.03 418.56Z"
fill-rule="nonzero" fill="black"/>
<path d="M517.27 417.1L520.67 416.04 521.78 420.56 518.92 421.45 517.27 417.1Z"
fill-rule="nonzero" fill="black"/>
<path d="M520.67 416.04L524.16 415.4 524.72 420.02 521.78 420.56 520.67 416.04Z"
fill-rule="nonzero" fill="black"/>
<path d="M524.16 415.4L527.71 415.19 527.71 419.84 524.72 420.02 524.16 415.4Z"
fill-rule="nonzero" fill="black"/>
<path d="M527.71 419.84L524.16 419.62 524.72 415.01 527.71 415.19 527.71 419.84Z"
fill-rule="nonzero" fill="black"/>
<path d="M524.16 419.62L520.67 418.98 521.78 414.47 524.72 415.01 524.16 419.62Z"
fill-rule="nonzero" fill="black"/>
<path d="M520.67 418.98L517.27 417.92 518.92 413.58 521.78 414.47 520.67 418.98Z"
fill-rule="nonzero" fill="black"/>
<path d="M517.27 417.92L514.03 416.46 516.19 412.35 518.92 413.58 517.27 417.92Z"
fill-rule="nonzero" fill="black"/>
<path d="M514.03 416.46L510.99 414.63 513.63 410.8 516.19 412.35 514.03 416.46Z"
fill-rule="nonzero" fill="black"/>
<path d="M510.99 414.63L508.19 412.43 511.27 408.95 513.63 410.8 510.99 414.63Z"
fill-rule="nonzero" fill="black"/>
<path d="M508.19 412.43L505.67 409.92 509.15 406.84 511.27 408.95 508.19 412.43Z"
fill-rule="nonzero" fill="black"/>
<path d="M505.67 409.92L503.48 407.12 507.31 404.48 509.15 406.84 505.67 409.92Z"
fill-rule="nonzero" fill="black"/>
<path d="M503.48 407.12L501.64 404.08 505.76 401.92 507.31 404.48 503.48 407.12Z"
fill-rule="nonzero" fill="black"/>
<path d="M501.64 404.08L500.18 400.84 504.53 399.19 505.76 401.92 501.64 404.08Z"
fill-rule="nonzero" fill="black"/>
<path d="M500.18 400.84L499.13 397.44 503.64 396.33 504.53 399.19 500.18 400.84Z"
fill-rule="nonzero" fill="black"/>
<path d="M499.13 397.44L498.48 393.94 503.1 393.38 503.64 396.33 499.13 397.44Z"
fill-rule="nonzero" fill="black"/>
<path d="M498.48 393.94L498.27 390.39 502.92 390.39 503.1 393.38 498.48 393.94Z"
fill-rule="nonzero" fill="black"/>
<path d="M498.27 390.39L498.48 386.85 503.1 387.41 502.92 390.39 498.27 390.39Z"
fill-rule="nonzero" fill="black"/>
<path d="M498.48 386.85L499.13 383.35 503.64 384.46 503.1 387.41 498.48 386.85Z"
fill-rule="nonzero" fill="black"/>
<path d="M499.13 383.35L500.18 379.95 504.53 381.6 503.64 384.46 499.13 383.35Z"
fill-rule="nonzero" fill="black"/>
<path d="M500.18 379.95L501.64 376.71 505.76 378.87 504.53 381.6 500.18 379.95Z"
fill-rule="nonzero" fill="black"/>
<path d="M501.64 376.71L503.48 373.67 507.31 376.31 505.76 378.87 501.64 376.71Z"
fill-rule="nonzero" fill="black"/>
<path d="M503.48 373.67L505.67 370.87 509.15 373.95 507.31 376.31 503.48 373.67Z"
fill-rule="nonzero" fill="black"/>
<path d="M505.67 370.87L508.19 368.36 511.27 371.84 509.15 373.95 505.67 370.87Z"
fill-rule="nonzero" fill="black"/>
<path d="M508.19 368.36L510.99 366.16 513.63 369.99 511.27 371.84 508.19 368.36Z"
fill-rule="nonzero" fill="black"/>
<path d="M510.99 366.16L514.03 364.32 516.19 368.44 513.63 369.99 510.99 366.16Z"
fill-rule="nonzero" fill="black"/>
<path d="M514.03 364.32L517.27 362.87 518.92 367.21 516.19 368.44 514.03 364.32Z"
fill-rule="nonzero" fill="black"/>
<path d="M517.27 362.87L520.67 361.81 521.78 366.32 518.92 367.21 517.27 362.87Z"
fill-rule="nonzero" fill="black"/>
<path d="M520.67 361.81L524.16 361.17 524.72 365.78 521.78 366.32 520.67 361.81Z"
fill-rule="nonzero" fill="black"/>
<path d="M524.16 361.17L527.71 360.95 527.71 365.6 524.72 365.78 524.16 361.17Z"
fill-rule="nonzero" fill="black"/>
<path d="M527.71 365.6L527.71 360.95 600.03 360.95 600.03 365.6 527.71 365.6Z"
fill-rule="evenodd" fill="black"/>
<path d="M545.79 112.48L548.15 112.23 547.19 107.68 545.79 107.83 545.79 112.48Z"
fill-rule="nonzero" fill="black"/>
<path d="M548.15 112.23L550.41 111.5 548.52 107.25 547.19 107.68 548.15 112.23Z"
fill-rule="nonzero" fill="black"/>
<path d="M550.41 111.5L552.47 110.31 549.73 106.55 548.52 107.25 550.41 111.5Z"
fill-rule="nonzero" fill="black"/>
<path d="M552.47 110.31L554.23 108.72 550.78 105.61 549.73 106.55 552.47 110.31Z"
fill-rule="nonzero" fill="black"/>
<path d="M554.23 108.72L555.63 106.8 551.6 104.48 550.78 105.61 554.23 108.72Z"
fill-rule="nonzero" fill="black"/>
<path d="M555.63 106.8L556.59 104.63 552.17 103.19 551.6 104.48 555.63 106.8Z"
fill-rule="nonzero" fill="black"/>
<path d="M556.59 104.63L557.08 102.31 552.46 101.82 552.17 103.19 556.59 104.63Z"
fill-rule="nonzero" fill="black"/>
<path d="M557.08 102.31L557.08 99.94 552.46 100.42 552.46 101.82 557.08 102.31Z"
fill-rule="nonzero" fill="black"/>
<path d="M557.08 99.94L556.59 97.61 552.17 99.05 552.46 100.42 557.08 99.94Z"
fill-rule="nonzero" fill="black"/>
<path d="M556.59 97.61L555.63 95.45 551.6 97.77 552.17 99.05 556.59 97.61Z"
fill-rule="nonzero" fill="black"/>
<path d="M555.63 95.45L554.23 93.52 550.78 96.64 551.6 97.77 555.63 95.45Z"
fill-rule="nonzero" fill="black"/>
<path d="M554.23 93.52L552.47 91.94 549.73 95.7 550.78 96.64 554.23 93.52Z"
fill-rule="nonzero" fill="black"/>
<path d="M552.47 91.94L550.41 90.75 548.52 95 549.73 95.7 552.47 91.94Z"
fill-rule="nonzero" fill="black"/>
<path d="M550.41 90.75L548.15 90.02 547.19 94.56 548.52 95 550.41 90.75Z"
fill-rule="nonzero" fill="black"/>
<path d="M548.15 90.02L545.79 89.77 545.79 94.42 547.19 94.56 548.15 90.02Z"
fill-rule="nonzero" fill="black"/>
<path d="M545.79 89.77L543.43 90.02 544.4 94.56 545.79 94.42 545.79 89.77Z"
fill-rule="nonzero" fill="black"/>
<path d="M543.43 90.02L541.17 90.75 543.06 95 544.4 94.56 543.43 90.02Z"
fill-rule="nonzero" fill="black"/>
<path d="M541.17 90.75L539.11 91.94 541.85 95.7 543.06 95 541.17 90.75Z"
fill-rule="nonzero" fill="black"/>
<path d="M539.11 91.94L537.35 93.53 540.8 96.64 541.85 95.7 539.11 91.94Z"
fill-rule="nonzero" fill="black"/>
<path d="M537.35 93.53L535.95 95.45 539.98 97.77 540.8 96.64 537.35 93.53Z"
fill-rule="nonzero" fill="black"/>
<path d="M535.95 95.45L534.98 97.62 539.41 99.06 539.98 97.77 535.95 95.45Z"
fill-rule="nonzero" fill="black"/>
<path d="M534.98 97.62L534.49 99.94 539.11 100.43 539.41 99.06 534.98 97.62Z"
fill-rule="nonzero" fill="black"/>
<path d="M534.49 99.94L534.49 102.32 539.11 101.83 539.11 100.43 534.49 99.94Z"
fill-rule="nonzero" fill="black"/>
<path d="M534.49 102.32L534.98 104.64 539.41 103.21 539.11 101.83 534.49 102.32Z"
fill-rule="nonzero" fill="black"/>
<path d="M534.98 104.64L535.95 106.81 539.98 104.49 539.41 103.21 534.98 104.64Z"
fill-rule="nonzero" fill="black"/>
<path d="M535.95 106.81L537.35 108.74 540.8 105.63 539.98 104.49 535.95 106.81Z"
fill-rule="nonzero" fill="black"/>
<path d="M537.35 108.74L539.11 110.33 541.85 106.56 540.8 105.63 537.35 108.74Z"
fill-rule="nonzero" fill="black"/>
<path d="M539.11 110.33L541.17 111.51 543.06 107.27 541.85 106.56 539.11 110.33Z"
fill-rule="nonzero" fill="black"/>
<path d="M541.17 111.51L543.43 112.25 544.4 107.7 543.06 107.27 541.17 111.51Z"
fill-rule="nonzero" fill="black"/>
<path d="M543.43 112.25L545.79 112.5 545.79 107.85 544.4 107.7 543.43 112.25Z"
fill-rule="nonzero" fill="black"/>
<path d="M545.79 487.52L548.15 487.77 547.19 492.32 545.79 492.17 545.79 487.52Z"
fill-rule="nonzero" fill="black"/>
<path d="M548.15 487.77L550.41 488.5 548.52 492.75 547.19 492.32 548.15 487.77Z"
fill-rule="nonzero" fill="black"/>
<path d="M550.41 488.5L552.47 489.69 549.73 493.45 548.52 492.75 550.41 488.5Z"
fill-rule="nonzero" fill="black"/>
<path d="M552.47 489.69L554.23 491.28 550.78 494.39 549.73 493.45 552.47 489.69Z"
fill-rule="nonzero" fill="black"/>
<path d="M554.23 491.28L555.63 493.2 551.6 495.52 550.78 494.39 554.23 491.28Z"
fill-rule="nonzero" fill="black"/>
<path d="M555.63 493.2L556.59 495.37 552.17 496.81 551.6 495.52 555.63 493.2Z"
fill-rule="nonzero" fill="black"/>
<path d="M556.59 495.37L557.08 497.69 552.46 498.18 552.17 496.81 556.59 495.37Z"
fill-rule="nonzero" fill="black"/>
<path d="M557.08 497.69L557.08 500.06 552.46 499.58 552.46 498.18 557.08 497.69Z"
fill-rule="nonzero" fill="black"/>
<path d="M557.08 500.06L556.59 502.39 552.17 500.95 552.46 499.58 557.08 500.06Z"
fill-rule="nonzero" fill="black"/>
<path d="M556.59 502.39L555.63 504.55 551.6 502.23 552.17 500.95 556.59 502.39Z"
fill-rule="nonzero" fill="black"/>
<path d="M555.63 504.55L554.23 506.48 550.78 503.36 551.6 502.23 555.63 504.55Z"
fill-rule="nonzero" fill="black"/>
<path d="M554.23 506.48L552.47 508.06 549.73 504.3 550.78 503.36 554.23 506.48Z"
fill-rule="nonzero" fill="black"/>
<path d="M552.47 508.06L550.41 509.25 548.52 505 549.73 504.3 552.47 508.06Z"
fill-rule="nonzero" fill="black"/>
<path d="M550.41 509.25L548.15 509.98 547.19 505.44 548.52 505 550.41 509.25Z"
fill-rule="nonzero" fill="black"/>
<path d="M548.15 509.98L545.79 510.23 545.79 505.58 547.19 505.44 548.15 509.98Z"
fill-rule="nonzero" fill="black"/>
<path d="M545.79 510.23L543.43 509.98 544.4 505.44 545.79 505.58 545.79 510.23Z"
fill-rule="nonzero" fill="black"/>
<path d="M543.43 509.98L541.17 509.25 543.06 505 544.4 505.44 543.43 509.98Z"
fill-rule="nonzero" fill="black"/>
<path d="M541.17 509.25L539.11 508.06 541.85 504.3 543.06 505 541.17 509.25Z"
fill-rule="nonzero" fill="black"/>
<path d="M539.11 508.06L537.35 506.47 540.8 503.36 541.85 504.3 539.11 508.06Z"
fill-rule="nonzero" fill="black"/>
<path d="M537.35 506.47L535.95 504.55 539.98 502.23 540.8 503.36 537.35 506.47Z"
fill-rule="nonzero" fill="black"/>
<path d="M535.95 504.55L534.98 502.38 539.41 500.94 539.98 502.23 535.95 504.55Z"
fill-rule="nonzero" fill="black"/>
<path d="M534.98 502.38L534.49 500.06 539.11 499.57 539.41 500.94 534.98 502.38Z"
fill-rule="nonzero" fill="black"/>
<path d="M534.49 500.06L534.49 497.68 539.11 498.17 539.11 499.57 534.49 500.06Z"
fill-rule="nonzero" fill="black"/>
<path d="M534.49 497.68L534.98 495.36 539.41 496.79 539.11 498.17 534.49 497.68Z"
fill-rule="nonzero" fill="black"/>
<path d="M534.98 495.36L535.95 493.19 539.98 495.51 539.41 496.79 534.98 495.36Z"
fill-rule="nonzero" fill="black"/>
<path d="M535.95 493.19L537.35 491.26 540.8 494.37 539.98 495.51 535.95 493.19Z"
fill-rule="nonzero" fill="black"/>
<path d="M537.35 491.26L539.11 489.67 541.85 493.44 540.8 494.37 537.35 491.26Z"
fill-rule="nonzero" fill="black"/>
<path d="M539.11 489.67L541.17 488.49 543.06 492.73 541.85 493.44 539.11 489.67Z"
fill-rule="nonzero" fill="black"/>
<path d="M541.17 488.49L543.43 487.75 544.4 492.3 543.06 492.73 541.17 488.49Z"
fill-rule="nonzero" fill="black"/>
<path d="M543.43 487.75L545.79 487.5 545.79 492.15 544.4 492.3 543.43 487.75Z"
fill-rule="nonzero" fill="black"/>
</svg>
