<?xml version="1.0" encoding="UTF-8"?>
<svg xmlns="http://www.w3.org/2000/svg" width="800.000" height="600.000" viewBox="0.0 0.0 800.000 600.000" version="1.1">
  <title>Produce by Acme CAD Converter</title>
  <desc>Produce by Acme CAD Converter</desc>
<path d="M249.82 598.3L245.17 598.3 245.17 1.7 249.82 1.7 249.82 598.3Z"
fill-rule="evenodd" fill="black"/>
<path d="M301.73 293.16L301.73 297.8 229.41 297.8 229.41 293.16 301.73 293.16Z"
fill-rule="evenodd" fill="black"/>
<path d="M229.41 297.8L225.87 297.59 226.43 292.98 229.41 293.16 229.41 297.8Z"
fill-rule="nonzero" fill="black"/>
<path d="M225.87 297.59L222.37 296.95 223.48 292.44 226.43 292.98 225.87 297.59Z"
fill-rule="nonzero" fill="black"/>
<path d="M222.37 296.95L218.97 295.89 220.62 291.54 223.48 292.44 222.37 296.95Z"
fill-rule="nonzero" fill="black"/>
<path d="M218.97 295.89L215.73 294.43 217.89 290.32 220.62 291.54 218.97 295.89Z"
fill-rule="nonzero" fill="black"/>
<path d="M215.73 294.43L212.69 292.59 215.33 288.77 217.89 290.32 215.73 294.43Z"
fill-rule="nonzero" fill="black"/>
<path d="M212.69 292.59L209.89 290.4 212.97 286.92 215.33 288.77 212.69 292.59Z"
fill-rule="nonzero" fill="black"/>
<path d="M209.89 290.4L207.38 287.89 210.86 284.8 212.97 286.92 209.89 290.4Z"
fill-rule="nonzero" fill="black"/>
<path d="M207.38 287.89L205.18 285.09 209.01 282.45 210.86 284.8 207.38 287.89Z"
fill-rule="nonzero" fill="black"/>
<path d="M205.18 285.09L203.34 282.04 207.46 279.88 209.01 282.45 205.18 285.09Z"
fill-rule="nonzero" fill="black"/>
<path d="M203.34 282.04L201.88 278.8 206.23 277.15 207.46 279.88 203.34 282.04Z"
fill-rule="nonzero" fill="black"/>
<path d="M201.88 278.8L200.83 275.41 205.34 274.3 206.23 277.15 201.88 278.8Z"
fill-rule="nonzero" fill="black"/>
<path d="M200.83 275.41L200.19 271.91 204.8 271.35 205.34 274.3 200.83 275.41Z"
fill-rule="nonzero" fill="black"/>
<path d="M200.19 271.91L199.97 268.36 204.62 268.36 204.8 271.35 200.19 271.91Z"
fill-rule="nonzero" fill="black"/>
<path d="M199.97 268.36L200.19 264.81 204.8 265.37 204.62 268.36 199.97 268.36Z"
fill-rule="nonzero" fill="black"/>
<path d="M200.19 264.81L200.83 261.32 205.34 262.43 204.8 265.37 200.19 264.81Z"
fill-rule="nonzero" fill="black"/>
<path d="M200.83 261.32L201.88 257.92 206.23 259.57 205.34 262.43 200.83 261.32Z"
fill-rule="nonzero" fill="black"/>
<path d="M201.88 257.92L203.34 254.68 207.46 256.84 206.23 259.57 201.88 257.92Z"
fill-rule="nonzero" fill="black"/>
<path d="M203.34 254.68L205.18 251.64 209.01 254.28 207.46 256.84 203.34 254.68Z"
fill-rule="nonzero" fill="black"/>
<path d="M205.18 251.64L207.38 248.84 210.86 251.92 209.01 254.28 205.18 251.64Z"
fill-rule="nonzero" fill="black"/>
<path d="M207.38 248.84L209.89 246.32 212.97 249.8 210.86 251.92 207.38 248.84Z"
fill-rule="nonzero" fill="black"/>
<path d="M209.89 246.32L212.69 244.13 215.33 247.96 212.97 249.8 209.89 246.32Z"
fill-rule="nonzero" fill="black"/>
<path d="M212.69 244.13L215.73 242.29 217.89 246.41 215.33 247.96 212.69 244.13Z"
fill-rule="nonzero" fill="black"/>
<path d="M215.73 242.29L218.97 240.83 220.62 245.18 217.89 246.41 215.73 242.29Z"
fill-rule="nonzero" fill="black"/>
<path d="M218.97 240.83L222.37 239.77 223.48 244.29 220.62 245.18 218.97 240.83Z"
fill-rule="nonzero" fill="black"/>
<path d="M222.37 239.77L225.87 239.13 226.43 243.75 223.48 244.29 222.37 239.77Z"
fill-rule="nonzero" fill="black"/>
<path d="M225.87 239.13L229.41 238.92 229.41 243.57 226.43 243.75 225.87 239.13Z"
fill-rule="nonzero" fill="black"/>
<path d="M229.41 243.57L225.87 243.35 226.43 238.74 229.41 238.92 229.41 243.57Z"
fill-rule="nonzero" fill="black"/>
<path d="M225.87 243.35L222.37 242.71 223.48 238.2 226.43 238.74 225.87 243.35Z"
fill-rule="nonzero" fill="black"/>
<path d="M222.37 242.71L218.97 241.65 220.62 237.31 223.48 238.2 222.37 242.71Z"
fill-rule="nonzero" fill="black"/>
<path d="M218.97 241.65L215.73 240.2 217.89 236.08 220.62 237.31 218.97 241.65Z"
fill-rule="nonzero" fill="black"/>
<path d="M215.73 240.2L212.69 238.36 215.33 234.53 217.89 236.08 215.73 240.2Z"
fill-rule="nonzero" fill="black"/>
<path d="M212.69 238.36L209.89 236.16 212.97 232.68 215.33 234.53 212.69 238.36Z"
fill-rule="nonzero" fill="black"/>
<path d="M209.89 236.16L207.38 233.65 210.86 230.57 212.97 232.68 209.89 236.16Z"
fill-rule="nonzero" fill="black"/>
<path d="M207.38 233.65L205.18 230.85 209.01 228.21 210.86 230.57 207.38 233.65Z"
fill-rule="nonzero" fill="black"/>
<path d="M205.18 230.85L203.34 227.81 207.46 225.65 209.01 228.21 205.18 230.85Z"
fill-rule="nonzero" fill="black"/>
<path d="M203.34 227.81L201.88 224.57 206.23 222.92 207.46 225.65 203.34 227.81Z"
fill-rule="nonzero" fill="black"/>
<path d="M201.88 224.57L200.83 221.17 205.34 220.06 206.23 222.92 201.88 224.57Z"
fill-rule="nonzero" fill="black"/>
<path d="M200.83 221.17L200.19 217.67 204.8 217.11 205.34 220.06 200.83 221.17Z"
fill-rule="nonzero" fill="black"/>
<path d="M200.19 217.67L199.97 214.13 204.62 214.13 204.8 217.11 200.19 217.67Z"
fill-rule="nonzero" fill="black"/>
<path d="M199.97 214.13L200.19 210.58 204.8 211.14 204.62 214.13 199.97 214.13Z"
fill-rule="nonzero" fill="black"/>
<path d="M200.19 210.58L200.83 207.08 205.34 208.19 204.8 211.14 200.19 210.58Z"
fill-rule="nonzero" fill="black"/>
<path d="M200.83 207.08L201.88 203.68 206.23 205.33 205.34 208.19 200.83 207.08Z"
fill-rule="nonzero" fill="black"/>
<path d="M201.88 203.68L203.34 200.44 207.46 202.6 206.23 205.33 201.88 203.68Z"
fill-rule="nonzero" fill="black"/>
<path d="M203.34 200.44L205.18 197.4 209.01 200.04 207.46 202.6 203.34 200.44Z"
fill-rule="nonzero" fill="black"/>
<path d="M205.18 197.4L207.38 194.6 210.86 197.68 209.01 200.04 205.18 197.4Z"
fill-rule="nonzero" fill="black"/>
<path d="M207.38 194.6L209.89 192.09 212.97 195.57 210.86 197.68 207.38 194.6Z"
fill-rule="nonzero" fill="black"/>
<path d="M209.89 192.09L212.69 189.89 215.33 193.72 212.97 195.57 209.89 192.09Z"
fill-rule="nonzero" fill="black"/>
<path d="M212.69 189.89L215.73 188.05 217.89 192.17 215.33 193.72 212.69 189.89Z"
fill-rule="nonzero" fill="black"/>
<path d="M215.73 188.05L218.97 186.6 220.62 190.94 217.89 192.17 215.73 188.05Z"
fill-rule="nonzero" fill="black"/>
<path d="M218.97 186.6L222.37 185.54 223.48 190.05 220.62 190.94 218.97 186.6Z"
fill-rule="nonzero" fill="black"/>
<path d="M222.37 185.54L225.87 184.9 226.43 189.51 223.48 190.05 222.37 185.54Z"
fill-rule="nonzero" fill="black"/>
<path d="M225.87 184.9L229.41 184.68 229.41 189.33 226.43 189.51 225.87 184.9Z"
fill-rule="nonzero" fill="black"/>
<path d="M229.41 189.33L229.41 184.68 301.73 184.68 301.73 189.33 229.41 189.33Z"
fill-rule="evenodd" fill="black"/>
<path d="M301.73 410.67L301.73 415.32 229.41 415.32 229.41 410.67 301.73 410.67Z"
fill-rule="evenodd" fill="black"/>
<path d="M229.41 415.32L225.87 415.1 226.43 410.49 229.41 410.67 229.41 415.32Z"
fill-rule="nonzero" fill="black"/>
<path d="M225.87 415.1L222.37 414.46 223.48 409.95 226.43 410.49 225.87 415.1Z"
fill-rule="nonzero" fill="black"/>
<path d="M222.37 414.46L218.97 413.4 220.62 409.06 223.48 409.95 222.37 414.46Z"
fill-rule="nonzero" fill="black"/>
<path d="M218.97 413.4L215.73 411.95 217.89 407.83 220.62 409.06 218.97 413.4Z"
fill-rule="nonzero" fill="black"/>
<path d="M215.73 411.95L212.69 410.11 215.33 406.28 217.89 407.83 215.73 411.95Z"
fill-rule="nonzero" fill="black"/>
<path d="M212.69 410.11L209.89 407.91 212.97 404.43 215.33 406.28 212.69 410.11Z"
fill-rule="nonzero" fill="black"/>
<path d="M209.89 407.91L207.38 405.4 210.86 402.32 212.97 404.43 209.89 407.91Z"
fill-rule="nonzero" fill="black"/>
<path d="M207.38 405.4L205.18 402.6 209.01 399.96 210.86 402.32 207.38 405.4Z"
fill-rule="nonzero" fill="black"/>
<path d="M205.18 402.6L203.34 399.56 207.46 397.4 209.01 399.96 205.18 402.6Z"
fill-rule="nonzero" fill="black"/>
<path d="M203.34 399.56L201.88 396.32 206.23 394.67 207.46 397.4 203.34 399.56Z"
fill-rule="nonzero" fill="black"/>
<path d="M201.88 396.32L200.83 392.92 205.34 391.81 206.23 394.67 201.88 396.32Z"
fill-rule="nonzero" fill="black"/>
<path d="M200.83 392.92L200.19 389.42 204.8 388.86 205.34 391.81 200.83 392.92Z"
fill-rule="nonzero" fill="black"/>
<path d="M200.19 389.42L199.97 385.87 204.62 385.87 204.8 388.86 200.19 389.42Z"
fill-rule="nonzero" fill="black"/>
<path d="M199.97 385.87L200.19 382.33 204.8 382.89 204.62 385.87 199.97 385.87Z"
fill-rule="nonzero" fill="black"/>
<path d="M200.19 382.33L200.83 378.83 205.34 379.94 204.8 382.89 200.19 382.33Z"
fill-rule="nonzero" fill="black"/>
<path d="M200.83 378.83L201.88 375.43 206.23 377.08 205.34 379.94 200.83 378.83Z"
fill-rule="nonzero" fill="black"/>
<path d="M201.88 375.43L203.34 372.19 207.46 374.35 206.23 377.08 201.88 375.43Z"
fill-rule="nonzero" fill="black"/>
<path d="M203.34 372.19L205.18 369.15 209.01 371.79 207.46 374.35 203.34 372.19Z"
fill-rule="nonzero" fill="black"/>
<path d="M205.18 369.15L207.38 366.35 210.86 369.43 209.01 371.79 205.18 369.15Z"
fill-rule="nonzero" fill="black"/>
<path d="M207.38 366.35L209.89 363.84 212.97 367.32 210.86 369.43 207.38 366.35Z"
fill-rule="nonzero" fill="black"/>
<path d="M209.89 363.84L212.69 361.64 215.33 365.47 212.97 367.32 209.89 363.84Z"
fill-rule="nonzero" fill="black"/>
<path d="M212.69 361.64L215.73 359.8 217.89 363.92 215.33 365.47 212.69 361.64Z"
fill-rule="nonzero" fill="black"/>
<path d="M215.73 359.8L218.97 358.35 220.62 362.69 217.89 363.92 215.73 359.8Z"
fill-rule="nonzero" fill="black"/>
<path d="M218.97 358.35L222.37 357.29 223.48 361.8 220.62 362.69 218.97 358.35Z"
fill-rule="nonzero" fill="black"/>
<path d="M222.37 357.29L225.87 356.65 226.43 361.26 223.48 361.8 222.37 357.29Z"
fill-rule="nonzero" fill="black"/>
<path d="M225.87 356.65L229.41 356.43 229.41 361.08 226.43 361.26 225.87 356.65Z"
fill-rule="nonzero" fill="black"/>
<path d="M229.41 361.08L225.87 360.87 226.43 356.25 229.41 356.43 229.41 361.08Z"
fill-rule="nonzero" fill="black"/>
<path d="M225.87 360.87L222.37 360.23 223.48 355.71 226.43 356.25 225.87 360.87Z"
fill-rule="nonzero" fill="black"/>
<path d="M222.37 360.23L218.97 359.17 220.62 354.82 223.48 355.71 222.37 360.23Z"
fill-rule="nonzero" fill="black"/>
<path d="M218.97 359.17L215.73 357.71 217.89 353.59 220.62 354.82 218.97 359.17Z"
fill-rule="nonzero" fill="black"/>
<path d="M215.73 357.71L212.69 355.87 215.33 352.04 217.89 353.59 215.73 357.71Z"
fill-rule="nonzero" fill="black"/>
<path d="M212.69 355.87L209.89 353.68 212.97 350.2 215.33 352.04 212.69 355.87Z"
fill-rule="nonzero" fill="black"/>
<path d="M209.89 353.68L207.38 351.16 210.86 348.08 212.97 350.2 209.89 353.68Z"
fill-rule="nonzero" fill="black"/>
<path d="M207.38 351.16L205.18 348.36 209.01 345.72 210.86 348.08 207.38 351.16Z"
fill-rule="nonzero" fill="black"/>
<path d="M205.18 348.36L203.34 345.32 207.46 343.16 209.01 345.72 205.18 348.36Z"
fill-rule="nonzero" fill="black"/>
<path d="M203.34 345.32L201.88 342.08 206.23 340.43 207.46 343.16 203.34 345.32Z"
fill-rule="nonzero" fill="black"/>
<path d="M201.88 342.08L200.83 338.68 205.34 337.57 206.23 340.43 201.88 342.08Z"
fill-rule="nonzero" fill="black"/>
<path d="M200.83 338.68L200.19 335.19 204.8 334.63 205.34 337.57 200.83 338.68Z"
fill-rule="nonzero" fill="black"/>
<path d="M200.19 335.19L199.97 331.64 204.62 331.64 204.8 334.63 200.19 335.19Z"
fill-rule="nonzero" fill="black"/>
<path d="M199.97 331.64L200.19 328.09 204.8 328.65 204.62 331.64 199.97 331.64Z"
fill-rule="nonzero" fill="black"/>
<path d="M200.19 328.09L200.83 324.59 205.34 325.7 204.8 328.65 200.19 328.09Z"
fill-rule="nonzero" fill="black"/>
<path d="M200.83 324.59L201.88 321.2 206.23 322.85 205.34 325.7 200.83 324.59Z"
fill-rule="nonzero" fill="black"/>
<path d="M201.88 321.2L203.34 317.96 207.46 320.12 206.23 322.85 201.88 321.2Z"
fill-rule="nonzero" fill="black"/>
<path d="M203.34 317.96L205.18 314.91 209.01 317.55 207.46 320.12 203.34 317.96Z"
fill-rule="nonzero" fill="black"/>
<path d="M205.18 314.91L207.38 312.11 210.86 315.2 209.01 317.55 205.18 314.91Z"
fill-rule="nonzero" fill="black"/>
<path d="M207.38 312.11L209.89 309.6 212.97 313.08 210.86 315.2 207.38 312.11Z"
fill-rule="nonzero" fill="black"/>
<path d="M209.89 309.6L212.69 307.41 215.33 311.23 212.97 313.08 209.89 309.6Z"
fill-rule="nonzero" fill="black"/>
<path d="M212.69 307.41L215.73 305.57 217.89 309.68 215.33 311.23 212.69 307.41Z"
fill-rule="nonzero" fill="black"/>
<path d="M215.73 305.57L218.97 304.11 220.62 308.46 217.89 309.68 215.73 305.57Z"
fill-rule="nonzero" fill="black"/>
<path d="M218.97 304.11L222.37 303.05 223.48 307.56 220.62 308.46 218.97 304.11Z"
fill-rule="nonzero" fill="black"/>
<path d="M222.37 303.05L225.87 302.41 226.43 307.02 223.48 307.56 222.37 303.05Z"
fill-rule="nonzero" fill="black"/>
<path d="M225.87 302.41L229.41 302.2 229.41 306.84 226.43 307.02 225.87 302.41Z"
fill-rule="nonzero" fill="black"/>
<path d="M229.41 306.84L229.41 302.2 301.73 302.2 301.73 306.84 229.41 306.84Z"
fill-rule="evenodd" fill="black"/>
<path d="M247.49 171.23L249.85 170.99 248.89 166.44 247.49 166.58 247.49 171.23Z"
fill-rule="nonzero" fill="black"/>
<path d="M249.85 170.99L252.11 170.25 250.22 166 248.89 166.44 249.85 170.99Z"
fill-rule="nonzero" fill="black"/>
<path d="M252.11 170.25L254.17 169.07 251.43 165.3 250.22 166 252.11 170.25Z"
fill-rule="nonzero" fill="black"/>
<path d="M254.17 169.07L255.93 167.48 252.48 164.37 251.43 165.3 254.17 169.07Z"
fill-rule="nonzero" fill="black"/>
<path d="M255.93 167.48L257.33 165.56 253.3 163.23 252.48 164.37 255.93 167.48Z"
fill-rule="nonzero" fill="black"/>
<path d="M257.33 165.56L258.29 163.39 253.87 161.95 253.3 163.23 257.33 165.56Z"
fill-rule="nonzero" fill="black"/>
<path d="M258.29 163.39L258.79 161.07 254.16 160.58 253.87 161.95 258.29 163.39Z"
fill-rule="nonzero" fill="black"/>
<path d="M258.79 161.07L258.79 158.69 254.16 159.18 254.16 160.58 258.79 161.07Z"
fill-rule="nonzero" fill="black"/>
<path d="M258.79 158.69L258.29 156.37 253.87 157.81 254.16 159.18 258.79 158.69Z"
fill-rule="nonzero" fill="black"/>
<path d="M258.29 156.37L257.33 154.2 253.3 156.53 253.87 157.81 258.29 156.37Z"
fill-rule="nonzero" fill="black"/>
<path d="M257.33 154.2L255.93 152.28 252.48 155.39 253.3 156.53 257.33 154.2Z"
fill-rule="nonzero" fill="black"/>
<path d="M255.93 152.28L254.17 150.69 251.43 154.45 252.48 155.39 255.93 152.28Z"
fill-rule="nonzero" fill="black"/>
<path d="M254.17 150.69L252.11 149.51 250.22 153.75 251.43 154.45 254.17 150.69Z"
fill-rule="nonzero" fill="black"/>
<path d="M252.11 149.51L249.85 148.77 248.89 153.32 250.22 153.75 252.11 149.51Z"
fill-rule="nonzero" fill="black"/>
<path d="M249.85 148.77L247.49 148.52 247.49 153.17 248.89 153.32 249.85 148.77Z"
fill-rule="nonzero" fill="black"/>
<path d="M247.49 148.52L245.13 148.77 246.1 153.32 247.49 153.17 247.49 148.52Z"
fill-rule="nonzero" fill="black"/>
<path d="M245.13 148.77L242.87 149.51 244.76 153.75 246.1 153.32 245.13 148.77Z"
fill-rule="nonzero" fill="black"/>
<path d="M242.87 149.51L240.81 150.69 243.55 154.46 244.76 153.75 242.87 149.51Z"
fill-rule="nonzero" fill="black"/>
<path d="M240.81 150.69L239.05 152.28 242.5 155.4 243.55 154.46 240.81 150.69Z"
fill-rule="nonzero" fill="black"/>
<path d="M239.05 152.28L237.65 154.21 241.68 156.53 242.5 155.4 239.05 152.28Z"
fill-rule="nonzero" fill="black"/>
<path d="M237.65 154.21L236.69 156.38 241.11 157.81 241.68 156.53 237.65 154.21Z"
fill-rule="nonzero" fill="black"/>
<path d="M236.69 156.38L236.19 158.7 240.81 159.19 241.11 157.81 236.69 156.38Z"
fill-rule="nonzero" fill="black"/>
<path d="M236.19 158.7L236.19 161.08 240.81 160.59 240.81 159.19 236.19 158.7Z"
fill-rule="nonzero" fill="black"/>
<path d="M236.19 161.08L236.69 163.4 241.11 161.96 240.81 160.59 236.19 161.08Z"
fill-rule="nonzero" fill="black"/>
<path d="M236.69 163.4L237.65 165.57 241.68 163.25 241.11 161.96 236.69 163.4Z"
fill-rule="nonzero" fill="black"/>
<path d="M237.65 165.57L239.05 167.49 242.5 164.38 241.68 163.25 237.65 165.57Z"
fill-rule="nonzero" fill="black"/>
<path d="M239.05 167.49L240.81 169.08 243.55 165.32 242.5 164.38 239.05 167.49Z"
fill-rule="nonzero" fill="black"/>
<path d="M240.81 169.08L242.87 170.27 244.76 166.02 243.55 165.32 240.81 169.08Z"
fill-rule="nonzero" fill="black"/>
<path d="M242.87 170.27L245.13 171 246.1 166.46 244.76 166.02 242.87 170.27Z"
fill-rule="nonzero" fill="black"/>
<path d="M245.13 171L247.49 171.25 247.49 166.6 246.1 166.46 245.13 171Z"
fill-rule="nonzero" fill="black"/>
<path d="M247.49 451.46L249.85 451.21 248.89 446.66 247.49 446.81 247.49 451.46Z"
fill-rule="nonzero" fill="black"/>
<path d="M249.85 451.21L252.11 450.48 250.22 446.23 248.89 446.66 249.85 451.21Z"
fill-rule="nonzero" fill="black"/>
<path d="M252.11 450.48L254.17 449.29 251.43 445.53 250.22 446.23 252.11 450.48Z"
fill-rule="nonzero" fill="black"/>
<path d="M254.17 449.29L255.93 447.7 252.48 444.59 251.43 445.53 254.17 449.29Z"
fill-rule="nonzero" fill="black"/>
<path d="M255.93 447.7L257.33 445.78 253.3 443.46 252.48 444.59 255.93 447.7Z"
fill-rule="nonzero" fill="black"/>
<path d="M257.33 445.78L258.29 443.61 253.87 442.17 253.3 443.46 257.33 445.78Z"
fill-rule="nonzero" fill="black"/>
<path d="M258.29 443.61L258.79 441.29 254.16 440.8 253.87 442.17 258.29 443.61Z"
fill-rule="nonzero" fill="black"/>
<path d="M258.79 441.29L258.79 438.92 254.16 439.4 254.16 440.8 258.79 441.29Z"
fill-rule="nonzero" fill="black"/>
<path d="M258.79 438.92L258.29 436.59 253.87 438.03 254.16 439.4 258.79 438.92Z"
fill-rule="nonzero" fill="black"/>
<path d="M258.29 436.59L257.33 434.43 253.3 436.75 253.87 438.03 258.29 436.59Z"
fill-rule="nonzero" fill="black"/>
<path d="M257.33 434.43L255.93 432.5 252.48 435.62 253.3 436.75 257.33 434.43Z"
fill-rule="nonzero" fill="black"/>
<path d="M255.93 432.5L254.17 430.92 251.43 434.68 252.48 435.62 255.93 432.5Z"
fill-rule="nonzero" fill="black"/>
<path d="M254.17 430.92L252.11 429.73 250.22 433.98 251.43 434.68 254.17 430.92Z"
fill-rule="nonzero" fill="black"/>
<path d="M252.11 429.73L249.85 429 248.89 433.54 250.22 433.98 252.11 429.73Z"
fill-rule="nonzero" fill="black"/>
<path d="M249.85 429L247.49 428.75 247.49 433.4 248.89 433.54 249.85 429Z"
fill-rule="nonzero" fill="black"/>
<path d="M247.49 428.75L245.13 429 246.1 433.54 247.49 433.4 247.49 428.75Z"
fill-rule="nonzero" fill="black"/>
<path d="M245.13 429L242.87 429.73 244.76 433.98 246.1 433.54 245.13 429Z"
fill-rule="nonzero" fill="black"/>
<path d="M242.87 429.73L240.81 430.92 243.55 434.68 244.76 433.98 242.87 429.73Z"
fill-rule="nonzero" fill="black"/>
<path d="M240.81 430.92L239.05 432.51 242.5 435.62 243.55 434.68 240.81 430.92Z"
fill-rule="nonzero" fill="black"/>
<path d="M239.05 432.51L237.65 434.43 241.68 436.75 242.5 435.62 239.05 432.51Z"
fill-rule="nonzero" fill="black"/>
<path d="M237.65 434.43L236.69 436.6 241.11 438.04 241.68 436.75 237.65 434.43Z"
fill-rule="nonzero" fill="black"/>
<path d="M236.69 436.6L236.19 438.92 240.81 439.41 241.11 438.04 236.69 436.6Z"
fill-rule="nonzero" fill="black"/>
<path d="M236.19 438.92L236.19 441.3 240.81 440.81 240.81 439.41 236.19 438.92Z"
fill-rule="nonzero" fill="black"/>
<path d="M236.19 441.3L236.69 443.62 241.11 442.19 240.81 440.81 236.19 441.3Z"
fill-rule="nonzero" fill="black"/>
<path d="M236.69 443.62L237.65 445.79 241.68 443.47 241.11 442.19 236.69 443.62Z"
fill-rule="nonzero" fill="black"/>
<path d="M237.65 445.79L239.05 447.72 242.5 444.6 241.68 443.47 237.65 445.79Z"
fill-rule="nonzero" fill="black"/>
<path d="M239.05 447.72L240.81 449.31 243.55 445.54 242.5 444.6 239.05 447.72Z"
fill-rule="nonzero" fill="black"/>
<path d="M240.81 449.31L242.87 450.49 244.76 446.25 243.55 445.54 240.81 449.31Z"
fill-rule="nonzero" fill="black"/>
<path d="M242.87 450.49L245.13 451.23 246.1 446.68 244.76 446.25 242.87 450.49Z"
fill-rule="nonzero" fill="black"/>
<path d="M245.13 451.23L247.49 451.48 247.49 446.83 246.1 446.68 245.13 451.23Z"
fill-rule="nonzero" fill="black"/>
<path d="M548.12 598.3L543.47 598.3 543.47 1.7 548.12 1.7 548.12 598.3Z"
fill-rule="evenodd" fill="black"/>
<path d="M600.03 293.16L600.03 297.8 527.71 297.8 527.71 293.16 600.03 293.16Z"
fill-rule="evenodd" fill="black"/>
<path d="M527.71 297.8L524.16 297.59 524.72 292.98 527.71 293.16 527.71 297.8Z"
fill-rule="nonzero" fill="black"/>
<path d="M524.16 297.59L520.67 296.95 521.78 292.44 524.72 292.98 524.16 297.59Z"
fill-rule="nonzero" fill="black"/>
<path d="M520.67 296.95L517.27 295.89 518.92 291.54 521.78 292.44 520.67 296.95Z"
fill-rule="nonzero" fill="black"/>
<path d="M517.27 295.89L514.03 294.43 516.19 290.32 518.92 291.54 517.27 295.89Z"
fill-rule="nonzero" fill="black"/>
<path d="M514.03 294.43L510.99 292.59 513.63 288.77 516.19 290.32 514.03 294.43Z"
fill-rule="nonzero" fill="black"/>
<path d="M510.99 292.59L508.19 290.4 511.27 286.92 513.63 288.77 510.99 292.59Z"
fill-rule="nonzero" fill="black"/>
<path d="M508.19 290.4L505.67 287.89 509.15 284.8 511.27 286.92 508.19 290.4Z"
fill-rule="nonzero" fill="black"/>
<path d="M505.67 287.89L503.48 285.09 507.31 282.45 509.15 284.8 505.67 287.89Z"
fill-rule="nonzero" fill="black"/>
<path d="M503.48 285.09L501.64 282.04 505.76 279.88 507.31 282.45 503.48 285.09Z"
fill-rule="nonzero" fill="black"/>
<path d="M501.64 282.04L500.18 278.8 504.53 277.15 505.76 279.88 501.64 282.04Z"
fill-rule="nonzero" fill="black"/>
<path d="M500.18 278.8L499.13 275.41 503.64 274.3 504.53 277.15 500.18 278.8Z"
fill-rule="nonzero" fill="black"/>
<path d="M499.13 275.41L498.48 271.91 503.1 271.35 503.64 274.3 499.13 275.41Z"
fill-rule="nonzero" fill="black"/>
<path d="M498.48 271.91L498.27 268.36 502.92 268.36 503.1 271.35 498.48 271.91Z"
fill-rule="nonzero" fill="black"/>
<path d="M498.27 268.36L498.48 264.81 503.1 265.37 502.92 268.36 498.27 268.36Z"
fill-rule="nonzero" fill="black"/>
<path d="M498.48 264.81L499.13 261.32 503.64 262.43 503.1 265.37 498.48 264.81Z"
fill-rule="nonzero" fill="black"/>
<path d="M499.13 261.32L500.18 257.92 504.53 259.57 503.64 262.43 499.13 261.32Z"
fill-rule="nonzero" fill="black"/>
<path d="M500.18 257.92L501.64 254.68 505.76 256.84 504.53 259.57 500.18 257.92Z"
fill-rule="nonzero" fill="black"/>
<path d="M501.64 254.68L503.48 251.64 507.31 254.28 505.76 256.84 501.64 254.68Z"
fill-rule="nonzero" fill="black"/>
<path d="M503.48 251.64L505.67 248.84 509.15 251.92 507.31 254.28 503.48 251.64Z"
fill-rule="nonzero" fill="black"/>
<path d="M505.67 248.84L508.19 246.32 511.27 249.8 509.15 251.92 505.67 248.84Z"
fill-rule="nonzero" fill="black"/>
<path d="M508.19 246.32L510.99 244.13 513.63 247.96 511.27 249.8 508.19 246.32Z"
fill-rule="nonzero" fill="black"/>
<path d="M510.99 244.13L514.03 242.29 516.19 246.41 513.63 247.96 510.99 244.13Z"
fill-rule="nonzero" fill="black"/>
<path d="M514.03 242.29L517.27 240.83 518.92 245.18 516.19 246.41 514.03 242.29Z"
fill-rule="nonzero" fill="black"/>
<path d="M517.27 240.83L520.67 239.77 521.78 244.29 518.92 245.18 517.27 240.83Z"
fill-rule="nonzero" fill="black"/>
<path d="M520.67 239.77L524.16 239.13 524.72 243.75 521.78 244.29 520.67 239.77Z"
fill-rule="nonzero" fill="black"/>
<path d="M524.16 239.13L527.71 238.92 527.71 243.57 524.72 243.75 524.16 239.13Z"
fill-rule="nonzero" fill="black"/>
<path d="M527.71 243.57L524.16 243.35 524.72 238.74 527.71 238.92 527.71 243.57Z"
fill-rule="nonzero" fill="black"/>
<path d="M524.16 243.35L520.67 242.71 521.78 238.2 524.72 238.74 524.16 243.35Z"
fill-rule="nonzero" fill="black"/>
<path d="M520.67 242.71L517.27 241.65 518.92 237.31 521.78 238.2 520.67 242.71Z"
fill-rule="nonzero" fill="black"/>
<path d="M517.27 241.65L514.03 240.2 516.19 236.08 518.92 237.31 517.27 241.65Z"
fill-rule="nonzero" fill="black"/>
<path d="M514.03 240.2L510.99 238.36 513.63 234.53 516.19 236.08 514.03 240.2Z"
fill-rule="nonzero" fill="black"/>
<path d="M510.99 238.36L508.19 236.16 511.27 232.68 513.63 234.53 510.99 238.36Z"
fill-rule="nonzero" fill="black"/>
<path d="M508.19 236.16L505.67 233.65 509.15 230.57 511.27 232.68 508.19 236.16Z"
fill-rule="nonzero" fill="black"/>
<path d="M505.67 233.65L503.48 230.85 507.31 228.21 509.15 230.57 505.67 233.65Z"
fill-rule="nonzero" fill="black"/>
<path d="M503.48 230.85L501.64 227.81 505.76 225.65 507.31 228.21 503.48 230.85Z"
fill-rule="nonzero" fill="black"/>
<path d="M501.64 227.81L500.18 224.57 504.53 222.92 505.76 225.65 501.64 227.81Z"
fill-rule="nonzero" fill="black"/>
<path d="M500.18 224.57L499.13 221.17 503.64 220.06 504.53 222.92 500.18 224.57Z"
fill-rule="nonzero" fill="black"/>
<path d="M499.13 221.17L498.48 217.67 503.1 217.11 503.64 220.06 499.13 221.17Z"
fill-rule="nonzero" fill="black"/>
<path d="M498.48 217.67L498.27 214.13 502.92 214.13 503.1 217.11 498.48 217.67Z"
fill-rule="nonzero" fill="black"/>
<path d="M498.27 214.13L498.48 210.58 503.1 211.14 502.92 214.13 498.27 214.13Z"
fill-rule="nonzero" fill="black"/>
<path d="M498.48 210.58L499.13 207.08 503.64 208.19 503.1 211.14 498.48 210.58Z"
fill-rule="nonzero" fill="black"/>
<path d="M499.13 207.08L500.18 203.68 504.53 205.33 503.64 208.19 499.13 207.08Z"
fill-rule="nonzero" fill="black"/>
<path d="M500.18 203.68L501.64 200.44 505.76 202.6 504.53 205.33 500.18 203.68Z"
fill-rule="nonzero" fill="black"/>
<path d="M501.64 200.44L503.48 197.4 507.31 200.04 505.76 202.6 501.64 200.44Z"
fill-rule="nonzero" fill="black"/>
<path d="M503.48 197.4L505.67 194.6 509.15 197.68 507.31 200.04 503.48 197.4Z"
fill-rule="nonzero" fill="black"/>
<path d="M505.67 194.6L508.19 192.09 511.27 195.57 509.15 197.68 505.67 194.6Z"
fill-rule="nonzero" fill="black"/>
<path d="M508.19 192.09L510.99 189.89 513.63 193.72 511.27 195.57 508.19 192.09Z"
fill-rule="nonzero" fill="black"/>
<path d="M510.99 189.89L514.03 188.05 516.19 192.17 513.63 193.72 510.99 189.89Z"
fill-rule="nonzero" fill="black"/>
<path d="M514.03 188.05L517.27 186.6 518.92 190.94 516.19 192.17 514.03 188.05Z"
fill-rule="nonzero" fill="black"/>
<path d="M517.27 186.6L520.67 185.54 521.78 190.05 518.92 190.94 517.27 186.6Z"
fill-rule="nonzero" fill="black"/>
<path d="M520.67 185.54L524.16 184.9 524.72 189.51 521.78 190.05 520.67 185.54Z"
fill-rule="nonzero" fill="black"/>
<path d="M524.16 184.9L527.71 184.68 527.71 189.33 524.72 189.51 524.16 184.9Z"
fill-rule="nonzero" fill="black"/>
<path d="M527.71 189.33L527.71 184.68 600.03 184.68 600.03 189.33 527.71 189.33Z"
fill-rule="evenodd" fill="black"/>
<path d="M600.03 410.67L600.03 415.32 527.71 415.32 527.71 410.67 600.03 410.67Z"
fill-rule="evenodd" fill="black"/>
<path d="M527.71 415.32L524.16 415.1 524.72 410.49 527.71 410.67 527.71 415.32Z"
fill-rule="nonzero" fill="black"/>
<path d="M524.16 415.1L520.67 414.46 521.78 409.95 524.72 410.49 524.16 415.1Z"
fill-rule="nonzero" fill="black"/>
<path d="M520.67 414.46L517.27 413.4 518.92 409.06 521.78 409.95 520.67 414.46Z"
fill-rule="nonzero" fill="black"/>
<path d="M517.27 413.4L514.03 411.95 516.19 407.83 518.92 409.06 517.27 413.4Z"
fill-rule="nonzero" fill="black"/>
<path d="M514.03 411.95L510.99 410.11 513.63 406.28 516.19 407.83 514.03 411.95Z"
fill-rule="nonzero" fill="black"/>
<path d="M510.99 410.11L508.19 407.91 511.27 404.43 513.63 406.28 510.99 410.11Z"
fill-rule="nonzero" fill="black"/>
<path d="M508.19 407.91L505.67 405.4 509.15 402.32 511.27 404.43 508.19 407.91Z"
fill-rule="nonzero" fill="black"/>
<path d="M505.67 405.4L503.48 402.6 507.31 399.96 509.15 402.32 505.67 405.4Z"
fill-rule="nonzero" fill="black"/>
<path d="M503.48 402.6L501.64 399.56 505.76 397.4 507.31 399.96 503.48 402.6Z"
fill-rule="nonzero" fill="black"/>
<path d="M501.64 399.56L500.18 396.32 504.53 394.67 505.76 397.4 501.64 399.56Z"
fill-rule="nonzero" fill="black"/>
<path d="M500.18 396.32L499.13 392.92 503.64 391.81 504.53 394.67 500.18 396.32Z"
fill-rule="nonzero" fill="black"/>
<path d="M499.13 392.92L498.48 389.42 503.1 388.86 503.64 391.81 499.13 392.92Z"
fill-rule="nonzero" fill="black"/>
<path d="M498.48 389.42L498.27 385.87 502.92 385.87 503.1 388.86 498.48 389.42Z"
fill-rule="nonzero" fill="black"/>
<path d="M498.27 385.87L498.48 382.33 503.1 382.89 502.92 385.87 498.27 385.87Z"
fill-rule="nonzero" fill="black"/>
<path d="M498.48 382.33L499.13 378.83 503.64 379.94 503.1 382.89 498.48 382.33Z"
fill-rule="nonzero" fill="black"/>
<path d="M499.13 378.83L500.18 375.43 504.53 377.08 503.64 379.94 499.13 378.83Z"
fill-rule="nonzero" fill="black"/>
<path d="M500.18 375.43L501.64 372.19 505.76 374.35 504.53 377.08 500.18 375.43Z"
fill-rule="nonzero" fill="black"/>
<path d="M501.64 372.19L503.48 369.15 507.31 371.79 505.76 374.35 501.64 372.19Z"
fill-rule="nonzero" fill="black"/>
<path d="M503.48 369.15L505.67 366.35 509.15 369.43 507.31 371.79 503.48 369.15Z"
fill-rule="nonzero" fill="black"/>
<path d="M505.67 366.35L508.19 363.84 511.27 367.32 509.15 369.43 505.67 366.35Z"
fill-rule="nonzero" fill="black"/>
<path d="M508.19 363.84L510.99 361.64 513.63 365.47 511.27 367.32 508.19 363.84Z"
fill-rule="nonzero" fill="black"/>
<path d="M510.99 361.64L514.03 359.8 516.19 363.92 513.63 365.47 510.99 361.64Z"
fill-rule="nonzero" fill="black"/>
<path d="M514.03 359.8L517.27 358.35 518.92 362.69 516.19 363.92 514.03 359.8Z"
fill-rule="nonzero" fill="black"/>
<path d="M517.27 358.35L520.67 357.29 521.78 361.8 518.92 362.69 517.27 358.35Z"
fill-rule="nonzero" fill="black"/>
<path d="M520.67 357.29L524.16 356.65 524.72 361.26 521.78 361.8 520.67 357.29Z"
fill-rule="nonzero" fill="black"/>
<path d="M524.16 356.65L527.71 356.43 527.71 361.08 524.72 361.26 524.16 356.65Z"
fill-rule="nonzero" fill="black"/>
<path d="M527.71 361.08L524.16 360.87 524.72 356.25 527.71 356.43 527.71 361.08Z"
fill-rule="nonzero" fill="black"/>
<path d="M524.16 360.87L520.67 360.23 521.78 355.71 524.72 356.25 524.16 360.87Z"
fill-rule="nonzero" fill="black"/>
<path d="M520.67 360.23L517.27 359.17 518.92 354.82 521.78 355.71 520.67 360.23Z"
fill-rule="nonzero" fill="black"/>
<path d="M517.27 359.17L514.03 357.71 516.19 353.59 518.92 354.82 517.27 359.17Z"
fill-rule="nonzero" fill="black"/>
<path d="M514.03 357.71L510.99 355.87 513.63 352.04 516.19 353.59 514.03 357.71Z"
fill-rule="nonzero" fill="black"/>
<path d="M510.99 355.87L508.19 353.68 511.27 350.2 513.63 352.04 510.99 355.87Z"
fill-rule="nonzero" fill="black"/>
<path d="M508.19 353.68L505.67 351.16 509.15 348.08 511.27 350.2 508.19 353.68Z"
fill-rule="nonzero" fill="black"/>
<path d="M505.67 351.16L503.48 348.36 507.31 345.72 509.15 348.08 505.67 351.16Z"
fill-rule="nonzero" fill="black"/>
<path d="M503.48 348.36L501.64 345.32 505.76 343.16 507.31 345.72 503.48 348.36Z"
fill-rule="nonzero" fill="black"/>
<path d="M501.64 345.32L500.18 342.08 504.53 340.43 505.76 343.16 501.64 345.32Z"
fill-rule="nonzero" fill="black"/>
<path d="M500.18 342.08L499.13 338.68 503.64 337.57 504.53 340.43 500.18 342.08Z"
fill-rule="nonzero" fill="black"/>
<path d="M499.13 338.68L498.48 335.19 503.1 334.63 503.64 337.57 499.13 338.68Z"
fill-rule="nonzero" fill="black"/>
<path d="M498.48 335.19L498.27 331.64 502.92 331.64 503.1 334.63 498.48 335.19Z"
fill-rule="nonzero" fill="black"/>
<path d="M498.27 331.64L498.48 328.09 503.1 328.65 502.92 331.64 498.27 331.64Z"
fill-rule="nonzero" fill="black"/>
<path d="M498.48 328.09L499.13 324.59 503.64 325.7 503.1 328.65 498.48 328.09Z"
fill-rule="nonzero" fill="black"/>
<path d="M499.13 324.59L500.18 321.2 504.53 322.85 503.64 325.7 499.13 324.59Z"
fill-rule="nonzero" fill="black"/>
<path d="M500.18 321.2L501.64 317.96 505.76 320.12 504.53 322.85 500.18 321.2Z"
fill-rule="nonzero" fill="black"/>
<path d="M501.64 317.96L503.48 314.91 507.31 317.55 505.76 320.12 501.64 317.96Z"
fill-rule="nonzero" fill="black"/>
<path d="M503.48 314.91L505.67 312.11 509.15 315.2 507.31 317.55 503.48 314.91Z"
fill-rule="nonzero" fill="black"/>
<path d="M505.67 312.11L508.19 309.6 511.27 313.08 509.15 315.2 505.67 312.11Z"
fill-rule="nonzero" fill="black"/>
<path d="M508.19 309.6L510.99 307.41 513.63 311.23 511.27 313.08 508.19 309.6Z"
fill-rule="nonzero" fill="black"/>
<path d="M510.99 307.41L514.03 305.57 516.19 309.68 513.63 311.23 510.99 307.41Z"
fill-rule="nonzero" fill="black"/>
<path d="M514.03 305.57L517.27 304.11 518.92 308.46 516.19 309.68 514.03 305.57Z"
fill-rule="nonzero" fill="black"/>
<path d="M517.27 304.11L520.67 303.05 521.78 307.56 518.92 308.46 517.27 304.11Z"
fill-rule="nonzero" fill="black"/>
<path d="M520.67 303.05L524.16 302.41 524.72 307.02 521.78 307.56 520.67 303.05Z"
fill-rule="nonzero" fill="black"/>
<path d="M524.16 302.41L527.71 302.2 527.71 306.84 524.72 307.02 524.16 302.41Z"
fill-rule="nonzero" fill="black"/>
<path d="M527.71 306.84L527.71 302.2 600.03 302.2 600.03 306.84 527.71 306.84Z"
fill-rule="evenodd" fill="black"/>
<path d="M545.79 171.23L548.15 170.99 547.19 166.44 545.79 166.58 545.79 171.23Z"
fill-rule="nonzero" fill="black"/>
<path d="M548.15 170.99L550.41 170.25 548.52 166 547.19 166.44 548.15 170.99Z"
fill-rule="nonzero" fill="black"/>
<path d="M550.41 170.25L552.47 169.07 549.73 165.3 548.52 166 550.41 170.25Z"
fill-rule="nonzero" fill="black"/>
<path d="M552.47 169.07L554.23 167.48 550.78 164.37 549.73 165.3 552.47 169.07Z"
fill-rule="nonzero" fill="black"/>
<path d="M554.23 167.48L555.63 165.56 551.6 163.23 550.78 164.37 554.23 167.48Z"
fill-rule="nonzero" fill="black"/>
<path d="M555.63 165.56L556.59 163.39 552.17 161.95 551.6 163.23 555.63 165.56Z"
fill-rule="nonzero" fill="black"/>
<path d="M556.59 163.39L557.08 161.07 552.46 160.58 552.17 161.95 556.59 163.39Z"
fill-rule="nonzero" fill="black"/>
<path d="M557.08 161.07L557.08 158.69 552.46 159.18 552.46 160.58 557.08 161.07Z"
fill-rule="nonzero" fill="black"/>
<path d="M557.08 158.69L556.59 156.37 552.17 157.81 552.46 159.18 557.08 158.69Z"
fill-rule="nonzero" fill="black"/>
<path d="M556.59 156.37L555.63 154.2 551.6 156.53 552.17 157.81 556.59 156.37Z"
fill-rule="nonzero" fill="black"/>
<path d="M555.63 154.2L554.23 152.28 550.78 155.39 551.6 156.53 555.63 154.2Z"
fill-rule="nonzero" fill="black"/>
<path d="M554.23 152.28L552.47 150.69 549.73 154.45 550.78 155.39 554.23 152.28Z"
fill-rule="nonzero" fill="black"/>
<path d="M552.47 150.69L550.41 149.51 548.52 153.75 549.73 154.45 552.47 150.69Z"
fill-rule="nonzero" fill="black"/>
<path d="M550.41 149.51L548.15 148.77 547.19 153.32 548.52 153.75 550.41 149.51Z"
fill-rule="nonzero" fill="black"/>
<path d="M548.15 148.77L545.79 148.52 545.79 153.17 547.19 153.32 548.15 148.77Z"
fill-rule="nonzero" fill="black"/>
<path d="M545.79 148.52L543.43 148.77 544.4 153.32 545.79 153.17 545.79 148.52Z"
fill-rule="nonzero" fill="black"/>
<path d="M543.43 148.77L541.17 149.51 543.06 153.75 544.4 153.32 543.43 148.77Z"
fill-rule="nonzero" fill="black"/>
<path d="M541.17 149.51L539.11 150.69 541.85 154.46 543.06 153.75 541.17 149.51Z"
fill-rule="nonzero" fill="black"/>
<path d="M539.11 150.69L537.35 152.28 540.8 155.4 541.85 154.46 539.11 150.69Z"
fill-rule="nonzero" fill="black"/>
<path d="M537.35 152.28L535.95 154.21 539.98 156.53 540.8 155.4 537.35 152.28Z"
fill-rule="nonzero" fill="black"/>
<path d="M535.95 154.21L534.98 156.38 539.41 157.81 539.98 156.53 535.95 154.21Z"
fill-rule="nonzero" fill="black"/>
<path d="M534.98 156.38L534.49 158.7 539.11 159.19 539.41 157.81 534.98 156.38Z"
fill-rule="nonzero" fill="black"/>
<path d="M534.49 158.7L534.49 161.08 539.11 160.59 539.11 159.19 534.49 158.7Z"
fill-rule="nonzero" fill="black"/>
<path d="M534.49 161.08L534.98 163.4 539.41 161.96 539.11 160.59 534.49 161.08Z"
fill-rule="nonzero" fill="black"/>
<path d="M534.98 163.4L535.95 165.57 539.98 163.25 539.41 161.96 534.98 163.4Z"
fill-rule="nonzero" fill="black"/>
<path d="M535.95 165.57L537.35 167.49 540.8 164.38 539.98 163.25 535.95 165.57Z"
fill-rule="nonzero" fill="black"/>
<path d="M537.35 167.49L539.11 169.08 541.85 165.32 540.8 164.38 537.35 167.49Z"
fill-rule="nonzero" fill="black"/>
<path d="M539.11 169.08L541.17 170.27 543.06 166.02 541.85 165.32 539.11 169.08Z"
fill-rule="nonzero" fill="black"/>
<path d="M541.17 170.27L543.43 171 544.4 166.46 543.06 166.02 541.17 170.27Z"
fill-rule="nonzero" fill="black"/>
<path d="M543.43 171L545.79 171.25 545.79 166.6 544.4 166.46 543.43 171Z"
fill-rule="nonzero" fill="black"/>
<path d="M545.79 451.46L548.15 451.21 547.19 446.66 545.79 446.81 545.79 451.46Z"
fill-rule="nonzero" fill="black"/>
<path d="M548.15 451.21L550.41 450.48 548.52 446.23 547.19 446.66 548.15 451.21Z"
fill-rule="nonzero" fill="black"/>
<path d="M550.41 450.48L552.47 449.29 549.73 445.53 548.52 446.23 550.41 450.48Z"
fill-rule="nonzero" fill="black"/>
<path d="M552.47 449.29L554.23 447.7 550.78 444.59 549.73 445.53 552.47 449.29Z"
fill-rule="nonzero" fill="black"/>
<path d="M554.23 447.7L555.63 445.78 551.6 443.46 550.78 444.59 554.23 447.7Z"
fill-rule="nonzero" fill="black"/>
<path d="M555.63 445.78L556.59 443.61 552.17 442.17 551.6 443.46 555.63 445.78Z"
fill-rule="nonzero" fill="black"/>
<path d="M556.59 443.61L557.08 441.29 552.46 440.8 552.17 442.17 556.59 443.61Z"
fill-rule="nonzero" fill="black"/>
<path d="M557.08 441.29L557.08 438.92 552.46 439.4 552.46 440.8 557.08 441.29Z"
fill-rule="nonzero" fill="black"/>
<path d="M557.08 438.92L556.59 436.59 552.17 438.03 552.46 439.4 557.08 438.92Z"
fill-rule="nonzero" fill="black"/>
<path d="M556.59 436.59L555.63 434.43 551.6 436.75 552.17 438.03 556.59 436.59Z"
fill-rule="nonzero" fill="black"/>
<path d="M555.63 434.43L554.23 432.5 550.78 435.62 551.6 436.75 555.63 434.43Z"
fill-rule="nonzero" fill="black"/>
<path d="M554.23 432.5L552.47 430.92 549.73 434.68 550.78 435.62 554.23 432.5Z"
fill-rule="nonzero" fill="black"/>
<path d="M552.47 430.92L550.41 429.73 548.52 433.98 549.73 434.68 552.47 430.92Z"
fill-rule="nonzero" fill="black"/>
<path d="M550.41 429.73L548.15 429 547.19 433.54 548.52 433.98 550.41 429.73Z"
fill-rule="nonzero" fill="black"/>
<path d="M548.15 429L545.79 428.75 545.79 433.4 547.19 433.54 548.15 429Z"
fill-rule="nonzero" fill="black"/>
<path d="M545.79 428.75L543.43 429 544.4 433.54 545.79 433.4 545.79 428.75Z"
fill-rule="nonzero" fill="black"/>
<path d="M543.43 429L541.17 429.73 543.06 433.98 544.4 433.54 543.43 429Z"
fill-rule="nonzero" fill="black"/>
<path d="M541.17 429.73L539.11 430.92 541.85 434.68 543.06 433.98 541.17 429.73Z"
fill-rule="nonzero" fill="black"/>
<path d="M539.11 430.92L537.35 432.51 540.8 435.62 541.85 434.68 539.11 430.92Z"
fill-rule="nonzero" fill="black"/>
<path d="M537.35 432.51L535.95 434.43 539.98 436.75 540.8 435.62 537.35 432.51Z"
fill-rule="nonzero" fill="black"/>
<path d="M535.95 434.43L534.98 436.6 539.41 438.04 539.98 436.75 535.95 434.43Z"
fill-rule="nonzero" fill="black"/>
<path d="M534.98 436.6L534.49 438.92 539.11 439.41 539.41 438.04 534.98 436.6Z"
fill-rule="nonzero" fill="black"/>
<path d="M534.49 438.92L534.49 441.3 539.11 440.81 539.11 439.41 534.49 438.92Z"
fill-rule="nonzero" fill="black"/>
<path d="M534.49 441.3L534.98 443.62 539.41 442.19 539.11 440.81 534.49 441.3Z"
fill-rule="nonzero" fill="black"/>
<path d="M534.98 443.62L535.95 445.79 539.98 443.47 539.41 442.19 534.98 443.62Z"
fill-rule="nonzero" fill="black"/>
<path d="M535.95 445.79L537.35 447.72 540.8 444.6 539.98 443.47 535.95 445.79Z"
fill-rule="nonzero" fill="black"/>
<path d="M537.35 447.72L539.11 449.31 541.85 445.54 540.8 444.6 537.35 447.72Z"
fill-rule="nonzero" fill="black"/>
<path d="M539.11 449.31L541.17 450.49 543.06 446.25 541.85 445.54 539.11 449.31Z"
fill-rule="nonzero" fill="black"/>
<path d="M541.17 450.49L543.43 451.23 544.4 446.68 543.06 446.25 541.17 450.49Z"
fill-rule="nonzero" fill="black"/>
<path d="M543.43 451.23L545.79 451.48 545.79 446.83 544.4 446.68 543.43 451.23Z"
fill-rule="nonzero" fill="black"/>
</svg>
