<?xml version="1.0" encoding="UTF-8"?>
<svg xmlns="http://www.w3.org/2000/svg" width="800.000" height="600.000" viewBox="0.0 0.0 800.000 600.000" version="1.1">
  <title>Produce by Acme CAD Converter</title>
  <desc>Produce by Acme CAD Converter</desc>
<path d="M400 598.3L400 173.24"
fill="none" stroke="black" stroke-width="0.5"/>
<path d="M384.82 6.25L415.18 6.25"
fill="none" stroke="black" stroke-width="0.5"/>
<path d="M400 6.25L400 21.43"
fill="none" stroke="black" stroke-width="0.5"/>
<path d="M397.95 2.18L401.97 2.18 401.92 2.12 397.95 2.18Z"
fill-rule="evenodd" fill="blue"/>
<path d="M397.95 2.18L395.64 5.2 401.97 2.18 397.95 2.18Z"
fill-rule="evenodd" fill="blue"/>
<path d="M395.64 5.2L404.43 5.2 401.97 2.18 395.64 5.2Z"
fill-rule="evenodd" fill="blue"/>
<path d="M395.64 5.2L395.54 5.34 404.43 5.2 395.64 5.2Z"
fill-rule="evenodd" fill="blue"/>
<path d="M395.54 5.34L404.4 5.34 404.43 5.2 395.54 5.34Z"
fill-rule="evenodd" fill="blue"/>
<path d="M395.54 5.34L396.49 9.08 404.4 5.34 395.54 5.34Z"
fill-rule="evenodd" fill="blue"/>
<path d="M396.49 9.08L403.57 9.08 404.4 5.34 396.49 9.08Z"
fill-rule="evenodd" fill="blue"/>
<path d="M396.49 9.08L396.52 9.19 403.57 9.08 396.49 9.08Z"
fill-rule="evenodd" fill="blue"/>
<path d="M396.52 9.19L403.35 9.19 403.57 9.08 396.52 9.19Z"
fill-rule="evenodd" fill="blue"/>
<path d="M396.52 9.19L400 10.81 403.35 9.19 396.52 9.19Z"
fill-rule="evenodd" fill="blue"/>
<path d="M400 10.81L401.28 10.62M401.28 10.62L402.46 10.08M402.46 10.08L403.44 9.23M403.44 9.23L404.14 8.14M404.14 8.14L404.51 6.9M404.51 6.9L404.51 5.6M404.51 5.6L404.14 4.36M404.14 4.36L403.44 3.27M403.44 3.27L402.46 2.42M402.46 2.42L401.28 1.88M401.28 1.88L400 1.7M400 1.7L398.72 1.88M398.72 1.88L397.54 2.42M397.54 2.42L396.56 3.27M396.56 3.27L395.86 4.36M395.86 4.36L395.49 5.6M395.49 5.6L395.49 6.9M395.49 6.9L395.86 8.14M395.86 8.14L396.56 9.23M396.56 9.23L397.54 10.08M397.54 10.08L398.72 10.62M398.72 10.62L400 10.81"
fill="none" stroke="black" stroke-width="0.5"/>
<path d="M400 51.79L400 21.43"
fill="none" stroke="black" stroke-width="0.5"/>
</svg>
