<?xml version="1.0" encoding="UTF-8"?>
<svg xmlns="http://www.w3.org/2000/svg" width="800.000" height="600.000" viewBox="0.0 0.0 800.000 600.000" version="1.1">
  <title>Produce by Acme CAD Converter</title>
  <desc>Produce by Acme CAD Converter</desc>
<path d="M401.93 53.58L398.04 53.58 398.04 12.72 401.93 12.72 401.93 53.58Z"
fill-rule="evenodd" fill="black"/>
<path d="M398.04 174.63L401.93 174.63 401.93 598.3 398.04 598.3 398.04 174.63Z"
fill-rule="evenodd" fill="black"/>
<path d="M399.99 14.67L398.16 14.4 399.26 10.67 399.99 10.78 399.99 14.67Z"
fill-rule="nonzero" fill="black"/>
<path d="M398.16 14.4L396.48 13.64 398.58 10.36 399.26 10.67 398.16 14.4Z"
fill-rule="nonzero" fill="black"/>
<path d="M396.48 13.64L395.09 12.43 398.03 9.88 398.58 10.36 396.48 13.64Z"
fill-rule="nonzero" fill="black"/>
<path d="M395.09 12.43L394.09 10.88 397.63 9.26 398.03 9.88 395.09 12.43Z"
fill-rule="nonzero" fill="black"/>
<path d="M394.09 10.88L393.57 9.11 397.42 8.55 397.63 9.26 394.09 10.88Z"
fill-rule="nonzero" fill="black"/>
<path d="M393.57 9.11L393.57 7.26 397.42 7.81 397.42 8.55 393.57 9.11Z"
fill-rule="nonzero" fill="black"/>
<path d="M393.57 7.26L394.09 5.49 397.63 7.11 397.42 7.81 393.57 7.26Z"
fill-rule="nonzero" fill="black"/>
<path d="M394.09 5.49L395.09 3.94 398.03 6.48 397.63 7.11 394.09 5.49Z"
fill-rule="nonzero" fill="black"/>
<path d="M395.09 3.94L396.48 2.73 398.58 6 398.03 6.48 395.09 3.94Z"
fill-rule="nonzero" fill="black"/>
<path d="M396.48 2.73L398.16 1.96 399.26 5.69 398.58 6 396.48 2.73Z"
fill-rule="nonzero" fill="black"/>
<path d="M398.16 1.96L399.99 1.7 399.99 5.59 399.26 5.69 398.16 1.96Z"
fill-rule="nonzero" fill="black"/>
<path d="M399.99 1.7L401.81 1.96 400.72 5.69 399.99 5.59 399.99 1.7Z"
fill-rule="nonzero" fill="black"/>
<path d="M401.81 1.96L403.49 2.73 401.39 6 400.72 5.69 401.81 1.96Z"
fill-rule="nonzero" fill="black"/>
<path d="M403.49 2.73L404.89 3.94 401.95 6.48 401.39 6 403.49 2.73Z"
fill-rule="nonzero" fill="black"/>
<path d="M404.89 3.94L405.88 5.49 402.35 7.11 401.95 6.48 404.89 3.94Z"
fill-rule="nonzero" fill="black"/>
<path d="M405.88 5.49L406.4 7.26 402.55 7.81 402.35 7.11 405.88 5.49Z"
fill-rule="nonzero" fill="black"/>
<path d="M406.4 7.26L406.4 9.11 402.55 8.55 402.55 7.81 406.4 7.26Z"
fill-rule="nonzero" fill="black"/>
<path d="M406.4 9.11L405.88 10.88 402.35 9.26 402.55 8.55 406.4 9.11Z"
fill-rule="nonzero" fill="black"/>
<path d="M405.88 10.88L404.89 12.43 401.95 9.88 402.35 9.26 405.88 10.88Z"
fill-rule="nonzero" fill="black"/>
<path d="M404.89 12.43L403.49 13.64 401.39 10.36 401.95 9.88 404.89 12.43Z"
fill-rule="nonzero" fill="black"/>
<path d="M403.49 13.64L401.81 14.4 400.72 10.67 401.39 10.36 403.49 13.64Z"
fill-rule="nonzero" fill="black"/>
<path d="M401.81 14.4L399.99 14.67 399.99 10.78 400.72 10.67 401.81 14.4Z"
fill-rule="nonzero" fill="black"/>
</svg>
