<?xml version="1.0" encoding="UTF-8"?>
<svg xmlns="http://www.w3.org/2000/svg" width="800.000" height="600.000" viewBox="0.0 0.0 800.000 600.000" version="1.1">
  <title>Produce by Acme CAD Converter</title>
  <desc>Produce by Acme CAD Converter</desc>
<path d="M414.21 598.3L411.66 598.3 411.66 566.58 414.21 566.58 414.21 598.3Z"
fill-rule="evenodd" fill="black"/>
<path d="M392.14 547.6L393.95 545.79 412.93 564.78 412.93 568.39 392.14 547.6Z"
fill-rule="evenodd" fill="black"/>
<path d="M412.93 568.39L412.93 564.78 431.92 545.79 433.73 547.6 412.93 568.39Z"
fill-rule="evenodd" fill="black"/>
<path d="M392.14 534.34L393.95 532.53 412.93 551.52 412.93 555.13 392.14 534.34Z"
fill-rule="evenodd" fill="black"/>
<path d="M412.93 555.13L412.93 551.52 431.92 532.53 433.73 534.34 412.93 555.13Z"
fill-rule="evenodd" fill="black"/>
<path d="M414.21 553.33L411.66 553.33 411.66 431.03 414.21 430.34 414.21 553.33Z"
fill-rule="evenodd" fill="black"/>
<path d="M414.21 430.34L411.66 431.03 365.9 351.78 368.11 350.5 414.21 430.34Z"
fill-rule="evenodd" fill="black"/>
<path d="M414.21 361.08L411.66 361.08 411.66 46.67 414.21 46.67 414.21 361.08Z"
fill-rule="evenodd" fill="black"/>
<path d="M394.33 152.13L391.77 149.57 434.1 149.57 431.54 152.13 394.33 152.13Z"
fill-rule="evenodd" fill="black"/>
<path d="M431.54 152.13L434.1 149.57 434.1 251.56 431.54 249 431.54 152.13Z"
fill-rule="evenodd" fill="black"/>
<path d="M431.54 249L434.1 251.56 391.77 251.56 394.33 249 431.54 249Z"
fill-rule="evenodd" fill="black"/>
<path d="M394.33 249L391.77 251.56 391.77 149.57 394.33 152.13 394.33 249Z"
fill-rule="evenodd" fill="black"/>
<path d="M412.93 362.36L410.74 362.14 411.24 359.64 412.93 359.8 412.93 362.36Z"
fill-rule="nonzero" fill="black"/>
<path d="M410.74 362.14L408.64 361.51 409.62 359.14 411.24 359.64 410.74 362.14Z"
fill-rule="nonzero" fill="black"/>
<path d="M408.64 361.51L406.7 360.47 408.12 358.34 409.62 359.14 408.64 361.51Z"
fill-rule="nonzero" fill="black"/>
<path d="M406.7 360.47L405 359.07 406.81 357.27 408.12 358.34 406.7 360.47Z"
fill-rule="nonzero" fill="black"/>
<path d="M405 359.07L403.6 357.37 405.73 355.95 406.81 357.27 405 359.07Z"
fill-rule="nonzero" fill="black"/>
<path d="M403.6 357.37L402.57 355.43 404.93 354.45 405.73 355.95 403.6 357.37Z"
fill-rule="nonzero" fill="black"/>
<path d="M402.57 355.43L401.93 353.33 404.44 352.83 404.93 354.45 402.57 355.43Z"
fill-rule="nonzero" fill="black"/>
<path d="M401.93 353.33L401.71 351.14 404.27 351.14 404.44 352.83 401.93 353.33Z"
fill-rule="nonzero" fill="black"/>
<path d="M401.71 351.14L401.93 348.95 404.44 349.45 404.27 351.14 401.71 351.14Z"
fill-rule="nonzero" fill="black"/>
<path d="M401.93 348.95L402.57 346.84 404.93 347.82 404.44 349.45 401.93 348.95Z"
fill-rule="nonzero" fill="black"/>
<path d="M402.57 346.84L403.6 344.9 405.73 346.32 404.93 347.82 402.57 346.84Z"
fill-rule="nonzero" fill="black"/>
<path d="M403.6 344.9L405 343.2 406.81 345.01 405.73 346.32 403.6 344.9Z"
fill-rule="nonzero" fill="black"/>
<path d="M405 343.2L406.7 341.81 408.12 343.93 406.81 345.01 405 343.2Z"
fill-rule="nonzero" fill="black"/>
<path d="M406.7 341.81L408.64 340.77 409.62 343.13 408.12 343.93 406.7 341.81Z"
fill-rule="nonzero" fill="black"/>
<path d="M408.64 340.77L410.74 340.13 411.24 342.64 409.62 343.13 408.64 340.77Z"
fill-rule="nonzero" fill="black"/>
<path d="M410.74 340.13L412.93 339.92 412.93 342.47 411.24 342.64 410.74 340.13Z"
fill-rule="nonzero" fill="black"/>
<path d="M411.66 1.7L414.21 1.7 414.21 33.42 411.66 33.42 411.66 1.7Z"
fill-rule="evenodd" fill="black"/>
<path d="M393.95 54.21L392.14 52.4 412.93 31.61 412.93 35.22 393.95 54.21Z"
fill-rule="evenodd" fill="black"/>
<path d="M412.93 35.22L412.93 31.61 433.73 52.4 431.92 54.21 412.93 35.22Z"
fill-rule="evenodd" fill="black"/>
<path d="M393.95 67.47L392.14 65.66 412.93 44.87 412.93 48.48 393.95 67.47Z"
fill-rule="evenodd" fill="black"/>
<path d="M412.93 48.48L412.93 44.87 433.73 65.66 431.92 67.47 412.93 48.48Z"
fill-rule="evenodd" fill="black"/>
</svg>
