<?xml version="1.0" encoding="UTF-8"?>
<svg xmlns="http://www.w3.org/2000/svg" width="800.000" height="600.000" viewBox="0.0 0.0 800.000 600.000" version="1.1">
  <title>Produce by Acme CAD Converter</title>
  <desc>Produce by Acme CAD Converter</desc>
<path d="M415.53 598.3L410.88 598.3 410.88 566.58 415.53 566.58 415.53 598.3Z"
fill-rule="evenodd" fill="black"/>
<path d="M391.67 548.34L394.96 545.05 413.2 563.3 413.2 569.87 391.67 548.34Z"
fill-rule="evenodd" fill="black"/>
<path d="M413.2 569.87L413.2 563.3 431.45 545.05 434.74 548.34 413.2 569.87Z"
fill-rule="evenodd" fill="black"/>
<path d="M391.67 535.08L394.96 531.8 413.2 550.04 413.2 556.61 391.67 535.08Z"
fill-rule="evenodd" fill="black"/>
<path d="M413.2 556.61L413.2 550.04 431.45 531.8 434.74 535.08 413.2 556.61Z"
fill-rule="evenodd" fill="black"/>
<path d="M415.53 553.33L410.88 553.33 410.88 340.4 415.53 339.15 415.53 553.33Z"
fill-rule="evenodd" fill="black"/>
<path d="M415.53 339.15L410.88 340.4 365.26 261.39 369.29 259.06 415.53 339.15Z"
fill-rule="evenodd" fill="black"/>
<path d="M415.53 260.23L410.88 260.23 410.88 46.67 415.53 46.67 415.53 260.23Z"
fill-rule="evenodd" fill="black"/>
<path d="M402.56 252.87L405.85 249.58 423.85 267.58 420.56 270.87 402.56 252.87Z"
fill-rule="evenodd" fill="black"/>
<path d="M420.56 249.58L423.85 252.87 405.85 270.87 402.56 267.58 420.56 249.58Z"
fill-rule="evenodd" fill="black"/>
<path d="M410.88 1.7L415.53 1.7 415.53 33.42 410.88 33.42 410.88 1.7Z"
fill-rule="evenodd" fill="black"/>
<path d="M394.96 54.95L391.67 51.66 413.2 30.13 413.2 36.7 394.96 54.95Z"
fill-rule="evenodd" fill="black"/>
<path d="M413.2 36.7L413.2 30.13 434.74 51.66 431.45 54.95 413.2 36.7Z"
fill-rule="evenodd" fill="black"/>
<path d="M394.96 68.2L391.67 64.92 413.2 43.39 413.2 49.96 394.96 68.2Z"
fill-rule="evenodd" fill="black"/>
<path d="M413.2 49.96L413.2 43.39 434.74 64.92 431.45 68.2 413.2 49.96Z"
fill-rule="evenodd" fill="black"/>
</svg>
