<?xml version="1.0" encoding="UTF-8"?>
<svg xmlns="http://www.w3.org/2000/svg" width="800.000" height="600.000" viewBox="0.0 0.0 800.000 600.000" version="1.1">
  <title>Produce by Acme CAD Converter</title>
  <desc>Produce by Acme CAD Converter</desc>
<path d="M231.31 598.3L226.66 598.3 226.66 1.7 231.31 1.7 231.31 598.3Z"
fill-rule="evenodd" fill="black"/>
<path d="M283.22 175.64L283.22 180.29 210.9 180.29 210.9 175.64 283.22 175.64Z"
fill-rule="evenodd" fill="black"/>
<path d="M210.9 180.29L207.35 180.08 207.91 175.46 210.9 175.64 210.9 180.29Z"
fill-rule="nonzero" fill="black"/>
<path d="M207.35 180.08L203.86 179.44 204.97 174.92 207.91 175.46 207.35 180.08Z"
fill-rule="nonzero" fill="black"/>
<path d="M203.86 179.44L200.46 178.38 202.11 174.03 204.97 174.92 203.86 179.44Z"
fill-rule="nonzero" fill="black"/>
<path d="M200.46 178.38L197.22 176.92 199.38 172.8 202.11 174.03 200.46 178.38Z"
fill-rule="nonzero" fill="black"/>
<path d="M197.22 176.92L194.18 175.08 196.82 171.25 199.38 172.8 197.22 176.92Z"
fill-rule="nonzero" fill="black"/>
<path d="M194.18 175.08L191.38 172.89 194.46 169.41 196.82 171.25 194.18 175.08Z"
fill-rule="nonzero" fill="black"/>
<path d="M191.38 172.89L188.86 170.37 192.34 167.29 194.46 169.41 191.38 172.89Z"
fill-rule="nonzero" fill="black"/>
<path d="M188.86 170.37L186.67 167.57 190.5 164.93 192.34 167.29 188.86 170.37Z"
fill-rule="nonzero" fill="black"/>
<path d="M186.67 167.57L184.83 164.53 188.95 162.37 190.5 164.93 186.67 167.57Z"
fill-rule="nonzero" fill="black"/>
<path d="M184.83 164.53L183.37 161.29 187.72 159.64 188.95 162.37 184.83 164.53Z"
fill-rule="nonzero" fill="black"/>
<path d="M183.37 161.29L182.32 157.9 186.83 156.78 187.72 159.64 183.37 161.29Z"
fill-rule="nonzero" fill="black"/>
<path d="M182.32 157.9L181.68 154.4 186.29 153.84 186.83 156.78 182.32 157.9Z"
fill-rule="nonzero" fill="black"/>
<path d="M181.68 154.4L181.46 150.85 186.11 150.85 186.29 153.84 181.68 154.4Z"
fill-rule="nonzero" fill="black"/>
<path d="M181.46 150.85L181.68 147.3 186.29 147.86 186.11 150.85 181.46 150.85Z"
fill-rule="nonzero" fill="black"/>
<path d="M181.68 147.3L182.32 143.8 186.83 144.92 186.29 147.86 181.68 147.3Z"
fill-rule="nonzero" fill="black"/>
<path d="M182.32 143.8L183.37 140.41 187.72 142.06 186.83 144.92 182.32 143.8Z"
fill-rule="nonzero" fill="black"/>
<path d="M183.37 140.41L184.83 137.17 188.95 139.33 187.72 142.06 183.37 140.41Z"
fill-rule="nonzero" fill="black"/>
<path d="M184.83 137.17L186.67 134.12 190.5 136.76 188.95 139.33 184.83 137.17Z"
fill-rule="nonzero" fill="black"/>
<path d="M186.67 134.12L188.86 131.32 192.34 134.41 190.5 136.76 186.67 134.12Z"
fill-rule="nonzero" fill="black"/>
<path d="M188.86 131.32L191.38 128.81 194.46 132.29 192.34 134.41 188.86 131.32Z"
fill-rule="nonzero" fill="black"/>
<path d="M191.38 128.81L194.18 126.62 196.82 130.44 194.46 132.29 191.38 128.81Z"
fill-rule="nonzero" fill="black"/>
<path d="M194.18 126.62L197.22 124.78 199.38 128.89 196.82 130.44 194.18 126.62Z"
fill-rule="nonzero" fill="black"/>
<path d="M197.22 124.78L200.46 123.32 202.11 127.67 199.38 128.89 197.22 124.78Z"
fill-rule="nonzero" fill="black"/>
<path d="M200.46 123.32L203.86 122.26 204.97 126.78 202.11 127.67 200.46 123.32Z"
fill-rule="nonzero" fill="black"/>
<path d="M203.86 122.26L207.35 121.62 207.91 126.24 204.97 126.78 203.86 122.26Z"
fill-rule="nonzero" fill="black"/>
<path d="M207.35 121.62L210.9 121.41 210.9 126.05 207.91 126.24 207.35 121.62Z"
fill-rule="nonzero" fill="black"/>
<path d="M210.9 126.05L207.35 125.84 207.91 121.23 210.9 121.41 210.9 126.05Z"
fill-rule="nonzero" fill="black"/>
<path d="M207.35 125.84L203.86 125.2 204.97 120.69 207.91 121.23 207.35 125.84Z"
fill-rule="nonzero" fill="black"/>
<path d="M203.86 125.2L200.46 124.14 202.11 119.79 204.97 120.69 203.86 125.2Z"
fill-rule="nonzero" fill="black"/>
<path d="M200.46 124.14L197.22 122.68 199.38 118.57 202.11 119.79 200.46 124.14Z"
fill-rule="nonzero" fill="black"/>
<path d="M197.22 122.68L194.18 120.84 196.82 117.02 199.38 118.57 197.22 122.68Z"
fill-rule="nonzero" fill="black"/>
<path d="M194.18 120.84L191.38 118.65 194.46 115.17 196.82 117.02 194.18 120.84Z"
fill-rule="nonzero" fill="black"/>
<path d="M191.38 118.65L188.86 116.14 192.34 113.05 194.46 115.17 191.38 118.65Z"
fill-rule="nonzero" fill="black"/>
<path d="M188.86 116.14L186.67 113.34 190.5 110.7 192.34 113.05 188.86 116.14Z"
fill-rule="nonzero" fill="black"/>
<path d="M186.67 113.34L184.83 110.29 188.95 108.13 190.5 110.7 186.67 113.34Z"
fill-rule="nonzero" fill="black"/>
<path d="M184.83 110.29L183.37 107.05 187.72 105.4 188.95 108.13 184.83 110.29Z"
fill-rule="nonzero" fill="black"/>
<path d="M183.37 107.05L182.32 103.66 186.83 102.55 187.72 105.4 183.37 107.05Z"
fill-rule="nonzero" fill="black"/>
<path d="M182.32 103.66L181.68 100.16 186.29 99.6 186.83 102.55 182.32 103.66Z"
fill-rule="nonzero" fill="black"/>
<path d="M181.68 100.16L181.46 96.61 186.11 96.61 186.29 99.6 181.68 100.16Z"
fill-rule="nonzero" fill="black"/>
<path d="M181.46 96.61L181.68 93.06 186.29 93.62 186.11 96.61 181.46 96.61Z"
fill-rule="nonzero" fill="black"/>
<path d="M181.68 93.06L182.32 89.57 186.83 90.68 186.29 93.62 181.68 93.06Z"
fill-rule="nonzero" fill="black"/>
<path d="M182.32 89.57L183.37 86.17 187.72 87.82 186.83 90.68 182.32 89.57Z"
fill-rule="nonzero" fill="black"/>
<path d="M183.37 86.17L184.83 82.93 188.95 85.09 187.72 87.82 183.37 86.17Z"
fill-rule="nonzero" fill="black"/>
<path d="M184.83 82.93L186.67 79.89 190.5 82.53 188.95 85.09 184.83 82.93Z"
fill-rule="nonzero" fill="black"/>
<path d="M186.67 79.89L188.86 77.09 192.34 80.17 190.5 82.53 186.67 79.89Z"
fill-rule="nonzero" fill="black"/>
<path d="M188.86 77.09L191.38 74.57 194.46 78.05 192.34 80.17 188.86 77.09Z"
fill-rule="nonzero" fill="black"/>
<path d="M191.38 74.57L194.18 72.38 196.82 76.21 194.46 78.05 191.38 74.57Z"
fill-rule="nonzero" fill="black"/>
<path d="M194.18 72.38L197.22 70.54 199.38 74.66 196.82 76.21 194.18 72.38Z"
fill-rule="nonzero" fill="black"/>
<path d="M197.22 70.54L200.46 69.08 202.11 73.43 199.38 74.66 197.22 70.54Z"
fill-rule="nonzero" fill="black"/>
<path d="M200.46 69.08L203.86 68.02 204.97 72.54 202.11 73.43 200.46 69.08Z"
fill-rule="nonzero" fill="black"/>
<path d="M203.86 68.02L207.35 67.38 207.91 72 204.97 72.54 203.86 68.02Z"
fill-rule="nonzero" fill="black"/>
<path d="M207.35 67.38L210.9 67.17 210.9 71.82 207.91 72 207.35 67.38Z"
fill-rule="nonzero" fill="black"/>
<path d="M210.9 71.82L210.9 67.17 283.22 67.17 283.22 71.82 210.9 71.82Z"
fill-rule="evenodd" fill="black"/>
<path d="M283.22 293.16L283.22 297.8 210.9 297.8 210.9 293.16 283.22 293.16Z"
fill-rule="evenodd" fill="black"/>
<path d="M210.9 297.8L207.35 297.59 207.91 292.98 210.9 293.16 210.9 297.8Z"
fill-rule="nonzero" fill="black"/>
<path d="M207.35 297.59L203.86 296.95 204.97 292.44 207.91 292.98 207.35 297.59Z"
fill-rule="nonzero" fill="black"/>
<path d="M203.86 296.95L200.46 295.89 202.11 291.54 204.97 292.44 203.86 296.95Z"
fill-rule="nonzero" fill="black"/>
<path d="M200.46 295.89L197.22 294.43 199.38 290.32 202.11 291.54 200.46 295.89Z"
fill-rule="nonzero" fill="black"/>
<path d="M197.22 294.43L194.18 292.59 196.82 288.77 199.38 290.32 197.22 294.43Z"
fill-rule="nonzero" fill="black"/>
<path d="M194.18 292.59L191.38 290.4 194.46 286.92 196.82 288.77 194.18 292.59Z"
fill-rule="nonzero" fill="black"/>
<path d="M191.38 290.4L188.86 287.89 192.34 284.8 194.46 286.92 191.38 290.4Z"
fill-rule="nonzero" fill="black"/>
<path d="M188.86 287.89L186.67 285.09 190.5 282.45 192.34 284.8 188.86 287.89Z"
fill-rule="nonzero" fill="black"/>
<path d="M186.67 285.09L184.83 282.04 188.95 279.88 190.5 282.45 186.67 285.09Z"
fill-rule="nonzero" fill="black"/>
<path d="M184.83 282.04L183.37 278.8 187.72 277.15 188.95 279.88 184.83 282.04Z"
fill-rule="nonzero" fill="black"/>
<path d="M183.37 278.8L182.32 275.41 186.83 274.3 187.72 277.15 183.37 278.8Z"
fill-rule="nonzero" fill="black"/>
<path d="M182.32 275.41L181.68 271.91 186.29 271.35 186.83 274.3 182.32 275.41Z"
fill-rule="nonzero" fill="black"/>
<path d="M181.68 271.91L181.46 268.36 186.11 268.36 186.29 271.35 181.68 271.91Z"
fill-rule="nonzero" fill="black"/>
<path d="M181.46 268.36L181.68 264.81 186.29 265.37 186.11 268.36 181.46 268.36Z"
fill-rule="nonzero" fill="black"/>
<path d="M181.68 264.81L182.32 261.32 186.83 262.43 186.29 265.37 181.68 264.81Z"
fill-rule="nonzero" fill="black"/>
<path d="M182.32 261.32L183.37 257.92 187.72 259.57 186.83 262.43 182.32 261.32Z"
fill-rule="nonzero" fill="black"/>
<path d="M183.37 257.92L184.83 254.68 188.95 256.84 187.72 259.57 183.37 257.92Z"
fill-rule="nonzero" fill="black"/>
<path d="M184.83 254.68L186.67 251.64 190.5 254.28 188.95 256.84 184.83 254.68Z"
fill-rule="nonzero" fill="black"/>
<path d="M186.67 251.64L188.86 248.84 192.34 251.92 190.5 254.28 186.67 251.64Z"
fill-rule="nonzero" fill="black"/>
<path d="M188.86 248.84L191.38 246.32 194.46 249.8 192.34 251.92 188.86 248.84Z"
fill-rule="nonzero" fill="black"/>
<path d="M191.38 246.32L194.18 244.13 196.82 247.96 194.46 249.8 191.38 246.32Z"
fill-rule="nonzero" fill="black"/>
<path d="M194.18 244.13L197.22 242.29 199.38 246.41 196.82 247.96 194.18 244.13Z"
fill-rule="nonzero" fill="black"/>
<path d="M197.22 242.29L200.46 240.83 202.11 245.18 199.38 246.41 197.22 242.29Z"
fill-rule="nonzero" fill="black"/>
<path d="M200.46 240.83L203.86 239.77 204.97 244.29 202.11 245.18 200.46 240.83Z"
fill-rule="nonzero" fill="black"/>
<path d="M203.86 239.77L207.35 239.13 207.91 243.75 204.97 244.29 203.86 239.77Z"
fill-rule="nonzero" fill="black"/>
<path d="M207.35 239.13L210.9 238.92 210.9 243.57 207.91 243.75 207.35 239.13Z"
fill-rule="nonzero" fill="black"/>
<path d="M210.9 243.57L207.35 243.35 207.91 238.74 210.9 238.92 210.9 243.57Z"
fill-rule="nonzero" fill="black"/>
<path d="M207.35 243.35L203.86 242.71 204.97 238.2 207.91 238.74 207.35 243.35Z"
fill-rule="nonzero" fill="black"/>
<path d="M203.86 242.71L200.46 241.65 202.11 237.31 204.97 238.2 203.86 242.71Z"
fill-rule="nonzero" fill="black"/>
<path d="M200.46 241.65L197.22 240.2 199.38 236.08 202.11 237.31 200.46 241.65Z"
fill-rule="nonzero" fill="black"/>
<path d="M197.22 240.2L194.18 238.36 196.82 234.53 199.38 236.08 197.22 240.2Z"
fill-rule="nonzero" fill="black"/>
<path d="M194.18 238.36L191.38 236.16 194.46 232.68 196.82 234.53 194.18 238.36Z"
fill-rule="nonzero" fill="black"/>
<path d="M191.38 236.16L188.86 233.65 192.34 230.57 194.46 232.68 191.38 236.16Z"
fill-rule="nonzero" fill="black"/>
<path d="M188.86 233.65L186.67 230.85 190.5 228.21 192.34 230.57 188.86 233.65Z"
fill-rule="nonzero" fill="black"/>
<path d="M186.67 230.85L184.83 227.81 188.95 225.65 190.5 228.21 186.67 230.85Z"
fill-rule="nonzero" fill="black"/>
<path d="M184.83 227.81L183.37 224.57 187.72 222.92 188.95 225.65 184.83 227.81Z"
fill-rule="nonzero" fill="black"/>
<path d="M183.37 224.57L182.32 221.17 186.83 220.06 187.72 222.92 183.37 224.57Z"
fill-rule="nonzero" fill="black"/>
<path d="M182.32 221.17L181.68 217.67 186.29 217.11 186.83 220.06 182.32 221.17Z"
fill-rule="nonzero" fill="black"/>
<path d="M181.68 217.67L181.46 214.13 186.11 214.13 186.29 217.11 181.68 217.67Z"
fill-rule="nonzero" fill="black"/>
<path d="M181.46 214.13L181.68 210.58 186.29 211.14 186.11 214.13 181.46 214.13Z"
fill-rule="nonzero" fill="black"/>
<path d="M181.68 210.58L182.32 207.08 186.83 208.19 186.29 211.14 181.68 210.58Z"
fill-rule="nonzero" fill="black"/>
<path d="M182.32 207.08L183.37 203.68 187.72 205.33 186.83 208.19 182.32 207.08Z"
fill-rule="nonzero" fill="black"/>
<path d="M183.37 203.68L184.83 200.44 188.95 202.6 187.72 205.33 183.37 203.68Z"
fill-rule="nonzero" fill="black"/>
<path d="M184.83 200.44L186.67 197.4 190.5 200.04 188.95 202.6 184.83 200.44Z"
fill-rule="nonzero" fill="black"/>
<path d="M186.67 197.4L188.86 194.6 192.34 197.68 190.5 200.04 186.67 197.4Z"
fill-rule="nonzero" fill="black"/>
<path d="M188.86 194.6L191.38 192.09 194.46 195.57 192.34 197.68 188.86 194.6Z"
fill-rule="nonzero" fill="black"/>
<path d="M191.38 192.09L194.18 189.89 196.82 193.72 194.46 195.57 191.38 192.09Z"
fill-rule="nonzero" fill="black"/>
<path d="M194.18 189.89L197.22 188.05 199.38 192.17 196.82 193.72 194.18 189.89Z"
fill-rule="nonzero" fill="black"/>
<path d="M197.22 188.05L200.46 186.6 202.11 190.94 199.38 192.17 197.22 188.05Z"
fill-rule="nonzero" fill="black"/>
<path d="M200.46 186.6L203.86 185.54 204.97 190.05 202.11 190.94 200.46 186.6Z"
fill-rule="nonzero" fill="black"/>
<path d="M203.86 185.54L207.35 184.9 207.91 189.51 204.97 190.05 203.86 185.54Z"
fill-rule="nonzero" fill="black"/>
<path d="M207.35 184.9L210.9 184.68 210.9 189.33 207.91 189.51 207.35 184.9Z"
fill-rule="nonzero" fill="black"/>
<path d="M210.9 189.33L210.9 184.68 283.22 184.68 283.22 189.33 210.9 189.33Z"
fill-rule="evenodd" fill="black"/>
<path d="M283.22 410.67L283.22 415.32 210.9 415.32 210.9 410.67 283.22 410.67Z"
fill-rule="evenodd" fill="black"/>
<path d="M210.9 415.32L207.35 415.1 207.91 410.49 210.9 410.67 210.9 415.32Z"
fill-rule="nonzero" fill="black"/>
<path d="M207.35 415.1L203.86 414.46 204.97 409.95 207.91 410.49 207.35 415.1Z"
fill-rule="nonzero" fill="black"/>
<path d="M203.86 414.46L200.46 413.4 202.11 409.06 204.97 409.95 203.86 414.46Z"
fill-rule="nonzero" fill="black"/>
<path d="M200.46 413.4L197.22 411.95 199.38 407.83 202.11 409.06 200.46 413.4Z"
fill-rule="nonzero" fill="black"/>
<path d="M197.22 411.95L194.18 410.11 196.82 406.28 199.38 407.83 197.22 411.95Z"
fill-rule="nonzero" fill="black"/>
<path d="M194.18 410.11L191.38 407.91 194.46 404.43 196.82 406.28 194.18 410.11Z"
fill-rule="nonzero" fill="black"/>
<path d="M191.38 407.91L188.86 405.4 192.34 402.32 194.46 404.43 191.38 407.91Z"
fill-rule="nonzero" fill="black"/>
<path d="M188.86 405.4L186.67 402.6 190.5 399.96 192.34 402.32 188.86 405.4Z"
fill-rule="nonzero" fill="black"/>
<path d="M186.67 402.6L184.83 399.56 188.95 397.4 190.5 399.96 186.67 402.6Z"
fill-rule="nonzero" fill="black"/>
<path d="M184.83 399.56L183.37 396.32 187.72 394.67 188.95 397.4 184.83 399.56Z"
fill-rule="nonzero" fill="black"/>
<path d="M183.37 396.32L182.32 392.92 186.83 391.81 187.72 394.67 183.37 396.32Z"
fill-rule="nonzero" fill="black"/>
<path d="M182.32 392.92L181.68 389.42 186.29 388.86 186.83 391.81 182.32 392.92Z"
fill-rule="nonzero" fill="black"/>
<path d="M181.68 389.42L181.46 385.87 186.11 385.87 186.29 388.86 181.68 389.42Z"
fill-rule="nonzero" fill="black"/>
<path d="M181.46 385.87L181.68 382.33 186.29 382.89 186.11 385.87 181.46 385.87Z"
fill-rule="nonzero" fill="black"/>
<path d="M181.68 382.33L182.32 378.83 186.83 379.94 186.29 382.89 181.68 382.33Z"
fill-rule="nonzero" fill="black"/>
<path d="M182.32 378.83L183.37 375.43 187.72 377.08 186.83 379.94 182.32 378.83Z"
fill-rule="nonzero" fill="black"/>
<path d="M183.37 375.43L184.83 372.19 188.95 374.35 187.72 377.08 183.37 375.43Z"
fill-rule="nonzero" fill="black"/>
<path d="M184.83 372.19L186.67 369.15 190.5 371.79 188.95 374.35 184.83 372.19Z"
fill-rule="nonzero" fill="black"/>
<path d="M186.67 369.15L188.86 366.35 192.34 369.43 190.5 371.79 186.67 369.15Z"
fill-rule="nonzero" fill="black"/>
<path d="M188.86 366.35L191.38 363.84 194.46 367.32 192.34 369.43 188.86 366.35Z"
fill-rule="nonzero" fill="black"/>
<path d="M191.38 363.84L194.18 361.64 196.82 365.47 194.46 367.32 191.38 363.84Z"
fill-rule="nonzero" fill="black"/>
<path d="M194.18 361.64L197.22 359.8 199.38 363.92 196.82 365.47 194.18 361.64Z"
fill-rule="nonzero" fill="black"/>
<path d="M197.22 359.8L200.46 358.35 202.11 362.69 199.38 363.92 197.22 359.8Z"
fill-rule="nonzero" fill="black"/>
<path d="M200.46 358.35L203.86 357.29 204.97 361.8 202.11 362.69 200.46 358.35Z"
fill-rule="nonzero" fill="black"/>
<path d="M203.86 357.29L207.35 356.65 207.91 361.26 204.97 361.8 203.86 357.29Z"
fill-rule="nonzero" fill="black"/>
<path d="M207.35 356.65L210.9 356.43 210.9 361.08 207.91 361.26 207.35 356.65Z"
fill-rule="nonzero" fill="black"/>
<path d="M210.9 361.08L207.35 360.87 207.91 356.25 210.9 356.43 210.9 361.08Z"
fill-rule="nonzero" fill="black"/>
<path d="M207.35 360.87L203.86 360.23 204.97 355.71 207.91 356.25 207.35 360.87Z"
fill-rule="nonzero" fill="black"/>
<path d="M203.86 360.23L200.46 359.17 202.11 354.82 204.97 355.71 203.86 360.23Z"
fill-rule="nonzero" fill="black"/>
<path d="M200.46 359.17L197.22 357.71 199.38 353.59 202.11 354.82 200.46 359.17Z"
fill-rule="nonzero" fill="black"/>
<path d="M197.22 357.71L194.18 355.87 196.82 352.04 199.38 353.59 197.22 357.71Z"
fill-rule="nonzero" fill="black"/>
<path d="M194.18 355.87L191.38 353.68 194.46 350.2 196.82 352.04 194.18 355.87Z"
fill-rule="nonzero" fill="black"/>
<path d="M191.38 353.68L188.86 351.16 192.34 348.08 194.46 350.2 191.38 353.68Z"
fill-rule="nonzero" fill="black"/>
<path d="M188.86 351.16L186.67 348.36 190.5 345.72 192.34 348.08 188.86 351.16Z"
fill-rule="nonzero" fill="black"/>
<path d="M186.67 348.36L184.83 345.32 188.95 343.16 190.5 345.72 186.67 348.36Z"
fill-rule="nonzero" fill="black"/>
<path d="M184.83 345.32L183.37 342.08 187.72 340.43 188.95 343.16 184.83 345.32Z"
fill-rule="nonzero" fill="black"/>
<path d="M183.37 342.08L182.32 338.68 186.83 337.57 187.72 340.43 183.37 342.08Z"
fill-rule="nonzero" fill="black"/>
<path d="M182.32 338.68L181.68 335.19 186.29 334.63 186.83 337.57 182.32 338.68Z"
fill-rule="nonzero" fill="black"/>
<path d="M181.68 335.19L181.46 331.64 186.11 331.64 186.29 334.63 181.68 335.19Z"
fill-rule="nonzero" fill="black"/>
<path d="M181.46 331.64L181.68 328.09 186.29 328.65 186.11 331.64 181.46 331.64Z"
fill-rule="nonzero" fill="black"/>
<path d="M181.68 328.09L182.32 324.59 186.83 325.7 186.29 328.65 181.68 328.09Z"
fill-rule="nonzero" fill="black"/>
<path d="M182.32 324.59L183.37 321.2 187.72 322.85 186.83 325.7 182.32 324.59Z"
fill-rule="nonzero" fill="black"/>
<path d="M183.37 321.2L184.83 317.96 188.95 320.12 187.72 322.85 183.37 321.2Z"
fill-rule="nonzero" fill="black"/>
<path d="M184.83 317.96L186.67 314.91 190.5 317.55 188.95 320.12 184.83 317.96Z"
fill-rule="nonzero" fill="black"/>
<path d="M186.67 314.91L188.86 312.11 192.34 315.2 190.5 317.55 186.67 314.91Z"
fill-rule="nonzero" fill="black"/>
<path d="M188.86 312.11L191.38 309.6 194.46 313.08 192.34 315.2 188.86 312.11Z"
fill-rule="nonzero" fill="black"/>
<path d="M191.38 309.6L194.18 307.41 196.82 311.23 194.46 313.08 191.38 309.6Z"
fill-rule="nonzero" fill="black"/>
<path d="M194.18 307.41L197.22 305.57 199.38 309.68 196.82 311.23 194.18 307.41Z"
fill-rule="nonzero" fill="black"/>
<path d="M197.22 305.57L200.46 304.11 202.11 308.46 199.38 309.68 197.22 305.57Z"
fill-rule="nonzero" fill="black"/>
<path d="M200.46 304.11L203.86 303.05 204.97 307.56 202.11 308.46 200.46 304.11Z"
fill-rule="nonzero" fill="black"/>
<path d="M203.86 303.05L207.35 302.41 207.91 307.02 204.97 307.56 203.86 303.05Z"
fill-rule="nonzero" fill="black"/>
<path d="M207.35 302.41L210.9 302.2 210.9 306.84 207.91 307.02 207.35 302.41Z"
fill-rule="nonzero" fill="black"/>
<path d="M210.9 306.84L210.9 302.2 283.22 302.2 283.22 306.84 210.9 306.84Z"
fill-rule="evenodd" fill="black"/>
<path d="M283.22 528.18L283.22 532.83 210.9 532.83 210.9 528.18 283.22 528.18Z"
fill-rule="evenodd" fill="black"/>
<path d="M210.9 532.83L207.35 532.62 207.91 528 210.9 528.18 210.9 532.83Z"
fill-rule="nonzero" fill="black"/>
<path d="M207.35 532.62L203.86 531.98 204.97 527.46 207.91 528 207.35 532.62Z"
fill-rule="nonzero" fill="black"/>
<path d="M203.86 531.98L200.46 530.92 202.11 526.57 204.97 527.46 203.86 531.98Z"
fill-rule="nonzero" fill="black"/>
<path d="M200.46 530.92L197.22 529.46 199.38 525.34 202.11 526.57 200.46 530.92Z"
fill-rule="nonzero" fill="black"/>
<path d="M197.22 529.46L194.18 527.62 196.82 523.79 199.38 525.34 197.22 529.46Z"
fill-rule="nonzero" fill="black"/>
<path d="M194.18 527.62L191.38 525.43 194.46 521.95 196.82 523.79 194.18 527.62Z"
fill-rule="nonzero" fill="black"/>
<path d="M191.38 525.43L188.86 522.91 192.34 519.83 194.46 521.95 191.38 525.43Z"
fill-rule="nonzero" fill="black"/>
<path d="M188.86 522.91L186.67 520.11 190.5 517.47 192.34 519.83 188.86 522.91Z"
fill-rule="nonzero" fill="black"/>
<path d="M186.67 520.11L184.83 517.07 188.95 514.91 190.5 517.47 186.67 520.11Z"
fill-rule="nonzero" fill="black"/>
<path d="M184.83 517.07L183.37 513.83 187.72 512.18 188.95 514.91 184.83 517.07Z"
fill-rule="nonzero" fill="black"/>
<path d="M183.37 513.83L182.32 510.43 186.83 509.32 187.72 512.18 183.37 513.83Z"
fill-rule="nonzero" fill="black"/>
<path d="M182.32 510.43L181.68 506.94 186.29 506.38 186.83 509.32 182.32 510.43Z"
fill-rule="nonzero" fill="black"/>
<path d="M181.68 506.94L181.46 503.39 186.11 503.39 186.29 506.38 181.68 506.94Z"
fill-rule="nonzero" fill="black"/>
<path d="M181.46 503.39L181.68 499.84 186.29 500.4 186.11 503.39 181.46 503.39Z"
fill-rule="nonzero" fill="black"/>
<path d="M181.68 499.84L182.32 496.34 186.83 497.45 186.29 500.4 181.68 499.84Z"
fill-rule="nonzero" fill="black"/>
<path d="M182.32 496.34L183.37 492.95 187.72 494.6 186.83 497.45 182.32 496.34Z"
fill-rule="nonzero" fill="black"/>
<path d="M183.37 492.95L184.83 489.71 188.95 491.87 187.72 494.6 183.37 492.95Z"
fill-rule="nonzero" fill="black"/>
<path d="M184.83 489.71L186.67 486.66 190.5 489.3 188.95 491.87 184.83 489.71Z"
fill-rule="nonzero" fill="black"/>
<path d="M186.67 486.66L188.86 483.86 192.34 486.95 190.5 489.3 186.67 486.66Z"
fill-rule="nonzero" fill="black"/>
<path d="M188.86 483.86L191.38 481.35 194.46 484.83 192.34 486.95 188.86 483.86Z"
fill-rule="nonzero" fill="black"/>
<path d="M191.38 481.35L194.18 479.16 196.82 482.98 194.46 484.83 191.38 481.35Z"
fill-rule="nonzero" fill="black"/>
<path d="M194.18 479.16L197.22 477.32 199.38 481.43 196.82 482.98 194.18 479.16Z"
fill-rule="nonzero" fill="black"/>
<path d="M197.22 477.32L200.46 475.86 202.11 480.21 199.38 481.43 197.22 477.32Z"
fill-rule="nonzero" fill="black"/>
<path d="M200.46 475.86L203.86 474.8 204.97 479.31 202.11 480.21 200.46 475.86Z"
fill-rule="nonzero" fill="black"/>
<path d="M203.86 474.8L207.35 474.16 207.91 478.77 204.97 479.31 203.86 474.8Z"
fill-rule="nonzero" fill="black"/>
<path d="M207.35 474.16L210.9 473.95 210.9 478.59 207.91 478.77 207.35 474.16Z"
fill-rule="nonzero" fill="black"/>
<path d="M210.9 478.59L207.35 478.38 207.91 473.76 210.9 473.95 210.9 478.59Z"
fill-rule="nonzero" fill="black"/>
<path d="M207.35 478.38L203.86 477.74 204.97 473.22 207.91 473.76 207.35 478.38Z"
fill-rule="nonzero" fill="black"/>
<path d="M203.86 477.74L200.46 476.68 202.11 472.33 204.97 473.22 203.86 477.74Z"
fill-rule="nonzero" fill="black"/>
<path d="M200.46 476.68L197.22 475.22 199.38 471.11 202.11 472.33 200.46 476.68Z"
fill-rule="nonzero" fill="black"/>
<path d="M197.22 475.22L194.18 473.38 196.82 469.56 199.38 471.11 197.22 475.22Z"
fill-rule="nonzero" fill="black"/>
<path d="M194.18 473.38L191.38 471.19 194.46 467.71 196.82 469.56 194.18 473.38Z"
fill-rule="nonzero" fill="black"/>
<path d="M191.38 471.19L188.86 468.68 192.34 465.59 194.46 467.71 191.38 471.19Z"
fill-rule="nonzero" fill="black"/>
<path d="M188.86 468.68L186.67 465.88 190.5 463.24 192.34 465.59 188.86 468.68Z"
fill-rule="nonzero" fill="black"/>
<path d="M186.67 465.88L184.83 462.83 188.95 460.67 190.5 463.24 186.67 465.88Z"
fill-rule="nonzero" fill="black"/>
<path d="M184.83 462.83L183.37 459.59 187.72 457.94 188.95 460.67 184.83 462.83Z"
fill-rule="nonzero" fill="black"/>
<path d="M183.37 459.59L182.32 456.2 186.83 455.08 187.72 457.94 183.37 459.59Z"
fill-rule="nonzero" fill="black"/>
<path d="M182.32 456.2L181.68 452.7 186.29 452.14 186.83 455.08 182.32 456.2Z"
fill-rule="nonzero" fill="black"/>
<path d="M181.68 452.7L181.46 449.15 186.11 449.15 186.29 452.14 181.68 452.7Z"
fill-rule="nonzero" fill="black"/>
<path d="M181.46 449.15L181.68 445.6 186.29 446.16 186.11 449.15 181.46 449.15Z"
fill-rule="nonzero" fill="black"/>
<path d="M181.68 445.6L182.32 442.1 186.83 443.22 186.29 446.16 181.68 445.6Z"
fill-rule="nonzero" fill="black"/>
<path d="M182.32 442.1L183.37 438.71 187.72 440.36 186.83 443.22 182.32 442.1Z"
fill-rule="nonzero" fill="black"/>
<path d="M183.37 438.71L184.83 435.47 188.95 437.63 187.72 440.36 183.37 438.71Z"
fill-rule="nonzero" fill="black"/>
<path d="M184.83 435.47L186.67 432.43 190.5 435.07 188.95 437.63 184.83 435.47Z"
fill-rule="nonzero" fill="black"/>
<path d="M186.67 432.43L188.86 429.63 192.34 432.71 190.5 435.07 186.67 432.43Z"
fill-rule="nonzero" fill="black"/>
<path d="M188.86 429.63L191.38 427.11 194.46 430.59 192.34 432.71 188.86 429.63Z"
fill-rule="nonzero" fill="black"/>
<path d="M191.38 427.11L194.18 424.92 196.82 428.75 194.46 430.59 191.38 427.11Z"
fill-rule="nonzero" fill="black"/>
<path d="M194.18 424.92L197.22 423.08 199.38 427.2 196.82 428.75 194.18 424.92Z"
fill-rule="nonzero" fill="black"/>
<path d="M197.22 423.08L200.46 421.62 202.11 425.97 199.38 427.2 197.22 423.08Z"
fill-rule="nonzero" fill="black"/>
<path d="M200.46 421.62L203.86 420.56 204.97 425.08 202.11 425.97 200.46 421.62Z"
fill-rule="nonzero" fill="black"/>
<path d="M203.86 420.56L207.35 419.92 207.91 424.54 204.97 425.08 203.86 420.56Z"
fill-rule="nonzero" fill="black"/>
<path d="M207.35 419.92L210.9 419.71 210.9 424.36 207.91 424.54 207.35 419.92Z"
fill-rule="nonzero" fill="black"/>
<path d="M210.9 424.36L210.9 419.71 283.22 419.71 283.22 424.36 210.9 424.36Z"
fill-rule="evenodd" fill="black"/>
<path d="M228.98 53.72L231.34 53.47 230.38 48.93 228.98 49.07 228.98 53.72Z"
fill-rule="nonzero" fill="black"/>
<path d="M231.34 53.47L233.6 52.74 231.71 48.49 230.38 48.93 231.34 53.47Z"
fill-rule="nonzero" fill="black"/>
<path d="M233.6 52.74L235.66 51.55 232.92 47.79 231.71 48.49 233.6 52.74Z"
fill-rule="nonzero" fill="black"/>
<path d="M235.66 51.55L237.42 49.96 233.97 46.85 232.92 47.79 235.66 51.55Z"
fill-rule="nonzero" fill="black"/>
<path d="M237.42 49.96L238.82 48.04 234.79 45.72 233.97 46.85 237.42 49.96Z"
fill-rule="nonzero" fill="black"/>
<path d="M238.82 48.04L239.78 45.87 235.36 44.44 234.79 45.72 238.82 48.04Z"
fill-rule="nonzero" fill="black"/>
<path d="M239.78 45.87L240.27 43.55 235.65 43.07 235.36 44.44 239.78 45.87Z"
fill-rule="nonzero" fill="black"/>
<path d="M240.27 43.55L240.27 41.18 235.65 41.67 235.65 43.07 240.27 43.55Z"
fill-rule="nonzero" fill="black"/>
<path d="M240.27 41.18L239.78 38.86 235.36 40.29 235.65 41.67 240.27 41.18Z"
fill-rule="nonzero" fill="black"/>
<path d="M239.78 38.86L238.82 36.69 234.79 39.01 235.36 40.29 239.78 38.86Z"
fill-rule="nonzero" fill="black"/>
<path d="M238.82 36.69L237.42 34.77 233.97 37.88 234.79 39.01 238.82 36.69Z"
fill-rule="nonzero" fill="black"/>
<path d="M237.42 34.77L235.66 33.18 232.92 36.94 233.97 37.88 237.42 34.77Z"
fill-rule="nonzero" fill="black"/>
<path d="M235.66 33.18L233.6 31.99 231.71 36.24 232.92 36.94 235.66 33.18Z"
fill-rule="nonzero" fill="black"/>
<path d="M233.6 31.99L231.34 31.26 230.38 35.81 231.71 36.24 233.6 31.99Z"
fill-rule="nonzero" fill="black"/>
<path d="M231.34 31.26L228.98 31.01 228.98 35.66 230.38 35.81 231.34 31.26Z"
fill-rule="nonzero" fill="black"/>
<path d="M228.98 31.01L226.62 31.26 227.59 35.81 228.98 35.66 228.98 31.01Z"
fill-rule="nonzero" fill="black"/>
<path d="M226.62 31.26L224.36 31.99 226.25 36.24 227.59 35.81 226.62 31.26Z"
fill-rule="nonzero" fill="black"/>
<path d="M224.36 31.99L222.3 33.18 225.04 36.94 226.25 36.24 224.36 31.99Z"
fill-rule="nonzero" fill="black"/>
<path d="M222.3 33.18L220.54 34.77 223.99 37.88 225.04 36.94 222.3 33.18Z"
fill-rule="nonzero" fill="black"/>
<path d="M220.54 34.77L219.14 36.69 223.17 39.02 223.99 37.88 220.54 34.77Z"
fill-rule="nonzero" fill="black"/>
<path d="M219.14 36.69L218.17 38.86 222.6 40.3 223.17 39.02 219.14 36.69Z"
fill-rule="nonzero" fill="black"/>
<path d="M218.17 38.86L217.68 41.19 222.3 41.67 222.6 40.3 218.17 38.86Z"
fill-rule="nonzero" fill="black"/>
<path d="M217.68 41.19L217.68 43.56 222.3 43.08 222.3 41.67 217.68 41.19Z"
fill-rule="nonzero" fill="black"/>
<path d="M217.68 43.56L218.17 45.89 222.6 44.45 222.3 43.08 217.68 43.56Z"
fill-rule="nonzero" fill="black"/>
<path d="M218.17 45.89L219.14 48.06 223.17 45.73 222.6 44.45 218.17 45.89Z"
fill-rule="nonzero" fill="black"/>
<path d="M219.14 48.06L220.54 49.98 223.99 46.87 223.17 45.73 219.14 48.06Z"
fill-rule="nonzero" fill="black"/>
<path d="M220.54 49.98L222.3 51.57 225.04 47.81 223.99 46.87 220.54 49.98Z"
fill-rule="nonzero" fill="black"/>
<path d="M222.3 51.57L224.36 52.76 226.25 48.51 225.04 47.81 222.3 51.57Z"
fill-rule="nonzero" fill="black"/>
<path d="M224.36 52.76L226.62 53.49 227.59 48.94 226.25 48.51 224.36 52.76Z"
fill-rule="nonzero" fill="black"/>
<path d="M226.62 53.49L228.98 53.74 228.98 49.09 227.59 48.94 226.62 53.49Z"
fill-rule="nonzero" fill="black"/>
<path d="M228.98 568.97L231.34 568.72 230.38 564.17 228.98 564.32 228.98 568.97Z"
fill-rule="nonzero" fill="black"/>
<path d="M231.34 568.72L233.6 567.99 231.71 563.74 230.38 564.17 231.34 568.72Z"
fill-rule="nonzero" fill="black"/>
<path d="M233.6 567.99L235.66 566.8 232.92 563.04 231.71 563.74 233.6 567.99Z"
fill-rule="nonzero" fill="black"/>
<path d="M235.66 566.8L237.42 565.21 233.97 562.1 232.92 563.04 235.66 566.8Z"
fill-rule="nonzero" fill="black"/>
<path d="M237.42 565.21L238.82 563.29 234.79 560.97 233.97 562.1 237.42 565.21Z"
fill-rule="nonzero" fill="black"/>
<path d="M238.82 563.29L239.78 561.12 235.36 559.69 234.79 560.97 238.82 563.29Z"
fill-rule="nonzero" fill="black"/>
<path d="M239.78 561.12L240.27 558.8 235.65 558.32 235.36 559.69 239.78 561.12Z"
fill-rule="nonzero" fill="black"/>
<path d="M240.27 558.8L240.27 556.43 235.65 556.91 235.65 558.32 240.27 558.8Z"
fill-rule="nonzero" fill="black"/>
<path d="M240.27 556.43L239.78 554.11 235.36 555.54 235.65 556.91 240.27 556.43Z"
fill-rule="nonzero" fill="black"/>
<path d="M239.78 554.11L238.82 551.94 234.79 554.26 235.36 555.54 239.78 554.11Z"
fill-rule="nonzero" fill="black"/>
<path d="M238.82 551.94L237.42 550.02 233.97 553.13 234.79 554.26 238.82 551.94Z"
fill-rule="nonzero" fill="black"/>
<path d="M237.42 550.02L235.66 548.43 232.92 552.19 233.97 553.13 237.42 550.02Z"
fill-rule="nonzero" fill="black"/>
<path d="M235.66 548.43L233.6 547.24 231.71 551.49 232.92 552.19 235.66 548.43Z"
fill-rule="nonzero" fill="black"/>
<path d="M233.6 547.24L231.34 546.51 230.38 551.06 231.71 551.49 233.6 547.24Z"
fill-rule="nonzero" fill="black"/>
<path d="M231.34 546.51L228.98 546.26 228.98 550.91 230.38 551.06 231.34 546.51Z"
fill-rule="nonzero" fill="black"/>
<path d="M228.98 546.26L226.62 546.51 227.59 551.06 228.98 550.91 228.98 546.26Z"
fill-rule="nonzero" fill="black"/>
<path d="M226.62 546.51L224.36 547.24 226.25 551.49 227.59 551.06 226.62 546.51Z"
fill-rule="nonzero" fill="black"/>
<path d="M224.36 547.24L222.3 548.43 225.04 552.19 226.25 551.49 224.36 547.24Z"
fill-rule="nonzero" fill="black"/>
<path d="M222.3 548.43L220.54 550.02 223.99 553.13 225.04 552.19 222.3 548.43Z"
fill-rule="nonzero" fill="black"/>
<path d="M220.54 550.02L219.14 551.94 223.17 554.27 223.99 553.13 220.54 550.02Z"
fill-rule="nonzero" fill="black"/>
<path d="M219.14 551.94L218.17 554.11 222.6 555.55 223.17 554.27 219.14 551.94Z"
fill-rule="nonzero" fill="black"/>
<path d="M218.17 554.11L217.68 556.44 222.3 556.92 222.6 555.55 218.17 554.11Z"
fill-rule="nonzero" fill="black"/>
<path d="M217.68 556.44L217.68 558.81 222.3 558.33 222.3 556.92 217.68 556.44Z"
fill-rule="nonzero" fill="black"/>
<path d="M217.68 558.81L218.17 561.14 222.6 559.7 222.3 558.33 217.68 558.81Z"
fill-rule="nonzero" fill="black"/>
<path d="M218.17 561.14L219.14 563.31 223.17 560.98 222.6 559.7 218.17 561.14Z"
fill-rule="nonzero" fill="black"/>
<path d="M219.14 563.31L220.54 565.23 223.99 562.12 223.17 560.98 219.14 563.31Z"
fill-rule="nonzero" fill="black"/>
<path d="M220.54 565.23L222.3 566.82 225.04 563.06 223.99 562.12 220.54 565.23Z"
fill-rule="nonzero" fill="black"/>
<path d="M222.3 566.82L224.36 568.01 226.25 563.76 225.04 563.06 222.3 566.82Z"
fill-rule="nonzero" fill="black"/>
<path d="M224.36 568.01L226.62 568.74 227.59 564.19 226.25 563.76 224.36 568.01Z"
fill-rule="nonzero" fill="black"/>
<path d="M226.62 568.74L228.98 568.99 228.98 564.34 227.59 564.19 226.62 568.74Z"
fill-rule="nonzero" fill="black"/>
<path d="M393.02 598.3L388.37 598.3 388.37 1.7 393.02 1.7 393.02 598.3Z"
fill-rule="evenodd" fill="black"/>
<path d="M444.93 175.64L444.93 180.29 372.62 180.29 372.62 175.64 444.93 175.64Z"
fill-rule="evenodd" fill="black"/>
<path d="M372.62 180.29L369.07 180.08 369.63 175.46 372.62 175.64 372.62 180.29Z"
fill-rule="nonzero" fill="black"/>
<path d="M369.07 180.08L365.57 179.44 366.68 174.92 369.63 175.46 369.07 180.08Z"
fill-rule="nonzero" fill="black"/>
<path d="M365.57 179.44L362.18 178.38 363.83 174.03 366.68 174.92 365.57 179.44Z"
fill-rule="nonzero" fill="black"/>
<path d="M362.18 178.38L358.94 176.92 361.1 172.8 363.83 174.03 362.18 178.38Z"
fill-rule="nonzero" fill="black"/>
<path d="M358.94 176.92L355.89 175.08 358.53 171.25 361.1 172.8 358.94 176.92Z"
fill-rule="nonzero" fill="black"/>
<path d="M355.89 175.08L353.09 172.89 356.18 169.41 358.53 171.25 355.89 175.08Z"
fill-rule="nonzero" fill="black"/>
<path d="M353.09 172.89L350.58 170.37 354.06 167.29 356.18 169.41 353.09 172.89Z"
fill-rule="nonzero" fill="black"/>
<path d="M350.58 170.37L348.39 167.57 352.21 164.93 354.06 167.29 350.58 170.37Z"
fill-rule="nonzero" fill="black"/>
<path d="M348.39 167.57L346.55 164.53 350.66 162.37 352.21 164.93 348.39 167.57Z"
fill-rule="nonzero" fill="black"/>
<path d="M346.55 164.53L345.09 161.29 349.44 159.64 350.66 162.37 346.55 164.53Z"
fill-rule="nonzero" fill="black"/>
<path d="M345.09 161.29L344.03 157.9 348.54 156.78 349.44 159.64 345.09 161.29Z"
fill-rule="nonzero" fill="black"/>
<path d="M344.03 157.9L343.39 154.4 348 153.84 348.54 156.78 344.03 157.9Z"
fill-rule="nonzero" fill="black"/>
<path d="M343.39 154.4L343.18 150.85 347.82 150.85 348 153.84 343.39 154.4Z"
fill-rule="nonzero" fill="black"/>
<path d="M343.18 150.85L343.39 147.3 348 147.86 347.82 150.85 343.18 150.85Z"
fill-rule="nonzero" fill="black"/>
<path d="M343.39 147.3L344.03 143.8 348.54 144.92 348 147.86 343.39 147.3Z"
fill-rule="nonzero" fill="black"/>
<path d="M344.03 143.8L345.09 140.41 349.44 142.06 348.54 144.92 344.03 143.8Z"
fill-rule="nonzero" fill="black"/>
<path d="M345.09 140.41L346.55 137.17 350.66 139.33 349.44 142.06 345.09 140.41Z"
fill-rule="nonzero" fill="black"/>
<path d="M346.55 137.17L348.39 134.12 352.21 136.76 350.66 139.33 346.55 137.17Z"
fill-rule="nonzero" fill="black"/>
<path d="M348.39 134.12L350.58 131.32 354.06 134.41 352.21 136.76 348.39 134.12Z"
fill-rule="nonzero" fill="black"/>
<path d="M350.58 131.32L353.09 128.81 356.18 132.29 354.06 134.41 350.58 131.32Z"
fill-rule="nonzero" fill="black"/>
<path d="M353.09 128.81L355.89 126.62 358.53 130.44 356.18 132.29 353.09 128.81Z"
fill-rule="nonzero" fill="black"/>
<path d="M355.89 126.62L358.94 124.78 361.1 128.89 358.53 130.44 355.89 126.62Z"
fill-rule="nonzero" fill="black"/>
<path d="M358.94 124.78L362.18 123.32 363.83 127.67 361.1 128.89 358.94 124.78Z"
fill-rule="nonzero" fill="black"/>
<path d="M362.18 123.32L365.57 122.26 366.68 126.78 363.83 127.67 362.18 123.32Z"
fill-rule="nonzero" fill="black"/>
<path d="M365.57 122.26L369.07 121.62 369.63 126.24 366.68 126.78 365.57 122.26Z"
fill-rule="nonzero" fill="black"/>
<path d="M369.07 121.62L372.62 121.41 372.62 126.05 369.63 126.24 369.07 121.62Z"
fill-rule="nonzero" fill="black"/>
<path d="M372.62 126.05L369.07 125.84 369.63 121.23 372.62 121.41 372.62 126.05Z"
fill-rule="nonzero" fill="black"/>
<path d="M369.07 125.84L365.57 125.2 366.68 120.69 369.63 121.23 369.07 125.84Z"
fill-rule="nonzero" fill="black"/>
<path d="M365.57 125.2L362.18 124.14 363.83 119.79 366.68 120.69 365.57 125.2Z"
fill-rule="nonzero" fill="black"/>
<path d="M362.18 124.14L358.94 122.68 361.1 118.57 363.83 119.79 362.18 124.14Z"
fill-rule="nonzero" fill="black"/>
<path d="M358.94 122.68L355.89 120.84 358.53 117.02 361.1 118.57 358.94 122.68Z"
fill-rule="nonzero" fill="black"/>
<path d="M355.89 120.84L353.09 118.65 356.18 115.17 358.53 117.02 355.89 120.84Z"
fill-rule="nonzero" fill="black"/>
<path d="M353.09 118.65L350.58 116.14 354.06 113.05 356.18 115.17 353.09 118.65Z"
fill-rule="nonzero" fill="black"/>
<path d="M350.58 116.14L348.39 113.34 352.21 110.7 354.06 113.05 350.58 116.14Z"
fill-rule="nonzero" fill="black"/>
<path d="M348.39 113.34L346.55 110.29 350.66 108.13 352.21 110.7 348.39 113.34Z"
fill-rule="nonzero" fill="black"/>
<path d="M346.55 110.29L345.09 107.05 349.44 105.4 350.66 108.13 346.55 110.29Z"
fill-rule="nonzero" fill="black"/>
<path d="M345.09 107.05L344.03 103.66 348.54 102.55 349.44 105.4 345.09 107.05Z"
fill-rule="nonzero" fill="black"/>
<path d="M344.03 103.66L343.39 100.16 348 99.6 348.54 102.55 344.03 103.66Z"
fill-rule="nonzero" fill="black"/>
<path d="M343.39 100.16L343.18 96.61 347.82 96.61 348 99.6 343.39 100.16Z"
fill-rule="nonzero" fill="black"/>
<path d="M343.18 96.61L343.39 93.06 348 93.62 347.82 96.61 343.18 96.61Z"
fill-rule="nonzero" fill="black"/>
<path d="M343.39 93.06L344.03 89.57 348.54 90.68 348 93.62 343.39 93.06Z"
fill-rule="nonzero" fill="black"/>
<path d="M344.03 89.57L345.09 86.17 349.44 87.82 348.54 90.68 344.03 89.57Z"
fill-rule="nonzero" fill="black"/>
<path d="M345.09 86.17L346.55 82.93 350.66 85.09 349.44 87.82 345.09 86.17Z"
fill-rule="nonzero" fill="black"/>
<path d="M346.55 82.93L348.39 79.89 352.21 82.53 350.66 85.09 346.55 82.93Z"
fill-rule="nonzero" fill="black"/>
<path d="M348.39 79.89L350.58 77.09 354.06 80.17 352.21 82.53 348.39 79.89Z"
fill-rule="nonzero" fill="black"/>
<path d="M350.58 77.09L353.09 74.57 356.18 78.05 354.06 80.17 350.58 77.09Z"
fill-rule="nonzero" fill="black"/>
<path d="M353.09 74.57L355.89 72.38 358.53 76.21 356.18 78.05 353.09 74.57Z"
fill-rule="nonzero" fill="black"/>
<path d="M355.89 72.38L358.94 70.54 361.1 74.66 358.53 76.21 355.89 72.38Z"
fill-rule="nonzero" fill="black"/>
<path d="M358.94 70.54L362.18 69.08 363.83 73.43 361.1 74.66 358.94 70.54Z"
fill-rule="nonzero" fill="black"/>
<path d="M362.18 69.08L365.57 68.02 366.68 72.54 363.83 73.43 362.18 69.08Z"
fill-rule="nonzero" fill="black"/>
<path d="M365.57 68.02L369.07 67.38 369.63 72 366.68 72.54 365.57 68.02Z"
fill-rule="nonzero" fill="black"/>
<path d="M369.07 67.38L372.62 67.17 372.62 71.82 369.63 72 369.07 67.38Z"
fill-rule="nonzero" fill="black"/>
<path d="M372.62 71.82L372.62 67.17 444.93 67.17 444.93 71.82 372.62 71.82Z"
fill-rule="evenodd" fill="black"/>
<path d="M444.93 293.16L444.93 297.8 372.62 297.8 372.62 293.16 444.93 293.16Z"
fill-rule="evenodd" fill="black"/>
<path d="M372.62 297.8L369.07 297.59 369.63 292.98 372.62 293.16 372.62 297.8Z"
fill-rule="nonzero" fill="black"/>
<path d="M369.07 297.59L365.57 296.95 366.68 292.44 369.63 292.98 369.07 297.59Z"
fill-rule="nonzero" fill="black"/>
<path d="M365.57 296.95L362.18 295.89 363.83 291.54 366.68 292.44 365.57 296.95Z"
fill-rule="nonzero" fill="black"/>
<path d="M362.18 295.89L358.94 294.43 361.1 290.32 363.83 291.54 362.18 295.89Z"
fill-rule="nonzero" fill="black"/>
<path d="M358.94 294.43L355.89 292.59 358.53 288.77 361.1 290.32 358.94 294.43Z"
fill-rule="nonzero" fill="black"/>
<path d="M355.89 292.59L353.09 290.4 356.18 286.92 358.53 288.77 355.89 292.59Z"
fill-rule="nonzero" fill="black"/>
<path d="M353.09 290.4L350.58 287.89 354.06 284.8 356.18 286.92 353.09 290.4Z"
fill-rule="nonzero" fill="black"/>
<path d="M350.58 287.89L348.39 285.09 352.21 282.45 354.06 284.8 350.58 287.89Z"
fill-rule="nonzero" fill="black"/>
<path d="M348.39 285.09L346.55 282.04 350.66 279.88 352.21 282.45 348.39 285.09Z"
fill-rule="nonzero" fill="black"/>
<path d="M346.55 282.04L345.09 278.8 349.44 277.15 350.66 279.88 346.55 282.04Z"
fill-rule="nonzero" fill="black"/>
<path d="M345.09 278.8L344.03 275.41 348.54 274.3 349.44 277.15 345.09 278.8Z"
fill-rule="nonzero" fill="black"/>
<path d="M344.03 275.41L343.39 271.91 348 271.35 348.54 274.3 344.03 275.41Z"
fill-rule="nonzero" fill="black"/>
<path d="M343.39 271.91L343.18 268.36 347.82 268.36 348 271.35 343.39 271.91Z"
fill-rule="nonzero" fill="black"/>
<path d="M343.18 268.36L343.39 264.81 348 265.37 347.82 268.36 343.18 268.36Z"
fill-rule="nonzero" fill="black"/>
<path d="M343.39 264.81L344.03 261.32 348.54 262.43 348 265.37 343.39 264.81Z"
fill-rule="nonzero" fill="black"/>
<path d="M344.03 261.32L345.09 257.92 349.44 259.57 348.54 262.43 344.03 261.32Z"
fill-rule="nonzero" fill="black"/>
<path d="M345.09 257.92L346.55 254.68 350.66 256.84 349.44 259.57 345.09 257.92Z"
fill-rule="nonzero" fill="black"/>
<path d="M346.55 254.68L348.39 251.64 352.21 254.28 350.66 256.84 346.55 254.68Z"
fill-rule="nonzero" fill="black"/>
<path d="M348.39 251.64L350.58 248.84 354.06 251.92 352.21 254.28 348.39 251.64Z"
fill-rule="nonzero" fill="black"/>
<path d="M350.58 248.84L353.09 246.32 356.18 249.8 354.06 251.92 350.58 248.84Z"
fill-rule="nonzero" fill="black"/>
<path d="M353.09 246.32L355.89 244.13 358.53 247.96 356.18 249.8 353.09 246.32Z"
fill-rule="nonzero" fill="black"/>
<path d="M355.89 244.13L358.94 242.29 361.1 246.41 358.53 247.96 355.89 244.13Z"
fill-rule="nonzero" fill="black"/>
<path d="M358.94 242.29L362.18 240.83 363.83 245.18 361.1 246.41 358.94 242.29Z"
fill-rule="nonzero" fill="black"/>
<path d="M362.18 240.83L365.57 239.77 366.68 244.29 363.83 245.18 362.18 240.83Z"
fill-rule="nonzero" fill="black"/>
<path d="M365.57 239.77L369.07 239.13 369.63 243.75 366.68 244.29 365.57 239.77Z"
fill-rule="nonzero" fill="black"/>
<path d="M369.07 239.13L372.62 238.92 372.62 243.57 369.63 243.75 369.07 239.13Z"
fill-rule="nonzero" fill="black"/>
<path d="M372.62 243.57L369.07 243.35 369.63 238.74 372.62 238.92 372.62 243.57Z"
fill-rule="nonzero" fill="black"/>
<path d="M369.07 243.35L365.57 242.71 366.68 238.2 369.63 238.74 369.07 243.35Z"
fill-rule="nonzero" fill="black"/>
<path d="M365.57 242.71L362.18 241.65 363.83 237.31 366.68 238.2 365.57 242.71Z"
fill-rule="nonzero" fill="black"/>
<path d="M362.18 241.65L358.94 240.2 361.1 236.08 363.83 237.31 362.18 241.65Z"
fill-rule="nonzero" fill="black"/>
<path d="M358.94 240.2L355.89 238.36 358.53 234.53 361.1 236.08 358.94 240.2Z"
fill-rule="nonzero" fill="black"/>
<path d="M355.89 238.36L353.09 236.16 356.18 232.68 358.53 234.53 355.89 238.36Z"
fill-rule="nonzero" fill="black"/>
<path d="M353.09 236.16L350.58 233.65 354.06 230.57 356.18 232.68 353.09 236.16Z"
fill-rule="nonzero" fill="black"/>
<path d="M350.58 233.65L348.39 230.85 352.21 228.21 354.06 230.57 350.58 233.65Z"
fill-rule="nonzero" fill="black"/>
<path d="M348.39 230.85L346.55 227.81 350.66 225.65 352.21 228.21 348.39 230.85Z"
fill-rule="nonzero" fill="black"/>
<path d="M346.55 227.81L345.09 224.57 349.44 222.92 350.66 225.65 346.55 227.81Z"
fill-rule="nonzero" fill="black"/>
<path d="M345.09 224.57L344.03 221.17 348.54 220.06 349.44 222.92 345.09 224.57Z"
fill-rule="nonzero" fill="black"/>
<path d="M344.03 221.17L343.39 217.67 348 217.11 348.54 220.06 344.03 221.17Z"
fill-rule="nonzero" fill="black"/>
<path d="M343.39 217.67L343.18 214.13 347.82 214.13 348 217.11 343.39 217.67Z"
fill-rule="nonzero" fill="black"/>
<path d="M343.18 214.13L343.39 210.58 348 211.14 347.82 214.13 343.18 214.13Z"
fill-rule="nonzero" fill="black"/>
<path d="M343.39 210.58L344.03 207.08 348.54 208.19 348 211.14 343.39 210.58Z"
fill-rule="nonzero" fill="black"/>
<path d="M344.03 207.08L345.09 203.68 349.44 205.33 348.54 208.19 344.03 207.08Z"
fill-rule="nonzero" fill="black"/>
<path d="M345.09 203.68L346.55 200.44 350.66 202.6 349.44 205.33 345.09 203.68Z"
fill-rule="nonzero" fill="black"/>
<path d="M346.55 200.44L348.39 197.4 352.21 200.04 350.66 202.6 346.55 200.44Z"
fill-rule="nonzero" fill="black"/>
<path d="M348.39 197.4L350.58 194.6 354.06 197.68 352.21 200.04 348.39 197.4Z"
fill-rule="nonzero" fill="black"/>
<path d="M350.58 194.6L353.09 192.09 356.18 195.57 354.06 197.68 350.58 194.6Z"
fill-rule="nonzero" fill="black"/>
<path d="M353.09 192.09L355.89 189.89 358.53 193.72 356.18 195.57 353.09 192.09Z"
fill-rule="nonzero" fill="black"/>
<path d="M355.89 189.89L358.94 188.05 361.1 192.17 358.53 193.72 355.89 189.89Z"
fill-rule="nonzero" fill="black"/>
<path d="M358.94 188.05L362.18 186.6 363.83 190.94 361.1 192.17 358.94 188.05Z"
fill-rule="nonzero" fill="black"/>
<path d="M362.18 186.6L365.57 185.54 366.68 190.05 363.83 190.94 362.18 186.6Z"
fill-rule="nonzero" fill="black"/>
<path d="M365.57 185.54L369.07 184.9 369.63 189.51 366.68 190.05 365.57 185.54Z"
fill-rule="nonzero" fill="black"/>
<path d="M369.07 184.9L372.62 184.68 372.62 189.33 369.63 189.51 369.07 184.9Z"
fill-rule="nonzero" fill="black"/>
<path d="M372.62 189.33L372.62 184.68 444.93 184.68 444.93 189.33 372.62 189.33Z"
fill-rule="evenodd" fill="black"/>
<path d="M444.93 410.67L444.93 415.32 372.62 415.32 372.62 410.67 444.93 410.67Z"
fill-rule="evenodd" fill="black"/>
<path d="M372.62 415.32L369.07 415.1 369.63 410.49 372.62 410.67 372.62 415.32Z"
fill-rule="nonzero" fill="black"/>
<path d="M369.07 415.1L365.57 414.46 366.68 409.95 369.63 410.49 369.07 415.1Z"
fill-rule="nonzero" fill="black"/>
<path d="M365.57 414.46L362.18 413.4 363.83 409.06 366.68 409.95 365.57 414.46Z"
fill-rule="nonzero" fill="black"/>
<path d="M362.18 413.4L358.94 411.95 361.1 407.83 363.83 409.06 362.18 413.4Z"
fill-rule="nonzero" fill="black"/>
<path d="M358.94 411.95L355.89 410.11 358.53 406.28 361.1 407.83 358.94 411.95Z"
fill-rule="nonzero" fill="black"/>
<path d="M355.89 410.11L353.09 407.91 356.18 404.43 358.53 406.28 355.89 410.11Z"
fill-rule="nonzero" fill="black"/>
<path d="M353.09 407.91L350.58 405.4 354.06 402.32 356.18 404.43 353.09 407.91Z"
fill-rule="nonzero" fill="black"/>
<path d="M350.58 405.4L348.39 402.6 352.21 399.96 354.06 402.32 350.58 405.4Z"
fill-rule="nonzero" fill="black"/>
<path d="M348.39 402.6L346.55 399.56 350.66 397.4 352.21 399.96 348.39 402.6Z"
fill-rule="nonzero" fill="black"/>
<path d="M346.55 399.56L345.09 396.32 349.44 394.67 350.66 397.4 346.55 399.56Z"
fill-rule="nonzero" fill="black"/>
<path d="M345.09 396.32L344.03 392.92 348.54 391.81 349.44 394.67 345.09 396.32Z"
fill-rule="nonzero" fill="black"/>
<path d="M344.03 392.92L343.39 389.42 348 388.86 348.54 391.81 344.03 392.92Z"
fill-rule="nonzero" fill="black"/>
<path d="M343.39 389.42L343.18 385.87 347.82 385.87 348 388.86 343.39 389.42Z"
fill-rule="nonzero" fill="black"/>
<path d="M343.18 385.87L343.39 382.33 348 382.89 347.82 385.87 343.18 385.87Z"
fill-rule="nonzero" fill="black"/>
<path d="M343.39 382.33L344.03 378.83 348.54 379.94 348 382.89 343.39 382.33Z"
fill-rule="nonzero" fill="black"/>
<path d="M344.03 378.83L345.09 375.43 349.44 377.08 348.54 379.94 344.03 378.83Z"
fill-rule="nonzero" fill="black"/>
<path d="M345.09 375.43L346.55 372.19 350.66 374.35 349.44 377.08 345.09 375.43Z"
fill-rule="nonzero" fill="black"/>
<path d="M346.55 372.19L348.39 369.15 352.21 371.79 350.66 374.35 346.55 372.19Z"
fill-rule="nonzero" fill="black"/>
<path d="M348.39 369.15L350.58 366.35 354.06 369.43 352.21 371.79 348.39 369.15Z"
fill-rule="nonzero" fill="black"/>
<path d="M350.58 366.35L353.09 363.84 356.18 367.32 354.06 369.43 350.58 366.35Z"
fill-rule="nonzero" fill="black"/>
<path d="M353.09 363.84L355.89 361.64 358.53 365.47 356.18 367.32 353.09 363.84Z"
fill-rule="nonzero" fill="black"/>
<path d="M355.89 361.64L358.94 359.8 361.1 363.92 358.53 365.47 355.89 361.64Z"
fill-rule="nonzero" fill="black"/>
<path d="M358.94 359.8L362.18 358.35 363.83 362.69 361.1 363.92 358.94 359.8Z"
fill-rule="nonzero" fill="black"/>
<path d="M362.18 358.35L365.57 357.29 366.68 361.8 363.83 362.69 362.18 358.35Z"
fill-rule="nonzero" fill="black"/>
<path d="M365.57 357.29L369.07 356.65 369.63 361.26 366.68 361.8 365.57 357.29Z"
fill-rule="nonzero" fill="black"/>
<path d="M369.07 356.65L372.62 356.43 372.62 361.08 369.63 361.26 369.07 356.65Z"
fill-rule="nonzero" fill="black"/>
<path d="M372.62 361.08L369.07 360.87 369.63 356.25 372.62 356.43 372.62 361.08Z"
fill-rule="nonzero" fill="black"/>
<path d="M369.07 360.87L365.57 360.23 366.68 355.71 369.63 356.25 369.07 360.87Z"
fill-rule="nonzero" fill="black"/>
<path d="M365.57 360.23L362.18 359.17 363.83 354.82 366.68 355.71 365.57 360.23Z"
fill-rule="nonzero" fill="black"/>
<path d="M362.18 359.17L358.94 357.71 361.1 353.59 363.83 354.82 362.18 359.17Z"
fill-rule="nonzero" fill="black"/>
<path d="M358.94 357.71L355.89 355.87 358.53 352.04 361.1 353.59 358.94 357.71Z"
fill-rule="nonzero" fill="black"/>
<path d="M355.89 355.87L353.09 353.68 356.18 350.2 358.53 352.04 355.89 355.87Z"
fill-rule="nonzero" fill="black"/>
<path d="M353.09 353.68L350.58 351.16 354.06 348.08 356.18 350.2 353.09 353.68Z"
fill-rule="nonzero" fill="black"/>
<path d="M350.58 351.16L348.39 348.36 352.21 345.72 354.06 348.08 350.58 351.16Z"
fill-rule="nonzero" fill="black"/>
<path d="M348.39 348.36L346.55 345.32 350.66 343.16 352.21 345.72 348.39 348.36Z"
fill-rule="nonzero" fill="black"/>
<path d="M346.55 345.32L345.09 342.08 349.44 340.43 350.66 343.16 346.55 345.32Z"
fill-rule="nonzero" fill="black"/>
<path d="M345.09 342.08L344.03 338.68 348.54 337.57 349.44 340.43 345.09 342.08Z"
fill-rule="nonzero" fill="black"/>
<path d="M344.03 338.68L343.39 335.19 348 334.63 348.54 337.57 344.03 338.68Z"
fill-rule="nonzero" fill="black"/>
<path d="M343.39 335.19L343.18 331.64 347.82 331.64 348 334.63 343.39 335.19Z"
fill-rule="nonzero" fill="black"/>
<path d="M343.18 331.64L343.39 328.09 348 328.65 347.82 331.64 343.18 331.64Z"
fill-rule="nonzero" fill="black"/>
<path d="M343.39 328.09L344.03 324.59 348.54 325.7 348 328.65 343.39 328.09Z"
fill-rule="nonzero" fill="black"/>
<path d="M344.03 324.59L345.09 321.2 349.44 322.85 348.54 325.7 344.03 324.59Z"
fill-rule="nonzero" fill="black"/>
<path d="M345.09 321.2L346.55 317.96 350.66 320.12 349.44 322.85 345.09 321.2Z"
fill-rule="nonzero" fill="black"/>
<path d="M346.55 317.96L348.39 314.91 352.21 317.55 350.66 320.12 346.55 317.96Z"
fill-rule="nonzero" fill="black"/>
<path d="M348.39 314.91L350.58 312.11 354.06 315.2 352.21 317.55 348.39 314.91Z"
fill-rule="nonzero" fill="black"/>
<path d="M350.58 312.11L353.09 309.6 356.18 313.08 354.06 315.2 350.58 312.11Z"
fill-rule="nonzero" fill="black"/>
<path d="M353.09 309.6L355.89 307.41 358.53 311.23 356.18 313.08 353.09 309.6Z"
fill-rule="nonzero" fill="black"/>
<path d="M355.89 307.41L358.94 305.57 361.1 309.68 358.53 311.23 355.89 307.41Z"
fill-rule="nonzero" fill="black"/>
<path d="M358.94 305.57L362.18 304.11 363.83 308.46 361.1 309.68 358.94 305.57Z"
fill-rule="nonzero" fill="black"/>
<path d="M362.18 304.11L365.57 303.05 366.68 307.56 363.83 308.46 362.18 304.11Z"
fill-rule="nonzero" fill="black"/>
<path d="M365.57 303.05L369.07 302.41 369.63 307.02 366.68 307.56 365.57 303.05Z"
fill-rule="nonzero" fill="black"/>
<path d="M369.07 302.41L372.62 302.2 372.62 306.84 369.63 307.02 369.07 302.41Z"
fill-rule="nonzero" fill="black"/>
<path d="M372.62 306.84L372.62 302.2 444.93 302.2 444.93 306.84 372.62 306.84Z"
fill-rule="evenodd" fill="black"/>
<path d="M444.93 528.18L444.93 532.83 372.62 532.83 372.62 528.18 444.93 528.18Z"
fill-rule="evenodd" fill="black"/>
<path d="M372.62 532.83L369.07 532.62 369.63 528 372.62 528.18 372.62 532.83Z"
fill-rule="nonzero" fill="black"/>
<path d="M369.07 532.62L365.57 531.98 366.68 527.46 369.63 528 369.07 532.62Z"
fill-rule="nonzero" fill="black"/>
<path d="M365.57 531.98L362.18 530.92 363.83 526.57 366.68 527.46 365.57 531.98Z"
fill-rule="nonzero" fill="black"/>
<path d="M362.18 530.92L358.94 529.46 361.1 525.34 363.83 526.57 362.18 530.92Z"
fill-rule="nonzero" fill="black"/>
<path d="M358.94 529.46L355.89 527.62 358.53 523.79 361.1 525.34 358.94 529.46Z"
fill-rule="nonzero" fill="black"/>
<path d="M355.89 527.62L353.09 525.43 356.18 521.95 358.53 523.79 355.89 527.62Z"
fill-rule="nonzero" fill="black"/>
<path d="M353.09 525.43L350.58 522.91 354.06 519.83 356.18 521.95 353.09 525.43Z"
fill-rule="nonzero" fill="black"/>
<path d="M350.58 522.91L348.39 520.11 352.21 517.47 354.06 519.83 350.58 522.91Z"
fill-rule="nonzero" fill="black"/>
<path d="M348.39 520.11L346.55 517.07 350.66 514.91 352.21 517.47 348.39 520.11Z"
fill-rule="nonzero" fill="black"/>
<path d="M346.55 517.07L345.09 513.83 349.44 512.18 350.66 514.91 346.55 517.07Z"
fill-rule="nonzero" fill="black"/>
<path d="M345.09 513.83L344.03 510.43 348.54 509.32 349.44 512.18 345.09 513.83Z"
fill-rule="nonzero" fill="black"/>
<path d="M344.03 510.43L343.39 506.94 348 506.38 348.54 509.32 344.03 510.43Z"
fill-rule="nonzero" fill="black"/>
<path d="M343.39 506.94L343.18 503.39 347.82 503.39 348 506.38 343.39 506.94Z"
fill-rule="nonzero" fill="black"/>
<path d="M343.18 503.39L343.39 499.84 348 500.4 347.82 503.39 343.18 503.39Z"
fill-rule="nonzero" fill="black"/>
<path d="M343.39 499.84L344.03 496.34 348.54 497.45 348 500.4 343.39 499.84Z"
fill-rule="nonzero" fill="black"/>
<path d="M344.03 496.34L345.09 492.95 349.44 494.6 348.54 497.45 344.03 496.34Z"
fill-rule="nonzero" fill="black"/>
<path d="M345.09 492.95L346.55 489.71 350.66 491.87 349.44 494.6 345.09 492.95Z"
fill-rule="nonzero" fill="black"/>
<path d="M346.55 489.71L348.39 486.66 352.21 489.3 350.66 491.87 346.55 489.71Z"
fill-rule="nonzero" fill="black"/>
<path d="M348.39 486.66L350.58 483.86 354.06 486.95 352.21 489.3 348.39 486.66Z"
fill-rule="nonzero" fill="black"/>
<path d="M350.58 483.86L353.09 481.35 356.18 484.83 354.06 486.95 350.58 483.86Z"
fill-rule="nonzero" fill="black"/>
<path d="M353.09 481.35L355.89 479.16 358.53 482.98 356.18 484.83 353.09 481.35Z"
fill-rule="nonzero" fill="black"/>
<path d="M355.89 479.16L358.94 477.32 361.1 481.43 358.53 482.98 355.89 479.16Z"
fill-rule="nonzero" fill="black"/>
<path d="M358.94 477.32L362.18 475.86 363.83 480.21 361.1 481.43 358.94 477.32Z"
fill-rule="nonzero" fill="black"/>
<path d="M362.18 475.86L365.57 474.8 366.68 479.31 363.83 480.21 362.18 475.86Z"
fill-rule="nonzero" fill="black"/>
<path d="M365.57 474.8L369.07 474.16 369.63 478.77 366.68 479.31 365.57 474.8Z"
fill-rule="nonzero" fill="black"/>
<path d="M369.07 474.16L372.62 473.95 372.62 478.59 369.63 478.77 369.07 474.16Z"
fill-rule="nonzero" fill="black"/>
<path d="M372.62 478.59L369.07 478.38 369.63 473.76 372.62 473.95 372.62 478.59Z"
fill-rule="nonzero" fill="black"/>
<path d="M369.07 478.38L365.57 477.74 366.68 473.22 369.63 473.76 369.07 478.38Z"
fill-rule="nonzero" fill="black"/>
<path d="M365.57 477.74L362.18 476.68 363.83 472.33 366.68 473.22 365.57 477.74Z"
fill-rule="nonzero" fill="black"/>
<path d="M362.18 476.68L358.94 475.22 361.1 471.11 363.83 472.33 362.18 476.68Z"
fill-rule="nonzero" fill="black"/>
<path d="M358.94 475.22L355.89 473.38 358.53 469.56 361.1 471.11 358.94 475.22Z"
fill-rule="nonzero" fill="black"/>
<path d="M355.89 473.38L353.09 471.19 356.18 467.71 358.53 469.56 355.89 473.38Z"
fill-rule="nonzero" fill="black"/>
<path d="M353.09 471.19L350.58 468.68 354.06 465.59 356.18 467.71 353.09 471.19Z"
fill-rule="nonzero" fill="black"/>
<path d="M350.58 468.68L348.39 465.88 352.21 463.24 354.06 465.59 350.58 468.68Z"
fill-rule="nonzero" fill="black"/>
<path d="M348.39 465.88L346.55 462.83 350.66 460.67 352.21 463.24 348.39 465.88Z"
fill-rule="nonzero" fill="black"/>
<path d="M346.55 462.83L345.09 459.59 349.44 457.94 350.66 460.67 346.55 462.83Z"
fill-rule="nonzero" fill="black"/>
<path d="M345.09 459.59L344.03 456.2 348.54 455.08 349.44 457.94 345.09 459.59Z"
fill-rule="nonzero" fill="black"/>
<path d="M344.03 456.2L343.39 452.7 348 452.14 348.54 455.08 344.03 456.2Z"
fill-rule="nonzero" fill="black"/>
<path d="M343.39 452.7L343.18 449.15 347.82 449.15 348 452.14 343.39 452.7Z"
fill-rule="nonzero" fill="black"/>
<path d="M343.18 449.15L343.39 445.6 348 446.16 347.82 449.15 343.18 449.15Z"
fill-rule="nonzero" fill="black"/>
<path d="M343.39 445.6L344.03 442.1 348.54 443.22 348 446.16 343.39 445.6Z"
fill-rule="nonzero" fill="black"/>
<path d="M344.03 442.1L345.09 438.71 349.44 440.36 348.54 443.22 344.03 442.1Z"
fill-rule="nonzero" fill="black"/>
<path d="M345.09 438.71L346.55 435.47 350.66 437.63 349.44 440.36 345.09 438.71Z"
fill-rule="nonzero" fill="black"/>
<path d="M346.55 435.47L348.39 432.43 352.21 435.07 350.66 437.63 346.55 435.47Z"
fill-rule="nonzero" fill="black"/>
<path d="M348.39 432.43L350.58 429.63 354.06 432.71 352.21 435.07 348.39 432.43Z"
fill-rule="nonzero" fill="black"/>
<path d="M350.58 429.63L353.09 427.11 356.18 430.59 354.06 432.71 350.58 429.63Z"
fill-rule="nonzero" fill="black"/>
<path d="M353.09 427.11L355.89 424.92 358.53 428.75 356.18 430.59 353.09 427.11Z"
fill-rule="nonzero" fill="black"/>
<path d="M355.89 424.92L358.94 423.08 361.1 427.2 358.53 428.75 355.89 424.92Z"
fill-rule="nonzero" fill="black"/>
<path d="M358.94 423.08L362.18 421.62 363.83 425.97 361.1 427.2 358.94 423.08Z"
fill-rule="nonzero" fill="black"/>
<path d="M362.18 421.62L365.57 420.56 366.68 425.08 363.83 425.97 362.18 421.62Z"
fill-rule="nonzero" fill="black"/>
<path d="M365.57 420.56L369.07 419.92 369.63 424.54 366.68 425.08 365.57 420.56Z"
fill-rule="nonzero" fill="black"/>
<path d="M369.07 419.92L372.62 419.71 372.62 424.36 369.63 424.54 369.07 419.92Z"
fill-rule="nonzero" fill="black"/>
<path d="M372.62 424.36L372.62 419.71 444.93 419.71 444.93 424.36 372.62 424.36Z"
fill-rule="evenodd" fill="black"/>
<path d="M390.7 53.72L393.06 53.47 392.09 48.93 390.7 49.07 390.7 53.72Z"
fill-rule="nonzero" fill="black"/>
<path d="M393.06 53.47L395.32 52.74 393.42 48.49 392.09 48.93 393.06 53.47Z"
fill-rule="nonzero" fill="black"/>
<path d="M395.32 52.74L397.37 51.55 394.64 47.79 393.42 48.49 395.32 52.74Z"
fill-rule="nonzero" fill="black"/>
<path d="M397.37 51.55L399.13 49.96 395.68 46.85 394.64 47.79 397.37 51.55Z"
fill-rule="nonzero" fill="black"/>
<path d="M399.13 49.96L400.53 48.04 396.5 45.72 395.68 46.85 399.13 49.96Z"
fill-rule="nonzero" fill="black"/>
<path d="M400.53 48.04L401.5 45.87 397.07 44.44 396.5 45.72 400.53 48.04Z"
fill-rule="nonzero" fill="black"/>
<path d="M401.5 45.87L401.99 43.55 397.37 43.07 397.07 44.44 401.5 45.87Z"
fill-rule="nonzero" fill="black"/>
<path d="M401.99 43.55L401.99 41.18 397.37 41.67 397.37 43.07 401.99 43.55Z"
fill-rule="nonzero" fill="black"/>
<path d="M401.99 41.18L401.5 38.86 397.07 40.29 397.37 41.67 401.99 41.18Z"
fill-rule="nonzero" fill="black"/>
<path d="M401.5 38.86L400.53 36.69 396.5 39.01 397.07 40.29 401.5 38.86Z"
fill-rule="nonzero" fill="black"/>
<path d="M400.53 36.69L399.13 34.77 395.68 37.88 396.5 39.01 400.53 36.69Z"
fill-rule="nonzero" fill="black"/>
<path d="M399.13 34.77L397.37 33.18 394.64 36.94 395.68 37.88 399.13 34.77Z"
fill-rule="nonzero" fill="black"/>
<path d="M397.37 33.18L395.32 31.99 393.42 36.24 394.64 36.94 397.37 33.18Z"
fill-rule="nonzero" fill="black"/>
<path d="M395.32 31.99L393.06 31.26 392.09 35.81 393.42 36.24 395.32 31.99Z"
fill-rule="nonzero" fill="black"/>
<path d="M393.06 31.26L390.7 31.01 390.7 35.66 392.09 35.81 393.06 31.26Z"
fill-rule="nonzero" fill="black"/>
<path d="M390.7 31.01L388.33 31.26 389.3 35.81 390.7 35.66 390.7 31.01Z"
fill-rule="nonzero" fill="black"/>
<path d="M388.33 31.26L386.07 31.99 387.97 36.24 389.3 35.81 388.33 31.26Z"
fill-rule="nonzero" fill="black"/>
<path d="M386.07 31.99L384.02 33.18 386.75 36.94 387.97 36.24 386.07 31.99Z"
fill-rule="nonzero" fill="black"/>
<path d="M384.02 33.18L382.25 34.77 385.71 37.88 386.75 36.94 384.02 33.18Z"
fill-rule="nonzero" fill="black"/>
<path d="M382.25 34.77L380.86 36.69 384.88 39.02 385.71 37.88 382.25 34.77Z"
fill-rule="nonzero" fill="black"/>
<path d="M380.86 36.69L379.89 38.86 384.31 40.3 384.88 39.02 380.86 36.69Z"
fill-rule="nonzero" fill="black"/>
<path d="M379.89 38.86L379.4 41.19 384.02 41.67 384.31 40.3 379.89 38.86Z"
fill-rule="nonzero" fill="black"/>
<path d="M379.4 41.19L379.4 43.56 384.02 43.08 384.02 41.67 379.4 41.19Z"
fill-rule="nonzero" fill="black"/>
<path d="M379.4 43.56L379.89 45.89 384.31 44.45 384.02 43.08 379.4 43.56Z"
fill-rule="nonzero" fill="black"/>
<path d="M379.89 45.89L380.86 48.06 384.88 45.73 384.31 44.45 379.89 45.89Z"
fill-rule="nonzero" fill="black"/>
<path d="M380.86 48.06L382.25 49.98 385.71 46.87 384.88 45.73 380.86 48.06Z"
fill-rule="nonzero" fill="black"/>
<path d="M382.25 49.98L384.02 51.57 386.75 47.81 385.71 46.87 382.25 49.98Z"
fill-rule="nonzero" fill="black"/>
<path d="M384.02 51.57L386.07 52.76 387.97 48.51 386.75 47.81 384.02 51.57Z"
fill-rule="nonzero" fill="black"/>
<path d="M386.07 52.76L388.33 53.49 389.3 48.94 387.97 48.51 386.07 52.76Z"
fill-rule="nonzero" fill="black"/>
<path d="M388.33 53.49L390.7 53.74 390.7 49.09 389.3 48.94 388.33 53.49Z"
fill-rule="nonzero" fill="black"/>
<path d="M390.7 568.97L393.06 568.72 392.09 564.17 390.7 564.32 390.7 568.97Z"
fill-rule="nonzero" fill="black"/>
<path d="M393.06 568.72L395.32 567.99 393.42 563.74 392.09 564.17 393.06 568.72Z"
fill-rule="nonzero" fill="black"/>
<path d="M395.32 567.99L397.37 566.8 394.64 563.04 393.42 563.74 395.32 567.99Z"
fill-rule="nonzero" fill="black"/>
<path d="M397.37 566.8L399.13 565.21 395.68 562.1 394.64 563.04 397.37 566.8Z"
fill-rule="nonzero" fill="black"/>
<path d="M399.13 565.21L400.53 563.29 396.5 560.97 395.68 562.1 399.13 565.21Z"
fill-rule="nonzero" fill="black"/>
<path d="M400.53 563.29L401.5 561.12 397.07 559.69 396.5 560.97 400.53 563.29Z"
fill-rule="nonzero" fill="black"/>
<path d="M401.5 561.12L401.99 558.8 397.37 558.32 397.07 559.69 401.5 561.12Z"
fill-rule="nonzero" fill="black"/>
<path d="M401.99 558.8L401.99 556.43 397.37 556.91 397.37 558.32 401.99 558.8Z"
fill-rule="nonzero" fill="black"/>
<path d="M401.99 556.43L401.5 554.11 397.07 555.54 397.37 556.91 401.99 556.43Z"
fill-rule="nonzero" fill="black"/>
<path d="M401.5 554.11L400.53 551.94 396.5 554.26 397.07 555.54 401.5 554.11Z"
fill-rule="nonzero" fill="black"/>
<path d="M400.53 551.94L399.13 550.02 395.68 553.13 396.5 554.26 400.53 551.94Z"
fill-rule="nonzero" fill="black"/>
<path d="M399.13 550.02L397.37 548.43 394.64 552.19 395.68 553.13 399.13 550.02Z"
fill-rule="nonzero" fill="black"/>
<path d="M397.37 548.43L395.32 547.24 393.42 551.49 394.64 552.19 397.37 548.43Z"
fill-rule="nonzero" fill="black"/>
<path d="M395.32 547.24L393.06 546.51 392.09 551.06 393.42 551.49 395.32 547.24Z"
fill-rule="nonzero" fill="black"/>
<path d="M393.06 546.51L390.7 546.26 390.7 550.91 392.09 551.06 393.06 546.51Z"
fill-rule="nonzero" fill="black"/>
<path d="M390.7 546.26L388.33 546.51 389.3 551.06 390.7 550.91 390.7 546.26Z"
fill-rule="nonzero" fill="black"/>
<path d="M388.33 546.51L386.07 547.24 387.97 551.49 389.3 551.06 388.33 546.51Z"
fill-rule="nonzero" fill="black"/>
<path d="M386.07 547.24L384.02 548.43 386.75 552.19 387.97 551.49 386.07 547.24Z"
fill-rule="nonzero" fill="black"/>
<path d="M384.02 548.43L382.25 550.02 385.71 553.13 386.75 552.19 384.02 548.43Z"
fill-rule="nonzero" fill="black"/>
<path d="M382.25 550.02L380.86 551.94 384.88 554.27 385.71 553.13 382.25 550.02Z"
fill-rule="nonzero" fill="black"/>
<path d="M380.86 551.94L379.89 554.11 384.31 555.55 384.88 554.27 380.86 551.94Z"
fill-rule="nonzero" fill="black"/>
<path d="M379.89 554.11L379.4 556.44 384.02 556.92 384.31 555.55 379.89 554.11Z"
fill-rule="nonzero" fill="black"/>
<path d="M379.4 556.44L379.4 558.81 384.02 558.33 384.02 556.92 379.4 556.44Z"
fill-rule="nonzero" fill="black"/>
<path d="M379.4 558.81L379.89 561.14 384.31 559.7 384.02 558.33 379.4 558.81Z"
fill-rule="nonzero" fill="black"/>
<path d="M379.89 561.14L380.86 563.31 384.88 560.98 384.31 559.7 379.89 561.14Z"
fill-rule="nonzero" fill="black"/>
<path d="M380.86 563.31L382.25 565.23 385.71 562.12 384.88 560.98 380.86 563.31Z"
fill-rule="nonzero" fill="black"/>
<path d="M382.25 565.23L384.02 566.82 386.75 563.06 385.71 562.12 382.25 565.23Z"
fill-rule="nonzero" fill="black"/>
<path d="M384.02 566.82L386.07 568.01 387.97 563.76 386.75 563.06 384.02 566.82Z"
fill-rule="nonzero" fill="black"/>
<path d="M386.07 568.01L388.33 568.74 389.3 564.19 387.97 563.76 386.07 568.01Z"
fill-rule="nonzero" fill="black"/>
<path d="M388.33 568.74L390.7 568.99 390.7 564.34 389.3 564.19 388.33 568.74Z"
fill-rule="nonzero" fill="black"/>
<path d="M566.63 598.3L561.98 598.3 561.98 1.7 566.63 1.7 566.63 598.3Z"
fill-rule="evenodd" fill="black"/>
<path d="M618.54 175.64L618.54 180.29 546.22 180.29 546.22 175.64 618.54 175.64Z"
fill-rule="evenodd" fill="black"/>
<path d="M546.22 180.29L542.68 180.08 543.24 175.46 546.22 175.64 546.22 180.29Z"
fill-rule="nonzero" fill="black"/>
<path d="M542.68 180.08L539.18 179.44 540.29 174.92 543.24 175.46 542.68 180.08Z"
fill-rule="nonzero" fill="black"/>
<path d="M539.18 179.44L535.78 178.38 537.43 174.03 540.29 174.92 539.18 179.44Z"
fill-rule="nonzero" fill="black"/>
<path d="M535.78 178.38L532.54 176.92 534.7 172.8 537.43 174.03 535.78 178.38Z"
fill-rule="nonzero" fill="black"/>
<path d="M532.54 176.92L529.5 175.08 532.14 171.25 534.7 172.8 532.54 176.92Z"
fill-rule="nonzero" fill="black"/>
<path d="M529.5 175.08L526.7 172.89 529.78 169.41 532.14 171.25 529.5 175.08Z"
fill-rule="nonzero" fill="black"/>
<path d="M526.7 172.89L524.19 170.37 527.67 167.29 529.78 169.41 526.7 172.89Z"
fill-rule="nonzero" fill="black"/>
<path d="M524.19 170.37L521.99 167.57 525.82 164.93 527.67 167.29 524.19 170.37Z"
fill-rule="nonzero" fill="black"/>
<path d="M521.99 167.57L520.15 164.53 524.27 162.37 525.82 164.93 521.99 167.57Z"
fill-rule="nonzero" fill="black"/>
<path d="M520.15 164.53L518.69 161.29 523.04 159.64 524.27 162.37 520.15 164.53Z"
fill-rule="nonzero" fill="black"/>
<path d="M518.69 161.29L517.64 157.9 522.15 156.78 523.04 159.64 518.69 161.29Z"
fill-rule="nonzero" fill="black"/>
<path d="M517.64 157.9L517 154.4 521.61 153.84 522.15 156.78 517.64 157.9Z"
fill-rule="nonzero" fill="black"/>
<path d="M517 154.4L516.78 150.85 521.43 150.85 521.61 153.84 517 154.4Z"
fill-rule="nonzero" fill="black"/>
<path d="M516.78 150.85L517 147.3 521.61 147.86 521.43 150.85 516.78 150.85Z"
fill-rule="nonzero" fill="black"/>
<path d="M517 147.3L517.64 143.8 522.15 144.92 521.61 147.86 517 147.3Z"
fill-rule="nonzero" fill="black"/>
<path d="M517.64 143.8L518.69 140.41 523.04 142.06 522.15 144.92 517.64 143.8Z"
fill-rule="nonzero" fill="black"/>
<path d="M518.69 140.41L520.15 137.17 524.27 139.33 523.04 142.06 518.69 140.41Z"
fill-rule="nonzero" fill="black"/>
<path d="M520.15 137.17L521.99 134.12 525.82 136.76 524.27 139.33 520.15 137.17Z"
fill-rule="nonzero" fill="black"/>
<path d="M521.99 134.12L524.19 131.32 527.67 134.41 525.82 136.76 521.99 134.12Z"
fill-rule="nonzero" fill="black"/>
<path d="M524.19 131.32L526.7 128.81 529.78 132.29 527.67 134.41 524.19 131.32Z"
fill-rule="nonzero" fill="black"/>
<path d="M526.7 128.81L529.5 126.62 532.14 130.44 529.78 132.29 526.7 128.81Z"
fill-rule="nonzero" fill="black"/>
<path d="M529.5 126.62L532.54 124.78 534.7 128.89 532.14 130.44 529.5 126.62Z"
fill-rule="nonzero" fill="black"/>
<path d="M532.54 124.78L535.78 123.32 537.43 127.67 534.7 128.89 532.54 124.78Z"
fill-rule="nonzero" fill="black"/>
<path d="M535.78 123.32L539.18 122.26 540.29 126.78 537.43 127.67 535.78 123.32Z"
fill-rule="nonzero" fill="black"/>
<path d="M539.18 122.26L542.68 121.62 543.24 126.24 540.29 126.78 539.18 122.26Z"
fill-rule="nonzero" fill="black"/>
<path d="M542.68 121.62L546.22 121.41 546.22 126.05 543.24 126.24 542.68 121.62Z"
fill-rule="nonzero" fill="black"/>
<path d="M546.22 126.05L542.68 125.84 543.24 121.23 546.22 121.41 546.22 126.05Z"
fill-rule="nonzero" fill="black"/>
<path d="M542.68 125.84L539.18 125.2 540.29 120.69 543.24 121.23 542.68 125.84Z"
fill-rule="nonzero" fill="black"/>
<path d="M539.18 125.2L535.78 124.14 537.43 119.79 540.29 120.69 539.18 125.2Z"
fill-rule="nonzero" fill="black"/>
<path d="M535.78 124.14L532.54 122.68 534.7 118.57 537.43 119.79 535.78 124.14Z"
fill-rule="nonzero" fill="black"/>
<path d="M532.54 122.68L529.5 120.84 532.14 117.02 534.7 118.57 532.54 122.68Z"
fill-rule="nonzero" fill="black"/>
<path d="M529.5 120.84L526.7 118.65 529.78 115.17 532.14 117.02 529.5 120.84Z"
fill-rule="nonzero" fill="black"/>
<path d="M526.7 118.65L524.19 116.14 527.67 113.05 529.78 115.17 526.7 118.65Z"
fill-rule="nonzero" fill="black"/>
<path d="M524.19 116.14L521.99 113.34 525.82 110.7 527.67 113.05 524.19 116.14Z"
fill-rule="nonzero" fill="black"/>
<path d="M521.99 113.34L520.15 110.29 524.27 108.13 525.82 110.7 521.99 113.34Z"
fill-rule="nonzero" fill="black"/>
<path d="M520.15 110.29L518.69 107.05 523.04 105.4 524.27 108.13 520.15 110.29Z"
fill-rule="nonzero" fill="black"/>
<path d="M518.69 107.05L517.64 103.66 522.15 102.55 523.04 105.4 518.69 107.05Z"
fill-rule="nonzero" fill="black"/>
<path d="M517.64 103.66L517 100.16 521.61 99.6 522.15 102.55 517.64 103.66Z"
fill-rule="nonzero" fill="black"/>
<path d="M517 100.16L516.78 96.61 521.43 96.61 521.61 99.6 517 100.16Z"
fill-rule="nonzero" fill="black"/>
<path d="M516.78 96.61L517 93.06 521.61 93.62 521.43 96.61 516.78 96.61Z"
fill-rule="nonzero" fill="black"/>
<path d="M517 93.06L517.64 89.57 522.15 90.68 521.61 93.62 517 93.06Z"
fill-rule="nonzero" fill="black"/>
<path d="M517.64 89.57L518.69 86.17 523.04 87.82 522.15 90.68 517.64 89.57Z"
fill-rule="nonzero" fill="black"/>
<path d="M518.69 86.17L520.15 82.93 524.27 85.09 523.04 87.82 518.69 86.17Z"
fill-rule="nonzero" fill="black"/>
<path d="M520.15 82.93L521.99 79.89 525.82 82.53 524.27 85.09 520.15 82.93Z"
fill-rule="nonzero" fill="black"/>
<path d="M521.99 79.89L524.19 77.09 527.67 80.17 525.82 82.53 521.99 79.89Z"
fill-rule="nonzero" fill="black"/>
<path d="M524.19 77.09L526.7 74.57 529.78 78.05 527.67 80.17 524.19 77.09Z"
fill-rule="nonzero" fill="black"/>
<path d="M526.7 74.57L529.5 72.38 532.14 76.21 529.78 78.05 526.7 74.57Z"
fill-rule="nonzero" fill="black"/>
<path d="M529.5 72.38L532.54 70.54 534.7 74.66 532.14 76.21 529.5 72.38Z"
fill-rule="nonzero" fill="black"/>
<path d="M532.54 70.54L535.78 69.08 537.43 73.43 534.7 74.66 532.54 70.54Z"
fill-rule="nonzero" fill="black"/>
<path d="M535.78 69.08L539.18 68.02 540.29 72.54 537.43 73.43 535.78 69.08Z"
fill-rule="nonzero" fill="black"/>
<path d="M539.18 68.02L542.68 67.38 543.24 72 540.29 72.54 539.18 68.02Z"
fill-rule="nonzero" fill="black"/>
<path d="M542.68 67.38L546.22 67.17 546.22 71.82 543.24 72 542.68 67.38Z"
fill-rule="nonzero" fill="black"/>
<path d="M546.22 71.82L546.22 67.17 618.54 67.17 618.54 71.82 546.22 71.82Z"
fill-rule="evenodd" fill="black"/>
<path d="M618.54 293.16L618.54 297.8 546.22 297.8 546.22 293.16 618.54 293.16Z"
fill-rule="evenodd" fill="black"/>
<path d="M546.22 297.8L542.68 297.59 543.24 292.98 546.22 293.16 546.22 297.8Z"
fill-rule="nonzero" fill="black"/>
<path d="M542.68 297.59L539.18 296.95 540.29 292.44 543.24 292.98 542.68 297.59Z"
fill-rule="nonzero" fill="black"/>
<path d="M539.18 296.95L535.78 295.89 537.43 291.54 540.29 292.44 539.18 296.95Z"
fill-rule="nonzero" fill="black"/>
<path d="M535.78 295.89L532.54 294.43 534.7 290.32 537.43 291.54 535.78 295.89Z"
fill-rule="nonzero" fill="black"/>
<path d="M532.54 294.43L529.5 292.59 532.14 288.77 534.7 290.32 532.54 294.43Z"
fill-rule="nonzero" fill="black"/>
<path d="M529.5 292.59L526.7 290.4 529.78 286.92 532.14 288.77 529.5 292.59Z"
fill-rule="nonzero" fill="black"/>
<path d="M526.7 290.4L524.19 287.89 527.67 284.8 529.78 286.92 526.7 290.4Z"
fill-rule="nonzero" fill="black"/>
<path d="M524.19 287.89L521.99 285.09 525.82 282.45 527.67 284.8 524.19 287.89Z"
fill-rule="nonzero" fill="black"/>
<path d="M521.99 285.09L520.15 282.04 524.27 279.88 525.82 282.45 521.99 285.09Z"
fill-rule="nonzero" fill="black"/>
<path d="M520.15 282.04L518.69 278.8 523.04 277.15 524.27 279.88 520.15 282.04Z"
fill-rule="nonzero" fill="black"/>
<path d="M518.69 278.8L517.64 275.41 522.15 274.3 523.04 277.15 518.69 278.8Z"
fill-rule="nonzero" fill="black"/>
<path d="M517.64 275.41L517 271.91 521.61 271.35 522.15 274.3 517.64 275.41Z"
fill-rule="nonzero" fill="black"/>
<path d="M517 271.91L516.78 268.36 521.43 268.36 521.61 271.35 517 271.91Z"
fill-rule="nonzero" fill="black"/>
<path d="M516.78 268.36L517 264.81 521.61 265.37 521.43 268.36 516.78 268.36Z"
fill-rule="nonzero" fill="black"/>
<path d="M517 264.81L517.64 261.32 522.15 262.43 521.61 265.37 517 264.81Z"
fill-rule="nonzero" fill="black"/>
<path d="M517.64 261.32L518.69 257.92 523.04 259.57 522.15 262.43 517.64 261.32Z"
fill-rule="nonzero" fill="black"/>
<path d="M518.69 257.92L520.15 254.68 524.27 256.84 523.04 259.57 518.69 257.92Z"
fill-rule="nonzero" fill="black"/>
<path d="M520.15 254.68L521.99 251.64 525.82 254.28 524.27 256.84 520.15 254.68Z"
fill-rule="nonzero" fill="black"/>
<path d="M521.99 251.64L524.19 248.84 527.67 251.92 525.82 254.28 521.99 251.64Z"
fill-rule="nonzero" fill="black"/>
<path d="M524.19 248.84L526.7 246.32 529.78 249.8 527.67 251.92 524.19 248.84Z"
fill-rule="nonzero" fill="black"/>
<path d="M526.7 246.32L529.5 244.13 532.14 247.96 529.78 249.8 526.7 246.32Z"
fill-rule="nonzero" fill="black"/>
<path d="M529.5 244.13L532.54 242.29 534.7 246.41 532.14 247.96 529.5 244.13Z"
fill-rule="nonzero" fill="black"/>
<path d="M532.54 242.29L535.78 240.83 537.43 245.18 534.7 246.41 532.54 242.29Z"
fill-rule="nonzero" fill="black"/>
<path d="M535.78 240.83L539.18 239.77 540.29 244.29 537.43 245.18 535.78 240.83Z"
fill-rule="nonzero" fill="black"/>
<path d="M539.18 239.77L542.68 239.13 543.24 243.75 540.29 244.29 539.18 239.77Z"
fill-rule="nonzero" fill="black"/>
<path d="M542.68 239.13L546.22 238.92 546.22 243.57 543.24 243.75 542.68 239.13Z"
fill-rule="nonzero" fill="black"/>
<path d="M546.22 243.57L542.68 243.35 543.24 238.74 546.22 238.92 546.22 243.57Z"
fill-rule="nonzero" fill="black"/>
<path d="M542.68 243.35L539.18 242.71 540.29 238.2 543.24 238.74 542.68 243.35Z"
fill-rule="nonzero" fill="black"/>
<path d="M539.18 242.71L535.78 241.65 537.43 237.31 540.29 238.2 539.18 242.71Z"
fill-rule="nonzero" fill="black"/>
<path d="M535.78 241.65L532.54 240.2 534.7 236.08 537.43 237.31 535.78 241.65Z"
fill-rule="nonzero" fill="black"/>
<path d="M532.54 240.2L529.5 238.36 532.14 234.53 534.7 236.08 532.54 240.2Z"
fill-rule="nonzero" fill="black"/>
<path d="M529.5 238.36L526.7 236.16 529.78 232.68 532.14 234.53 529.5 238.36Z"
fill-rule="nonzero" fill="black"/>
<path d="M526.7 236.16L524.19 233.65 527.67 230.57 529.78 232.68 526.7 236.16Z"
fill-rule="nonzero" fill="black"/>
<path d="M524.19 233.65L521.99 230.85 525.82 228.21 527.67 230.57 524.19 233.65Z"
fill-rule="nonzero" fill="black"/>
<path d="M521.99 230.85L520.15 227.81 524.27 225.65 525.82 228.21 521.99 230.85Z"
fill-rule="nonzero" fill="black"/>
<path d="M520.15 227.81L518.69 224.57 523.04 222.92 524.27 225.65 520.15 227.81Z"
fill-rule="nonzero" fill="black"/>
<path d="M518.69 224.57L517.64 221.17 522.15 220.06 523.04 222.92 518.69 224.57Z"
fill-rule="nonzero" fill="black"/>
<path d="M517.64 221.17L517 217.67 521.61 217.11 522.15 220.06 517.64 221.17Z"
fill-rule="nonzero" fill="black"/>
<path d="M517 217.67L516.78 214.13 521.43 214.13 521.61 217.11 517 217.67Z"
fill-rule="nonzero" fill="black"/>
<path d="M516.78 214.13L517 210.58 521.61 211.14 521.43 214.13 516.78 214.13Z"
fill-rule="nonzero" fill="black"/>
<path d="M517 210.58L517.64 207.08 522.15 208.19 521.61 211.14 517 210.58Z"
fill-rule="nonzero" fill="black"/>
<path d="M517.64 207.08L518.69 203.68 523.04 205.33 522.15 208.19 517.64 207.08Z"
fill-rule="nonzero" fill="black"/>
<path d="M518.69 203.68L520.15 200.44 524.27 202.6 523.04 205.33 518.69 203.68Z"
fill-rule="nonzero" fill="black"/>
<path d="M520.15 200.44L521.99 197.4 525.82 200.04 524.27 202.6 520.15 200.44Z"
fill-rule="nonzero" fill="black"/>
<path d="M521.99 197.4L524.19 194.6 527.67 197.68 525.82 200.04 521.99 197.4Z"
fill-rule="nonzero" fill="black"/>
<path d="M524.19 194.6L526.7 192.09 529.78 195.57 527.67 197.68 524.19 194.6Z"
fill-rule="nonzero" fill="black"/>
<path d="M526.7 192.09L529.5 189.89 532.14 193.72 529.78 195.57 526.7 192.09Z"
fill-rule="nonzero" fill="black"/>
<path d="M529.5 189.89L532.54 188.05 534.7 192.17 532.14 193.72 529.5 189.89Z"
fill-rule="nonzero" fill="black"/>
<path d="M532.54 188.05L535.78 186.6 537.43 190.94 534.7 192.17 532.54 188.05Z"
fill-rule="nonzero" fill="black"/>
<path d="M535.78 186.6L539.18 185.54 540.29 190.05 537.43 190.94 535.78 186.6Z"
fill-rule="nonzero" fill="black"/>
<path d="M539.18 185.54L542.68 184.9 543.24 189.51 540.29 190.05 539.18 185.54Z"
fill-rule="nonzero" fill="black"/>
<path d="M542.68 184.9L546.22 184.68 546.22 189.33 543.24 189.51 542.68 184.9Z"
fill-rule="nonzero" fill="black"/>
<path d="M546.22 189.33L546.22 184.68 618.54 184.68 618.54 189.33 546.22 189.33Z"
fill-rule="evenodd" fill="black"/>
<path d="M618.54 410.67L618.54 415.32 546.22 415.32 546.22 410.67 618.54 410.67Z"
fill-rule="evenodd" fill="black"/>
<path d="M546.22 415.32L542.68 415.1 543.24 410.49 546.22 410.67 546.22 415.32Z"
fill-rule="nonzero" fill="black"/>
<path d="M542.68 415.1L539.18 414.46 540.29 409.95 543.24 410.49 542.68 415.1Z"
fill-rule="nonzero" fill="black"/>
<path d="M539.18 414.46L535.78 413.4 537.43 409.06 540.29 409.95 539.18 414.46Z"
fill-rule="nonzero" fill="black"/>
<path d="M535.78 413.4L532.54 411.95 534.7 407.83 537.43 409.06 535.78 413.4Z"
fill-rule="nonzero" fill="black"/>
<path d="M532.54 411.95L529.5 410.11 532.14 406.28 534.7 407.83 532.54 411.95Z"
fill-rule="nonzero" fill="black"/>
<path d="M529.5 410.11L526.7 407.91 529.78 404.43 532.14 406.28 529.5 410.11Z"
fill-rule="nonzero" fill="black"/>
<path d="M526.7 407.91L524.19 405.4 527.67 402.32 529.78 404.43 526.7 407.91Z"
fill-rule="nonzero" fill="black"/>
<path d="M524.19 405.4L521.99 402.6 525.82 399.96 527.67 402.32 524.19 405.4Z"
fill-rule="nonzero" fill="black"/>
<path d="M521.99 402.6L520.15 399.56 524.27 397.4 525.82 399.96 521.99 402.6Z"
fill-rule="nonzero" fill="black"/>
<path d="M520.15 399.56L518.69 396.32 523.04 394.67 524.27 397.4 520.15 399.56Z"
fill-rule="nonzero" fill="black"/>
<path d="M518.69 396.32L517.64 392.92 522.15 391.81 523.04 394.67 518.69 396.32Z"
fill-rule="nonzero" fill="black"/>
<path d="M517.64 392.92L517 389.42 521.61 388.86 522.15 391.81 517.64 392.92Z"
fill-rule="nonzero" fill="black"/>
<path d="M517 389.42L516.78 385.87 521.43 385.87 521.61 388.86 517 389.42Z"
fill-rule="nonzero" fill="black"/>
<path d="M516.78 385.87L517 382.33 521.61 382.89 521.43 385.87 516.78 385.87Z"
fill-rule="nonzero" fill="black"/>
<path d="M517 382.33L517.64 378.83 522.15 379.94 521.61 382.89 517 382.33Z"
fill-rule="nonzero" fill="black"/>
<path d="M517.64 378.83L518.69 375.43 523.04 377.08 522.15 379.94 517.64 378.83Z"
fill-rule="nonzero" fill="black"/>
<path d="M518.69 375.43L520.15 372.19 524.27 374.35 523.04 377.08 518.69 375.43Z"
fill-rule="nonzero" fill="black"/>
<path d="M520.15 372.19L521.99 369.15 525.82 371.79 524.27 374.35 520.15 372.19Z"
fill-rule="nonzero" fill="black"/>
<path d="M521.99 369.15L524.19 366.35 527.67 369.43 525.82 371.79 521.99 369.15Z"
fill-rule="nonzero" fill="black"/>
<path d="M524.19 366.35L526.7 363.84 529.78 367.32 527.67 369.43 524.19 366.35Z"
fill-rule="nonzero" fill="black"/>
<path d="M526.7 363.84L529.5 361.64 532.14 365.47 529.78 367.32 526.7 363.84Z"
fill-rule="nonzero" fill="black"/>
<path d="M529.5 361.64L532.54 359.8 534.7 363.92 532.14 365.47 529.5 361.64Z"
fill-rule="nonzero" fill="black"/>
<path d="M532.54 359.8L535.78 358.35 537.43 362.69 534.7 363.92 532.54 359.8Z"
fill-rule="nonzero" fill="black"/>
<path d="M535.78 358.35L539.18 357.29 540.29 361.8 537.43 362.69 535.78 358.35Z"
fill-rule="nonzero" fill="black"/>
<path d="M539.18 357.29L542.68 356.65 543.24 361.26 540.29 361.8 539.18 357.29Z"
fill-rule="nonzero" fill="black"/>
<path d="M542.68 356.65L546.22 356.43 546.22 361.08 543.24 361.26 542.68 356.65Z"
fill-rule="nonzero" fill="black"/>
<path d="M546.22 361.08L542.68 360.87 543.24 356.25 546.22 356.43 546.22 361.08Z"
fill-rule="nonzero" fill="black"/>
<path d="M542.68 360.87L539.18 360.23 540.29 355.71 543.24 356.25 542.68 360.87Z"
fill-rule="nonzero" fill="black"/>
<path d="M539.18 360.23L535.78 359.17 537.43 354.82 540.29 355.71 539.18 360.23Z"
fill-rule="nonzero" fill="black"/>
<path d="M535.78 359.17L532.54 357.71 534.7 353.59 537.43 354.82 535.78 359.17Z"
fill-rule="nonzero" fill="black"/>
<path d="M532.54 357.71L529.5 355.87 532.14 352.04 534.7 353.59 532.54 357.71Z"
fill-rule="nonzero" fill="black"/>
<path d="M529.5 355.87L526.7 353.68 529.78 350.2 532.14 352.04 529.5 355.87Z"
fill-rule="nonzero" fill="black"/>
<path d="M526.7 353.68L524.19 351.16 527.67 348.08 529.78 350.2 526.7 353.68Z"
fill-rule="nonzero" fill="black"/>
<path d="M524.19 351.16L521.99 348.36 525.82 345.72 527.67 348.08 524.19 351.16Z"
fill-rule="nonzero" fill="black"/>
<path d="M521.99 348.36L520.15 345.32 524.27 343.16 525.82 345.72 521.99 348.36Z"
fill-rule="nonzero" fill="black"/>
<path d="M520.15 345.32L518.69 342.08 523.04 340.43 524.27 343.16 520.15 345.32Z"
fill-rule="nonzero" fill="black"/>
<path d="M518.69 342.08L517.64 338.68 522.15 337.57 523.04 340.43 518.69 342.08Z"
fill-rule="nonzero" fill="black"/>
<path d="M517.64 338.68L517 335.19 521.61 334.63 522.15 337.57 517.64 338.68Z"
fill-rule="nonzero" fill="black"/>
<path d="M517 335.19L516.78 331.64 521.43 331.64 521.61 334.63 517 335.19Z"
fill-rule="nonzero" fill="black"/>
<path d="M516.78 331.64L517 328.09 521.61 328.65 521.43 331.64 516.78 331.64Z"
fill-rule="nonzero" fill="black"/>
<path d="M517 328.09L517.64 324.59 522.15 325.7 521.61 328.65 517 328.09Z"
fill-rule="nonzero" fill="black"/>
<path d="M517.64 324.59L518.69 321.2 523.04 322.85 522.15 325.7 517.64 324.59Z"
fill-rule="nonzero" fill="black"/>
<path d="M518.69 321.2L520.15 317.96 524.27 320.12 523.04 322.85 518.69 321.2Z"
fill-rule="nonzero" fill="black"/>
<path d="M520.15 317.96L521.99 314.91 525.82 317.55 524.27 320.12 520.15 317.96Z"
fill-rule="nonzero" fill="black"/>
<path d="M521.99 314.91L524.19 312.11 527.67 315.2 525.82 317.55 521.99 314.91Z"
fill-rule="nonzero" fill="black"/>
<path d="M524.19 312.11L526.7 309.6 529.78 313.08 527.67 315.2 524.19 312.11Z"
fill-rule="nonzero" fill="black"/>
<path d="M526.7 309.6L529.5 307.41 532.14 311.23 529.78 313.08 526.7 309.6Z"
fill-rule="nonzero" fill="black"/>
<path d="M529.5 307.41L532.54 305.57 534.7 309.68 532.14 311.23 529.5 307.41Z"
fill-rule="nonzero" fill="black"/>
<path d="M532.54 305.57L535.78 304.11 537.43 308.46 534.7 309.68 532.54 305.57Z"
fill-rule="nonzero" fill="black"/>
<path d="M535.78 304.11L539.18 303.05 540.29 307.56 537.43 308.46 535.78 304.11Z"
fill-rule="nonzero" fill="black"/>
<path d="M539.18 303.05L542.68 302.41 543.24 307.02 540.29 307.56 539.18 303.05Z"
fill-rule="nonzero" fill="black"/>
<path d="M542.68 302.41L546.22 302.2 546.22 306.84 543.24 307.02 542.68 302.41Z"
fill-rule="nonzero" fill="black"/>
<path d="M546.22 306.84L546.22 302.2 618.54 302.2 618.54 306.84 546.22 306.84Z"
fill-rule="evenodd" fill="black"/>
<path d="M618.54 528.18L618.54 532.83 546.22 532.83 546.22 528.18 618.54 528.18Z"
fill-rule="evenodd" fill="black"/>
<path d="M546.22 532.83L542.68 532.62 543.24 528 546.22 528.18 546.22 532.83Z"
fill-rule="nonzero" fill="black"/>
<path d="M542.68 532.62L539.18 531.98 540.29 527.46 543.24 528 542.68 532.62Z"
fill-rule="nonzero" fill="black"/>
<path d="M539.18 531.98L535.78 530.92 537.43 526.57 540.29 527.46 539.18 531.98Z"
fill-rule="nonzero" fill="black"/>
<path d="M535.78 530.92L532.54 529.46 534.7 525.34 537.43 526.57 535.78 530.92Z"
fill-rule="nonzero" fill="black"/>
<path d="M532.54 529.46L529.5 527.62 532.14 523.79 534.7 525.34 532.54 529.46Z"
fill-rule="nonzero" fill="black"/>
<path d="M529.5 527.62L526.7 525.43 529.78 521.95 532.14 523.79 529.5 527.62Z"
fill-rule="nonzero" fill="black"/>
<path d="M526.7 525.43L524.19 522.91 527.67 519.83 529.78 521.95 526.7 525.43Z"
fill-rule="nonzero" fill="black"/>
<path d="M524.19 522.91L521.99 520.11 525.82 517.47 527.67 519.83 524.19 522.91Z"
fill-rule="nonzero" fill="black"/>
<path d="M521.99 520.11L520.15 517.07 524.27 514.91 525.82 517.47 521.99 520.11Z"
fill-rule="nonzero" fill="black"/>
<path d="M520.15 517.07L518.69 513.83 523.04 512.18 524.27 514.91 520.15 517.07Z"
fill-rule="nonzero" fill="black"/>
<path d="M518.69 513.83L517.64 510.43 522.15 509.32 523.04 512.18 518.69 513.83Z"
fill-rule="nonzero" fill="black"/>
<path d="M517.64 510.43L517 506.94 521.61 506.38 522.15 509.32 517.64 510.43Z"
fill-rule="nonzero" fill="black"/>
<path d="M517 506.94L516.78 503.39 521.43 503.39 521.61 506.38 517 506.94Z"
fill-rule="nonzero" fill="black"/>
<path d="M516.78 503.39L517 499.84 521.61 500.4 521.43 503.39 516.78 503.39Z"
fill-rule="nonzero" fill="black"/>
<path d="M517 499.84L517.64 496.34 522.15 497.45 521.61 500.4 517 499.84Z"
fill-rule="nonzero" fill="black"/>
<path d="M517.64 496.34L518.69 492.95 523.04 494.6 522.15 497.45 517.64 496.34Z"
fill-rule="nonzero" fill="black"/>
<path d="M518.69 492.95L520.15 489.71 524.27 491.87 523.04 494.6 518.69 492.95Z"
fill-rule="nonzero" fill="black"/>
<path d="M520.15 489.71L521.99 486.66 525.82 489.3 524.27 491.87 520.15 489.71Z"
fill-rule="nonzero" fill="black"/>
<path d="M521.99 486.66L524.19 483.86 527.67 486.95 525.82 489.3 521.99 486.66Z"
fill-rule="nonzero" fill="black"/>
<path d="M524.19 483.86L526.7 481.35 529.78 484.83 527.67 486.95 524.19 483.86Z"
fill-rule="nonzero" fill="black"/>
<path d="M526.7 481.35L529.5 479.16 532.14 482.98 529.78 484.83 526.7 481.35Z"
fill-rule="nonzero" fill="black"/>
<path d="M529.5 479.16L532.54 477.32 534.7 481.43 532.14 482.98 529.5 479.16Z"
fill-rule="nonzero" fill="black"/>
<path d="M532.54 477.32L535.78 475.86 537.43 480.21 534.7 481.43 532.54 477.32Z"
fill-rule="nonzero" fill="black"/>
<path d="M535.78 475.86L539.18 474.8 540.29 479.31 537.43 480.21 535.78 475.86Z"
fill-rule="nonzero" fill="black"/>
<path d="M539.18 474.8L542.68 474.16 543.24 478.77 540.29 479.31 539.18 474.8Z"
fill-rule="nonzero" fill="black"/>
<path d="M542.68 474.16L546.22 473.95 546.22 478.59 543.24 478.77 542.68 474.16Z"
fill-rule="nonzero" fill="black"/>
<path d="M546.22 478.59L542.68 478.38 543.24 473.76 546.22 473.95 546.22 478.59Z"
fill-rule="nonzero" fill="black"/>
<path d="M542.68 478.38L539.18 477.74 540.29 473.22 543.24 473.76 542.68 478.38Z"
fill-rule="nonzero" fill="black"/>
<path d="M539.18 477.74L535.78 476.68 537.43 472.33 540.29 473.22 539.18 477.74Z"
fill-rule="nonzero" fill="black"/>
<path d="M535.78 476.68L532.54 475.22 534.7 471.11 537.43 472.33 535.78 476.68Z"
fill-rule="nonzero" fill="black"/>
<path d="M532.54 475.22L529.5 473.38 532.14 469.56 534.7 471.11 532.54 475.22Z"
fill-rule="nonzero" fill="black"/>
<path d="M529.5 473.38L526.7 471.19 529.78 467.71 532.14 469.56 529.5 473.38Z"
fill-rule="nonzero" fill="black"/>
<path d="M526.7 471.19L524.19 468.68 527.67 465.59 529.78 467.71 526.7 471.19Z"
fill-rule="nonzero" fill="black"/>
<path d="M524.19 468.68L521.99 465.88 525.82 463.24 527.67 465.59 524.19 468.68Z"
fill-rule="nonzero" fill="black"/>
<path d="M521.99 465.88L520.15 462.83 524.27 460.67 525.82 463.24 521.99 465.88Z"
fill-rule="nonzero" fill="black"/>
<path d="M520.15 462.83L518.69 459.59 523.04 457.94 524.27 460.67 520.15 462.83Z"
fill-rule="nonzero" fill="black"/>
<path d="M518.69 459.59L517.64 456.2 522.15 455.08 523.04 457.94 518.69 459.59Z"
fill-rule="nonzero" fill="black"/>
<path d="M517.64 456.2L517 452.7 521.61 452.14 522.15 455.08 517.64 456.2Z"
fill-rule="nonzero" fill="black"/>
<path d="M517 452.7L516.78 449.15 521.43 449.15 521.61 452.14 517 452.7Z"
fill-rule="nonzero" fill="black"/>
<path d="M516.78 449.15L517 445.6 521.61 446.16 521.43 449.15 516.78 449.15Z"
fill-rule="nonzero" fill="black"/>
<path d="M517 445.6L517.64 442.1 522.15 443.22 521.61 446.16 517 445.6Z"
fill-rule="nonzero" fill="black"/>
<path d="M517.64 442.1L518.69 438.71 523.04 440.36 522.15 443.22 517.64 442.1Z"
fill-rule="nonzero" fill="black"/>
<path d="M518.69 438.71L520.15 435.47 524.27 437.63 523.04 440.36 518.69 438.71Z"
fill-rule="nonzero" fill="black"/>
<path d="M520.15 435.47L521.99 432.43 525.82 435.07 524.27 437.63 520.15 435.47Z"
fill-rule="nonzero" fill="black"/>
<path d="M521.99 432.43L524.19 429.63 527.67 432.71 525.82 435.07 521.99 432.43Z"
fill-rule="nonzero" fill="black"/>
<path d="M524.19 429.63L526.7 427.11 529.78 430.59 527.67 432.71 524.19 429.63Z"
fill-rule="nonzero" fill="black"/>
<path d="M526.7 427.11L529.5 424.92 532.14 428.75 529.78 430.59 526.7 427.11Z"
fill-rule="nonzero" fill="black"/>
<path d="M529.5 424.92L532.54 423.08 534.7 427.2 532.14 428.75 529.5 424.92Z"
fill-rule="nonzero" fill="black"/>
<path d="M532.54 423.08L535.78 421.62 537.43 425.97 534.7 427.2 532.54 423.08Z"
fill-rule="nonzero" fill="black"/>
<path d="M535.78 421.62L539.18 420.56 540.29 425.08 537.43 425.97 535.78 421.62Z"
fill-rule="nonzero" fill="black"/>
<path d="M539.18 420.56L542.68 419.92 543.24 424.54 540.29 425.08 539.18 420.56Z"
fill-rule="nonzero" fill="black"/>
<path d="M542.68 419.92L546.22 419.71 546.22 424.36 543.24 424.54 542.68 419.92Z"
fill-rule="nonzero" fill="black"/>
<path d="M546.22 424.36L546.22 419.71 618.54 419.71 618.54 424.36 546.22 424.36Z"
fill-rule="evenodd" fill="black"/>
<path d="M564.3 53.72L566.66 53.47 565.7 48.93 564.3 49.07 564.3 53.72Z"
fill-rule="nonzero" fill="black"/>
<path d="M566.66 53.47L568.92 52.74 567.03 48.49 565.7 48.93 566.66 53.47Z"
fill-rule="nonzero" fill="black"/>
<path d="M568.92 52.74L570.98 51.55 568.24 47.79 567.03 48.49 568.92 52.74Z"
fill-rule="nonzero" fill="black"/>
<path d="M570.98 51.55L572.74 49.96 569.29 46.85 568.24 47.79 570.98 51.55Z"
fill-rule="nonzero" fill="black"/>
<path d="M572.74 49.96L574.14 48.04 570.11 45.72 569.29 46.85 572.74 49.96Z"
fill-rule="nonzero" fill="black"/>
<path d="M574.14 48.04L575.1 45.87 570.68 44.44 570.11 45.72 574.14 48.04Z"
fill-rule="nonzero" fill="black"/>
<path d="M575.1 45.87L575.6 43.55 570.97 43.07 570.68 44.44 575.1 45.87Z"
fill-rule="nonzero" fill="black"/>
<path d="M575.6 43.55L575.6 41.18 570.97 41.67 570.97 43.07 575.6 43.55Z"
fill-rule="nonzero" fill="black"/>
<path d="M575.6 41.18L575.1 38.86 570.68 40.29 570.97 41.67 575.6 41.18Z"
fill-rule="nonzero" fill="black"/>
<path d="M575.1 38.86L574.14 36.69 570.11 39.01 570.68 40.29 575.1 38.86Z"
fill-rule="nonzero" fill="black"/>
<path d="M574.14 36.69L572.74 34.77 569.29 37.88 570.11 39.01 574.14 36.69Z"
fill-rule="nonzero" fill="black"/>
<path d="M572.74 34.77L570.98 33.18 568.24 36.94 569.29 37.88 572.74 34.77Z"
fill-rule="nonzero" fill="black"/>
<path d="M570.98 33.18L568.92 31.99 567.03 36.24 568.24 36.94 570.98 33.18Z"
fill-rule="nonzero" fill="black"/>
<path d="M568.92 31.99L566.66 31.26 565.7 35.81 567.03 36.24 568.92 31.99Z"
fill-rule="nonzero" fill="black"/>
<path d="M566.66 31.26L564.3 31.01 564.3 35.66 565.7 35.81 566.66 31.26Z"
fill-rule="nonzero" fill="black"/>
<path d="M564.3 31.01L561.94 31.26 562.91 35.81 564.3 35.66 564.3 31.01Z"
fill-rule="nonzero" fill="black"/>
<path d="M561.94 31.26L559.68 31.99 561.57 36.24 562.91 35.81 561.94 31.26Z"
fill-rule="nonzero" fill="black"/>
<path d="M559.68 31.99L557.62 33.18 560.36 36.94 561.57 36.24 559.68 31.99Z"
fill-rule="nonzero" fill="black"/>
<path d="M557.62 33.18L555.86 34.77 559.31 37.88 560.36 36.94 557.62 33.18Z"
fill-rule="nonzero" fill="black"/>
<path d="M555.86 34.77L554.46 36.69 558.49 39.02 559.31 37.88 555.86 34.77Z"
fill-rule="nonzero" fill="black"/>
<path d="M554.46 36.69L553.5 38.86 557.92 40.3 558.49 39.02 554.46 36.69Z"
fill-rule="nonzero" fill="black"/>
<path d="M553.5 38.86L553 41.19 557.62 41.67 557.92 40.3 553.5 38.86Z"
fill-rule="nonzero" fill="black"/>
<path d="M553 41.19L553 43.56 557.62 43.08 557.62 41.67 553 41.19Z"
fill-rule="nonzero" fill="black"/>
<path d="M553 43.56L553.5 45.89 557.92 44.45 557.62 43.08 553 43.56Z"
fill-rule="nonzero" fill="black"/>
<path d="M553.5 45.89L554.46 48.06 558.49 45.73 557.92 44.45 553.5 45.89Z"
fill-rule="nonzero" fill="black"/>
<path d="M554.46 48.06L555.86 49.98 559.31 46.87 558.49 45.73 554.46 48.06Z"
fill-rule="nonzero" fill="black"/>
<path d="M555.86 49.98L557.62 51.57 560.36 47.81 559.31 46.87 555.86 49.98Z"
fill-rule="nonzero" fill="black"/>
<path d="M557.62 51.57L559.68 52.76 561.57 48.51 560.36 47.81 557.62 51.57Z"
fill-rule="nonzero" fill="black"/>
<path d="M559.68 52.76L561.94 53.49 562.91 48.94 561.57 48.51 559.68 52.76Z"
fill-rule="nonzero" fill="black"/>
<path d="M561.94 53.49L564.3 53.74 564.3 49.09 562.91 48.94 561.94 53.49Z"
fill-rule="nonzero" fill="black"/>
<path d="M564.3 568.97L566.66 568.72 565.7 564.17 564.3 564.32 564.3 568.97Z"
fill-rule="nonzero" fill="black"/>
<path d="M566.66 568.72L568.92 567.99 567.03 563.74 565.7 564.17 566.66 568.72Z"
fill-rule="nonzero" fill="black"/>
<path d="M568.92 567.99L570.98 566.8 568.24 563.04 567.03 563.74 568.92 567.99Z"
fill-rule="nonzero" fill="black"/>
<path d="M570.98 566.8L572.74 565.21 569.29 562.1 568.24 563.04 570.98 566.8Z"
fill-rule="nonzero" fill="black"/>
<path d="M572.74 565.21L574.14 563.29 570.11 560.97 569.29 562.1 572.74 565.21Z"
fill-rule="nonzero" fill="black"/>
<path d="M574.14 563.29L575.1 561.12 570.68 559.69 570.11 560.97 574.14 563.29Z"
fill-rule="nonzero" fill="black"/>
<path d="M575.1 561.12L575.6 558.8 570.97 558.32 570.68 559.69 575.1 561.12Z"
fill-rule="nonzero" fill="black"/>
<path d="M575.6 558.8L575.6 556.43 570.97 556.91 570.97 558.32 575.6 558.8Z"
fill-rule="nonzero" fill="black"/>
<path d="M575.6 556.43L575.1 554.11 570.68 555.54 570.97 556.91 575.6 556.43Z"
fill-rule="nonzero" fill="black"/>
<path d="M575.1 554.11L574.14 551.94 570.11 554.26 570.68 555.54 575.1 554.11Z"
fill-rule="nonzero" fill="black"/>
<path d="M574.14 551.94L572.74 550.02 569.29 553.13 570.11 554.26 574.14 551.94Z"
fill-rule="nonzero" fill="black"/>
<path d="M572.74 550.02L570.98 548.43 568.24 552.19 569.29 553.13 572.74 550.02Z"
fill-rule="nonzero" fill="black"/>
<path d="M570.98 548.43L568.92 547.24 567.03 551.49 568.24 552.19 570.98 548.43Z"
fill-rule="nonzero" fill="black"/>
<path d="M568.92 547.24L566.66 546.51 565.7 551.06 567.03 551.49 568.92 547.24Z"
fill-rule="nonzero" fill="black"/>
<path d="M566.66 546.51L564.3 546.26 564.3 550.91 565.7 551.06 566.66 546.51Z"
fill-rule="nonzero" fill="black"/>
<path d="M564.3 546.26L561.94 546.51 562.91 551.06 564.3 550.91 564.3 546.26Z"
fill-rule="nonzero" fill="black"/>
<path d="M561.94 546.51L559.68 547.24 561.57 551.49 562.91 551.06 561.94 546.51Z"
fill-rule="nonzero" fill="black"/>
<path d="M559.68 547.24L557.62 548.43 560.36 552.19 561.57 551.49 559.68 547.24Z"
fill-rule="nonzero" fill="black"/>
<path d="M557.62 548.43L555.86 550.02 559.31 553.13 560.36 552.19 557.62 548.43Z"
fill-rule="nonzero" fill="black"/>
<path d="M555.86 550.02L554.46 551.94 558.49 554.27 559.31 553.13 555.86 550.02Z"
fill-rule="nonzero" fill="black"/>
<path d="M554.46 551.94L553.5 554.11 557.92 555.55 558.49 554.27 554.46 551.94Z"
fill-rule="nonzero" fill="black"/>
<path d="M553.5 554.11L553 556.44 557.62 556.92 557.92 555.55 553.5 554.11Z"
fill-rule="nonzero" fill="black"/>
<path d="M553 556.44L553 558.81 557.62 558.33 557.62 556.92 553 556.44Z"
fill-rule="nonzero" fill="black"/>
<path d="M553 558.81L553.5 561.14 557.92 559.7 557.62 558.33 553 558.81Z"
fill-rule="nonzero" fill="black"/>
<path d="M553.5 561.14L554.46 563.31 558.49 560.98 557.92 559.7 553.5 561.14Z"
fill-rule="nonzero" fill="black"/>
<path d="M554.46 563.31L555.86 565.23 559.31 562.12 558.49 560.98 554.46 563.31Z"
fill-rule="nonzero" fill="black"/>
<path d="M555.86 565.23L557.62 566.82 560.36 563.06 559.31 562.12 555.86 565.23Z"
fill-rule="nonzero" fill="black"/>
<path d="M557.62 566.82L559.68 568.01 561.57 563.76 560.36 563.06 557.62 566.82Z"
fill-rule="nonzero" fill="black"/>
<path d="M559.68 568.01L561.94 568.74 562.91 564.19 561.57 563.76 559.68 568.01Z"
fill-rule="nonzero" fill="black"/>
<path d="M561.94 568.74L564.3 568.99 564.3 564.34 562.91 564.19 561.94 568.74Z"
fill-rule="nonzero" fill="black"/>
</svg>
