<?xml version="1.0" encoding="UTF-8"?>
<svg xmlns="http://www.w3.org/2000/svg" width="800.000" height="600.000" viewBox="0.0 0.0 800.000 600.000" version="1.1">
  <title>Produce by Acme CAD Converter</title>
  <desc>Produce by Acme CAD Converter</desc>
<path d="M414.4 598.3L411.84 598.3 411.84 566.58 414.4 566.58 414.4 598.3Z"
fill-rule="evenodd" fill="black"/>
<path d="M392.33 547.6L394.14 545.79 413.12 564.78 413.12 568.39 392.33 547.6Z"
fill-rule="evenodd" fill="black"/>
<path d="M413.12 568.39L413.12 564.78 432.1 545.79 433.91 547.6 413.12 568.39Z"
fill-rule="evenodd" fill="black"/>
<path d="M392.33 534.34L394.14 532.53 413.12 551.52 413.12 555.13 392.33 534.34Z"
fill-rule="evenodd" fill="black"/>
<path d="M413.12 555.13L413.12 551.52 432.1 532.53 433.91 534.34 413.12 555.13Z"
fill-rule="evenodd" fill="black"/>
<path d="M414.4 553.33L411.84 553.33 411.84 340.12 414.4 339.43 414.4 553.33Z"
fill-rule="evenodd" fill="black"/>
<path d="M414.4 339.43L411.84 340.12 366.09 260.87 368.3 259.59 414.4 339.43Z"
fill-rule="evenodd" fill="black"/>
<path d="M414.4 260.23L411.84 260.23 411.84 46.67 414.4 46.67 414.4 260.23Z"
fill-rule="evenodd" fill="black"/>
<path d="M403.22 252.13L405.03 250.32 423.03 268.32 421.22 270.13 403.22 252.13Z"
fill-rule="evenodd" fill="black"/>
<path d="M421.22 250.32L423.03 252.13 405.03 270.13 403.22 268.32 421.22 250.32Z"
fill-rule="evenodd" fill="black"/>
<path d="M411.84 1.7L414.4 1.7 414.4 33.42 411.84 33.42 411.84 1.7Z"
fill-rule="evenodd" fill="black"/>
<path d="M394.14 54.21L392.33 52.4 413.12 31.61 413.12 35.22 394.14 54.21Z"
fill-rule="evenodd" fill="black"/>
<path d="M413.12 35.22L413.12 31.61 433.91 52.4 432.1 54.21 413.12 35.22Z"
fill-rule="evenodd" fill="black"/>
<path d="M394.14 67.47L392.33 65.66 413.12 44.87 413.12 48.48 394.14 67.47Z"
fill-rule="evenodd" fill="black"/>
<path d="M413.12 48.48L413.12 44.87 433.91 65.66 432.1 67.47 413.12 48.48Z"
fill-rule="evenodd" fill="black"/>
</svg>
