<?xml version="1.0" encoding="UTF-8" standalone="no"?>
<svg
   width="800.000"
   height="600.000"
   viewBox="0.0 0.0 800.000 600.000"
   version="1.1"
   id="svg28"
   sodipodi:docname="AuxiliaryNormalTransformer.svg"
   inkscape:version="1.2.2 (732a01da63, 2022-12-09)"
   xmlns:inkscape="http://www.inkscape.org/namespaces/inkscape"
   xmlns:sodipodi="http://sodipodi.sourceforge.net/DTD/sodipodi-0.dtd"
   xmlns="http://www.w3.org/2000/svg"
   xmlns:svg="http://www.w3.org/2000/svg">
  <defs
     id="defs32" />
  <sodipodi:namedview
     id="namedview30"
     pagecolor="#505050"
     bordercolor="#eeeeee"
     borderopacity="1"
     inkscape:showpageshadow="0"
     inkscape:pageopacity="0"
     inkscape:pagecheckerboard="0"
     inkscape:deskcolor="#505050"
     showgrid="false"
     inkscape:zoom="0.8425"
     inkscape:cx="157.8635"
     inkscape:cy="392.87834"
     inkscape:window-width="2560"
     inkscape:window-height="1369"
     inkscape:window-x="-8"
     inkscape:window-y="-8"
     inkscape:window-maximized="1"
     inkscape:current-layer="svg28" />
  <title
     id="title2">Produce by Acme CAD Converter</title>
  <desc
     id="desc4">Produce by Acme CAD Converter</desc>
  <path
     d="M250.85 449.15L251.05 441.47M251.05 441.47L251.64 433.82M251.64 433.82L252.63 426.2M252.63 426.2L254 418.64M254 418.64L255.77 411.17M255.77 411.17L257.91 403.79M257.91 403.79L260.44 396.54M260.44 396.54L263.33 389.42M263.33 389.42L266.59 382.47M266.59 382.47L270.2 375.69M270.2 375.69L274.15 369.1M274.15 369.1L278.44 362.73M278.44 362.73L283.05 356.59M283.05 356.59L287.97 350.69M287.97 350.69L293.19 345.05M293.19 345.05L298.69 339.69M298.69 339.69L304.45 334.62M304.45 334.62L310.48 329.85M310.48 329.85L316.74 325.4M316.74 325.4L323.22 321.28M323.22 321.28L329.9 317.5M329.9 317.5L336.77 314.06M336.77 314.06L343.81 310.99M343.81 310.99L351 308.28M351 308.28L358.31 305.94M358.31 305.94L365.74 303.99M365.74 303.99L373.26 302.42M373.26 302.42L380.85 301.23M380.85 301.23L388.49 300.44M388.49 300.44L396.16 300.05M396.16 300.05L403.84 300.05M403.84 300.05L411.51 300.44M411.51 300.44L419.15 301.23M419.15 301.23L426.74 302.42M426.74 302.42L434.26 303.99M434.26 303.99L441.69 305.94M441.69 305.94L449 308.28M449 308.28L456.19 310.99M456.19 310.99L463.23 314.06M463.23 314.06L470.1 317.5M470.1 317.5L476.78 321.28M476.78 321.28L483.26 325.4M483.26 325.4L489.52 329.85M489.52 329.85L495.55 334.62M495.55 334.62L501.31 339.69M501.31 339.69L506.81 345.05M506.81 345.05L512.03 350.69M512.03 350.69L516.95 356.59M516.95 356.59L521.56 362.73M521.56 362.73L525.85 369.1M525.85 369.1L529.8 375.69M529.8 375.69L533.41 382.47M533.41 382.47L536.67 389.42M536.67 389.42L539.56 396.54M539.56 396.54L542.09 403.79M542.09 403.79L544.23 411.17M544.23 411.17L546 418.64M546 418.64L547.37 426.2M547.37 426.2L548.36 433.82M548.36 433.82L548.95 441.47M548.95 441.47L549.15 449.15M549.15 449.15L548.95 456.83M548.95 456.83L548.36 464.49M548.36 464.49L547.37 472.1M547.37 472.1L546 479.66M546 479.66L544.23 487.14M544.23 487.14L542.09 494.51M542.09 494.51L539.56 501.76M539.56 501.76L536.67 508.88M536.67 508.88L533.41 515.84M533.41 515.84L529.8 522.62M529.8 522.62L525.85 529.2M525.85 529.2L521.56 535.57M521.56 535.57L516.95 541.72M516.95 541.72L512.03 547.61M512.03 547.61L506.81 553.25M506.81 553.25L501.31 558.61M501.31 558.61L495.55 563.68M495.55 563.68L489.52 568.45M489.52 568.45L483.26 572.9M483.26 572.9L476.78 577.02M476.78 577.02L470.1 580.8M470.1 580.8L463.23 584.24M463.23 584.24L456.19 587.31M456.19 587.31L449 590.02M449 590.02L441.69 592.36M441.69 592.36L434.26 594.31M434.26 594.31L426.74 595.89M426.74 595.89L419.15 597.07M419.15 597.07L411.51 597.86M411.51 597.86L403.84 598.25M403.84 598.25L396.16 598.25M396.16 598.25L388.49 597.86M388.49 597.86L380.85 597.07M380.85 597.07L373.26 595.89M373.26 595.89L365.74 594.31M365.74 594.31L358.31 592.36M358.31 592.36L351 590.02M351 590.02L343.81 587.31M343.81 587.31L336.77 584.24M336.77 584.24L329.9 580.8M329.9 580.8L323.22 577.02M323.22 577.02L316.74 572.9M316.74 572.9L310.48 568.45M310.48 568.45L304.45 563.68M304.45 563.68L298.69 558.61M298.69 558.61L293.19 553.25M293.19 553.25L287.97 547.61M287.97 547.61L283.05 541.72M283.05 541.72L278.44 535.57M278.44 535.57L274.15 529.2M274.15 529.2L270.2 522.62M270.2 522.62L266.59 515.84M266.59 515.84L263.33 508.88M263.33 508.88L260.44 501.76M260.44 501.76L257.91 494.51M257.91 494.51L255.77 487.14M255.77 487.14L254 479.66M254 479.66L252.63 472.1M252.63 472.1L251.64 464.49M251.64 464.49L251.05 456.83M251.05 456.83L250.85 449.15"
     fill="none"
     stroke="black"
     stroke-width="0.5"
     id="path6"
     style="stroke-width:4;stroke-dasharray:none" />
  <path
     d="M400 449.15L477.5 404.41"
     fill="none"
     stroke="black"
     stroke-width="0.5"
     id="path8"
     style="stroke-width:4;stroke-dasharray:none" />
  <path
     d="M400 449.15L436.91 486.06"
     fill="none"
     stroke="black"
     stroke-width="0.5"
     id="path10"
     style="stroke-width:4;stroke-dasharray:none" />
  <path
     d="M400 449.15L400 538.64"
     fill="none"
     stroke="black"
     stroke-width="0.5"
     id="path12"
     style="stroke-width:4;stroke-dasharray:none" />
  <path
     d="M400 449.15L322.5 404.41"
     fill="none"
     stroke="black"
     stroke-width="0.5"
     id="path14"
     style="stroke-width:4;stroke-dasharray:none" />
  <path
     d="M434.73 491.34L434.92 489.68M434.92 489.68L435.47 488.1M435.47 488.1L436.36 486.69M436.36 486.69L437.54 485.51M437.54 485.51L438.95 484.62M438.95 484.62L440.53 484.07M440.53 484.07L442.19 483.88M442.19 483.88L443.85 484.07M443.85 484.07L445.42 484.62M445.42 484.62L446.84 485.51M446.84 485.51L448.02 486.69M448.02 486.69L448.91 488.1M448.91 488.1L449.46 489.68M449.46 489.68L449.64 491.34M449.64 491.34L449.46 493M449.46 493L448.91 494.57M448.91 494.57L448.02 495.99M448.02 495.99L446.84 497.17M446.84 497.17L445.42 498.06M445.42 498.06L443.85 498.61M443.85 498.61L442.19 498.79M442.19 498.79L440.53 498.61M440.53 498.61L438.95 498.06M438.95 498.06L437.54 497.17M437.54 497.17L436.36 495.99M436.36 495.99L435.47 494.57M435.47 494.57L434.92 493M434.92 493L434.73 491.34"
     fill="none"
     stroke="black"
     stroke-width="0.5"
     id="path16"
     style="stroke-width:4;stroke-dasharray:none" />
  <path
     d="M250.85 210.51L251.05 202.83M251.05 202.83L251.64 195.17M251.64 195.17L252.63 187.56M252.63 187.56L254 180M254 180L255.77 172.52M255.77 172.52L257.91 165.15M257.91 165.15L260.44 157.9M260.44 157.9L263.33 150.78M263.33 150.78L266.59 143.82M266.59 143.82L270.2 137.05M270.2 137.05L274.15 130.46M274.15 130.46L278.44 124.09M278.44 124.09L283.05 117.94M283.05 117.94L287.97 112.05M287.97 112.05L293.19 106.41M293.19 106.41L298.69 101.05M298.69 101.05L304.45 95.98M304.45 95.98L310.48 91.21M310.48 91.21L316.74 86.76M316.74 86.76L323.22 82.64M323.22 82.64L329.9 78.86M329.9 78.86L336.77 75.42M336.77 75.42L343.81 72.35M343.81 72.35L351 69.64M351 69.64L358.31 67.3M358.31 67.3L365.74 65.35M365.74 65.35L373.26 63.77M373.26 63.77L380.85 62.59M380.85 62.59L388.49 61.8M388.49 61.8L396.16 61.41M396.16 61.41L403.84 61.41M403.84 61.41L411.51 61.8M411.51 61.8L419.15 62.59M419.15 62.59L426.74 63.77M426.74 63.77L434.26 65.35M434.26 65.35L441.69 67.3M441.69 67.3L449 69.64M449 69.64L456.19 72.35M456.19 72.35L463.23 75.42M463.23 75.42L470.1 78.86M470.1 78.86L476.78 82.64M476.78 82.64L483.26 86.76M483.26 86.76L489.52 91.21M489.52 91.21L495.55 95.98M495.55 95.98L501.31 101.05M501.31 101.05L506.81 106.41M506.81 106.41L512.03 112.05M512.03 112.05L516.95 117.94M516.95 117.94L521.56 124.09M521.56 124.09L525.85 130.46M525.85 130.46L529.8 137.05M529.8 137.05L533.41 143.82M533.41 143.82L536.67 150.78M536.67 150.78L539.56 157.9M539.56 157.9L542.09 165.15M542.09 165.15L544.23 172.52M544.23 172.52L546 180M546 180L547.37 187.56M547.37 187.56L548.36 195.17M548.36 195.17L548.95 202.83M548.95 202.83L549.15 210.51M549.15 210.51L548.95 218.19M548.95 218.19L548.36 225.85M548.36 225.85L547.37 233.46M547.37 233.46L546 241.02M546 241.02L544.23 248.49M544.23 248.49L542.09 255.87M542.09 255.87L539.56 263.12M539.56 263.12L536.67 270.24M536.67 270.24L533.41 277.19M533.41 277.19L529.8 283.97M529.8 283.97L525.85 290.56M525.85 290.56L521.56 296.93M521.56 296.93L516.95 303.07M516.95 303.07L512.03 308.97M512.03 308.97L506.81 314.61M506.81 314.61L501.31 319.97M501.31 319.97L495.55 325.04M495.55 325.04L489.52 329.81M489.52 329.81L483.26 334.26M483.26 334.26L476.78 338.38M476.78 338.38L470.1 342.16M470.1 342.16L463.23 345.6M463.23 345.6L456.19 348.67M456.19 348.67L449 351.38M449 351.38L441.69 353.72M441.69 353.72L434.26 355.67M434.26 355.67L426.74 357.24M426.74 357.24L419.15 358.43M419.15 358.43L411.51 359.22M411.51 359.22L403.84 359.61M403.84 359.61L396.16 359.61M396.16 359.61L388.49 359.22M388.49 359.22L380.85 358.43M380.85 358.43L373.26 357.24M373.26 357.24L365.74 355.67M365.74 355.67L358.31 353.72M358.31 353.72L351 351.38M351 351.38L343.81 348.67M343.81 348.67L336.77 345.6M336.77 345.6L329.9 342.16M329.9 342.16L323.22 338.38M323.22 338.38L316.74 334.26M316.74 334.26L310.48 329.81M310.48 329.81L304.45 325.04M304.45 325.04L298.69 319.97M298.69 319.97L293.19 314.61M293.19 314.61L287.97 308.97M287.97 308.97L283.05 303.07M283.05 303.07L278.44 296.93M278.44 296.93L274.15 290.56M274.15 290.56L270.2 283.97M270.2 283.97L266.59 277.19M266.59 277.19L263.33 270.24M263.33 270.24L260.44 263.12M260.44 263.12L257.91 255.87M257.91 255.87L255.77 248.49M255.77 248.49L254 241.02M254 241.02L252.63 233.46M252.63 233.46L251.64 225.85M251.64 225.85L251.05 218.19M251.05 218.19L250.85 210.51"
     fill="none"
     stroke="black"
     stroke-width="0.5"
     id="path18"
     style="stroke-width:4;stroke-dasharray:none" />
  <path
     d="M335.42 173.22L464.58 173.22"
     fill="none"
     stroke="black"
     stroke-width="0.5"
     id="path20"
     style="stroke-width:4;stroke-dasharray:none" />
  <path
     d="M464.58 173.22L400 285.08"
     fill="none"
     stroke="black"
     stroke-width="0.5"
     id="path22"
     style="stroke-width:4;stroke-dasharray:none" />
  <path
     d="M400 285.08L335.42 173.22"
     fill="none"
     stroke="black"
     stroke-width="0.5"
     id="path24"
     style="stroke-width:4;stroke-dasharray:none" />
  <path
     d="M400 61.36L400 1.7"
     fill="none"
     stroke="black"
     stroke-width="0.5"
     id="path26"
     style="stroke-width:4;stroke-dasharray:none" />
</svg>
