<?xml version="1.0" encoding="UTF-8" standalone="no"?>
<svg
   width="800.000"
   height="600.000"
   viewBox="0.0 0.0 800.000 600.000"
   version="1.1"
   id="svg96"
   sodipodi:docname="CurrentMeasuringTransformer_5.svg"
   inkscape:version="1.2.2 (732a01da63, 2022-12-09)"
   xmlns:inkscape="http://www.inkscape.org/namespaces/inkscape"
   xmlns:sodipodi="http://sodipodi.sourceforge.net/DTD/sodipodi-0.dtd"
   xmlns="http://www.w3.org/2000/svg"
   xmlns:svg="http://www.w3.org/2000/svg">
  <defs
     id="defs100" />
  <sodipodi:namedview
     id="namedview98"
     pagecolor="#505050"
     bordercolor="#eeeeee"
     borderopacity="1"
     inkscape:showpageshadow="0"
     inkscape:pageopacity="0"
     inkscape:pagecheckerboard="0"
     inkscape:deskcolor="#505050"
     showgrid="false"
     inkscape:zoom="1.1914749"
     inkscape:cx="507.77401"
     inkscape:cy="377.68315"
     inkscape:window-width="2560"
     inkscape:window-height="1369"
     inkscape:window-x="-8"
     inkscape:window-y="-8"
     inkscape:window-maximized="1"
     inkscape:current-layer="svg96" />
  <title
     id="title2">Produce by Acme CAD Converter</title>
  <desc
     id="desc4">Produce by Acme CAD Converter</desc>
  <path
     d="M403.58 562.51L403.73 561.01 403.58 560.7 403.58 562.51Z"
     fill-rule="evenodd"
     fill="blue"
     id="path28"
     style="stroke-width:4;stroke-dasharray:none" />
  <path
     d="M396.27 598.3L396.27 1.7"
     fill="none"
     stroke="black"
     stroke-width="0.5"
     id="path50"
     style="stroke-width:2;stroke-dasharray:none" />
  <path
     d="M381.36 61.36L378.44 61.55M378.44 61.55L375.57 62.12M375.57 62.12L372.79 63.06M372.79 63.06L370.17 64.36M370.17 64.36L367.74 65.98M367.74 65.98L365.54 67.91M365.54 67.91L363.61 70.11M363.61 70.11L361.98 72.54M361.98 72.54L360.69 75.17M360.69 75.17L359.75 77.94M359.75 77.94L359.17 80.81M359.17 80.81L358.98 83.73M358.98 83.73L359.17 86.65M359.17 86.65L359.75 89.52M359.75 89.52L360.69 92.29M360.69 92.29L361.98 94.92M361.98 94.92L363.61 97.35M363.61 97.35L365.54 99.55M365.54 99.55L367.74 101.48M367.74 101.48L370.17 103.11M370.17 103.11L372.79 104.4M372.79 104.4L375.57 105.34M375.57 105.34L378.44 105.91M378.44 105.91L381.36 106.1"
     fill="none"
     stroke="black"
     stroke-width="0.5"
     id="path52"
     style="stroke-width:2;stroke-dasharray:none" />
  <path
     d="M381.36 61.36L441.02 61.36"
     fill="none"
     stroke="black"
     stroke-width="0.5"
     id="path54"
     style="stroke-width:2;stroke-dasharray:none" />
  <path
     d="M388.81 38.99L389 37.33M389 37.33L389.55 35.75M389.55 35.75L390.44 34.34M390.44 34.34L391.62 33.15M391.62 33.15L393.04 32.27M393.04 32.27L394.61 31.71M394.61 31.71L396.27 31.53M396.27 31.53L397.93 31.71M397.93 31.71L399.51 32.27M399.51 32.27L400.92 33.15M400.92 33.15L402.1 34.34M402.1 34.34L402.99 35.75M402.99 35.75L403.54 37.33M403.54 37.33L403.73 38.99M403.73 38.99L403.54 40.64M403.54 40.64L402.99 42.22M402.99 42.22L402.1 43.64M402.1 43.64L400.92 44.82M400.92 44.82L399.51 45.7M399.51 45.7L397.93 46.26M397.93 46.26L396.27 46.44M396.27 46.44L394.61 46.26M394.61 46.26L393.04 45.7M393.04 45.7L391.62 44.82M391.62 44.82L390.44 43.64M390.44 43.64L389.55 42.22M389.55 42.22L389 40.64M389 40.64L388.81 38.99"
     fill="none"
     stroke="black"
     stroke-width="0.5"
     id="path56"
     style="stroke-width:2;stroke-dasharray:none" />
  <path
     d="M381.36 150.85L441.02 150.85"
     fill="none"
     stroke="black"
     stroke-width="0.5"
     id="path58"
     style="stroke-width:2;stroke-dasharray:none" />
  <path
     d="M381.36 106.1L378.44 106.29M378.44 106.29L375.57 106.87M375.57 106.87L372.79 107.81M372.79 107.81L370.17 109.1M370.17 109.1L367.74 110.73M367.74 110.73L365.54 112.66M365.54 112.66L363.61 114.86M363.61 114.86L361.98 117.29M361.98 117.29L360.69 119.91M360.69 119.91L359.75 122.69M359.75 122.69L359.17 125.56M359.17 125.56L358.98 128.48M358.98 128.48L359.17 131.4M359.17 131.4L359.75 134.27M359.75 134.27L360.69 137.04M360.69 137.04L361.98 139.66M361.98 139.66L363.61 142.1M363.61 142.1L365.54 144.3M365.54 144.3L367.74 146.23M367.74 146.23L370.17 147.85M370.17 147.85L372.79 149.15M372.79 149.15L375.57 150.09M375.57 150.09L378.44 150.66M378.44 150.66L381.36 150.85"
     fill="none"
     stroke="black"
     stroke-width="0.5"
     id="path60"
     style="stroke-width:2;stroke-dasharray:none" />
  <path
     d="M381.36 158.31L378.44 158.5M378.44 158.5L375.57 159.07M375.57 159.07L372.79 160.01M372.79 160.01L370.17 161.3M370.17 161.3L367.74 162.93M367.74 162.93L365.54 164.86M365.54 164.86L363.61 167.06M363.61 167.06L361.98 169.49M361.98 169.49L360.69 172.12M360.69 172.12L359.75 174.89M359.75 174.89L359.17 177.76M359.17 177.76L358.98 180.68M358.98 180.68L359.17 183.6M359.17 183.6L359.75 186.47M359.75 186.47L360.69 189.24M360.69 189.24L361.98 191.87M361.98 191.87L363.61 194.3M363.61 194.3L365.54 196.5M365.54 196.5L367.74 198.43M367.74 198.43L370.17 200.05M370.17 200.05L372.79 201.35M372.79 201.35L375.57 202.29M375.57 202.29L378.44 202.86M378.44 202.86L381.36 203.05"
     fill="none"
     stroke="black"
     stroke-width="0.5"
     id="path62"
     style="stroke-width:2;stroke-dasharray:none" />
  <path
     d="M381.36 158.31L441.02 158.31"
     fill="none"
     stroke="black"
     stroke-width="0.5"
     id="path64"
     style="stroke-width:2;stroke-dasharray:none" />
  <path
     d="M381.36 247.8L441.02 247.8"
     fill="none"
     stroke="black"
     stroke-width="0.5"
     id="path66"
     style="stroke-width:2;stroke-dasharray:none" />
  <path
     d="M381.36 203.05L378.44 203.24M378.44 203.24L375.57 203.81M375.57 203.81L372.79 204.75M372.79 204.75L370.17 206.05M370.17 206.05L367.74 207.68M367.74 207.68L365.54 209.6M365.54 209.6L363.61 211.8M363.61 211.8L361.98 214.24M361.98 214.24L360.69 216.86M360.69 216.86L359.75 219.63M359.75 219.63L359.17 222.5M359.17 222.5L358.98 225.42M358.98 225.42L359.17 228.34M359.17 228.34L359.75 231.21M359.75 231.21L360.69 233.99M360.69 233.99L361.98 236.61M361.98 236.61L363.61 239.04M363.61 239.04L365.54 241.24M365.54 241.24L367.74 243.17M367.74 243.17L370.17 244.8M370.17 244.8L372.79 246.09M372.79 246.09L375.57 247.03M375.57 247.03L378.44 247.61M378.44 247.61L381.36 247.8"
     fill="none"
     stroke="black"
     stroke-width="0.5"
     id="path68"
     style="stroke-width:2;stroke-dasharray:none" />
  <path
     d="M381.36 255.25L378.44 255.45M378.44 255.45L375.57 256.02M375.57 256.02L372.79 256.96M372.79 256.96L370.17 258.25M370.17 258.25L367.74 259.88M367.74 259.88L365.54 261.81M365.54 261.81L363.61 264.01M363.61 264.01L361.98 266.44M361.98 266.44L360.69 269.07M360.69 269.07L359.75 271.84M359.75 271.84L359.17 274.71M359.17 274.71L358.98 277.63M358.98 277.63L359.17 280.55M359.17 280.55L359.75 283.42M359.75 283.42L360.69 286.19M360.69 286.19L361.98 288.81M361.98 288.81L363.61 291.25M363.61 291.25L365.54 293.45M365.54 293.45L367.74 295.38M367.74 295.38L370.17 297M370.17 297L372.79 298.3M372.79 298.3L375.57 299.24M375.57 299.24L378.44 299.81M378.44 299.81L381.36 300"
     fill="none"
     stroke="black"
     stroke-width="0.5"
     id="path70"
     style="stroke-width:2;stroke-dasharray:none" />
  <path
     d="M381.36 255.25L441.02 255.25"
     fill="none"
     stroke="black"
     stroke-width="0.5"
     id="path72"
     style="stroke-width:2;stroke-dasharray:none" />
  <path
     d="M381.36 344.75L441.02 344.75"
     fill="none"
     stroke="black"
     stroke-width="0.5"
     id="path74"
     style="stroke-width:2;stroke-dasharray:none" />
  <path
     d="M381.36 300L378.44 300.19M378.44 300.19L375.57 300.76M375.57 300.76L372.79 301.7M372.79 301.7L370.17 303M370.17 303L367.74 304.62M367.74 304.62L365.54 306.55M365.54 306.55L363.61 308.75M363.61 308.75L361.98 311.19M361.98 311.19L360.69 313.81M360.69 313.81L359.75 316.58M359.75 316.58L359.17 319.45M359.17 319.45L358.98 322.37M358.98 322.37L359.17 325.29M359.17 325.29L359.75 328.16M359.75 328.16L360.69 330.93M360.69 330.93L361.98 333.56M361.98 333.56L363.61 335.99M363.61 335.99L365.54 338.19M365.54 338.19L367.74 340.12M367.74 340.12L370.17 341.75M370.17 341.75L372.79 343.04M372.79 343.04L375.57 343.98M375.57 343.98L378.44 344.55M378.44 344.55L381.36 344.75"
     fill="none"
     stroke="black"
     stroke-width="0.5"
     id="path76"
     style="stroke-width:2;stroke-dasharray:none" />
  <path
     d="M381.36 352.2L378.44 352.39M378.44 352.39L375.57 352.97M375.57 352.97L372.79 353.91M372.79 353.91L370.17 355.2M370.17 355.2L367.74 356.83M367.74 356.83L365.54 358.76M365.54 358.76L363.61 360.96M363.61 360.96L361.98 363.39M361.98 363.39L360.69 366.01M360.69 366.01L359.75 368.79M359.75 368.79L359.17 371.66M359.17 371.66L358.98 374.58M358.98 374.58L359.17 377.5M359.17 377.5L359.75 380.37M359.75 380.37L360.69 383.14M360.69 383.14L361.98 385.76M361.98 385.76L363.61 388.2M363.61 388.2L365.54 390.4M365.54 390.4L367.74 392.32M367.74 392.32L370.17 393.95M370.17 393.95L372.79 395.25M372.79 395.25L375.57 396.19M375.57 396.19L378.44 396.76M378.44 396.76L381.36 396.95"
     fill="none"
     stroke="black"
     stroke-width="0.5"
     id="path78"
     style="stroke-width:2;stroke-dasharray:none" />
  <path
     d="M381.36 352.2L441.02 352.2"
     fill="none"
     stroke="black"
     stroke-width="0.5"
     id="path80"
     style="stroke-width:2;stroke-dasharray:none" />
  <path
     d="M381.36 441.69L441.02 441.69"
     fill="none"
     stroke="black"
     stroke-width="0.5"
     id="path82"
     style="stroke-width:2;stroke-dasharray:none" />
  <path
     d="M381.36 396.95L378.44 397.14M378.44 397.14L375.57 397.71M375.57 397.71L372.79 398.65M372.79 398.65L370.17 399.95M370.17 399.95L367.74 401.57M367.74 401.57L365.54 403.5M365.54 403.5L363.61 405.7M363.61 405.7L361.98 408.13M361.98 408.13L360.69 410.76M360.69 410.76L359.75 413.53M359.75 413.53L359.17 416.4M359.17 416.4L358.98 419.32M358.98 419.32L359.17 422.24M359.17 422.24L359.75 425.11M359.75 425.11L360.69 427.88M360.69 427.88L361.98 430.51M361.98 430.51L363.61 432.94M363.61 432.94L365.54 435.14M365.54 435.14L367.74 437.07M367.74 437.07L370.17 438.7M370.17 438.7L372.79 439.99M372.79 439.99L375.57 440.93M375.57 440.93L378.44 441.5M378.44 441.5L381.36 441.69"
     fill="none"
     stroke="black"
     stroke-width="0.5"
     id="path84"
     style="stroke-width:2;stroke-dasharray:none" />
  <path
     d="M388.81 561.01L389 559.36M389 559.36L389.55 557.78M389.55 557.78L390.44 556.36M390.44 556.36L391.62 555.18M391.62 555.18L393.04 554.3M393.04 554.3L394.61 553.74M394.61 553.74L396.27 553.56M396.27 553.56L397.93 553.74M397.93 553.74L399.51 554.3M399.51 554.3L400.92 555.18M400.92 555.18L402.1 556.36M402.1 556.36L402.99 557.78M402.99 557.78L403.54 559.36M403.54 559.36L403.73 561.01M403.73 561.01L403.54 562.67M403.54 562.67L402.99 564.25M402.99 564.25L402.1 565.66M402.1 565.66L400.92 566.85M400.92 566.85L399.51 567.73M399.51 567.73L397.93 568.29M397.93 568.29L396.27 568.47M396.27 568.47L394.61 568.29M394.61 568.29L393.04 567.73M393.04 567.73L391.62 566.85M391.62 566.85L390.44 565.66M390.44 565.66L389.55 564.25M389.55 564.25L389 562.67M389 562.67L388.81 561.01"
     fill="none"
     stroke="black"
     stroke-width="0.5"
     id="path86"
     style="stroke-width:2;stroke-dasharray:none" />
  <path
     d="M381.36 449.15L378.44 449.34M378.44 449.34L375.57 449.91M375.57 449.91L372.79 450.85M372.79 450.85L370.17 452.15M370.17 452.15L367.74 453.77M367.74 453.77L365.54 455.7M365.54 455.7L363.61 457.9M363.61 457.9L361.98 460.34M361.98 460.34L360.69 462.96M360.69 462.96L359.75 465.73M359.75 465.73L359.17 468.6M359.17 468.6L358.98 471.52M358.98 471.52L359.17 474.44M359.17 474.44L359.75 477.31M359.75 477.31L360.69 480.09M360.69 480.09L361.98 482.71M361.98 482.71L363.61 485.14M363.61 485.14L365.54 487.34M365.54 487.34L367.74 489.27M367.74 489.27L370.17 490.9M370.17 490.9L372.79 492.19M372.79 492.19L375.57 493.13M375.57 493.13L378.44 493.71M378.44 493.71L381.36 493.9"
     fill="none"
     stroke="black"
     stroke-width="0.5"
     id="path88"
     style="stroke-width:2;stroke-dasharray:none" />
  <path
     d="M381.36 449.15L441.02 449.15"
     fill="none"
     stroke="black"
     stroke-width="0.5"
     id="path90"
     style="stroke-width:2;stroke-dasharray:none" />
  <path
     d="M381.36 538.64L441.02 538.64"
     fill="none"
     stroke="black"
     stroke-width="0.5"
     id="path92"
     style="stroke-width:2;stroke-dasharray:none" />
  <path
     d="M381.36 493.9L378.44 494.09M378.44 494.09L375.57 494.66M375.57 494.66L372.79 495.6M372.79 495.6L370.17 496.89M370.17 496.89L367.74 498.52M367.74 498.52L365.54 500.45M365.54 500.45L363.61 502.65M363.61 502.65L361.98 505.08M361.98 505.08L360.69 507.71M360.69 507.71L359.75 510.48M359.75 510.48L359.17 513.35M359.17 513.35L358.98 516.27M358.98 516.27L359.17 519.19M359.17 519.19L359.75 522.06M359.75 522.06L360.69 524.83M360.69 524.83L361.98 527.46M361.98 527.46L363.61 529.89M363.61 529.89L365.54 532.09M365.54 532.09L367.74 534.02M367.74 534.02L370.17 535.64M370.17 535.64L372.79 536.94M372.79 536.94L375.57 537.88M375.57 537.88L378.44 538.45M378.44 538.45L381.36 538.64"
     fill="none"
     stroke="black"
     stroke-width="0.5"
     id="path94"
     style="stroke-width:2;stroke-dasharray:none" />
</svg>
