<?xml version="1.0" encoding="UTF-8" standalone="no"?>
<!-- Created with sK1/UniConvertor (http://sk1project.org/) -->

<svg
   width="595.276pt"
   height="841.89pt"
   viewBox="0 0 595.276 841.89"
   fill-rule="evenodd"
   version="1.1"
   id="svg34"
   sodipodi:docname="CurrentMeasuringTransformer_3.svg"
   inkscape:version="1.2.2 (732a01da63, 2022-12-09)"
   xmlns:inkscape="http://www.inkscape.org/namespaces/inkscape"
   xmlns:sodipodi="http://sodipodi.sourceforge.net/DTD/sodipodi-0.dtd"
   xmlns="http://www.w3.org/2000/svg"
   xmlns:svg="http://www.w3.org/2000/svg">
  <defs
     id="defs38" />
  <sodipodi:namedview
     id="namedview36"
     pagecolor="#505050"
     bordercolor="#eeeeee"
     borderopacity="1"
     inkscape:showpageshadow="0"
     inkscape:pageopacity="0"
     inkscape:pagecheckerboard="0"
     inkscape:deskcolor="#505050"
     inkscape:document-units="pt"
     showgrid="false"
     inkscape:zoom="0.91490573"
     inkscape:cx="396.76219"
     inkscape:cy="560.71351"
     inkscape:window-width="2560"
     inkscape:window-height="1369"
     inkscape:window-x="-8"
     inkscape:window-y="-8"
     inkscape:window-maximized="1"
     inkscape:current-layer="svg34" />
  <g
     id="g32"
     style="stroke-width:4;stroke-dasharray:none">
    <path
       style="stroke:#000000;stroke-width:4;stroke-linejoin:round;stroke-linecap:round;fill:none;stroke-dasharray:none"
       d="M 85.0414 841.317L 85.0414 2.48633"
       id="path2" />
    <path
       style="stroke:#000000;stroke-width:4;stroke-linejoin:round;stroke-linecap:round;fill:none;stroke-dasharray:none"
       d="M 51.4882 103.146C 23.7076 103.146 1.15838 125.695 1.15838 153.476C 1.15838 181.256 23.7076 203.806 51.4882 203.806"
       id="path4" />
    <path
       style="stroke:#000000;stroke-width:4;stroke-linejoin:round;stroke-linecap:round;fill:none;stroke-dasharray:none"
       d="M 51.4882 103.146L 185.701 103.146"
       id="path6" />
    <path
       style="stroke:#000000;stroke-width:4;stroke-linejoin:round;stroke-linecap:round;fill:none;stroke-dasharray:none"
       d="M 101.818 52.8162C 101.818 43.556 94.3016 36.0396 85.0414 36.0396C 75.7812 36.0396 68.2648 43.556 68.2648 52.8162C 68.2648 62.0764 75.7812 69.5928 85.0414 69.5928C 94.3016 69.5928 101.818 62.0764 101.818 52.8162z"
       id="path8" />
    <path
       style="stroke:#000000;stroke-width:4;stroke-linejoin:round;stroke-linecap:round;fill:none;stroke-dasharray:none"
       d="M 51.4882 304.465L 185.701 304.465"
       id="path10" />
    <path
       style="stroke:#000000;stroke-width:4;stroke-linejoin:round;stroke-linecap:round;fill:none;stroke-dasharray:none"
       d="M 51.4882 203.806C 23.7076 203.806 1.15838 226.355 1.15838 254.135C 1.15838 281.916 23.7076 304.465 51.4882 304.465"
       id="path12" />
    <path
       style="stroke:#000000;stroke-width:4;stroke-linejoin:round;stroke-linecap:round;fill:none;stroke-dasharray:none"
       d="M 51.4882 321.242C 23.7076 321.242 1.15838 343.791 1.15838 371.572C 1.15838 399.352 23.7076 421.901 51.4882 421.901"
       id="path14" />
    <path
       style="stroke:#000000;stroke-width:4;stroke-linejoin:round;stroke-linecap:round;fill:none;stroke-dasharray:none"
       d="M 51.4882 321.242L 185.701 321.242"
       id="path16" />
    <path
       style="stroke:#000000;stroke-width:4;stroke-linejoin:round;stroke-linecap:round;fill:none;stroke-dasharray:none"
       d="M 51.4882 522.561L 185.701 522.561"
       id="path18" />
    <path
       style="stroke:#000000;stroke-width:4;stroke-linejoin:round;stroke-linecap:round;fill:none;stroke-dasharray:none"
       d="M 51.4882 421.901C 23.7076 421.901 1.15838 444.451 1.15838 472.231C 1.15838 500.012 23.7076 522.561 51.4882 522.561"
       id="path20" />
    <path
       style="stroke:#000000;stroke-width:4;stroke-linejoin:round;stroke-linecap:round;fill:none;stroke-dasharray:none"
       d="M 101.818 790.987C 101.818 781.727 94.3016 774.21 85.0414 774.21C 75.7812 774.21 68.2648 781.727 68.2648 790.987C 68.2648 800.247 75.7812 807.763 85.0414 807.763C 94.3016 807.763 101.818 800.247 101.818 790.987z"
       id="path22" />
    <path
       style="stroke:#000000;stroke-width:4;stroke-linejoin:round;stroke-linecap:round;fill:none;stroke-dasharray:none"
       d="M 51.4882 539.338C 23.7076 539.338 1.15838 561.887 1.15838 589.667C 1.15838 617.448 23.7076 639.997 51.4882 639.997"
       id="path24" />
    <path
       style="stroke:#000000;stroke-width:4;stroke-linejoin:round;stroke-linecap:round;fill:none;stroke-dasharray:none"
       d="M 51.4882 539.338L 185.701 539.338"
       id="path26" />
    <path
       style="stroke:#000000;stroke-width:4;stroke-linejoin:round;stroke-linecap:round;fill:none;stroke-dasharray:none"
       d="M 51.4882 740.657L 185.701 740.657"
       id="path28" />
    <path
       style="stroke:#000000;stroke-width:4;stroke-linejoin:round;stroke-linecap:round;fill:none;stroke-dasharray:none"
       d="M 51.4882 639.997C 23.7076 639.997 1.15838 662.547 1.15838 690.327C 1.15838 718.108 23.7076 740.657 51.4882 740.657"
       id="path30" />
  </g>
</svg>
