<?xml version="1.0" encoding="UTF-8" standalone="no"?>
<svg
   width="800.000"
   height="600.000"
   viewBox="0.0 0.0 800.000 600.000"
   version="1.1"
   id="svg104"
   sodipodi:docname="CurrentMeasuringTransformer_6.svg"
   inkscape:version="1.2.2 (732a01da63, 2022-12-09)"
   xmlns:inkscape="http://www.inkscape.org/namespaces/inkscape"
   xmlns:sodipodi="http://sodipodi.sourceforge.net/DTD/sodipodi-0.dtd"
   xmlns="http://www.w3.org/2000/svg"
   xmlns:svg="http://www.w3.org/2000/svg">
  <defs
     id="defs108" />
  <sodipodi:namedview
     id="namedview106"
     pagecolor="#505050"
     bordercolor="#eeeeee"
     borderopacity="1"
     inkscape:showpageshadow="0"
     inkscape:pageopacity="0"
     inkscape:pagecheckerboard="0"
     inkscape:deskcolor="#505050"
     showgrid="false"
     inkscape:zoom="1.685"
     inkscape:cx="-22.551929"
     inkscape:cy="74.183976"
     inkscape:window-width="2560"
     inkscape:window-height="1369"
     inkscape:window-x="-8"
     inkscape:window-y="-8"
     inkscape:window-maximized="1"
     inkscape:current-layer="svg104" />
  <title
     id="title2">Produce by Acme CAD Converter</title>
  <desc
     id="desc4">Produce by Acme CAD Converter</desc>
  <path
     d="M403.18 576.43L403.31 575.1 403.18 574.82 403.18 576.43Z"
     fill-rule="evenodd"
     fill="blue"
     id="path48"
     style="stroke-width:4;stroke-dasharray:none" />
  <path
     d="M396.69 598.3L396.69 1.7"
     fill="none"
     stroke="black"
     stroke-width="0.5"
     id="path50"
     style="stroke-width:2;stroke-dasharray:none" />
  <path
     d="M383.43 44.79L380.72 44.97M380.72 44.97L378.06 45.52M378.06 45.52L375.5 46.43M375.5 46.43L373.09 47.68M373.09 47.68L370.88 49.25M370.88 49.25L368.89 51.1M368.89 51.1L367.18 53.2M367.18 53.2L365.77 55.52M365.77 55.52L364.69 58.01M364.69 58.01L363.96 60.63M363.96 60.63L363.59 63.32M363.59 63.32L363.59 66.03M363.59 66.03L363.96 68.72M363.96 68.72L364.69 71.33M364.69 71.33L365.77 73.82M365.77 73.82L367.18 76.14M367.18 76.14L368.89 78.25M368.89 78.25L370.88 80.1M370.88 80.1L373.09 81.66M373.09 81.66L375.5 82.91M375.5 82.91L378.06 83.82M378.06 83.82L380.72 84.37M380.72 84.37L383.43 84.56"
     fill="none"
     stroke="black"
     stroke-width="0.5"
     id="path52"
     style="stroke-width:2;stroke-dasharray:none" />
  <path
     d="M383.43 44.79L436.46 44.79"
     fill="none"
     stroke="black"
     stroke-width="0.5"
     id="path54"
     style="stroke-width:2;stroke-dasharray:none" />
  <path
     d="M390.06 24.9L390.25 23.31M390.25 23.31L390.82 21.82M390.82 21.82L391.72 20.5M391.72 20.5L392.92 19.44M392.92 19.44L394.33 18.7M394.33 18.7L395.89 18.32M395.89 18.32L397.48 18.32M397.48 18.32L399.04 18.7M399.04 18.7L400.45 19.44M400.45 19.44L401.65 20.5M401.65 20.5L402.56 21.82M402.56 21.82L403.12 23.31M403.12 23.31L403.31 24.9M403.31 24.9L403.12 26.49M403.12 26.49L402.56 27.98M402.56 27.98L401.65 29.29M401.65 29.29L400.45 30.35M400.45 30.35L399.04 31.1M399.04 31.1L397.48 31.48M397.48 31.48L395.89 31.48M395.89 31.48L394.33 31.1M394.33 31.1L392.92 30.35M392.92 30.35L391.72 29.29M391.72 29.29L390.82 27.98M390.82 27.98L390.25 26.49M390.25 26.49L390.06 24.9"
     fill="none"
     stroke="black"
     stroke-width="0.5"
     id="path56"
     style="stroke-width:2;stroke-dasharray:none" />
  <path
     d="M383.43 124.33L436.46 124.33"
     fill="none"
     stroke="black"
     stroke-width="0.5"
     id="path58"
     style="stroke-width:2;stroke-dasharray:none" />
  <path
     d="M383.43 84.56L380.72 84.74M380.72 84.74L378.06 85.3M378.06 85.3L375.5 86.21M375.5 86.21L373.09 87.45M373.09 87.45L370.88 89.02M370.88 89.02L368.89 90.87M368.89 90.87L367.18 92.98M367.18 92.98L365.77 95.3M365.77 95.3L364.69 97.79M364.69 97.79L363.96 100.4M363.96 100.4L363.59 103.09M363.59 103.09L363.59 105.8M363.59 105.8L363.96 108.49M363.96 108.49L364.69 111.11M364.69 111.11L365.77 113.6M365.77 113.6L367.18 115.91M367.18 115.91L368.89 118.02M368.89 118.02L370.88 119.87M370.88 119.87L373.09 121.44M373.09 121.44L375.5 122.69M375.5 122.69L378.06 123.6M378.06 123.6L380.72 124.15M380.72 124.15L383.43 124.33"
     fill="none"
     stroke="black"
     stroke-width="0.5"
     id="path60"
     style="stroke-width:2;stroke-dasharray:none" />
  <path
     d="M383.43 130.96L380.72 131.15M380.72 131.15L378.06 131.7M378.06 131.7L375.5 132.61M375.5 132.61L373.09 133.86M373.09 133.86L370.88 135.42M370.88 135.42L368.89 137.28M368.89 137.28L367.18 139.38M367.18 139.38L365.77 141.7M365.77 141.7L364.69 144.19M364.69 144.19L363.96 146.8M363.96 146.8L363.59 149.49M363.59 149.49L363.59 152.21M363.59 152.21L363.96 154.89M363.96 154.89L364.69 157.51M364.69 157.51L365.77 160M365.77 160L367.18 162.32M367.18 162.32L368.89 164.42M368.89 164.42L370.88 166.28M370.88 166.28L373.09 167.84M373.09 167.84L375.5 169.09M375.5 169.09L378.06 170M378.06 170L380.72 170.55M380.72 170.55L383.43 170.74"
     fill="none"
     stroke="black"
     stroke-width="0.5"
     id="path62"
     style="stroke-width:2;stroke-dasharray:none" />
  <path
     d="M383.43 130.96L436.46 130.96"
     fill="none"
     stroke="black"
     stroke-width="0.5"
     id="path64"
     style="stroke-width:2;stroke-dasharray:none" />
  <path
     d="M383.43 210.51L436.46 210.51"
     fill="none"
     stroke="black"
     stroke-width="0.5"
     id="path66"
     style="stroke-width:2;stroke-dasharray:none" />
  <path
     d="M383.43 170.74L380.72 170.92M380.72 170.92L378.06 171.47M378.06 171.47L375.5 172.38M375.5 172.38L373.09 173.63M373.09 173.63L370.88 175.2M370.88 175.2L368.89 177.05M368.89 177.05L367.18 179.15M367.18 179.15L365.77 181.47M365.77 181.47L364.69 183.96M364.69 183.96L363.96 186.58M363.96 186.58L363.59 189.27M363.59 189.27L363.59 191.98M363.59 191.98L363.96 194.67M363.96 194.67L364.69 197.28M364.69 197.28L365.77 199.77M365.77 199.77L367.18 202.09M367.18 202.09L368.89 204.2M368.89 204.2L370.88 206.05M370.88 206.05L373.09 207.61M373.09 207.61L375.5 208.86M375.5 208.86L378.06 209.77M378.06 209.77L380.72 210.32M380.72 210.32L383.43 210.51"
     fill="none"
     stroke="black"
     stroke-width="0.5"
     id="path68"
     style="stroke-width:2;stroke-dasharray:none" />
  <path
     d="M383.43 217.14L380.72 217.32M380.72 217.32L378.06 217.88M378.06 217.88L375.5 218.78M375.5 218.78L373.09 220.03M373.09 220.03L370.88 221.6M370.88 221.6L368.89 223.45M368.89 223.45L367.18 225.56M367.18 225.56L365.77 227.88M365.77 227.88L364.69 230.37M364.69 230.37L363.96 232.98M363.96 232.98L363.59 235.67M363.59 235.67L363.59 238.38M363.59 238.38L363.96 241.07M363.96 241.07L364.69 243.68M364.69 243.68L365.77 246.17M365.77 246.17L367.18 248.49M367.18 248.49L368.89 250.6M368.89 250.6L370.88 252.45M370.88 252.45L373.09 254.02M373.09 254.02L375.5 255.27M375.5 255.27L378.06 256.17M378.06 256.17L380.72 256.73M380.72 256.73L383.43 256.91"
     fill="none"
     stroke="black"
     stroke-width="0.5"
     id="path70"
     style="stroke-width:2;stroke-dasharray:none" />
  <path
     d="M383.43 217.14L436.46 217.14"
     fill="none"
     stroke="black"
     stroke-width="0.5"
     id="path72"
     style="stroke-width:2;stroke-dasharray:none" />
  <path
     d="M383.43 296.69L436.46 296.69"
     fill="none"
     stroke="black"
     stroke-width="0.5"
     id="path74"
     style="stroke-width:2;stroke-dasharray:none" />
  <path
     d="M383.43 256.91L380.72 257.1M380.72 257.1L378.06 257.65M378.06 257.65L375.5 258.56M375.5 258.56L373.09 259.81M373.09 259.81L370.88 261.37M370.88 261.37L368.89 263.22M368.89 263.22L367.18 265.33M367.18 265.33L365.77 267.65M365.77 267.65L364.69 270.14M364.69 270.14L363.96 272.75M363.96 272.75L363.59 275.44M363.59 275.44L363.59 278.16M363.59 278.16L363.96 280.84M363.96 280.84L364.69 283.46M364.69 283.46L365.77 285.95M365.77 285.95L367.18 288.27M367.18 288.27L368.89 290.37M368.89 290.37L370.88 292.23M370.88 292.23L373.09 293.79M373.09 293.79L375.5 295.04M375.5 295.04L378.06 295.95M378.06 295.95L380.72 296.5M380.72 296.5L383.43 296.69"
     fill="none"
     stroke="black"
     stroke-width="0.5"
     id="path76"
     style="stroke-width:2;stroke-dasharray:none" />
  <path
     d="M383.43 303.31L380.72 303.5M380.72 303.5L378.06 304.05M378.06 304.05L375.5 304.96M375.5 304.96L373.09 306.21M373.09 306.21L370.88 307.77M370.88 307.77L368.89 309.63M368.89 309.63L367.18 311.73M367.18 311.73L365.77 314.05M365.77 314.05L364.69 316.54M364.69 316.54L363.96 319.16M363.96 319.16L363.59 321.84M363.59 321.84L363.59 324.56M363.59 324.56L363.96 327.25M363.96 327.25L364.69 329.86M364.69 329.86L365.77 332.35M365.77 332.35L367.18 334.67M367.18 334.67L368.89 336.78M368.89 336.78L370.88 338.63M370.88 338.63L373.09 340.19M373.09 340.19L375.5 341.44M375.5 341.44L378.06 342.35M378.06 342.35L380.72 342.9M380.72 342.9L383.43 343.09"
     fill="none"
     stroke="black"
     stroke-width="0.5"
     id="path78"
     style="stroke-width:2;stroke-dasharray:none" />
  <path
     d="M383.43 303.31L436.46 303.31"
     fill="none"
     stroke="black"
     stroke-width="0.5"
     id="path80"
     style="stroke-width:2;stroke-dasharray:none" />
  <path
     d="M383.43 382.86L436.46 382.86"
     fill="none"
     stroke="black"
     stroke-width="0.5"
     id="path82"
     style="stroke-width:2;stroke-dasharray:none" />
  <path
     d="M383.43 343.09L380.72 343.27M380.72 343.27L378.06 343.83M378.06 343.83L375.5 344.73M375.5 344.73L373.09 345.98M373.09 345.98L370.88 347.55M370.88 347.55L368.89 349.4M368.89 349.4L367.18 351.51M367.18 351.51L365.77 353.83M365.77 353.83L364.69 356.32M364.69 356.32L363.96 358.93M363.96 358.93L363.59 361.62M363.59 361.62L363.59 364.33M363.59 364.33L363.96 367.02M363.96 367.02L364.69 369.63M364.69 369.63L365.77 372.12M365.77 372.12L367.18 374.44M367.18 374.44L368.89 376.55M368.89 376.55L370.88 378.4M370.88 378.4L373.09 379.97M373.09 379.97L375.5 381.22M375.5 381.22L378.06 382.12M378.06 382.12L380.72 382.68M380.72 382.68L383.43 382.86"
     fill="none"
     stroke="black"
     stroke-width="0.5"
     id="path84"
     style="stroke-width:2;stroke-dasharray:none" />
  <path
     d="M383.43 389.49L380.72 389.68M380.72 389.68L378.06 390.23M378.06 390.23L375.5 391.14M375.5 391.14L373.09 392.39M373.09 392.39L370.88 393.95M370.88 393.95L368.89 395.8M368.89 395.8L367.18 397.91M367.18 397.91L365.77 400.23M365.77 400.23L364.69 402.72M364.69 402.72L363.96 405.33M363.96 405.33L363.59 408.02M363.59 408.02L363.59 410.73M363.59 410.73L363.96 413.42M363.96 413.42L364.69 416.04M364.69 416.04L365.77 418.53M365.77 418.53L367.18 420.85M367.18 420.85L368.89 422.95M368.89 422.95L370.88 424.8M370.88 424.8L373.09 426.37M373.09 426.37L375.5 427.62M375.5 427.62L378.06 428.53M378.06 428.53L380.72 429.08M380.72 429.08L383.43 429.26"
     fill="none"
     stroke="black"
     stroke-width="0.5"
     id="path86"
     style="stroke-width:2;stroke-dasharray:none" />
  <path
     d="M383.43 389.49L436.46 389.49"
     fill="none"
     stroke="black"
     stroke-width="0.5"
     id="path88"
     style="stroke-width:2;stroke-dasharray:none" />
  <path
     d="M383.43 469.04L436.46 469.04"
     fill="none"
     stroke="black"
     stroke-width="0.5"
     id="path90"
     style="stroke-width:2;stroke-dasharray:none" />
  <path
     d="M383.43 429.26L380.72 429.45M380.72 429.45L378.06 430M378.06 430L375.5 430.91M375.5 430.91L373.09 432.16M373.09 432.16L370.88 433.72M370.88 433.72L368.89 435.58M368.89 435.58L367.18 437.68M367.18 437.68L365.77 440M365.77 440L364.69 442.49M364.69 442.49L363.96 445.11M363.96 445.11L363.59 447.79M363.59 447.79L363.59 450.51M363.59 450.51L363.96 453.2M363.96 453.2L364.69 455.81M364.69 455.81L365.77 458.3M365.77 458.3L367.18 460.62M367.18 460.62L368.89 462.72M368.89 462.72L370.88 464.58M370.88 464.58L373.09 466.14M373.09 466.14L375.5 467.39M375.5 467.39L378.06 468.3M378.06 468.3L380.72 468.85M380.72 468.85L383.43 469.04"
     fill="none"
     stroke="black"
     stroke-width="0.5"
     id="path92"
     style="stroke-width:2;stroke-dasharray:none" />
  <path
     d="M390.06 575.1L390.25 573.51M390.25 573.51L390.82 572.02M390.82 572.02L391.72 570.71M391.72 570.71L392.92 569.65M392.92 569.65L394.33 568.9M394.33 568.9L395.89 568.52M395.89 568.52L397.48 568.52M397.48 568.52L399.04 568.9M399.04 568.9L400.45 569.65M400.45 569.65L401.65 570.71M401.65 570.71L402.56 572.02M402.56 572.02L403.12 573.51M403.12 573.51L403.31 575.1M403.31 575.1L403.12 576.69M403.12 576.69L402.56 578.18M402.56 578.18L401.65 579.5M401.65 579.5L400.45 580.56M400.45 580.56L399.04 581.3M399.04 581.3L397.48 581.68M397.48 581.68L395.89 581.68M395.89 581.68L394.33 581.3M394.33 581.3L392.92 580.56M392.92 580.56L391.72 579.5M391.72 579.5L390.82 578.18M390.82 578.18L390.25 576.69M390.25 576.69L390.06 575.1"
     fill="none"
     stroke="black"
     stroke-width="0.5"
     id="path94"
     style="stroke-width:2;stroke-dasharray:none" />
  <path
     d="M383.43 475.67L380.72 475.85M380.72 475.85L378.06 476.4M378.06 476.4L375.5 477.31M375.5 477.31L373.09 478.56M373.09 478.56L370.88 480.13M370.88 480.13L368.89 481.98M368.89 481.98L367.18 484.09M367.18 484.09L365.77 486.4M365.77 486.4L364.69 488.89M364.69 488.89L363.96 491.51M363.96 491.51L363.59 494.2M363.59 494.2L363.59 496.91M363.59 496.91L363.96 499.6M363.96 499.6L364.69 502.21M364.69 502.21L365.77 504.7M365.77 504.7L367.18 507.02M367.18 507.02L368.89 509.13M368.89 509.13L370.88 510.98M370.88 510.98L373.09 512.55M373.09 512.55L375.5 513.79M375.5 513.79L378.06 514.7M378.06 514.7L380.72 515.26M380.72 515.26L383.43 515.44"
     fill="none"
     stroke="black"
     stroke-width="0.5"
     id="path96"
     style="stroke-width:2;stroke-dasharray:none" />
  <path
     d="M383.43 475.67L436.46 475.67"
     fill="none"
     stroke="black"
     stroke-width="0.5"
     id="path98"
     style="stroke-width:2;stroke-dasharray:none" />
  <path
     d="M383.43 555.21L436.46 555.21"
     fill="none"
     stroke="black"
     stroke-width="0.5"
     id="path100"
     style="stroke-width:2;stroke-dasharray:none" />
  <path
     d="M383.43 515.44L380.72 515.63M380.72 515.63L378.06 516.18M378.06 516.18L375.5 517.09M375.5 517.09L373.09 518.34M373.09 518.34L370.88 519.9M370.88 519.9L368.89 521.75M368.89 521.75L367.18 523.86M367.18 523.86L365.77 526.18M365.77 526.18L364.69 528.67M364.69 528.67L363.96 531.28M363.96 531.28L363.59 533.97M363.59 533.97L363.59 536.68M363.59 536.68L363.96 539.37M363.96 539.37L364.69 541.99M364.69 541.99L365.77 544.48M365.77 544.48L367.18 546.8M367.18 546.8L368.89 548.9M368.89 548.9L370.88 550.75M370.88 550.75L373.09 552.32M373.09 552.32L375.5 553.57M375.5 553.57L378.06 554.48M378.06 554.48L380.72 555.03M380.72 555.03L383.43 555.21"
     fill="none"
     stroke="black"
     stroke-width="0.5"
     id="path102"
     style="stroke-width:2;stroke-dasharray:none" />
</svg>
