<?xml version="1.0" encoding="UTF-8" standalone="no"?>
<!-- Created with sK1/UniConvertor (http://sk1project.org/) -->

<svg
   width="595.276pt"
   height="841.89pt"
   viewBox="0 0 595.276 841.89"
   fill-rule="evenodd"
   version="1.1"
   id="svg42"
   sodipodi:docname="CurrentMeasuringTransformer_4.svg"
   inkscape:version="1.2.2 (732a01da63, 2022-12-09)"
   xmlns:inkscape="http://www.inkscape.org/namespaces/inkscape"
   xmlns:sodipodi="http://sodipodi.sourceforge.net/DTD/sodipodi-0.dtd"
   xmlns="http://www.w3.org/2000/svg"
   xmlns:svg="http://www.w3.org/2000/svg">
  <defs
     id="defs46" />
  <sodipodi:namedview
     id="namedview44"
     pagecolor="#505050"
     bordercolor="#eeeeee"
     borderopacity="1"
     inkscape:showpageshadow="0"
     inkscape:pageopacity="0"
     inkscape:pagecheckerboard="0"
     inkscape:deskcolor="#505050"
     inkscape:document-units="pt"
     showgrid="false"
     inkscape:zoom="0.91490573"
     inkscape:cx="396.76219"
     inkscape:cy="560.71351"
     inkscape:window-width="2560"
     inkscape:window-height="1369"
     inkscape:window-x="-8"
     inkscape:window-y="-8"
     inkscape:window-maximized="1"
     inkscape:current-layer="svg42" />
  <g
     id="g40"
     style="stroke-width:4;stroke-dasharray:none">
    <path
       style="stroke:#000000;stroke-width:4;stroke-linejoin:round;stroke-linecap:round;fill:none;stroke-dasharray:none"
       d="M 70.3249 841.298L 70.3249 2.20825"
       id="path2" />
    <path
       style="stroke:#000000;stroke-width:4;stroke-linejoin:round;stroke-linecap:round;fill:none;stroke-dasharray:none"
       d="M 42.3553 65.14C 19.1977 65.14 0.400808 83.9368 0.400808 107.094C 0.400808 130.252 19.1977 149.049 42.3553 149.049"
       id="path4" />
    <path
       style="stroke:#000000;stroke-width:4;stroke-linejoin:round;stroke-linecap:round;fill:none;stroke-dasharray:none"
       d="M 42.3553 65.14L 154.234 65.14"
       id="path6" />
    <path
       style="stroke:#000000;stroke-width:4;stroke-linejoin:round;stroke-linecap:round;fill:none;stroke-dasharray:none"
       d="M 84.3098 23.1855C 84.3098 15.4662 78.0442 9.20062 70.3249 9.20062C 62.6057 9.20062 56.3401 15.4662 56.3401 23.1855C 56.3401 30.9047 62.6057 37.1703 70.3249 37.1703C 78.0442 37.1703 84.3098 30.9047 84.3098 23.1855z"
       id="path8" />
    <path
       style="stroke:#000000;stroke-width:4;stroke-linejoin:round;stroke-linecap:round;fill:none;stroke-dasharray:none"
       d="M 42.3553 232.958L 154.234 232.958"
       id="path10" />
    <path
       style="stroke:#000000;stroke-width:4;stroke-linejoin:round;stroke-linecap:round;fill:none;stroke-dasharray:none"
       d="M 42.3553 149.049C 19.1977 149.049 0.400808 167.846 0.400808 191.003C 0.400808 214.161 19.1977 232.958 42.3553 232.958"
       id="path12" />
    <path
       style="stroke:#000000;stroke-width:4;stroke-linejoin:round;stroke-linecap:round;fill:none;stroke-dasharray:none"
       d="M 42.3553 246.943C 19.1977 246.943 0.400808 265.74 0.400808 288.897C 0.400808 312.055 19.1977 330.852 42.3553 330.852"
       id="path14" />
    <path
       style="stroke:#000000;stroke-width:4;stroke-linejoin:round;stroke-linecap:round;fill:none;stroke-dasharray:none"
       d="M 42.3553 246.943L 154.234 246.943"
       id="path16" />
    <path
       style="stroke:#000000;stroke-width:4;stroke-linejoin:round;stroke-linecap:round;fill:none;stroke-dasharray:none"
       d="M 42.3553 414.761L 154.234 414.761"
       id="path18" />
    <path
       style="stroke:#000000;stroke-width:4;stroke-linejoin:round;stroke-linecap:round;fill:none;stroke-dasharray:none"
       d="M 42.3553 330.852C 19.1977 330.852 0.400808 349.649 0.400808 372.806C 0.400808 395.964 19.1977 414.761 42.3553 414.761"
       id="path20" />
    <path
       style="stroke:#000000;stroke-width:4;stroke-linejoin:round;stroke-linecap:round;fill:none;stroke-dasharray:none"
       d="M 42.3553 428.745C 19.1977 428.745 0.400808 447.542 0.400808 470.7C 0.400808 493.858 19.1977 512.654 42.3553 512.654"
       id="path22" />
    <path
       style="stroke:#000000;stroke-width:4;stroke-linejoin:round;stroke-linecap:round;fill:none;stroke-dasharray:none"
       d="M 42.3553 428.745L 154.234 428.745"
       id="path24" />
    <path
       style="stroke:#000000;stroke-width:4;stroke-linejoin:round;stroke-linecap:round;fill:none;stroke-dasharray:none"
       d="M 42.3553 596.563L 154.234 596.563"
       id="path26" />
    <path
       style="stroke:#000000;stroke-width:4;stroke-linejoin:round;stroke-linecap:round;fill:none;stroke-dasharray:none"
       d="M 42.3553 512.654C 19.1977 512.654 0.400808 531.451 0.400808 554.609C 0.400808 577.767 19.1977 596.563 42.3553 596.563"
       id="path28" />
    <path
       style="stroke:#000000;stroke-width:4;stroke-linejoin:round;stroke-linecap:round;fill:none;stroke-dasharray:none"
       d="M 84.3098 820.321C 84.3098 812.601 78.0442 806.336 70.3249 806.336C 62.6057 806.336 56.3401 812.601 56.3401 820.321C 56.3401 828.04 62.6057 834.305 70.3249 834.305C 78.0442 834.305 84.3098 828.04 84.3098 820.321z"
       id="path30" />
    <path
       style="stroke:#000000;stroke-width:4;stroke-linejoin:round;stroke-linecap:round;fill:none;stroke-dasharray:none"
       d="M 42.3553 610.548C 19.1977 610.548 0.400808 629.345 0.400808 652.503C 0.400808 675.66 19.1977 694.457 42.3553 694.457"
       id="path32" />
    <path
       style="stroke:#000000;stroke-width:4;stroke-linejoin:round;stroke-linecap:round;fill:none;stroke-dasharray:none"
       d="M 42.3553 610.548L 154.234 610.548"
       id="path34" />
    <path
       style="stroke:#000000;stroke-width:4;stroke-linejoin:round;stroke-linecap:round;fill:none;stroke-dasharray:none"
       d="M 42.3553 778.366L 154.234 778.366"
       id="path36" />
    <path
       style="stroke:#000000;stroke-width:4;stroke-linejoin:round;stroke-linecap:round;fill:none;stroke-dasharray:none"
       d="M 42.3553 694.457C 19.1977 694.457 0.400808 713.254 0.400808 736.412C 0.400808 759.569 19.1977 778.366 42.3553 778.366"
       id="path38" />
  </g>
</svg>
