<?xml version="1.0" encoding="UTF-8"?>
<svg xmlns="http://www.w3.org/2000/svg" width="800.000" height="600.000" viewBox="0.0 0.0 800.000 600.000" version="1.1">
  <title>Produce by Acme CAD Converter</title>
  <desc>Produce by Acme CAD Converter</desc>
<path d="M376.56 1.7L423.44 1.7 423.44 162.1 376.56 162.1 376.56 1.7Z"
fill-rule="evenodd" fill="black"/>
<path d="M383.42 145.52L416.58 178.67 316.01 279.24 282.86 246.09 383.42 145.52Z"
fill-rule="evenodd" fill="black"/>
<path d="M517.14 246.09L483.99 279.24 383.42 178.67 416.58 145.52 517.14 246.09Z"
fill-rule="evenodd" fill="black"/>
<path d="M376.56 322.91L423.44 322.91 423.44 598.3 376.56 598.3 376.56 322.91Z"
fill-rule="evenodd" fill="black"/>
<path d="M316.01 440.06L282.86 406.9 400 289.76 400 356.06 316.01 440.06Z"
fill-rule="evenodd" fill="black"/>
<path d="M400 356.06L400 289.76 517.14 406.9 483.99 440.06 400 356.06Z"
fill-rule="evenodd" fill="black"/>
</svg>
