<?xml version="1.0" encoding="UTF-8" standalone="no"?>
<svg
   width="800.000"
   height="600.000"
   viewBox="0.0 0.0 800.000 600.000"
   version="1.1"
   id="svg16"
   sodipodi:docname="LoadBreakSwitch.svg"
   inkscape:version="1.2.2 (732a01da63, 2022-12-09)"
   xmlns:inkscape="http://www.inkscape.org/namespaces/inkscape"
   xmlns:sodipodi="http://sodipodi.sourceforge.net/DTD/sodipodi-0.dtd"
   xmlns="http://www.w3.org/2000/svg"
   xmlns:svg="http://www.w3.org/2000/svg">
  <defs
     id="defs20" />
  <sodipodi:namedview
     id="namedview18"
     pagecolor="#505050"
     bordercolor="#eeeeee"
     borderopacity="1"
     inkscape:showpageshadow="0"
     inkscape:pageopacity="0"
     inkscape:pagecheckerboard="0"
     inkscape:deskcolor="#505050"
     showgrid="false"
     inkscape:zoom="1.685"
     inkscape:cx="400"
     inkscape:cy="299.70326"
     inkscape:window-width="2560"
     inkscape:window-height="1369"
     inkscape:window-x="-8"
     inkscape:window-y="-8"
     inkscape:window-maximized="1"
     inkscape:current-layer="svg16" />
  <title
     id="title2">Produce by Acme CAD Converter</title>
  <desc
     id="desc4">Produce by Acme CAD Converter</desc>
  <path
     d="M453.97 160.79L453.97 1.7"
     fill="none"
     stroke="black"
     stroke-width="0.5"
     id="path6"
     style="stroke-width:4;stroke-dasharray:none" />
  <path
     d="M453.97 399.43L453.97 598.3"
     fill="none"
     stroke="black"
     stroke-width="0.5"
     id="path8"
     style="stroke-width:4;stroke-dasharray:none" />
  <path
     d="M453.97 399.43L316.19 160.79"
     fill="none"
     stroke="black"
     stroke-width="0.5"
     id="path10"
     style="stroke-width:4;stroke-dasharray:none" />
  <path
     d="M424.14 160.79L483.81 160.79"
     fill="none"
     stroke="black"
     stroke-width="0.5"
     id="path12"
     style="stroke-width:4;stroke-dasharray:none" />
  <path
     d="M424.14 190.62L424.34 187.22M424.34 187.22L424.92 183.87M424.92 183.87L425.88 180.6M425.88 180.6L427.21 177.46M427.21 177.46L428.88 174.5M428.88 174.5L430.88 171.74M430.88 171.74L433.19 169.23M433.19 169.23L435.76 167M435.76 167L438.57 165.08M438.57 165.08L441.58 163.49M441.58 163.49L444.76 162.25M444.76 162.25L448.05 161.39M448.05 161.39L451.42 160.9M451.42 160.9L454.83 160.8M454.83 160.8L458.22 161.1M458.22 161.1L461.56 161.77M461.56 161.77L464.8 162.82M464.8 162.82L467.9 164.24M467.9 164.24L470.81 166M470.81 166L473.51 168.08M473.51 168.08L475.95 170.45M475.95 170.45L478.11 173.09M478.11 173.09L479.95 175.95M479.95 175.95L481.45 179.01M481.45 179.01L482.6 182.22M482.6 182.22L483.37 185.54M483.37 185.54L483.76 188.92M483.76 188.92L483.76 192.33M483.76 192.33L483.37 195.71M483.37 195.71L482.6 199.03M482.6 199.03L481.45 202.23M481.45 202.23L479.95 205.29M479.95 205.29L478.11 208.16M478.11 208.16L475.95 210.79M475.95 210.79L473.51 213.17M473.51 213.17L470.81 215.25M470.81 215.25L467.9 217.01M467.9 217.01L464.8 218.42M464.8 218.42L461.56 219.47M461.56 219.47L458.22 220.15M458.22 220.15L454.83 220.44M454.83 220.44L451.42 220.34M451.42 220.34L448.05 219.86M448.05 219.86L444.76 218.99M444.76 218.99L441.58 217.76M441.58 217.76L438.57 216.17M438.57 216.17L435.76 214.25M435.76 214.25L433.19 212.01M433.19 212.01L430.88 209.51M430.88 209.51L428.88 206.75M428.88 206.75L427.21 203.78M427.21 203.78L425.88 200.65M425.88 200.65L424.92 197.38M424.92 197.38L424.34 194.02M424.34 194.02L424.14 190.62"
     fill="none"
     stroke="black"
     stroke-width="0.5"
     id="path14"
     style="stroke-width:4;stroke-dasharray:none" />
</svg>
