<?xml version="1.0" encoding="UTF-8"?>
<svg xmlns="http://www.w3.org/2000/svg" width="800.000" height="600.000" viewBox="0.0 0.0 800.000 600.000" version="1.1">
  <title>Produce by Acme CAD Converter</title>
  <desc>Produce by Acme CAD Converter</desc>
<path d="M398.79 210.99L401.2 210.99 401.2 299.38 398.79 299.38 398.79 210.99Z"
fill-rule="evenodd" fill="black"/>
<path d="M401.2 299.38L398.79 299.38 398.8 253.98 401.21 256.39 401.2 299.38Z"
fill-rule="evenodd" fill="black"/>
<path d="M401.21 256.39L398.8 253.98 666.36 253.98 663.95 256.39 401.21 256.39Z"
fill-rule="evenodd" fill="black"/>
<path d="M663.95 256.39L666.36 253.98 666.19 356.5 663.77 358.91 663.95 256.39Z"
fill-rule="evenodd" fill="black"/>
<path d="M663.77 358.91L666.19 356.5 683.86 356.5 681.45 358.91 663.77 358.91Z"
fill-rule="evenodd" fill="black"/>
<path d="M681.45 358.91L683.86 356.5 683.86 388.33 681.45 392.5 681.45 358.91Z"
fill-rule="evenodd" fill="black"/>
<path d="M681.45 392.5L683.86 388.33 723.29 365.57 724.49 367.66 681.45 392.5Z"
fill-rule="evenodd" fill="black"/>
<path d="M723.29 365.57L724.49 367.66 683.86 391.11 681.45 389.72 723.29 365.57Z"
fill-rule="evenodd" fill="black"/>
<path d="M681.45 389.72L683.86 391.11 683.86 447.29 681.45 444.88 681.45 389.72Z"
fill-rule="evenodd" fill="black"/>
<path d="M681.45 444.88L683.86 447.29 646.1 447.29 648.51 444.88 681.45 444.88Z"
fill-rule="evenodd" fill="black"/>
<path d="M648.51 444.88L646.1 447.29 646.1 410.13 648.51 411.53 648.51 444.88Z"
fill-rule="evenodd" fill="black"/>
<path d="M648.51 411.53L646.1 410.13 681.45 389.72 683.86 391.11 648.51 411.53Z"
fill-rule="evenodd" fill="black"/>
<path d="M683.86 391.11L681.45 389.72 681.45 358.91 683.86 356.5 683.86 391.11Z"
fill-rule="evenodd" fill="black"/>
<path d="M683.86 356.5L681.45 358.91 648.51 358.91 646.1 356.5 683.86 356.5Z"
fill-rule="evenodd" fill="black"/>
<path d="M646.1 356.5L648.51 358.91 648.51 411.53 646.1 410.13 646.1 356.5Z"
fill-rule="evenodd" fill="black"/>
<path d="M646.1 410.13L648.51 411.53 607.25 435.35 604.84 433.96 646.1 410.13Z"
fill-rule="evenodd" fill="black"/>
<path d="M604.84 433.96L607.25 435.35 607.25 474.29 604.84 474.29 604.84 433.96Z"
fill-rule="evenodd" fill="black"/>
<path d="M607.25 474.29L604.84 474.29 604.84 433.96 607.25 435.35 607.25 474.29Z"
fill-rule="evenodd" fill="black"/>
<path d="M607.25 435.35L604.84 433.96 648.51 408.74 646.1 412.92 607.25 435.35Z"
fill-rule="evenodd" fill="black"/>
<path d="M646.1 412.92L648.51 408.74 648.51 444.88 646.1 447.29 646.1 412.92Z"
fill-rule="evenodd" fill="black"/>
<path d="M646.1 447.29L648.51 444.88 681.45 444.88 683.86 447.29 646.1 447.29Z"
fill-rule="evenodd" fill="black"/>
<path d="M683.86 447.29L681.45 444.88 681.45 358.91 683.86 356.5 683.86 447.29Z"
fill-rule="evenodd" fill="black"/>
<path d="M683.86 356.5L681.45 358.91 648.51 358.91 646.1 356.5 683.86 356.5Z"
fill-rule="evenodd" fill="black"/>
<path d="M646.1 356.5L648.51 358.91 648.51 444.88 646.1 447.29 646.1 356.5Z"
fill-rule="evenodd" fill="black"/>
<path d="M646.1 447.29L648.51 444.88 666.18 444.88 663.77 447.29 646.1 447.29Z"
fill-rule="evenodd" fill="black"/>
<path d="M663.77 447.29L666.18 444.88 666.17 492.12 663.76 489.71 663.77 447.29Z"
fill-rule="evenodd" fill="black"/>
<path d="M663.76 489.71L666.17 492.12 628.13 492.12 628.13 489.71 663.76 489.71Z"
fill-rule="evenodd" fill="black"/>
<path d="M628.13 492.12L628.13 489.71 701.79 489.71 701.79 492.12 628.13 492.12Z"
fill-rule="evenodd" fill="black"/>
<path d="M414.46 255.18L414.27 252.8 411.89 253.2 412.05 255.18 414.46 255.18Z"
fill-rule="nonzero" fill="black"/>
<path d="M414.27 252.8L413.68 250.49 411.4 251.27 411.89 253.2 414.27 252.8Z"
fill-rule="nonzero" fill="black"/>
<path d="M413.68 250.49L412.72 248.3 410.6 249.45 411.4 251.27 413.68 250.49Z"
fill-rule="nonzero" fill="black"/>
<path d="M412.72 248.3L411.41 246.3 409.51 247.78 410.6 249.45 412.72 248.3Z"
fill-rule="nonzero" fill="black"/>
<path d="M411.41 246.3L409.8 244.54 408.16 246.32 409.51 247.78 411.41 246.3Z"
fill-rule="nonzero" fill="black"/>
<path d="M409.8 244.54L407.91 243.08 406.59 245.09 408.16 246.32 409.8 244.54Z"
fill-rule="nonzero" fill="black"/>
<path d="M407.91 243.08L405.81 241.94 404.84 244.15 406.59 245.09 407.91 243.08Z"
fill-rule="nonzero" fill="black"/>
<path d="M405.81 241.94L403.55 241.16 402.96 243.5 404.84 244.15 405.81 241.94Z"
fill-rule="nonzero" fill="black"/>
<path d="M403.55 241.16L401.19 240.77 401 243.17 402.96 243.5 403.55 241.16Z"
fill-rule="nonzero" fill="black"/>
<path d="M401.19 240.77L398.81 240.77 399 243.17 401 243.17 401.19 240.77Z"
fill-rule="nonzero" fill="black"/>
<path d="M398.81 240.77L396.45 241.16 397.04 243.5 399 243.17 398.81 240.77Z"
fill-rule="nonzero" fill="black"/>
<path d="M396.45 241.16L394.19 241.94 395.16 244.15 397.04 243.5 396.45 241.16Z"
fill-rule="nonzero" fill="black"/>
<path d="M394.19 241.94L392.09 243.08 393.41 245.09 395.16 244.15 394.19 241.94Z"
fill-rule="nonzero" fill="black"/>
<path d="M392.09 243.08L390.2 244.54 391.84 246.32 393.41 245.09 392.09 243.08Z"
fill-rule="nonzero" fill="black"/>
<path d="M390.2 244.54L388.59 246.3 390.49 247.78 391.84 246.32 390.2 244.54Z"
fill-rule="nonzero" fill="black"/>
<path d="M388.59 246.3L387.28 248.3 389.4 249.45 390.49 247.78 388.59 246.3Z"
fill-rule="nonzero" fill="black"/>
<path d="M387.28 248.3L386.32 250.49 388.6 251.27 389.4 249.45 387.28 248.3Z"
fill-rule="nonzero" fill="black"/>
<path d="M386.32 250.49L385.73 252.8 388.11 253.2 388.6 251.27 386.32 250.49Z"
fill-rule="nonzero" fill="black"/>
<path d="M385.73 252.8L385.54 255.18 387.95 255.18 388.11 253.2 385.73 252.8Z"
fill-rule="nonzero" fill="black"/>
<path d="M385.54 255.18L385.73 257.57 388.11 257.17 387.95 255.18 385.54 255.18Z"
fill-rule="nonzero" fill="black"/>
<path d="M385.73 257.57L386.32 259.88 388.6 259.1 388.11 257.17 385.73 257.57Z"
fill-rule="nonzero" fill="black"/>
<path d="M386.32 259.88L387.28 262.07 389.4 260.92 388.6 259.1 386.32 259.88Z"
fill-rule="nonzero" fill="black"/>
<path d="M387.28 262.07L388.59 264.07 390.49 262.59 389.4 260.92 387.28 262.07Z"
fill-rule="nonzero" fill="black"/>
<path d="M388.59 264.07L390.2 265.83 391.84 264.05 390.49 262.59 388.59 264.07Z"
fill-rule="nonzero" fill="black"/>
<path d="M390.2 265.83L392.09 267.29 393.41 265.28 391.84 264.05 390.2 265.83Z"
fill-rule="nonzero" fill="black"/>
<path d="M392.09 267.29L394.19 268.43 395.16 266.22 393.41 265.28 392.09 267.29Z"
fill-rule="nonzero" fill="black"/>
<path d="M394.19 268.43L396.45 269.21 397.04 266.87 395.16 266.22 394.19 268.43Z"
fill-rule="nonzero" fill="black"/>
<path d="M396.45 269.21L398.81 269.6 399 267.2 397.04 266.87 396.45 269.21Z"
fill-rule="nonzero" fill="black"/>
<path d="M398.81 269.6L401.19 269.6 401 267.2 399 267.2 398.81 269.6Z"
fill-rule="nonzero" fill="black"/>
<path d="M401.19 269.6L403.55 269.21 402.96 266.87 401 267.2 401.19 269.6Z"
fill-rule="nonzero" fill="black"/>
<path d="M403.55 269.21L405.81 268.43 404.84 266.22 402.96 266.87 403.55 269.21Z"
fill-rule="nonzero" fill="black"/>
<path d="M405.81 268.43L407.91 267.29 406.59 265.28 404.84 266.22 405.81 268.43Z"
fill-rule="nonzero" fill="black"/>
<path d="M407.91 267.29L409.8 265.83 408.16 264.05 406.59 265.28 407.91 267.29Z"
fill-rule="nonzero" fill="black"/>
<path d="M409.8 265.83L411.41 264.07 409.51 262.59 408.16 264.05 409.8 265.83Z"
fill-rule="nonzero" fill="black"/>
<path d="M411.41 264.07L412.72 262.07 410.6 260.92 409.51 262.59 411.41 264.07Z"
fill-rule="nonzero" fill="black"/>
<path d="M412.72 262.07L413.68 259.88 411.4 259.1 410.6 260.92 412.72 262.07Z"
fill-rule="nonzero" fill="black"/>
<path d="M413.68 259.88L414.27 257.57 411.89 257.17 411.4 259.1 413.68 259.88Z"
fill-rule="nonzero" fill="black"/>
<path d="M414.27 257.57L414.46 255.18 412.05 255.18 411.89 257.17 414.27 257.57Z"
fill-rule="nonzero" fill="black"/>
<path d="M414.46 255.18L414.27 252.8 411.89 253.2 412.05 255.18 414.46 255.18Z"
fill-rule="nonzero" fill="black"/>
<path d="M414.27 252.8L413.68 250.49 411.4 251.27 411.89 253.2 414.27 252.8Z"
fill-rule="nonzero" fill="black"/>
<path d="M413.68 250.49L412.72 248.3 410.6 249.45 411.4 251.27 413.68 250.49Z"
fill-rule="nonzero" fill="black"/>
<path d="M412.72 248.3L411.41 246.3 409.51 247.78 410.6 249.45 412.72 248.3Z"
fill-rule="nonzero" fill="black"/>
<path d="M411.41 246.3L409.8 244.54 408.16 246.32 409.51 247.78 411.41 246.3Z"
fill-rule="nonzero" fill="black"/>
<path d="M409.8 244.54L407.91 243.08 406.59 245.09 408.16 246.32 409.8 244.54Z"
fill-rule="nonzero" fill="black"/>
<path d="M407.91 243.08L405.81 241.94 404.84 244.15 406.59 245.09 407.91 243.08Z"
fill-rule="nonzero" fill="black"/>
<path d="M405.81 241.94L403.55 241.16 402.96 243.5 404.84 244.15 405.81 241.94Z"
fill-rule="nonzero" fill="black"/>
<path d="M403.55 241.16L401.19 240.77 401 243.17 402.96 243.5 403.55 241.16Z"
fill-rule="nonzero" fill="black"/>
<path d="M401.19 240.77L398.81 240.77 399 243.17 401 243.17 401.19 240.77Z"
fill-rule="nonzero" fill="black"/>
<path d="M398.81 240.77L396.45 241.16 397.04 243.5 399 243.17 398.81 240.77Z"
fill-rule="nonzero" fill="black"/>
<path d="M396.45 241.16L394.19 241.94 395.16 244.15 397.04 243.5 396.45 241.16Z"
fill-rule="nonzero" fill="black"/>
<path d="M394.19 241.94L392.09 243.08 393.41 245.09 395.16 244.15 394.19 241.94Z"
fill-rule="nonzero" fill="black"/>
<path d="M392.09 243.08L390.2 244.54 391.84 246.32 393.41 245.09 392.09 243.08Z"
fill-rule="nonzero" fill="black"/>
<path d="M390.2 244.54L388.59 246.3 390.49 247.78 391.84 246.32 390.2 244.54Z"
fill-rule="nonzero" fill="black"/>
<path d="M388.59 246.3L387.28 248.3 389.4 249.45 390.49 247.78 388.59 246.3Z"
fill-rule="nonzero" fill="black"/>
<path d="M387.28 248.3L386.32 250.49 388.6 251.27 389.4 249.45 387.28 248.3Z"
fill-rule="nonzero" fill="black"/>
<path d="M386.32 250.49L385.73 252.8 388.11 253.2 388.6 251.27 386.32 250.49Z"
fill-rule="nonzero" fill="black"/>
<path d="M385.73 252.8L385.54 255.18 387.95 255.18 388.11 253.2 385.73 252.8Z"
fill-rule="nonzero" fill="black"/>
<path d="M642.87 506.86L642.87 504.45 687.06 504.45 687.06 506.86 642.87 506.86Z"
fill-rule="evenodd" fill="black"/>
<path d="M657.6 521.59L657.6 519.18 672.33 519.18 672.33 521.59 657.6 521.59Z"
fill-rule="evenodd" fill="black"/>
<path d="M2.26 78.41L2.26 78.41M2.26 78.41L2.26 78.41M2.26 78.41L2.26 78.41M2.26 78.41L2.26 78.41"
fill="none" stroke="black" stroke-width="0.5"/>
<path d="M797.74 78.41L797.74 78.41M797.74 78.41L797.74 78.41M797.74 78.41L797.74 78.41M797.74 78.41L797.74 78.41"
fill="none" stroke="black" stroke-width="0.5"/>
</svg>
