<?xml version="1.0" encoding="UTF-8"?>
<svg xmlns="http://www.w3.org/2000/svg" width="800.000" height="600.000" viewBox="0.0 0.0 800.000 600.000" version="1.1">
  <title>Produce by Acme CAD Converter</title>
  <desc>Produce by Acme CAD Converter</desc>
<path d="M398.86 219.7L401.14 219.7 401.14 507.39 398.86 512.88 398.86 219.7Z"
fill-rule="evenodd" fill="black"/>
<path d="M398.86 219.7L401.14 219.7 401.14 219.7 398.86 219.7Z"
fill-rule="evenodd" fill="black"/>
<path d="M398.86 219.7L401.14 219.7 401.14 507.39 398.86 512.88 398.86 219.7Z"
fill-rule="evenodd" fill="black"/>
<path d="M401.14 507.39L398.86 512.88 398.86 512.88 401.14 507.39Z"
fill-rule="evenodd" fill="black"/>
<path d="M398.86 219.7L398.86 512.88 398.86 512.88 398.86 219.7Z"
fill-rule="evenodd" fill="black"/>
<path d="M401.14 219.7L401.14 507.39 401.14 507.39 401.14 219.7Z"
fill-rule="evenodd" fill="black"/>
<path d="M398.86 512.88L401.14 507.39 629 279.53 630.61 281.14 398.86 512.88Z"
fill-rule="evenodd" fill="black"/>
<path d="M398.86 512.88L401.14 507.39 401.14 507.39 398.86 512.88Z"
fill-rule="evenodd" fill="black"/>
<path d="M398.86 512.88L401.14 507.39 629 279.53 630.61 281.14 398.86 512.88Z"
fill-rule="evenodd" fill="black"/>
<path d="M629 279.53L630.61 281.14 630.61 281.14 629 279.53Z"
fill-rule="evenodd" fill="black"/>
<path d="M398.86 512.88L630.61 281.14 630.61 281.14 398.86 512.88Z"
fill-rule="evenodd" fill="black"/>
<path d="M401.14 507.39L629 279.53 629 279.53 401.14 507.39Z"
fill-rule="evenodd" fill="black"/>
<path d="M628.92 279.61L630.68 281.05 601.43 316.8 599.67 315.36 628.92 279.61Z"
fill-rule="evenodd" fill="black"/>
<path d="M628.92 279.61L630.68 281.05 630.68 281.05 628.92 279.61Z"
fill-rule="evenodd" fill="black"/>
<path d="M628.92 279.61L630.68 281.05 601.43 316.8 599.67 315.36 628.92 279.61Z"
fill-rule="evenodd" fill="black"/>
<path d="M601.43 316.8L599.67 315.36 599.67 315.36 601.43 316.8Z"
fill-rule="evenodd" fill="black"/>
<path d="M628.92 279.61L599.67 315.36 599.67 315.36 628.92 279.61Z"
fill-rule="evenodd" fill="black"/>
<path d="M630.68 281.05L601.43 316.8 601.43 316.8 630.68 281.05Z"
fill-rule="evenodd" fill="black"/>
<path d="M601.43 316.8L599.67 315.36 628.92 279.61 630.68 281.05 601.43 316.8Z"
fill-rule="evenodd" fill="black"/>
<path d="M601.43 316.8L599.67 315.36 599.67 315.36 601.43 316.8Z"
fill-rule="evenodd" fill="black"/>
<path d="M601.43 316.8L599.67 315.36 628.92 279.61 630.68 281.05 601.43 316.8Z"
fill-rule="evenodd" fill="black"/>
<path d="M628.92 279.61L630.68 281.05 630.68 281.05 628.92 279.61Z"
fill-rule="evenodd" fill="black"/>
<path d="M601.43 316.8L630.68 281.05 630.68 281.05 601.43 316.8Z"
fill-rule="evenodd" fill="black"/>
<path d="M599.67 315.36L628.92 279.61 628.92 279.61 599.67 315.36Z"
fill-rule="evenodd" fill="black"/>
<path d="M629.08 279.45L630.52 281.21 594.77 310.46 593.33 308.7 629.08 279.45Z"
fill-rule="evenodd" fill="black"/>
<path d="M629.08 279.45L630.52 281.21 630.52 281.21 629.08 279.45Z"
fill-rule="evenodd" fill="black"/>
<path d="M629.08 279.45L630.52 281.21 594.77 310.46 593.33 308.7 629.08 279.45Z"
fill-rule="evenodd" fill="black"/>
<path d="M594.77 310.46L593.33 308.7 593.33 308.7 594.77 310.46Z"
fill-rule="evenodd" fill="black"/>
<path d="M629.08 279.45L593.33 308.7 593.33 308.7 629.08 279.45Z"
fill-rule="evenodd" fill="black"/>
<path d="M630.52 281.21L594.77 310.46 594.77 310.46 630.52 281.21Z"
fill-rule="evenodd" fill="black"/>
<path d="M521.67 380.88L520.07 379.27 556.51 342.82 558.12 344.43 521.67 380.88Z"
fill-rule="evenodd" fill="black"/>
<path d="M521.67 380.88L520.07 379.27 520.07 379.27 521.67 380.88Z"
fill-rule="evenodd" fill="black"/>
<path d="M521.67 380.88L520.07 379.27 556.51 342.82 558.12 344.43 521.67 380.88Z"
fill-rule="evenodd" fill="black"/>
<path d="M556.51 342.82L558.12 344.43 558.12 344.43 556.51 342.82Z"
fill-rule="evenodd" fill="black"/>
<path d="M521.67 380.88L558.12 344.43 558.12 344.43 521.67 380.88Z"
fill-rule="evenodd" fill="black"/>
<path d="M520.07 379.27L556.51 342.82 556.51 342.82 520.07 379.27Z"
fill-rule="evenodd" fill="black"/>
<path d="M531.72 389.22L530.11 387.61 565.43 352.29 567.04 353.89 531.72 389.22Z"
fill-rule="evenodd" fill="black"/>
<path d="M531.72 389.22L530.11 387.61 530.11 387.61 531.72 389.22Z"
fill-rule="evenodd" fill="black"/>
<path d="M531.72 389.22L530.11 387.61 565.43 352.29 567.04 353.89 531.72 389.22Z"
fill-rule="evenodd" fill="black"/>
<path d="M565.43 352.29L567.04 353.89 567.04 353.89 565.43 352.29Z"
fill-rule="evenodd" fill="black"/>
<path d="M531.72 389.22L567.04 353.89 567.04 353.89 531.72 389.22Z"
fill-rule="evenodd" fill="black"/>
<path d="M530.11 387.61L565.43 352.29 565.43 352.29 530.11 387.61Z"
fill-rule="evenodd" fill="black"/>
<path d="M2.26 87.12L2.26 87.12M2.26 87.12L2.26 87.12M2.26 87.12L2.26 87.12M2.26 87.12L2.26 87.12"
fill="none" stroke="black" stroke-width="0.5"/>
<path d="M797.74 87.12L797.74 87.12M797.74 87.12L797.74 87.12M797.74 87.12L797.74 87.12M797.74 87.12L797.74 87.12"
fill="none" stroke="black" stroke-width="0.5"/>
</svg>
