<?xml version="1.0" encoding="UTF-8"?>
<svg xmlns="http://www.w3.org/2000/svg" width="800.000" height="600.000" viewBox="0.0 0.0 800.000 600.000" version="1.1">
  <title>Produce by Acme CAD Converter</title>
  <desc>Produce by Acme CAD Converter</desc>
<path d="M402.32 598.3L397.68 598.3 397.68 1.7 402.32 1.7 402.32 598.3Z"
fill-rule="evenodd" fill="black"/>
<path d="M402.32 598.3L397.68 598.3 397.68 598.3 402.32 598.3Z"
fill-rule="evenodd" fill="black"/>
<path d="M402.32 598.3L397.68 598.3 397.68 1.7 402.32 1.7 402.32 598.3Z"
fill-rule="evenodd" fill="black"/>
<path d="M397.68 1.7L402.32 1.7 402.32 1.7 397.68 1.7Z"
fill-rule="evenodd" fill="black"/>
<path d="M402.32 598.3L402.32 1.7 402.32 1.7 402.32 598.3Z"
fill-rule="evenodd" fill="black"/>
<path d="M397.68 598.3L397.68 1.7 397.68 1.7 397.68 598.3Z"
fill-rule="evenodd" fill="black"/>
<path d="M397.68 1.7L402.32 1.7 402.32 460.11 397.68 464.76 397.68 1.7Z"
fill-rule="evenodd" fill="black"/>
<path d="M397.68 1.7L402.32 1.7 402.32 1.7 397.68 1.7Z"
fill-rule="evenodd" fill="black"/>
<path d="M397.68 1.7L402.32 1.7 402.32 460.11 397.68 464.76 397.68 1.7Z"
fill-rule="evenodd" fill="black"/>
<path d="M402.32 460.11L397.68 464.76 397.68 464.76 402.32 460.11Z"
fill-rule="evenodd" fill="black"/>
<path d="M397.68 1.7L397.68 464.76 397.68 464.76 397.68 1.7Z"
fill-rule="evenodd" fill="black"/>
<path d="M402.32 1.7L402.32 460.11 402.32 460.11 402.32 1.7Z"
fill-rule="evenodd" fill="black"/>
<path d="M397.68 464.76L402.32 460.11 437.47 460.11 429.95 464.76 397.68 464.76Z"
fill-rule="evenodd" fill="black"/>
<path d="M397.68 464.76L402.32 460.11 402.32 460.11 397.68 464.76Z"
fill-rule="evenodd" fill="black"/>
<path d="M397.68 464.76L402.32 460.11 437.47 460.11 429.95 464.76 397.68 464.76Z"
fill-rule="evenodd" fill="black"/>
<path d="M437.47 460.11L429.95 464.76 429.95 464.76 437.47 460.11Z"
fill-rule="evenodd" fill="black"/>
<path d="M397.68 464.76L429.95 464.76 429.95 464.76 397.68 464.76Z"
fill-rule="evenodd" fill="black"/>
<path d="M402.32 460.11L437.47 460.11 437.47 460.11 402.32 460.11Z"
fill-rule="evenodd" fill="black"/>
<path d="M429.95 464.76L437.47 460.11 400 535.05 400 524.66 429.95 464.76Z"
fill-rule="evenodd" fill="black"/>
<path d="M429.95 464.76L437.47 460.11 437.47 460.11 429.95 464.76Z"
fill-rule="evenodd" fill="black"/>
<path d="M429.95 464.76L437.47 460.11 400 535.05 400 524.66 429.95 464.76Z"
fill-rule="evenodd" fill="black"/>
<path d="M400 535.05L400 524.66 400 524.66 400 535.05Z"
fill-rule="evenodd" fill="black"/>
<path d="M429.95 464.76L400 524.66 400 524.66 429.95 464.76Z"
fill-rule="evenodd" fill="black"/>
<path d="M437.47 460.11L400 535.05 400 535.05 437.47 460.11Z"
fill-rule="evenodd" fill="black"/>
<path d="M400 524.66L400 535.05 362.53 460.11 370.05 464.76 400 524.66Z"
fill-rule="evenodd" fill="black"/>
<path d="M400 524.66L400 535.05 400 535.05 400 524.66Z"
fill-rule="evenodd" fill="black"/>
<path d="M400 524.66L400 535.05 362.53 460.11 370.05 464.76 400 524.66Z"
fill-rule="evenodd" fill="black"/>
<path d="M362.53 460.11L370.05 464.76 370.05 464.76 362.53 460.11Z"
fill-rule="evenodd" fill="black"/>
<path d="M400 524.66L370.05 464.76 370.05 464.76 400 524.66Z"
fill-rule="evenodd" fill="black"/>
<path d="M400 535.05L362.53 460.11 362.53 460.11 400 535.05Z"
fill-rule="evenodd" fill="black"/>
<path d="M370.05 464.76L362.53 460.11 433.71 460.11 433.71 464.76 370.05 464.76Z"
fill-rule="evenodd" fill="black"/>
<path d="M370.05 464.76L362.53 460.11 362.53 460.11 370.05 464.76Z"
fill-rule="evenodd" fill="black"/>
<path d="M370.05 464.76L362.53 460.11 433.71 460.11 433.71 464.76 370.05 464.76Z"
fill-rule="evenodd" fill="black"/>
<path d="M433.71 460.11L433.71 464.76 433.71 464.76 433.71 460.11Z"
fill-rule="evenodd" fill="black"/>
<path d="M370.05 464.76L433.71 464.76 433.71 464.76 370.05 464.76Z"
fill-rule="evenodd" fill="black"/>
<path d="M362.53 460.11L433.71 460.11 433.71 460.11 362.53 460.11Z"
fill-rule="evenodd" fill="black"/>
</svg>
