<svg width="800" height="600" viewBox="0 0 800 600" fill="none" xmlns="http://www.w3.org/2000/svg">
<g clip-path="url(#clip0_4_22)">
<path fill-rule="evenodd" clip-rule="evenodd" d="M398 -57H402V347H398V-57Z" fill="black"/>
<path d="M400 345.7L394.76 345.9L395.03 349.34L400 349.15V345.7Z" fill="black"/>
<path d="M394.76 345.9L389.56 346.51L390.09 349.91L395.03 349.34L394.76 345.9Z" fill="black"/>
<path d="M389.56 346.51L384.41 347.51L385.2 350.86L390.09 349.91L389.56 346.51Z" fill="black"/>
<path d="M384.41 347.51L379.36 348.9L380.41 352.19L385.2 350.86L384.41 347.51Z" fill="black"/>
<path d="M379.36 348.9L374.43 350.68L375.73 353.87L380.41 352.19L379.36 348.9Z" fill="black"/>
<path d="M374.43 350.68L369.66 352.84L371.19 355.92L375.73 353.87L374.43 350.68Z" fill="black"/>
<path d="M369.66 352.84L365.06 355.35L366.82 358.31L371.19 355.92L369.66 352.84Z" fill="black"/>
<path d="M365.06 355.35L360.67 358.21L362.65 361.02L366.82 358.31L365.06 355.35Z" fill="black"/>
<path d="M360.67 358.21L356.51 361.4L358.71 364.05L362.65 361.02L360.67 358.21Z" fill="black"/>
<path d="M356.51 361.4L352.61 364.9L355 367.37L358.71 364.05L356.51 361.4Z" fill="black"/>
<path d="M352.61 364.9L348.99 368.69L351.57 370.97L355 367.37L352.61 364.9Z" fill="black"/>
<path d="M348.99 368.69L345.67 372.74L348.41 374.82L351.57 370.97L348.99 368.69Z" fill="black"/>
<path d="M345.67 372.74L342.67 377.04L345.57 378.9L348.41 374.82L345.67 372.74Z" fill="black"/>
<path d="M342.67 377.04L340.01 381.56L343.05 383.19L345.57 378.9L342.67 377.04Z" fill="black"/>
<path d="M340.01 381.56L337.71 386.27L340.86 387.66L343.05 383.19L340.01 381.56Z" fill="black"/>
<path d="M337.71 386.27L335.78 391.14L339.03 392.29L340.86 387.66L337.71 386.27Z" fill="black"/>
<path d="M335.78 391.14L334.23 396.15L337.55 397.04L339.03 392.29L335.78 391.14Z" fill="black"/>
<path d="M334.23 396.15L333.06 401.25L336.45 401.89L337.55 397.04L334.23 396.15Z" fill="black"/>
<path d="M333.06 401.25L332.3 406.44L335.72 406.81L336.45 401.89L333.06 401.25Z" fill="black"/>
<path d="M332.3 406.44L331.93 411.67L335.37 411.77L335.72 406.81L332.3 406.44Z" fill="black"/>
<path d="M331.93 411.67L331.97 416.91L335.41 416.75L335.37 411.77L331.93 411.67Z" fill="black"/>
<path d="M331.97 416.91L332.41 422.13L335.83 421.71L335.41 416.75L331.97 416.91Z" fill="black"/>
<path d="M332.41 422.13L333.25 427.3L336.62 426.62L335.83 421.71L332.41 422.13Z" fill="black"/>
<path d="M333.25 427.3L334.48 432.39L337.8 431.45L336.62 426.62L333.25 427.3Z" fill="black"/>
<path d="M334.48 432.39L336.11 437.38L339.34 436.19L337.8 431.45L334.48 432.39Z" fill="black"/>
<path d="M336.11 437.38L338.11 442.22L341.24 440.78L339.34 436.19L336.11 437.38Z" fill="black"/>
<path d="M338.11 442.22L340.48 446.9L343.49 445.22L341.24 440.78L338.11 442.22Z" fill="black"/>
<path d="M340.48 446.9L343.2 451.37L346.07 449.47L343.49 445.22L340.48 446.9Z" fill="black"/>
<path d="M343.2 451.37L346.26 455.63L348.97 453.52L346.07 449.47L343.2 451.37Z" fill="black"/>
<path d="M346.26 455.63L349.63 459.64L352.18 457.32L348.97 453.52L346.26 455.63Z" fill="black"/>
<path d="M349.63 459.64L353.31 463.38L355.67 460.87L352.18 457.32L349.63 459.64Z" fill="black"/>
<path d="M353.31 463.38L357.26 466.82L359.42 464.14L355.67 460.87L353.31 463.38Z" fill="black"/>
<path d="M357.26 466.82L361.46 469.95L363.41 467.11L359.42 464.14L357.26 466.82Z" fill="black"/>
<path d="M361.46 469.95L365.89 472.75L367.61 469.77L363.41 467.11L361.46 469.95Z" fill="black"/>
<path d="M365.89 472.75L370.52 475.2L372.01 472.09L367.61 469.77L365.89 472.75Z" fill="black"/>
<path d="M370.52 475.2L375.33 477.28L376.58 474.07L372.01 472.09L370.52 475.2Z" fill="black"/>
<path d="M375.33 477.28L380.29 478.99L381.28 475.69L376.58 474.07L375.33 477.28Z" fill="black"/>
<path d="M380.29 478.99L385.36 480.31L386.1 476.95L381.28 475.69L380.29 478.99Z" fill="black"/>
<path d="M385.36 480.31L390.51 481.24L390.99 477.83L386.1 476.95L385.36 480.31Z" fill="black"/>
<path d="M390.51 481.24L395.73 481.77L395.94 478.34L390.99 477.83L390.51 481.24Z" fill="black"/>
<path d="M395.73 481.77L400.97 481.9L400.92 478.46L395.94 478.34L395.73 481.77Z" fill="black"/>
<path d="M400.97 481.9L406.15 481.63L405.84 478.2L400.92 478.46L400.97 481.9Z" fill="black"/>
<path d="M406.15 481.63L411.3 480.96L410.73 477.57L405.84 478.2L406.15 481.63Z" fill="black"/>
<path d="M411.3 480.96L416.39 479.9L415.56 476.56L410.73 477.57L411.3 480.96Z" fill="black"/>
<path d="M416.39 479.9L421.38 478.46L420.3 475.2L415.56 476.56L416.39 479.9Z" fill="black"/>
<path d="M421.38 478.46L426.24 476.65L424.92 473.47L420.3 475.2L421.38 478.46Z" fill="black"/>
<path d="M426.24 476.65L430.95 474.46L429.39 471.4L424.92 473.47L426.24 476.65Z" fill="black"/>
<path d="M430.95 474.46L435.49 471.93L433.69 468.99L429.39 471.4L430.95 474.46Z" fill="black"/>
<path d="M435.49 471.93L439.81 469.06L437.8 466.26L433.69 468.99L435.49 471.93Z" fill="black"/>
<path d="M439.81 469.06L443.91 465.86L441.69 463.23L437.8 466.26L439.81 469.06Z" fill="black"/>
<path d="M443.91 465.86L447.75 462.36L445.33 459.91L441.69 463.23L443.91 465.86Z" fill="black"/>
<path d="M447.75 462.36L451.31 458.58L448.72 456.32L445.33 459.91L447.75 462.36Z" fill="black"/>
<path d="M451.31 458.58L454.57 454.54L451.81 452.48L448.72 456.32L451.31 458.58Z" fill="black"/>
<path d="M454.57 454.54L457.52 450.27L454.61 448.42L451.81 452.48L454.57 454.54Z" fill="black"/>
<path d="M457.52 450.27L460.13 445.78L457.09 444.16L454.61 448.42L457.52 450.27Z" fill="black"/>
<path d="M460.13 445.78L462.39 441.1L459.24 439.72L457.09 444.16L460.13 445.78Z" fill="black"/>
<path d="M462.39 441.1L464.29 436.27L461.04 435.13L459.24 439.72L462.39 441.1Z" fill="black"/>
<path d="M464.29 436.27L465.81 431.3L462.49 430.42L461.04 435.13L464.29 436.27Z" fill="black"/>
<path d="M465.81 431.3L466.96 426.24L463.57 425.61L462.49 430.42L465.81 431.3Z" fill="black"/>
<path d="M466.96 426.24L467.71 421.1L464.29 420.73L463.57 425.61L466.96 426.24Z" fill="black"/>
<path d="M467.71 421.1L468.07 415.92L464.63 415.81L464.29 420.73L467.71 421.1Z" fill="black"/>
<path d="M468.07 415.92L468.03 410.72L464.59 410.88L464.63 415.81L468.07 415.92Z" fill="black"/>
<path d="M468.03 410.72L467.6 405.55L464.18 405.97L464.59 410.88L468.03 410.72Z" fill="black"/>
<path d="M467.6 405.55L466.77 400.42L463.4 401.1L464.18 405.97L467.6 405.55Z" fill="black"/>
<path d="M466.77 400.42L465.56 395.37L462.25 396.3L463.4 401.1L466.77 400.42Z" fill="black"/>
<path d="M465.56 395.37L463.96 390.43L460.73 391.61L462.25 396.3L465.56 395.37Z" fill="black"/>
<path d="M463.96 390.43L462 385.62L458.86 387.05L460.73 391.61L463.96 390.43Z" fill="black"/>
<path d="M462 385.62L459.67 380.98L456.65 382.64L458.86 387.05L462 385.62Z" fill="black"/>
<path d="M459.67 380.98L456.99 376.53L454.11 378.41L456.65 382.64L459.67 380.98Z" fill="black"/>
<path d="M456.99 376.53L453.99 372.29L451.26 374.39L454.11 378.41L456.99 376.53Z" fill="black"/>
<path d="M453.99 372.29L450.67 368.3L448.11 370.6L451.26 374.39L453.99 372.29Z" fill="black"/>
<path d="M450.67 368.3L447.05 364.57L444.67 367.06L448.11 370.6L450.67 368.3Z" fill="black"/>
<path d="M447.05 364.57L443.17 361.13L440.98 363.79L444.67 367.06L447.05 364.57Z" fill="black"/>
<path d="M443.17 361.13L439.03 357.99L437.05 360.82L440.98 363.79L443.17 361.13Z" fill="black"/>
<path d="M439.03 357.99L434.66 355.18L432.91 358.15L437.05 360.82L439.03 357.99Z" fill="black"/>
<path d="M434.66 355.18L430.09 352.71L428.57 355.8L432.91 358.15L434.66 355.18Z" fill="black"/>
<path d="M430.09 352.71L425.35 350.6L424.07 353.79L428.57 355.8L430.09 352.71Z" fill="black"/>
<path d="M425.35 350.6L420.46 348.85L419.42 352.13L424.07 353.79L425.35 350.6Z" fill="black"/>
<path d="M420.46 348.85L415.45 347.48L414.67 350.83L419.42 352.13L420.46 348.85Z" fill="black"/>
<path d="M415.45 347.48L410.35 346.49L409.83 349.9L414.67 350.83L415.45 347.48Z" fill="black"/>
<path d="M410.35 346.49L405.19 345.9L404.93 349.33L409.83 349.9L410.35 346.49Z" fill="black"/>
<path d="M405.19 345.9L400 345.7V349.15L404.93 349.33L405.19 345.9Z" fill="black"/>
<path d="M400 345.7L394.79 345.9L395.05 349.34L400 349.15V345.7Z" fill="black"/>
<path d="M394.79 345.9L389.6 346.5L390.13 349.9L395.05 349.34L394.79 345.9Z" fill="black"/>
<path d="M389.6 346.5L384.48 347.49L385.27 350.85L390.13 349.9L389.6 346.5Z" fill="black"/>
<path d="M384.48 347.49L379.45 348.88L380.49 352.16L385.27 350.85L384.48 347.49Z" fill="black"/>
<path d="M379.45 348.88L374.54 350.64L375.83 353.83L380.49 352.16L379.45 348.88Z" fill="black"/>
<path d="M374.54 350.64L369.78 352.77L371.31 355.86L375.83 353.83L374.54 350.64Z" fill="black"/>
<path d="M369.78 352.77L365.2 355.27L366.96 358.23L371.31 355.86L369.78 352.77Z" fill="black"/>
<path d="M365.2 355.27L360.82 358.1L362.8 360.92L366.96 358.23L365.2 355.27Z" fill="black"/>
<path d="M360.82 358.1L356.67 361.26L358.86 363.92L362.8 360.92L360.82 358.1Z" fill="black"/>
<path d="M356.67 361.26L352.78 364.74L355.16 367.22L358.86 363.92L356.67 361.26Z" fill="black"/>
<path d="M352.78 364.74L349.16 368.49L351.73 370.79L355.16 367.22L352.78 364.74Z" fill="black"/>
<path d="M349.16 368.49L345.84 372.52L348.58 374.61L351.73 370.79L349.16 368.49Z" fill="black"/>
<path d="M345.84 372.52L342.84 376.79L345.73 378.66L348.58 374.61L345.84 372.52Z" fill="black"/>
<path d="M342.84 376.79L340.17 381.27L343.2 382.92L345.73 378.66L342.84 376.79Z" fill="black"/>
<path d="M340.17 381.27L337.86 385.95L341 387.35L343.2 382.92L340.17 381.27Z" fill="black"/>
<path d="M337.86 385.95L335.91 390.78L339.15 391.95L341 387.35L337.86 385.95Z" fill="black"/>
<path d="M335.91 390.78L334.33 395.76L337.65 396.67L339.15 391.95L335.91 390.78Z" fill="black"/>
<path d="M334.33 395.76L333.14 400.84L336.52 401.49L337.65 396.67L334.33 395.76Z" fill="black"/>
<path d="M333.14 400.84L332.35 405.99L335.77 406.39L336.52 401.49L333.14 400.84Z" fill="black"/>
<path d="M332.35 405.99L331.95 411.2L335.39 411.33L335.77 406.39L332.35 405.99Z" fill="black"/>
<path d="M331.95 411.2V416.41L335.39 416.28V411.33L331.95 411.2Z" fill="black"/>
<path d="M331.95 416.41L332.35 421.61L335.77 421.22L335.39 416.28L331.95 416.41Z" fill="black"/>
<path d="M332.35 421.61L333.14 426.77L336.52 426.11L335.77 421.22L332.35 421.61Z" fill="black"/>
<path d="M333.14 426.77L334.33 431.85L337.65 430.94L336.52 426.11L333.14 426.77Z" fill="black"/>
<path d="M334.33 431.85L335.91 436.82L339.15 435.66L337.65 430.94L334.33 431.85Z" fill="black"/>
<path d="M335.91 436.82L337.86 441.66L341 440.25L339.15 435.66L335.91 436.82Z" fill="black"/>
<path d="M337.86 441.66L340.17 446.34L343.2 444.69L341 440.25L337.86 441.66Z" fill="black"/>
<path d="M340.17 446.34L342.84 450.82L345.73 448.95L343.2 444.69L340.17 446.34Z" fill="black"/>
<path d="M342.84 450.82L345.84 455.09L348.58 453L345.73 448.95L342.84 450.82Z" fill="black"/>
<path d="M345.84 455.09L349.16 459.11L351.73 456.82L348.58 453L345.84 455.09Z" fill="black"/>
<path d="M349.16 459.11L352.78 462.87L355.16 460.39L351.73 456.82L349.16 459.11Z" fill="black"/>
<path d="M352.78 462.87L356.67 466.34L358.86 463.69L355.16 460.39L352.78 462.87Z" fill="black"/>
<path d="M356.67 466.34L360.82 469.51L362.8 466.69L358.86 463.69L356.67 466.34Z" fill="black"/>
<path d="M360.82 469.51L365.2 472.34L366.96 469.38L362.8 466.69L360.82 469.51Z" fill="black"/>
<path d="M365.2 472.34L369.78 474.83L371.31 471.75L366.96 469.38L365.2 472.34Z" fill="black"/>
<path d="M369.78 474.83L374.54 476.97L375.83 473.78L371.31 471.75L369.78 474.83Z" fill="black"/>
<path d="M374.54 476.97L379.45 478.73L380.49 475.45L375.83 473.78L374.54 476.97Z" fill="black"/>
<path d="M379.45 478.73L384.48 480.11L385.27 476.76L380.49 475.45L379.45 478.73Z" fill="black"/>
<path d="M384.48 480.11L389.6 481.11L390.13 477.71L385.27 476.76L384.48 480.11Z" fill="black"/>
<path d="M389.6 481.11L394.79 481.71L395.05 478.27L390.13 477.71L389.6 481.11Z" fill="black"/>
<path d="M394.79 481.71L400 481.91V478.46L395.05 478.27L394.79 481.71Z" fill="black"/>
<path fill-rule="evenodd" clip-rule="evenodd" d="M401.49 447.86L398.51 446.13L425.76 398.93L431.72 395.49L401.49 447.86Z" fill="black"/>
<path fill-rule="evenodd" clip-rule="evenodd" d="M431.72 395.49L425.76 398.93H374.24L368.27 395.49H431.72Z" fill="black"/>
<path fill-rule="evenodd" clip-rule="evenodd" d="M368.27 395.49L374.24 398.93L401.49 446.13L398.51 447.86L368.27 395.49Z" fill="black"/>
<path d="M400 588.11L405.22 587.91L404.95 584.48L400 584.67V588.11Z" fill="black"/>
<path d="M405.22 587.91L410.4 587.32L409.87 583.91L404.95 584.48L405.22 587.91Z" fill="black"/>
<path d="M410.4 587.32L415.52 586.32L414.74 582.97L409.87 583.91L410.4 587.32Z" fill="black"/>
<path d="M415.52 586.32L420.56 584.94L419.52 581.66L414.74 582.97L415.52 586.32Z" fill="black"/>
<path d="M420.56 584.94L425.47 583.17L424.18 579.98L419.52 581.66L420.56 584.94Z" fill="black"/>
<path d="M425.47 583.17L430.23 581.04L428.7 577.95L424.18 579.98L425.47 583.17Z" fill="black"/>
<path d="M430.23 581.04L434.81 578.54L433.05 575.58L428.7 577.95L430.23 581.04Z" fill="black"/>
<path d="M434.81 578.54L439.19 575.71L437.21 572.89L433.05 575.58L434.81 578.54Z" fill="black"/>
<path d="M439.19 575.71L443.34 572.54L441.15 569.88L437.21 572.89L439.19 575.71Z" fill="black"/>
<path d="M443.34 572.54L447.24 569.07L444.85 566.59L441.15 569.88L443.34 572.54Z" fill="black"/>
<path d="M447.24 569.07L450.86 565.31L448.29 563.02L444.85 566.59L447.24 569.07Z" fill="black"/>
<path d="M450.86 565.31L454.18 561.28L451.44 559.19L448.29 563.02L450.86 565.31Z" fill="black"/>
<path d="M454.18 561.28L457.18 557.01L454.29 555.14L451.44 559.19L454.18 561.28Z" fill="black"/>
<path d="M457.18 557.01L459.84 552.52L456.82 550.88L454.29 555.14L457.18 557.01Z" fill="black"/>
<path d="M459.84 552.52L462.16 547.84L459.01 546.44L456.82 550.88L459.84 552.52Z" fill="black"/>
<path d="M462.16 547.84L464.1 543L460.86 541.84L459.01 546.44L462.16 547.84Z" fill="black"/>
<path d="M464.1 543L465.68 538.02L462.36 537.11L460.86 541.84L464.1 543Z" fill="black"/>
<path d="M465.68 538.02L466.86 532.94L463.48 532.29L462.36 537.11L465.68 538.02Z" fill="black"/>
<path d="M466.86 532.94L467.66 527.78L464.24 527.39L463.48 532.29L466.86 532.94Z" fill="black"/>
<path d="M467.66 527.78L468.05 522.58L464.61 522.45L464.24 527.39L467.66 527.78Z" fill="black"/>
<path d="M468.05 522.58V517.36L464.61 517.49V522.45L468.05 522.58Z" fill="black"/>
<path d="M468.05 517.36L467.65 512.16L464.23 512.55L464.61 517.49L468.05 517.36Z" fill="black"/>
<path d="M467.65 512.16L466.85 507L463.47 507.66L464.23 512.55L467.65 512.16Z" fill="black"/>
<path d="M466.85 507L465.65 501.92L462.33 502.83L463.47 507.66L466.85 507Z" fill="black"/>
<path d="M465.65 501.92L464.08 496.94L460.84 498.11L462.33 502.83L465.65 501.92Z" fill="black"/>
<path d="M464.08 496.94L462.12 492.1L458.98 493.52L460.84 498.11L464.08 496.94Z" fill="black"/>
<path d="M462.12 492.1L459.8 487.43L456.78 489.08L458.98 493.52L462.12 492.1Z" fill="black"/>
<path d="M459.8 487.43L457.13 482.95L454.24 484.82L456.78 489.08L459.8 487.43Z" fill="black"/>
<path d="M457.13 482.95L454.12 478.68L451.39 480.77L454.24 484.82L457.13 482.95Z" fill="black"/>
<path d="M454.12 478.68L450.8 474.66L448.23 476.95L451.39 480.77L454.12 478.68Z" fill="black"/>
<path d="M450.8 474.66L447.18 470.9L444.79 473.38L448.23 476.95L450.8 474.66Z" fill="black"/>
<path d="M447.18 470.9L443.28 467.43L441.09 470.09L444.79 473.38L447.18 470.9Z" fill="black"/>
<path d="M443.28 467.43L439.12 464.27L437.15 467.09L441.09 470.09L443.28 467.43Z" fill="black"/>
<path d="M439.12 464.27L434.74 461.44L432.98 464.4L437.15 467.09L439.12 464.27Z" fill="black"/>
<path d="M434.74 461.44L430.15 458.95L428.63 462.04L432.98 464.4L434.74 461.44Z" fill="black"/>
<path d="M430.15 458.95L425.39 456.82L424.1 460.01L428.63 462.04L430.15 458.95Z" fill="black"/>
<path d="M425.39 456.82L420.47 455.06L419.44 458.34L424.1 460.01L425.39 456.82Z" fill="black"/>
<path d="M420.47 455.06L415.44 453.68L414.66 457.04L419.44 458.34L420.47 455.06Z" fill="black"/>
<path d="M415.44 453.68L410.31 452.7L409.79 456.1L414.66 457.04L415.44 453.68Z" fill="black"/>
<path d="M410.31 452.7L405.13 452.1L404.87 455.54L409.79 456.1L410.31 452.7Z" fill="black"/>
<path d="M405.13 452.1L399.91 451.91L399.92 455.35L404.87 455.54L405.13 452.1Z" fill="black"/>
<path d="M399.91 451.91L394.7 452.12L394.97 455.55L399.92 455.35L399.91 451.91Z" fill="black"/>
<path d="M394.7 452.12L389.52 452.72L390.05 456.12L394.97 455.55L394.7 452.12Z" fill="black"/>
<path d="M389.52 452.72L384.4 453.72L385.19 457.07L390.05 456.12L389.52 452.72Z" fill="black"/>
<path d="M384.4 453.72L379.38 455.11L380.42 458.39L385.19 457.07L384.4 453.72Z" fill="black"/>
<path d="M379.38 455.11L374.47 456.88L375.76 460.07L380.42 458.39L379.38 455.11Z" fill="black"/>
<path d="M374.47 456.88L369.72 459.02L371.25 462.1L375.76 460.07L374.47 456.88Z" fill="black"/>
<path d="M369.72 459.02L365.14 461.51L366.9 464.47L371.25 462.1L369.72 459.02Z" fill="black"/>
<path d="M365.14 461.51L360.76 464.35L362.75 467.16L366.9 464.47L365.14 461.51Z" fill="black"/>
<path d="M360.76 464.35L356.62 467.52L358.81 470.17L362.75 467.16L360.76 464.35Z" fill="black"/>
<path d="M356.62 467.52L352.73 470.99L355.12 473.47L358.81 470.17L356.62 467.52Z" fill="black"/>
<path d="M352.73 470.99L349.12 474.75L351.69 477.04L355.12 473.47L352.73 470.99Z" fill="black"/>
<path d="M349.12 474.75L345.8 478.78L348.54 480.86L351.69 477.04L349.12 474.75Z" fill="black"/>
<path d="M345.8 478.78L342.81 483.04L345.7 484.91L348.54 480.86L345.8 478.78Z" fill="black"/>
<path d="M342.81 483.04L340.14 487.53L343.17 489.17L345.7 484.91L342.81 483.04Z" fill="black"/>
<path d="M340.14 487.53L337.83 492.2L340.98 493.61L343.17 489.17L340.14 487.53Z" fill="black"/>
<path d="M337.83 492.2L335.89 497.04L339.13 498.2L340.98 493.61L337.83 492.2Z" fill="black"/>
<path d="M335.89 497.04L334.32 502.02L337.64 502.93L339.13 498.2L335.89 497.04Z" fill="black"/>
<path d="M334.32 502.02L333.13 507.09L336.52 507.75L337.64 502.93L334.32 502.02Z" fill="black"/>
<path d="M333.13 507.09L332.34 512.25L335.76 512.64L336.52 507.75L333.13 507.09Z" fill="black"/>
<path d="M332.34 512.25L331.95 517.45L335.39 517.58L335.76 512.64L332.34 512.25Z" fill="black"/>
<path d="M331.95 517.45V522.66L335.39 522.53V517.58L331.95 517.45Z" fill="black"/>
<path d="M331.95 522.66L332.35 527.86L335.77 527.47L335.39 522.53L331.95 522.66Z" fill="black"/>
<path d="M332.35 527.86L333.15 533.02L336.53 532.36L335.77 527.47L332.35 527.86Z" fill="black"/>
<path d="M333.15 533.02L334.34 538.09L337.66 537.18L336.53 532.36L333.15 533.02Z" fill="black"/>
<path d="M334.34 538.09L335.92 543.06L339.16 541.9L337.66 537.18L334.34 538.09Z" fill="black"/>
<path d="M335.92 543.06L337.87 547.9L341.01 546.49L339.16 541.9L335.92 543.06Z" fill="black"/>
<path d="M337.87 547.9L340.19 552.57L343.21 550.93L341.01 546.49L337.87 547.9Z" fill="black"/>
<path d="M340.19 552.57L342.85 557.05L345.74 555.18L343.21 550.93L340.19 552.57Z" fill="black"/>
<path d="M342.85 557.05L345.85 561.32L348.59 559.23L345.74 555.18L342.85 557.05Z" fill="black"/>
<path d="M345.85 561.32L349.17 565.34L351.74 563.05L348.59 559.23L345.85 561.32Z" fill="black"/>
<path d="M349.17 565.34L352.79 569.1L355.18 566.61L351.74 563.05L349.17 565.34Z" fill="black"/>
<path d="M352.79 569.1L356.69 572.56L358.88 569.91L355.18 566.61L352.79 569.1Z" fill="black"/>
<path d="M356.69 572.56L360.83 575.72L362.81 572.91L358.88 569.91L356.69 572.56Z" fill="black"/>
<path d="M360.83 575.72L365.21 578.56L366.97 575.6L362.81 572.91L360.83 575.72Z" fill="black"/>
<path d="M365.21 578.56L369.79 581.05L371.32 577.96L366.97 575.6L365.21 578.56Z" fill="black"/>
<path d="M369.79 581.05L374.55 583.18L375.84 579.99L371.32 577.96L369.79 581.05Z" fill="black"/>
<path d="M374.55 583.18L379.46 584.94L380.5 581.66L375.84 579.99L374.55 583.18Z" fill="black"/>
<path d="M379.46 584.94L384.49 586.32L385.27 582.97L380.5 581.66L379.46 584.94Z" fill="black"/>
<path d="M384.49 586.32L389.61 587.32L390.13 583.91L385.27 582.97L384.49 586.32Z" fill="black"/>
<path d="M389.61 587.32L394.79 587.91L395.05 584.48L390.13 583.91L389.61 587.32Z" fill="black"/>
<path d="M394.79 587.91L400 588.11V584.67L395.05 584.48L394.79 587.91Z" fill="black"/>
<path d="M400 588.11L405.21 587.91L404.95 584.48L400 584.67V588.11Z" fill="black"/>
<path d="M405.21 587.91L410.4 587.32L409.87 583.91L404.95 584.48L405.21 587.91Z" fill="black"/>
<path d="M410.4 587.32L415.52 586.32L414.73 582.97L409.87 583.91L410.4 587.32Z" fill="black"/>
<path d="M415.52 586.32L420.55 584.94L419.51 581.66L414.73 582.97L415.52 586.32Z" fill="black"/>
<path d="M420.55 584.94L425.46 583.18L424.17 579.98L419.51 581.66L420.55 584.94Z" fill="black"/>
<path d="M425.46 583.18L430.22 581.04L428.69 577.96L424.17 579.98L425.46 583.18Z" fill="black"/>
<path d="M430.22 581.04L434.8 578.55L433.04 575.59L428.69 577.96L430.22 581.04Z" fill="black"/>
<path d="M434.8 578.55L439.18 575.72L437.2 572.9L433.04 575.59L434.8 578.55Z" fill="black"/>
<path d="M439.18 575.72L443.33 572.55L441.14 569.9L437.2 572.9L439.18 575.72Z" fill="black"/>
<path d="M443.33 572.55L447.22 569.08L444.84 566.6L441.14 569.9L443.33 572.55Z" fill="black"/>
<path d="M447.22 569.08L450.84 565.32L448.27 563.03L444.84 566.6L447.22 569.08Z" fill="black"/>
<path d="M450.84 565.32L454.16 561.3L451.42 559.21L448.27 563.03L450.84 565.32Z" fill="black"/>
<path d="M454.16 561.3L457.16 557.03L454.27 555.16L451.42 559.21L454.16 561.3Z" fill="black"/>
<path d="M457.16 557.03L459.83 552.55L456.8 550.9L454.27 555.16L457.16 557.03Z" fill="black"/>
<path d="M459.83 552.55L462.14 547.87L459 546.46L456.8 550.9L459.83 552.55Z" fill="black"/>
<path d="M462.14 547.87L464.09 543.03L460.85 541.87L459 546.46L462.14 547.87Z" fill="black"/>
<path d="M464.09 543.03L465.67 538.06L462.35 537.15L460.85 541.87L464.09 543.03Z" fill="black"/>
<path d="M465.67 538.06L466.86 532.98L463.48 532.32L462.35 537.15L465.67 538.06Z" fill="black"/>
<path d="M466.86 532.98L467.65 527.82L464.23 527.43L463.48 532.32L466.86 532.98Z" fill="black"/>
<path d="M467.65 527.82L468.05 522.62L464.61 522.49L464.23 527.43L467.65 527.82Z" fill="black"/>
<path d="M468.05 522.62V517.4L464.61 517.54V522.49L468.05 522.62Z" fill="black"/>
<path d="M468.05 517.4L467.65 512.2L464.23 512.6L464.61 517.54L468.05 517.4Z" fill="black"/>
<path d="M467.65 512.2L466.86 507.05L463.48 507.7L464.23 512.6L467.65 512.2Z" fill="black"/>
<path d="M466.86 507.05L465.67 501.97L462.35 502.88L463.48 507.7L466.86 507.05Z" fill="black"/>
<path d="M465.67 501.97L464.09 496.99L460.85 498.16L462.35 502.88L465.67 501.97Z" fill="black"/>
<path d="M464.09 496.99L462.14 492.15L459 493.56L460.85 498.16L464.09 496.99Z" fill="black"/>
<path d="M462.14 492.15L459.83 487.48L456.8 489.12L459 493.56L462.14 492.15Z" fill="black"/>
<path d="M459.83 487.48L457.16 482.99L454.27 484.87L456.8 489.12L459.83 487.48Z" fill="black"/>
<path d="M457.16 482.99L454.16 478.73L451.42 480.81L454.27 484.87L457.16 482.99Z" fill="black"/>
<path d="M454.16 478.73L450.84 474.7L448.27 476.99L451.42 480.81L454.16 478.73Z" fill="black"/>
<path d="M450.84 474.7L447.22 470.94L444.84 473.42L448.27 476.99L450.84 474.7Z" fill="black"/>
<path d="M447.22 470.94L443.33 467.47L441.14 470.13L444.84 473.42L447.22 470.94Z" fill="black"/>
<path d="M443.33 467.47L439.18 464.31L437.2 467.13L441.14 470.13L443.33 467.47Z" fill="black"/>
<path d="M439.18 464.31L434.8 461.47L433.04 464.43L437.2 467.13L439.18 464.31Z" fill="black"/>
<path d="M434.8 461.47L430.22 458.98L428.69 462.07L433.04 464.43L434.8 461.47Z" fill="black"/>
<path d="M430.22 458.98L425.46 456.85L424.17 460.04L428.69 462.07L430.22 458.98Z" fill="black"/>
<path d="M425.46 456.85L420.55 455.08L419.51 458.37L424.17 460.04L425.46 456.85Z" fill="black"/>
<path d="M420.55 455.08L415.52 453.7L414.73 457.05L419.51 458.37L420.55 455.08Z" fill="black"/>
<path d="M415.52 453.7L410.4 452.71L409.87 456.11L414.73 457.05L415.52 453.7Z" fill="black"/>
<path d="M410.4 452.71L405.21 452.11L404.95 455.54L409.87 456.11L410.4 452.71Z" fill="black"/>
<path d="M405.21 452.11L400 451.91V455.35L404.95 455.54L405.21 452.11Z" fill="black"/>
<path fill-rule="evenodd" clip-rule="evenodd" d="M364.65 501.59L366.37 498.61L400.86 518.52L399.14 521.5L364.65 501.59Z" fill="black"/>
<path fill-rule="evenodd" clip-rule="evenodd" d="M401.72 559.84H398.28V520.01H401.72V559.84Z" fill="black"/>
<path fill-rule="evenodd" clip-rule="evenodd" d="M417.65 535.22L415.21 537.66L398.78 521.23L401.22 518.8L417.65 535.22Z" fill="black"/>
<path d="M415.31 535.12L414.32 536.44L417.36 538.04L417.68 537.63L415.31 535.12Z" fill="black"/>
<path d="M414.32 536.44L413.8 538.01L417.2 538.54L417.36 538.04L414.32 536.44Z" fill="black"/>
<path d="M413.8 538.01L413.81 539.66L417.2 539.06V538.54L413.8 538.01Z" fill="black"/>
<path d="M413.81 539.66L414.36 541.22L417.38 539.56L417.2 539.06L413.81 539.66Z" fill="black"/>
<path d="M414.36 541.22L415.38 542.51L417.7 539.97L417.38 539.56L414.36 541.22Z" fill="black"/>
<path d="M415.38 542.51L416.77 543.41L418.14 540.25L417.7 539.97L415.38 542.51Z" fill="black"/>
<path d="M416.77 543.41L418.37 543.81L418.65 540.38L418.14 540.25L416.77 543.41Z" fill="black"/>
<path d="M418.37 543.81L420.02 543.67L419.17 540.34L418.65 540.38L418.37 543.81Z" fill="black"/>
<path d="M420.02 543.67L421.53 543.01L419.65 540.13L419.17 540.34L420.02 543.67Z" fill="black"/>
<path d="M421.53 543.01L422.74 541.89L420.03 539.77L419.65 540.13L421.53 543.01Z" fill="black"/>
<path d="M422.74 541.89L423.55 540.41L420.29 539.3L420.03 539.77L422.74 541.89Z" fill="black"/>
<path d="M423.55 540.41L423.82 538.75L420.37 538.78L420.29 539.3L423.55 540.41Z" fill="black"/>
<path d="M423.82 538.75L423.52 537.09L420.28 538.25L420.37 538.78L423.82 538.75Z" fill="black"/>
<path d="M423.52 537.09L422.7 535.62L420.02 537.79L420.28 538.25L423.52 537.09Z" fill="black"/>
<path d="M422.7 535.62L421.44 534.51L419.62 537.43L420.02 537.79L422.7 535.62Z" fill="black"/>
<path d="M421.44 534.51L419.88 533.87L419.13 537.23L419.62 537.43L421.44 534.51Z" fill="black"/>
<path d="M419.88 533.87L418.2 533.78L418.59 537.2L419.13 537.23L419.88 533.87Z" fill="black"/>
<path d="M418.2 533.78L416.58 534.25L418.08 537.35L418.59 537.2L418.2 533.78Z" fill="black"/>
<path d="M416.58 534.25L415.21 535.22L417.65 537.66L418.08 537.35L416.58 534.25Z" fill="black"/>
<path d="M415.21 535.22L414.28 536.5L417.35 538.06L417.65 537.66L415.21 535.22Z" fill="black"/>
<path d="M414.28 536.5L413.8 538L417.2 538.54L417.35 538.06L414.28 536.5Z" fill="black"/>
<path d="M413.8 538V539.58L417.2 539.04V538.54L413.8 538Z" fill="black"/>
<path d="M413.8 539.58L414.28 541.08L417.35 539.51L417.2 539.04L413.8 539.58Z" fill="black"/>
<path d="M414.28 541.08L415.21 542.35L417.65 539.92L417.35 539.51L414.28 541.08Z" fill="black"/>
<path d="M415.21 542.35L416.49 543.28L418.05 540.21L417.65 539.92L415.21 542.35Z" fill="black"/>
<path d="M416.49 543.28L417.99 543.77L418.53 540.37L418.05 540.21L416.49 543.28Z" fill="black"/>
<path d="M417.99 543.77H419.56L419.02 540.37H418.53L417.99 543.77Z" fill="black"/>
<path d="M419.56 543.77L421.06 543.28L419.5 540.21L419.02 540.37L419.56 543.77Z" fill="black"/>
<path d="M421.06 543.28L422.34 542.35L419.9 539.92L419.5 540.21L421.06 543.28Z" fill="black"/>
<path fill-rule="evenodd" clip-rule="evenodd" d="M433.63 498.61L435.35 501.59L400.86 521.5L399.14 518.52L433.63 498.61Z" fill="black"/>
</g>
<defs>
<clipPath id="clip0_4_22">
<rect width="800" height="600" fill="white"/>
</clipPath>
</defs>
</svg>
