<?xml version="1.0" encoding="UTF-8"?>
<svg xmlns="http://www.w3.org/2000/svg" width="800.000" height="600.000" viewBox="0.0 0.0 800.000 600.000" version="1.1">
  <title>Produce by Acme CAD Converter</title>
  <desc>Produce by Acme CAD Converter</desc>
<path d="M398.14 119.92L401.86 119.92 401.97 374.17 398.24 373.17 398.14 119.92Z"
fill-rule="evenodd" fill="black"/>
<path d="M398.24 373.17L401.97 374.17 354.03 457.21 352.67 452.12 398.24 373.17Z"
fill-rule="evenodd" fill="black"/>
<path d="M352.67 452.12L354.03 457.21 311.46 432.63 313.33 429.4 352.67 452.12Z"
fill-rule="evenodd" fill="black"/>
<path d="M311.46 432.63L313.33 429.4 395.23 476.69 393.37 479.92 311.46 432.63Z"
fill-rule="evenodd" fill="black"/>
<path d="M302.6 447.99L304.46 444.76 386.37 492.05 384.5 495.28 302.6 447.99Z"
fill-rule="evenodd" fill="black"/>
<path d="M386.37 492.05L384.5 495.28 345.16 472.57 343.8 467.48 386.37 492.05Z"
fill-rule="evenodd" fill="black"/>
<path d="M343.8 467.48L345.16 472.57 300.95 549.15 294.49 552.88 343.8 467.48Z"
fill-rule="evenodd" fill="black"/>
<path d="M294.49 552.88L300.95 549.15 389.38 549.15 393.1 552.88 294.49 552.88Z"
fill-rule="evenodd" fill="black"/>
<path d="M393.1 552.88L389.38 549.15 389.38 503.72 393.1 503.72 393.1 552.88Z"
fill-rule="evenodd" fill="black"/>
<path d="M389.38 503.72L393.1 503.72 393.1 598.3 389.38 598.3 389.38 503.72Z"
fill-rule="evenodd" fill="black"/>
<path d="M407.11 503.72L410.84 503.72 410.84 598.3 407.11 598.3 407.11 503.72Z"
fill-rule="evenodd" fill="black"/>
<path d="M410.84 598.3L407.11 598.3 407.11 549.15 410.84 552.88 410.84 598.3Z"
fill-rule="evenodd" fill="black"/>
<path d="M410.84 552.88L407.11 549.15 499.27 549.15 505.72 552.88 410.84 552.88Z"
fill-rule="evenodd" fill="black"/>
<path d="M505.72 552.88L499.27 549.15 455.05 472.57 456.42 467.48 505.72 552.88Z"
fill-rule="evenodd" fill="black"/>
<path d="M456.42 467.48L455.05 472.57 415.71 495.28 413.85 492.05 456.42 467.48Z"
fill-rule="evenodd" fill="black"/>
<path d="M415.71 495.28L413.85 492.05 495.76 444.76 497.62 447.99 415.71 495.28Z"
fill-rule="evenodd" fill="black"/>
<path d="M406.85 479.92L404.98 476.69 486.89 429.4 488.75 432.63 406.85 479.92Z"
fill-rule="evenodd" fill="black"/>
<path d="M486.89 429.4L488.75 432.63 446.19 457.21 447.55 452.12 486.89 429.4Z"
fill-rule="evenodd" fill="black"/>
<path d="M447.55 452.12L446.19 457.21 398.49 374.6 401.72 372.74 447.55 452.12Z"
fill-rule="evenodd" fill="black"/>
<path d="M45.32 1.7L45.32 1.7M45.32 1.7L45.32 1.7M45.32 1.7L45.32 1.7M45.32 1.7L45.32 1.7"
fill="none" stroke="black" stroke-width="0.5"/>
<path d="M754.68 1.7L754.68 1.7M754.68 1.7L754.68 1.7M754.68 1.7L754.68 1.7M754.68 1.7L754.68 1.7"
fill="none" stroke="black" stroke-width="0.5"/>
</svg>
