<svg width="800" height="600" viewBox="0 0 800 600" fill="none" xmlns="http://www.w3.org/2000/svg">
<g clip-path="url(#clip0_1_2)">
<path fill-rule="evenodd" clip-rule="evenodd" d="M397 -40H402.828L403 374L397.157 372.372L397 -40Z" fill="black"/>
<path fill-rule="evenodd" clip-rule="evenodd" d="M398.24 373.17L401.97 374.17L354.03 457.21L352.67 452.12L398.24 373.17Z" fill="black"/>
<path fill-rule="evenodd" clip-rule="evenodd" d="M352.67 452.12L354.03 457.21L311.46 432.63L313.33 429.4L352.67 452.12Z" fill="black"/>
<path fill-rule="evenodd" clip-rule="evenodd" d="M311.46 432.63L313.33 429.4L395.23 476.69L393.37 479.92L311.46 432.63Z" fill="black"/>
<path fill-rule="evenodd" clip-rule="evenodd" d="M302.6 447.99L304.46 444.76L386.37 492.05L384.5 495.28L302.6 447.99Z" fill="black"/>
<path fill-rule="evenodd" clip-rule="evenodd" d="M386.37 492.05L384.5 495.28L345.16 472.57L343.8 467.48L386.37 492.05Z" fill="black"/>
<path fill-rule="evenodd" clip-rule="evenodd" d="M343.8 467.48L345.16 472.57L300.95 549.15L294.49 552.88L343.8 467.48Z" fill="black"/>
<path fill-rule="evenodd" clip-rule="evenodd" d="M294.49 552.88L300.95 549.15H389.38L393.1 552.88H294.49Z" fill="black"/>
<path fill-rule="evenodd" clip-rule="evenodd" d="M393.1 552.88L389.38 549.15V503.72H393.1V552.88Z" fill="black"/>
<path fill-rule="evenodd" clip-rule="evenodd" d="M389.38 503.72H393.1V598.3H389.38V503.72Z" fill="black"/>
<path fill-rule="evenodd" clip-rule="evenodd" d="M407.11 503.72H410.84V598.3H407.11V503.72Z" fill="black"/>
<path fill-rule="evenodd" clip-rule="evenodd" d="M410.84 598.3H407.11V549.15L410.84 552.88V598.3Z" fill="black"/>
<path fill-rule="evenodd" clip-rule="evenodd" d="M410.84 552.88L407.11 549.15H499.27L505.72 552.88H410.84Z" fill="black"/>
<path fill-rule="evenodd" clip-rule="evenodd" d="M505.72 552.88L499.27 549.15L455.05 472.57L456.42 467.48L505.72 552.88Z" fill="black"/>
<path fill-rule="evenodd" clip-rule="evenodd" d="M456.42 467.48L455.05 472.57L415.71 495.28L413.85 492.05L456.42 467.48Z" fill="black"/>
<path fill-rule="evenodd" clip-rule="evenodd" d="M415.71 495.28L413.85 492.05L495.76 444.76L497.62 447.99L415.71 495.28Z" fill="black"/>
<path fill-rule="evenodd" clip-rule="evenodd" d="M406.85 479.92L404.98 476.69L486.89 429.4L488.75 432.63L406.85 479.92Z" fill="black"/>
<path fill-rule="evenodd" clip-rule="evenodd" d="M486.89 429.4L488.75 432.63L446.19 457.21L447.55 452.12L486.89 429.4Z" fill="black"/>
<path fill-rule="evenodd" clip-rule="evenodd" d="M447.55 452.12L446.19 457.21L398.49 374.6L401.72 372.74L447.55 452.12Z" fill="black"/>
</g>
<defs>
<clipPath id="clip0_1_2">
<rect width="800" height="600" fill="white"/>
</clipPath>
</defs>
</svg>
