<?xml version="1.0" encoding="UTF-8" standalone="no"?>
<svg
   width="800.000"
   height="600.000"
   viewBox="0.0 0.0 800.000 600.000"
   version="1.1"
   id="svg42"
   sodipodi:docname="VoltageMeasuringTransformer.svg"
   inkscape:version="1.2.2 (732a01da63, 2022-12-09)"
   xmlns:inkscape="http://www.inkscape.org/namespaces/inkscape"
   xmlns:sodipodi="http://sodipodi.sourceforge.net/DTD/sodipodi-0.dtd"
   xmlns="http://www.w3.org/2000/svg"
   xmlns:svg="http://www.w3.org/2000/svg">
  <defs
     id="defs46" />
  <sodipodi:namedview
     id="namedview44"
     pagecolor="#505050"
     bordercolor="#eeeeee"
     borderopacity="1"
     inkscape:showpageshadow="0"
     inkscape:pageopacity="0"
     inkscape:pagecheckerboard="0"
     inkscape:deskcolor="#505050"
     showgrid="false"
     inkscape:zoom="1.685"
     inkscape:cx="400.29674"
     inkscape:cy="299.70326"
     inkscape:window-width="2560"
     inkscape:window-height="1369"
     inkscape:window-x="-8"
     inkscape:window-y="-8"
     inkscape:window-maximized="1"
     inkscape:current-layer="svg42" />
  <title
     id="title2">Produce by Acme CAD Converter</title>
  <desc
     id="desc4">Produce by Acme CAD Converter</desc>
  <path
     d="M151.96 397.4L152.16 389.72M152.16 389.72L152.76 382.05M152.76 382.05L153.75 374.43M153.75 374.43L155.14 366.87M155.14 366.87L156.92 359.39M156.92 359.39L159.09 352.01M159.09 352.01L161.63 344.75M161.63 344.75L164.55 337.64M164.55 337.64L167.84 330.69M167.84 330.69L171.48 323.92M171.48 323.92L175.46 317.35M175.46 317.35L179.79 310.99M179.79 310.99L184.43 304.86M184.43 304.86L189.39 298.99M189.39 298.99L194.65 293.38M194.65 293.38L200.19 288.05M200.19 288.05L206 283.01M206 283.01L212.07 278.29M212.07 278.29L218.37 273.88M218.37 273.88L224.89 269.81M224.89 269.81L231.61 266.08M231.61 266.08L238.52 262.71M238.52 262.71L245.59 259.7M245.59 259.7L252.82 257.06M252.82 257.06L260.16 254.79M260.16 254.79L267.62 252.92M267.62 252.92L275.16 251.43M275.16 251.43L282.77 250.34M282.77 250.34L290.43 249.64M290.43 249.64L298.11 249.34M298.11 249.34L305.8 249.44M305.8 249.44L313.47 249.94M313.47 249.94L321.11 250.83M321.11 250.83L328.68 252.12M328.68 252.12L336.19 253.81M336.19 253.81L343.59 255.88M343.59 255.88L350.88 258.33M350.88 258.33L358.03 261.16M358.03 261.16L365.02 264.35M365.02 264.35L371.84 267.9M371.84 267.9L378.46 271.8M378.46 271.8L384.88 276.04M384.88 276.04L391.06 280.61M391.06 280.61L397 285.49M397 285.49L402.68 290.68M402.68 290.68L408.08 296.15M408.08 296.15L413.19 301.89M413.19 301.89L417.99 307.9M417.99 307.9L422.48 314.14M422.48 314.14L426.64 320.61M426.64 320.61L430.45 327.28M430.45 327.28L433.92 334.15M433.92 334.15L437.02 341.18M437.02 341.18L439.75 348.37M439.75 348.37L442.11 355.68M442.11 355.68L444.08 363.11M444.08 363.11L445.67 370.64M445.67 370.64L446.86 378.23M446.86 378.23L447.66 385.88M447.66 385.88L448.06 393.56M448.06 393.56L448.06 401.25M448.06 401.25L447.66 408.92M447.66 408.92L446.86 416.57M446.86 416.57L445.67 424.16M445.67 424.16L444.08 431.69M444.08 431.69L442.11 439.12M442.11 439.12L439.75 446.44M439.75 446.44L437.02 453.62M437.02 453.62L433.92 460.66M433.92 460.66L430.45 467.52M430.45 467.52L426.64 474.2M426.64 474.2L422.48 480.66M422.48 480.66L417.99 486.91M417.99 486.91L413.19 492.91M413.19 492.91L408.08 498.65M408.08 498.65L402.68 504.12M402.68 504.12L397 509.31M397 509.31L391.06 514.19M391.06 514.19L384.88 518.76M384.88 518.76L378.46 523M378.46 523L371.84 526.9M371.84 526.9L365.02 530.45M365.02 530.45L358.03 533.65M358.03 533.65L350.88 536.47M350.88 536.47L343.59 538.92M343.59 538.92L336.19 540.99M336.19 540.99L328.68 542.68M328.68 542.68L321.11 543.97M321.11 543.97L313.47 544.86M313.47 544.86L305.8 545.36M305.8 545.36L298.11 545.46M298.11 545.46L290.43 545.16M290.43 545.16L282.77 544.47M282.77 544.47L275.16 543.37M275.16 543.37L267.62 541.88M267.62 541.88L260.16 540.01M260.16 540.01L252.82 537.75M252.82 537.75L245.59 535.11M245.59 535.11L238.52 532.09M238.52 532.09L231.61 528.72M231.61 528.72L224.89 524.99M224.89 524.99L218.37 520.92M218.37 520.92L212.07 516.51M212.07 516.51L206 511.79M206 511.79L200.19 506.75M200.19 506.75L194.65 501.42M194.65 501.42L189.39 495.81M189.39 495.81L184.43 489.94M184.43 489.94L179.79 483.81M179.79 483.81L175.46 477.46M175.46 477.46L171.48 470.88M171.48 470.88L167.84 464.11M167.84 464.11L164.55 457.16M164.55 457.16L161.63 450.05M161.63 450.05L159.09 442.79M159.09 442.79L156.92 435.42M156.92 435.42L155.14 427.94M155.14 427.94L153.75 420.38M153.75 420.38L152.76 412.75M152.76 412.75L152.16 405.09M152.16 405.09L151.96 397.4"
     fill="none"
     stroke="black"
     stroke-width="0.5"
     id="path6"
     style="stroke-width:2;stroke-dasharray:none" />
  <path
     d="M352.06 298.6L352.26 290.92M352.26 290.92L352.86 283.25M352.86 283.25L353.85 275.63M353.85 275.63L355.24 268.07M355.24 268.07L357.02 260.59M357.02 260.59L359.19 253.21M359.19 253.21L361.73 245.96M361.73 245.96L364.65 238.85M364.65 238.85L367.94 231.89M367.94 231.89L371.58 225.12M371.58 225.12L375.56 218.55M375.56 218.55L379.89 212.19M379.89 212.19L384.53 206.07M384.53 206.07L389.49 200.19M389.49 200.19L394.75 194.58M394.75 194.58L400.29 189.25M400.29 189.25L406.1 184.22M406.1 184.22L412.17 179.49M412.17 179.49L418.47 175.09M418.47 175.09L424.99 171.01M424.99 171.01L431.71 167.28M431.71 167.28L438.62 163.91M438.62 163.91L445.69 160.9M445.69 160.9L452.91 158.26M452.91 158.26L460.26 156M460.26 156L467.72 154.12M467.72 154.12L475.26 152.63M475.26 152.63L482.87 151.54M482.87 151.54L490.53 150.84M490.53 150.84L498.21 150.54M498.21 150.54L505.9 150.64M505.9 150.64L513.57 151.14M513.57 151.14L521.21 152.04M521.21 152.04L528.78 153.33M528.78 153.33L536.29 155.01M536.29 155.01L543.69 157.08M543.69 157.08L550.98 159.53M550.98 159.53L558.13 162.36M558.13 162.36L565.12 165.55M565.12 165.55L571.94 169.11M571.94 169.11L578.56 173.01M578.56 173.01L584.98 177.25M584.98 177.25L591.16 181.81M591.16 181.81L597.1 186.7M597.1 186.7L602.78 191.88M602.78 191.88L608.18 197.35M608.18 197.35L613.29 203.1M613.29 203.1L618.09 209.1M618.09 209.1L622.58 215.34M622.58 215.34L626.74 221.81M626.74 221.81L630.55 228.48M630.55 228.48L634.02 235.35M634.02 235.35L637.12 242.38M637.12 242.38L639.85 249.57M639.85 249.57L642.21 256.89M642.21 256.89L644.18 264.32M644.18 264.32L645.77 271.84M645.77 271.84L646.96 279.44M646.96 279.44L647.76 287.08M647.76 287.08L648.16 294.76M648.16 294.76L648.16 302.45M648.16 302.45L647.76 310.13M647.76 310.13L646.96 317.77M646.96 317.77L645.77 325.37M645.77 325.37L644.18 332.89M644.18 332.89L642.21 340.32M642.21 340.32L639.85 347.64M639.85 347.64L637.12 354.83M637.12 354.83L634.02 361.86M634.02 361.86L630.55 368.72M630.55 368.72L626.74 375.4M626.74 375.4L622.58 381.87M622.58 381.87L618.09 388.11M618.09 388.11L613.29 394.11M613.29 394.11L608.18 399.86M608.18 399.86L602.78 405.33M602.78 405.33L597.1 410.51M597.1 410.51L591.16 415.39M591.16 415.39L584.98 419.96M584.98 419.96L578.56 424.2M578.56 424.2L571.94 428.1M571.94 428.1L565.12 431.65M565.12 431.65L558.13 434.85M558.13 434.85L550.98 437.68M550.98 437.68L543.69 440.13M543.69 440.13L536.29 442.2M536.29 442.2L528.78 443.88M528.78 443.88L521.21 445.17M521.21 445.17L513.57 446.07M513.57 446.07L505.9 446.57M505.9 446.57L498.21 446.67M498.21 446.67L490.53 446.37M490.53 446.37L482.87 445.67M482.87 445.67L475.26 444.57M475.26 444.57L467.72 443.09M467.72 443.09L460.26 441.21M460.26 441.21L452.91 438.95M452.91 438.95L445.69 436.31M445.69 436.31L438.62 433.3M438.62 433.3L431.71 429.92M431.71 429.92L424.99 426.19M424.99 426.19L418.47 422.12M418.47 422.12L412.17 417.72M412.17 417.72L406.1 412.99M406.1 412.99L400.29 407.96M400.29 407.96L394.75 402.63M394.75 402.63L389.49 397.02M389.49 397.02L384.53 391.14M384.53 391.14L379.89 385.02M379.89 385.02L375.56 378.66M375.56 378.66L371.58 372.09M371.58 372.09L367.94 365.31M367.94 365.31L364.65 358.36M364.65 358.36L361.73 351.25M361.73 351.25L359.19 344M359.19 344L357.02 336.62M357.02 336.62L355.24 329.14M355.24 329.14L353.85 321.58M353.85 321.58L352.86 313.95M352.86 313.95L352.26 306.29M352.26 306.29L352.06 298.6"
     fill="none"
     stroke="black"
     stroke-width="0.5"
     id="path8"
     style="stroke-width:2;stroke-dasharray:none" />
  <path
     d="M565.51 326.64L475.06 377.26"
     fill="none"
     stroke="black"
     stroke-width="0.5"
     id="path10"
     style="stroke-width:2;stroke-dasharray:none" />
  <path
     d="M477.04 229.2L475.06 377.26"
     fill="none"
     stroke="black"
     stroke-width="0.5"
     id="path12"
     style="stroke-width:2;stroke-dasharray:none" />
  <path
     d="M566.11 282.22L477.04 229.2"
     fill="none"
     stroke="black"
     stroke-width="0.5"
     id="path14"
     style="stroke-width:2;stroke-dasharray:none" />
  <path
     d="M151.79 149.77L151.99 142.09M151.99 142.09L152.59 134.42M152.59 134.42L153.59 126.8M153.59 126.8L154.98 119.24M154.98 119.24L156.76 111.76M156.76 111.76L158.92 104.38M158.92 104.38L161.47 97.13M161.47 97.13L164.39 90.01M164.39 90.01L167.67 83.06M167.67 83.06L171.31 76.29M171.31 76.29L175.3 69.72M175.3 69.72L179.62 63.36M179.62 63.36L184.27 57.23M184.27 57.23L189.23 51.36M189.23 51.36L194.49 45.75M194.49 45.75L200.03 40.42M200.03 40.42L205.84 35.39M205.84 35.39L211.9 30.66M211.9 30.66L218.2 26.25M218.2 26.25L224.72 22.18M224.72 22.18L231.45 18.45M231.45 18.45L238.36 15.08M238.36 15.08L245.43 12.07M245.43 12.07L252.65 9.43M252.65 9.43L260 7.17M260 7.17L267.45 5.29M267.45 5.29L275 3.8M275 3.8L282.61 2.71M282.61 2.71L290.26 2.01M290.26 2.01L297.95 1.71M297.95 1.71L305.63 1.81M305.63 1.81L313.31 2.31M313.31 2.31L320.94 3.2M320.94 3.2L328.52 4.5M328.52 4.5L336.02 6.18M336.02 6.18L343.43 8.25M343.43 8.25L350.71 10.7M350.71 10.7L357.86 13.53M357.86 13.53L364.86 16.72M364.86 16.72L371.67 20.27M371.67 20.27L378.3 24.18M378.3 24.18L384.71 28.42M384.71 28.42L390.9 32.98M390.9 32.98L396.84 37.87M396.84 37.87L402.51 43.05M402.51 43.05L407.91 48.52M407.91 48.52L413.02 54.27M413.02 54.27L417.83 60.27M417.83 60.27L422.32 66.51M422.32 66.51L426.47 72.98M426.47 72.98L430.29 79.65M430.29 79.65L433.75 86.52M433.75 86.52L436.85 93.55M436.85 93.55L439.59 100.74M439.59 100.74L441.94 108.05M441.94 108.05L443.92 115.49M443.92 115.49L445.5 123.01M445.5 123.01L446.7 130.6M446.7 130.6L447.49 138.25M447.49 138.25L447.89 145.93M447.89 145.93L447.89 153.62M447.89 153.62L447.49 161.29M447.49 161.29L446.7 168.94M446.7 168.94L445.5 176.54M445.5 176.54L443.92 184.06M443.92 184.06L441.94 191.49M441.94 191.49L439.59 198.81M439.59 198.81L436.85 205.99M436.85 205.99L433.75 213.03M433.75 213.03L430.29 219.89M430.29 219.89L426.47 226.57M426.47 226.57L422.32 233.03M422.32 233.03L417.83 239.28M417.83 239.28L413.02 245.28M413.02 245.28L407.91 251.02M407.91 251.02L402.51 256.5M402.51 256.5L396.84 261.68M396.84 261.68L390.9 266.56M390.9 266.56L384.71 271.13M384.71 271.13L378.3 275.37M378.3 275.37L371.67 279.27M371.67 279.27L364.86 282.82M364.86 282.82L357.86 286.02M357.86 286.02L350.71 288.84M350.71 288.84L343.43 291.3M343.43 291.3L336.02 293.37M336.02 293.37L328.52 295.05M328.52 295.05L320.94 296.34M320.94 296.34L313.31 297.24M313.31 297.24L305.63 297.73M305.63 297.73L297.95 297.83M297.95 297.83L290.26 297.54M290.26 297.54L282.61 296.84M282.61 296.84L275 295.74M275 295.74L267.45 294.26M267.45 294.26L260 292.38M260 292.38L252.65 290.12M252.65 290.12L245.43 287.48M245.43 287.48L238.36 284.47M238.36 284.47L231.45 281.09M231.45 281.09L224.72 277.36M224.72 277.36L218.2 273.29M218.2 273.29L211.9 268.89M211.9 268.89L205.84 264.16M205.84 264.16L200.03 259.12M200.03 259.12L194.49 253.8M194.49 253.8L189.23 248.19M189.23 248.19L184.27 242.31M184.27 242.31L179.62 236.19M179.62 236.19L175.3 229.83M175.3 229.83L171.31 223.25M171.31 223.25L167.67 216.48M167.67 216.48L164.39 209.53M164.39 209.53L161.47 202.42M161.47 202.42L158.92 195.16M158.92 195.16L156.76 187.79M156.76 187.79L154.98 180.31M154.98 180.31L153.59 172.75M153.59 172.75L152.59 165.12M152.59 165.12L151.99 157.46M151.99 157.46L151.79 149.77"
     fill="none"
     stroke="black"
     stroke-width="0.5"
     id="path16"
     style="stroke-width:2;stroke-dasharray:none" />
  <path
     d="M299.87 149.77L349.19 75.88"
     fill="none"
     stroke="black"
     stroke-width="0.5"
     id="path18"
     style="stroke-width:2;stroke-dasharray:none" />
  <path
     d="M299.87 149.77L348.95 166.41"
     fill="none"
     stroke="black"
     stroke-width="0.5"
     id="path20"
     style="stroke-width:2;stroke-dasharray:none" />
  <path
     d="M299.87 149.77L339.2 229.44"
     fill="none"
     stroke="black"
     stroke-width="0.5"
     id="path22"
     style="stroke-width:2;stroke-dasharray:none" />
  <path
     d="M299.87 149.77L211.21 144"
     fill="none"
     stroke="black"
     stroke-width="0.5"
     id="path24"
     style="stroke-width:2;stroke-dasharray:none" />
  <path
     d="M348.56 168.78L348.75 167.14M348.75 167.14L349.29 165.57M349.29 165.57L350.17 164.17M350.17 164.17L351.35 163M351.35 163L352.75 162.11M352.75 162.11L354.32 161.57M354.32 161.57L355.96 161.38M355.96 161.38L357.61 161.57M357.61 161.57L359.18 162.11M359.18 162.11L360.58 163M360.58 163L361.75 164.17M361.75 164.17L362.63 165.57M362.63 165.57L363.18 167.14M363.18 167.14L363.37 168.78M363.37 168.78L363.18 170.43M363.18 170.43L362.63 172M362.63 172L361.75 173.4M361.75 173.4L360.58 174.57M360.58 174.57L359.18 175.45M359.18 175.45L357.61 176M357.61 176L355.96 176.19M355.96 176.19L354.32 176M354.32 176L352.75 175.45M352.75 175.45L351.35 174.57M351.35 174.57L350.17 173.4M350.17 173.4L349.29 172M349.29 172L348.75 170.43M348.75 170.43L348.56 168.78"
     fill="none"
     stroke="black"
     stroke-width="0.5"
     id="path26"
     style="stroke-width:2;stroke-dasharray:none" />
  <path
     d="M300.03 397.4L349.36 323.51"
     fill="none"
     stroke="black"
     stroke-width="0.5"
     id="path28"
     style="stroke-width:2;stroke-dasharray:none" />
  <path
     d="M300.03 397.4L349.12 414.04"
     fill="none"
     stroke="black"
     stroke-width="0.5"
     id="path30"
     style="stroke-width:2;stroke-dasharray:none" />
  <path
     d="M300.03 397.4L339.37 477.06"
     fill="none"
     stroke="black"
     stroke-width="0.5"
     id="path32"
     style="stroke-width:2;stroke-dasharray:none" />
  <path
     d="M300.03 397.4L211.38 391.63"
     fill="none"
     stroke="black"
     stroke-width="0.5"
     id="path34"
     style="stroke-width:2;stroke-dasharray:none" />
  <path
     d="M348.72 416.41L348.91 414.77M348.91 414.77L349.46 413.2M349.46 413.2L350.34 411.8M350.34 411.8L351.51 410.62M351.51 410.62L352.92 409.74M352.92 409.74L354.48 409.19M354.48 409.19L356.13 409.01M356.13 409.01L357.78 409.19M357.78 409.19L359.34 409.74M359.34 409.74L360.74 410.62M360.74 410.62L361.92 411.8M361.92 411.8L362.8 413.2M362.8 413.2L363.35 414.77M363.35 414.77L363.53 416.41M363.53 416.41L363.35 418.06M363.35 418.06L362.8 419.63M362.8 419.63L361.92 421.03M361.92 421.03L360.74 422.2M360.74 422.2L359.34 423.08M359.34 423.08L357.78 423.63M357.78 423.63L356.13 423.82M356.13 423.82L354.48 423.63M354.48 423.63L352.92 423.08M352.92 423.08L351.51 422.2M351.51 422.2L350.34 421.03M350.34 421.03L349.46 419.63M349.46 419.63L348.91 418.06M348.91 418.06L348.72 416.41"
     fill="none"
     stroke="black"
     stroke-width="0.5"
     id="path36"
     style="stroke-width:2;stroke-dasharray:none" />
  <path
     d="M299.94 598.3L300.03 545.48"
     fill="none"
     stroke="black"
     stroke-width="0.5"
     id="path38"
     style="stroke-width:2;stroke-dasharray:none" />
  <path
     d="M299.87 149.77L300.03 397.4"
     fill="none"
     stroke="black"
     stroke-width="0.5"
     id="path40"
     style="stroke-width:2;stroke-dasharray:none" />
</svg>
