<?xml version="1.0" encoding="UTF-8" standalone="no"?>
<svg
   width="800.000"
   height="600.000"
   viewBox="0.0 0.0 800.000 600.000"
   version="1.1"
   id="svg34"
   sodipodi:docname="VoltageIndicator.svg"
   inkscape:version="1.2.2 (732a01da63, 2022-12-09)"
   xmlns:inkscape="http://www.inkscape.org/namespaces/inkscape"
   xmlns:sodipodi="http://sodipodi.sourceforge.net/DTD/sodipodi-0.dtd"
   xmlns="http://www.w3.org/2000/svg"
   xmlns:svg="http://www.w3.org/2000/svg">
  <defs
     id="defs38" />
  <sodipodi:namedview
     id="namedview36"
     pagecolor="#505050"
     bordercolor="#eeeeee"
     borderopacity="1"
     inkscape:showpageshadow="0"
     inkscape:pageopacity="0"
     inkscape:pagecheckerboard="0"
     inkscape:deskcolor="#505050"
     showgrid="false"
     inkscape:zoom="1.685"
     inkscape:cx="400.29674"
     inkscape:cy="299.70326"
     inkscape:window-width="2560"
     inkscape:window-height="1369"
     inkscape:window-x="-8"
     inkscape:window-y="-8"
     inkscape:window-maximized="1"
     inkscape:current-layer="svg34" />
  <title
     id="title2">Produce by Acme CAD Converter</title>
  <desc
     id="desc4">Produce by Acme CAD Converter</desc>
  <path
     d="M400 1.7L400 93.64"
     fill="none"
     stroke="black"
     stroke-width="0.5"
     id="path6"
     style="stroke-width:2;stroke-dasharray:none" />
  <path
     d="M340.34 550.57L459.66 550.57"
     fill="none"
     stroke="black"
     stroke-width="0.5"
     id="path8"
     style="stroke-width:2;stroke-dasharray:none" />
  <path
     d="M435.8 574.44L364.2 574.44"
     fill="none"
     stroke="black"
     stroke-width="0.5"
     id="path10"
     style="stroke-width:2;stroke-dasharray:none" />
  <path
     d="M388.07 598.3L411.93 598.3"
     fill="none"
     stroke="black"
     stroke-width="0.5"
     id="path12"
     style="stroke-width:2;stroke-dasharray:none" />
  <path
     d="M280.68 387.16L280.88 380.29M280.88 380.29L281.47 373.43M281.47 373.43L282.46 366.63M282.46 366.63L283.84 359.89M283.84 359.89L285.6 353.24M285.6 353.24L287.74 346.71M287.74 346.71L290.26 340.31M290.26 340.31L293.14 334.06M293.14 334.06L296.38 328M296.38 328L299.96 322.12M299.96 322.12L303.87 316.47M303.87 316.47L308.11 311.05M308.11 311.05L312.64 305.88M312.64 305.88L317.47 300.98M317.47 300.98L322.57 296.37M322.57 296.37L327.93 292.06M327.93 292.06L333.53 288.07M333.53 288.07L339.35 284.4M339.35 284.4L345.37 281.08M345.37 281.08L351.57 278.11M351.57 278.11L357.94 275.5M357.94 275.5L364.44 273.26M364.44 273.26L371.06 271.4M371.06 271.4L377.78 269.93M377.78 269.93L384.57 268.84M384.57 268.84L391.41 268.15M391.41 268.15L398.28 267.85M398.28 267.85L405.16 267.95M405.16 267.95L412.02 268.45M412.02 268.45L418.84 269.33M418.84 269.33L425.59 270.62M425.59 270.62L432.26 272.28M432.26 272.28L438.83 274.33M438.83 274.33L445.26 276.76M445.26 276.76L451.55 279.55M451.55 279.55L457.66 282.7M457.66 282.7L463.59 286.19M463.59 286.19L469.3 290.02M469.3 290.02L474.78 294.18M474.78 294.18L480.01 298.64M480.01 298.64L484.98 303.4M484.98 303.4L489.66 308.43M489.66 308.43L494.05 313.73M494.05 313.73L498.12 319.27M498.12 319.27L501.87 325.03M501.87 325.03L505.28 331.01M505.28 331.01L508.34 337.17M508.34 337.17L511.04 343.49M511.04 343.49L513.37 349.96M513.37 349.96L515.33 356.55M515.33 356.55L516.9 363.25M516.9 363.25L518.08 370.02M518.08 370.02L518.88 376.85M518.88 376.85L519.27 383.72M519.27 383.72L519.27 390.6M519.27 390.6L518.88 397.46M518.88 397.46L518.08 404.3M518.08 404.3L516.9 411.07M516.9 411.07L515.33 417.76M515.33 417.76L513.37 424.36M513.37 424.36L511.04 430.83M511.04 430.83L508.34 437.15M508.34 437.15L505.28 443.31M505.28 443.31L501.87 449.28M501.87 449.28L498.12 455.05M498.12 455.05L494.05 460.59M494.05 460.59L489.66 465.89M489.66 465.89L484.98 470.92M484.98 470.92L480.01 475.68M480.01 475.68L474.78 480.14M474.78 480.14L469.3 484.29M469.3 484.29L463.59 488.13M463.59 488.13L457.66 491.62M457.66 491.62L451.55 494.77M451.55 494.77L445.26 497.56M445.26 497.56L438.83 499.99M438.83 499.99L432.26 502.04M432.26 502.04L425.59 503.7M425.59 503.7L418.84 504.98M418.84 504.98L412.02 505.87M412.02 505.87L405.16 506.37M405.16 506.37L398.28 506.47M398.28 506.47L391.41 506.17M391.41 506.17L384.57 505.48M384.57 505.48L377.78 504.39M377.78 504.39L371.06 502.92M371.06 502.92L364.44 501.06M364.44 501.06L357.94 498.82M357.94 498.82L351.57 496.21M351.57 496.21L345.37 493.24M345.37 493.24L339.35 489.92M339.35 489.92L333.53 486.25M333.53 486.25L327.93 482.26M327.93 482.26L322.57 477.95M322.57 477.95L317.47 473.34M317.47 473.34L312.64 468.44M312.64 468.44L308.11 463.27M308.11 463.27L303.87 457.85M303.87 457.85L299.96 452.19M299.96 452.19L296.38 446.32M296.38 446.32L293.14 440.25M293.14 440.25L290.26 434.01M290.26 434.01L287.74 427.61M287.74 427.61L285.6 421.08M285.6 421.08L283.84 414.43M283.84 414.43L282.46 407.69M282.46 407.69L281.47 400.89M281.47 400.89L280.88 394.03M280.88 394.03L280.68 387.16"
     fill="none"
     stroke="black"
     stroke-width="0.5"
     id="path14"
     style="stroke-width:2;stroke-dasharray:none" />
  <path
     d="M328.41 165.23L328.6 159.94M328.6 159.94L329.19 154.69M329.19 154.69L330.16 149.48M330.16 149.48L331.51 144.37M331.51 144.37L333.24 139.37M333.24 139.37L335.33 134.51M335.33 134.51L337.78 129.82M337.78 129.82L340.57 125.32M340.57 125.32L343.67 121.04M343.67 121.04L347.09 117M347.09 117L350.8 113.22M350.8 113.22L354.77 109.73M354.77 109.73L359 106.54M359 106.54L363.44 103.68M363.44 103.68L368.09 101.14M368.09 101.14L372.91 98.96M372.91 98.96L377.88 97.14M377.88 97.14L382.97 95.69M382.97 95.69L388.15 94.63M388.15 94.63L393.39 93.94M393.39 93.94L398.68 93.65M398.68 93.65L403.97 93.75M403.97 93.75L409.24 94.24M409.24 94.24L414.45 95.11M414.45 95.11L419.59 96.37M419.59 96.37L424.62 98.01M424.62 98.01L429.52 100.01M429.52 100.01L434.26 102.37M434.26 102.37L438.81 105.07M438.81 105.07L443.14 108.1M443.14 108.1L447.25 111.44M447.25 111.44L451.09 115.08M451.09 115.08L454.65 118.99M454.65 118.99L457.92 123.15M457.92 123.15L460.87 127.54M460.87 127.54L463.49 132.14M463.49 132.14L465.76 136.92M465.76 136.92L467.67 141.85M467.67 141.85L469.21 146.91M469.21 146.91L470.37 152.08M470.37 152.08L471.15 157.31M471.15 157.31L471.54 162.59M471.54 162.59L471.54 167.88M471.54 167.88L471.15 173.15M471.15 173.15L470.37 178.39M470.37 178.39L469.21 183.55M469.21 183.55L467.67 188.61M467.67 188.61L465.76 193.54M465.76 193.54L463.49 198.32M463.49 198.32L460.87 202.92M460.87 202.92L457.92 207.31M457.92 207.31L454.65 211.47M454.65 211.47L451.09 215.38M451.09 215.38L447.25 219.02M447.25 219.02L443.14 222.36M443.14 222.36L438.81 225.39M438.81 225.39L434.26 228.09M434.26 228.09L429.52 230.45M429.52 230.45L424.62 232.46M424.62 232.46L419.59 234.09M419.59 234.09L414.45 235.35M414.45 235.35L409.24 236.23M409.24 236.23L403.97 236.71M403.97 236.71L398.68 236.81M398.68 236.81L393.39 236.52M393.39 236.52L388.15 235.84M388.15 235.84L382.97 234.77M382.97 234.77L377.88 233.32M377.88 233.32L372.91 231.5M372.91 231.5L368.09 229.32M368.09 229.32L363.44 226.79M363.44 226.79L359 223.92M359 223.92L354.77 220.73M354.77 220.73L350.8 217.24M350.8 217.24L347.09 213.46M347.09 213.46L343.67 209.42M343.67 209.42L340.57 205.14M340.57 205.14L337.78 200.64M337.78 200.64L335.33 195.95M335.33 195.95L333.24 191.09M333.24 191.09L331.51 186.09M331.51 186.09L330.16 180.98M330.16 180.98L329.19 175.78M329.19 175.78L328.6 170.52M328.6 170.52L328.41 165.23"
     fill="none"
     stroke="black"
     stroke-width="0.5"
     id="path16"
     style="stroke-width:2;stroke-dasharray:none" />
  <path
     d="M450.62 215.85L349.38 114.61"
     fill="none"
     stroke="black"
     stroke-width="0.5"
     id="path18"
     style="stroke-width:2;stroke-dasharray:none" />
  <path
     d="M349.38 215.85L450.62 114.61"
     fill="none"
     stroke="black"
     stroke-width="0.5"
     id="path20"
     style="stroke-width:2;stroke-dasharray:none" />
  <path
     d="M400 236.82L400 370.38"
     fill="none"
     stroke="black"
     stroke-width="0.5"
     id="path22"
     style="stroke-width:2;stroke-dasharray:none" />
  <path
     d="M304.54 370.38L495.46 370.38"
     fill="none"
     stroke="black"
     stroke-width="0.5"
     id="path24"
     style="stroke-width:2;stroke-dasharray:none" />
  <path
     d="M304.54 406.17L495.46 406.17"
     fill="none"
     stroke="black"
     stroke-width="0.5"
     id="path26"
     style="stroke-width:2;stroke-dasharray:none" />
  <path
     d="M400 370.38L400 292.82"
     fill="none"
     stroke="black"
     stroke-width="0.5"
     id="path28"
     style="stroke-width:2;stroke-dasharray:none" />
  <path
     d="M400 406.17L400 483.73"
     fill="none"
     stroke="black"
     stroke-width="0.5"
     id="path30"
     style="stroke-width:2;stroke-dasharray:none" />
  <path
     d="M400 406.17L400 550.57"
     fill="none"
     stroke="black"
     stroke-width="0.5"
     id="path32"
     style="stroke-width:2;stroke-dasharray:none" />
</svg>
