<?xml version="1.0" encoding="UTF-8" standalone="no"?>
<svg
   width="800.000"
   height="600.000"
   viewBox="0.0 0.0 800.000 600.000"
   version="1.1"
   id="svg64"
   sodipodi:docname="ZeroSequenceCurrentTransformer.svg"
   inkscape:version="1.2.2 (732a01da63, 2022-12-09)"
   xmlns:inkscape="http://www.inkscape.org/namespaces/inkscape"
   xmlns:sodipodi="http://sodipodi.sourceforge.net/DTD/sodipodi-0.dtd"
   xmlns="http://www.w3.org/2000/svg"
   xmlns:svg="http://www.w3.org/2000/svg">
  <defs
     id="defs68" />
  <sodipodi:namedview
     id="namedview66"
     pagecolor="#505050"
     bordercolor="#eeeeee"
     borderopacity="1"
     inkscape:showpageshadow="0"
     inkscape:pageopacity="0"
     inkscape:pagecheckerboard="0"
     inkscape:deskcolor="#505050"
     showgrid="false"
     inkscape:zoom="1.1914749"
     inkscape:cx="-138.90347"
     inkscape:cy="303.82511"
     inkscape:window-width="2560"
     inkscape:window-height="1369"
     inkscape:window-x="-8"
     inkscape:window-y="-8"
     inkscape:window-maximized="1"
     inkscape:current-layer="svg64" />
  <title
     id="title2">Produce by Acme CAD Converter</title>
  <desc
     id="desc4">Produce by Acme CAD Converter</desc>
  <path
     d="M385.08 598.3L385.08 1.7"
     fill="none"
     stroke="black"
     stroke-width="0.5"
     id="path50"
     style="stroke-width:4;stroke-dasharray:none" />
  <path
     d="M325.42 121.02L319.45 121.22M319.45 121.22L313.5 121.82M313.5 121.82L307.6 122.81M307.6 122.81L301.78 124.2M301.78 124.2L296.07 125.97M296.07 125.97L290.49 128.12M290.49 128.12L285.06 130.64M285.06 130.64L279.82 133.51M279.82 133.51L274.78 136.73M274.78 136.73L269.96 140.28M269.96 140.28L265.4 144.14M265.4 144.14L261.1 148.3M261.1 148.3L257.08 152.73M257.08 152.73L253.38 157.43M253.38 157.43L249.99 162.36M249.99 162.36L246.95 167.5M246.95 167.5L244.25 172.84M244.25 172.84L241.91 178.35M241.91 178.35L239.95 184M239.95 184L238.37 189.76M238.37 189.76L237.18 195.62M237.18 195.62L236.38 201.55M236.38 201.55L235.98 207.52M235.98 207.52L235.98 213.5M235.98 213.5L236.38 219.47M236.38 219.47L237.18 225.39M237.18 225.39L238.37 231.26M238.37 231.26L239.95 237.02M239.95 237.02L241.91 242.67M241.91 242.67L244.25 248.18M244.25 248.18L246.95 253.52M246.95 253.52L249.99 258.66M249.99 258.66L253.38 263.59M253.38 263.59L257.08 268.29M257.08 268.29L261.1 272.72M261.1 272.72L265.4 276.88M265.4 276.88L269.96 280.74M269.96 280.74L274.78 284.29M274.78 284.29L279.82 287.51M279.82 287.51L285.06 290.38M285.06 290.38L290.49 292.9M290.49 292.9L296.07 295.05M296.07 295.05L301.78 296.82M301.78 296.82L307.6 298.21M307.6 298.21L313.5 299.2M313.5 299.2L319.45 299.8M319.45 299.8L325.42 300"
     fill="none"
     stroke="black"
     stroke-width="0.5"
     id="path52"
     style="stroke-width:4;stroke-dasharray:none" />
  <path
     d="M325.42 121.02L564.07 121.02"
     fill="none"
     stroke="black"
     stroke-width="0.5"
     id="path54"
     style="stroke-width:4;stroke-dasharray:none" />
  <path
     d="M355.25 31.53L355.45 28.13M355.45 28.13L356.03 24.77M356.03 24.77L356.99 21.5M356.99 21.5L358.32 18.37M358.32 18.37L359.99 15.4M359.99 15.4L361.99 12.65M361.99 12.65L364.3 10.14M364.3 10.14L366.87 7.91M366.87 7.91L369.68 5.98M369.68 5.98L372.69 4.39M372.69 4.39L375.87 3.16M375.87 3.16L379.16 2.29M379.16 2.29L382.53 1.81M382.53 1.81L385.94 1.71M385.94 1.71L389.33 2M389.33 2L392.67 2.68M392.67 2.68L395.91 3.73M395.91 3.73L399.01 5.15M399.01 5.15L401.92 6.9M401.92 6.9L404.62 8.98M404.62 8.98L407.06 11.36M407.06 11.36L409.22 13.99M409.22 13.99L411.06 16.86M411.06 16.86L412.56 19.92M412.56 19.92L413.71 23.12M413.71 23.12L414.48 26.44M414.48 26.44L414.87 29.83M414.87 29.83L414.87 33.23M414.87 33.23L414.48 36.61M414.48 36.61L413.71 39.93M413.71 39.93L412.56 43.14M412.56 43.14L411.06 46.2M411.06 46.2L409.22 49.06M409.22 49.06L407.06 51.7M407.06 51.7L404.62 54.07M404.62 54.07L401.92 56.15M401.92 56.15L399.01 57.91M399.01 57.91L395.91 59.33M395.91 59.33L392.67 60.38M392.67 60.38L389.33 61.05M389.33 61.05L385.94 61.35M385.94 61.35L382.53 61.25M382.53 61.25L379.16 60.76M379.16 60.76L375.87 59.9M375.87 59.9L372.69 58.66M372.69 58.66L369.68 57.07M369.68 57.07L366.87 55.15M366.87 55.15L364.3 52.92M364.3 52.92L361.99 50.41M361.99 50.41L359.99 47.66M359.99 47.66L358.32 44.69M358.32 44.69L356.99 41.55M356.99 41.55L356.03 38.28M356.03 38.28L355.45 34.93M355.45 34.93L355.25 31.53"
     fill="none"
     stroke="black"
     stroke-width="0.5"
     id="path56"
     style="stroke-width:4;stroke-dasharray:none" />
  <path
     d="M325.42 478.98L564.07 478.98"
     fill="none"
     stroke="black"
     stroke-width="0.5"
     id="path58"
     style="stroke-width:4;stroke-dasharray:none" />
  <path
     d="M325.42 300L319.45 300.2M319.45 300.2L313.5 300.8M313.5 300.8L307.6 301.79M307.6 301.79L301.78 303.18M301.78 303.18L296.07 304.95M296.07 304.95L290.49 307.1M290.49 307.1L285.06 309.62M285.06 309.62L279.82 312.49M279.82 312.49L274.78 315.71M274.78 315.71L269.96 319.26M269.96 319.26L265.4 323.12M265.4 323.12L261.1 327.28M261.1 327.28L257.08 331.71M257.08 331.71L253.38 336.41M253.38 336.41L249.99 341.34M249.99 341.34L246.95 346.48M246.95 346.48L244.25 351.82M244.25 351.82L241.91 357.33M241.91 357.33L239.95 362.98M239.95 362.98L238.37 368.74M238.37 368.74L237.18 374.61M237.18 374.61L236.38 380.53M236.38 380.53L235.98 386.5M235.98 386.5L235.98 392.48M235.98 392.48L236.38 398.45M236.38 398.45L237.18 404.38M237.18 404.38L238.37 410.24M238.37 410.24L239.95 416M239.95 416L241.91 421.65M241.91 421.65L244.25 427.16M244.25 427.16L246.95 432.5M246.95 432.5L249.99 437.64M249.99 437.64L253.38 442.57M253.38 442.57L257.08 447.27M257.08 447.27L261.1 451.7M261.1 451.7L265.4 455.86M265.4 455.86L269.96 459.72M269.96 459.72L274.78 463.27M274.78 463.27L279.82 466.49M279.82 466.49L285.06 469.36M285.06 469.36L290.49 471.88M290.49 471.88L296.07 474.03M296.07 474.03L301.78 475.8M301.78 475.8L307.6 477.19M307.6 477.19L313.5 478.18M313.5 478.18L319.45 478.78M319.45 478.78L325.42 478.98"
     fill="none"
     stroke="black"
     stroke-width="0.5"
     id="path60"
     style="stroke-width:4;stroke-dasharray:none" />
  <path
     d="M355.25 568.47L355.45 565.07M355.45 565.07L356.03 561.72M356.03 561.72L356.99 558.45M356.99 558.45L358.32 555.31M358.32 555.31L359.99 552.34M359.99 552.34L361.99 549.59M361.99 549.59L364.3 547.08M364.3 547.08L366.87 544.85M366.87 544.85L369.68 542.93M369.68 542.93L372.69 541.34M372.69 541.34L375.87 540.1M375.87 540.1L379.16 539.24M379.16 539.24L382.53 538.75M382.53 538.75L385.94 538.65M385.94 538.65L389.33 538.95M389.33 538.95L392.67 539.62M392.67 539.62L395.91 540.67M395.91 540.67L399.01 542.09M399.01 542.09L401.92 543.85M401.92 543.85L404.62 545.93M404.62 545.93L407.06 548.3M407.06 548.3L409.22 550.94M409.22 550.94L411.06 553.8M411.06 553.8L412.56 556.86M412.56 556.86L413.71 560.07M413.71 560.07L414.48 563.39M414.48 563.39L414.87 566.77M414.87 566.77L414.87 570.17M414.87 570.17L414.48 573.56M414.48 573.56L413.71 576.88M413.71 576.88L412.56 580.08M412.56 580.08L411.06 583.14M411.06 583.14L409.22 586.01M409.22 586.01L407.06 588.64M407.06 588.64L404.62 591.02M404.62 591.02L401.92 593.1M401.92 593.1L399.01 594.85M399.01 594.85L395.91 596.27M395.91 596.27L392.67 597.32M392.67 597.32L389.33 598M389.33 598L385.94 598.29M385.94 598.29L382.53 598.19M382.53 598.19L379.16 597.71M379.16 597.71L375.87 596.84M375.87 596.84L372.69 595.61M372.69 595.61L369.68 594.02M369.68 594.02L366.87 592.09M366.87 592.09L364.3 589.86M364.3 589.86L361.99 587.35M361.99 587.35L359.99 584.6M359.99 584.6L358.32 581.63M358.32 581.63L356.99 578.5M356.99 578.5L356.03 575.23M356.03 575.23L355.45 571.87M355.45 571.87L355.25 568.47"
     fill="none"
     stroke="black"
     stroke-width="0.5"
     id="path62"
     style="stroke-width:4;stroke-dasharray:none" />
</svg>
