<svg width="800" height="600" viewBox="0 0 800 600" fill="none" xmlns="http://www.w3.org/2000/svg">
<path d="M396.7 598.3V1.69995" stroke="black" stroke-width="4"/>
<path fill-rule="evenodd" clip-rule="evenodd" d="M689.11 30.65V24.83L689.02 24.9L689.11 30.65Z" fill="#0000FF"/>
<path fill-rule="evenodd" clip-rule="evenodd" d="M689.11 30.65L693.48 33.99L689.11 24.83V30.65Z" fill="#0000FF"/>
<path fill-rule="evenodd" clip-rule="evenodd" d="M693.48 33.99V21.27L689.11 24.83L693.48 33.99Z" fill="#0000FF"/>
<path fill-rule="evenodd" clip-rule="evenodd" d="M693.48 33.99L693.68 34.15L693.48 21.27V33.99Z" fill="#0000FF"/>
<path fill-rule="evenodd" clip-rule="evenodd" d="M693.68 34.15V21.31L693.48 21.27L693.68 34.15Z" fill="#0000FF"/>
<path fill-rule="evenodd" clip-rule="evenodd" d="M693.68 34.1501L699.09 32.7701L693.68 21.3101V34.1501Z" fill="#0000FF"/>
<path fill-rule="evenodd" clip-rule="evenodd" d="M699.09 32.7701V22.5101L693.68 21.3101L699.09 32.7701Z" fill="#0000FF"/>
<path fill-rule="evenodd" clip-rule="evenodd" d="M699.09 32.77L699.25 32.73L699.09 22.51V32.77Z" fill="#0000FF"/>
<path fill-rule="evenodd" clip-rule="evenodd" d="M699.25 32.73V22.84L699.09 22.51L699.25 32.73Z" fill="#0000FF"/>
<path fill-rule="evenodd" clip-rule="evenodd" d="M699.25 32.73L701.6 27.68L699.25 22.84V32.73Z" fill="#0000FF"/>
<path fill-rule="evenodd" clip-rule="evenodd" d="M689.83 578.26V571.12L688.59 576.74L689.83 578.26Z" fill="#0000FF"/>
<path fill-rule="evenodd" clip-rule="evenodd" d="M689.83 578.26L692.22 581.19L689.83 571.12V578.26Z" fill="#0000FF"/>
<path fill-rule="evenodd" clip-rule="evenodd" d="M692.22 581.19V569.96L689.83 571.12L692.22 581.19Z" fill="#0000FF"/>
<path fill-rule="evenodd" clip-rule="evenodd" d="M692.22 581.19L695 581.15L692.22 569.96V581.19Z" fill="#0000FF"/>
<path fill-rule="evenodd" clip-rule="evenodd" d="M695 581.15V568.62L692.22 569.96L695 581.15Z" fill="#0000FF"/>
<path fill-rule="evenodd" clip-rule="evenodd" d="M695 581.15L697.97 581.11L695 568.62V581.15Z" fill="#0000FF"/>
<path fill-rule="evenodd" clip-rule="evenodd" d="M697.97 581.11V569.65L695 568.62L697.97 581.11Z" fill="#0000FF"/>
<path fill-rule="evenodd" clip-rule="evenodd" d="M697.97 581.11L699.09 579.64L697.97 569.65V581.11Z" fill="#0000FF"/>
<path fill-rule="evenodd" clip-rule="evenodd" d="M699.09 579.64V570.04L697.97 569.65L699.09 579.64Z" fill="#0000FF"/>
<path fill-rule="evenodd" clip-rule="evenodd" d="M699.09 579.64L701.47 576.54L699.09 570.04V579.64Z" fill="#0000FF"/>
<path fill-rule="evenodd" clip-rule="evenodd" d="M701.47 576.54V574.94L699.09 570.04L701.47 576.54Z" fill="#0000FF"/>
<path fill-rule="evenodd" clip-rule="evenodd" d="M701.47 576.54L701.6 575.21L701.47 574.94V576.54Z" fill="#0000FF"/>
<path d="M695 598.3V4.59998" stroke="black" stroke-width="4"/>
<path d="M681.81 47.47L679.12 47.66L676.47 48.21L673.93 49.11L671.53 50.36L669.32 51.91L667.35 53.76L665.64 55.85L664.24 58.16L663.16 60.64L662.43 63.24L662.07 65.91V68.62L662.43 71.29L663.16 73.89L664.24 76.37L665.64 78.68L667.35 80.77L669.32 82.62L671.53 84.17L673.93 85.42L676.47 86.32L679.12 86.87L681.81 87.05" stroke="black" stroke-width="4"/>
<path d="M681.81 47.47H734.58" stroke="black" stroke-width="4"/>
<path d="M688.41 27.68L688.6 26.11ZM688.6 26.11L689.16 24.62ZM689.16 24.62L690.07 23.31ZM690.07 23.31L691.26 22.26ZM691.26 22.26L692.66 21.52ZM692.66 21.52L694.21 21.14ZM694.21 21.14H695.8ZM695.8 21.14L697.34 21.52ZM697.34 21.52L698.75 22.26ZM698.75 22.26L699.94 23.31ZM699.94 23.31L700.85 24.62ZM700.85 24.62L701.41 26.11ZM701.41 26.11L701.6 27.68ZM701.6 27.68L701.41 29.26ZM701.41 29.26L700.85 30.75ZM700.85 30.75L699.94 32.06ZM699.94 32.06L698.75 33.11ZM698.75 33.11L697.34 33.85ZM697.34 33.85L695.8 34.23ZM695.8 34.23H694.21ZM694.21 34.23L692.66 33.85ZM692.66 33.85L691.26 33.11ZM691.26 33.11L690.07 32.06ZM690.07 32.06L689.16 30.75ZM689.16 30.75L688.6 29.26ZM688.6 29.26L688.41 27.68Z" stroke="black" stroke-width="4"/>
<path d="M681.81 126.64H734.58" stroke="black" stroke-width="4"/>
<path d="M681.81 87.05L679.12 87.24L676.47 87.79L673.93 88.69L671.53 89.94L669.32 91.49L667.35 93.34L665.64 95.43L664.24 97.74L663.16 100.22L662.43 102.82L662.07 105.49V108.2L662.43 110.87L663.16 113.47L664.24 115.95L665.64 118.26L667.35 120.35L669.32 122.2L671.53 123.75L673.93 125L676.47 125.9L679.12 126.45L681.81 126.64" stroke="black" stroke-width="4"/>
<path d="M681.81 133.23L679.12 133.42L676.47 133.97L673.93 134.87L671.53 136.11L669.32 137.67L667.35 139.51L665.64 141.61L664.24 143.92L663.16 146.39L662.43 149L662.07 151.67V154.37L662.43 157.05L663.16 159.65L664.24 162.13L665.64 164.43L667.35 166.53L669.32 168.37L671.53 169.93L673.93 171.17L676.47 172.08L679.12 172.63L681.81 172.81" stroke="black" stroke-width="4"/>
<path d="M681.81 133.23H734.58" stroke="black" stroke-width="4"/>
<path d="M681.81 212.39H734.58" stroke="black" stroke-width="4"/>
<path d="M681.81 172.81L679.12 173L676.47 173.55L673.93 174.45L671.53 175.69L669.32 177.25L667.35 179.09L665.64 181.19L664.24 183.5L663.16 185.98L662.43 188.58L662.07 191.25V193.95L662.43 196.63L663.16 199.23L664.24 201.71L665.64 204.02L667.35 206.11L669.32 207.95L671.53 209.51L673.93 210.75L676.47 211.66L679.12 212.21L681.81 212.39" stroke="black" stroke-width="4"/>
<path d="M681.81 218.99L679.12 219.17L676.47 219.72L673.93 220.63L671.53 221.87L669.32 223.43L667.35 225.27L665.64 227.37L664.24 229.68L663.16 232.15L662.43 234.75L662.07 237.43V240.13L662.43 242.81L663.16 245.41L664.24 247.88L665.64 250.19L667.35 252.29L669.32 254.13L671.53 255.69L673.93 256.93L676.47 257.84L679.12 258.39L681.81 258.57" stroke="black" stroke-width="4"/>
<path d="M681.81 218.99H734.58" stroke="black" stroke-width="4"/>
<path d="M681.81 298.15H734.58" stroke="black" stroke-width="4"/>
<path d="M681.81 258.57L679.12 258.75L676.47 259.3L673.93 260.21L671.53 261.45L669.32 263.01L667.35 264.85L665.64 266.95L664.24 269.26L663.16 271.73L662.43 274.33L662.07 277.01V279.71L662.43 282.39L663.16 284.99L664.24 287.47L665.64 289.77L667.35 291.87L669.32 293.71L671.53 295.27L673.93 296.51L676.47 297.42L679.12 297.97L681.81 298.15" stroke="black" stroke-width="4"/>
<path d="M681.81 304.75L679.12 304.93L676.47 305.48L673.93 306.39L671.53 307.63L669.32 309.19L667.35 311.03L665.64 313.12L664.24 315.43L663.16 317.91L662.43 320.51L662.07 323.19V325.89L662.43 328.56L663.16 331.16L664.24 333.64L665.64 335.95L667.35 338.05L669.32 339.89L671.53 341.45L673.93 342.69L676.47 343.59L679.12 344.14L681.81 344.33" stroke="black" stroke-width="4"/>
<path d="M681.81 304.75H734.58" stroke="black" stroke-width="4"/>
<path d="M681.81 383.91H734.58" stroke="black" stroke-width="4"/>
<path d="M681.81 344.33L679.12 344.51L676.47 345.06L673.93 345.97L671.53 347.21L669.32 348.77L667.35 350.61L665.64 352.71L664.24 355.01L663.16 357.49L662.43 360.09L662.07 362.77V365.47L662.43 368.14L663.16 370.75L664.24 373.22L665.64 375.53L667.35 377.63L669.32 379.47L671.53 381.03L673.93 382.27L676.47 383.17L679.12 383.72L681.81 383.91" stroke="black" stroke-width="4"/>
<path d="M681.81 390.5L679.12 390.69L676.47 391.24L673.93 392.14L671.53 393.39L669.32 394.94L667.35 396.79L665.64 398.88L664.24 401.19L663.16 403.67L662.43 406.27L662.07 408.94V411.65L662.43 414.32L663.16 416.92L664.24 419.4L665.64 421.71L667.35 423.8L669.32 425.65L671.53 427.2L673.93 428.45L676.47 429.35L679.12 429.9L681.81 430.09" stroke="black" stroke-width="4"/>
<path d="M681.81 390.5H734.58" stroke="black" stroke-width="4"/>
<path d="M681.81 469.67H734.58" stroke="black" stroke-width="4"/>
<path d="M681.81 430.09L679.12 430.27L676.47 430.82L673.93 431.72L671.53 432.97L669.32 434.52L667.35 436.37L665.64 438.46L664.24 440.77L663.16 443.25L662.43 445.85L662.07 448.53V451.23L662.43 453.9L663.16 456.5L664.24 458.98L665.64 461.29L667.35 463.38L669.32 465.23L671.53 466.78L673.93 468.03L676.47 468.93L679.12 469.48L681.81 469.67" stroke="black" stroke-width="4"/>
<path d="M688.41 575.21L688.6 573.63ZM688.6 573.63L689.16 572.15ZM689.16 572.15L690.07 570.84ZM690.07 570.84L691.26 569.78ZM691.26 569.78L692.66 569.05ZM692.66 569.05L694.21 568.67ZM694.21 568.67H695.8ZM695.8 568.67L697.34 569.05ZM697.34 569.05L698.75 569.78ZM698.75 569.78L699.94 570.84ZM699.94 570.84L700.85 572.15ZM700.85 572.15L701.41 573.63ZM701.41 573.63L701.6 575.21ZM701.6 575.21L701.41 576.79ZM701.41 576.79L700.85 578.28ZM700.85 578.28L699.94 579.59ZM699.94 579.59L698.75 580.64ZM698.75 580.64L697.34 581.38ZM697.34 581.38L695.8 581.76ZM695.8 581.76H694.21ZM694.21 581.76L692.66 581.38ZM692.66 581.38L691.26 580.64ZM691.26 580.64L690.07 579.59ZM690.07 579.59L689.16 578.28ZM689.16 578.28L688.6 576.79ZM688.6 576.79L688.41 575.21Z" stroke="black" stroke-width="4"/>
<path d="M681.81 476.26L679.12 476.45L676.47 477L673.93 477.9L671.53 479.14L669.32 480.7L667.35 482.54L665.64 484.64L664.24 486.95L663.16 489.43L662.43 492.03L662.07 494.7V497.4L662.43 500.08L663.16 502.68L664.24 505.16L665.64 507.47L667.35 509.56L669.32 511.4L671.53 512.96L673.93 514.2L676.47 515.11L679.12 515.66L681.81 515.84" stroke="black" stroke-width="4"/>
<path d="M681.81 476.26H734.58" stroke="black" stroke-width="4"/>
<path d="M681.81 555.42H734.58" stroke="black" stroke-width="4"/>
<path d="M681.81 515.84L679.12 516.03L676.47 516.58L673.93 517.48L671.53 518.72L669.32 520.28L667.35 522.13L665.64 524.22L664.24 526.53L663.16 529.01L662.43 531.61L662.07 534.28V536.98L662.43 539.66L663.16 542.26L664.24 544.74L665.64 547.05L667.35 549.14L669.32 550.98L671.53 552.54L673.93 553.79L676.47 554.69L679.12 555.24L681.81 555.42" stroke="black" stroke-width="4"/>
<path fill-rule="evenodd" clip-rule="evenodd" d="M390.81 30.65V24.83L390.72 24.9L390.81 30.65Z" fill="#0000FF"/>
<path fill-rule="evenodd" clip-rule="evenodd" d="M390.81 30.65L395.18 33.99L390.81 24.83V30.65Z" fill="#0000FF"/>
<path fill-rule="evenodd" clip-rule="evenodd" d="M395.18 33.99V21.27L390.81 24.83L395.18 33.99Z" fill="#0000FF"/>
<path fill-rule="evenodd" clip-rule="evenodd" d="M395.18 33.99L395.38 34.15L395.18 21.27V33.99Z" fill="#0000FF"/>
<path fill-rule="evenodd" clip-rule="evenodd" d="M395.38 34.15V21.31L395.18 21.27L395.38 34.15Z" fill="#0000FF"/>
<path fill-rule="evenodd" clip-rule="evenodd" d="M395.38 34.1501L400.79 32.7701L395.38 21.3101V34.1501Z" fill="#0000FF"/>
<path fill-rule="evenodd" clip-rule="evenodd" d="M400.79 32.7701V22.5101L395.38 21.3101L400.79 32.7701Z" fill="#0000FF"/>
<path fill-rule="evenodd" clip-rule="evenodd" d="M400.79 32.77L400.95 32.73L400.79 22.51V32.77Z" fill="#0000FF"/>
<path fill-rule="evenodd" clip-rule="evenodd" d="M400.95 32.73V22.84L400.79 22.51L400.95 32.73Z" fill="#0000FF"/>
<path fill-rule="evenodd" clip-rule="evenodd" d="M400.95 32.73L403.3 27.68L400.95 22.84V32.73Z" fill="#0000FF"/>
<path fill-rule="evenodd" clip-rule="evenodd" d="M391.53 578.26V571.12L390.28 576.74L391.53 578.26Z" fill="#0000FF"/>
<path fill-rule="evenodd" clip-rule="evenodd" d="M391.53 578.26L393.92 581.19L391.53 571.12V578.26Z" fill="#0000FF"/>
<path fill-rule="evenodd" clip-rule="evenodd" d="M393.92 581.19V569.96L391.53 571.12L393.92 581.19Z" fill="#0000FF"/>
<path fill-rule="evenodd" clip-rule="evenodd" d="M393.92 581.19L396.7 581.15L393.92 569.96V581.19Z" fill="#0000FF"/>
<path fill-rule="evenodd" clip-rule="evenodd" d="M396.7 581.15V568.62L393.92 569.96L396.7 581.15Z" fill="#0000FF"/>
<path fill-rule="evenodd" clip-rule="evenodd" d="M396.7 581.15L399.67 581.11L396.7 568.62V581.15Z" fill="#0000FF"/>
<path fill-rule="evenodd" clip-rule="evenodd" d="M399.67 581.11V569.65L396.7 568.62L399.67 581.11Z" fill="#0000FF"/>
<path fill-rule="evenodd" clip-rule="evenodd" d="M399.67 581.11L400.79 579.64L399.67 569.65V581.11Z" fill="#0000FF"/>
<path fill-rule="evenodd" clip-rule="evenodd" d="M400.79 579.64V570.04L399.67 569.65L400.79 579.64Z" fill="#0000FF"/>
<path fill-rule="evenodd" clip-rule="evenodd" d="M400.79 579.64L403.16 576.54L400.79 570.04V579.64Z" fill="#0000FF"/>
<path fill-rule="evenodd" clip-rule="evenodd" d="M403.16 576.54V574.94L400.79 570.04L403.16 576.54Z" fill="#0000FF"/>
<path fill-rule="evenodd" clip-rule="evenodd" d="M403.16 576.54L403.3 575.21L403.16 574.94V576.54Z" fill="#0000FF"/>
<path d="M396.7 598.3V4.59998" stroke="black" stroke-width="4"/>
<path d="M383.51 47.47L380.81 47.66L378.17 48.21L375.62 49.11L373.23 50.36L371.02 51.91L369.04 53.76L367.34 55.85L365.94 58.16L364.86 60.64L364.13 63.24L363.76 65.91V68.62L364.13 71.29L364.86 73.89L365.94 76.37L367.34 78.68L369.04 80.77L371.02 82.62L373.23 84.17L375.62 85.42L378.17 86.32L380.81 86.87L383.51 87.05" stroke="black" stroke-width="4"/>
<path d="M383.51 47.47H436.28" stroke="black" stroke-width="4"/>
<path d="M390.1 27.68L390.3 26.11ZM390.3 26.11L390.86 24.62ZM390.86 24.62L391.76 23.31ZM391.76 23.31L392.95 22.26ZM392.95 22.26L394.36 21.52ZM394.36 21.52L395.91 21.14ZM395.91 21.14H397.5ZM397.5 21.14L399.04 21.52ZM399.04 21.52L400.45 22.26ZM400.45 22.26L401.64 23.31ZM401.64 23.31L402.54 24.62ZM402.54 24.62L403.11 26.11ZM403.11 26.11L403.3 27.68ZM403.3 27.68L403.11 29.26ZM403.11 29.26L402.54 30.75ZM402.54 30.75L401.64 32.06ZM401.64 32.06L400.45 33.11ZM400.45 33.11L399.04 33.85ZM399.04 33.85L397.5 34.23ZM397.5 34.23H395.91ZM395.91 34.23L394.36 33.85ZM394.36 33.85L392.95 33.11ZM392.95 33.11L391.76 32.06ZM391.76 32.06L390.86 30.75ZM390.86 30.75L390.3 29.26ZM390.3 29.26L390.1 27.68Z" stroke="black" stroke-width="4"/>
<path d="M383.51 126.64H436.28" stroke="black" stroke-width="4"/>
<path d="M383.51 87.05L380.81 87.24L378.17 87.79L375.62 88.69L373.23 89.94L371.02 91.49L369.04 93.34L367.34 95.43L365.94 97.74L364.86 100.22L364.13 102.82L363.76 105.49V108.2L364.13 110.87L364.86 113.47L365.94 115.95L367.34 118.26L369.04 120.35L371.02 122.2L373.23 123.75L375.62 125L378.17 125.9L380.81 126.45L383.51 126.64" stroke="black" stroke-width="4"/>
<path d="M383.51 133.23L380.81 133.42L378.17 133.97L375.62 134.87L373.23 136.11L371.02 137.67L369.04 139.51L367.34 141.61L365.94 143.92L364.86 146.39L364.13 149L363.76 151.67V154.37L364.13 157.05L364.86 159.65L365.94 162.13L367.34 164.43L369.04 166.53L371.02 168.37L373.23 169.93L375.62 171.17L378.17 172.08L380.81 172.63L383.51 172.81" stroke="black" stroke-width="4"/>
<path d="M383.51 133.23H436.28" stroke="black" stroke-width="4"/>
<path d="M383.51 212.39H436.28" stroke="black" stroke-width="4"/>
<path d="M383.51 172.81L380.81 173L378.17 173.55L375.62 174.45L373.23 175.69L371.02 177.25L369.04 179.09L367.34 181.19L365.94 183.5L364.86 185.98L364.13 188.58L363.76 191.25V193.95L364.13 196.63L364.86 199.23L365.94 201.71L367.34 204.02L369.04 206.11L371.02 207.95L373.23 209.51L375.62 210.75L378.17 211.66L380.81 212.21L383.51 212.39" stroke="black" stroke-width="4"/>
<path d="M383.51 218.99L380.81 219.17L378.17 219.72L375.62 220.63L373.23 221.87L371.02 223.43L369.04 225.27L367.34 227.37L365.94 229.68L364.86 232.15L364.13 234.75L363.76 237.43V240.13L364.13 242.81L364.86 245.41L365.94 247.88L367.34 250.19L369.04 252.29L371.02 254.13L373.23 255.69L375.62 256.93L378.17 257.84L380.81 258.39L383.51 258.57" stroke="black" stroke-width="4"/>
<path d="M383.51 218.99H436.28" stroke="black" stroke-width="4"/>
<path d="M383.51 298.15H436.28" stroke="black" stroke-width="4"/>
<path d="M383.51 258.57L380.81 258.75L378.17 259.3L375.62 260.21L373.23 261.45L371.02 263.01L369.04 264.85L367.34 266.95L365.94 269.26L364.86 271.73L364.13 274.33L363.76 277.01V279.71L364.13 282.39L364.86 284.99L365.94 287.47L367.34 289.77L369.04 291.87L371.02 293.71L373.23 295.27L375.62 296.51L378.17 297.42L380.81 297.97L383.51 298.15" stroke="black" stroke-width="4"/>
<path d="M383.51 304.75L380.81 304.93L378.17 305.48L375.62 306.39L373.23 307.63L371.02 309.19L369.04 311.03L367.34 313.12L365.94 315.43L364.86 317.91L364.13 320.51L363.76 323.19V325.89L364.13 328.56L364.86 331.16L365.94 333.64L367.34 335.95L369.04 338.05L371.02 339.89L373.23 341.45L375.62 342.69L378.17 343.59L380.81 344.14L383.51 344.33" stroke="black" stroke-width="4"/>
<path d="M383.51 304.75H436.28" stroke="black" stroke-width="4"/>
<path d="M383.51 383.91H436.28" stroke="black" stroke-width="4"/>
<path d="M383.51 344.33L380.81 344.51L378.17 345.06L375.62 345.97L373.23 347.21L371.02 348.77L369.04 350.61L367.34 352.71L365.94 355.01L364.86 357.49L364.13 360.09L363.76 362.77V365.47L364.13 368.14L364.86 370.75L365.94 373.22L367.34 375.53L369.04 377.63L371.02 379.47L373.23 381.03L375.62 382.27L378.17 383.17L380.81 383.72L383.51 383.91" stroke="black" stroke-width="4"/>
<path d="M383.51 390.5L380.81 390.69L378.17 391.24L375.62 392.14L373.23 393.39L371.02 394.94L369.04 396.79L367.34 398.88L365.94 401.19L364.86 403.67L364.13 406.27L363.76 408.94V411.65L364.13 414.32L364.86 416.92L365.94 419.4L367.34 421.71L369.04 423.8L371.02 425.65L373.23 427.2L375.62 428.45L378.17 429.35L380.81 429.9L383.51 430.09" stroke="black" stroke-width="4"/>
<path d="M383.51 390.5H436.28" stroke="black" stroke-width="4"/>
<path d="M383.51 469.67H436.28" stroke="black" stroke-width="4"/>
<path d="M383.51 430.09L380.81 430.27L378.17 430.82L375.62 431.72L373.23 432.97L371.02 434.52L369.04 436.37L367.34 438.46L365.94 440.77L364.86 443.25L364.13 445.85L363.76 448.53V451.23L364.13 453.9L364.86 456.5L365.94 458.98L367.34 461.29L369.04 463.38L371.02 465.23L373.23 466.78L375.62 468.03L378.17 468.93L380.81 469.48L383.51 469.67" stroke="black" stroke-width="4"/>
<path d="M390.1 575.21L390.3 573.63ZM390.3 573.63L390.86 572.15ZM390.86 572.15L391.76 570.84ZM391.76 570.84L392.95 569.78ZM392.95 569.78L394.36 569.05ZM394.36 569.05L395.91 568.67ZM395.91 568.67H397.5ZM397.5 568.67L399.04 569.05ZM399.04 569.05L400.45 569.78ZM400.45 569.78L401.64 570.84ZM401.64 570.84L402.54 572.15ZM402.54 572.15L403.11 573.63ZM403.11 573.63L403.3 575.21ZM403.3 575.21L403.11 576.79ZM403.11 576.79L402.54 578.28ZM402.54 578.28L401.64 579.59ZM401.64 579.59L400.45 580.64ZM400.45 580.64L399.04 581.38ZM399.04 581.38L397.5 581.76ZM397.5 581.76H395.91ZM395.91 581.76L394.36 581.38ZM394.36 581.38L392.95 580.64ZM392.95 580.64L391.76 579.59ZM391.76 579.59L390.86 578.28ZM390.86 578.28L390.3 576.79ZM390.3 576.79L390.1 575.21Z" stroke="black" stroke-width="4"/>
<path d="M383.51 476.26L380.81 476.45L378.17 477L375.62 477.9L373.23 479.14L371.02 480.7L369.04 482.54L367.34 484.64L365.94 486.95L364.86 489.43L364.13 492.03L363.76 494.7V497.4L364.13 500.08L364.86 502.68L365.94 505.16L367.34 507.47L369.04 509.56L371.02 511.4L373.23 512.96L375.62 514.2L378.17 515.11L380.81 515.66L383.51 515.84" stroke="black" stroke-width="4"/>
<path d="M383.51 476.26H436.28" stroke="black" stroke-width="4"/>
<path d="M383.51 555.42H436.28" stroke="black" stroke-width="4"/>
<path d="M383.51 515.84L380.81 516.03L378.17 516.58L375.62 517.48L373.23 518.72L371.02 520.28L369.04 522.13L367.34 524.22L365.94 526.53L364.86 529.01L364.13 531.61L363.76 534.28V536.98L364.13 539.66L364.86 542.26L365.94 544.74L367.34 547.05L369.04 549.14L371.02 550.98L373.23 552.54L375.62 553.79L378.17 554.69L380.81 555.24L383.51 555.42" stroke="black" stroke-width="4"/>
<path fill-rule="evenodd" clip-rule="evenodd" d="M92.51 30.65V24.83L92.42 24.9L92.51 30.65Z" fill="#0000FF"/>
<path fill-rule="evenodd" clip-rule="evenodd" d="M92.51 30.65L96.87 33.99L92.51 24.83V30.65Z" fill="#0000FF"/>
<path fill-rule="evenodd" clip-rule="evenodd" d="M96.87 33.99V21.27L92.51 24.83L96.87 33.99Z" fill="#0000FF"/>
<path fill-rule="evenodd" clip-rule="evenodd" d="M96.87 33.99L97.08 34.15L96.87 21.27V33.99Z" fill="#0000FF"/>
<path fill-rule="evenodd" clip-rule="evenodd" d="M97.08 34.15V21.31L96.87 21.27L97.08 34.15Z" fill="#0000FF"/>
<path fill-rule="evenodd" clip-rule="evenodd" d="M97.08 34.1501L102.49 32.7701L97.08 21.3101V34.1501Z" fill="#0000FF"/>
<path fill-rule="evenodd" clip-rule="evenodd" d="M102.49 32.7701V22.5101L97.08 21.3101L102.49 32.7701Z" fill="#0000FF"/>
<path fill-rule="evenodd" clip-rule="evenodd" d="M102.49 32.77L102.65 32.73L102.49 22.51V32.77Z" fill="#0000FF"/>
<path fill-rule="evenodd" clip-rule="evenodd" d="M102.65 32.73V22.84L102.49 22.51L102.65 32.73Z" fill="#0000FF"/>
<path fill-rule="evenodd" clip-rule="evenodd" d="M102.65 32.73L105 27.68L102.65 22.84V32.73Z" fill="#0000FF"/>
<path fill-rule="evenodd" clip-rule="evenodd" d="M93.22 578.26V571.12L91.98 576.74L93.22 578.26Z" fill="#0000FF"/>
<path fill-rule="evenodd" clip-rule="evenodd" d="M93.22 578.26L95.62 581.19L93.22 571.12V578.26Z" fill="#0000FF"/>
<path fill-rule="evenodd" clip-rule="evenodd" d="M95.62 581.19V569.96L93.22 571.12L95.62 581.19Z" fill="#0000FF"/>
<path fill-rule="evenodd" clip-rule="evenodd" d="M95.62 581.19L98.4 581.15L95.62 569.96V581.19Z" fill="#0000FF"/>
<path fill-rule="evenodd" clip-rule="evenodd" d="M98.4 581.15V568.62L95.62 569.96L98.4 581.15Z" fill="#0000FF"/>
<path fill-rule="evenodd" clip-rule="evenodd" d="M98.4 581.15L101.37 581.11L98.4 568.62V581.15Z" fill="#0000FF"/>
<path fill-rule="evenodd" clip-rule="evenodd" d="M101.37 581.11V569.65L98.4 568.62L101.37 581.11Z" fill="#0000FF"/>
<path fill-rule="evenodd" clip-rule="evenodd" d="M101.37 581.11L102.49 579.64L101.37 569.65V581.11Z" fill="#0000FF"/>
<path fill-rule="evenodd" clip-rule="evenodd" d="M102.49 579.64V570.04L101.37 569.65L102.49 579.64Z" fill="#0000FF"/>
<path fill-rule="evenodd" clip-rule="evenodd" d="M102.49 579.64L104.86 576.54L102.49 570.04V579.64Z" fill="#0000FF"/>
<path fill-rule="evenodd" clip-rule="evenodd" d="M104.86 576.54V574.94L102.49 570.04L104.86 576.54Z" fill="#0000FF"/>
<path fill-rule="evenodd" clip-rule="evenodd" d="M104.86 576.54L105 575.21L104.86 574.94V576.54Z" fill="#0000FF"/>
<path d="M98.4 598.3V4.59998" stroke="black" stroke-width="4"/>
<path d="M85.21 47.47L82.51 47.66L79.87 48.21L77.32 49.11L74.92 50.36L72.72 51.91L70.74 53.76L69.04 55.85L67.63 58.16L66.56 60.64L65.83 63.24L65.46 65.91V68.62L65.83 71.29L66.56 73.89L67.63 76.37L69.04 78.68L70.74 80.77L72.72 82.62L74.92 84.17L77.32 85.42L79.87 86.32L82.51 86.87L85.21 87.05" stroke="black" stroke-width="4"/>
<path d="M85.21 47.47H137.98" stroke="black" stroke-width="4"/>
<path d="M91.8 27.68L91.99 26.11ZM91.99 26.11L92.56 24.62ZM92.56 24.62L93.46 23.31ZM93.46 23.31L94.65 22.26ZM94.65 22.26L96.06 21.52ZM96.06 21.52L97.6 21.14ZM97.6 21.14H99.19ZM99.19 21.14L100.74 21.52ZM100.74 21.52L102.15 22.26ZM102.15 22.26L103.34 23.31ZM103.34 23.31L104.24 24.62ZM104.24 24.62L104.8 26.11ZM104.8 26.11L105 27.68ZM105 27.68L104.8 29.26ZM104.8 29.26L104.24 30.75ZM104.24 30.75L103.34 32.06ZM103.34 32.06L102.15 33.11ZM102.15 33.11L100.74 33.85ZM100.74 33.85L99.19 34.23ZM99.19 34.23H97.6ZM97.6 34.23L96.06 33.85ZM96.06 33.85L94.65 33.11ZM94.65 33.11L93.46 32.06ZM93.46 32.06L92.56 30.75ZM92.56 30.75L91.99 29.26ZM91.99 29.26L91.8 27.68Z" stroke="black" stroke-width="4"/>
<path d="M85.21 126.64H137.98" stroke="black" stroke-width="4"/>
<path d="M85.21 87.05L82.51 87.24L79.87 87.79L77.32 88.69L74.92 89.94L72.72 91.49L70.74 93.34L69.04 95.43L67.63 97.74L66.56 100.22L65.83 102.82L65.46 105.49V108.2L65.83 110.87L66.56 113.47L67.63 115.95L69.04 118.26L70.74 120.35L72.72 122.2L74.92 123.75L77.32 125L79.87 125.9L82.51 126.45L85.21 126.64" stroke="black" stroke-width="4"/>
<path d="M85.21 133.23L82.51 133.42L79.87 133.97L77.32 134.87L74.92 136.11L72.72 137.67L70.74 139.51L69.04 141.61L67.63 143.92L66.56 146.39L65.83 149L65.46 151.67V154.37L65.83 157.05L66.56 159.65L67.63 162.13L69.04 164.43L70.74 166.53L72.72 168.37L74.92 169.93L77.32 171.17L79.87 172.08L82.51 172.63L85.21 172.81" stroke="black" stroke-width="4"/>
<path d="M85.21 133.23H137.98" stroke="black" stroke-width="4"/>
<path d="M85.21 212.39H137.98" stroke="black" stroke-width="4"/>
<path d="M85.21 172.81L82.51 173L79.87 173.55L77.32 174.45L74.92 175.69L72.72 177.25L70.74 179.09L69.04 181.19L67.63 183.5L66.56 185.98L65.83 188.58L65.46 191.25V193.95L65.83 196.63L66.56 199.23L67.63 201.71L69.04 204.02L70.74 206.11L72.72 207.95L74.92 209.51L77.32 210.75L79.87 211.66L82.51 212.21L85.21 212.39" stroke="black" stroke-width="4"/>
<path d="M85.21 218.99L82.51 219.17L79.87 219.72L77.32 220.63L74.92 221.87L72.72 223.43L70.74 225.27L69.04 227.37L67.63 229.68L66.56 232.15L65.83 234.75L65.46 237.43V240.13L65.83 242.81L66.56 245.41L67.63 247.88L69.04 250.19L70.74 252.29L72.72 254.13L74.92 255.69L77.32 256.93L79.87 257.84L82.51 258.39L85.21 258.57" stroke="black" stroke-width="4"/>
<path d="M85.21 218.99H137.98" stroke="black" stroke-width="4"/>
<path d="M85.21 298.15H137.98" stroke="black" stroke-width="4"/>
<path d="M85.21 258.57L82.51 258.75L79.87 259.3L77.32 260.21L74.92 261.45L72.72 263.01L70.74 264.85L69.04 266.95L67.63 269.26L66.56 271.73L65.83 274.33L65.46 277.01V279.71L65.83 282.39L66.56 284.99L67.63 287.47L69.04 289.77L70.74 291.87L72.72 293.71L74.92 295.27L77.32 296.51L79.87 297.42L82.51 297.97L85.21 298.15" stroke="black" stroke-width="4"/>
<path d="M85.21 304.75L82.51 304.93L79.87 305.48L77.32 306.39L74.92 307.63L72.72 309.19L70.74 311.03L69.04 313.12L67.63 315.43L66.56 317.91L65.83 320.51L65.46 323.19V325.89L65.83 328.56L66.56 331.16L67.63 333.64L69.04 335.95L70.74 338.05L72.72 339.89L74.92 341.45L77.32 342.69L79.87 343.59L82.51 344.14L85.21 344.33" stroke="black" stroke-width="4"/>
<path d="M85.21 304.75H137.98" stroke="black" stroke-width="4"/>
<path d="M85.21 383.91H137.98" stroke="black" stroke-width="4"/>
<path d="M85.21 344.33L82.51 344.51L79.87 345.06L77.32 345.97L74.92 347.21L72.72 348.77L70.74 350.61L69.04 352.71L67.63 355.01L66.56 357.49L65.83 360.09L65.46 362.77V365.47L65.83 368.14L66.56 370.75L67.63 373.22L69.04 375.53L70.74 377.63L72.72 379.47L74.92 381.03L77.32 382.27L79.87 383.17L82.51 383.72L85.21 383.91" stroke="black" stroke-width="4"/>
<path d="M85.21 390.5L82.51 390.69L79.87 391.24L77.32 392.14L74.92 393.39L72.72 394.94L70.74 396.79L69.04 398.88L67.63 401.19L66.56 403.67L65.83 406.27L65.46 408.94V411.65L65.83 414.32L66.56 416.92L67.63 419.4L69.04 421.71L70.74 423.8L72.72 425.65L74.92 427.2L77.32 428.45L79.87 429.35L82.51 429.9L85.21 430.09" stroke="black" stroke-width="4"/>
<path d="M85.21 390.5H137.98" stroke="black" stroke-width="4"/>
<path d="M85.21 469.67H137.98" stroke="black" stroke-width="4"/>
<path d="M85.21 430.09L82.51 430.27L79.87 430.82L77.32 431.72L74.92 432.97L72.72 434.52L70.74 436.37L69.04 438.46L67.63 440.77L66.56 443.25L65.83 445.85L65.46 448.53V451.23L65.83 453.9L66.56 456.5L67.63 458.98L69.04 461.29L70.74 463.38L72.72 465.23L74.92 466.78L77.32 468.03L79.87 468.93L82.51 469.48L85.21 469.67" stroke="black" stroke-width="4"/>
<path d="M91.8 575.21L91.99 573.63ZM91.99 573.63L92.56 572.15ZM92.56 572.15L93.46 570.84ZM93.46 570.84L94.65 569.78ZM94.65 569.78L96.06 569.05ZM96.06 569.05L97.6 568.67ZM97.6 568.67H99.19ZM99.19 568.67L100.74 569.05ZM100.74 569.05L102.15 569.78ZM102.15 569.78L103.34 570.84ZM103.34 570.84L104.24 572.15ZM104.24 572.15L104.8 573.63ZM104.8 573.63L105 575.21ZM105 575.21L104.8 576.79ZM104.8 576.79L104.24 578.28ZM104.24 578.28L103.34 579.59ZM103.34 579.59L102.15 580.64ZM102.15 580.64L100.74 581.38ZM100.74 581.38L99.19 581.76ZM99.19 581.76H97.6ZM97.6 581.76L96.06 581.38ZM96.06 581.38L94.65 580.64ZM94.65 580.64L93.46 579.59ZM93.46 579.59L92.56 578.28ZM92.56 578.28L91.99 576.79ZM91.99 576.79L91.8 575.21Z" stroke="black" stroke-width="4"/>
<path d="M85.21 476.26L82.51 476.45L79.87 477L77.32 477.9L74.92 479.14L72.72 480.7L70.74 482.54L69.04 484.64L67.63 486.95L66.56 489.43L65.83 492.03L65.46 494.7V497.4L65.83 500.08L66.56 502.68L67.63 505.16L69.04 507.47L70.74 509.56L72.72 511.4L74.92 512.96L77.32 514.2L79.87 515.11L82.51 515.66L85.21 515.84" stroke="black" stroke-width="4"/>
<path d="M85.21 476.26H137.98" stroke="black" stroke-width="4"/>
<path d="M85.21 555.42H137.98" stroke="black" stroke-width="4"/>
<path d="M85.21 515.84L82.51 516.03L79.87 516.58L77.32 517.48L74.92 518.72L72.72 520.28L70.74 522.13L69.04 524.22L67.63 526.53L66.56 529.01L65.83 531.61L65.46 534.28V536.98L65.83 539.66L66.56 542.26L67.63 544.74L69.04 547.05L70.74 549.14L72.72 550.98L74.92 552.54L77.32 553.79L79.87 554.69L82.51 555.24L85.21 555.42" stroke="black" stroke-width="4"/>
</svg>
