<svg width="800" height="600" viewBox="0 0 800 600" fill="none" xmlns="http://www.w3.org/2000/svg">
<path d="M394.06 598.3V1.69995" stroke="black" stroke-width="4"/>
<path fill-rule="evenodd" clip-rule="evenodd" d="M86.44 568.17V555.32L84.21 565.43L86.44 568.17Z" fill="#0000FF"/>
<path fill-rule="evenodd" clip-rule="evenodd" d="M86.4399 568.17L90.7499 573.45L86.4399 555.32V568.17Z" fill="#0000FF"/>
<path fill-rule="evenodd" clip-rule="evenodd" d="M90.7499 573.45V553.23L86.4399 555.32L90.7499 573.45Z" fill="#0000FF"/>
<path fill-rule="evenodd" clip-rule="evenodd" d="M90.75 573.45L95.76 573.37L90.75 553.23V573.45Z" fill="#0000FF"/>
<path fill-rule="evenodd" clip-rule="evenodd" d="M95.76 573.37V550.81L90.75 553.23L95.76 573.37Z" fill="#0000FF"/>
<path fill-rule="evenodd" clip-rule="evenodd" d="M95.76 573.37L101.1 573.28L95.76 550.81V573.37Z" fill="#0000FF"/>
<path fill-rule="evenodd" clip-rule="evenodd" d="M101.1 573.28V552.66L95.76 550.81L101.1 573.28Z" fill="#0000FF"/>
<path fill-rule="evenodd" clip-rule="evenodd" d="M101.1 573.28L103.12 570.64L101.1 552.66V573.28Z" fill="#0000FF"/>
<path fill-rule="evenodd" clip-rule="evenodd" d="M103.12 570.64V553.36L101.1 552.66L103.12 570.64Z" fill="#0000FF"/>
<path fill-rule="evenodd" clip-rule="evenodd" d="M103.12 570.64L107.39 565.06L103.12 553.36V570.64Z" fill="#0000FF"/>
<path fill-rule="evenodd" clip-rule="evenodd" d="M107.39 565.06V562.18L103.12 553.36L107.39 565.06Z" fill="#0000FF"/>
<path fill-rule="evenodd" clip-rule="evenodd" d="M107.39 565.06L107.63 562.68L107.39 562.18V565.06Z" fill="#0000FF"/>
<path fill-rule="evenodd" clip-rule="evenodd" d="M85.16 45.56V35.08L84.99 35.21L85.16 45.56Z" fill="#0000FF"/>
<path fill-rule="evenodd" clip-rule="evenodd" d="M85.16 45.56L93.02 51.57L85.16 35.08V45.56Z" fill="#0000FF"/>
<path fill-rule="evenodd" clip-rule="evenodd" d="M93.02 51.57V28.67L85.16 35.08L93.02 51.57Z" fill="#0000FF"/>
<path fill-rule="evenodd" clip-rule="evenodd" d="M93.02 51.57L93.38 51.85L93.02 28.67V51.57Z" fill="#0000FF"/>
<path fill-rule="evenodd" clip-rule="evenodd" d="M93.38 51.85V28.75L93.02 28.67L93.38 51.85Z" fill="#0000FF"/>
<path fill-rule="evenodd" clip-rule="evenodd" d="M93.38 51.85L103.12 49.37L93.38 28.75V51.85Z" fill="#0000FF"/>
<path fill-rule="evenodd" clip-rule="evenodd" d="M103.12 49.37V30.9L93.38 28.75L103.12 49.37Z" fill="#0000FF"/>
<path fill-rule="evenodd" clip-rule="evenodd" d="M103.12 49.37L103.41 49.3L103.12 30.9V49.37Z" fill="#0000FF"/>
<path fill-rule="evenodd" clip-rule="evenodd" d="M103.41 49.3V31.49L103.12 30.9L103.41 49.3Z" fill="#0000FF"/>
<path fill-rule="evenodd" clip-rule="evenodd" d="M103.41 49.3L107.63 40.22L103.41 31.49V49.3Z" fill="#0000FF"/>
<path d="M95.76 598.3V4.59998" stroke="black" stroke-width="4"/>
<path d="M72.01 75.84L68.29 76.04L64.61 76.62L61 77.58L57.52 78.92L54.2 80.61L51.07 82.64L48.18 84.99L45.54 87.63L43.19 90.52L41.16 93.65L39.47 96.97L38.13 100.45L37.17 104.06L36.59 107.74L36.39 111.46L36.59 115.19L37.17 118.87L38.13 122.47L39.47 125.95L41.16 129.27L43.19 132.4L45.54 135.3L48.18 137.94L51.07 140.28L54.2 142.31L57.52 144.01L61 145.34L64.61 146.31L68.29 146.89L72.01 147.09" stroke="black" stroke-width="4"/>
<path d="M72.01 75.84H167.01" stroke="black" stroke-width="4"/>
<path d="M107.63 40.22L107.44 38.1ZM107.44 38.1L106.88 36.05ZM106.88 36.05L105.95 34.13ZM105.95 34.13L104.7 32.41ZM104.7 32.41L103.16 30.93ZM103.16 30.93L101.39 29.76ZM101.39 29.76L99.4301 28.92ZM99.4301 28.92L97.3501 28.45ZM97.3501 28.45L95.2301 28.36ZM95.2301 28.36L93.1201 28.64ZM93.1201 28.64L91.09 29.3ZM91.09 29.3L89.2201 30.31ZM89.2201 30.31L87.5501 31.64ZM87.5501 31.64L86.1501 33.24ZM86.1501 33.24L85.0601 35.07ZM85.0601 35.07L84.3101 37.06ZM84.3101 37.06L83.9301 39.15ZM83.9301 39.15V41.28ZM83.9301 41.28L84.3101 43.38ZM84.3101 43.38L85.0601 45.37ZM85.0601 45.37L86.1501 47.2ZM86.1501 47.2L87.5501 48.8ZM87.5501 48.8L89.2201 50.13ZM89.2201 50.13L91.09 51.14ZM91.09 51.14L93.1201 51.79ZM93.1201 51.79L95.2301 52.08ZM95.2301 52.08L97.3501 51.98ZM97.3501 51.98L99.4301 51.51ZM99.4301 51.51L101.39 50.67ZM101.39 50.67L103.16 49.5ZM103.16 49.5L104.7 48.03ZM104.7 48.03L105.95 46.31ZM105.95 46.31L106.88 44.39ZM106.88 44.39L107.44 42.34ZM107.44 42.34L107.63 40.22Z" stroke="black" stroke-width="4"/>
<path d="M72.01 218.33H167.01" stroke="black" stroke-width="4"/>
<path d="M72.01 147.09L68.29 147.28L64.61 147.86L61 148.83L57.52 150.16L54.2 151.86L51.07 153.89L48.18 156.23L45.54 158.87L43.19 161.77L41.16 164.9L39.47 168.22L38.13 171.7L37.17 175.3L36.59 178.98L36.39 182.71L36.59 186.43L37.17 190.11L38.13 193.72L39.47 197.2L41.16 200.52L43.19 203.65L45.54 206.54L48.18 209.18L51.07 211.53L54.2 213.56L57.52 215.25L61 216.59L64.61 217.55L68.29 218.13L72.01 218.33" stroke="black" stroke-width="4"/>
<path d="M72.01 230.2L68.29 230.4L64.61 230.98L61 231.95L57.52 233.28L54.2 234.98L51.07 237.01L48.18 239.35L45.54 241.99L43.19 244.89L41.16 248.02L39.47 251.34L38.13 254.82L37.17 258.42L36.59 262.1L36.39 265.83L36.59 269.55L37.17 273.23L38.13 276.83L39.47 280.32L41.16 283.64L43.19 286.76L45.54 289.66L48.18 292.3L51.07 294.65L54.2 296.68L57.52 298.37L61 299.71L64.61 300.67L68.29 301.25L72.01 301.45" stroke="black" stroke-width="4"/>
<path d="M72.01 230.2H167.01" stroke="black" stroke-width="4"/>
<path d="M72.01 372.69H167.01" stroke="black" stroke-width="4"/>
<path d="M72.01 301.45L68.29 301.64L64.61 302.23L61 303.19L57.52 304.53L54.2 306.22L51.07 308.25L48.18 310.6L45.54 313.24L43.19 316.13L41.16 319.26L39.47 322.58L38.13 326.06L37.17 329.66L36.59 333.35L36.39 337.07L36.59 340.79L37.17 344.48L38.13 348.08L39.47 351.56L41.16 354.88L43.19 358.01L45.54 360.91L48.18 363.54L51.07 365.89L54.2 367.92L57.52 369.61L61 370.95L64.61 371.92L68.29 372.5L72.01 372.69" stroke="black" stroke-width="4"/>
<path d="M107.63 562.68L107.44 560.56ZM107.44 560.56L106.88 558.51ZM106.88 558.51L105.95 556.59ZM105.95 556.59L104.7 554.87ZM104.7 554.87L103.16 553.4ZM103.16 553.4L101.39 552.22ZM101.39 552.22L99.4301 551.39ZM99.4301 551.39L97.3501 550.91ZM97.3501 550.91L95.2301 550.82ZM95.2301 550.82L93.1201 551.1ZM93.1201 551.1L91.09 551.76ZM91.09 551.76L89.2201 552.77ZM89.2201 552.77L87.5501 554.1ZM87.5501 554.1L86.1501 555.7ZM86.1501 555.7L85.0601 557.53ZM85.0601 557.53L84.3101 559.52ZM84.3101 559.52L83.9301 561.62ZM83.9301 561.62V563.74ZM83.9301 563.74L84.3101 565.84ZM84.3101 565.84L85.0601 567.83ZM85.0601 567.83L86.1501 569.66ZM86.1501 569.66L87.5501 571.26ZM87.5501 571.26L89.2201 572.59ZM89.2201 572.59L91.09 573.6ZM91.09 573.6L93.1201 574.26ZM93.1201 574.26L95.2301 574.54ZM95.2301 574.54L97.3501 574.45ZM97.3501 574.45L99.4301 573.97ZM99.4301 573.97L101.39 573.14ZM101.39 573.14L103.16 571.96ZM103.16 571.96L104.7 570.49ZM104.7 570.49L105.95 568.77ZM105.95 568.77L106.88 566.85ZM106.88 566.85L107.44 564.8ZM107.44 564.8L107.63 562.68Z" stroke="black" stroke-width="4"/>
<path d="M72.01 384.57L68.29 384.76L64.61 385.35L61 386.31L57.52 387.65L54.2 389.34L51.07 391.37L48.18 393.72L45.54 396.35L43.19 399.25L41.16 402.38L39.47 405.7L38.13 409.18L37.17 412.78L36.59 416.47L36.39 420.19L36.59 423.91L37.17 427.6L38.13 431.2L39.47 434.68L41.16 438L43.19 441.13L45.54 444.03L48.18 446.66L51.07 449.01L54.2 451.04L57.52 452.73L61 454.07L64.61 455.03L68.29 455.62L72.01 455.81" stroke="black" stroke-width="4"/>
<path d="M72.01 384.57H167.01" stroke="black" stroke-width="4"/>
<path d="M72.01 527.06H167.01" stroke="black" stroke-width="4"/>
<path d="M72.01 455.81L68.29 456.01L64.61 456.59L61 457.56L57.52 458.89L54.2 460.59L51.07 462.62L48.18 464.96L45.54 467.6L43.19 470.5L41.16 473.62L39.47 476.95L38.13 480.43L37.17 484.03L36.59 487.71L36.39 491.44L36.59 495.16L37.17 498.84L38.13 502.44L39.47 505.92L41.16 509.25L43.19 512.37L45.54 515.27L48.18 517.91L51.07 520.25L54.2 522.28L57.52 523.98L61 525.31L64.61 526.28L68.29 526.86L72.01 527.06" stroke="black" stroke-width="4"/>
<path fill-rule="evenodd" clip-rule="evenodd" d="M683.05 568.17V555.32L680.81 565.43L683.05 568.17Z" fill="#0000FF"/>
<path fill-rule="evenodd" clip-rule="evenodd" d="M683.05 568.17L687.36 573.45L683.05 555.32V568.17Z" fill="#0000FF"/>
<path fill-rule="evenodd" clip-rule="evenodd" d="M687.36 573.45V553.23L683.05 555.32L687.36 573.45Z" fill="#0000FF"/>
<path fill-rule="evenodd" clip-rule="evenodd" d="M687.36 573.45L692.37 573.37L687.36 553.23V573.45Z" fill="#0000FF"/>
<path fill-rule="evenodd" clip-rule="evenodd" d="M692.37 573.37V550.81L687.36 553.23L692.37 573.37Z" fill="#0000FF"/>
<path fill-rule="evenodd" clip-rule="evenodd" d="M692.37 573.37L697.71 573.28L692.37 550.81V573.37Z" fill="#0000FF"/>
<path fill-rule="evenodd" clip-rule="evenodd" d="M697.71 573.28V552.66L692.37 550.81L697.71 573.28Z" fill="#0000FF"/>
<path fill-rule="evenodd" clip-rule="evenodd" d="M697.71 573.28L699.73 570.64L697.71 552.66V573.28Z" fill="#0000FF"/>
<path fill-rule="evenodd" clip-rule="evenodd" d="M699.73 570.64V553.36L697.71 552.66L699.73 570.64Z" fill="#0000FF"/>
<path fill-rule="evenodd" clip-rule="evenodd" d="M699.73 570.64L704 565.06L699.73 553.36V570.64Z" fill="#0000FF"/>
<path fill-rule="evenodd" clip-rule="evenodd" d="M704 565.06V562.18L699.73 553.36L704 565.06Z" fill="#0000FF"/>
<path fill-rule="evenodd" clip-rule="evenodd" d="M704 565.06L704.24 562.68L704 562.18V565.06Z" fill="#0000FF"/>
<path fill-rule="evenodd" clip-rule="evenodd" d="M681.76 45.56V35.08L681.6 35.21L681.76 45.56Z" fill="#0000FF"/>
<path fill-rule="evenodd" clip-rule="evenodd" d="M681.76 45.56L689.62 51.57L681.76 35.08V45.56Z" fill="#0000FF"/>
<path fill-rule="evenodd" clip-rule="evenodd" d="M689.62 51.57V28.67L681.76 35.08L689.62 51.57Z" fill="#0000FF"/>
<path fill-rule="evenodd" clip-rule="evenodd" d="M689.62 51.57L689.98 51.85L689.62 28.67V51.57Z" fill="#0000FF"/>
<path fill-rule="evenodd" clip-rule="evenodd" d="M689.98 51.85V28.75L689.62 28.67L689.98 51.85Z" fill="#0000FF"/>
<path fill-rule="evenodd" clip-rule="evenodd" d="M689.98 51.85L699.73 49.37L689.98 28.75V51.85Z" fill="#0000FF"/>
<path fill-rule="evenodd" clip-rule="evenodd" d="M699.73 49.37V30.9L689.98 28.75L699.73 49.37Z" fill="#0000FF"/>
<path fill-rule="evenodd" clip-rule="evenodd" d="M699.73 49.37L700.01 49.3L699.73 30.9V49.37Z" fill="#0000FF"/>
<path fill-rule="evenodd" clip-rule="evenodd" d="M700.01 49.3V31.49L699.73 30.9L700.01 49.3Z" fill="#0000FF"/>
<path fill-rule="evenodd" clip-rule="evenodd" d="M700.01 49.3L704.24 40.22L700.01 31.49V49.3Z" fill="#0000FF"/>
<path d="M692.37 598.3V4.59998" stroke="black" stroke-width="4"/>
<path d="M668.62 75.84L664.89 76.04L661.21 76.62L657.61 77.58L654.13 78.92L650.81 80.61L647.68 82.64L644.78 84.99L642.14 87.63L639.8 90.52L637.77 93.65L636.07 96.97L634.74 100.45L633.77 104.06L633.19 107.74L632.99 111.46L633.19 115.19L633.77 118.87L634.74 122.47L636.07 125.95L637.77 129.27L639.8 132.4L642.14 135.3L644.78 137.94L647.68 140.28L650.81 142.31L654.13 144.01L657.61 145.34L661.21 146.31L664.89 146.89L668.62 147.09" stroke="black" stroke-width="4"/>
<path d="M668.62 75.84H763.61" stroke="black" stroke-width="4"/>
<path d="M704.24 40.22L704.05 38.1ZM704.05 38.1L703.48 36.05ZM703.48 36.05L702.56 34.13ZM702.56 34.13L701.31 32.41ZM701.31 32.41L699.77 30.93ZM699.77 30.93L697.99 29.76ZM697.99 29.76L696.03 28.92ZM696.03 28.92L693.96 28.45ZM693.96 28.45L691.83 28.36ZM691.83 28.36L689.72 28.64ZM689.72 28.64L687.7 29.3ZM687.7 29.3L685.82 30.31ZM685.82 30.31L684.16 31.64ZM684.16 31.64L682.76 33.24ZM682.76 33.24L681.67 35.07ZM681.67 35.07L680.92 37.06ZM680.92 37.06L680.54 39.15ZM680.54 39.15V41.28ZM680.54 41.28L680.92 43.38ZM680.92 43.38L681.67 45.37ZM681.67 45.37L682.76 47.2ZM682.76 47.2L684.16 48.8ZM684.16 48.8L685.82 50.13ZM685.82 50.13L687.7 51.14ZM687.7 51.14L689.72 51.79ZM689.72 51.79L691.83 52.08ZM691.83 52.08L693.96 51.98ZM693.96 51.98L696.03 51.51ZM696.03 51.51L697.99 50.67ZM697.99 50.67L699.77 49.5ZM699.77 49.5L701.31 48.03ZM701.31 48.03L702.56 46.31ZM702.56 46.31L703.48 44.39ZM703.48 44.39L704.05 42.34ZM704.05 42.34L704.24 40.22Z" stroke="black" stroke-width="4"/>
<path d="M668.62 218.33H763.61" stroke="black" stroke-width="4"/>
<path d="M668.62 147.09L664.89 147.28L661.21 147.86L657.61 148.83L654.13 150.16L650.81 151.86L647.68 153.89L644.78 156.23L642.14 158.87L639.8 161.77L637.77 164.9L636.07 168.22L634.74 171.7L633.77 175.3L633.19 178.98L632.99 182.71L633.19 186.43L633.77 190.11L634.74 193.72L636.07 197.2L637.77 200.52L639.8 203.65L642.14 206.54L644.78 209.18L647.68 211.53L650.81 213.56L654.13 215.25L657.61 216.59L661.21 217.55L664.89 218.13L668.62 218.33" stroke="black" stroke-width="4"/>
<path d="M668.62 230.2L664.89 230.4L661.21 230.98L657.61 231.95L654.13 233.28L650.81 234.98L647.68 237.01L644.78 239.35L642.14 241.99L639.8 244.89L637.77 248.02L636.07 251.34L634.74 254.82L633.77 258.42L633.19 262.1L632.99 265.83L633.19 269.55L633.77 273.23L634.74 276.83L636.07 280.32L637.77 283.64L639.8 286.76L642.14 289.66L644.78 292.3L647.68 294.65L650.81 296.68L654.13 298.37L657.61 299.71L661.21 300.67L664.89 301.25L668.62 301.45" stroke="black" stroke-width="4"/>
<path d="M668.62 230.2H763.61" stroke="black" stroke-width="4"/>
<path d="M668.62 372.69H763.61" stroke="black" stroke-width="4"/>
<path d="M668.62 301.45L664.89 301.64L661.21 302.23L657.61 303.19L654.13 304.53L650.81 306.22L647.68 308.25L644.78 310.6L642.14 313.24L639.8 316.13L637.77 319.26L636.07 322.58L634.74 326.06L633.77 329.66L633.19 333.35L632.99 337.07L633.19 340.79L633.77 344.48L634.74 348.08L636.07 351.56L637.77 354.88L639.8 358.01L642.14 360.91L644.78 363.54L647.68 365.89L650.81 367.92L654.13 369.61L657.61 370.95L661.21 371.92L664.89 372.5L668.62 372.69" stroke="black" stroke-width="4"/>
<path d="M704.24 562.68L704.05 560.56ZM704.05 560.56L703.48 558.51ZM703.48 558.51L702.56 556.59ZM702.56 556.59L701.31 554.87ZM701.31 554.87L699.77 553.4ZM699.77 553.4L697.99 552.22ZM697.99 552.22L696.03 551.39ZM696.03 551.39L693.96 550.91ZM693.96 550.91L691.83 550.82ZM691.83 550.82L689.72 551.1ZM689.72 551.1L687.7 551.76ZM687.7 551.76L685.82 552.77ZM685.82 552.77L684.16 554.1ZM684.16 554.1L682.76 555.7ZM682.76 555.7L681.67 557.53ZM681.67 557.53L680.92 559.52ZM680.92 559.52L680.54 561.62ZM680.54 561.62V563.74ZM680.54 563.74L680.92 565.84ZM680.92 565.84L681.67 567.83ZM681.67 567.83L682.76 569.66ZM682.76 569.66L684.16 571.26ZM684.16 571.26L685.82 572.59ZM685.82 572.59L687.7 573.6ZM687.7 573.6L689.72 574.26ZM689.72 574.26L691.83 574.54ZM691.83 574.54L693.96 574.45ZM693.96 574.45L696.03 573.97ZM696.03 573.97L697.99 573.14ZM697.99 573.14L699.77 571.96ZM699.77 571.96L701.31 570.49ZM701.31 570.49L702.56 568.77ZM702.56 568.77L703.48 566.85ZM703.48 566.85L704.05 564.8ZM704.05 564.8L704.24 562.68Z" stroke="black" stroke-width="4"/>
<path d="M668.62 384.57L664.89 384.76L661.21 385.35L657.61 386.31L654.13 387.65L650.81 389.34L647.68 391.37L644.78 393.72L642.14 396.35L639.8 399.25L637.77 402.38L636.07 405.7L634.74 409.18L633.77 412.78L633.19 416.47L632.99 420.19L633.19 423.91L633.77 427.6L634.74 431.2L636.07 434.68L637.77 438L639.8 441.13L642.14 444.03L644.78 446.66L647.68 449.01L650.81 451.04L654.13 452.73L657.61 454.07L661.21 455.03L664.89 455.62L668.62 455.81" stroke="black" stroke-width="4"/>
<path d="M668.62 384.57H763.61" stroke="black" stroke-width="4"/>
<path d="M668.62 527.06H763.61" stroke="black" stroke-width="4"/>
<path d="M668.62 455.81L664.89 456.01L661.21 456.59L657.61 457.56L654.13 458.89L650.81 460.59L647.68 462.62L644.78 464.96L642.14 467.6L639.8 470.5L637.77 473.62L636.07 476.95L634.74 480.43L633.77 484.03L633.19 487.71L632.99 491.44L633.19 495.16L633.77 498.84L634.74 502.44L636.07 505.92L637.77 509.25L639.8 512.37L642.14 515.27L644.78 517.91L647.68 520.25L650.81 522.28L654.13 523.98L657.61 525.31L661.21 526.28L664.89 526.86L668.62 527.06" stroke="black" stroke-width="4"/>
<path fill-rule="evenodd" clip-rule="evenodd" d="M384.75 568.17V555.32L382.51 565.43L384.75 568.17Z" fill="#0000FF"/>
<path fill-rule="evenodd" clip-rule="evenodd" d="M384.75 568.17L389.05 573.45L384.75 555.32V568.17Z" fill="#0000FF"/>
<path fill-rule="evenodd" clip-rule="evenodd" d="M389.05 573.45V553.23L384.75 555.32L389.05 573.45Z" fill="#0000FF"/>
<path fill-rule="evenodd" clip-rule="evenodd" d="M389.05 573.45L394.06 573.37L389.05 553.23V573.45Z" fill="#0000FF"/>
<path fill-rule="evenodd" clip-rule="evenodd" d="M394.06 573.37V550.81L389.05 553.23L394.06 573.37Z" fill="#0000FF"/>
<path fill-rule="evenodd" clip-rule="evenodd" d="M394.06 573.37L399.4 573.28L394.06 550.81V573.37Z" fill="#0000FF"/>
<path fill-rule="evenodd" clip-rule="evenodd" d="M399.4 573.28V552.66L394.06 550.81L399.4 573.28Z" fill="#0000FF"/>
<path fill-rule="evenodd" clip-rule="evenodd" d="M399.4 573.28L401.42 570.64L399.4 552.66V573.28Z" fill="#0000FF"/>
<path fill-rule="evenodd" clip-rule="evenodd" d="M401.42 570.64V553.36L399.4 552.66L401.42 570.64Z" fill="#0000FF"/>
<path fill-rule="evenodd" clip-rule="evenodd" d="M401.42 570.64L405.7 565.06L401.42 553.36V570.64Z" fill="#0000FF"/>
<path fill-rule="evenodd" clip-rule="evenodd" d="M405.7 565.06V562.18L401.42 553.36L405.7 565.06Z" fill="#0000FF"/>
<path fill-rule="evenodd" clip-rule="evenodd" d="M405.7 565.06L405.94 562.68L405.7 562.18V565.06Z" fill="#0000FF"/>
<path fill-rule="evenodd" clip-rule="evenodd" d="M383.46 45.56V35.08L383.3 35.21L383.46 45.56Z" fill="#0000FF"/>
<path fill-rule="evenodd" clip-rule="evenodd" d="M383.46 45.56L391.32 51.57L383.46 35.08V45.56Z" fill="#0000FF"/>
<path fill-rule="evenodd" clip-rule="evenodd" d="M391.32 51.57V28.67L383.46 35.08L391.32 51.57Z" fill="#0000FF"/>
<path fill-rule="evenodd" clip-rule="evenodd" d="M391.32 51.57L391.68 51.85L391.32 28.67V51.57Z" fill="#0000FF"/>
<path fill-rule="evenodd" clip-rule="evenodd" d="M391.68 51.85V28.75L391.32 28.67L391.68 51.85Z" fill="#0000FF"/>
<path fill-rule="evenodd" clip-rule="evenodd" d="M391.68 51.85L401.42 49.37L391.68 28.75V51.85Z" fill="#0000FF"/>
<path fill-rule="evenodd" clip-rule="evenodd" d="M401.42 49.37V30.9L391.68 28.75L401.42 49.37Z" fill="#0000FF"/>
<path fill-rule="evenodd" clip-rule="evenodd" d="M401.42 49.37L401.71 49.3L401.42 30.9V49.37Z" fill="#0000FF"/>
<path fill-rule="evenodd" clip-rule="evenodd" d="M401.71 49.3V31.49L401.42 30.9L401.71 49.3Z" fill="#0000FF"/>
<path fill-rule="evenodd" clip-rule="evenodd" d="M401.71 49.3L405.94 40.22L401.71 31.49V49.3Z" fill="#0000FF"/>
<path d="M394.06 598.3V4.59998" stroke="black" stroke-width="4"/>
<path d="M370.31 75.84L366.59 76.04L362.91 76.62L359.31 77.58L355.83 78.92L352.5 80.61L349.38 82.64L346.48 84.99L343.84 87.63L341.5 90.52L339.46 93.65L337.77 96.97L336.44 100.45L335.47 104.06L334.89 107.74L334.69 111.46L334.89 115.19L335.47 118.87L336.44 122.47L337.77 125.95L339.46 129.27L341.5 132.4L343.84 135.3L346.48 137.94L349.38 140.28L352.5 142.31L355.83 144.01L359.31 145.34L362.91 146.31L366.59 146.89L370.31 147.09" stroke="black" stroke-width="4"/>
<path d="M370.31 75.84H465.31" stroke="black" stroke-width="4"/>
<path d="M405.94 40.22L405.75 38.1ZM405.75 38.1L405.18 36.05ZM405.18 36.05L404.26 34.13ZM404.26 34.13L403.01 32.41ZM403.01 32.41L401.47 30.93ZM401.47 30.93L399.69 29.76ZM399.69 29.76L397.73 28.92ZM397.73 28.92L395.66 28.45ZM395.66 28.45L393.53 28.36ZM393.53 28.36L391.42 28.64ZM391.42 28.64L389.4 29.3ZM389.4 29.3L387.52 30.31ZM387.52 30.31L385.86 31.64ZM385.86 31.64L384.46 33.24ZM384.46 33.24L383.36 35.07ZM383.36 35.07L382.62 37.06ZM382.62 37.06L382.24 39.15ZM382.24 39.15V41.28ZM382.24 41.28L382.62 43.38ZM382.62 43.38L383.36 45.37ZM383.36 45.37L384.46 47.2ZM384.46 47.2L385.86 48.8ZM385.86 48.8L387.52 50.13ZM387.52 50.13L389.4 51.14ZM389.4 51.14L391.42 51.79ZM391.42 51.79L393.53 52.08ZM393.53 52.08L395.66 51.98ZM395.66 51.98L397.73 51.51ZM397.73 51.51L399.69 50.67ZM399.69 50.67L401.47 49.5ZM401.47 49.5L403.01 48.03ZM403.01 48.03L404.26 46.31ZM404.26 46.31L405.18 44.39ZM405.18 44.39L405.75 42.34ZM405.75 42.34L405.94 40.22Z" stroke="black" stroke-width="4"/>
<path d="M370.31 218.33H465.31" stroke="black" stroke-width="4"/>
<path d="M370.31 147.09L366.59 147.28L362.91 147.86L359.31 148.83L355.83 150.16L352.5 151.86L349.38 153.89L346.48 156.23L343.84 158.87L341.5 161.77L339.46 164.9L337.77 168.22L336.44 171.7L335.47 175.3L334.89 178.98L334.69 182.71L334.89 186.43L335.47 190.11L336.44 193.72L337.77 197.2L339.46 200.52L341.5 203.65L343.84 206.54L346.48 209.18L349.38 211.53L352.5 213.56L355.83 215.25L359.31 216.59L362.91 217.55L366.59 218.13L370.31 218.33" stroke="black" stroke-width="4"/>
<path d="M370.31 230.2L366.59 230.4L362.91 230.98L359.31 231.95L355.83 233.28L352.5 234.98L349.38 237.01L346.48 239.35L343.84 241.99L341.5 244.89L339.46 248.02L337.77 251.34L336.44 254.82L335.47 258.42L334.89 262.1L334.69 265.83L334.89 269.55L335.47 273.23L336.44 276.83L337.77 280.32L339.46 283.64L341.5 286.76L343.84 289.66L346.48 292.3L349.38 294.65L352.5 296.68L355.83 298.37L359.31 299.71L362.91 300.67L366.59 301.25L370.31 301.45" stroke="black" stroke-width="4"/>
<path d="M370.31 230.2H465.31" stroke="black" stroke-width="4"/>
<path d="M370.31 372.69H465.31" stroke="black" stroke-width="4"/>
<path d="M370.31 301.45L366.59 301.64L362.91 302.23L359.31 303.19L355.83 304.53L352.5 306.22L349.38 308.25L346.48 310.6L343.84 313.24L341.5 316.13L339.46 319.26L337.77 322.58L336.44 326.06L335.47 329.66L334.89 333.35L334.69 337.07L334.89 340.79L335.47 344.48L336.44 348.08L337.77 351.56L339.46 354.88L341.5 358.01L343.84 360.91L346.48 363.54L349.38 365.89L352.5 367.92L355.83 369.61L359.31 370.95L362.91 371.92L366.59 372.5L370.31 372.69" stroke="black" stroke-width="4"/>
<path d="M405.94 562.68L405.75 560.56ZM405.75 560.56L405.18 558.51ZM405.18 558.51L404.26 556.59ZM404.26 556.59L403.01 554.87ZM403.01 554.87L401.47 553.4ZM401.47 553.4L399.69 552.22ZM399.69 552.22L397.73 551.39ZM397.73 551.39L395.66 550.91ZM395.66 550.91L393.53 550.82ZM393.53 550.82L391.42 551.1ZM391.42 551.1L389.4 551.76ZM389.4 551.76L387.52 552.77ZM387.52 552.77L385.86 554.1ZM385.86 554.1L384.46 555.7ZM384.46 555.7L383.36 557.53ZM383.36 557.53L382.62 559.52ZM382.62 559.52L382.24 561.62ZM382.24 561.62V563.74ZM382.24 563.74L382.62 565.84ZM382.62 565.84L383.36 567.83ZM383.36 567.83L384.46 569.66ZM384.46 569.66L385.86 571.26ZM385.86 571.26L387.52 572.59ZM387.52 572.59L389.4 573.6ZM389.4 573.6L391.42 574.26ZM391.42 574.26L393.53 574.54ZM393.53 574.54L395.66 574.45ZM395.66 574.45L397.73 573.97ZM397.73 573.97L399.69 573.14ZM399.69 573.14L401.47 571.96ZM401.47 571.96L403.01 570.49ZM403.01 570.49L404.26 568.77ZM404.26 568.77L405.18 566.85ZM405.18 566.85L405.75 564.8ZM405.75 564.8L405.94 562.68Z" stroke="black" stroke-width="4"/>
<path d="M370.31 384.57L366.59 384.76L362.91 385.35L359.31 386.31L355.83 387.65L352.5 389.34L349.38 391.37L346.48 393.72L343.84 396.35L341.5 399.25L339.46 402.38L337.77 405.7L336.44 409.18L335.47 412.78L334.89 416.47L334.69 420.19L334.89 423.91L335.47 427.6L336.44 431.2L337.77 434.68L339.46 438L341.5 441.13L343.84 444.03L346.48 446.66L349.38 449.01L352.5 451.04L355.83 452.73L359.31 454.07L362.91 455.03L366.59 455.62L370.31 455.81" stroke="black" stroke-width="4"/>
<path d="M370.31 384.57H465.31" stroke="black" stroke-width="4"/>
<path d="M370.31 527.06H465.31" stroke="black" stroke-width="4"/>
<path d="M370.31 455.81L366.59 456.01L362.91 456.59L359.31 457.56L355.83 458.89L352.5 460.59L349.38 462.62L346.48 464.96L343.84 467.6L341.5 470.5L339.46 473.62L337.77 476.95L336.44 480.43L335.47 484.03L334.89 487.71L334.69 491.44L334.89 495.16L335.47 498.84L336.44 502.44L337.77 505.92L339.46 509.25L341.5 512.37L343.84 515.27L346.48 517.91L349.38 520.25L352.5 522.28L355.83 523.98L359.31 525.31L362.91 526.28L366.59 526.86L370.31 527.06" stroke="black" stroke-width="4"/>
</svg>
