<?xml version="1.0" encoding="UTF-8"?>
<svg xmlns="http://www.w3.org/2000/svg" width="800.000" height="600.000" viewBox="0.0 0.0 800.000 600.000" version="1.1">
  <title>Produce by Acme CAD Converter</title>
  <desc>Produce by Acme CAD Converter</desc>
<path d="M395.03 598.3L395.03 1.7"
fill="none" stroke="black" stroke-width="0.5"/>
<path d="M88.92 587.98L88.92 577.22 87.05 585.69 88.92 587.98Z"
fill-rule="evenodd" fill="blue"/>
<path d="M88.92 587.98L92.53 592.4 88.92 577.22 88.92 587.98Z"
fill-rule="evenodd" fill="blue"/>
<path d="M92.53 592.4L92.53 575.48 88.92 577.22 92.53 592.4Z"
fill-rule="evenodd" fill="blue"/>
<path d="M92.53 592.4L96.73 592.34 92.53 575.48 92.53 592.4Z"
fill-rule="evenodd" fill="blue"/>
<path d="M96.73 592.34L96.73 573.44 92.53 575.48 96.73 592.34Z"
fill-rule="evenodd" fill="blue"/>
<path d="M96.73 592.34L101.2 592.27 96.73 573.44 96.73 592.34Z"
fill-rule="evenodd" fill="blue"/>
<path d="M101.2 592.27L101.2 575 96.73 573.44 101.2 592.27Z"
fill-rule="evenodd" fill="blue"/>
<path d="M101.2 592.27L102.89 590.06 101.2 575 101.2 592.27Z"
fill-rule="evenodd" fill="blue"/>
<path d="M102.89 590.06L102.89 575.59 101.2 575 102.89 590.06Z"
fill-rule="evenodd" fill="blue"/>
<path d="M102.89 590.06L106.47 585.38 102.89 575.59 102.89 590.06Z"
fill-rule="evenodd" fill="blue"/>
<path d="M106.47 585.38L106.47 582.97 102.89 575.59 106.47 585.38Z"
fill-rule="evenodd" fill="blue"/>
<path d="M106.47 585.38L106.67 583.39 106.47 582.97 106.47 585.38Z"
fill-rule="evenodd" fill="blue"/>
<path d="M87.85 21.09L87.85 12.31 87.71 12.42 87.85 21.09Z"
fill-rule="evenodd" fill="blue"/>
<path d="M87.85 21.09L94.43 26.12 87.85 12.31 87.85 21.09Z"
fill-rule="evenodd" fill="blue"/>
<path d="M94.43 26.12L94.43 6.94 87.85 12.31 94.43 26.12Z"
fill-rule="evenodd" fill="blue"/>
<path d="M94.43 26.12L94.73 26.35 94.43 6.94 94.43 26.12Z"
fill-rule="evenodd" fill="blue"/>
<path d="M94.73 26.35L94.73 7.01 94.43 6.94 94.73 26.35Z"
fill-rule="evenodd" fill="blue"/>
<path d="M94.73 26.35L102.89 24.28 94.73 7.01 94.73 26.35Z"
fill-rule="evenodd" fill="blue"/>
<path d="M102.89 24.28L102.89 8.81 94.73 7.01 102.89 24.28Z"
fill-rule="evenodd" fill="blue"/>
<path d="M102.89 24.28L103.13 24.22 102.89 8.81 102.89 24.28Z"
fill-rule="evenodd" fill="blue"/>
<path d="M103.13 24.22L103.13 9.31 102.89 8.81 103.13 24.22Z"
fill-rule="evenodd" fill="blue"/>
<path d="M103.13 24.22L106.67 16.61 103.13 9.31 103.13 24.22Z"
fill-rule="evenodd" fill="blue"/>
<path d="M96.73 598.3L96.73 1.7"
fill="none" stroke="black" stroke-width="0.5"/>
<path d="M76.84 46.44L73.5 46.63M73.5 46.63L70.2 47.19M70.2 47.19L66.99 48.12M66.99 48.12L63.9 49.4M63.9 49.4L60.97 51.02M60.97 51.02L58.24 52.95M58.24 52.95L55.75 55.18M55.75 55.18L53.52 57.67M53.52 57.67L51.58 60.4M51.58 60.4L49.96 63.33M49.96 63.33L48.68 66.42M48.68 66.42L47.76 69.64M47.76 69.64L47.2 72.93M47.2 72.93L47.01 76.27M47.01 76.27L47.2 79.61M47.2 79.61L47.76 82.91M47.76 82.91L48.68 86.13M48.68 86.13L49.96 89.22M49.96 89.22L51.58 92.14M51.58 92.14L53.52 94.87M53.52 94.87L55.75 97.37M55.75 97.37L58.24 99.6M58.24 99.6L60.97 101.53M60.97 101.53L63.9 103.15M63.9 103.15L66.99 104.43M66.99 104.43L70.2 105.36M70.2 105.36L73.5 105.92M73.5 105.92L76.84 106.1"
fill="none" stroke="black" stroke-width="0.5"/>
<path d="M76.84 46.44L156.39 46.44"
fill="none" stroke="black" stroke-width="0.5"/>
<path d="M106.67 16.61L106.48 14.67M106.48 14.67L105.91 12.81M105.91 12.81L104.99 11.09M104.99 11.09L103.76 9.58M103.76 9.58L102.25 8.35M102.25 8.35L100.53 7.43M100.53 7.43L98.67 6.86M98.67 6.86L96.73 6.67M96.73 6.67L94.79 6.86M94.79 6.86L92.92 7.43M92.92 7.43L91.2 8.35M91.2 8.35L89.69 9.58M89.69 9.58L88.46 11.09M88.46 11.09L87.54 12.81M87.54 12.81L86.97 14.67M86.97 14.67L86.78 16.61M86.78 16.61L86.97 18.55M86.97 18.55L87.54 20.42M87.54 20.42L88.46 22.14M88.46 22.14L89.69 23.64M89.69 23.64L91.2 24.88M91.2 24.88L92.92 25.8M92.92 25.8L94.79 26.37M94.79 26.37L96.73 26.56M96.73 26.56L98.67 26.37M98.67 26.37L100.53 25.8M100.53 25.8L102.25 24.88M102.25 24.88L103.76 23.64M103.76 23.64L104.99 22.14M104.99 22.14L105.91 20.42M105.91 20.42L106.48 18.55M106.48 18.55L106.67 16.61"
fill="none" stroke="black" stroke-width="0.5"/>
<path d="M76.84 165.76L156.39 165.76"
fill="none" stroke="black" stroke-width="0.5"/>
<path d="M76.84 106.1L73.5 106.29M73.5 106.29L70.2 106.85M70.2 106.85L66.99 107.78M66.99 107.78L63.9 109.06M63.9 109.06L60.97 110.68M60.97 110.68L58.24 112.61M58.24 112.61L55.75 114.84M55.75 114.84L53.52 117.33M53.52 117.33L51.58 120.06M51.58 120.06L49.96 122.99M49.96 122.99L48.68 126.08M48.68 126.08L47.76 129.3M47.76 129.3L47.2 132.59M47.2 132.59L47.01 135.93M47.01 135.93L47.2 139.27M47.2 139.27L47.76 142.57M47.76 142.57L48.68 145.79M48.68 145.79L49.96 148.88M49.96 148.88L51.58 151.8M51.58 151.8L53.52 154.53M53.52 154.53L55.75 157.03M55.75 157.03L58.24 159.26M58.24 159.26L60.97 161.19M60.97 161.19L63.9 162.81M63.9 162.81L66.99 164.09M66.99 164.09L70.2 165.02M70.2 165.02L73.5 165.58M73.5 165.58L76.84 165.76"
fill="none" stroke="black" stroke-width="0.5"/>
<path d="M76.84 175.71L73.5 175.89M73.5 175.89L70.2 176.46M70.2 176.46L66.99 177.38M66.99 177.38L63.9 178.66M63.9 178.66L60.97 180.28M60.97 180.28L58.24 182.22M58.24 182.22L55.75 184.44M55.75 184.44L53.52 186.94M53.52 186.94L51.58 189.67M51.58 189.67L49.96 192.59M49.96 192.59L48.68 195.69M48.68 195.69L47.76 198.9M47.76 198.9L47.2 202.2M47.2 202.2L47.01 205.54M47.01 205.54L47.2 208.88M47.2 208.88L47.76 212.18M47.76 212.18L48.68 215.39M48.68 215.39L49.96 218.48M49.96 218.48L51.58 221.41M51.58 221.41L53.52 224.14M53.52 224.14L55.75 226.63M55.75 226.63L58.24 228.86M58.24 228.86L60.97 230.8M60.97 230.8L63.9 232.41M63.9 232.41L66.99 233.69M66.99 233.69L70.2 234.62M70.2 234.62L73.5 235.18M73.5 235.18L76.84 235.37"
fill="none" stroke="black" stroke-width="0.5"/>
<path d="M76.84 175.71L156.39 175.71"
fill="none" stroke="black" stroke-width="0.5"/>
<path d="M76.84 295.03L156.39 295.03"
fill="none" stroke="black" stroke-width="0.5"/>
<path d="M76.84 235.37L73.5 235.56M73.5 235.56L70.2 236.12M70.2 236.12L66.99 237.04M66.99 237.04L63.9 238.32M63.9 238.32L60.97 239.94M60.97 239.94L58.24 241.88M58.24 241.88L55.75 244.1M55.75 244.1L53.52 246.6M53.52 246.6L51.58 249.33M51.58 249.33L49.96 252.26M49.96 252.26L48.68 255.35M48.68 255.35L47.76 258.56M47.76 258.56L47.2 261.86M47.2 261.86L47.01 265.2M47.01 265.2L47.2 268.54M47.2 268.54L47.76 271.84M47.76 271.84L48.68 275.05M48.68 275.05L49.96 278.14M49.96 278.14L51.58 281.07M51.58 281.07L53.52 283.8M53.52 283.8L55.75 286.29M55.75 286.29L58.24 288.52M58.24 288.52L60.97 290.46M60.97 290.46L63.9 292.07M63.9 292.07L66.99 293.35M66.99 293.35L70.2 294.28M70.2 294.28L73.5 294.84M73.5 294.84L76.84 295.03"
fill="none" stroke="black" stroke-width="0.5"/>
<path d="M76.84 304.97L73.5 305.16M73.5 305.16L70.2 305.72M70.2 305.72L66.99 306.65M66.99 306.65L63.9 307.93M63.9 307.93L60.97 309.54M60.97 309.54L58.24 311.48M58.24 311.48L55.75 313.71M55.75 313.71L53.52 316.2M53.52 316.2L51.58 318.93M51.58 318.93L49.96 321.86M49.96 321.86L48.68 324.95M48.68 324.95L47.76 328.16M47.76 328.16L47.2 331.46M47.2 331.46L47.01 334.8M47.01 334.8L47.2 338.14M47.2 338.14L47.76 341.44M47.76 341.44L48.68 344.65M48.68 344.65L49.96 347.74M49.96 347.74L51.58 350.67M51.58 350.67L53.52 353.4M53.52 353.4L55.75 355.9M55.75 355.9L58.24 358.12M58.24 358.12L60.97 360.06M60.97 360.06L63.9 361.68M63.9 361.68L66.99 362.96M66.99 362.96L70.2 363.88M70.2 363.88L73.5 364.44M73.5 364.44L76.84 364.63"
fill="none" stroke="black" stroke-width="0.5"/>
<path d="M76.84 304.97L156.39 304.97"
fill="none" stroke="black" stroke-width="0.5"/>
<path d="M76.84 424.29L156.39 424.29"
fill="none" stroke="black" stroke-width="0.5"/>
<path d="M76.84 364.63L73.5 364.82M73.5 364.82L70.2 365.38M70.2 365.38L66.99 366.31M66.99 366.31L63.9 367.59M63.9 367.59L60.97 369.2M60.97 369.2L58.24 371.14M58.24 371.14L55.75 373.37M55.75 373.37L53.52 375.86M53.52 375.86L51.58 378.59M51.58 378.59L49.96 381.52M49.96 381.52L48.68 384.61M48.68 384.61L47.76 387.82M47.76 387.82L47.2 391.12M47.2 391.12L47.01 394.46M47.01 394.46L47.2 397.8M47.2 397.8L47.76 401.1M47.76 401.1L48.68 404.31M48.68 404.31L49.96 407.41M49.96 407.41L51.58 410.33M51.58 410.33L53.52 413.06M53.52 413.06L55.75 415.56M55.75 415.56L58.24 417.78M58.24 417.78L60.97 419.72M60.97 419.72L63.9 421.34M63.9 421.34L66.99 422.62M66.99 422.62L70.2 423.54M70.2 423.54L73.5 424.11M73.5 424.11L76.84 424.29"
fill="none" stroke="black" stroke-width="0.5"/>
<path d="M106.67 583.39L106.48 581.45M106.48 581.45L105.91 579.58M105.91 579.58L104.99 577.86M104.99 577.86L103.76 576.36M103.76 576.36L102.25 575.12M102.25 575.12L100.53 574.2M100.53 574.2L98.67 573.63M98.67 573.63L96.73 573.44M96.73 573.44L94.79 573.63M94.79 573.63L92.92 574.2M92.92 574.2L91.2 575.12M91.2 575.12L89.69 576.36M89.69 576.36L88.46 577.86M88.46 577.86L87.54 579.58M87.54 579.58L86.97 581.45M86.97 581.45L86.78 583.39M86.78 583.39L86.97 585.33M86.97 585.33L87.54 587.19M87.54 587.19L88.46 588.91M88.46 588.91L89.69 590.42M89.69 590.42L91.2 591.65M91.2 591.65L92.92 592.57M92.92 592.57L94.79 593.14M94.79 593.14L96.73 593.33M96.73 593.33L98.67 593.14M98.67 593.14L100.53 592.57M100.53 592.57L102.25 591.65M102.25 591.65L103.76 590.42M103.76 590.42L104.99 588.91M104.99 588.91L105.91 587.19M105.91 587.19L106.48 585.33M106.48 585.33L106.67 583.39"
fill="none" stroke="black" stroke-width="0.5"/>
<path d="M76.84 434.24L73.5 434.42M73.5 434.42L70.2 434.98M70.2 434.98L66.99 435.91M66.99 435.91L63.9 437.19M63.9 437.19L60.97 438.81M60.97 438.81L58.24 440.74M58.24 440.74L55.75 442.97M55.75 442.97L53.52 445.47M53.52 445.47L51.58 448.2M51.58 448.2L49.96 451.12M49.96 451.12L48.68 454.21M48.68 454.21L47.76 457.43M47.76 457.43L47.2 460.73M47.2 460.73L47.01 464.07M47.01 464.07L47.2 467.41M47.2 467.41L47.76 470.7M47.76 470.7L48.68 473.92M48.68 473.92L49.96 477.01M49.96 477.01L51.58 479.94M51.58 479.94L53.52 482.67M53.52 482.67L55.75 485.16M55.75 485.16L58.24 487.39M58.24 487.39L60.97 489.32M60.97 489.32L63.9 490.94M63.9 490.94L66.99 492.22M66.99 492.22L70.2 493.15M70.2 493.15L73.5 493.71M73.5 493.71L76.84 493.9"
fill="none" stroke="black" stroke-width="0.5"/>
<path d="M76.84 434.24L156.39 434.24"
fill="none" stroke="black" stroke-width="0.5"/>
<path d="M76.84 553.56L156.39 553.56"
fill="none" stroke="black" stroke-width="0.5"/>
<path d="M76.84 493.9L73.5 494.08M73.5 494.08L70.2 494.64M70.2 494.64L66.99 495.57M66.99 495.57L63.9 496.85M63.9 496.85L60.97 498.47M60.97 498.47L58.24 500.4M58.24 500.4L55.75 502.63M55.75 502.63L53.52 505.13M53.52 505.13L51.58 507.86M51.58 507.86L49.96 510.78M49.96 510.78L48.68 513.87M48.68 513.87L47.76 517.09M47.76 517.09L47.2 520.39M47.2 520.39L47.01 523.73M47.01 523.73L47.2 527.07M47.2 527.07L47.76 530.36M47.76 530.36L48.68 533.58M48.68 533.58L49.96 536.67M49.96 536.67L51.58 539.6M51.58 539.6L53.52 542.33M53.52 542.33L55.75 544.82M55.75 544.82L58.24 547.05M58.24 547.05L60.97 548.98M60.97 548.98L63.9 550.6M63.9 550.6L66.99 551.88M66.99 551.88L70.2 552.81M70.2 552.81L73.5 553.37M73.5 553.37L76.84 553.56"
fill="none" stroke="black" stroke-width="0.5"/>
<path d="M685.53 587.98L685.53 577.22 683.66 585.69 685.53 587.98Z"
fill-rule="evenodd" fill="blue"/>
<path d="M685.53 587.98L689.14 592.4 685.53 577.22 685.53 587.98Z"
fill-rule="evenodd" fill="blue"/>
<path d="M689.14 592.4L689.14 575.48 685.53 577.22 689.14 592.4Z"
fill-rule="evenodd" fill="blue"/>
<path d="M689.14 592.4L693.33 592.34 689.14 575.48 689.14 592.4Z"
fill-rule="evenodd" fill="blue"/>
<path d="M693.33 592.34L693.33 573.44 689.14 575.48 693.33 592.34Z"
fill-rule="evenodd" fill="blue"/>
<path d="M693.33 592.34L697.8 592.27 693.33 573.44 693.33 592.34Z"
fill-rule="evenodd" fill="blue"/>
<path d="M697.8 592.27L697.8 575 693.33 573.44 697.8 592.27Z"
fill-rule="evenodd" fill="blue"/>
<path d="M697.8 592.27L699.5 590.06 697.8 575 697.8 592.27Z"
fill-rule="evenodd" fill="blue"/>
<path d="M699.5 590.06L699.5 575.59 697.8 575 699.5 590.06Z"
fill-rule="evenodd" fill="blue"/>
<path d="M699.5 590.06L703.07 585.38 699.5 575.59 699.5 590.06Z"
fill-rule="evenodd" fill="blue"/>
<path d="M703.07 585.38L703.07 582.97 699.5 575.59 703.07 585.38Z"
fill-rule="evenodd" fill="blue"/>
<path d="M703.07 585.38L703.27 583.39 703.07 582.97 703.07 585.38Z"
fill-rule="evenodd" fill="blue"/>
<path d="M684.45 21.09L684.45 12.31 684.32 12.42 684.45 21.09Z"
fill-rule="evenodd" fill="blue"/>
<path d="M684.45 21.09L691.03 26.12 684.45 12.31 684.45 21.09Z"
fill-rule="evenodd" fill="blue"/>
<path d="M691.03 26.12L691.03 6.94 684.45 12.31 691.03 26.12Z"
fill-rule="evenodd" fill="blue"/>
<path d="M691.03 26.12L691.33 26.35 691.03 6.94 691.03 26.12Z"
fill-rule="evenodd" fill="blue"/>
<path d="M691.33 26.35L691.33 7.01 691.03 6.94 691.33 26.35Z"
fill-rule="evenodd" fill="blue"/>
<path d="M691.33 26.35L699.5 24.28 691.33 7.01 691.33 26.35Z"
fill-rule="evenodd" fill="blue"/>
<path d="M699.5 24.28L699.5 8.81 691.33 7.01 699.5 24.28Z"
fill-rule="evenodd" fill="blue"/>
<path d="M699.5 24.28L699.74 24.22 699.5 8.81 699.5 24.28Z"
fill-rule="evenodd" fill="blue"/>
<path d="M699.74 24.22L699.74 9.31 699.5 8.81 699.74 24.22Z"
fill-rule="evenodd" fill="blue"/>
<path d="M699.74 24.22L703.27 16.61 699.74 9.31 699.74 24.22Z"
fill-rule="evenodd" fill="blue"/>
<path d="M693.33 598.3L693.33 1.7"
fill="none" stroke="black" stroke-width="0.5"/>
<path d="M673.44 46.44L670.1 46.63M670.1 46.63L666.81 47.19M666.81 47.19L663.59 48.12M663.59 48.12L660.5 49.4M660.5 49.4L657.57 51.02M657.57 51.02L654.84 52.95M654.84 52.95L652.35 55.18M652.35 55.18L650.12 57.67M650.12 57.67L648.19 60.4M648.19 60.4L646.57 63.33M646.57 63.33L645.29 66.42M645.29 66.42L644.36 69.64M644.36 69.64L643.8 72.93M643.8 72.93L643.61 76.27M643.61 76.27L643.8 79.61M643.8 79.61L644.36 82.91M644.36 82.91L645.29 86.13M645.29 86.13L646.57 89.22M646.57 89.22L648.19 92.14M648.19 92.14L650.12 94.87M650.12 94.87L652.35 97.37M652.35 97.37L654.84 99.6M654.84 99.6L657.57 101.53M657.57 101.53L660.5 103.15M660.5 103.15L663.59 104.43M663.59 104.43L666.81 105.36M666.81 105.36L670.1 105.92M670.1 105.92L673.44 106.1"
fill="none" stroke="black" stroke-width="0.5"/>
<path d="M673.44 46.44L752.99 46.44"
fill="none" stroke="black" stroke-width="0.5"/>
<path d="M703.27 16.61L703.08 14.67M703.08 14.67L702.52 12.81M702.52 12.81L701.6 11.09M701.6 11.09L700.36 9.58M700.36 9.58L698.85 8.35M698.85 8.35L697.14 7.43M697.14 7.43L695.27 6.86M695.27 6.86L693.33 6.67M693.33 6.67L691.39 6.86M691.39 6.86L689.53 7.43M689.53 7.43L687.81 8.35M687.81 8.35L686.3 9.58M686.3 9.58L685.06 11.09M685.06 11.09L684.14 12.81M684.14 12.81L683.58 14.67M683.58 14.67L683.39 16.61M683.39 16.61L683.58 18.55M683.58 18.55L684.14 20.42M684.14 20.42L685.06 22.14M685.06 22.14L686.3 23.64M686.3 23.64L687.81 24.88M687.81 24.88L689.53 25.8M689.53 25.8L691.39 26.37M691.39 26.37L693.33 26.56M693.33 26.56L695.27 26.37M695.27 26.37L697.14 25.8M697.14 25.8L698.85 24.88M698.85 24.88L700.36 23.64M700.36 23.64L701.6 22.14M701.6 22.14L702.52 20.42M702.52 20.42L703.08 18.55M703.08 18.55L703.27 16.61"
fill="none" stroke="black" stroke-width="0.5"/>
<path d="M673.44 165.76L752.99 165.76"
fill="none" stroke="black" stroke-width="0.5"/>
<path d="M673.44 106.1L670.1 106.29M670.1 106.29L666.81 106.85M666.81 106.85L663.59 107.78M663.59 107.78L660.5 109.06M660.5 109.06L657.57 110.68M657.57 110.68L654.84 112.61M654.84 112.61L652.35 114.84M652.35 114.84L650.12 117.33M650.12 117.33L648.19 120.06M648.19 120.06L646.57 122.99M646.57 122.99L645.29 126.08M645.29 126.08L644.36 129.3M644.36 129.3L643.8 132.59M643.8 132.59L643.61 135.93M643.61 135.93L643.8 139.27M643.8 139.27L644.36 142.57M644.36 142.57L645.29 145.79M645.29 145.79L646.57 148.88M646.57 148.88L648.19 151.8M648.19 151.8L650.12 154.53M650.12 154.53L652.35 157.03M652.35 157.03L654.84 159.26M654.84 159.26L657.57 161.19M657.57 161.19L660.5 162.81M660.5 162.81L663.59 164.09M663.59 164.09L666.81 165.02M666.81 165.02L670.1 165.58M670.1 165.58L673.44 165.76"
fill="none" stroke="black" stroke-width="0.5"/>
<path d="M673.44 175.71L670.1 175.89M670.1 175.89L666.81 176.46M666.81 176.46L663.59 177.38M663.59 177.38L660.5 178.66M660.5 178.66L657.57 180.28M657.57 180.28L654.84 182.22M654.84 182.22L652.35 184.44M652.35 184.44L650.12 186.94M650.12 186.94L648.19 189.67M648.19 189.67L646.57 192.59M646.57 192.59L645.29 195.69M645.29 195.69L644.36 198.9M644.36 198.9L643.8 202.2M643.8 202.2L643.61 205.54M643.61 205.54L643.8 208.88M643.8 208.88L644.36 212.18M644.36 212.18L645.29 215.39M645.29 215.39L646.57 218.48M646.57 218.48L648.19 221.41M648.19 221.41L650.12 224.14M650.12 224.14L652.35 226.63M652.35 226.63L654.84 228.86M654.84 228.86L657.57 230.8M657.57 230.8L660.5 232.41M660.5 232.41L663.59 233.69M663.59 233.69L666.81 234.62M666.81 234.62L670.1 235.18M670.1 235.18L673.44 235.37"
fill="none" stroke="black" stroke-width="0.5"/>
<path d="M673.44 175.71L752.99 175.71"
fill="none" stroke="black" stroke-width="0.5"/>
<path d="M673.44 295.03L752.99 295.03"
fill="none" stroke="black" stroke-width="0.5"/>
<path d="M673.44 235.37L670.1 235.56M670.1 235.56L666.81 236.12M666.81 236.12L663.59 237.04M663.59 237.04L660.5 238.32M660.5 238.32L657.57 239.94M657.57 239.94L654.84 241.88M654.84 241.88L652.35 244.1M652.35 244.1L650.12 246.6M650.12 246.6L648.19 249.33M648.19 249.33L646.57 252.26M646.57 252.26L645.29 255.35M645.29 255.35L644.36 258.56M644.36 258.56L643.8 261.86M643.8 261.86L643.61 265.2M643.61 265.2L643.8 268.54M643.8 268.54L644.36 271.84M644.36 271.84L645.29 275.05M645.29 275.05L646.57 278.14M646.57 278.14L648.19 281.07M648.19 281.07L650.12 283.8M650.12 283.8L652.35 286.29M652.35 286.29L654.84 288.52M654.84 288.52L657.57 290.46M657.57 290.46L660.5 292.07M660.5 292.07L663.59 293.35M663.59 293.35L666.81 294.28M666.81 294.28L670.1 294.84M670.1 294.84L673.44 295.03"
fill="none" stroke="black" stroke-width="0.5"/>
<path d="M673.44 304.97L670.1 305.16M670.1 305.16L666.81 305.72M666.81 305.72L663.59 306.65M663.59 306.65L660.5 307.93M660.5 307.93L657.57 309.54M657.57 309.54L654.84 311.48M654.84 311.48L652.35 313.71M652.35 313.71L650.12 316.2M650.12 316.2L648.19 318.93M648.19 318.93L646.57 321.86M646.57 321.86L645.29 324.95M645.29 324.95L644.36 328.16M644.36 328.16L643.8 331.46M643.8 331.46L643.61 334.8M643.61 334.8L643.8 338.14M643.8 338.14L644.36 341.44M644.36 341.44L645.29 344.65M645.29 344.65L646.57 347.74M646.57 347.74L648.19 350.67M648.19 350.67L650.12 353.4M650.12 353.4L652.35 355.9M652.35 355.9L654.84 358.12M654.84 358.12L657.57 360.06M657.57 360.06L660.5 361.68M660.5 361.68L663.59 362.96M663.59 362.96L666.81 363.88M666.81 363.88L670.1 364.44M670.1 364.44L673.44 364.63"
fill="none" stroke="black" stroke-width="0.5"/>
<path d="M673.44 304.97L752.99 304.97"
fill="none" stroke="black" stroke-width="0.5"/>
<path d="M673.44 424.29L752.99 424.29"
fill="none" stroke="black" stroke-width="0.5"/>
<path d="M673.44 364.63L670.1 364.82M670.1 364.82L666.81 365.38M666.81 365.38L663.59 366.31M663.59 366.31L660.5 367.59M660.5 367.59L657.57 369.2M657.57 369.2L654.84 371.14M654.84 371.14L652.35 373.37M652.35 373.37L650.12 375.86M650.12 375.86L648.19 378.59M648.19 378.59L646.57 381.52M646.57 381.52L645.29 384.61M645.29 384.61L644.36 387.82M644.36 387.82L643.8 391.12M643.8 391.12L643.61 394.46M643.61 394.46L643.8 397.8M643.8 397.8L644.36 401.1M644.36 401.1L645.29 404.31M645.29 404.31L646.57 407.41M646.57 407.41L648.19 410.33M648.19 410.33L650.12 413.06M650.12 413.06L652.35 415.56M652.35 415.56L654.84 417.78M654.84 417.78L657.57 419.72M657.57 419.72L660.5 421.34M660.5 421.34L663.59 422.62M663.59 422.62L666.81 423.54M666.81 423.54L670.1 424.11M670.1 424.11L673.44 424.29"
fill="none" stroke="black" stroke-width="0.5"/>
<path d="M703.27 583.39L703.08 581.45M703.08 581.45L702.52 579.58M702.52 579.58L701.6 577.86M701.6 577.86L700.36 576.36M700.36 576.36L698.85 575.12M698.85 575.12L697.14 574.2M697.14 574.2L695.27 573.63M695.27 573.63L693.33 573.44M693.33 573.44L691.39 573.63M691.39 573.63L689.53 574.2M689.53 574.2L687.81 575.12M687.81 575.12L686.3 576.36M686.3 576.36L685.06 577.86M685.06 577.86L684.14 579.58M684.14 579.58L683.58 581.45M683.58 581.45L683.39 583.39M683.39 583.39L683.58 585.33M683.58 585.33L684.14 587.19M684.14 587.19L685.06 588.91M685.06 588.91L686.3 590.42M686.3 590.42L687.81 591.65M687.81 591.65L689.53 592.57M689.53 592.57L691.39 593.14M691.39 593.14L693.33 593.33M693.33 593.33L695.27 593.14M695.27 593.14L697.14 592.57M697.14 592.57L698.85 591.65M698.85 591.65L700.36 590.42M700.36 590.42L701.6 588.91M701.6 588.91L702.52 587.19M702.52 587.19L703.08 585.33M703.08 585.33L703.27 583.39"
fill="none" stroke="black" stroke-width="0.5"/>
<path d="M673.44 434.24L670.1 434.42M670.1 434.42L666.81 434.98M666.81 434.98L663.59 435.91M663.59 435.91L660.5 437.19M660.5 437.19L657.57 438.81M657.57 438.81L654.84 440.74M654.84 440.74L652.35 442.97M652.35 442.97L650.12 445.47M650.12 445.47L648.19 448.2M648.19 448.2L646.57 451.12M646.57 451.12L645.29 454.21M645.29 454.21L644.36 457.43M644.36 457.43L643.8 460.73M643.8 460.73L643.61 464.07M643.61 464.07L643.8 467.41M643.8 467.41L644.36 470.7M644.36 470.7L645.29 473.92M645.29 473.92L646.57 477.01M646.57 477.01L648.19 479.94M648.19 479.94L650.12 482.67M650.12 482.67L652.35 485.16M652.35 485.16L654.84 487.39M654.84 487.39L657.57 489.32M657.57 489.32L660.5 490.94M660.5 490.94L663.59 492.22M663.59 492.22L666.81 493.15M666.81 493.15L670.1 493.71M670.1 493.71L673.44 493.9"
fill="none" stroke="black" stroke-width="0.5"/>
<path d="M673.44 434.24L752.99 434.24"
fill="none" stroke="black" stroke-width="0.5"/>
<path d="M673.44 553.56L752.99 553.56"
fill="none" stroke="black" stroke-width="0.5"/>
<path d="M673.44 493.9L670.1 494.08M670.1 494.08L666.81 494.64M666.81 494.64L663.59 495.57M663.59 495.57L660.5 496.85M660.5 496.85L657.57 498.47M657.57 498.47L654.84 500.4M654.84 500.4L652.35 502.63M652.35 502.63L650.12 505.13M650.12 505.13L648.19 507.86M648.19 507.86L646.57 510.78M646.57 510.78L645.29 513.87M645.29 513.87L644.36 517.09M644.36 517.09L643.8 520.39M643.8 520.39L643.61 523.73M643.61 523.73L643.8 527.07M643.8 527.07L644.36 530.36M644.36 530.36L645.29 533.58M645.29 533.58L646.57 536.67M646.57 536.67L648.19 539.6M648.19 539.6L650.12 542.33M650.12 542.33L652.35 544.82M652.35 544.82L654.84 547.05M654.84 547.05L657.57 548.98M657.57 548.98L660.5 550.6M660.5 550.6L663.59 551.88M663.59 551.88L666.81 552.81M666.81 552.81L670.1 553.37M670.1 553.37L673.44 553.56"
fill="none" stroke="black" stroke-width="0.5"/>
</svg>
