<svg width="800" height="600" viewBox="0 0 800 600" fill="none" xmlns="http://www.w3.org/2000/svg">
<path d="M392.58 598.3V1.70001" stroke="black" stroke-width="6"/>
<path fill-rule="evenodd" clip-rule="evenodd" d="M677.42 536.15V530.5L676.44 534.94L677.42 536.15Z" fill="#0000FF"/>
<path fill-rule="evenodd" clip-rule="evenodd" d="M677.42 536.15L677.63 536.39L677.42 530.5V536.15Z" fill="#0000FF"/>
<path fill-rule="evenodd" clip-rule="evenodd" d="M677.63 536.39V529.59L677.42 530.5L677.63 536.39Z" fill="#0000FF"/>
<path fill-rule="evenodd" clip-rule="evenodd" d="M677.63 78.06V64.96L677.42 65.13L677.63 78.06Z" fill="#0000FF"/>
<path fill-rule="evenodd" clip-rule="evenodd" d="M677.63 536.39L679.24 538.37L677.63 529.59V536.39Z" fill="#0000FF"/>
<path fill-rule="evenodd" clip-rule="evenodd" d="M679.24 538.37V522.31L677.63 529.59L679.24 538.37Z" fill="#0000FF"/>
<path fill-rule="evenodd" clip-rule="evenodd" d="M677.63 78.06L679.24 79.3L677.63 64.96V78.06Z" fill="#0000FF"/>
<path fill-rule="evenodd" clip-rule="evenodd" d="M679.24 79.3V63.65L677.63 64.96L679.24 79.3Z" fill="#0000FF"/>
<path fill-rule="evenodd" clip-rule="evenodd" d="M679.24 538.37L684.62 544.97L679.24 522.31V538.37Z" fill="#0000FF"/>
<path fill-rule="evenodd" clip-rule="evenodd" d="M684.62 544.97V519.7L679.24 522.31L684.62 544.97Z" fill="#0000FF"/>
<path fill-rule="evenodd" clip-rule="evenodd" d="M679.24 79.3L684.62 83.42L679.24 63.65V79.3Z" fill="#0000FF"/>
<path fill-rule="evenodd" clip-rule="evenodd" d="M684.62 83.42V59.26L679.24 63.65L684.62 83.42Z" fill="#0000FF"/>
<path fill-rule="evenodd" clip-rule="evenodd" d="M684.62 544.97L687.45 544.92L684.62 519.7V544.97Z" fill="#0000FF"/>
<path fill-rule="evenodd" clip-rule="evenodd" d="M687.45 544.92V518.33L684.62 519.7L687.45 544.92Z" fill="#0000FF"/>
<path fill-rule="evenodd" clip-rule="evenodd" d="M684.62 83.42L687.45 85.58L684.62 59.26V83.42Z" fill="#0000FF"/>
<path fill-rule="evenodd" clip-rule="evenodd" d="M687.45 85.58V56.95L684.62 59.26L687.45 85.58Z" fill="#0000FF"/>
<path fill-rule="evenodd" clip-rule="evenodd" d="M687.45 544.92H687.9L687.45 518.33V544.92Z" fill="#0000FF"/>
<path fill-rule="evenodd" clip-rule="evenodd" d="M687.9 544.92V518.11L687.45 518.33L687.9 544.92Z" fill="#0000FF"/>
<path fill-rule="evenodd" clip-rule="evenodd" d="M687.45 85.58L687.9 85.93L687.45 56.95V85.58Z" fill="#0000FF"/>
<path fill-rule="evenodd" clip-rule="evenodd" d="M687.9 85.93V57.05L687.45 56.95L687.9 85.93Z" fill="#0000FF"/>
<path fill-rule="evenodd" clip-rule="evenodd" d="M687.9 544.92L690.88 544.87L687.9 518.11V544.92Z" fill="#0000FF"/>
<path fill-rule="evenodd" clip-rule="evenodd" d="M690.88 544.87V516.67L687.9 518.11L690.88 544.87Z" fill="#0000FF"/>
<path fill-rule="evenodd" clip-rule="evenodd" d="M687.9 85.93L690.88 86.23L687.9 57.05V85.93Z" fill="#0000FF"/>
<path fill-rule="evenodd" clip-rule="evenodd" d="M690.88 86.23V57.71L687.9 57.05L690.88 86.23Z" fill="#0000FF"/>
<path fill-rule="evenodd" clip-rule="evenodd" d="M690.88 544.87L697.56 544.77L690.88 516.67V544.87Z" fill="#0000FF"/>
<path fill-rule="evenodd" clip-rule="evenodd" d="M697.56 544.77V518.99L690.88 516.67L697.56 544.77Z" fill="#0000FF"/>
<path fill-rule="evenodd" clip-rule="evenodd" d="M690.88 86.23L697.56 83L690.88 57.71V86.23Z" fill="#0000FF"/>
<path fill-rule="evenodd" clip-rule="evenodd" d="M697.56 83V59.18L690.88 57.71L697.56 83Z" fill="#0000FF"/>
<path fill-rule="evenodd" clip-rule="evenodd" d="M697.56 544.77L700.08 541.47L697.56 518.99V544.77Z" fill="#0000FF"/>
<path fill-rule="evenodd" clip-rule="evenodd" d="M700.08 541.47V519.86L697.56 518.99L700.08 541.47Z" fill="#0000FF"/>
<path fill-rule="evenodd" clip-rule="evenodd" d="M697.56 83L700.08 81.77L697.56 59.18V83Z" fill="#0000FF"/>
<path fill-rule="evenodd" clip-rule="evenodd" d="M700.08 81.77V59.74L697.56 59.18L700.08 81.77Z" fill="#0000FF"/>
<path fill-rule="evenodd" clip-rule="evenodd" d="M700.08 541.47L702.53 538.27L700.08 519.86V541.47Z" fill="#0000FF"/>
<path fill-rule="evenodd" clip-rule="evenodd" d="M702.53 538.27V524.91L700.08 519.86L702.53 538.27Z" fill="#0000FF"/>
<path fill-rule="evenodd" clip-rule="evenodd" d="M700.08 81.77L702.53 80.59L700.08 59.74V81.77Z" fill="#0000FF"/>
<path fill-rule="evenodd" clip-rule="evenodd" d="M702.53 80.59V64.79L700.08 59.74L702.53 80.59Z" fill="#0000FF"/>
<path fill-rule="evenodd" clip-rule="evenodd" d="M702.53 538.27L705.42 534.49L702.53 524.91V538.27Z" fill="#0000FF"/>
<path fill-rule="evenodd" clip-rule="evenodd" d="M705.42 534.49V530.89L702.53 524.91L705.42 534.49Z" fill="#0000FF"/>
<path fill-rule="evenodd" clip-rule="evenodd" d="M702.53 80.59L705.42 72.26L702.53 64.79V80.59Z" fill="#0000FF"/>
<path fill-rule="evenodd" clip-rule="evenodd" d="M705.42 72.26V70.76L702.53 64.79L705.42 72.26Z" fill="#0000FF"/>
<path fill-rule="evenodd" clip-rule="evenodd" d="M705.42 534.49L705.72 531.51L705.42 530.89V534.49Z" fill="#0000FF"/>
<path fill-rule="evenodd" clip-rule="evenodd" d="M705.42 72.26L705.72 71.39L705.42 70.76V72.26Z" fill="#0000FF"/>
<path d="M690.88 598.3V4.60001" stroke="black" stroke-width="6"/>
<path d="M661.2 115.92L657.09 116.11L653.01 116.67L649.01 117.62L645.11 118.92L641.35 120.58L637.75 122.59L634.36 124.91L631.2 127.54L628.29 130.45L625.66 133.61L623.34 137L621.34 140.6L619.67 144.36L618.37 148.26L617.43 152.26L616.86 156.34L616.67 160.44L616.86 164.55L617.43 168.63L618.37 172.63L619.67 176.53L621.34 180.29L623.34 183.88L625.66 187.28L628.29 190.44L631.2 193.35L634.36 195.98L637.75 198.3L641.35 200.3L645.11 201.96L649.01 203.27L653.01 204.21L657.09 204.78L661.2 204.97" stroke="black" stroke-width="6"/>
<path d="M661.2 115.92H779.94" stroke="black" stroke-width="6"/>
<path d="M705.72 71.39L705.53 69.01ZM705.53 69.01L704.96 66.69ZM704.96 66.69L704.02 64.49ZM704.02 64.49L702.75 62.47ZM702.75 62.47L701.16 60.68ZM701.16 60.68L699.31 59.17ZM699.31 59.17L697.24 57.98ZM697.24 57.98L695.01 57.13ZM695.01 57.13L692.67 56.65ZM692.67 56.65L690.28 56.56ZM690.28 56.56L687.91 56.84ZM687.91 56.84L685.62 57.51ZM685.62 57.51L683.46 58.53ZM683.46 58.53L681.49 59.89ZM681.49 59.89L679.77 61.55ZM679.77 61.55L678.34 63.45ZM678.34 63.45L677.23 65.57ZM677.23 65.57L676.47 67.84ZM676.47 67.84L676.09 70.19ZM676.09 70.19V72.58ZM676.09 72.58L676.47 74.94ZM676.47 74.94L677.23 77.21ZM677.23 77.21L678.34 79.32ZM678.34 79.32L679.77 81.23ZM679.77 81.23L681.49 82.88ZM681.49 82.88L683.46 84.24ZM683.46 84.24L685.62 85.27ZM685.62 85.27L687.91 85.93ZM687.91 85.93L690.28 86.22ZM690.28 86.22L692.67 86.12ZM692.67 86.12L695.01 85.64ZM695.01 85.64L697.24 84.8ZM697.24 84.8L699.31 83.6ZM699.31 83.6L701.16 82.09ZM701.16 82.09L702.75 80.3ZM702.75 80.3L704.02 78.29ZM704.02 78.29L704.96 76.09ZM704.96 76.09L705.53 73.77ZM705.53 73.77L705.72 71.39Z" stroke="black" stroke-width="0.5"/>
<path d="M705.72 531.51L705.53 529.13ZM705.53 529.13L704.96 526.81ZM704.96 526.81L704.02 524.61ZM704.02 524.61L702.75 522.59ZM702.75 522.59L701.16 520.81ZM701.16 520.81L699.31 519.29ZM699.31 519.29L697.24 518.1ZM697.24 518.1L695.01 517.25ZM695.01 517.25L692.67 516.78ZM692.67 516.78L690.28 516.68ZM690.28 516.68L687.91 516.97ZM687.91 516.97L685.62 517.63ZM685.62 517.63L683.46 518.66ZM683.46 518.66L681.49 520.01ZM681.49 520.01L679.77 521.67ZM679.77 521.67L678.34 523.58ZM678.34 523.58L677.23 525.69ZM677.23 525.69L676.47 527.96ZM676.47 527.96L676.09 530.32ZM676.09 530.32V532.7ZM676.09 532.7L676.47 535.06ZM676.47 535.06L677.23 537.33ZM677.23 537.33L678.34 539.44ZM678.34 539.44L679.77 541.35ZM679.77 541.35L681.49 543.01ZM681.49 543.01L683.46 544.36ZM683.46 544.36L685.62 545.39ZM685.62 545.39L687.91 546.05ZM687.91 546.05L690.28 546.34ZM690.28 546.34L692.67 546.24ZM692.67 546.24L695.01 545.77ZM695.01 545.77L697.24 544.92ZM697.24 544.92L699.31 543.73ZM699.31 543.73L701.16 542.21ZM701.16 542.21L702.75 540.43ZM702.75 540.43L704.02 538.41ZM704.02 538.41L704.96 536.21ZM704.96 536.21L705.53 533.89ZM705.53 533.89L705.72 531.51Z" stroke="black" stroke-width="0.5"/>
<path d="M661.2 294.03H779.94" stroke="black" stroke-width="6"/>
<path d="M661.2 204.97L657.09 205.16L653.01 205.73L649.01 206.67L645.11 207.98L641.35 209.64L637.75 211.64L634.36 213.97L631.2 216.59L628.29 219.5L625.66 222.67L623.34 226.06L621.34 229.65L619.67 233.41L618.37 237.31L617.43 241.32L616.86 245.39L616.67 249.5L616.86 253.61L617.43 257.68L618.37 261.69L619.67 265.58L621.34 269.35L623.34 272.94L625.66 276.33L628.29 279.5L631.2 282.41L634.36 285.03L637.75 287.36L641.35 289.36L645.11 291.02L649.01 292.33L653.01 293.27L657.09 293.84L661.2 294.03" stroke="black" stroke-width="6"/>
<path d="M661.2 308.87L657.09 309.06L653.01 309.63L649.01 310.57L645.11 311.88L641.35 313.54L637.75 315.54L634.36 317.86L631.2 320.49L628.29 323.4L625.66 326.56L623.34 329.96L621.34 333.55L619.67 337.31L618.37 341.21L617.43 345.22L616.86 349.29L616.67 353.4L616.86 357.51L617.43 361.58L618.37 365.58L619.67 369.48L621.34 373.25L623.34 376.84L625.66 380.23L628.29 383.4L631.2 386.3L634.36 388.93L637.75 391.26L641.35 393.26L645.11 394.92L649.01 396.23L653.01 397.17L657.09 397.74L661.2 397.93" stroke="black" stroke-width="6"/>
<path d="M661.2 308.87H779.94" stroke="black" stroke-width="6"/>
<path d="M661.2 486.98H779.94" stroke="black" stroke-width="6"/>
<path d="M661.2 397.93L657.09 398.12L653.01 398.68L649.01 399.63L645.11 400.93L641.35 402.59L637.75 404.6L634.36 406.92L631.2 409.55L628.29 412.46L625.66 415.62L623.34 419.01L621.34 422.61L619.67 426.37L618.37 430.27L617.43 434.27L616.86 438.35L616.67 442.45L616.86 446.56L617.43 450.64L618.37 454.64L619.67 458.54L621.34 462.3L623.34 465.9L625.66 469.29L628.29 472.45L631.2 475.36L634.36 477.99L637.75 480.31L641.35 482.31L645.11 483.98L649.01 485.28L653.01 486.22L657.09 486.79L661.2 486.98" stroke="black" stroke-width="6"/>
<path fill-rule="evenodd" clip-rule="evenodd" d="M379.12 536.15V530.5L378.14 534.94L379.12 536.15Z" fill="#0000FF"/>
<path fill-rule="evenodd" clip-rule="evenodd" d="M379.12 536.15L379.32 536.39L379.12 530.5V536.15Z" fill="#0000FF"/>
<path fill-rule="evenodd" clip-rule="evenodd" d="M379.32 536.39V529.59L379.12 530.5L379.32 536.39Z" fill="#0000FF"/>
<path fill-rule="evenodd" clip-rule="evenodd" d="M379.32 78.06V64.96L379.12 65.13L379.32 78.06Z" fill="#0000FF"/>
<path fill-rule="evenodd" clip-rule="evenodd" d="M379.32 536.39L380.93 538.37L379.32 529.59V536.39Z" fill="#0000FF"/>
<path fill-rule="evenodd" clip-rule="evenodd" d="M380.93 538.37V522.31L379.32 529.59L380.93 538.37Z" fill="#0000FF"/>
<path fill-rule="evenodd" clip-rule="evenodd" d="M379.32 78.06L380.93 79.3L379.32 64.96V78.06Z" fill="#0000FF"/>
<path fill-rule="evenodd" clip-rule="evenodd" d="M380.93 79.3V63.65L379.32 64.96L380.93 79.3Z" fill="#0000FF"/>
<path fill-rule="evenodd" clip-rule="evenodd" d="M380.93 538.37L386.32 544.97L380.93 522.31V538.37Z" fill="#0000FF"/>
<path fill-rule="evenodd" clip-rule="evenodd" d="M386.32 544.97V519.7L380.93 522.31L386.32 544.97Z" fill="#0000FF"/>
<path fill-rule="evenodd" clip-rule="evenodd" d="M380.93 79.3L386.32 83.42L380.93 63.65V79.3Z" fill="#0000FF"/>
<path fill-rule="evenodd" clip-rule="evenodd" d="M386.32 83.42V59.26L380.93 63.65L386.32 83.42Z" fill="#0000FF"/>
<path fill-rule="evenodd" clip-rule="evenodd" d="M386.32 544.97L389.15 544.92L386.32 519.7V544.97Z" fill="#0000FF"/>
<path fill-rule="evenodd" clip-rule="evenodd" d="M389.15 544.92V518.33L386.32 519.7L389.15 544.92Z" fill="#0000FF"/>
<path fill-rule="evenodd" clip-rule="evenodd" d="M386.32 83.42L389.15 85.58L386.32 59.26V83.42Z" fill="#0000FF"/>
<path fill-rule="evenodd" clip-rule="evenodd" d="M389.15 85.58V56.95L386.32 59.26L389.15 85.58Z" fill="#0000FF"/>
<path fill-rule="evenodd" clip-rule="evenodd" d="M389.15 544.92H389.6L389.15 518.33V544.92Z" fill="#0000FF"/>
<path fill-rule="evenodd" clip-rule="evenodd" d="M389.6 544.92V518.11L389.15 518.33L389.6 544.92Z" fill="#0000FF"/>
<path fill-rule="evenodd" clip-rule="evenodd" d="M389.15 85.58L389.6 85.93L389.15 56.95V85.58Z" fill="#0000FF"/>
<path fill-rule="evenodd" clip-rule="evenodd" d="M389.6 85.93V57.05L389.15 56.95L389.6 85.93Z" fill="#0000FF"/>
<path fill-rule="evenodd" clip-rule="evenodd" d="M389.6 544.92L392.58 544.87L389.6 518.11V544.92Z" fill="#0000FF"/>
<path fill-rule="evenodd" clip-rule="evenodd" d="M392.58 544.87V516.67L389.6 518.11L392.58 544.87Z" fill="#0000FF"/>
<path fill-rule="evenodd" clip-rule="evenodd" d="M389.6 85.93L392.58 86.23L389.6 57.05V85.93Z" fill="#0000FF"/>
<path fill-rule="evenodd" clip-rule="evenodd" d="M392.58 86.23V57.71L389.6 57.05L392.58 86.23Z" fill="#0000FF"/>
<path fill-rule="evenodd" clip-rule="evenodd" d="M392.58 544.87L399.26 544.77L392.58 516.67V544.87Z" fill="#0000FF"/>
<path fill-rule="evenodd" clip-rule="evenodd" d="M399.26 544.77V518.99L392.58 516.67L399.26 544.77Z" fill="#0000FF"/>
<path fill-rule="evenodd" clip-rule="evenodd" d="M392.58 86.23L399.26 83L392.58 57.71V86.23Z" fill="#0000FF"/>
<path fill-rule="evenodd" clip-rule="evenodd" d="M399.26 83V59.18L392.58 57.71L399.26 83Z" fill="#0000FF"/>
<path fill-rule="evenodd" clip-rule="evenodd" d="M399.26 544.77L401.78 541.47L399.26 518.99V544.77Z" fill="#0000FF"/>
<path fill-rule="evenodd" clip-rule="evenodd" d="M401.78 541.47V519.86L399.26 518.99L401.78 541.47Z" fill="#0000FF"/>
<path fill-rule="evenodd" clip-rule="evenodd" d="M399.26 83L401.78 81.77L399.26 59.18V83Z" fill="#0000FF"/>
<path fill-rule="evenodd" clip-rule="evenodd" d="M401.78 81.77V59.74L399.26 59.18L401.78 81.77Z" fill="#0000FF"/>
<path fill-rule="evenodd" clip-rule="evenodd" d="M401.78 541.47L404.22 538.27L401.78 519.86V541.47Z" fill="#0000FF"/>
<path fill-rule="evenodd" clip-rule="evenodd" d="M404.22 538.27V524.91L401.78 519.86L404.22 538.27Z" fill="#0000FF"/>
<path fill-rule="evenodd" clip-rule="evenodd" d="M401.78 81.77L404.22 80.59L401.78 59.74V81.77Z" fill="#0000FF"/>
<path fill-rule="evenodd" clip-rule="evenodd" d="M404.22 80.59V64.79L401.78 59.74L404.22 80.59Z" fill="#0000FF"/>
<path fill-rule="evenodd" clip-rule="evenodd" d="M404.22 538.27L407.12 534.49L404.22 524.91V538.27Z" fill="#0000FF"/>
<path fill-rule="evenodd" clip-rule="evenodd" d="M407.12 534.49V530.89L404.22 524.91L407.12 534.49Z" fill="#0000FF"/>
<path fill-rule="evenodd" clip-rule="evenodd" d="M404.22 80.59L407.12 72.26L404.22 64.79V80.59Z" fill="#0000FF"/>
<path fill-rule="evenodd" clip-rule="evenodd" d="M407.12 72.26V70.76L404.22 64.79L407.12 72.26Z" fill="#0000FF"/>
<path fill-rule="evenodd" clip-rule="evenodd" d="M407.12 534.49L407.42 531.51L407.12 530.89V534.49Z" fill="#0000FF"/>
<path fill-rule="evenodd" clip-rule="evenodd" d="M407.12 72.26L407.42 71.39L407.12 70.76V72.26Z" fill="#0000FF"/>
<path d="M392.58 598.3V4.60001" stroke="black" stroke-width="6"/>
<path d="M362.89 115.92L358.78 116.11L354.71 116.67L350.71 117.62L346.81 118.92L343.05 120.58L339.45 122.59L336.06 124.91L332.9 127.54L329.99 130.45L327.36 133.61L325.03 137L323.03 140.6L321.37 144.36L320.07 148.26L319.12 152.26L318.56 156.34L318.37 160.44L318.56 164.55L319.12 168.63L320.07 172.63L321.37 176.53L323.03 180.29L325.03 183.88L327.36 187.28L329.99 190.44L332.9 193.35L336.06 195.98L339.45 198.3L343.05 200.3L346.81 201.96L350.71 203.27L354.71 204.21L358.78 204.78L362.89 204.97" stroke="black" stroke-width="6"/>
<path d="M362.89 115.92H481.63" stroke="black" stroke-width="6"/>
<path d="M407.42 71.39L407.23 69.01ZM407.23 69.01L406.66 66.69ZM406.66 66.69L405.72 64.49ZM405.72 64.49L404.44 62.47ZM404.44 62.47L402.86 60.68ZM402.86 60.68L401.01 59.17ZM401.01 59.17L398.94 57.98ZM398.94 57.98L396.71 57.13ZM396.71 57.13L394.37 56.65ZM394.37 56.65L391.98 56.56ZM391.98 56.56L389.61 56.84ZM389.61 56.84L387.32 57.51ZM387.32 57.51L385.16 58.53ZM385.16 58.53L383.19 59.89ZM383.19 59.89L381.47 61.55ZM381.47 61.55L380.03 63.45ZM380.03 63.45L378.92 65.57ZM378.92 65.57L378.17 67.84ZM378.17 67.84L377.78 70.19ZM377.78 70.19V72.58ZM377.78 72.58L378.17 74.94ZM378.17 74.94L378.92 77.21ZM378.92 77.21L380.03 79.32ZM380.03 79.32L381.47 81.23ZM381.47 81.23L383.19 82.88ZM383.19 82.88L385.16 84.24ZM385.16 84.24L387.32 85.27ZM387.32 85.27L389.61 85.93ZM389.61 85.93L391.98 86.22ZM391.98 86.22L394.37 86.12ZM394.37 86.12L396.71 85.64ZM396.71 85.64L398.94 84.8ZM398.94 84.8L401.01 83.6ZM401.01 83.6L402.86 82.09ZM402.86 82.09L404.44 80.3ZM404.44 80.3L405.72 78.29ZM405.72 78.29L406.66 76.09ZM406.66 76.09L407.23 73.77ZM407.23 73.77L407.42 71.39Z" stroke="black" stroke-width="0.5"/>
<path d="M407.42 531.51L407.23 529.13ZM407.23 529.13L406.66 526.81ZM406.66 526.81L405.72 524.61ZM405.72 524.61L404.44 522.59ZM404.44 522.59L402.86 520.81ZM402.86 520.81L401.01 519.29ZM401.01 519.29L398.94 518.1ZM398.94 518.1L396.71 517.25ZM396.71 517.25L394.37 516.78ZM394.37 516.78L391.98 516.68ZM391.98 516.68L389.61 516.97ZM389.61 516.97L387.32 517.63ZM387.32 517.63L385.16 518.66ZM385.16 518.66L383.19 520.01ZM383.19 520.01L381.47 521.67ZM381.47 521.67L380.03 523.58ZM380.03 523.58L378.92 525.69ZM378.92 525.69L378.17 527.96ZM378.17 527.96L377.78 530.32ZM377.78 530.32V532.7ZM377.78 532.7L378.17 535.06ZM378.17 535.06L378.92 537.33ZM378.92 537.33L380.03 539.44ZM380.03 539.44L381.47 541.35ZM381.47 541.35L383.19 543.01ZM383.19 543.01L385.16 544.36ZM385.16 544.36L387.32 545.39ZM387.32 545.39L389.61 546.05ZM389.61 546.05L391.98 546.34ZM391.98 546.34L394.37 546.24ZM394.37 546.24L396.71 545.77ZM396.71 545.77L398.94 544.92ZM398.94 544.92L401.01 543.73ZM401.01 543.73L402.86 542.21ZM402.86 542.21L404.44 540.43ZM404.44 540.43L405.72 538.41ZM405.72 538.41L406.66 536.21ZM406.66 536.21L407.23 533.89ZM407.23 533.89L407.42 531.51Z" stroke="black" stroke-width="0.5"/>
<path d="M362.89 294.03H481.63" stroke="black" stroke-width="6"/>
<path d="M362.89 204.97L358.78 205.16L354.71 205.73L350.71 206.67L346.81 207.98L343.05 209.64L339.45 211.64L336.06 213.97L332.9 216.59L329.99 219.5L327.36 222.67L325.03 226.06L323.03 229.65L321.37 233.41L320.07 237.31L319.12 241.32L318.56 245.39L318.37 249.5L318.56 253.61L319.12 257.68L320.07 261.69L321.37 265.58L323.03 269.35L325.03 272.94L327.36 276.33L329.99 279.5L332.9 282.41L336.06 285.03L339.45 287.36L343.05 289.36L346.81 291.02L350.71 292.33L354.71 293.27L358.78 293.84L362.89 294.03" stroke="black" stroke-width="6"/>
<path d="M362.89 308.87L358.78 309.06L354.71 309.63L350.71 310.57L346.81 311.88L343.05 313.54L339.45 315.54L336.06 317.86L332.9 320.49L329.99 323.4L327.36 326.56L325.03 329.96L323.03 333.55L321.37 337.31L320.07 341.21L319.12 345.22L318.56 349.29L318.37 353.4L318.56 357.51L319.12 361.58L320.07 365.58L321.37 369.48L323.03 373.25L325.03 376.84L327.36 380.23L329.99 383.4L332.9 386.3L336.06 388.93L339.45 391.26L343.05 393.26L346.81 394.92L350.71 396.23L354.71 397.17L358.78 397.74L362.89 397.93" stroke="black" stroke-width="6"/>
<path d="M362.89 308.87H481.63" stroke="black" stroke-width="6"/>
<path d="M362.89 486.98H481.63" stroke="black" stroke-width="6"/>
<path d="M362.89 397.93L358.78 398.12L354.71 398.68L350.71 399.63L346.81 400.93L343.05 402.59L339.45 404.6L336.06 406.92L332.9 409.55L329.99 412.46L327.36 415.62L325.03 419.01L323.03 422.61L321.37 426.37L320.07 430.27L319.12 434.27L318.56 438.35L318.37 442.45L318.56 446.56L319.12 450.64L320.07 454.64L321.37 458.54L323.03 462.3L325.03 465.9L327.36 469.29L329.99 472.45L332.9 475.36L336.06 477.99L339.45 480.31L343.05 482.31L346.81 483.98L350.71 485.28L354.71 486.22L358.78 486.79L362.89 486.98" stroke="black" stroke-width="6"/>
<path fill-rule="evenodd" clip-rule="evenodd" d="M80.82 536.15V530.5L79.84 534.94L80.82 536.15Z" fill="#0000FF"/>
<path fill-rule="evenodd" clip-rule="evenodd" d="M80.82 536.15L81.02 536.39L80.82 530.5V536.15Z" fill="#0000FF"/>
<path fill-rule="evenodd" clip-rule="evenodd" d="M81.02 536.39V529.59L80.82 530.5L81.02 536.39Z" fill="#0000FF"/>
<path fill-rule="evenodd" clip-rule="evenodd" d="M81.02 78.06V64.96L80.82 65.13L81.02 78.06Z" fill="#0000FF"/>
<path fill-rule="evenodd" clip-rule="evenodd" d="M81.02 536.39L82.63 538.37L81.02 529.59V536.39Z" fill="#0000FF"/>
<path fill-rule="evenodd" clip-rule="evenodd" d="M82.63 538.37V522.31L81.02 529.59L82.63 538.37Z" fill="#0000FF"/>
<path fill-rule="evenodd" clip-rule="evenodd" d="M81.02 78.06L82.63 79.3L81.02 64.96V78.06Z" fill="#0000FF"/>
<path fill-rule="evenodd" clip-rule="evenodd" d="M82.63 79.3V63.65L81.02 64.96L82.63 79.3Z" fill="#0000FF"/>
<path fill-rule="evenodd" clip-rule="evenodd" d="M82.63 538.37L88.02 544.97L82.63 522.31V538.37Z" fill="#0000FF"/>
<path fill-rule="evenodd" clip-rule="evenodd" d="M88.02 544.97V519.7L82.63 522.31L88.02 544.97Z" fill="#0000FF"/>
<path fill-rule="evenodd" clip-rule="evenodd" d="M82.63 79.3L88.02 83.42L82.63 63.65V79.3Z" fill="#0000FF"/>
<path fill-rule="evenodd" clip-rule="evenodd" d="M88.02 83.42V59.26L82.63 63.65L88.02 83.42Z" fill="#0000FF"/>
<path fill-rule="evenodd" clip-rule="evenodd" d="M88.02 544.97L90.84 544.92L88.02 519.7V544.97Z" fill="#0000FF"/>
<path fill-rule="evenodd" clip-rule="evenodd" d="M90.84 544.92V518.33L88.02 519.7L90.84 544.92Z" fill="#0000FF"/>
<path fill-rule="evenodd" clip-rule="evenodd" d="M88.02 83.42L90.84 85.58L88.02 59.26V83.42Z" fill="#0000FF"/>
<path fill-rule="evenodd" clip-rule="evenodd" d="M90.84 85.58V56.95L88.02 59.26L90.84 85.58Z" fill="#0000FF"/>
<path fill-rule="evenodd" clip-rule="evenodd" d="M90.84 544.92H91.3L90.84 518.33V544.92Z" fill="#0000FF"/>
<path fill-rule="evenodd" clip-rule="evenodd" d="M91.3 544.92V518.11L90.84 518.33L91.3 544.92Z" fill="#0000FF"/>
<path fill-rule="evenodd" clip-rule="evenodd" d="M90.84 85.58L91.3 85.93L90.84 56.95V85.58Z" fill="#0000FF"/>
<path fill-rule="evenodd" clip-rule="evenodd" d="M91.3 85.93V57.05L90.84 56.95L91.3 85.93Z" fill="#0000FF"/>
<path fill-rule="evenodd" clip-rule="evenodd" d="M91.3 544.92L94.28 544.87L91.3 518.11V544.92Z" fill="#0000FF"/>
<path fill-rule="evenodd" clip-rule="evenodd" d="M94.28 544.87V516.67L91.3 518.11L94.28 544.87Z" fill="#0000FF"/>
<path fill-rule="evenodd" clip-rule="evenodd" d="M91.3 85.93L94.28 86.23L91.3 57.05V85.93Z" fill="#0000FF"/>
<path fill-rule="evenodd" clip-rule="evenodd" d="M94.28 86.23V57.71L91.3 57.05L94.28 86.23Z" fill="#0000FF"/>
<path fill-rule="evenodd" clip-rule="evenodd" d="M94.28 544.87L100.95 544.77L94.28 516.67V544.87Z" fill="#0000FF"/>
<path fill-rule="evenodd" clip-rule="evenodd" d="M100.95 544.77V518.99L94.28 516.67L100.95 544.77Z" fill="#0000FF"/>
<path fill-rule="evenodd" clip-rule="evenodd" d="M94.28 86.23L100.95 83L94.28 57.71V86.23Z" fill="#0000FF"/>
<path fill-rule="evenodd" clip-rule="evenodd" d="M100.95 83V59.18L94.28 57.71L100.95 83Z" fill="#0000FF"/>
<path fill-rule="evenodd" clip-rule="evenodd" d="M100.95 544.77L103.48 541.47L100.95 518.99V544.77Z" fill="#0000FF"/>
<path fill-rule="evenodd" clip-rule="evenodd" d="M103.48 541.47V519.86L100.95 518.99L103.48 541.47Z" fill="#0000FF"/>
<path fill-rule="evenodd" clip-rule="evenodd" d="M100.95 83L103.48 81.77L100.95 59.18V83Z" fill="#0000FF"/>
<path fill-rule="evenodd" clip-rule="evenodd" d="M103.48 81.77V59.74L100.95 59.18L103.48 81.77Z" fill="#0000FF"/>
<path fill-rule="evenodd" clip-rule="evenodd" d="M103.48 541.47L105.92 538.27L103.48 519.86V541.47Z" fill="#0000FF"/>
<path fill-rule="evenodd" clip-rule="evenodd" d="M105.92 538.27V524.91L103.48 519.86L105.92 538.27Z" fill="#0000FF"/>
<path fill-rule="evenodd" clip-rule="evenodd" d="M103.48 81.77L105.92 80.59L103.48 59.74V81.77Z" fill="#0000FF"/>
<path fill-rule="evenodd" clip-rule="evenodd" d="M105.92 80.59V64.79L103.48 59.74L105.92 80.59Z" fill="#0000FF"/>
<path fill-rule="evenodd" clip-rule="evenodd" d="M105.92 538.27L108.82 534.49L105.92 524.91V538.27Z" fill="#0000FF"/>
<path fill-rule="evenodd" clip-rule="evenodd" d="M108.82 534.49V530.89L105.92 524.91L108.82 534.49Z" fill="#0000FF"/>
<path fill-rule="evenodd" clip-rule="evenodd" d="M105.92 80.59L108.82 72.26L105.92 64.79V80.59Z" fill="#0000FF"/>
<path fill-rule="evenodd" clip-rule="evenodd" d="M108.82 72.26V70.76L105.92 64.79L108.82 72.26Z" fill="#0000FF"/>
<path fill-rule="evenodd" clip-rule="evenodd" d="M108.82 534.49L109.12 531.51L108.82 530.89V534.49Z" fill="#0000FF"/>
<path fill-rule="evenodd" clip-rule="evenodd" d="M108.82 72.26L109.12 71.39L108.82 70.76V72.26Z" fill="#0000FF"/>
<path d="M94.28 598.3V4.60001" stroke="black" stroke-width="6"/>
<path d="M64.59 115.92L60.48 116.11L56.41 116.67L52.41 117.62L48.51 118.92L44.74 120.58L41.15 122.59L37.76 124.91L34.59 127.54L31.68 130.45L29.06 133.61L26.73 137L24.73 140.6L23.07 144.36L21.76 148.26L20.82 152.26L20.25 156.34L20.06 160.44L20.25 164.55L20.82 168.63L21.76 172.63L23.07 176.53L24.73 180.29L26.73 183.88L29.06 187.28L31.68 190.44L34.59 193.35L37.76 195.98L41.15 198.3L44.74 200.3L48.51 201.96L52.41 203.27L56.41 204.21L60.48 204.78L64.59 204.97" stroke="black" stroke-width="6"/>
<path d="M64.59 115.92H183.33" stroke="black" stroke-width="6"/>
<path d="M109.12 71.39L108.93 69.01ZM108.93 69.01L108.36 66.69ZM108.36 66.69L107.42 64.49ZM107.42 64.49L106.14 62.47ZM106.14 62.47L104.56 60.68ZM104.56 60.68L102.71 59.17ZM102.71 59.17L100.64 57.98ZM100.64 57.98L98.41 57.13ZM98.41 57.13L96.07 56.65ZM96.07 56.65L93.68 56.56ZM93.68 56.56L91.31 56.84ZM91.31 56.84L89.01 57.51ZM89.01 57.51L86.86 58.53ZM86.86 58.53L84.89 59.89ZM84.89 59.89L83.17 61.55ZM83.17 61.55L81.73 63.45ZM81.73 63.45L80.62 65.57ZM80.62 65.57L79.87 67.84ZM79.87 67.84L79.48 70.19ZM79.48 70.19V72.58ZM79.48 72.58L79.87 74.94ZM79.87 74.94L80.62 77.21ZM80.62 77.21L81.73 79.32ZM81.73 79.32L83.17 81.23ZM83.17 81.23L84.89 82.88ZM84.89 82.88L86.86 84.24ZM86.86 84.24L89.01 85.27ZM89.01 85.27L91.31 85.93ZM91.31 85.93L93.68 86.22ZM93.68 86.22L96.07 86.12ZM96.07 86.12L98.41 85.64ZM98.41 85.64L100.64 84.8ZM100.64 84.8L102.71 83.6ZM102.71 83.6L104.56 82.09ZM104.56 82.09L106.14 80.3ZM106.14 80.3L107.42 78.29ZM107.42 78.29L108.36 76.09ZM108.36 76.09L108.93 73.77ZM108.93 73.77L109.12 71.39Z" stroke="black" stroke-width="0.5"/>
<path d="M109.12 531.51L108.93 529.13ZM108.93 529.13L108.36 526.81ZM108.36 526.81L107.42 524.61ZM107.42 524.61L106.14 522.59ZM106.14 522.59L104.56 520.81ZM104.56 520.81L102.71 519.29ZM102.71 519.29L100.64 518.1ZM100.64 518.1L98.41 517.25ZM98.41 517.25L96.07 516.78ZM96.07 516.78L93.68 516.68ZM93.68 516.68L91.31 516.97ZM91.31 516.97L89.01 517.63ZM89.01 517.63L86.86 518.66ZM86.86 518.66L84.89 520.01ZM84.89 520.01L83.17 521.67ZM83.17 521.67L81.73 523.58ZM81.73 523.58L80.62 525.69ZM80.62 525.69L79.87 527.96ZM79.87 527.96L79.48 530.32ZM79.48 530.32V532.7ZM79.48 532.7L79.87 535.06ZM79.87 535.06L80.62 537.33ZM80.62 537.33L81.73 539.44ZM81.73 539.44L83.17 541.35ZM83.17 541.35L84.89 543.01ZM84.89 543.01L86.86 544.36ZM86.86 544.36L89.01 545.39ZM89.01 545.39L91.31 546.05ZM91.31 546.05L93.68 546.34ZM93.68 546.34L96.07 546.24ZM96.07 546.24L98.41 545.77ZM98.41 545.77L100.64 544.92ZM100.64 544.92L102.71 543.73ZM102.71 543.73L104.56 542.21ZM104.56 542.21L106.14 540.43ZM106.14 540.43L107.42 538.41ZM107.42 538.41L108.36 536.21ZM108.36 536.21L108.93 533.89ZM108.93 533.89L109.12 531.51Z" stroke="black" stroke-width="0.5"/>
<path d="M64.59 294.03H183.33" stroke="black" stroke-width="6"/>
<path d="M64.59 204.97L60.48 205.16L56.41 205.73L52.41 206.67L48.51 207.98L44.74 209.64L41.15 211.64L37.76 213.97L34.59 216.59L31.68 219.5L29.06 222.67L26.73 226.06L24.73 229.65L23.07 233.41L21.76 237.31L20.82 241.32L20.25 245.39L20.06 249.5L20.25 253.61L20.82 257.68L21.76 261.69L23.07 265.58L24.73 269.35L26.73 272.94L29.06 276.33L31.68 279.5L34.59 282.41L37.76 285.03L41.15 287.36L44.74 289.36L48.51 291.02L52.41 292.33L56.41 293.27L60.48 293.84L64.59 294.03" stroke="black" stroke-width="6"/>
<path d="M64.59 308.87L60.48 309.06L56.41 309.63L52.41 310.57L48.51 311.88L44.74 313.54L41.15 315.54L37.76 317.86L34.59 320.49L31.68 323.4L29.06 326.56L26.73 329.96L24.73 333.55L23.07 337.31L21.76 341.21L20.82 345.22L20.25 349.29L20.06 353.4L20.25 357.51L20.82 361.58L21.76 365.58L23.07 369.48L24.73 373.25L26.73 376.84L29.06 380.23L31.68 383.4L34.59 386.3L37.76 388.93L41.15 391.26L44.74 393.26L48.51 394.92L52.41 396.23L56.41 397.17L60.48 397.74L64.59 397.93" stroke="black" stroke-width="6"/>
<path d="M64.59 308.87H183.33" stroke="black" stroke-width="6"/>
<path d="M64.59 486.98H183.33" stroke="black" stroke-width="6"/>
<path d="M64.59 397.93L60.48 398.12L56.41 398.68L52.41 399.63L48.51 400.93L44.74 402.59L41.15 404.6L37.76 406.92L34.59 409.55L31.68 412.46L29.06 415.62L26.73 419.01L24.73 422.61L23.07 426.37L21.76 430.27L20.82 434.27L20.25 438.35L20.06 442.45L20.25 446.56L20.82 450.64L21.76 454.64L23.07 458.54L24.73 462.3L26.73 465.9L29.06 469.29L31.68 472.45L34.59 475.36L37.76 477.99L41.15 480.31L44.74 482.31L48.51 483.98L52.41 485.28L56.41 486.22L60.48 486.79L64.59 486.98" stroke="black" stroke-width="6"/>
<path fill-rule="evenodd" clip-rule="evenodd" d="M80.82 536.15V530.5L79.84 534.94L80.82 536.15Z" fill="#0000FF"/>
<path fill-rule="evenodd" clip-rule="evenodd" d="M80.82 536.15L81.02 536.39L80.82 530.5V536.15Z" fill="#0000FF"/>
<path fill-rule="evenodd" clip-rule="evenodd" d="M81.02 536.39V529.59L80.82 530.5L81.02 536.39Z" fill="#0000FF"/>
<path fill-rule="evenodd" clip-rule="evenodd" d="M81.02 78.06V64.96L80.82 65.13L81.02 78.06Z" fill="#0000FF"/>
<path fill-rule="evenodd" clip-rule="evenodd" d="M81.02 536.39L82.63 538.37L81.02 529.59V536.39Z" fill="#0000FF"/>
<path fill-rule="evenodd" clip-rule="evenodd" d="M82.63 538.37V522.31L81.02 529.59L82.63 538.37Z" fill="#0000FF"/>
<path fill-rule="evenodd" clip-rule="evenodd" d="M81.02 78.06L82.63 79.3L81.02 64.96V78.06Z" fill="#0000FF"/>
<path fill-rule="evenodd" clip-rule="evenodd" d="M82.63 79.3V63.65L81.02 64.96L82.63 79.3Z" fill="#0000FF"/>
<path fill-rule="evenodd" clip-rule="evenodd" d="M82.63 538.37L88.02 544.97L82.63 522.31V538.37Z" fill="#0000FF"/>
<path fill-rule="evenodd" clip-rule="evenodd" d="M88.02 544.97V519.7L82.63 522.31L88.02 544.97Z" fill="#0000FF"/>
<path fill-rule="evenodd" clip-rule="evenodd" d="M82.63 79.3L88.02 83.42L82.63 63.65V79.3Z" fill="#0000FF"/>
<path fill-rule="evenodd" clip-rule="evenodd" d="M88.02 83.42V59.26L82.63 63.65L88.02 83.42Z" fill="#0000FF"/>
<path fill-rule="evenodd" clip-rule="evenodd" d="M88.02 544.97L90.84 544.92L88.02 519.7V544.97Z" fill="#0000FF"/>
<path fill-rule="evenodd" clip-rule="evenodd" d="M90.84 544.92V518.33L88.02 519.7L90.84 544.92Z" fill="#0000FF"/>
<path fill-rule="evenodd" clip-rule="evenodd" d="M88.02 83.42L90.84 85.58L88.02 59.26V83.42Z" fill="#0000FF"/>
<path fill-rule="evenodd" clip-rule="evenodd" d="M90.84 85.58V56.95L88.02 59.26L90.84 85.58Z" fill="#0000FF"/>
<path fill-rule="evenodd" clip-rule="evenodd" d="M90.84 544.92H91.3L90.84 518.33V544.92Z" fill="#0000FF"/>
<path fill-rule="evenodd" clip-rule="evenodd" d="M91.3 544.92V518.11L90.84 518.33L91.3 544.92Z" fill="#0000FF"/>
<path fill-rule="evenodd" clip-rule="evenodd" d="M90.84 85.58L91.3 85.93L90.84 56.95V85.58Z" fill="#0000FF"/>
<path fill-rule="evenodd" clip-rule="evenodd" d="M91.3 85.93V57.05L90.84 56.95L91.3 85.93Z" fill="#0000FF"/>
<path fill-rule="evenodd" clip-rule="evenodd" d="M91.3 544.92L94.28 544.87L91.3 518.11V544.92Z" fill="#0000FF"/>
<path fill-rule="evenodd" clip-rule="evenodd" d="M94.28 544.87V516.67L91.3 518.11L94.28 544.87Z" fill="#0000FF"/>
<path fill-rule="evenodd" clip-rule="evenodd" d="M91.3 85.93L94.28 86.23L91.3 57.05V85.93Z" fill="#0000FF"/>
<path fill-rule="evenodd" clip-rule="evenodd" d="M94.28 86.23V57.71L91.3 57.05L94.28 86.23Z" fill="#0000FF"/>
<path fill-rule="evenodd" clip-rule="evenodd" d="M94.28 544.87L100.95 544.77L94.28 516.67V544.87Z" fill="#0000FF"/>
<path fill-rule="evenodd" clip-rule="evenodd" d="M100.95 544.77V518.99L94.28 516.67L100.95 544.77Z" fill="#0000FF"/>
<path fill-rule="evenodd" clip-rule="evenodd" d="M94.28 86.23L100.95 83L94.28 57.71V86.23Z" fill="#0000FF"/>
<path fill-rule="evenodd" clip-rule="evenodd" d="M100.95 83V59.18L94.28 57.71L100.95 83Z" fill="#0000FF"/>
<path fill-rule="evenodd" clip-rule="evenodd" d="M100.95 544.77L103.48 541.47L100.95 518.99V544.77Z" fill="#0000FF"/>
<path fill-rule="evenodd" clip-rule="evenodd" d="M103.48 541.47V519.86L100.95 518.99L103.48 541.47Z" fill="#0000FF"/>
<path fill-rule="evenodd" clip-rule="evenodd" d="M100.95 83L103.48 81.77L100.95 59.18V83Z" fill="#0000FF"/>
<path fill-rule="evenodd" clip-rule="evenodd" d="M103.48 81.77V59.74L100.95 59.18L103.48 81.77Z" fill="#0000FF"/>
<path fill-rule="evenodd" clip-rule="evenodd" d="M103.48 541.47L105.92 538.27L103.48 519.86V541.47Z" fill="#0000FF"/>
<path fill-rule="evenodd" clip-rule="evenodd" d="M105.92 538.27V524.91L103.48 519.86L105.92 538.27Z" fill="#0000FF"/>
<path fill-rule="evenodd" clip-rule="evenodd" d="M103.48 81.77L105.92 80.59L103.48 59.74V81.77Z" fill="#0000FF"/>
<path fill-rule="evenodd" clip-rule="evenodd" d="M105.92 80.59V64.79L103.48 59.74L105.92 80.59Z" fill="#0000FF"/>
<path fill-rule="evenodd" clip-rule="evenodd" d="M105.92 538.27L108.82 534.49L105.92 524.91V538.27Z" fill="#0000FF"/>
<path fill-rule="evenodd" clip-rule="evenodd" d="M108.82 534.49V530.89L105.92 524.91L108.82 534.49Z" fill="#0000FF"/>
<path fill-rule="evenodd" clip-rule="evenodd" d="M105.92 80.59L108.82 72.26L105.92 64.79V80.59Z" fill="#0000FF"/>
<path fill-rule="evenodd" clip-rule="evenodd" d="M108.82 72.26V70.76L105.92 64.79L108.82 72.26Z" fill="#0000FF"/>
<path fill-rule="evenodd" clip-rule="evenodd" d="M108.82 534.49L109.12 531.51L108.82 530.89V534.49Z" fill="#0000FF"/>
<path fill-rule="evenodd" clip-rule="evenodd" d="M108.82 72.26L109.12 71.39L108.82 70.76V72.26Z" fill="#0000FF"/>
<path d="M94.28 598.3V4.60001" stroke="black" stroke-width="6"/>
<path d="M64.59 115.92L60.48 116.11L56.41 116.67L52.41 117.62L48.51 118.92L44.74 120.58L41.15 122.59L37.76 124.91L34.59 127.54L31.68 130.45L29.06 133.61L26.73 137L24.73 140.6L23.07 144.36L21.76 148.26L20.82 152.26L20.25 156.34L20.06 160.44L20.25 164.55L20.82 168.63L21.76 172.63L23.07 176.53L24.73 180.29L26.73 183.88L29.06 187.28L31.68 190.44L34.59 193.35L37.76 195.98L41.15 198.3L44.74 200.3L48.51 201.96L52.41 203.27L56.41 204.21L60.48 204.78L64.59 204.97" stroke="black" stroke-width="6"/>
<path d="M64.59 115.92H183.33" stroke="black" stroke-width="6"/>
<path d="M109.12 71.39L108.93 69.01ZM108.93 69.01L108.36 66.69ZM108.36 66.69L107.42 64.49ZM107.42 64.49L106.14 62.47ZM106.14 62.47L104.56 60.68ZM104.56 60.68L102.71 59.17ZM102.71 59.17L100.64 57.98ZM100.64 57.98L98.41 57.13ZM98.41 57.13L96.07 56.65ZM96.07 56.65L93.68 56.56ZM93.68 56.56L91.31 56.84ZM91.31 56.84L89.01 57.51ZM89.01 57.51L86.86 58.53ZM86.86 58.53L84.89 59.89ZM84.89 59.89L83.17 61.55ZM83.17 61.55L81.73 63.45ZM81.73 63.45L80.62 65.57ZM80.62 65.57L79.87 67.84ZM79.87 67.84L79.48 70.19ZM79.48 70.19V72.58ZM79.48 72.58L79.87 74.94ZM79.87 74.94L80.62 77.21ZM80.62 77.21L81.73 79.32ZM81.73 79.32L83.17 81.23ZM83.17 81.23L84.89 82.88ZM84.89 82.88L86.86 84.24ZM86.86 84.24L89.01 85.27ZM89.01 85.27L91.31 85.93ZM91.31 85.93L93.68 86.22ZM93.68 86.22L96.07 86.12ZM96.07 86.12L98.41 85.64ZM98.41 85.64L100.64 84.8ZM100.64 84.8L102.71 83.6ZM102.71 83.6L104.56 82.09ZM104.56 82.09L106.14 80.3ZM106.14 80.3L107.42 78.29ZM107.42 78.29L108.36 76.09ZM108.36 76.09L108.93 73.77ZM108.93 73.77L109.12 71.39Z" stroke="black" stroke-width="0.5"/>
<path d="M109.12 531.51L108.93 529.13ZM108.93 529.13L108.36 526.81ZM108.36 526.81L107.42 524.61ZM107.42 524.61L106.14 522.59ZM106.14 522.59L104.56 520.81ZM104.56 520.81L102.71 519.29ZM102.71 519.29L100.64 518.1ZM100.64 518.1L98.41 517.25ZM98.41 517.25L96.07 516.78ZM96.07 516.78L93.68 516.68ZM93.68 516.68L91.31 516.97ZM91.31 516.97L89.01 517.63ZM89.01 517.63L86.86 518.66ZM86.86 518.66L84.89 520.01ZM84.89 520.01L83.17 521.67ZM83.17 521.67L81.73 523.58ZM81.73 523.58L80.62 525.69ZM80.62 525.69L79.87 527.96ZM79.87 527.96L79.48 530.32ZM79.48 530.32V532.7ZM79.48 532.7L79.87 535.06ZM79.87 535.06L80.62 537.33ZM80.62 537.33L81.73 539.44ZM81.73 539.44L83.17 541.35ZM83.17 541.35L84.89 543.01ZM84.89 543.01L86.86 544.36ZM86.86 544.36L89.01 545.39ZM89.01 545.39L91.31 546.05ZM91.31 546.05L93.68 546.34ZM93.68 546.34L96.07 546.24ZM96.07 546.24L98.41 545.77ZM98.41 545.77L100.64 544.92ZM100.64 544.92L102.71 543.73ZM102.71 543.73L104.56 542.21ZM104.56 542.21L106.14 540.43ZM106.14 540.43L107.42 538.41ZM107.42 538.41L108.36 536.21ZM108.36 536.21L108.93 533.89ZM108.93 533.89L109.12 531.51Z" stroke="black" stroke-width="0.5"/>
<path d="M64.59 294.03H183.33" stroke="black" stroke-width="6"/>
<path d="M64.59 204.97L60.48 205.16L56.41 205.73L52.41 206.67L48.51 207.98L44.74 209.64L41.15 211.64L37.76 213.97L34.59 216.59L31.68 219.5L29.06 222.67L26.73 226.06L24.73 229.65L23.07 233.41L21.76 237.31L20.82 241.32L20.25 245.39L20.06 249.5L20.25 253.61L20.82 257.68L21.76 261.69L23.07 265.58L24.73 269.35L26.73 272.94L29.06 276.33L31.68 279.5L34.59 282.41L37.76 285.03L41.15 287.36L44.74 289.36L48.51 291.02L52.41 292.33L56.41 293.27L60.48 293.84L64.59 294.03" stroke="black" stroke-width="6"/>
<path d="M64.59 308.87L60.48 309.06L56.41 309.63L52.41 310.57L48.51 311.88L44.74 313.54L41.15 315.54L37.76 317.86L34.59 320.49L31.68 323.4L29.06 326.56L26.73 329.96L24.73 333.55L23.07 337.31L21.76 341.21L20.82 345.22L20.25 349.29L20.06 353.4L20.25 357.51L20.82 361.58L21.76 365.58L23.07 369.48L24.73 373.25L26.73 376.84L29.06 380.23L31.68 383.4L34.59 386.3L37.76 388.93L41.15 391.26L44.74 393.26L48.51 394.92L52.41 396.23L56.41 397.17L60.48 397.74L64.59 397.93" stroke="black" stroke-width="6"/>
<path d="M64.59 308.87H183.33" stroke="black" stroke-width="6"/>
<path d="M64.59 486.98H183.33" stroke="black" stroke-width="6"/>
<path d="M64.59 397.93L60.48 398.12L56.41 398.68L52.41 399.63L48.51 400.93L44.74 402.59L41.15 404.6L37.76 406.92L34.59 409.55L31.68 412.46L29.06 415.62L26.73 419.01L24.73 422.61L23.07 426.37L21.76 430.27L20.82 434.27L20.25 438.35L20.06 442.45L20.25 446.56L20.82 450.64L21.76 454.64L23.07 458.54L24.73 462.3L26.73 465.9L29.06 469.29L31.68 472.45L34.59 475.36L37.76 477.99L41.15 480.31L44.74 482.31L48.51 483.98L52.41 485.28L56.41 486.22L60.48 486.79L64.59 486.98" stroke="black" stroke-width="6"/>
<path fill-rule="evenodd" clip-rule="evenodd" d="M80.82 536.15V530.5L79.84 534.94L80.82 536.15Z" fill="#0000FF"/>
<path fill-rule="evenodd" clip-rule="evenodd" d="M80.82 536.15L81.02 536.39L80.82 530.5V536.15Z" fill="#0000FF"/>
<path fill-rule="evenodd" clip-rule="evenodd" d="M81.02 536.39V529.59L80.82 530.5L81.02 536.39Z" fill="#0000FF"/>
<path fill-rule="evenodd" clip-rule="evenodd" d="M81.02 78.06V64.96L80.82 65.13L81.02 78.06Z" fill="#0000FF"/>
<path fill-rule="evenodd" clip-rule="evenodd" d="M81.02 536.39L82.63 538.37L81.02 529.59V536.39Z" fill="#0000FF"/>
<path fill-rule="evenodd" clip-rule="evenodd" d="M82.63 538.37V522.31L81.02 529.59L82.63 538.37Z" fill="#0000FF"/>
<path fill-rule="evenodd" clip-rule="evenodd" d="M81.02 78.06L82.63 79.3L81.02 64.96V78.06Z" fill="#0000FF"/>
<path fill-rule="evenodd" clip-rule="evenodd" d="M82.63 79.3V63.65L81.02 64.96L82.63 79.3Z" fill="#0000FF"/>
<path fill-rule="evenodd" clip-rule="evenodd" d="M82.63 538.37L88.02 544.97L82.63 522.31V538.37Z" fill="#0000FF"/>
<path fill-rule="evenodd" clip-rule="evenodd" d="M88.02 544.97V519.7L82.63 522.31L88.02 544.97Z" fill="#0000FF"/>
<path fill-rule="evenodd" clip-rule="evenodd" d="M82.63 79.3L88.02 83.42L82.63 63.65V79.3Z" fill="#0000FF"/>
<path fill-rule="evenodd" clip-rule="evenodd" d="M88.02 83.42V59.26L82.63 63.65L88.02 83.42Z" fill="#0000FF"/>
<path fill-rule="evenodd" clip-rule="evenodd" d="M88.02 544.97L90.84 544.92L88.02 519.7V544.97Z" fill="#0000FF"/>
<path fill-rule="evenodd" clip-rule="evenodd" d="M90.84 544.92V518.33L88.02 519.7L90.84 544.92Z" fill="#0000FF"/>
<path fill-rule="evenodd" clip-rule="evenodd" d="M88.02 83.42L90.84 85.58L88.02 59.26V83.42Z" fill="#0000FF"/>
<path fill-rule="evenodd" clip-rule="evenodd" d="M90.84 85.58V56.95L88.02 59.26L90.84 85.58Z" fill="#0000FF"/>
<path fill-rule="evenodd" clip-rule="evenodd" d="M90.84 544.92H91.3L90.84 518.33V544.92Z" fill="#0000FF"/>
<path fill-rule="evenodd" clip-rule="evenodd" d="M91.3 544.92V518.11L90.84 518.33L91.3 544.92Z" fill="#0000FF"/>
<path fill-rule="evenodd" clip-rule="evenodd" d="M90.84 85.58L91.3 85.93L90.84 56.95V85.58Z" fill="#0000FF"/>
<path fill-rule="evenodd" clip-rule="evenodd" d="M91.3 85.93V57.05L90.84 56.95L91.3 85.93Z" fill="#0000FF"/>
<path fill-rule="evenodd" clip-rule="evenodd" d="M91.3 544.92L94.28 544.87L91.3 518.11V544.92Z" fill="#0000FF"/>
<path fill-rule="evenodd" clip-rule="evenodd" d="M94.28 544.87V516.67L91.3 518.11L94.28 544.87Z" fill="#0000FF"/>
<path fill-rule="evenodd" clip-rule="evenodd" d="M91.3 85.93L94.28 86.23L91.3 57.05V85.93Z" fill="#0000FF"/>
<path fill-rule="evenodd" clip-rule="evenodd" d="M94.28 86.23V57.71L91.3 57.05L94.28 86.23Z" fill="#0000FF"/>
<path fill-rule="evenodd" clip-rule="evenodd" d="M94.28 544.87L100.95 544.77L94.28 516.67V544.87Z" fill="#0000FF"/>
<path fill-rule="evenodd" clip-rule="evenodd" d="M100.95 544.77V518.99L94.28 516.67L100.95 544.77Z" fill="#0000FF"/>
<path fill-rule="evenodd" clip-rule="evenodd" d="M94.28 86.23L100.95 83L94.28 57.71V86.23Z" fill="#0000FF"/>
<path fill-rule="evenodd" clip-rule="evenodd" d="M100.95 83V59.18L94.28 57.71L100.95 83Z" fill="#0000FF"/>
<path fill-rule="evenodd" clip-rule="evenodd" d="M100.95 544.77L103.48 541.47L100.95 518.99V544.77Z" fill="#0000FF"/>
<path fill-rule="evenodd" clip-rule="evenodd" d="M103.48 541.47V519.86L100.95 518.99L103.48 541.47Z" fill="#0000FF"/>
<path fill-rule="evenodd" clip-rule="evenodd" d="M100.95 83L103.48 81.77L100.95 59.18V83Z" fill="#0000FF"/>
<path fill-rule="evenodd" clip-rule="evenodd" d="M103.48 81.77V59.74L100.95 59.18L103.48 81.77Z" fill="#0000FF"/>
<path fill-rule="evenodd" clip-rule="evenodd" d="M103.48 541.47L105.92 538.27L103.48 519.86V541.47Z" fill="#0000FF"/>
<path fill-rule="evenodd" clip-rule="evenodd" d="M105.92 538.27V524.91L103.48 519.86L105.92 538.27Z" fill="#0000FF"/>
<path fill-rule="evenodd" clip-rule="evenodd" d="M103.48 81.77L105.92 80.59L103.48 59.74V81.77Z" fill="#0000FF"/>
<path fill-rule="evenodd" clip-rule="evenodd" d="M105.92 80.59V64.79L103.48 59.74L105.92 80.59Z" fill="#0000FF"/>
<path fill-rule="evenodd" clip-rule="evenodd" d="M105.92 538.27L108.82 534.49L105.92 524.91V538.27Z" fill="#0000FF"/>
<path fill-rule="evenodd" clip-rule="evenodd" d="M108.82 534.49V530.89L105.92 524.91L108.82 534.49Z" fill="#0000FF"/>
<path fill-rule="evenodd" clip-rule="evenodd" d="M105.92 80.59L108.82 72.26L105.92 64.79V80.59Z" fill="#0000FF"/>
<path fill-rule="evenodd" clip-rule="evenodd" d="M108.82 72.26V70.76L105.92 64.79L108.82 72.26Z" fill="#0000FF"/>
<path fill-rule="evenodd" clip-rule="evenodd" d="M108.82 534.49L109.12 531.51L108.82 530.89V534.49Z" fill="#0000FF"/>
<path fill-rule="evenodd" clip-rule="evenodd" d="M108.82 72.26L109.12 71.39L108.82 70.76V72.26Z" fill="#0000FF"/>
<path d="M94.28 598.3V4.60001" stroke="black" stroke-width="6"/>
<path d="M64.59 115.92L60.48 116.11L56.41 116.67L52.41 117.62L48.51 118.92L44.74 120.58L41.15 122.59L37.76 124.91L34.59 127.54L31.68 130.45L29.06 133.61L26.73 137L24.73 140.6L23.07 144.36L21.76 148.26L20.82 152.26L20.25 156.34L20.06 160.44L20.25 164.55L20.82 168.63L21.76 172.63L23.07 176.53L24.73 180.29L26.73 183.88L29.06 187.28L31.68 190.44L34.59 193.35L37.76 195.98L41.15 198.3L44.74 200.3L48.51 201.96L52.41 203.27L56.41 204.21L60.48 204.78L64.59 204.97" stroke="black" stroke-width="6"/>
<path d="M64.59 115.92H183.33" stroke="black" stroke-width="6"/>
<path d="M109.12 71.39L108.93 69.01ZM108.93 69.01L108.36 66.69ZM108.36 66.69L107.42 64.49ZM107.42 64.49L106.14 62.47ZM106.14 62.47L104.56 60.68ZM104.56 60.68L102.71 59.17ZM102.71 59.17L100.64 57.98ZM100.64 57.98L98.41 57.13ZM98.41 57.13L96.07 56.65ZM96.07 56.65L93.68 56.56ZM93.68 56.56L91.31 56.84ZM91.31 56.84L89.01 57.51ZM89.01 57.51L86.86 58.53ZM86.86 58.53L84.89 59.89ZM84.89 59.89L83.17 61.55ZM83.17 61.55L81.73 63.45ZM81.73 63.45L80.62 65.57ZM80.62 65.57L79.87 67.84ZM79.87 67.84L79.48 70.19ZM79.48 70.19V72.58ZM79.48 72.58L79.87 74.94ZM79.87 74.94L80.62 77.21ZM80.62 77.21L81.73 79.32ZM81.73 79.32L83.17 81.23ZM83.17 81.23L84.89 82.88ZM84.89 82.88L86.86 84.24ZM86.86 84.24L89.01 85.27ZM89.01 85.27L91.31 85.93ZM91.31 85.93L93.68 86.22ZM93.68 86.22L96.07 86.12ZM96.07 86.12L98.41 85.64ZM98.41 85.64L100.64 84.8ZM100.64 84.8L102.71 83.6ZM102.71 83.6L104.56 82.09ZM104.56 82.09L106.14 80.3ZM106.14 80.3L107.42 78.29ZM107.42 78.29L108.36 76.09ZM108.36 76.09L108.93 73.77ZM108.93 73.77L109.12 71.39Z" stroke="black" stroke-width="0.5"/>
<path d="M109.12 531.51L108.93 529.13ZM108.93 529.13L108.36 526.81ZM108.36 526.81L107.42 524.61ZM107.42 524.61L106.14 522.59ZM106.14 522.59L104.56 520.81ZM104.56 520.81L102.71 519.29ZM102.71 519.29L100.64 518.1ZM100.64 518.1L98.41 517.25ZM98.41 517.25L96.07 516.78ZM96.07 516.78L93.68 516.68ZM93.68 516.68L91.31 516.97ZM91.31 516.97L89.01 517.63ZM89.01 517.63L86.86 518.66ZM86.86 518.66L84.89 520.01ZM84.89 520.01L83.17 521.67ZM83.17 521.67L81.73 523.58ZM81.73 523.58L80.62 525.69ZM80.62 525.69L79.87 527.96ZM79.87 527.96L79.48 530.32ZM79.48 530.32V532.7ZM79.48 532.7L79.87 535.06ZM79.87 535.06L80.62 537.33ZM80.62 537.33L81.73 539.44ZM81.73 539.44L83.17 541.35ZM83.17 541.35L84.89 543.01ZM84.89 543.01L86.86 544.36ZM86.86 544.36L89.01 545.39ZM89.01 545.39L91.31 546.05ZM91.31 546.05L93.68 546.34ZM93.68 546.34L96.07 546.24ZM96.07 546.24L98.41 545.77ZM98.41 545.77L100.64 544.92ZM100.64 544.92L102.71 543.73ZM102.71 543.73L104.56 542.21ZM104.56 542.21L106.14 540.43ZM106.14 540.43L107.42 538.41ZM107.42 538.41L108.36 536.21ZM108.36 536.21L108.93 533.89ZM108.93 533.89L109.12 531.51Z" stroke="black" stroke-width="0.5"/>
<path d="M64.59 294.03H183.33" stroke="black" stroke-width="6"/>
<path d="M64.59 204.97L60.48 205.16L56.41 205.73L52.41 206.67L48.51 207.98L44.74 209.64L41.15 211.64L37.76 213.97L34.59 216.59L31.68 219.5L29.06 222.67L26.73 226.06L24.73 229.65L23.07 233.41L21.76 237.31L20.82 241.32L20.25 245.39L20.06 249.5L20.25 253.61L20.82 257.68L21.76 261.69L23.07 265.58L24.73 269.35L26.73 272.94L29.06 276.33L31.68 279.5L34.59 282.41L37.76 285.03L41.15 287.36L44.74 289.36L48.51 291.02L52.41 292.33L56.41 293.27L60.48 293.84L64.59 294.03" stroke="black" stroke-width="6"/>
<path d="M64.59 308.87L60.48 309.06L56.41 309.63L52.41 310.57L48.51 311.88L44.74 313.54L41.15 315.54L37.76 317.86L34.59 320.49L31.68 323.4L29.06 326.56L26.73 329.96L24.73 333.55L23.07 337.31L21.76 341.21L20.82 345.22L20.25 349.29L20.06 353.4L20.25 357.51L20.82 361.58L21.76 365.58L23.07 369.48L24.73 373.25L26.73 376.84L29.06 380.23L31.68 383.4L34.59 386.3L37.76 388.93L41.15 391.26L44.74 393.26L48.51 394.92L52.41 396.23L56.41 397.17L60.48 397.74L64.59 397.93" stroke="black" stroke-width="6"/>
<path d="M64.59 308.87H183.33" stroke="black" stroke-width="6"/>
<path d="M64.59 486.98H183.33" stroke="black" stroke-width="6"/>
<path d="M64.59 397.93L60.48 398.12L56.41 398.68L52.41 399.63L48.51 400.93L44.74 402.59L41.15 404.6L37.76 406.92L34.59 409.55L31.68 412.46L29.06 415.62L26.73 419.01L24.73 422.61L23.07 426.37L21.76 430.27L20.82 434.27L20.25 438.35L20.06 442.45L20.25 446.56L20.82 450.64L21.76 454.64L23.07 458.54L24.73 462.3L26.73 465.9L29.06 469.29L31.68 472.45L34.59 475.36L37.76 477.99L41.15 480.31L44.74 482.31L48.51 483.98L52.41 485.28L56.41 486.22L60.48 486.79L64.59 486.98" stroke="black" stroke-width="6"/>
<path fill-rule="evenodd" clip-rule="evenodd" d="M380.76 536.55V530.9L379.78 535.34L380.76 536.55Z" fill="#0000FF"/>
<path fill-rule="evenodd" clip-rule="evenodd" d="M380.76 536.55L380.96 536.79L380.76 530.9V536.55Z" fill="#0000FF"/>
<path fill-rule="evenodd" clip-rule="evenodd" d="M380.96 536.79V529.99L380.76 530.9L380.96 536.79Z" fill="#0000FF"/>
<path fill-rule="evenodd" clip-rule="evenodd" d="M380.96 78.46V65.36L380.76 65.53L380.96 78.46Z" fill="#0000FF"/>
<path fill-rule="evenodd" clip-rule="evenodd" d="M380.96 536.79L382.57 538.77L380.96 529.99V536.79Z" fill="#0000FF"/>
<path fill-rule="evenodd" clip-rule="evenodd" d="M382.57 538.77V522.71L380.96 529.99L382.57 538.77Z" fill="#0000FF"/>
<path fill-rule="evenodd" clip-rule="evenodd" d="M380.96 78.46L382.57 79.7L380.96 65.36V78.46Z" fill="#0000FF"/>
<path fill-rule="evenodd" clip-rule="evenodd" d="M382.57 79.7V64.05L380.96 65.36L382.57 79.7Z" fill="#0000FF"/>
<path fill-rule="evenodd" clip-rule="evenodd" d="M382.57 538.77L387.96 545.37L382.57 522.71V538.77Z" fill="#0000FF"/>
<path fill-rule="evenodd" clip-rule="evenodd" d="M387.96 545.37V520.1L382.57 522.71L387.96 545.37Z" fill="#0000FF"/>
<path fill-rule="evenodd" clip-rule="evenodd" d="M382.57 79.7L387.96 83.82L382.57 64.05V79.7Z" fill="#0000FF"/>
<path fill-rule="evenodd" clip-rule="evenodd" d="M387.96 83.82V59.66L382.57 64.05L387.96 83.82Z" fill="#0000FF"/>
<path fill-rule="evenodd" clip-rule="evenodd" d="M387.96 545.37L390.78 545.32L387.96 520.1V545.37Z" fill="#0000FF"/>
<path fill-rule="evenodd" clip-rule="evenodd" d="M390.78 545.32V518.73L387.96 520.1L390.78 545.32Z" fill="#0000FF"/>
<path fill-rule="evenodd" clip-rule="evenodd" d="M387.96 83.82L390.78 85.98L387.96 59.66V83.82Z" fill="#0000FF"/>
<path fill-rule="evenodd" clip-rule="evenodd" d="M390.78 85.98V57.35L387.96 59.66L390.78 85.98Z" fill="#0000FF"/>
<path fill-rule="evenodd" clip-rule="evenodd" d="M390.78 545.32H391.24L390.78 518.73V545.32Z" fill="#0000FF"/>
<path fill-rule="evenodd" clip-rule="evenodd" d="M391.24 545.32V518.51L390.78 518.73L391.24 545.32Z" fill="#0000FF"/>
<path fill-rule="evenodd" clip-rule="evenodd" d="M390.78 85.98L391.24 86.33L390.78 57.35V85.98Z" fill="#0000FF"/>
<path fill-rule="evenodd" clip-rule="evenodd" d="M391.24 86.33V57.45L390.78 57.35L391.24 86.33Z" fill="#0000FF"/>
<path fill-rule="evenodd" clip-rule="evenodd" d="M391.24 545.32L394.22 545.27L391.24 518.51V545.32Z" fill="#0000FF"/>
<path fill-rule="evenodd" clip-rule="evenodd" d="M394.22 545.27V517.07L391.24 518.51L394.22 545.27Z" fill="#0000FF"/>
<path fill-rule="evenodd" clip-rule="evenodd" d="M391.24 86.33L394.22 86.63L391.24 57.45V86.33Z" fill="#0000FF"/>
<path fill-rule="evenodd" clip-rule="evenodd" d="M394.22 86.63V58.11L391.24 57.45L394.22 86.63Z" fill="#0000FF"/>
<path fill-rule="evenodd" clip-rule="evenodd" d="M394.22 545.27L400.89 545.17L394.22 517.07V545.27Z" fill="#0000FF"/>
<path fill-rule="evenodd" clip-rule="evenodd" d="M400.89 545.17V519.39L394.22 517.07L400.89 545.17Z" fill="#0000FF"/>
<path fill-rule="evenodd" clip-rule="evenodd" d="M394.22 86.63L400.89 83.4L394.22 58.11V86.63Z" fill="#0000FF"/>
<path fill-rule="evenodd" clip-rule="evenodd" d="M400.89 83.4V59.58L394.22 58.11L400.89 83.4Z" fill="#0000FF"/>
<path fill-rule="evenodd" clip-rule="evenodd" d="M400.89 545.17L403.42 541.87L400.89 519.39V545.17Z" fill="#0000FF"/>
<path fill-rule="evenodd" clip-rule="evenodd" d="M403.42 541.87V520.26L400.89 519.39L403.42 541.87Z" fill="#0000FF"/>
<path fill-rule="evenodd" clip-rule="evenodd" d="M400.89 83.4L403.42 82.17L400.89 59.58V83.4Z" fill="#0000FF"/>
<path fill-rule="evenodd" clip-rule="evenodd" d="M403.42 82.17V60.14L400.89 59.58L403.42 82.17Z" fill="#0000FF"/>
<path fill-rule="evenodd" clip-rule="evenodd" d="M403.42 541.87L405.86 538.67L403.42 520.26V541.87Z" fill="#0000FF"/>
<path fill-rule="evenodd" clip-rule="evenodd" d="M405.86 538.67V525.31L403.42 520.26L405.86 538.67Z" fill="#0000FF"/>
<path fill-rule="evenodd" clip-rule="evenodd" d="M403.42 82.17L405.86 80.99L403.42 60.14V82.17Z" fill="#0000FF"/>
<path fill-rule="evenodd" clip-rule="evenodd" d="M405.86 80.99V65.19L403.42 60.14L405.86 80.99Z" fill="#0000FF"/>
<path fill-rule="evenodd" clip-rule="evenodd" d="M405.86 538.67L408.76 534.89L405.86 525.31V538.67Z" fill="#0000FF"/>
<path fill-rule="evenodd" clip-rule="evenodd" d="M408.76 534.89V531.29L405.86 525.31L408.76 534.89Z" fill="#0000FF"/>
<path fill-rule="evenodd" clip-rule="evenodd" d="M405.86 80.99L408.76 72.66L405.86 65.19V80.99Z" fill="#0000FF"/>
<path fill-rule="evenodd" clip-rule="evenodd" d="M408.76 72.66V71.16L405.86 65.19L408.76 72.66Z" fill="#0000FF"/>
<path fill-rule="evenodd" clip-rule="evenodd" d="M408.76 534.89L409.06 531.91L408.76 531.29V534.89Z" fill="#0000FF"/>
<path fill-rule="evenodd" clip-rule="evenodd" d="M408.76 72.66L409.06 71.79L408.76 71.16V72.66Z" fill="#0000FF"/>
<path d="M394.22 598.7V5" stroke="black" stroke-width="6"/>
<path d="M364.53 116.32L360.42 116.51L356.35 117.07L352.35 118.02L348.45 119.32L344.68 120.98L341.09 122.99L337.7 125.31L334.53 127.94L331.62 130.85L329 134.01L326.67 137.4L324.67 141L323.01 144.76L321.7 148.66L320.76 152.66L320.19 156.74L320 160.84L320.19 164.95L320.76 169.03L321.7 173.03L323.01 176.93L324.67 180.69L326.67 184.28L329 187.68L331.62 190.84L334.53 193.75L337.7 196.38L341.09 198.7L344.68 200.7L348.45 202.36L352.35 203.67L356.35 204.61L360.42 205.18L364.53 205.37" stroke="black" stroke-width="6"/>
<path d="M364.53 116.32H483.27" stroke="black" stroke-width="6"/>
<path d="M409.06 71.79L408.87 69.41ZM408.87 69.41L408.3 67.09ZM408.3 67.09L407.36 64.89ZM407.36 64.89L406.08 62.87ZM406.08 62.87L404.5 61.08ZM404.5 61.08L402.65 59.57ZM402.65 59.57L400.58 58.38ZM400.58 58.38L398.35 57.53ZM398.35 57.53L396.01 57.05ZM396.01 57.05L393.62 56.96ZM393.62 56.96L391.25 57.24ZM391.25 57.24L388.95 57.91ZM388.95 57.91L386.8 58.93ZM386.8 58.93L384.83 60.29ZM384.83 60.29L383.11 61.95ZM383.11 61.95L381.67 63.85ZM381.67 63.85L380.56 65.97ZM380.56 65.97L379.81 68.24ZM379.81 68.24L379.42 70.59ZM379.42 70.59V72.98ZM379.42 72.98L379.81 75.34ZM379.81 75.34L380.56 77.61ZM380.56 77.61L381.67 79.72ZM381.67 79.72L383.11 81.63ZM383.11 81.63L384.83 83.28ZM384.83 83.28L386.8 84.64ZM386.8 84.64L388.95 85.67ZM388.95 85.67L391.25 86.33ZM391.25 86.33L393.62 86.62ZM393.62 86.62L396.01 86.52ZM396.01 86.52L398.35 86.04ZM398.35 86.04L400.58 85.2ZM400.58 85.2L402.65 84ZM402.65 84L404.5 82.49ZM404.5 82.49L406.08 80.7ZM406.08 80.7L407.36 78.69ZM407.36 78.69L408.3 76.49ZM408.3 76.49L408.87 74.17ZM408.87 74.17L409.06 71.79Z" stroke="black" stroke-width="0.5"/>
<path d="M409.06 531.91L408.87 529.53ZM408.87 529.53L408.3 527.21ZM408.3 527.21L407.36 525.01ZM407.36 525.01L406.08 522.99ZM406.08 522.99L404.5 521.21ZM404.5 521.21L402.65 519.69ZM402.65 519.69L400.58 518.5ZM400.58 518.5L398.35 517.65ZM398.35 517.65L396.01 517.18ZM396.01 517.18L393.62 517.08ZM393.62 517.08L391.25 517.37ZM391.25 517.37L388.95 518.03ZM388.95 518.03L386.8 519.06ZM386.8 519.06L384.83 520.41ZM384.83 520.41L383.11 522.07ZM383.11 522.07L381.67 523.98ZM381.67 523.98L380.56 526.09ZM380.56 526.09L379.81 528.36ZM379.81 528.36L379.42 530.72ZM379.42 530.72V533.1ZM379.42 533.1L379.81 535.46ZM379.81 535.46L380.56 537.73ZM380.56 537.73L381.67 539.84ZM381.67 539.84L383.11 541.75ZM383.11 541.75L384.83 543.41ZM384.83 543.41L386.8 544.76ZM386.8 544.76L388.95 545.79ZM388.95 545.79L391.25 546.45ZM391.25 546.45L393.62 546.74ZM393.62 546.74L396.01 546.64ZM396.01 546.64L398.35 546.17ZM398.35 546.17L400.58 545.32ZM400.58 545.32L402.65 544.13ZM402.65 544.13L404.5 542.61ZM404.5 542.61L406.08 540.83ZM406.08 540.83L407.36 538.81ZM407.36 538.81L408.3 536.61ZM408.3 536.61L408.87 534.29ZM408.87 534.29L409.06 531.91Z" stroke="black" stroke-width="0.5"/>
<path d="M364.53 294.43H483.27" stroke="black" stroke-width="6"/>
<path d="M364.53 205.37L360.42 205.56L356.35 206.13L352.35 207.07L348.45 208.38L344.68 210.04L341.09 212.04L337.7 214.37L334.53 216.99L331.62 219.9L329 223.07L326.67 226.46L324.67 230.05L323.01 233.81L321.7 237.71L320.76 241.72L320.19 245.79L320 249.9L320.19 254.01L320.76 258.08L321.7 262.09L323.01 265.98L324.67 269.75L326.67 273.34L329 276.73L331.62 279.9L334.53 282.81L337.7 285.43L341.09 287.76L344.68 289.76L348.45 291.42L352.35 292.73L356.35 293.67L360.42 294.24L364.53 294.43" stroke="black" stroke-width="6"/>
<path d="M364.53 309.27L360.42 309.46L356.35 310.03L352.35 310.97L348.45 312.28L344.68 313.94L341.09 315.94L337.7 318.26L334.53 320.89L331.62 323.8L329 326.96L326.67 330.36L324.67 333.95L323.01 337.71L321.7 341.61L320.76 345.62L320.19 349.69L320 353.8L320.19 357.91L320.76 361.98L321.7 365.98L323.01 369.88L324.67 373.65L326.67 377.24L329 380.63L331.62 383.8L334.53 386.7L337.7 389.33L341.09 391.66L344.68 393.66L348.45 395.32L352.35 396.63L356.35 397.57L360.42 398.14L364.53 398.33" stroke="black" stroke-width="6"/>
<path d="M364.53 309.27H483.27" stroke="black" stroke-width="6"/>
<path d="M364.53 487.38H483.27" stroke="black" stroke-width="6"/>
<path d="M364.53 398.33L360.42 398.52L356.35 399.08L352.35 400.03L348.45 401.33L344.68 402.99L341.09 405L337.7 407.32L334.53 409.95L331.62 412.86L329 416.02L326.67 419.41L324.67 423.01L323.01 426.77L321.7 430.67L320.76 434.67L320.19 438.75L320 442.85L320.19 446.96L320.76 451.04L321.7 455.04L323.01 458.94L324.67 462.7L326.67 466.3L329 469.69L331.62 472.85L334.53 475.76L337.7 478.39L341.09 480.71L344.68 482.71L348.45 484.38L352.35 485.68L356.35 486.62L360.42 487.19L364.53 487.38" stroke="black" stroke-width="6"/>
</svg>
