<svg width="800" height="600" viewBox="0 0 800 600" fill="none" xmlns="http://www.w3.org/2000/svg">
<path d="M395.03 598.3V1.69995" stroke="black" stroke-width="4"/>
<path fill-rule="evenodd" clip-rule="evenodd" d="M88.92 587.98V577.22L87.05 585.69L88.92 587.98Z" fill="#0000FF"/>
<path fill-rule="evenodd" clip-rule="evenodd" d="M88.92 587.98L92.53 592.4L88.92 577.22V587.98Z" fill="#0000FF"/>
<path fill-rule="evenodd" clip-rule="evenodd" d="M92.53 592.4V575.48L88.92 577.22L92.53 592.4Z" fill="#0000FF"/>
<path fill-rule="evenodd" clip-rule="evenodd" d="M92.53 592.4L96.73 592.34L92.53 575.48V592.4Z" fill="#0000FF"/>
<path fill-rule="evenodd" clip-rule="evenodd" d="M96.73 592.34V573.44L92.53 575.48L96.73 592.34Z" fill="#0000FF"/>
<path fill-rule="evenodd" clip-rule="evenodd" d="M96.73 592.34L101.2 592.27L96.73 573.44V592.34Z" fill="#0000FF"/>
<path fill-rule="evenodd" clip-rule="evenodd" d="M101.2 592.27V575L96.73 573.44L101.2 592.27Z" fill="#0000FF"/>
<path fill-rule="evenodd" clip-rule="evenodd" d="M101.2 592.27L102.89 590.06L101.2 575V592.27Z" fill="#0000FF"/>
<path fill-rule="evenodd" clip-rule="evenodd" d="M102.89 590.06V575.59L101.2 575L102.89 590.06Z" fill="#0000FF"/>
<path fill-rule="evenodd" clip-rule="evenodd" d="M102.89 590.06L106.47 585.38L102.89 575.59V590.06Z" fill="#0000FF"/>
<path fill-rule="evenodd" clip-rule="evenodd" d="M106.47 585.38V582.97L102.89 575.59L106.47 585.38Z" fill="#0000FF"/>
<path fill-rule="evenodd" clip-rule="evenodd" d="M106.47 585.38L106.67 583.39L106.47 582.97V585.38Z" fill="#0000FF"/>
<path fill-rule="evenodd" clip-rule="evenodd" d="M87.85 21.0901V12.3101L87.71 12.4201L87.85 21.0901Z" fill="#0000FF"/>
<path fill-rule="evenodd" clip-rule="evenodd" d="M87.85 21.0901L94.43 26.1201L87.85 12.3101V21.0901Z" fill="#0000FF"/>
<path fill-rule="evenodd" clip-rule="evenodd" d="M94.43 26.1199V6.93994L87.85 12.3099L94.43 26.1199Z" fill="#0000FF"/>
<path fill-rule="evenodd" clip-rule="evenodd" d="M94.4301 26.1199L94.7301 26.3499L94.4301 6.93994V26.1199Z" fill="#0000FF"/>
<path fill-rule="evenodd" clip-rule="evenodd" d="M94.7301 26.3499V7.00994L94.4301 6.93994L94.7301 26.3499Z" fill="#0000FF"/>
<path fill-rule="evenodd" clip-rule="evenodd" d="M94.73 26.35L102.89 24.28L94.73 7.01001V26.35Z" fill="#0000FF"/>
<path fill-rule="evenodd" clip-rule="evenodd" d="M102.89 24.28V8.81001L94.73 7.01001L102.89 24.28Z" fill="#0000FF"/>
<path fill-rule="evenodd" clip-rule="evenodd" d="M102.89 24.2801L103.13 24.2201L102.89 8.81006V24.2801Z" fill="#0000FF"/>
<path fill-rule="evenodd" clip-rule="evenodd" d="M103.13 24.2201V9.31006L102.89 8.81006L103.13 24.2201Z" fill="#0000FF"/>
<path fill-rule="evenodd" clip-rule="evenodd" d="M103.13 24.2201L106.67 16.6101L103.13 9.31006V24.2201Z" fill="#0000FF"/>
<path d="M96.73 598.3V1.69995" stroke="black" stroke-width="4"/>
<path d="M76.84 46.4399L73.5 46.6299L70.2 47.1899L66.99 48.1199L63.9 49.3999L60.97 51.0199L58.24 52.9499L55.75 55.1799L53.52 57.6699L51.58 60.3999L49.96 63.3299L48.68 66.4199L47.76 69.6399L47.2 72.9299L47.01 76.2699L47.2 79.6099L47.76 82.9099L48.68 86.1299L49.96 89.2199L51.58 92.1399L53.52 94.8699L55.75 97.3699L58.24 99.5999L60.97 101.53L63.9 103.15L66.99 104.43L70.2 105.36L73.5 105.92L76.84 106.1" stroke="black" stroke-width="4"/>
<path d="M76.84 46.4399H156.39" stroke="black" stroke-width="4"/>
<path d="M106.67 16.61L106.48 14.67ZM106.48 14.67L105.91 12.81ZM105.91 12.81L104.99 11.09ZM104.99 11.09L103.76 9.58004ZM103.76 9.58004L102.25 8.35004ZM102.25 8.35004L100.53 7.43004ZM100.53 7.43004L98.67 6.86004ZM98.67 6.86004L96.73 6.67004ZM96.73 6.67004L94.79 6.86004ZM94.79 6.86004L92.92 7.43004ZM92.92 7.43004L91.2 8.35004ZM91.2 8.35004L89.69 9.58004ZM89.69 9.58004L88.46 11.09ZM88.46 11.09L87.54 12.81ZM87.54 12.81L86.97 14.67ZM86.97 14.67L86.78 16.61ZM86.78 16.61L86.97 18.55ZM86.97 18.55L87.54 20.42ZM87.54 20.42L88.46 22.14ZM88.46 22.14L89.69 23.64ZM89.69 23.64L91.2 24.88ZM91.2 24.88L92.92 25.8ZM92.92 25.8L94.79 26.37ZM94.79 26.37L96.73 26.56ZM96.73 26.56L98.67 26.37ZM98.67 26.37L100.53 25.8ZM100.53 25.8L102.25 24.88ZM102.25 24.88L103.76 23.64ZM103.76 23.64L104.99 22.14ZM104.99 22.14L105.91 20.42ZM105.91 20.42L106.48 18.55ZM106.48 18.55L106.67 16.61Z" stroke="black" stroke-width="0.5"/>
<path d="M76.84 165.76H156.39" stroke="black" stroke-width="4"/>
<path d="M76.84 106.1L73.5 106.29L70.2 106.85L66.99 107.78L63.9 109.06L60.97 110.68L58.24 112.61L55.75 114.84L53.52 117.33L51.58 120.06L49.96 122.99L48.68 126.08L47.76 129.3L47.2 132.59L47.01 135.93L47.2 139.27L47.76 142.57L48.68 145.79L49.96 148.88L51.58 151.8L53.52 154.53L55.75 157.03L58.24 159.26L60.97 161.19L63.9 162.81L66.99 164.09L70.2 165.02L73.5 165.58L76.84 165.76" stroke="black" stroke-width="4"/>
<path d="M76.84 175.71L73.5 175.89L70.2 176.46L66.99 177.38L63.9 178.66L60.97 180.28L58.24 182.22L55.75 184.44L53.52 186.94L51.58 189.67L49.96 192.59L48.68 195.69L47.76 198.9L47.2 202.2L47.01 205.54L47.2 208.88L47.76 212.18L48.68 215.39L49.96 218.48L51.58 221.41L53.52 224.14L55.75 226.63L58.24 228.86L60.97 230.8L63.9 232.41L66.99 233.69L70.2 234.62L73.5 235.18L76.84 235.37" stroke="black" stroke-width="4"/>
<path d="M76.84 175.71H156.39" stroke="black" stroke-width="4"/>
<path d="M76.84 295.03H156.39" stroke="black" stroke-width="4"/>
<path d="M76.84 235.37L73.5 235.56L70.2 236.12L66.99 237.04L63.9 238.32L60.97 239.94L58.24 241.88L55.75 244.1L53.52 246.6L51.58 249.33L49.96 252.26L48.68 255.35L47.76 258.56L47.2 261.86L47.01 265.2L47.2 268.54L47.76 271.84L48.68 275.05L49.96 278.14L51.58 281.07L53.52 283.8L55.75 286.29L58.24 288.52L60.97 290.46L63.9 292.07L66.99 293.35L70.2 294.28L73.5 294.84L76.84 295.03" stroke="black" stroke-width="4"/>
<path d="M76.84 304.97L73.5 305.16L70.2 305.72L66.99 306.65L63.9 307.93L60.97 309.54L58.24 311.48L55.75 313.71L53.52 316.2L51.58 318.93L49.96 321.86L48.68 324.95L47.76 328.16L47.2 331.46L47.01 334.8L47.2 338.14L47.76 341.44L48.68 344.65L49.96 347.74L51.58 350.67L53.52 353.4L55.75 355.9L58.24 358.12L60.97 360.06L63.9 361.68L66.99 362.96L70.2 363.88L73.5 364.44L76.84 364.63" stroke="black" stroke-width="4"/>
<path d="M76.84 304.97H156.39" stroke="black" stroke-width="4"/>
<path d="M76.84 424.29H156.39" stroke="black" stroke-width="4"/>
<path d="M76.84 364.63L73.5 364.82L70.2 365.38L66.99 366.31L63.9 367.59L60.97 369.2L58.24 371.14L55.75 373.37L53.52 375.86L51.58 378.59L49.96 381.52L48.68 384.61L47.76 387.82L47.2 391.12L47.01 394.46L47.2 397.8L47.76 401.1L48.68 404.31L49.96 407.41L51.58 410.33L53.52 413.06L55.75 415.56L58.24 417.78L60.97 419.72L63.9 421.34L66.99 422.62L70.2 423.54L73.5 424.11L76.84 424.29" stroke="black" stroke-width="4"/>
<path d="M106.67 583.39L106.48 581.45ZM106.48 581.45L105.91 579.58ZM105.91 579.58L104.99 577.86ZM104.99 577.86L103.76 576.36ZM103.76 576.36L102.25 575.12ZM102.25 575.12L100.53 574.2ZM100.53 574.2L98.67 573.63ZM98.67 573.63L96.73 573.44ZM96.73 573.44L94.79 573.63ZM94.79 573.63L92.92 574.2ZM92.92 574.2L91.2 575.12ZM91.2 575.12L89.69 576.36ZM89.69 576.36L88.46 577.86ZM88.46 577.86L87.54 579.58ZM87.54 579.58L86.97 581.45ZM86.97 581.45L86.78 583.39ZM86.78 583.39L86.97 585.33ZM86.97 585.33L87.54 587.19ZM87.54 587.19L88.46 588.91ZM88.46 588.91L89.69 590.42ZM89.69 590.42L91.2 591.65ZM91.2 591.65L92.92 592.57ZM92.92 592.57L94.79 593.14ZM94.79 593.14L96.73 593.33ZM96.73 593.33L98.67 593.14ZM98.67 593.14L100.53 592.57ZM100.53 592.57L102.25 591.65ZM102.25 591.65L103.76 590.42ZM103.76 590.42L104.99 588.91ZM104.99 588.91L105.91 587.19ZM105.91 587.19L106.48 585.33ZM106.48 585.33L106.67 583.39Z" stroke="black" stroke-width="0.5"/>
<path d="M76.84 434.24L73.5 434.42L70.2 434.98L66.99 435.91L63.9 437.19L60.97 438.81L58.24 440.74L55.75 442.97L53.52 445.47L51.58 448.2L49.96 451.12L48.68 454.21L47.76 457.43L47.2 460.73L47.01 464.07L47.2 467.41L47.76 470.7L48.68 473.92L49.96 477.01L51.58 479.94L53.52 482.67L55.75 485.16L58.24 487.39L60.97 489.32L63.9 490.94L66.99 492.22L70.2 493.15L73.5 493.71L76.84 493.9" stroke="black" stroke-width="4"/>
<path d="M76.84 434.24H156.39" stroke="black" stroke-width="4"/>
<path d="M76.84 553.56H156.39" stroke="black" stroke-width="4"/>
<path d="M76.84 493.9L73.5 494.08L70.2 494.64L66.99 495.57L63.9 496.85L60.97 498.47L58.24 500.4L55.75 502.63L53.52 505.13L51.58 507.86L49.96 510.78L48.68 513.87L47.76 517.09L47.2 520.39L47.01 523.73L47.2 527.07L47.76 530.36L48.68 533.58L49.96 536.67L51.58 539.6L53.52 542.33L55.75 544.82L58.24 547.05L60.97 548.98L63.9 550.6L66.99 551.88L70.2 552.81L73.5 553.37L76.84 553.56" stroke="black" stroke-width="4"/>
<path fill-rule="evenodd" clip-rule="evenodd" d="M685.53 587.98V577.22L683.66 585.69L685.53 587.98Z" fill="#0000FF"/>
<path fill-rule="evenodd" clip-rule="evenodd" d="M685.53 587.98L689.14 592.4L685.53 577.22V587.98Z" fill="#0000FF"/>
<path fill-rule="evenodd" clip-rule="evenodd" d="M689.14 592.4V575.48L685.53 577.22L689.14 592.4Z" fill="#0000FF"/>
<path fill-rule="evenodd" clip-rule="evenodd" d="M689.14 592.4L693.33 592.34L689.14 575.48V592.4Z" fill="#0000FF"/>
<path fill-rule="evenodd" clip-rule="evenodd" d="M693.33 592.34V573.44L689.14 575.48L693.33 592.34Z" fill="#0000FF"/>
<path fill-rule="evenodd" clip-rule="evenodd" d="M693.33 592.34L697.8 592.27L693.33 573.44V592.34Z" fill="#0000FF"/>
<path fill-rule="evenodd" clip-rule="evenodd" d="M697.8 592.27V575L693.33 573.44L697.8 592.27Z" fill="#0000FF"/>
<path fill-rule="evenodd" clip-rule="evenodd" d="M697.8 592.27L699.5 590.06L697.8 575V592.27Z" fill="#0000FF"/>
<path fill-rule="evenodd" clip-rule="evenodd" d="M699.5 590.06V575.59L697.8 575L699.5 590.06Z" fill="#0000FF"/>
<path fill-rule="evenodd" clip-rule="evenodd" d="M699.5 590.06L703.07 585.38L699.5 575.59V590.06Z" fill="#0000FF"/>
<path fill-rule="evenodd" clip-rule="evenodd" d="M703.07 585.38V582.97L699.5 575.59L703.07 585.38Z" fill="#0000FF"/>
<path fill-rule="evenodd" clip-rule="evenodd" d="M703.07 585.38L703.27 583.39L703.07 582.97V585.38Z" fill="#0000FF"/>
<path fill-rule="evenodd" clip-rule="evenodd" d="M684.45 21.0901V12.3101L684.32 12.4201L684.45 21.0901Z" fill="#0000FF"/>
<path fill-rule="evenodd" clip-rule="evenodd" d="M684.45 21.0901L691.03 26.1201L684.45 12.3101V21.0901Z" fill="#0000FF"/>
<path fill-rule="evenodd" clip-rule="evenodd" d="M691.03 26.1199V6.93994L684.45 12.3099L691.03 26.1199Z" fill="#0000FF"/>
<path fill-rule="evenodd" clip-rule="evenodd" d="M691.03 26.1199L691.33 26.3499L691.03 6.93994V26.1199Z" fill="#0000FF"/>
<path fill-rule="evenodd" clip-rule="evenodd" d="M691.33 26.3499V7.00994L691.03 6.93994L691.33 26.3499Z" fill="#0000FF"/>
<path fill-rule="evenodd" clip-rule="evenodd" d="M691.33 26.35L699.5 24.28L691.33 7.01001V26.35Z" fill="#0000FF"/>
<path fill-rule="evenodd" clip-rule="evenodd" d="M699.5 24.28V8.81001L691.33 7.01001L699.5 24.28Z" fill="#0000FF"/>
<path fill-rule="evenodd" clip-rule="evenodd" d="M699.5 24.2801L699.74 24.2201L699.5 8.81006V24.2801Z" fill="#0000FF"/>
<path fill-rule="evenodd" clip-rule="evenodd" d="M699.74 24.2201V9.31006L699.5 8.81006L699.74 24.2201Z" fill="#0000FF"/>
<path fill-rule="evenodd" clip-rule="evenodd" d="M699.74 24.2201L703.27 16.6101L699.74 9.31006V24.2201Z" fill="#0000FF"/>
<path d="M693.33 598.3V1.69995" stroke="black" stroke-width="4"/>
<path d="M673.44 46.4399L670.1 46.6299L666.81 47.1899L663.59 48.1199L660.5 49.3999L657.57 51.0199L654.84 52.9499L652.35 55.1799L650.12 57.6699L648.19 60.3999L646.57 63.3299L645.29 66.4199L644.36 69.6399L643.8 72.9299L643.61 76.2699L643.8 79.6099L644.36 82.9099L645.29 86.1299L646.57 89.2199L648.19 92.1399L650.12 94.8699L652.35 97.3699L654.84 99.5999L657.57 101.53L660.5 103.15L663.59 104.43L666.81 105.36L670.1 105.92L673.44 106.1" stroke="black" stroke-width="4"/>
<path d="M673.44 46.4399H752.99" stroke="black" stroke-width="4"/>
<path d="M703.27 16.61L703.08 14.67ZM703.08 14.67L702.52 12.81ZM702.52 12.81L701.6 11.09ZM701.6 11.09L700.36 9.58004ZM700.36 9.58004L698.85 8.35004ZM698.85 8.35004L697.14 7.43004ZM697.14 7.43004L695.27 6.86004ZM695.27 6.86004L693.33 6.67004ZM693.33 6.67004L691.39 6.86004ZM691.39 6.86004L689.53 7.43004ZM689.53 7.43004L687.81 8.35004ZM687.81 8.35004L686.3 9.58004ZM686.3 9.58004L685.06 11.09ZM685.06 11.09L684.14 12.81ZM684.14 12.81L683.58 14.67ZM683.58 14.67L683.39 16.61ZM683.39 16.61L683.58 18.55ZM683.58 18.55L684.14 20.42ZM684.14 20.42L685.06 22.14ZM685.06 22.14L686.3 23.64ZM686.3 23.64L687.81 24.88ZM687.81 24.88L689.53 25.8ZM689.53 25.8L691.39 26.37ZM691.39 26.37L693.33 26.56ZM693.33 26.56L695.27 26.37ZM695.27 26.37L697.14 25.8ZM697.14 25.8L698.85 24.88ZM698.85 24.88L700.36 23.64ZM700.36 23.64L701.6 22.14ZM701.6 22.14L702.52 20.42ZM702.52 20.42L703.08 18.55ZM703.08 18.55L703.27 16.61Z" stroke="black" stroke-width="0.5"/>
<path d="M673.44 165.76H752.99" stroke="black" stroke-width="4"/>
<path d="M673.44 106.1L670.1 106.29L666.81 106.85L663.59 107.78L660.5 109.06L657.57 110.68L654.84 112.61L652.35 114.84L650.12 117.33L648.19 120.06L646.57 122.99L645.29 126.08L644.36 129.3L643.8 132.59L643.61 135.93L643.8 139.27L644.36 142.57L645.29 145.79L646.57 148.88L648.19 151.8L650.12 154.53L652.35 157.03L654.84 159.26L657.57 161.19L660.5 162.81L663.59 164.09L666.81 165.02L670.1 165.58L673.44 165.76" stroke="black" stroke-width="4"/>
<path d="M673.44 175.71L670.1 175.89L666.81 176.46L663.59 177.38L660.5 178.66L657.57 180.28L654.84 182.22L652.35 184.44L650.12 186.94L648.19 189.67L646.57 192.59L645.29 195.69L644.36 198.9L643.8 202.2L643.61 205.54L643.8 208.88L644.36 212.18L645.29 215.39L646.57 218.48L648.19 221.41L650.12 224.14L652.35 226.63L654.84 228.86L657.57 230.8L660.5 232.41L663.59 233.69L666.81 234.62L670.1 235.18L673.44 235.37" stroke="black" stroke-width="4"/>
<path d="M673.44 175.71H752.99" stroke="black" stroke-width="4"/>
<path d="M673.44 295.03H752.99" stroke="black" stroke-width="4"/>
<path d="M673.44 235.37L670.1 235.56L666.81 236.12L663.59 237.04L660.5 238.32L657.57 239.94L654.84 241.88L652.35 244.1L650.12 246.6L648.19 249.33L646.57 252.26L645.29 255.35L644.36 258.56L643.8 261.86L643.61 265.2L643.8 268.54L644.36 271.84L645.29 275.05L646.57 278.14L648.19 281.07L650.12 283.8L652.35 286.29L654.84 288.52L657.57 290.46L660.5 292.07L663.59 293.35L666.81 294.28L670.1 294.84L673.44 295.03" stroke="black" stroke-width="4"/>
<path d="M673.44 304.97L670.1 305.16L666.81 305.72L663.59 306.65L660.5 307.93L657.57 309.54L654.84 311.48L652.35 313.71L650.12 316.2L648.19 318.93L646.57 321.86L645.29 324.95L644.36 328.16L643.8 331.46L643.61 334.8L643.8 338.14L644.36 341.44L645.29 344.65L646.57 347.74L648.19 350.67L650.12 353.4L652.35 355.9L654.84 358.12L657.57 360.06L660.5 361.68L663.59 362.96L666.81 363.88L670.1 364.44L673.44 364.63" stroke="black" stroke-width="4"/>
<path d="M673.44 304.97H752.99" stroke="black" stroke-width="4"/>
<path d="M673.44 424.29H752.99" stroke="black" stroke-width="4"/>
<path d="M673.44 364.63L670.1 364.82L666.81 365.38L663.59 366.31L660.5 367.59L657.57 369.2L654.84 371.14L652.35 373.37L650.12 375.86L648.19 378.59L646.57 381.52L645.29 384.61L644.36 387.82L643.8 391.12L643.61 394.46L643.8 397.8L644.36 401.1L645.29 404.31L646.57 407.41L648.19 410.33L650.12 413.06L652.35 415.56L654.84 417.78L657.57 419.72L660.5 421.34L663.59 422.62L666.81 423.54L670.1 424.11L673.44 424.29" stroke="black" stroke-width="4"/>
<path d="M703.27 583.39L703.08 581.45ZM703.08 581.45L702.52 579.58ZM702.52 579.58L701.6 577.86ZM701.6 577.86L700.36 576.36ZM700.36 576.36L698.85 575.12ZM698.85 575.12L697.14 574.2ZM697.14 574.2L695.27 573.63ZM695.27 573.63L693.33 573.44ZM693.33 573.44L691.39 573.63ZM691.39 573.63L689.53 574.2ZM689.53 574.2L687.81 575.12ZM687.81 575.12L686.3 576.36ZM686.3 576.36L685.06 577.86ZM685.06 577.86L684.14 579.58ZM684.14 579.58L683.58 581.45ZM683.58 581.45L683.39 583.39ZM683.39 583.39L683.58 585.33ZM683.58 585.33L684.14 587.19ZM684.14 587.19L685.06 588.91ZM685.06 588.91L686.3 590.42ZM686.3 590.42L687.81 591.65ZM687.81 591.65L689.53 592.57ZM689.53 592.57L691.39 593.14ZM691.39 593.14L693.33 593.33ZM693.33 593.33L695.27 593.14ZM695.27 593.14L697.14 592.57ZM697.14 592.57L698.85 591.65ZM698.85 591.65L700.36 590.42ZM700.36 590.42L701.6 588.91ZM701.6 588.91L702.52 587.19ZM702.52 587.19L703.08 585.33ZM703.08 585.33L703.27 583.39Z" stroke="black" stroke-width="0.5"/>
<path d="M673.44 434.24L670.1 434.42L666.81 434.98L663.59 435.91L660.5 437.19L657.57 438.81L654.84 440.74L652.35 442.97L650.12 445.47L648.19 448.2L646.57 451.12L645.29 454.21L644.36 457.43L643.8 460.73L643.61 464.07L643.8 467.41L644.36 470.7L645.29 473.92L646.57 477.01L648.19 479.94L650.12 482.67L652.35 485.16L654.84 487.39L657.57 489.32L660.5 490.94L663.59 492.22L666.81 493.15L670.1 493.71L673.44 493.9" stroke="black" stroke-width="4"/>
<path d="M673.44 434.24H752.99" stroke="black" stroke-width="4"/>
<path d="M673.44 553.56H752.99" stroke="black" stroke-width="4"/>
<path d="M673.44 493.9L670.1 494.08L666.81 494.64L663.59 495.57L660.5 496.85L657.57 498.47L654.84 500.4L652.35 502.63L650.12 505.13L648.19 507.86L646.57 510.78L645.29 513.87L644.36 517.09L643.8 520.39L643.61 523.73L643.8 527.07L644.36 530.36L645.29 533.58L646.57 536.67L648.19 539.6L650.12 542.33L652.35 544.82L654.84 547.05L657.57 548.98L660.5 550.6L663.59 551.88L666.81 552.81L670.1 553.37L673.44 553.56" stroke="black" stroke-width="4"/>
</svg>
