<svg width="800" height="600" viewBox="0 0 800 600" fill="none" xmlns="http://www.w3.org/2000/svg">
<path d="M396.29 598.3V1.69995" stroke="black" stroke-width="4"/>
<path fill-rule="evenodd" clip-rule="evenodd" d="M688.77 564.62V556.59L687.37 562.91L688.77 564.62Z" fill="#0000FF"/>
<path fill-rule="evenodd" clip-rule="evenodd" d="M688.77 564.62L691.46 567.92L688.77 556.59V564.62Z" fill="#0000FF"/>
<path fill-rule="evenodd" clip-rule="evenodd" d="M691.46 567.92V555.29L688.77 556.59L691.46 567.92Z" fill="#0000FF"/>
<path fill-rule="evenodd" clip-rule="evenodd" d="M691.46 567.92L694.59 567.88L691.46 555.29V567.92Z" fill="#0000FF"/>
<path fill-rule="evenodd" clip-rule="evenodd" d="M694.59 567.88V553.77L691.46 555.29L694.59 567.88Z" fill="#0000FF"/>
<path fill-rule="evenodd" clip-rule="evenodd" d="M694.59 567.88L697.93 567.82L694.59 553.77V567.88Z" fill="#0000FF"/>
<path fill-rule="evenodd" clip-rule="evenodd" d="M697.93 567.82V554.93L694.59 553.77L697.93 567.82Z" fill="#0000FF"/>
<path fill-rule="evenodd" clip-rule="evenodd" d="M697.93 567.82L699.19 566.17L697.93 554.93V567.82Z" fill="#0000FF"/>
<path fill-rule="evenodd" clip-rule="evenodd" d="M699.19 566.17V555.37L697.93 554.93L699.19 566.17Z" fill="#0000FF"/>
<path fill-rule="evenodd" clip-rule="evenodd" d="M699.19 566.17L701.86 562.69L699.19 555.37V566.17Z" fill="#0000FF"/>
<path fill-rule="evenodd" clip-rule="evenodd" d="M701.86 562.69V560.88L699.19 555.37L701.86 562.69Z" fill="#0000FF"/>
<path fill-rule="evenodd" clip-rule="evenodd" d="M701.86 562.69L702.01 561.2L701.86 560.88V562.69Z" fill="#0000FF"/>
<path fill-rule="evenodd" clip-rule="evenodd" d="M687.96 45.04V38.49L687.86 38.57L687.96 45.04Z" fill="#0000FF"/>
<path fill-rule="evenodd" clip-rule="evenodd" d="M687.96 45.04L692.88 48.8L687.96 38.49V45.04Z" fill="#0000FF"/>
<path fill-rule="evenodd" clip-rule="evenodd" d="M692.88 48.8V34.48L687.96 38.49L692.88 48.8Z" fill="#0000FF"/>
<path fill-rule="evenodd" clip-rule="evenodd" d="M692.88 48.8L693.1 48.97L692.88 34.48V48.8Z" fill="#0000FF"/>
<path fill-rule="evenodd" clip-rule="evenodd" d="M693.1 48.97V34.53L692.88 34.48L693.1 48.97Z" fill="#0000FF"/>
<path fill-rule="evenodd" clip-rule="evenodd" d="M693.1 48.97L699.19 47.42L693.1 34.53V48.97Z" fill="#0000FF"/>
<path fill-rule="evenodd" clip-rule="evenodd" d="M699.19 47.42V35.88L693.1 34.53L699.19 47.42Z" fill="#0000FF"/>
<path fill-rule="evenodd" clip-rule="evenodd" d="M699.19 47.42L699.37 47.38L699.19 35.88V47.42Z" fill="#0000FF"/>
<path fill-rule="evenodd" clip-rule="evenodd" d="M699.37 47.38V36.25L699.19 35.88L699.37 47.38Z" fill="#0000FF"/>
<path fill-rule="evenodd" clip-rule="evenodd" d="M699.37 47.38L702.01 41.7L699.37 36.25V47.38Z" fill="#0000FF"/>
<path d="M694.59 598.3V4.6001" stroke="black" stroke-width="4"/>
<path d="M679.75 63.97L676.84 64.16L673.99 64.72L671.23 65.66L668.62 66.95L666.2 68.57L664.01 70.49L662.09 72.68L660.47 75.1L659.18 77.71L658.24 80.47L657.68 83.32L657.48 86.23L657.68 89.14L658.24 91.99L659.18 94.75L660.47 97.36L662.09 99.78L664.01 101.97L666.2 103.89L668.62 105.51L671.23 106.8L673.99 107.74L676.84 108.3L679.75 108.49" stroke="black" stroke-width="4"/>
<path d="M679.75 63.97H739.12" stroke="black" stroke-width="4"/>
<path d="M687.17 41.7L687.36 40.05ZM687.36 40.05L687.91 38.48ZM687.91 38.48L688.79 37.08ZM688.79 37.08L689.96 35.9ZM689.96 35.9L691.37 35.02ZM691.37 35.02L692.94 34.47ZM692.94 34.47L694.59 34.28ZM694.59 34.28L696.24 34.47ZM696.24 34.47L697.81 35.02ZM697.81 35.02L699.22 35.9ZM699.22 35.9L700.39 37.08ZM700.39 37.08L701.28 38.48ZM701.28 38.48L701.83 40.05ZM701.83 40.05L702.01 41.7ZM702.01 41.7L701.83 43.35ZM701.83 43.35L701.28 44.92ZM701.28 44.92L700.39 46.33ZM700.39 46.33L699.22 47.5ZM699.22 47.5L697.81 48.39ZM697.81 48.39L696.24 48.94ZM696.24 48.94L694.59 49.12ZM694.59 49.12L692.94 48.94ZM692.94 48.94L691.37 48.39ZM691.37 48.39L689.96 47.5ZM689.96 47.5L688.79 46.33ZM688.79 46.33L687.91 44.92ZM687.91 44.92L687.36 43.35ZM687.36 43.35L687.17 41.7Z" stroke="black" stroke-width="4"/>
<path d="M679.75 153.02H739.12" stroke="black" stroke-width="4"/>
<path d="M679.75 108.49L676.84 108.68L673.99 109.25L671.23 110.19L668.62 111.48L666.2 113.09L664.01 115.02L662.09 117.2L660.47 119.63L659.18 122.24L658.24 125L657.68 127.85L657.48 130.76L657.68 133.66L658.24 136.52L659.18 139.28L660.47 141.89L662.09 144.31L664.01 146.5L666.2 148.42L668.62 150.04L671.23 151.33L673.99 152.26L676.84 152.83L679.75 153.02" stroke="black" stroke-width="4"/>
<path d="M679.75 160.44L676.84 160.63L673.99 161.2L671.23 162.14L668.62 163.43L666.2 165.04L664.01 166.96L662.09 169.15L660.47 171.58L659.18 174.19L658.24 176.95L657.68 179.8L657.48 182.71L657.68 185.61L658.24 188.47L659.18 191.23L660.47 193.84L662.09 196.26L664.01 198.45L666.2 200.37L668.62 201.99L671.23 203.28L673.99 204.21L676.84 204.78L679.75 204.97" stroke="black" stroke-width="4"/>
<path d="M679.75 160.44H739.12" stroke="black" stroke-width="4"/>
<path d="M679.75 249.5H739.12" stroke="black" stroke-width="4"/>
<path d="M679.75 204.97L676.84 205.16L673.99 205.73L671.23 206.67L668.62 207.95L666.2 209.57L664.01 211.49L662.09 213.68L660.47 216.1L659.18 218.72L658.24 221.47L657.68 224.33L657.48 227.24L657.68 230.14L658.24 233L659.18 235.76L660.47 238.37L662.09 240.79L664.01 242.98L666.2 244.9L668.62 246.52L671.23 247.8L673.99 248.74L676.84 249.31L679.75 249.5" stroke="black" stroke-width="4"/>
<path d="M679.75 256.92L676.84 257.11L673.99 257.68L671.23 258.62L668.62 259.9L666.2 261.52L664.01 263.44L662.09 265.63L660.47 268.05L659.18 270.66L658.24 273.42L657.68 276.28L657.48 279.18L657.68 282.09L658.24 284.95L659.18 287.7L660.47 290.32L662.09 292.74L664.01 294.93L666.2 296.85L668.62 298.47L671.23 299.75L673.99 300.69L676.84 301.26L679.75 301.45" stroke="black" stroke-width="4"/>
<path d="M679.75 256.92H739.12" stroke="black" stroke-width="4"/>
<path d="M679.75 345.98H739.12" stroke="black" stroke-width="4"/>
<path d="M679.75 301.45L676.84 301.64L673.99 302.21L671.23 303.14L668.62 304.43L666.2 306.05L664.01 307.97L662.09 310.16L660.47 312.58L659.18 315.19L658.24 317.95L657.68 320.81L657.48 323.71L657.68 326.62L658.24 329.48L659.18 332.23L660.47 334.84L662.09 337.27L664.01 339.46L666.2 341.38L668.62 342.99L671.23 344.28L673.99 345.22L676.84 345.79L679.75 345.98" stroke="black" stroke-width="4"/>
<path d="M679.75 353.4L676.84 353.59L673.99 354.16L671.23 355.09L668.62 356.38L666.2 358L664.01 359.92L662.09 362.11L660.47 364.53L659.18 367.14L658.24 369.9L657.68 372.76L657.48 375.66L657.68 378.57L658.24 381.42L659.18 384.18L660.47 386.79L662.09 389.22L664.01 391.41L666.2 393.33L668.62 394.94L671.23 396.23L673.99 397.17L676.84 397.74L679.75 397.93" stroke="black" stroke-width="4"/>
<path d="M679.75 353.4H739.12" stroke="black" stroke-width="4"/>
<path d="M679.75 442.45H739.12" stroke="black" stroke-width="4"/>
<path d="M679.75 397.93L676.84 398.12L673.99 398.68L671.23 399.62L668.62 400.91L666.2 402.53L664.01 404.45L662.09 406.64L660.47 409.06L659.18 411.67L658.24 414.43L657.68 417.28L657.48 420.19L657.68 423.1L658.24 425.95L659.18 428.71L660.47 431.32L662.09 433.74L664.01 435.93L666.2 437.85L668.62 439.47L671.23 440.76L673.99 441.7L676.84 442.26L679.75 442.45" stroke="black" stroke-width="4"/>
<path d="M687.17 561.2L687.36 559.54ZM687.36 559.54L687.91 557.98ZM687.91 557.98L688.79 556.57ZM688.79 556.57L689.96 555.39ZM689.96 555.39L691.37 554.51ZM691.37 554.51L692.94 553.96ZM692.94 553.96L694.59 553.77ZM694.59 553.77L696.24 553.96ZM696.24 553.96L697.81 554.51ZM697.81 554.51L699.22 555.39ZM699.22 555.39L700.39 556.57ZM700.39 556.57L701.28 557.98ZM701.28 557.98L701.83 559.54ZM701.83 559.54L702.01 561.2ZM702.01 561.2L701.83 562.85ZM701.83 562.85L701.28 564.42ZM701.28 564.42L700.39 565.82ZM700.39 565.82L699.22 567ZM699.22 567L697.81 567.88ZM697.81 567.88L696.24 568.43ZM696.24 568.43L694.59 568.62ZM694.59 568.62L692.94 568.43ZM692.94 568.43L691.37 567.88ZM691.37 567.88L689.96 567ZM689.96 567L688.79 565.82ZM688.79 565.82L687.91 564.42ZM687.91 564.42L687.36 562.85ZM687.36 562.85L687.17 561.2Z" stroke="black" stroke-width="4"/>
<path d="M679.75 449.88L676.84 450.07L673.99 450.63L671.23 451.57L668.62 452.86L666.2 454.48L664.01 456.4L662.09 458.59L660.47 461.01L659.18 463.62L658.24 466.38L657.68 469.23L657.48 472.14L657.68 475.05L658.24 477.9L659.18 480.66L660.47 483.27L662.09 485.69L664.01 487.88L666.2 489.8L668.62 491.42L671.23 492.71L673.99 493.64L676.84 494.21L679.75 494.4" stroke="black" stroke-width="4"/>
<path d="M679.75 449.88H739.12" stroke="black" stroke-width="4"/>
<path d="M679.75 538.93H739.12" stroke="black" stroke-width="4"/>
<path d="M679.75 494.4L676.84 494.59L673.99 495.16L671.23 496.1L668.62 497.39L666.2 499L664.01 500.92L662.09 503.11L660.47 505.54L659.18 508.15L658.24 510.91L657.68 513.76L657.48 516.67L657.68 519.57L658.24 522.43L659.18 525.19L660.47 527.8L662.09 530.22L664.01 532.41L666.2 534.33L668.62 535.95L671.23 537.24L673.99 538.17L676.84 538.74L679.75 538.93" stroke="black" stroke-width="4"/>
<path fill-rule="evenodd" clip-rule="evenodd" d="M390.47 564.62V556.59L389.07 562.91L390.47 564.62Z" fill="#0000FF"/>
<path fill-rule="evenodd" clip-rule="evenodd" d="M390.47 564.62L393.16 567.92L390.47 556.59V564.62Z" fill="#0000FF"/>
<path fill-rule="evenodd" clip-rule="evenodd" d="M393.16 567.92V555.29L390.47 556.59L393.16 567.92Z" fill="#0000FF"/>
<path fill-rule="evenodd" clip-rule="evenodd" d="M393.16 567.92L396.29 567.88L393.16 555.29V567.92Z" fill="#0000FF"/>
<path fill-rule="evenodd" clip-rule="evenodd" d="M396.29 567.88V553.77L393.16 555.29L396.29 567.88Z" fill="#0000FF"/>
<path fill-rule="evenodd" clip-rule="evenodd" d="M396.29 567.88L399.63 567.82L396.29 553.77V567.88Z" fill="#0000FF"/>
<path fill-rule="evenodd" clip-rule="evenodd" d="M399.63 567.82V554.93L396.29 553.77L399.63 567.82Z" fill="#0000FF"/>
<path fill-rule="evenodd" clip-rule="evenodd" d="M399.63 567.82L400.89 566.17L399.63 554.93V567.82Z" fill="#0000FF"/>
<path fill-rule="evenodd" clip-rule="evenodd" d="M400.89 566.17V555.37L399.63 554.93L400.89 566.17Z" fill="#0000FF"/>
<path fill-rule="evenodd" clip-rule="evenodd" d="M400.89 566.17L403.56 562.69L400.89 555.37V566.17Z" fill="#0000FF"/>
<path fill-rule="evenodd" clip-rule="evenodd" d="M403.56 562.69V560.88L400.89 555.37L403.56 562.69Z" fill="#0000FF"/>
<path fill-rule="evenodd" clip-rule="evenodd" d="M403.56 562.69L403.71 561.2L403.56 560.88V562.69Z" fill="#0000FF"/>
<path fill-rule="evenodd" clip-rule="evenodd" d="M389.66 45.04V38.49L389.56 38.57L389.66 45.04Z" fill="#0000FF"/>
<path fill-rule="evenodd" clip-rule="evenodd" d="M389.66 45.04L394.57 48.8L389.66 38.49V45.04Z" fill="#0000FF"/>
<path fill-rule="evenodd" clip-rule="evenodd" d="M394.57 48.8V34.48L389.66 38.49L394.57 48.8Z" fill="#0000FF"/>
<path fill-rule="evenodd" clip-rule="evenodd" d="M394.57 48.8L394.8 48.97L394.57 34.48V48.8Z" fill="#0000FF"/>
<path fill-rule="evenodd" clip-rule="evenodd" d="M394.8 48.97V34.53L394.57 34.48L394.8 48.97Z" fill="#0000FF"/>
<path fill-rule="evenodd" clip-rule="evenodd" d="M394.8 48.97L400.89 47.42L394.8 34.53V48.97Z" fill="#0000FF"/>
<path fill-rule="evenodd" clip-rule="evenodd" d="M400.89 47.42V35.88L394.8 34.53L400.89 47.42Z" fill="#0000FF"/>
<path fill-rule="evenodd" clip-rule="evenodd" d="M400.89 47.42L401.07 47.38L400.89 35.88V47.42Z" fill="#0000FF"/>
<path fill-rule="evenodd" clip-rule="evenodd" d="M401.07 47.38V36.25L400.89 35.88L401.07 47.38Z" fill="#0000FF"/>
<path fill-rule="evenodd" clip-rule="evenodd" d="M401.07 47.38L403.71 41.7L401.07 36.25V47.38Z" fill="#0000FF"/>
<path d="M396.29 598.3V4.6001" stroke="black" stroke-width="4"/>
<path d="M381.45 63.97L378.54 64.16L375.68 64.72L372.93 65.66L370.31 66.95L367.89 68.57L365.7 70.49L363.78 72.68L362.17 75.1L360.88 77.71L359.94 80.47L359.37 83.32L359.18 86.23L359.37 89.14L359.94 91.99L360.88 94.75L362.17 97.36L363.78 99.78L365.7 101.97L367.89 103.89L370.31 105.51L372.93 106.8L375.68 107.74L378.54 108.3L381.45 108.49" stroke="black" stroke-width="4"/>
<path d="M381.45 63.97H440.82" stroke="black" stroke-width="4"/>
<path d="M388.87 41.7L389.05 40.05ZM389.05 40.05L389.6 38.48ZM389.6 38.48L390.49 37.08ZM390.49 37.08L391.66 35.9ZM391.66 35.9L393.07 35.02ZM393.07 35.02L394.64 34.47ZM394.64 34.47L396.29 34.28ZM396.29 34.28L397.94 34.47ZM397.94 34.47L399.51 35.02ZM399.51 35.02L400.92 35.9ZM400.92 35.9L402.09 37.08ZM402.09 37.08L402.98 38.48ZM402.98 38.48L403.52 40.05ZM403.52 40.05L403.71 41.7ZM403.71 41.7L403.52 43.35ZM403.52 43.35L402.98 44.92ZM402.98 44.92L402.09 46.33ZM402.09 46.33L400.92 47.5ZM400.92 47.5L399.51 48.39ZM399.51 48.39L397.94 48.94ZM397.94 48.94L396.29 49.12ZM396.29 49.12L394.64 48.94ZM394.64 48.94L393.07 48.39ZM393.07 48.39L391.66 47.5ZM391.66 47.5L390.49 46.33ZM390.49 46.33L389.6 44.92ZM389.6 44.92L389.05 43.35ZM389.05 43.35L388.87 41.7Z" stroke="black" stroke-width="4"/>
<path d="M381.45 153.02H440.82" stroke="black" stroke-width="4"/>
<path d="M381.45 108.49L378.54 108.68L375.68 109.25L372.93 110.19L370.31 111.48L367.89 113.09L365.7 115.02L363.78 117.2L362.17 119.63L360.88 122.24L359.94 125L359.37 127.85L359.18 130.76L359.37 133.66L359.94 136.52L360.88 139.28L362.17 141.89L363.78 144.31L365.7 146.5L367.89 148.42L370.31 150.04L372.93 151.33L375.68 152.26L378.54 152.83L381.45 153.02" stroke="black" stroke-width="4"/>
<path d="M381.45 160.44L378.54 160.63L375.68 161.2L372.93 162.14L370.31 163.43L367.89 165.04L365.7 166.96L363.78 169.15L362.17 171.58L360.88 174.19L359.94 176.95L359.37 179.8L359.18 182.71L359.37 185.61L359.94 188.47L360.88 191.23L362.17 193.84L363.78 196.26L365.7 198.45L367.89 200.37L370.31 201.99L372.93 203.28L375.68 204.21L378.54 204.78L381.45 204.97" stroke="black" stroke-width="4"/>
<path d="M381.45 160.44H440.82" stroke="black" stroke-width="4"/>
<path d="M381.45 249.5H440.82" stroke="black" stroke-width="4"/>
<path d="M381.45 204.97L378.54 205.16L375.68 205.73L372.93 206.67L370.31 207.95L367.89 209.57L365.7 211.49L363.78 213.68L362.17 216.1L360.88 218.72L359.94 221.47L359.37 224.33L359.18 227.24L359.37 230.14L359.94 233L360.88 235.76L362.17 238.37L363.78 240.79L365.7 242.98L367.89 244.9L370.31 246.52L372.93 247.8L375.68 248.74L378.54 249.31L381.45 249.5" stroke="black" stroke-width="4"/>
<path d="M381.45 256.92L378.54 257.11L375.68 257.68L372.93 258.62L370.31 259.9L367.89 261.52L365.7 263.44L363.78 265.63L362.17 268.05L360.88 270.66L359.94 273.42L359.37 276.28L359.18 279.18L359.37 282.09L359.94 284.95L360.88 287.7L362.17 290.32L363.78 292.74L365.7 294.93L367.89 296.85L370.31 298.47L372.93 299.75L375.68 300.69L378.54 301.26L381.45 301.45" stroke="black" stroke-width="4"/>
<path d="M381.45 256.92H440.82" stroke="black" stroke-width="4"/>
<path d="M381.45 345.98H440.82" stroke="black" stroke-width="4"/>
<path d="M381.45 301.45L378.54 301.64L375.68 302.21L372.93 303.14L370.31 304.43L367.89 306.05L365.7 307.97L363.78 310.16L362.17 312.58L360.88 315.19L359.94 317.95L359.37 320.81L359.18 323.71L359.37 326.62L359.94 329.48L360.88 332.23L362.17 334.84L363.78 337.27L365.7 339.46L367.89 341.38L370.31 342.99L372.93 344.28L375.68 345.22L378.54 345.79L381.45 345.98" stroke="black" stroke-width="4"/>
<path d="M381.45 353.4L378.54 353.59L375.68 354.16L372.93 355.09L370.31 356.38L367.89 358L365.7 359.92L363.78 362.11L362.17 364.53L360.88 367.14L359.94 369.9L359.37 372.76L359.18 375.66L359.37 378.57L359.94 381.42L360.88 384.18L362.17 386.79L363.78 389.22L365.7 391.41L367.89 393.33L370.31 394.94L372.93 396.23L375.68 397.17L378.54 397.74L381.45 397.93" stroke="black" stroke-width="4"/>
<path d="M381.45 353.4H440.82" stroke="black" stroke-width="4"/>
<path d="M381.45 442.45H440.82" stroke="black" stroke-width="4"/>
<path d="M381.45 397.93L378.54 398.12L375.68 398.68L372.93 399.62L370.31 400.91L367.89 402.53L365.7 404.45L363.78 406.64L362.17 409.06L360.88 411.67L359.94 414.43L359.37 417.28L359.18 420.19L359.37 423.1L359.94 425.95L360.88 428.71L362.17 431.32L363.78 433.74L365.7 435.93L367.89 437.85L370.31 439.47L372.93 440.76L375.68 441.7L378.54 442.26L381.45 442.45" stroke="black" stroke-width="4"/>
<path d="M388.87 561.2L389.05 559.54ZM389.05 559.54L389.6 557.98ZM389.6 557.98L390.49 556.57ZM390.49 556.57L391.66 555.39ZM391.66 555.39L393.07 554.51ZM393.07 554.51L394.64 553.96ZM394.64 553.96L396.29 553.77ZM396.29 553.77L397.94 553.96ZM397.94 553.96L399.51 554.51ZM399.51 554.51L400.92 555.39ZM400.92 555.39L402.09 556.57ZM402.09 556.57L402.98 557.98ZM402.98 557.98L403.52 559.54ZM403.52 559.54L403.71 561.2ZM403.71 561.2L403.52 562.85ZM403.52 562.85L402.98 564.42ZM402.98 564.42L402.09 565.82ZM402.09 565.82L400.92 567ZM400.92 567L399.51 567.88ZM399.51 567.88L397.94 568.43ZM397.94 568.43L396.29 568.62ZM396.29 568.62L394.64 568.43ZM394.64 568.43L393.07 567.88ZM393.07 567.88L391.66 567ZM391.66 567L390.49 565.82ZM390.49 565.82L389.6 564.42ZM389.6 564.42L389.05 562.85ZM389.05 562.85L388.87 561.2Z" stroke="black" stroke-width="4"/>
<path d="M381.45 449.88L378.54 450.07L375.68 450.63L372.93 451.57L370.31 452.86L367.89 454.48L365.7 456.4L363.78 458.59L362.17 461.01L360.88 463.62L359.94 466.38L359.37 469.23L359.18 472.14L359.37 475.05L359.94 477.9L360.88 480.66L362.17 483.27L363.78 485.69L365.7 487.88L367.89 489.8L370.31 491.42L372.93 492.71L375.68 493.64L378.54 494.21L381.45 494.4" stroke="black" stroke-width="4"/>
<path d="M381.45 449.88H440.82" stroke="black" stroke-width="4"/>
<path d="M381.45 538.93H440.82" stroke="black" stroke-width="4"/>
<path d="M381.45 494.4L378.54 494.59L375.68 495.16L372.93 496.1L370.31 497.39L367.89 499L365.7 500.92L363.78 503.11L362.17 505.54L360.88 508.15L359.94 510.91L359.37 513.76L359.18 516.67L359.37 519.57L359.94 522.43L360.88 525.19L362.17 527.8L363.78 530.22L365.7 532.41L367.89 534.33L370.31 535.95L372.93 537.24L375.68 538.17L378.54 538.74L381.45 538.93" stroke="black" stroke-width="4"/>
<path fill-rule="evenodd" clip-rule="evenodd" d="M92.16 564.62V556.59L90.77 562.91L92.16 564.62Z" fill="#0000FF"/>
<path fill-rule="evenodd" clip-rule="evenodd" d="M92.16 564.62L94.86 567.92L92.16 556.59V564.62Z" fill="#0000FF"/>
<path fill-rule="evenodd" clip-rule="evenodd" d="M94.86 567.92V555.29L92.16 556.59L94.86 567.92Z" fill="#0000FF"/>
<path fill-rule="evenodd" clip-rule="evenodd" d="M94.86 567.92L97.99 567.88L94.86 555.29V567.92Z" fill="#0000FF"/>
<path fill-rule="evenodd" clip-rule="evenodd" d="M97.99 567.88V553.77L94.86 555.29L97.99 567.88Z" fill="#0000FF"/>
<path fill-rule="evenodd" clip-rule="evenodd" d="M97.99 567.88L101.33 567.82L97.99 553.77V567.88Z" fill="#0000FF"/>
<path fill-rule="evenodd" clip-rule="evenodd" d="M101.33 567.82V554.93L97.99 553.77L101.33 567.82Z" fill="#0000FF"/>
<path fill-rule="evenodd" clip-rule="evenodd" d="M101.33 567.82L102.59 566.17L101.33 554.93V567.82Z" fill="#0000FF"/>
<path fill-rule="evenodd" clip-rule="evenodd" d="M102.59 566.17V555.37L101.33 554.93L102.59 566.17Z" fill="#0000FF"/>
<path fill-rule="evenodd" clip-rule="evenodd" d="M102.59 566.17L105.26 562.69L102.59 555.37V566.17Z" fill="#0000FF"/>
<path fill-rule="evenodd" clip-rule="evenodd" d="M105.26 562.69V560.88L102.59 555.37L105.26 562.69Z" fill="#0000FF"/>
<path fill-rule="evenodd" clip-rule="evenodd" d="M105.26 562.69L105.41 561.2L105.26 560.88V562.69Z" fill="#0000FF"/>
<path fill-rule="evenodd" clip-rule="evenodd" d="M91.36 45.04V38.49L91.26 38.57L91.36 45.04Z" fill="#0000FF"/>
<path fill-rule="evenodd" clip-rule="evenodd" d="M91.36 45.04L96.27 48.8L91.36 38.49V45.04Z" fill="#0000FF"/>
<path fill-rule="evenodd" clip-rule="evenodd" d="M96.27 48.8V34.48L91.36 38.49L96.27 48.8Z" fill="#0000FF"/>
<path fill-rule="evenodd" clip-rule="evenodd" d="M96.27 48.8L96.5 48.97L96.27 34.48V48.8Z" fill="#0000FF"/>
<path fill-rule="evenodd" clip-rule="evenodd" d="M96.5 48.97V34.53L96.27 34.48L96.5 48.97Z" fill="#0000FF"/>
<path fill-rule="evenodd" clip-rule="evenodd" d="M96.5 48.97L102.59 47.42L96.5 34.53V48.97Z" fill="#0000FF"/>
<path fill-rule="evenodd" clip-rule="evenodd" d="M102.59 47.42V35.88L96.5 34.53L102.59 47.42Z" fill="#0000FF"/>
<path fill-rule="evenodd" clip-rule="evenodd" d="M102.59 47.42L102.77 47.38L102.59 35.88V47.42Z" fill="#0000FF"/>
<path fill-rule="evenodd" clip-rule="evenodd" d="M102.77 47.38V36.25L102.59 35.88L102.77 47.38Z" fill="#0000FF"/>
<path fill-rule="evenodd" clip-rule="evenodd" d="M102.77 47.38L105.41 41.7L102.77 36.25V47.38Z" fill="#0000FF"/>
<path d="M97.99 598.3V4.6001" stroke="black" stroke-width="4"/>
<path d="M83.14 63.97L80.24 64.16L77.38 64.72L74.62 65.66L72.01 66.95L69.59 68.57L67.4 70.49L65.48 72.68L63.86 75.1L62.58 77.71L61.64 80.47L61.07 83.32L60.88 86.23L61.07 89.14L61.64 91.99L62.58 94.75L63.86 97.36L65.48 99.78L67.4 101.97L69.59 103.89L72.01 105.51L74.62 106.8L77.38 107.74L80.24 108.3L83.14 108.49" stroke="black" stroke-width="4"/>
<path d="M83.14 63.97H142.52" stroke="black" stroke-width="4"/>
<path d="M90.57 41.7L90.75 40.05ZM90.75 40.05L91.3 38.48ZM91.3 38.48L92.18 37.08ZM92.18 37.08L93.36 35.9ZM93.36 35.9L94.77 35.02ZM94.77 35.02L96.34 34.47ZM96.34 34.47L97.99 34.28ZM97.99 34.28L99.64 34.47ZM99.64 34.47L101.21 35.02ZM101.21 35.02L102.61 35.9ZM102.61 35.9L103.79 37.08ZM103.79 37.08L104.67 38.48ZM104.67 38.48L105.22 40.05ZM105.22 40.05L105.41 41.7ZM105.41 41.7L105.22 43.35ZM105.22 43.35L104.67 44.92ZM104.67 44.92L103.79 46.33ZM103.79 46.33L102.61 47.5ZM102.61 47.5L101.21 48.39ZM101.21 48.39L99.64 48.94ZM99.64 48.94L97.99 49.12ZM97.99 49.12L96.34 48.94ZM96.34 48.94L94.77 48.39ZM94.77 48.39L93.36 47.5ZM93.36 47.5L92.18 46.33ZM92.18 46.33L91.3 44.92ZM91.3 44.92L90.75 43.35ZM90.75 43.35L90.57 41.7Z" stroke="black" stroke-width="4"/>
<path d="M83.14 153.02H142.52" stroke="black" stroke-width="4"/>
<path d="M83.14 108.49L80.24 108.68L77.38 109.25L74.62 110.19L72.01 111.48L69.59 113.09L67.4 115.02L65.48 117.2L63.86 119.63L62.58 122.24L61.64 125L61.07 127.85L60.88 130.76L61.07 133.66L61.64 136.52L62.58 139.28L63.86 141.89L65.48 144.31L67.4 146.5L69.59 148.42L72.01 150.04L74.62 151.33L77.38 152.26L80.24 152.83L83.14 153.02" stroke="black" stroke-width="4"/>
<path d="M83.14 160.44L80.24 160.63L77.38 161.2L74.62 162.14L72.01 163.43L69.59 165.04L67.4 166.96L65.48 169.15L63.86 171.58L62.58 174.19L61.64 176.95L61.07 179.8L60.88 182.71L61.07 185.61L61.64 188.47L62.58 191.23L63.86 193.84L65.48 196.26L67.4 198.45L69.59 200.37L72.01 201.99L74.62 203.28L77.38 204.21L80.24 204.78L83.14 204.97" stroke="black" stroke-width="4"/>
<path d="M83.14 160.44H142.52" stroke="black" stroke-width="4"/>
<path d="M83.14 249.5H142.52" stroke="black" stroke-width="4"/>
<path d="M83.14 204.97L80.24 205.16L77.38 205.73L74.62 206.67L72.01 207.95L69.59 209.57L67.4 211.49L65.48 213.68L63.86 216.1L62.58 218.72L61.64 221.47L61.07 224.33L60.88 227.24L61.07 230.14L61.64 233L62.58 235.76L63.86 238.37L65.48 240.79L67.4 242.98L69.59 244.9L72.01 246.52L74.62 247.8L77.38 248.74L80.24 249.31L83.14 249.5" stroke="black" stroke-width="4"/>
<path d="M83.14 256.92L80.24 257.11L77.38 257.68L74.62 258.62L72.01 259.9L69.59 261.52L67.4 263.44L65.48 265.63L63.86 268.05L62.58 270.66L61.64 273.42L61.07 276.28L60.88 279.18L61.07 282.09L61.64 284.95L62.58 287.7L63.86 290.32L65.48 292.74L67.4 294.93L69.59 296.85L72.01 298.47L74.62 299.75L77.38 300.69L80.24 301.26L83.14 301.45" stroke="black" stroke-width="4"/>
<path d="M83.14 256.92H142.52" stroke="black" stroke-width="4"/>
<path d="M83.14 345.98H142.52" stroke="black" stroke-width="4"/>
<path d="M83.14 301.45L80.24 301.64L77.38 302.21L74.62 303.14L72.01 304.43L69.59 306.05L67.4 307.97L65.48 310.16L63.86 312.58L62.58 315.19L61.64 317.95L61.07 320.81L60.88 323.71L61.07 326.62L61.64 329.48L62.58 332.23L63.86 334.84L65.48 337.27L67.4 339.46L69.59 341.38L72.01 342.99L74.62 344.28L77.38 345.22L80.24 345.79L83.14 345.98" stroke="black" stroke-width="4"/>
<path d="M83.14 353.4L80.24 353.59L77.38 354.16L74.62 355.09L72.01 356.38L69.59 358L67.4 359.92L65.48 362.11L63.86 364.53L62.58 367.14L61.64 369.9L61.07 372.76L60.88 375.66L61.07 378.57L61.64 381.42L62.58 384.18L63.86 386.79L65.48 389.22L67.4 391.41L69.59 393.33L72.01 394.94L74.62 396.23L77.38 397.17L80.24 397.74L83.14 397.93" stroke="black" stroke-width="4"/>
<path d="M83.14 353.4H142.52" stroke="black" stroke-width="4"/>
<path d="M83.14 442.45H142.52" stroke="black" stroke-width="4"/>
<path d="M83.14 397.93L80.24 398.12L77.38 398.68L74.62 399.62L72.01 400.91L69.59 402.53L67.4 404.45L65.48 406.64L63.86 409.06L62.58 411.67L61.64 414.43L61.07 417.28L60.88 420.19L61.07 423.1L61.64 425.95L62.58 428.71L63.86 431.32L65.48 433.74L67.4 435.93L69.59 437.85L72.01 439.47L74.62 440.76L77.38 441.7L80.24 442.26L83.14 442.45" stroke="black" stroke-width="4"/>
<path d="M90.57 561.2L90.75 559.54ZM90.75 559.54L91.3 557.98ZM91.3 557.98L92.18 556.57ZM92.18 556.57L93.36 555.39ZM93.36 555.39L94.77 554.51ZM94.77 554.51L96.34 553.96ZM96.34 553.96L97.99 553.77ZM97.99 553.77L99.64 553.96ZM99.64 553.96L101.21 554.51ZM101.21 554.51L102.61 555.39ZM102.61 555.39L103.79 556.57ZM103.79 556.57L104.67 557.98ZM104.67 557.98L105.22 559.54ZM105.22 559.54L105.41 561.2ZM105.41 561.2L105.22 562.85ZM105.22 562.85L104.67 564.42ZM104.67 564.42L103.79 565.82ZM103.79 565.82L102.61 567ZM102.61 567L101.21 567.88ZM101.21 567.88L99.64 568.43ZM99.64 568.43L97.99 568.62ZM97.99 568.62L96.34 568.43ZM96.34 568.43L94.77 567.88ZM94.77 567.88L93.36 567ZM93.36 567L92.18 565.82ZM92.18 565.82L91.3 564.42ZM91.3 564.42L90.75 562.85ZM90.75 562.85L90.57 561.2Z" stroke="black" stroke-width="4"/>
<path d="M83.14 449.88L80.24 450.07L77.38 450.63L74.62 451.57L72.01 452.86L69.59 454.48L67.4 456.4L65.48 458.59L63.86 461.01L62.58 463.62L61.64 466.38L61.07 469.23L60.88 472.14L61.07 475.05L61.64 477.9L62.58 480.66L63.86 483.27L65.48 485.69L67.4 487.88L69.59 489.8L72.01 491.42L74.62 492.71L77.38 493.64L80.24 494.21L83.14 494.4" stroke="black" stroke-width="4"/>
<path d="M83.14 449.88H142.52" stroke="black" stroke-width="4"/>
<path d="M83.14 538.93H142.52" stroke="black" stroke-width="4"/>
<path d="M83.14 494.4L80.24 494.59L77.38 495.16L74.62 496.1L72.01 497.39L69.59 499L67.4 500.92L65.48 503.11L63.86 505.54L62.58 508.15L61.64 510.91L61.07 513.76L60.88 516.67L61.07 519.57L61.64 522.43L62.58 525.19L63.86 527.8L65.48 530.22L67.4 532.41L69.59 534.33L72.01 535.95L74.62 537.24L77.38 538.17L80.24 538.74L83.14 538.93" stroke="black" stroke-width="4"/>
</svg>
