<svg width="800" height="600" viewBox="0 0 800 600" fill="none" xmlns="http://www.w3.org/2000/svg">
<path d="M392.58 598.3V1.69995" stroke="black" stroke-width="4"/>
<path fill-rule="evenodd" clip-rule="evenodd" d="M677.42 536.15V530.5L676.44 534.94L677.42 536.15Z" fill="#0000FF"/>
<path fill-rule="evenodd" clip-rule="evenodd" d="M677.42 536.15L677.63 536.39L677.42 530.5V536.15Z" fill="#0000FF"/>
<path fill-rule="evenodd" clip-rule="evenodd" d="M677.63 536.39V529.59L677.42 530.5L677.63 536.39Z" fill="#0000FF"/>
<path fill-rule="evenodd" clip-rule="evenodd" d="M677.63 78.06V64.96L677.42 65.13L677.63 78.06Z" fill="#0000FF"/>
<path fill-rule="evenodd" clip-rule="evenodd" d="M677.63 536.39L679.24 538.37L677.63 529.59V536.39Z" fill="#0000FF"/>
<path fill-rule="evenodd" clip-rule="evenodd" d="M679.24 538.37V522.31L677.63 529.59L679.24 538.37Z" fill="#0000FF"/>
<path fill-rule="evenodd" clip-rule="evenodd" d="M677.63 78.06L679.24 79.3L677.63 64.96V78.06Z" fill="#0000FF"/>
<path fill-rule="evenodd" clip-rule="evenodd" d="M679.24 79.3V63.65L677.63 64.96L679.24 79.3Z" fill="#0000FF"/>
<path fill-rule="evenodd" clip-rule="evenodd" d="M679.24 538.37L684.62 544.97L679.24 522.31V538.37Z" fill="#0000FF"/>
<path fill-rule="evenodd" clip-rule="evenodd" d="M684.62 544.97V519.7L679.24 522.31L684.62 544.97Z" fill="#0000FF"/>
<path fill-rule="evenodd" clip-rule="evenodd" d="M679.24 79.3L684.62 83.42L679.24 63.65V79.3Z" fill="#0000FF"/>
<path fill-rule="evenodd" clip-rule="evenodd" d="M684.62 83.42V59.26L679.24 63.65L684.62 83.42Z" fill="#0000FF"/>
<path fill-rule="evenodd" clip-rule="evenodd" d="M684.62 544.97L687.45 544.92L684.62 519.7V544.97Z" fill="#0000FF"/>
<path fill-rule="evenodd" clip-rule="evenodd" d="M687.45 544.92V518.33L684.62 519.7L687.45 544.92Z" fill="#0000FF"/>
<path fill-rule="evenodd" clip-rule="evenodd" d="M684.62 83.42L687.45 85.58L684.62 59.26V83.42Z" fill="#0000FF"/>
<path fill-rule="evenodd" clip-rule="evenodd" d="M687.45 85.58V56.95L684.62 59.26L687.45 85.58Z" fill="#0000FF"/>
<path fill-rule="evenodd" clip-rule="evenodd" d="M687.45 544.92H687.9L687.45 518.33V544.92Z" fill="#0000FF"/>
<path fill-rule="evenodd" clip-rule="evenodd" d="M687.9 544.92V518.11L687.45 518.33L687.9 544.92Z" fill="#0000FF"/>
<path fill-rule="evenodd" clip-rule="evenodd" d="M687.45 85.58L687.9 85.93L687.45 56.95V85.58Z" fill="#0000FF"/>
<path fill-rule="evenodd" clip-rule="evenodd" d="M687.9 85.93V57.05L687.45 56.95L687.9 85.93Z" fill="#0000FF"/>
<path fill-rule="evenodd" clip-rule="evenodd" d="M687.9 544.92L690.88 544.87L687.9 518.11V544.92Z" fill="#0000FF"/>
<path fill-rule="evenodd" clip-rule="evenodd" d="M690.88 544.87V516.67L687.9 518.11L690.88 544.87Z" fill="#0000FF"/>
<path fill-rule="evenodd" clip-rule="evenodd" d="M687.9 85.93L690.88 86.23L687.9 57.05V85.93Z" fill="#0000FF"/>
<path fill-rule="evenodd" clip-rule="evenodd" d="M690.88 86.23V57.71L687.9 57.05L690.88 86.23Z" fill="#0000FF"/>
<path fill-rule="evenodd" clip-rule="evenodd" d="M690.88 544.87L697.56 544.77L690.88 516.67V544.87Z" fill="#0000FF"/>
<path fill-rule="evenodd" clip-rule="evenodd" d="M697.56 544.77V518.99L690.88 516.67L697.56 544.77Z" fill="#0000FF"/>
<path fill-rule="evenodd" clip-rule="evenodd" d="M690.88 86.23L697.56 83L690.88 57.71V86.23Z" fill="#0000FF"/>
<path fill-rule="evenodd" clip-rule="evenodd" d="M697.56 83V59.18L690.88 57.71L697.56 83Z" fill="#0000FF"/>
<path fill-rule="evenodd" clip-rule="evenodd" d="M697.56 544.77L700.08 541.47L697.56 518.99V544.77Z" fill="#0000FF"/>
<path fill-rule="evenodd" clip-rule="evenodd" d="M700.08 541.47V519.86L697.56 518.99L700.08 541.47Z" fill="#0000FF"/>
<path fill-rule="evenodd" clip-rule="evenodd" d="M697.56 83L700.08 81.77L697.56 59.18V83Z" fill="#0000FF"/>
<path fill-rule="evenodd" clip-rule="evenodd" d="M700.08 81.77V59.74L697.56 59.18L700.08 81.77Z" fill="#0000FF"/>
<path fill-rule="evenodd" clip-rule="evenodd" d="M700.08 541.47L702.53 538.27L700.08 519.86V541.47Z" fill="#0000FF"/>
<path fill-rule="evenodd" clip-rule="evenodd" d="M702.53 538.27V524.91L700.08 519.86L702.53 538.27Z" fill="#0000FF"/>
<path fill-rule="evenodd" clip-rule="evenodd" d="M700.08 81.77L702.53 80.59L700.08 59.74V81.77Z" fill="#0000FF"/>
<path fill-rule="evenodd" clip-rule="evenodd" d="M702.53 80.59V64.79L700.08 59.74L702.53 80.59Z" fill="#0000FF"/>
<path fill-rule="evenodd" clip-rule="evenodd" d="M702.53 538.27L705.42 534.49L702.53 524.91V538.27Z" fill="#0000FF"/>
<path fill-rule="evenodd" clip-rule="evenodd" d="M705.42 534.49V530.89L702.53 524.91L705.42 534.49Z" fill="#0000FF"/>
<path fill-rule="evenodd" clip-rule="evenodd" d="M702.53 80.59L705.42 72.26L702.53 64.79V80.59Z" fill="#0000FF"/>
<path fill-rule="evenodd" clip-rule="evenodd" d="M705.42 72.26V70.76L702.53 64.79L705.42 72.26Z" fill="#0000FF"/>
<path fill-rule="evenodd" clip-rule="evenodd" d="M705.42 534.49L705.72 531.51L705.42 530.89V534.49Z" fill="#0000FF"/>
<path fill-rule="evenodd" clip-rule="evenodd" d="M705.42 72.26L705.72 71.39L705.42 70.76V72.26Z" fill="#0000FF"/>
<path d="M690.88 598.3V4.59998" stroke="black" stroke-width="4"/>
<path d="M661.2 115.92L657.09 116.11L653.01 116.67L649.01 117.62L645.11 118.92L641.35 120.58L637.75 122.59L634.36 124.91L631.2 127.54L628.29 130.45L625.66 133.61L623.34 137L621.34 140.6L619.67 144.36L618.37 148.26L617.43 152.26L616.86 156.34L616.67 160.44L616.86 164.55L617.43 168.63L618.37 172.63L619.67 176.53L621.34 180.29L623.34 183.88L625.66 187.28L628.29 190.44L631.2 193.35L634.36 195.98L637.75 198.3L641.35 200.3L645.11 201.96L649.01 203.27L653.01 204.21L657.09 204.78L661.2 204.97" stroke="black" stroke-width="4"/>
<path d="M661.2 115.92H779.94" stroke="black" stroke-width="4"/>
<path d="M705.72 71.39L705.53 69.01ZM705.53 69.01L704.96 66.69ZM704.96 66.69L704.02 64.49ZM704.02 64.49L702.75 62.47ZM702.75 62.47L701.16 60.68ZM701.16 60.68L699.31 59.17ZM699.31 59.17L697.24 57.98ZM697.24 57.98L695.01 57.13ZM695.01 57.13L692.67 56.65ZM692.67 56.65L690.28 56.56ZM690.28 56.56L687.91 56.84ZM687.91 56.84L685.62 57.51ZM685.62 57.51L683.46 58.53ZM683.46 58.53L681.49 59.89ZM681.49 59.89L679.77 61.55ZM679.77 61.55L678.34 63.45ZM678.34 63.45L677.23 65.57ZM677.23 65.57L676.47 67.84ZM676.47 67.84L676.09 70.19ZM676.09 70.19V72.58ZM676.09 72.58L676.47 74.94ZM676.47 74.94L677.23 77.21ZM677.23 77.21L678.34 79.32ZM678.34 79.32L679.77 81.23ZM679.77 81.23L681.49 82.88ZM681.49 82.88L683.46 84.24ZM683.46 84.24L685.62 85.27ZM685.62 85.27L687.91 85.93ZM687.91 85.93L690.28 86.22ZM690.28 86.22L692.67 86.12ZM692.67 86.12L695.01 85.64ZM695.01 85.64L697.24 84.8ZM697.24 84.8L699.31 83.6ZM699.31 83.6L701.16 82.09ZM701.16 82.09L702.75 80.3ZM702.75 80.3L704.02 78.29ZM704.02 78.29L704.96 76.09ZM704.96 76.09L705.53 73.77ZM705.53 73.77L705.72 71.39Z" stroke="black" stroke-width="4"/>
<path d="M705.72 531.51L705.53 529.13ZM705.53 529.13L704.96 526.81ZM704.96 526.81L704.02 524.61ZM704.02 524.61L702.75 522.59ZM702.75 522.59L701.16 520.81ZM701.16 520.81L699.31 519.29ZM699.31 519.29L697.24 518.1ZM697.24 518.1L695.01 517.25ZM695.01 517.25L692.67 516.78ZM692.67 516.78L690.28 516.68ZM690.28 516.68L687.91 516.97ZM687.91 516.97L685.62 517.63ZM685.62 517.63L683.46 518.66ZM683.46 518.66L681.49 520.01ZM681.49 520.01L679.77 521.67ZM679.77 521.67L678.34 523.58ZM678.34 523.58L677.23 525.69ZM677.23 525.69L676.47 527.96ZM676.47 527.96L676.09 530.32ZM676.09 530.32V532.7ZM676.09 532.7L676.47 535.06ZM676.47 535.06L677.23 537.33ZM677.23 537.33L678.34 539.44ZM678.34 539.44L679.77 541.35ZM679.77 541.35L681.49 543.01ZM681.49 543.01L683.46 544.36ZM683.46 544.36L685.62 545.39ZM685.62 545.39L687.91 546.05ZM687.91 546.05L690.28 546.34ZM690.28 546.34L692.67 546.24ZM692.67 546.24L695.01 545.77ZM695.01 545.77L697.24 544.92ZM697.24 544.92L699.31 543.73ZM699.31 543.73L701.16 542.21ZM701.16 542.21L702.75 540.43ZM702.75 540.43L704.02 538.41ZM704.02 538.41L704.96 536.21ZM704.96 536.21L705.53 533.89ZM705.53 533.89L705.72 531.51Z" stroke="black" stroke-width="4"/>
<path d="M661.2 294.03H779.94" stroke="black" stroke-width="4"/>
<path d="M661.2 204.97L657.09 205.16L653.01 205.73L649.01 206.67L645.11 207.98L641.35 209.64L637.75 211.64L634.36 213.97L631.2 216.59L628.29 219.5L625.66 222.67L623.34 226.06L621.34 229.65L619.67 233.41L618.37 237.31L617.43 241.32L616.86 245.39L616.67 249.5L616.86 253.61L617.43 257.68L618.37 261.69L619.67 265.58L621.34 269.35L623.34 272.94L625.66 276.33L628.29 279.5L631.2 282.41L634.36 285.03L637.75 287.36L641.35 289.36L645.11 291.02L649.01 292.33L653.01 293.27L657.09 293.84L661.2 294.03" stroke="black" stroke-width="4"/>
<path d="M661.2 308.87L657.09 309.06L653.01 309.63L649.01 310.57L645.11 311.88L641.35 313.54L637.75 315.54L634.36 317.86L631.2 320.49L628.29 323.4L625.66 326.56L623.34 329.96L621.34 333.55L619.67 337.31L618.37 341.21L617.43 345.22L616.86 349.29L616.67 353.4L616.86 357.51L617.43 361.58L618.37 365.58L619.67 369.48L621.34 373.25L623.34 376.84L625.66 380.23L628.29 383.4L631.2 386.3L634.36 388.93L637.75 391.26L641.35 393.26L645.11 394.92L649.01 396.23L653.01 397.17L657.09 397.74L661.2 397.93" stroke="black" stroke-width="4"/>
<path d="M661.2 308.87H779.94" stroke="black" stroke-width="4"/>
<path d="M661.2 486.98H779.94" stroke="black" stroke-width="4"/>
<path d="M661.2 397.93L657.09 398.12L653.01 398.68L649.01 399.63L645.11 400.93L641.35 402.59L637.75 404.6L634.36 406.92L631.2 409.55L628.29 412.46L625.66 415.62L623.34 419.01L621.34 422.61L619.67 426.37L618.37 430.27L617.43 434.27L616.86 438.35L616.67 442.45L616.86 446.56L617.43 450.64L618.37 454.64L619.67 458.54L621.34 462.3L623.34 465.9L625.66 469.29L628.29 472.45L631.2 475.36L634.36 477.99L637.75 480.31L641.35 482.31L645.11 483.98L649.01 485.28L653.01 486.22L657.09 486.79L661.2 486.98" stroke="black" stroke-width="4"/>
<path fill-rule="evenodd" clip-rule="evenodd" d="M80.82 536.15V530.5L79.84 534.94L80.82 536.15Z" fill="#0000FF"/>
<path fill-rule="evenodd" clip-rule="evenodd" d="M80.8199 536.15L81.0199 536.39L80.8199 530.5V536.15Z" fill="#0000FF"/>
<path fill-rule="evenodd" clip-rule="evenodd" d="M81.0199 536.39V529.59L80.8199 530.5L81.0199 536.39Z" fill="#0000FF"/>
<path fill-rule="evenodd" clip-rule="evenodd" d="M81.0199 78.06V64.96L80.8199 65.13L81.0199 78.06Z" fill="#0000FF"/>
<path fill-rule="evenodd" clip-rule="evenodd" d="M81.02 536.39L82.63 538.37L81.02 529.59V536.39Z" fill="#0000FF"/>
<path fill-rule="evenodd" clip-rule="evenodd" d="M82.63 538.37V522.31L81.02 529.59L82.63 538.37Z" fill="#0000FF"/>
<path fill-rule="evenodd" clip-rule="evenodd" d="M81.02 78.06L82.63 79.3L81.02 64.96V78.06Z" fill="#0000FF"/>
<path fill-rule="evenodd" clip-rule="evenodd" d="M82.63 79.3V63.65L81.02 64.96L82.63 79.3Z" fill="#0000FF"/>
<path fill-rule="evenodd" clip-rule="evenodd" d="M82.63 538.37L88.02 544.97L82.63 522.31V538.37Z" fill="#0000FF"/>
<path fill-rule="evenodd" clip-rule="evenodd" d="M88.02 544.97V519.7L82.63 522.31L88.02 544.97Z" fill="#0000FF"/>
<path fill-rule="evenodd" clip-rule="evenodd" d="M82.63 79.3L88.02 83.42L82.63 63.65V79.3Z" fill="#0000FF"/>
<path fill-rule="evenodd" clip-rule="evenodd" d="M88.02 83.42V59.26L82.63 63.65L88.02 83.42Z" fill="#0000FF"/>
<path fill-rule="evenodd" clip-rule="evenodd" d="M88.02 544.97L90.84 544.92L88.02 519.7V544.97Z" fill="#0000FF"/>
<path fill-rule="evenodd" clip-rule="evenodd" d="M90.84 544.92V518.33L88.02 519.7L90.84 544.92Z" fill="#0000FF"/>
<path fill-rule="evenodd" clip-rule="evenodd" d="M88.02 83.42L90.84 85.58L88.02 59.26V83.42Z" fill="#0000FF"/>
<path fill-rule="evenodd" clip-rule="evenodd" d="M90.84 85.58V56.95L88.02 59.26L90.84 85.58Z" fill="#0000FF"/>
<path fill-rule="evenodd" clip-rule="evenodd" d="M90.84 544.92H91.3L90.84 518.33V544.92Z" fill="#0000FF"/>
<path fill-rule="evenodd" clip-rule="evenodd" d="M91.3 544.92V518.11L90.84 518.33L91.3 544.92Z" fill="#0000FF"/>
<path fill-rule="evenodd" clip-rule="evenodd" d="M90.84 85.58L91.3 85.93L90.84 56.95V85.58Z" fill="#0000FF"/>
<path fill-rule="evenodd" clip-rule="evenodd" d="M91.3 85.93V57.05L90.84 56.95L91.3 85.93Z" fill="#0000FF"/>
<path fill-rule="evenodd" clip-rule="evenodd" d="M91.3 544.92L94.28 544.87L91.3 518.11V544.92Z" fill="#0000FF"/>
<path fill-rule="evenodd" clip-rule="evenodd" d="M94.28 544.87V516.67L91.3 518.11L94.28 544.87Z" fill="#0000FF"/>
<path fill-rule="evenodd" clip-rule="evenodd" d="M91.3 85.93L94.28 86.23L91.3 57.05V85.93Z" fill="#0000FF"/>
<path fill-rule="evenodd" clip-rule="evenodd" d="M94.28 86.23V57.71L91.3 57.05L94.28 86.23Z" fill="#0000FF"/>
<path fill-rule="evenodd" clip-rule="evenodd" d="M94.28 544.87L100.95 544.77L94.28 516.67V544.87Z" fill="#0000FF"/>
<path fill-rule="evenodd" clip-rule="evenodd" d="M100.95 544.77V518.99L94.28 516.67L100.95 544.77Z" fill="#0000FF"/>
<path fill-rule="evenodd" clip-rule="evenodd" d="M94.28 86.23L100.95 83L94.28 57.71V86.23Z" fill="#0000FF"/>
<path fill-rule="evenodd" clip-rule="evenodd" d="M100.95 83V59.18L94.28 57.71L100.95 83Z" fill="#0000FF"/>
<path fill-rule="evenodd" clip-rule="evenodd" d="M100.95 544.77L103.48 541.47L100.95 518.99V544.77Z" fill="#0000FF"/>
<path fill-rule="evenodd" clip-rule="evenodd" d="M103.48 541.47V519.86L100.95 518.99L103.48 541.47Z" fill="#0000FF"/>
<path fill-rule="evenodd" clip-rule="evenodd" d="M100.95 83L103.48 81.77L100.95 59.18V83Z" fill="#0000FF"/>
<path fill-rule="evenodd" clip-rule="evenodd" d="M103.48 81.77V59.74L100.95 59.18L103.48 81.77Z" fill="#0000FF"/>
<path fill-rule="evenodd" clip-rule="evenodd" d="M103.48 541.47L105.92 538.27L103.48 519.86V541.47Z" fill="#0000FF"/>
<path fill-rule="evenodd" clip-rule="evenodd" d="M105.92 538.27V524.91L103.48 519.86L105.92 538.27Z" fill="#0000FF"/>
<path fill-rule="evenodd" clip-rule="evenodd" d="M103.48 81.77L105.92 80.59L103.48 59.74V81.77Z" fill="#0000FF"/>
<path fill-rule="evenodd" clip-rule="evenodd" d="M105.92 80.59V64.79L103.48 59.74L105.92 80.59Z" fill="#0000FF"/>
<path fill-rule="evenodd" clip-rule="evenodd" d="M105.92 538.27L108.82 534.49L105.92 524.91V538.27Z" fill="#0000FF"/>
<path fill-rule="evenodd" clip-rule="evenodd" d="M108.82 534.49V530.89L105.92 524.91L108.82 534.49Z" fill="#0000FF"/>
<path fill-rule="evenodd" clip-rule="evenodd" d="M105.92 80.59L108.82 72.26L105.92 64.79V80.59Z" fill="#0000FF"/>
<path fill-rule="evenodd" clip-rule="evenodd" d="M108.82 72.26V70.76L105.92 64.79L108.82 72.26Z" fill="#0000FF"/>
<path fill-rule="evenodd" clip-rule="evenodd" d="M108.82 534.49L109.12 531.51L108.82 530.89V534.49Z" fill="#0000FF"/>
<path fill-rule="evenodd" clip-rule="evenodd" d="M108.82 72.26L109.12 71.39L108.82 70.76V72.26Z" fill="#0000FF"/>
<path d="M94.28 598.3V4.59998" stroke="black" stroke-width="4"/>
<path d="M64.5901 115.92L60.4801 116.11L56.4101 116.67L52.4101 117.62L48.5101 118.92L44.7401 120.58L41.1501 122.59L37.7601 124.91L34.5901 127.54L31.6801 130.45L29.0601 133.61L26.7301 137L24.7301 140.6L23.0701 144.36L21.7601 148.26L20.8201 152.26L20.2501 156.34L20.0601 160.44L20.2501 164.55L20.8201 168.63L21.7601 172.63L23.0701 176.53L24.7301 180.29L26.7301 183.88L29.0601 187.28L31.6801 190.44L34.5901 193.35L37.7601 195.98L41.1501 198.3L44.7401 200.3L48.5101 201.96L52.4101 203.27L56.4101 204.21L60.4801 204.78L64.5901 204.97" stroke="black" stroke-width="4"/>
<path d="M64.59 115.92H183.33" stroke="black" stroke-width="4"/>
<path d="M109.12 71.39L108.93 69.01ZM108.93 69.01L108.36 66.69ZM108.36 66.69L107.42 64.49ZM107.42 64.49L106.14 62.47ZM106.14 62.47L104.56 60.68ZM104.56 60.68L102.71 59.17ZM102.71 59.17L100.64 57.98ZM100.64 57.98L98.41 57.13ZM98.41 57.13L96.07 56.65ZM96.07 56.65L93.68 56.56ZM93.68 56.56L91.31 56.84ZM91.31 56.84L89.01 57.51ZM89.01 57.51L86.86 58.53ZM86.86 58.53L84.89 59.89ZM84.89 59.89L83.17 61.55ZM83.17 61.55L81.73 63.45ZM81.73 63.45L80.62 65.57ZM80.62 65.57L79.87 67.84ZM79.87 67.84L79.48 70.19ZM79.48 70.19V72.58ZM79.48 72.58L79.87 74.94ZM79.87 74.94L80.62 77.21ZM80.62 77.21L81.73 79.32ZM81.73 79.32L83.17 81.23ZM83.17 81.23L84.89 82.88ZM84.89 82.88L86.86 84.24ZM86.86 84.24L89.01 85.27ZM89.01 85.27L91.31 85.93ZM91.31 85.93L93.68 86.22ZM93.68 86.22L96.07 86.12ZM96.07 86.12L98.41 85.64ZM98.41 85.64L100.64 84.8ZM100.64 84.8L102.71 83.6ZM102.71 83.6L104.56 82.09ZM104.56 82.09L106.14 80.3ZM106.14 80.3L107.42 78.29ZM107.42 78.29L108.36 76.09ZM108.36 76.09L108.93 73.77ZM108.93 73.77L109.12 71.39Z" stroke="black" stroke-width="4"/>
<path d="M109.12 531.51L108.93 529.13ZM108.93 529.13L108.36 526.81ZM108.36 526.81L107.42 524.61ZM107.42 524.61L106.14 522.59ZM106.14 522.59L104.56 520.81ZM104.56 520.81L102.71 519.29ZM102.71 519.29L100.64 518.1ZM100.64 518.1L98.41 517.25ZM98.41 517.25L96.07 516.78ZM96.07 516.78L93.68 516.68ZM93.68 516.68L91.31 516.97ZM91.31 516.97L89.01 517.63ZM89.01 517.63L86.86 518.66ZM86.86 518.66L84.89 520.01ZM84.89 520.01L83.17 521.67ZM83.17 521.67L81.73 523.58ZM81.73 523.58L80.62 525.69ZM80.62 525.69L79.87 527.96ZM79.87 527.96L79.48 530.32ZM79.48 530.32V532.7ZM79.48 532.7L79.87 535.06ZM79.87 535.06L80.62 537.33ZM80.62 537.33L81.73 539.44ZM81.73 539.44L83.17 541.35ZM83.17 541.35L84.89 543.01ZM84.89 543.01L86.86 544.36ZM86.86 544.36L89.01 545.39ZM89.01 545.39L91.31 546.05ZM91.31 546.05L93.68 546.34ZM93.68 546.34L96.07 546.24ZM96.07 546.24L98.41 545.77ZM98.41 545.77L100.64 544.92ZM100.64 544.92L102.71 543.73ZM102.71 543.73L104.56 542.21ZM104.56 542.21L106.14 540.43ZM106.14 540.43L107.42 538.41ZM107.42 538.41L108.36 536.21ZM108.36 536.21L108.93 533.89ZM108.93 533.89L109.12 531.51Z" stroke="black" stroke-width="4"/>
<path d="M64.59 294.03H183.33" stroke="black" stroke-width="4"/>
<path d="M64.5901 204.97L60.4801 205.16L56.4101 205.73L52.4101 206.67L48.5101 207.98L44.7401 209.64L41.1501 211.64L37.7601 213.97L34.5901 216.59L31.6801 219.5L29.0601 222.67L26.7301 226.06L24.7301 229.65L23.0701 233.41L21.7601 237.31L20.8201 241.32L20.2501 245.39L20.0601 249.5L20.2501 253.61L20.8201 257.68L21.7601 261.69L23.0701 265.58L24.7301 269.35L26.7301 272.94L29.0601 276.33L31.6801 279.5L34.5901 282.41L37.7601 285.03L41.1501 287.36L44.7401 289.36L48.5101 291.02L52.4101 292.33L56.4101 293.27L60.4801 293.84L64.5901 294.03" stroke="black" stroke-width="4"/>
<path d="M64.5901 308.87L60.4801 309.06L56.4101 309.63L52.4101 310.57L48.5101 311.88L44.7401 313.54L41.1501 315.54L37.7601 317.86L34.5901 320.49L31.6801 323.4L29.0601 326.56L26.7301 329.96L24.7301 333.55L23.0701 337.31L21.7601 341.21L20.8201 345.22L20.2501 349.29L20.0601 353.4L20.2501 357.51L20.8201 361.58L21.7601 365.58L23.0701 369.48L24.7301 373.25L26.7301 376.84L29.0601 380.23L31.6801 383.4L34.5901 386.3L37.7601 388.93L41.1501 391.26L44.7401 393.26L48.5101 394.92L52.4101 396.23L56.4101 397.17L60.4801 397.74L64.5901 397.93" stroke="black" stroke-width="4"/>
<path d="M64.59 308.87H183.33" stroke="black" stroke-width="4"/>
<path d="M64.59 486.98H183.33" stroke="black" stroke-width="4"/>
<path d="M64.5901 397.93L60.4801 398.12L56.4101 398.68L52.4101 399.63L48.5101 400.93L44.7401 402.59L41.1501 404.6L37.7601 406.92L34.5901 409.55L31.6801 412.46L29.0601 415.62L26.7301 419.01L24.7301 422.61L23.0701 426.37L21.7601 430.27L20.8201 434.27L20.2501 438.35L20.0601 442.45L20.2501 446.56L20.8201 450.64L21.7601 454.64L23.0701 458.54L24.7301 462.3L26.7301 465.9L29.0601 469.29L31.6801 472.45L34.5901 475.36L37.7601 477.99L41.1501 480.31L44.7401 482.31L48.5101 483.98L52.4101 485.28L56.4101 486.22L60.4801 486.79L64.5901 486.98" stroke="black" stroke-width="4"/>
</svg>
