<?xml version="1.0" encoding="UTF-8"?>
<svg xmlns="http://www.w3.org/2000/svg" width="800.000" height="600.000" viewBox="0.0 0.0 800.000 600.000" version="1.1">
  <title>Produce by Acme CAD Converter</title>
  <desc>Produce by Acme CAD Converter</desc>
<path d="M392.58 598.3L392.58 1.7"
fill="none" stroke="black" stroke-width="0.5"/>
<path d="M677.42 536.15L677.42 530.5 676.44 534.94 677.42 536.15Z"
fill-rule="evenodd" fill="blue"/>
<path d="M677.42 536.15L677.63 536.39 677.42 530.5 677.42 536.15Z"
fill-rule="evenodd" fill="blue"/>
<path d="M677.63 536.39L677.63 529.59 677.42 530.5 677.63 536.39Z"
fill-rule="evenodd" fill="blue"/>
<path d="M677.63 78.06L677.63 64.96 677.42 65.13 677.63 78.06Z"
fill-rule="evenodd" fill="blue"/>
<path d="M677.63 536.39L679.24 538.37 677.63 529.59 677.63 536.39Z"
fill-rule="evenodd" fill="blue"/>
<path d="M679.24 538.37L679.24 522.31 677.63 529.59 679.24 538.37Z"
fill-rule="evenodd" fill="blue"/>
<path d="M677.63 78.06L679.24 79.3 677.63 64.96 677.63 78.06Z"
fill-rule="evenodd" fill="blue"/>
<path d="M679.24 79.3L679.24 63.65 677.63 64.96 679.24 79.3Z"
fill-rule="evenodd" fill="blue"/>
<path d="M679.24 538.37L684.62 544.97 679.24 522.31 679.24 538.37Z"
fill-rule="evenodd" fill="blue"/>
<path d="M684.62 544.97L684.62 519.7 679.24 522.31 684.62 544.97Z"
fill-rule="evenodd" fill="blue"/>
<path d="M679.24 79.3L684.62 83.42 679.24 63.65 679.24 79.3Z"
fill-rule="evenodd" fill="blue"/>
<path d="M684.62 83.42L684.62 59.26 679.24 63.65 684.62 83.42Z"
fill-rule="evenodd" fill="blue"/>
<path d="M684.62 544.97L687.45 544.92 684.62 519.7 684.62 544.97Z"
fill-rule="evenodd" fill="blue"/>
<path d="M687.45 544.92L687.45 518.33 684.62 519.7 687.45 544.92Z"
fill-rule="evenodd" fill="blue"/>
<path d="M684.62 83.42L687.45 85.58 684.62 59.26 684.62 83.42Z"
fill-rule="evenodd" fill="blue"/>
<path d="M687.45 85.58L687.45 56.95 684.62 59.26 687.45 85.58Z"
fill-rule="evenodd" fill="blue"/>
<path d="M687.45 544.92L687.9 544.92 687.45 518.33 687.45 544.92Z"
fill-rule="evenodd" fill="blue"/>
<path d="M687.9 544.92L687.9 518.11 687.45 518.33 687.9 544.92Z"
fill-rule="evenodd" fill="blue"/>
<path d="M687.45 85.58L687.9 85.93 687.45 56.95 687.45 85.58Z"
fill-rule="evenodd" fill="blue"/>
<path d="M687.9 85.93L687.9 57.05 687.45 56.95 687.9 85.93Z"
fill-rule="evenodd" fill="blue"/>
<path d="M687.9 544.92L690.88 544.87 687.9 518.11 687.9 544.92Z"
fill-rule="evenodd" fill="blue"/>
<path d="M690.88 544.87L690.88 516.67 687.9 518.11 690.88 544.87Z"
fill-rule="evenodd" fill="blue"/>
<path d="M687.9 85.93L690.88 86.23 687.9 57.05 687.9 85.93Z"
fill-rule="evenodd" fill="blue"/>
<path d="M690.88 86.23L690.88 57.71 687.9 57.05 690.88 86.23Z"
fill-rule="evenodd" fill="blue"/>
<path d="M690.88 544.87L697.56 544.77 690.88 516.67 690.88 544.87Z"
fill-rule="evenodd" fill="blue"/>
<path d="M697.56 544.77L697.56 518.99 690.88 516.67 697.56 544.77Z"
fill-rule="evenodd" fill="blue"/>
<path d="M690.88 86.23L697.56 83 690.88 57.71 690.88 86.23Z"
fill-rule="evenodd" fill="blue"/>
<path d="M697.56 83L697.56 59.18 690.88 57.71 697.56 83Z"
fill-rule="evenodd" fill="blue"/>
<path d="M697.56 544.77L700.08 541.47 697.56 518.99 697.56 544.77Z"
fill-rule="evenodd" fill="blue"/>
<path d="M700.08 541.47L700.08 519.86 697.56 518.99 700.08 541.47Z"
fill-rule="evenodd" fill="blue"/>
<path d="M697.56 83L700.08 81.77 697.56 59.18 697.56 83Z"
fill-rule="evenodd" fill="blue"/>
<path d="M700.08 81.77L700.08 59.74 697.56 59.18 700.08 81.77Z"
fill-rule="evenodd" fill="blue"/>
<path d="M700.08 541.47L702.53 538.27 700.08 519.86 700.08 541.47Z"
fill-rule="evenodd" fill="blue"/>
<path d="M702.53 538.27L702.53 524.91 700.08 519.86 702.53 538.27Z"
fill-rule="evenodd" fill="blue"/>
<path d="M700.08 81.77L702.53 80.59 700.08 59.74 700.08 81.77Z"
fill-rule="evenodd" fill="blue"/>
<path d="M702.53 80.59L702.53 64.79 700.08 59.74 702.53 80.59Z"
fill-rule="evenodd" fill="blue"/>
<path d="M702.53 538.27L705.42 534.49 702.53 524.91 702.53 538.27Z"
fill-rule="evenodd" fill="blue"/>
<path d="M705.42 534.49L705.42 530.89 702.53 524.91 705.42 534.49Z"
fill-rule="evenodd" fill="blue"/>
<path d="M702.53 80.59L705.42 72.26 702.53 64.79 702.53 80.59Z"
fill-rule="evenodd" fill="blue"/>
<path d="M705.42 72.26L705.42 70.76 702.53 64.79 705.42 72.26Z"
fill-rule="evenodd" fill="blue"/>
<path d="M705.42 534.49L705.72 531.51 705.42 530.89 705.42 534.49Z"
fill-rule="evenodd" fill="blue"/>
<path d="M705.42 72.26L705.72 71.39 705.42 70.76 705.42 72.26Z"
fill-rule="evenodd" fill="blue"/>
<path d="M690.88 598.3L690.88 4.6"
fill="none" stroke="black" stroke-width="0.5"/>
<path d="M661.2 115.92L657.09 116.11M657.09 116.11L653.01 116.67M653.01 116.67L649.01 117.62M649.01 117.62L645.11 118.92M645.11 118.92L641.35 120.58M641.35 120.58L637.75 122.59M637.75 122.59L634.36 124.91M634.36 124.91L631.2 127.54M631.2 127.54L628.29 130.45M628.29 130.45L625.66 133.61M625.66 133.61L623.34 137M623.34 137L621.34 140.6M621.34 140.6L619.67 144.36M619.67 144.36L618.37 148.26M618.37 148.26L617.43 152.26M617.43 152.26L616.86 156.34M616.86 156.34L616.67 160.44M616.67 160.44L616.86 164.55M616.86 164.55L617.43 168.63M617.43 168.63L618.37 172.63M618.37 172.63L619.67 176.53M619.67 176.53L621.34 180.29M621.34 180.29L623.34 183.88M623.34 183.88L625.66 187.28M625.66 187.28L628.29 190.44M628.29 190.44L631.2 193.35M631.2 193.35L634.36 195.98M634.36 195.98L637.75 198.3M637.75 198.3L641.35 200.3M641.35 200.3L645.11 201.96M645.11 201.96L649.01 203.27M649.01 203.27L653.01 204.21M653.01 204.21L657.09 204.78M657.09 204.78L661.2 204.97"
fill="none" stroke="black" stroke-width="0.5"/>
<path d="M661.2 115.92L779.94 115.92"
fill="none" stroke="black" stroke-width="0.5"/>
<path d="M705.72 71.39L705.53 69.01M705.53 69.01L704.96 66.69M704.96 66.69L704.02 64.49M704.02 64.49L702.75 62.47M702.75 62.47L701.16 60.68M701.16 60.68L699.31 59.17M699.31 59.17L697.24 57.98M697.24 57.98L695.01 57.13M695.01 57.13L692.67 56.65M692.67 56.65L690.28 56.56M690.28 56.56L687.91 56.84M687.91 56.84L685.62 57.51M685.62 57.51L683.46 58.53M683.46 58.53L681.49 59.89M681.49 59.89L679.77 61.55M679.77 61.55L678.34 63.45M678.34 63.45L677.23 65.57M677.23 65.57L676.47 67.84M676.47 67.84L676.09 70.19M676.09 70.19L676.09 72.58M676.09 72.58L676.47 74.94M676.47 74.94L677.23 77.21M677.23 77.21L678.34 79.32M678.34 79.32L679.77 81.23M679.77 81.23L681.49 82.88M681.49 82.88L683.46 84.24M683.46 84.24L685.62 85.27M685.62 85.27L687.91 85.93M687.91 85.93L690.28 86.22M690.28 86.22L692.67 86.12M692.67 86.12L695.01 85.64M695.01 85.64L697.24 84.8M697.24 84.8L699.31 83.6M699.31 83.6L701.16 82.09M701.16 82.09L702.75 80.3M702.75 80.3L704.02 78.29M704.02 78.29L704.96 76.09M704.96 76.09L705.53 73.77M705.53 73.77L705.72 71.39"
fill="none" stroke="black" stroke-width="0.5"/>
<path d="M705.72 531.51L705.53 529.13M705.53 529.13L704.96 526.81M704.96 526.81L704.02 524.61M704.02 524.61L702.75 522.59M702.75 522.59L701.16 520.81M701.16 520.81L699.31 519.29M699.31 519.29L697.24 518.1M697.24 518.1L695.01 517.25M695.01 517.25L692.67 516.78M692.67 516.78L690.28 516.68M690.28 516.68L687.91 516.97M687.91 516.97L685.62 517.63M685.62 517.63L683.46 518.66M683.46 518.66L681.49 520.01M681.49 520.01L679.77 521.67M679.77 521.67L678.34 523.58M678.34 523.58L677.23 525.69M677.23 525.69L676.47 527.96M676.47 527.96L676.09 530.32M676.09 530.32L676.09 532.7M676.09 532.7L676.47 535.06M676.47 535.06L677.23 537.33M677.23 537.33L678.34 539.44M678.34 539.44L679.77 541.35M679.77 541.35L681.49 543.01M681.49 543.01L683.46 544.36M683.46 544.36L685.62 545.39M685.62 545.39L687.91 546.05M687.91 546.05L690.28 546.34M690.28 546.34L692.67 546.24M692.67 546.24L695.01 545.77M695.01 545.77L697.24 544.92M697.24 544.92L699.31 543.73M699.31 543.73L701.16 542.21M701.16 542.21L702.75 540.43M702.75 540.43L704.02 538.41M704.02 538.41L704.96 536.21M704.96 536.21L705.53 533.89M705.53 533.89L705.72 531.51"
fill="none" stroke="black" stroke-width="0.5"/>
<path d="M661.2 294.03L779.94 294.03"
fill="none" stroke="black" stroke-width="0.5"/>
<path d="M661.2 204.97L657.09 205.16M657.09 205.16L653.01 205.73M653.01 205.73L649.01 206.67M649.01 206.67L645.11 207.98M645.11 207.98L641.35 209.64M641.35 209.64L637.75 211.64M637.75 211.64L634.36 213.97M634.36 213.97L631.2 216.59M631.2 216.59L628.29 219.5M628.29 219.5L625.66 222.67M625.66 222.67L623.34 226.06M623.34 226.06L621.34 229.65M621.34 229.65L619.67 233.41M619.67 233.41L618.37 237.31M618.37 237.31L617.43 241.32M617.43 241.32L616.86 245.39M616.86 245.39L616.67 249.5M616.67 249.5L616.86 253.61M616.86 253.61L617.43 257.68M617.43 257.68L618.37 261.69M618.37 261.69L619.67 265.58M619.67 265.58L621.34 269.35M621.34 269.35L623.34 272.94M623.34 272.94L625.66 276.33M625.66 276.33L628.29 279.5M628.29 279.5L631.2 282.41M631.2 282.41L634.36 285.03M634.36 285.03L637.75 287.36M637.75 287.36L641.35 289.36M641.35 289.36L645.11 291.02M645.11 291.02L649.01 292.33M649.01 292.33L653.01 293.27M653.01 293.27L657.09 293.84M657.09 293.84L661.2 294.03"
fill="none" stroke="black" stroke-width="0.5"/>
<path d="M661.2 308.87L657.09 309.06M657.09 309.06L653.01 309.63M653.01 309.63L649.01 310.57M649.01 310.57L645.11 311.88M645.11 311.88L641.35 313.54M641.35 313.54L637.75 315.54M637.75 315.54L634.36 317.86M634.36 317.86L631.2 320.49M631.2 320.49L628.29 323.4M628.29 323.4L625.66 326.56M625.66 326.56L623.34 329.96M623.34 329.96L621.34 333.55M621.34 333.55L619.67 337.31M619.67 337.31L618.37 341.21M618.37 341.21L617.43 345.22M617.43 345.22L616.86 349.29M616.86 349.29L616.67 353.4M616.67 353.4L616.86 357.51M616.86 357.51L617.43 361.58M617.43 361.58L618.37 365.58M618.37 365.58L619.67 369.48M619.67 369.48L621.34 373.25M621.34 373.25L623.34 376.84M623.34 376.84L625.66 380.23M625.66 380.23L628.29 383.4M628.29 383.4L631.2 386.3M631.2 386.3L634.36 388.93M634.36 388.93L637.75 391.26M637.75 391.26L641.35 393.26M641.35 393.26L645.11 394.92M645.11 394.92L649.01 396.23M649.01 396.23L653.01 397.17M653.01 397.17L657.09 397.74M657.09 397.74L661.2 397.93"
fill="none" stroke="black" stroke-width="0.5"/>
<path d="M661.2 308.87L779.94 308.87"
fill="none" stroke="black" stroke-width="0.5"/>
<path d="M661.2 486.98L779.94 486.98"
fill="none" stroke="black" stroke-width="0.5"/>
<path d="M661.2 397.93L657.09 398.12M657.09 398.12L653.01 398.68M653.01 398.68L649.01 399.63M649.01 399.63L645.11 400.93M645.11 400.93L641.35 402.59M641.35 402.59L637.75 404.6M637.75 404.6L634.36 406.92M634.36 406.92L631.2 409.55M631.2 409.55L628.29 412.46M628.29 412.46L625.66 415.62M625.66 415.62L623.34 419.01M623.34 419.01L621.34 422.61M621.34 422.61L619.67 426.37M619.67 426.37L618.37 430.27M618.37 430.27L617.43 434.27M617.43 434.27L616.86 438.35M616.86 438.35L616.67 442.45M616.67 442.45L616.86 446.56M616.86 446.56L617.43 450.64M617.43 450.64L618.37 454.64M618.37 454.64L619.67 458.54M619.67 458.54L621.34 462.3M621.34 462.3L623.34 465.9M623.34 465.9L625.66 469.29M625.66 469.29L628.29 472.45M628.29 472.45L631.2 475.36M631.2 475.36L634.36 477.99M634.36 477.99L637.75 480.31M637.75 480.31L641.35 482.31M641.35 482.31L645.11 483.98M645.11 483.98L649.01 485.28M649.01 485.28L653.01 486.22M653.01 486.22L657.09 486.79M657.09 486.79L661.2 486.98"
fill="none" stroke="black" stroke-width="0.5"/>
<path d="M379.12 536.15L379.12 530.5 378.14 534.94 379.12 536.15Z"
fill-rule="evenodd" fill="blue"/>
<path d="M379.12 536.15L379.32 536.39 379.12 530.5 379.12 536.15Z"
fill-rule="evenodd" fill="blue"/>
<path d="M379.32 536.39L379.32 529.59 379.12 530.5 379.32 536.39Z"
fill-rule="evenodd" fill="blue"/>
<path d="M379.32 78.06L379.32 64.96 379.12 65.13 379.32 78.06Z"
fill-rule="evenodd" fill="blue"/>
<path d="M379.32 536.39L380.93 538.37 379.32 529.59 379.32 536.39Z"
fill-rule="evenodd" fill="blue"/>
<path d="M380.93 538.37L380.93 522.31 379.32 529.59 380.93 538.37Z"
fill-rule="evenodd" fill="blue"/>
<path d="M379.32 78.06L380.93 79.3 379.32 64.96 379.32 78.06Z"
fill-rule="evenodd" fill="blue"/>
<path d="M380.93 79.3L380.93 63.65 379.32 64.96 380.93 79.3Z"
fill-rule="evenodd" fill="blue"/>
<path d="M380.93 538.37L386.32 544.97 380.93 522.31 380.93 538.37Z"
fill-rule="evenodd" fill="blue"/>
<path d="M386.32 544.97L386.32 519.7 380.93 522.31 386.32 544.97Z"
fill-rule="evenodd" fill="blue"/>
<path d="M380.93 79.3L386.32 83.42 380.93 63.65 380.93 79.3Z"
fill-rule="evenodd" fill="blue"/>
<path d="M386.32 83.42L386.32 59.26 380.93 63.65 386.32 83.42Z"
fill-rule="evenodd" fill="blue"/>
<path d="M386.32 544.97L389.15 544.92 386.32 519.7 386.32 544.97Z"
fill-rule="evenodd" fill="blue"/>
<path d="M389.15 544.92L389.15 518.33 386.32 519.7 389.15 544.92Z"
fill-rule="evenodd" fill="blue"/>
<path d="M386.32 83.42L389.15 85.58 386.32 59.26 386.32 83.42Z"
fill-rule="evenodd" fill="blue"/>
<path d="M389.15 85.58L389.15 56.95 386.32 59.26 389.15 85.58Z"
fill-rule="evenodd" fill="blue"/>
<path d="M389.15 544.92L389.6 544.92 389.15 518.33 389.15 544.92Z"
fill-rule="evenodd" fill="blue"/>
<path d="M389.6 544.92L389.6 518.11 389.15 518.33 389.6 544.92Z"
fill-rule="evenodd" fill="blue"/>
<path d="M389.15 85.58L389.6 85.93 389.15 56.95 389.15 85.58Z"
fill-rule="evenodd" fill="blue"/>
<path d="M389.6 85.93L389.6 57.05 389.15 56.95 389.6 85.93Z"
fill-rule="evenodd" fill="blue"/>
<path d="M389.6 544.92L392.58 544.87 389.6 518.11 389.6 544.92Z"
fill-rule="evenodd" fill="blue"/>
<path d="M392.58 544.87L392.58 516.67 389.6 518.11 392.58 544.87Z"
fill-rule="evenodd" fill="blue"/>
<path d="M389.6 85.93L392.58 86.23 389.6 57.05 389.6 85.93Z"
fill-rule="evenodd" fill="blue"/>
<path d="M392.58 86.23L392.58 57.71 389.6 57.05 392.58 86.23Z"
fill-rule="evenodd" fill="blue"/>
<path d="M392.58 544.87L399.26 544.77 392.58 516.67 392.58 544.87Z"
fill-rule="evenodd" fill="blue"/>
<path d="M399.26 544.77L399.26 518.99 392.58 516.67 399.26 544.77Z"
fill-rule="evenodd" fill="blue"/>
<path d="M392.58 86.23L399.26 83 392.58 57.71 392.58 86.23Z"
fill-rule="evenodd" fill="blue"/>
<path d="M399.26 83L399.26 59.18 392.58 57.71 399.26 83Z"
fill-rule="evenodd" fill="blue"/>
<path d="M399.26 544.77L401.78 541.47 399.26 518.99 399.26 544.77Z"
fill-rule="evenodd" fill="blue"/>
<path d="M401.78 541.47L401.78 519.86 399.26 518.99 401.78 541.47Z"
fill-rule="evenodd" fill="blue"/>
<path d="M399.26 83L401.78 81.77 399.26 59.18 399.26 83Z"
fill-rule="evenodd" fill="blue"/>
<path d="M401.78 81.77L401.78 59.74 399.26 59.18 401.78 81.77Z"
fill-rule="evenodd" fill="blue"/>
<path d="M401.78 541.47L404.22 538.27 401.78 519.86 401.78 541.47Z"
fill-rule="evenodd" fill="blue"/>
<path d="M404.22 538.27L404.22 524.91 401.78 519.86 404.22 538.27Z"
fill-rule="evenodd" fill="blue"/>
<path d="M401.78 81.77L404.22 80.59 401.78 59.74 401.78 81.77Z"
fill-rule="evenodd" fill="blue"/>
<path d="M404.22 80.59L404.22 64.79 401.78 59.74 404.22 80.59Z"
fill-rule="evenodd" fill="blue"/>
<path d="M404.22 538.27L407.12 534.49 404.22 524.91 404.22 538.27Z"
fill-rule="evenodd" fill="blue"/>
<path d="M407.12 534.49L407.12 530.89 404.22 524.91 407.12 534.49Z"
fill-rule="evenodd" fill="blue"/>
<path d="M404.22 80.59L407.12 72.26 404.22 64.79 404.22 80.59Z"
fill-rule="evenodd" fill="blue"/>
<path d="M407.12 72.26L407.12 70.76 404.22 64.79 407.12 72.26Z"
fill-rule="evenodd" fill="blue"/>
<path d="M407.12 534.49L407.42 531.51 407.12 530.89 407.12 534.49Z"
fill-rule="evenodd" fill="blue"/>
<path d="M407.12 72.26L407.42 71.39 407.12 70.76 407.12 72.26Z"
fill-rule="evenodd" fill="blue"/>
<path d="M392.58 598.3L392.58 4.6"
fill="none" stroke="black" stroke-width="0.5"/>
<path d="M362.89 115.92L358.78 116.11M358.78 116.11L354.71 116.67M354.71 116.67L350.71 117.62M350.71 117.62L346.81 118.92M346.81 118.92L343.05 120.58M343.05 120.58L339.45 122.59M339.45 122.59L336.06 124.91M336.06 124.91L332.9 127.54M332.9 127.54L329.99 130.45M329.99 130.45L327.36 133.61M327.36 133.61L325.03 137M325.03 137L323.03 140.6M323.03 140.6L321.37 144.36M321.37 144.36L320.07 148.26M320.07 148.26L319.12 152.26M319.12 152.26L318.56 156.34M318.56 156.34L318.37 160.44M318.37 160.44L318.56 164.55M318.56 164.55L319.12 168.63M319.12 168.63L320.07 172.63M320.07 172.63L321.37 176.53M321.37 176.53L323.03 180.29M323.03 180.29L325.03 183.88M325.03 183.88L327.36 187.28M327.36 187.28L329.99 190.44M329.99 190.44L332.9 193.35M332.9 193.35L336.06 195.98M336.06 195.98L339.45 198.3M339.45 198.3L343.05 200.3M343.05 200.3L346.81 201.96M346.81 201.96L350.71 203.27M350.71 203.27L354.71 204.21M354.71 204.21L358.78 204.78M358.78 204.78L362.89 204.97"
fill="none" stroke="black" stroke-width="0.5"/>
<path d="M362.89 115.92L481.63 115.92"
fill="none" stroke="black" stroke-width="0.5"/>
<path d="M407.42 71.39L407.23 69.01M407.23 69.01L406.66 66.69M406.66 66.69L405.72 64.49M405.72 64.49L404.44 62.47M404.44 62.47L402.86 60.68M402.86 60.68L401.01 59.17M401.01 59.17L398.94 57.98M398.94 57.98L396.71 57.13M396.71 57.13L394.37 56.65M394.37 56.65L391.98 56.56M391.98 56.56L389.61 56.84M389.61 56.84L387.32 57.51M387.32 57.51L385.16 58.53M385.16 58.53L383.19 59.89M383.19 59.89L381.47 61.55M381.47 61.55L380.03 63.45M380.03 63.45L378.92 65.57M378.92 65.57L378.17 67.84M378.17 67.84L377.78 70.19M377.78 70.19L377.78 72.58M377.78 72.58L378.17 74.94M378.17 74.94L378.92 77.21M378.92 77.21L380.03 79.32M380.03 79.32L381.47 81.23M381.47 81.23L383.19 82.88M383.19 82.88L385.16 84.24M385.16 84.24L387.32 85.27M387.32 85.27L389.61 85.93M389.61 85.93L391.98 86.22M391.98 86.22L394.37 86.12M394.37 86.12L396.71 85.64M396.71 85.64L398.94 84.8M398.94 84.8L401.01 83.6M401.01 83.6L402.86 82.09M402.86 82.09L404.44 80.3M404.44 80.3L405.72 78.29M405.72 78.29L406.66 76.09M406.66 76.09L407.23 73.77M407.23 73.77L407.42 71.39"
fill="none" stroke="black" stroke-width="0.5"/>
<path d="M407.42 531.51L407.23 529.13M407.23 529.13L406.66 526.81M406.66 526.81L405.72 524.61M405.72 524.61L404.44 522.59M404.44 522.59L402.86 520.81M402.86 520.81L401.01 519.29M401.01 519.29L398.94 518.1M398.94 518.1L396.71 517.25M396.71 517.25L394.37 516.78M394.37 516.78L391.98 516.68M391.98 516.68L389.61 516.97M389.61 516.97L387.32 517.63M387.32 517.63L385.16 518.66M385.16 518.66L383.19 520.01M383.19 520.01L381.47 521.67M381.47 521.67L380.03 523.58M380.03 523.58L378.92 525.69M378.92 525.69L378.17 527.96M378.17 527.96L377.78 530.32M377.78 530.32L377.78 532.7M377.78 532.7L378.17 535.06M378.17 535.06L378.92 537.33M378.92 537.33L380.03 539.44M380.03 539.44L381.47 541.35M381.47 541.35L383.19 543.01M383.19 543.01L385.16 544.36M385.16 544.36L387.32 545.39M387.32 545.39L389.61 546.05M389.61 546.05L391.98 546.34M391.98 546.34L394.37 546.24M394.37 546.24L396.71 545.77M396.71 545.77L398.94 544.92M398.94 544.92L401.01 543.73M401.01 543.73L402.86 542.21M402.86 542.21L404.44 540.43M404.44 540.43L405.72 538.41M405.72 538.41L406.66 536.21M406.66 536.21L407.23 533.89M407.23 533.89L407.42 531.51"
fill="none" stroke="black" stroke-width="0.5"/>
<path d="M362.89 294.03L481.63 294.03"
fill="none" stroke="black" stroke-width="0.5"/>
<path d="M362.89 204.97L358.78 205.16M358.78 205.16L354.71 205.73M354.71 205.73L350.71 206.67M350.71 206.67L346.81 207.98M346.81 207.98L343.05 209.64M343.05 209.64L339.45 211.64M339.45 211.64L336.06 213.97M336.06 213.97L332.9 216.59M332.9 216.59L329.99 219.5M329.99 219.5L327.36 222.67M327.36 222.67L325.03 226.06M325.03 226.06L323.03 229.65M323.03 229.65L321.37 233.41M321.37 233.41L320.07 237.31M320.07 237.31L319.12 241.32M319.12 241.32L318.56 245.39M318.56 245.39L318.37 249.5M318.37 249.5L318.56 253.61M318.56 253.61L319.12 257.68M319.12 257.68L320.07 261.69M320.07 261.69L321.37 265.58M321.37 265.58L323.03 269.35M323.03 269.35L325.03 272.94M325.03 272.94L327.36 276.33M327.36 276.33L329.99 279.5M329.99 279.5L332.9 282.41M332.9 282.41L336.06 285.03M336.06 285.03L339.45 287.36M339.45 287.36L343.05 289.36M343.05 289.36L346.81 291.02M346.81 291.02L350.71 292.33M350.71 292.33L354.71 293.27M354.71 293.27L358.78 293.84M358.78 293.84L362.89 294.03"
fill="none" stroke="black" stroke-width="0.5"/>
<path d="M362.89 308.87L358.78 309.06M358.78 309.06L354.71 309.63M354.71 309.63L350.71 310.57M350.71 310.57L346.81 311.88M346.81 311.88L343.05 313.54M343.05 313.54L339.45 315.54M339.45 315.54L336.06 317.86M336.06 317.86L332.9 320.49M332.9 320.49L329.99 323.4M329.99 323.4L327.36 326.56M327.36 326.56L325.03 329.96M325.03 329.96L323.03 333.55M323.03 333.55L321.37 337.31M321.37 337.31L320.07 341.21M320.07 341.21L319.12 345.22M319.12 345.22L318.56 349.29M318.56 349.29L318.37 353.4M318.37 353.4L318.56 357.51M318.56 357.51L319.12 361.58M319.12 361.58L320.07 365.58M320.07 365.58L321.37 369.48M321.37 369.48L323.03 373.25M323.03 373.25L325.03 376.84M325.03 376.84L327.36 380.23M327.36 380.23L329.99 383.4M329.99 383.4L332.9 386.3M332.9 386.3L336.06 388.93M336.06 388.93L339.45 391.26M339.45 391.26L343.05 393.26M343.05 393.26L346.81 394.92M346.81 394.92L350.71 396.23M350.71 396.23L354.71 397.17M354.71 397.17L358.78 397.74M358.78 397.74L362.89 397.93"
fill="none" stroke="black" stroke-width="0.5"/>
<path d="M362.89 308.87L481.63 308.87"
fill="none" stroke="black" stroke-width="0.5"/>
<path d="M362.89 486.98L481.63 486.98"
fill="none" stroke="black" stroke-width="0.5"/>
<path d="M362.89 397.93L358.78 398.12M358.78 398.12L354.71 398.68M354.71 398.68L350.71 399.63M350.71 399.63L346.81 400.93M346.81 400.93L343.05 402.59M343.05 402.59L339.45 404.6M339.45 404.6L336.06 406.92M336.06 406.92L332.9 409.55M332.9 409.55L329.99 412.46M329.99 412.46L327.36 415.62M327.36 415.62L325.03 419.01M325.03 419.01L323.03 422.61M323.03 422.61L321.37 426.37M321.37 426.37L320.07 430.27M320.07 430.27L319.12 434.27M319.12 434.27L318.56 438.35M318.56 438.35L318.37 442.45M318.37 442.45L318.56 446.56M318.56 446.56L319.12 450.64M319.12 450.64L320.07 454.64M320.07 454.64L321.37 458.54M321.37 458.54L323.03 462.3M323.03 462.3L325.03 465.9M325.03 465.9L327.36 469.29M327.36 469.29L329.99 472.45M329.99 472.45L332.9 475.36M332.9 475.36L336.06 477.99M336.06 477.99L339.45 480.31M339.45 480.31L343.05 482.31M343.05 482.31L346.81 483.98M346.81 483.98L350.71 485.28M350.71 485.28L354.71 486.22M354.71 486.22L358.78 486.79M358.78 486.79L362.89 486.98"
fill="none" stroke="black" stroke-width="0.5"/>
<path d="M80.82 536.15L80.82 530.5 79.84 534.94 80.82 536.15Z"
fill-rule="evenodd" fill="blue"/>
<path d="M80.82 536.15L81.02 536.39 80.82 530.5 80.82 536.15Z"
fill-rule="evenodd" fill="blue"/>
<path d="M81.02 536.39L81.02 529.59 80.82 530.5 81.02 536.39Z"
fill-rule="evenodd" fill="blue"/>
<path d="M81.02 78.06L81.02 64.96 80.82 65.13 81.02 78.06Z"
fill-rule="evenodd" fill="blue"/>
<path d="M81.02 536.39L82.63 538.37 81.02 529.59 81.02 536.39Z"
fill-rule="evenodd" fill="blue"/>
<path d="M82.63 538.37L82.63 522.31 81.02 529.59 82.63 538.37Z"
fill-rule="evenodd" fill="blue"/>
<path d="M81.02 78.06L82.63 79.3 81.02 64.96 81.02 78.06Z"
fill-rule="evenodd" fill="blue"/>
<path d="M82.63 79.3L82.63 63.65 81.02 64.96 82.63 79.3Z"
fill-rule="evenodd" fill="blue"/>
<path d="M82.63 538.37L88.02 544.97 82.63 522.31 82.63 538.37Z"
fill-rule="evenodd" fill="blue"/>
<path d="M88.02 544.97L88.02 519.7 82.63 522.31 88.02 544.97Z"
fill-rule="evenodd" fill="blue"/>
<path d="M82.63 79.3L88.02 83.42 82.63 63.65 82.63 79.3Z"
fill-rule="evenodd" fill="blue"/>
<path d="M88.02 83.42L88.02 59.26 82.63 63.65 88.02 83.42Z"
fill-rule="evenodd" fill="blue"/>
<path d="M88.02 544.97L90.84 544.92 88.02 519.7 88.02 544.97Z"
fill-rule="evenodd" fill="blue"/>
<path d="M90.84 544.92L90.84 518.33 88.02 519.7 90.84 544.92Z"
fill-rule="evenodd" fill="blue"/>
<path d="M88.02 83.42L90.84 85.58 88.02 59.26 88.02 83.42Z"
fill-rule="evenodd" fill="blue"/>
<path d="M90.84 85.58L90.84 56.95 88.02 59.26 90.84 85.58Z"
fill-rule="evenodd" fill="blue"/>
<path d="M90.84 544.92L91.3 544.92 90.84 518.33 90.84 544.92Z"
fill-rule="evenodd" fill="blue"/>
<path d="M91.3 544.92L91.3 518.11 90.84 518.33 91.3 544.92Z"
fill-rule="evenodd" fill="blue"/>
<path d="M90.84 85.58L91.3 85.93 90.84 56.95 90.84 85.58Z"
fill-rule="evenodd" fill="blue"/>
<path d="M91.3 85.93L91.3 57.05 90.84 56.95 91.3 85.93Z"
fill-rule="evenodd" fill="blue"/>
<path d="M91.3 544.92L94.28 544.87 91.3 518.11 91.3 544.92Z"
fill-rule="evenodd" fill="blue"/>
<path d="M94.28 544.87L94.28 516.67 91.3 518.11 94.28 544.87Z"
fill-rule="evenodd" fill="blue"/>
<path d="M91.3 85.93L94.28 86.23 91.3 57.05 91.3 85.93Z"
fill-rule="evenodd" fill="blue"/>
<path d="M94.28 86.23L94.28 57.71 91.3 57.05 94.28 86.23Z"
fill-rule="evenodd" fill="blue"/>
<path d="M94.28 544.87L100.95 544.77 94.28 516.67 94.28 544.87Z"
fill-rule="evenodd" fill="blue"/>
<path d="M100.95 544.77L100.95 518.99 94.28 516.67 100.95 544.77Z"
fill-rule="evenodd" fill="blue"/>
<path d="M94.28 86.23L100.95 83 94.28 57.71 94.28 86.23Z"
fill-rule="evenodd" fill="blue"/>
<path d="M100.95 83L100.95 59.18 94.28 57.71 100.95 83Z"
fill-rule="evenodd" fill="blue"/>
<path d="M100.95 544.77L103.48 541.47 100.95 518.99 100.95 544.77Z"
fill-rule="evenodd" fill="blue"/>
<path d="M103.48 541.47L103.48 519.86 100.95 518.99 103.48 541.47Z"
fill-rule="evenodd" fill="blue"/>
<path d="M100.95 83L103.48 81.77 100.95 59.18 100.95 83Z"
fill-rule="evenodd" fill="blue"/>
<path d="M103.48 81.77L103.48 59.74 100.95 59.18 103.48 81.77Z"
fill-rule="evenodd" fill="blue"/>
<path d="M103.48 541.47L105.92 538.27 103.48 519.86 103.48 541.47Z"
fill-rule="evenodd" fill="blue"/>
<path d="M105.92 538.27L105.92 524.91 103.48 519.86 105.92 538.27Z"
fill-rule="evenodd" fill="blue"/>
<path d="M103.48 81.77L105.92 80.59 103.48 59.74 103.48 81.77Z"
fill-rule="evenodd" fill="blue"/>
<path d="M105.92 80.59L105.92 64.79 103.48 59.74 105.92 80.59Z"
fill-rule="evenodd" fill="blue"/>
<path d="M105.92 538.27L108.82 534.49 105.92 524.91 105.92 538.27Z"
fill-rule="evenodd" fill="blue"/>
<path d="M108.82 534.49L108.82 530.89 105.92 524.91 108.82 534.49Z"
fill-rule="evenodd" fill="blue"/>
<path d="M105.92 80.59L108.82 72.26 105.92 64.79 105.92 80.59Z"
fill-rule="evenodd" fill="blue"/>
<path d="M108.82 72.26L108.82 70.76 105.92 64.79 108.82 72.26Z"
fill-rule="evenodd" fill="blue"/>
<path d="M108.82 534.49L109.12 531.51 108.82 530.89 108.82 534.49Z"
fill-rule="evenodd" fill="blue"/>
<path d="M108.82 72.26L109.12 71.39 108.82 70.76 108.82 72.26Z"
fill-rule="evenodd" fill="blue"/>
<path d="M94.28 598.3L94.28 4.6"
fill="none" stroke="black" stroke-width="0.5"/>
<path d="M64.59 115.92L60.48 116.11M60.48 116.11L56.41 116.67M56.41 116.67L52.41 117.62M52.41 117.62L48.51 118.92M48.51 118.92L44.74 120.58M44.74 120.58L41.15 122.59M41.15 122.59L37.76 124.91M37.76 124.91L34.59 127.54M34.59 127.54L31.68 130.45M31.68 130.45L29.06 133.61M29.06 133.61L26.73 137M26.73 137L24.73 140.6M24.73 140.6L23.07 144.36M23.07 144.36L21.76 148.26M21.76 148.26L20.82 152.26M20.82 152.26L20.25 156.34M20.25 156.34L20.06 160.44M20.06 160.44L20.25 164.55M20.25 164.55L20.82 168.63M20.82 168.63L21.76 172.63M21.76 172.63L23.07 176.53M23.07 176.53L24.73 180.29M24.73 180.29L26.73 183.88M26.73 183.88L29.06 187.28M29.06 187.28L31.68 190.44M31.68 190.44L34.59 193.35M34.59 193.35L37.76 195.98M37.76 195.98L41.15 198.3M41.15 198.3L44.74 200.3M44.74 200.3L48.51 201.96M48.51 201.96L52.41 203.27M52.41 203.27L56.41 204.21M56.41 204.21L60.48 204.78M60.48 204.78L64.59 204.97"
fill="none" stroke="black" stroke-width="0.5"/>
<path d="M64.59 115.92L183.33 115.92"
fill="none" stroke="black" stroke-width="0.5"/>
<path d="M109.12 71.39L108.93 69.01M108.93 69.01L108.36 66.69M108.36 66.69L107.42 64.49M107.42 64.49L106.14 62.47M106.14 62.47L104.56 60.68M104.56 60.68L102.71 59.17M102.71 59.17L100.64 57.98M100.64 57.98L98.41 57.13M98.41 57.13L96.07 56.65M96.07 56.65L93.68 56.56M93.68 56.56L91.31 56.84M91.31 56.84L89.01 57.51M89.01 57.51L86.86 58.53M86.86 58.53L84.89 59.89M84.89 59.89L83.17 61.55M83.17 61.55L81.73 63.45M81.73 63.45L80.62 65.57M80.62 65.57L79.87 67.84M79.87 67.84L79.48 70.19M79.48 70.19L79.48 72.58M79.48 72.58L79.87 74.94M79.87 74.94L80.62 77.21M80.62 77.21L81.73 79.32M81.73 79.32L83.17 81.23M83.17 81.23L84.89 82.88M84.89 82.88L86.86 84.24M86.86 84.24L89.01 85.27M89.01 85.27L91.31 85.93M91.31 85.93L93.68 86.22M93.68 86.22L96.07 86.12M96.07 86.12L98.41 85.64M98.41 85.64L100.64 84.8M100.64 84.8L102.71 83.6M102.71 83.6L104.56 82.09M104.56 82.09L106.14 80.3M106.14 80.3L107.42 78.29M107.42 78.29L108.36 76.09M108.36 76.09L108.93 73.77M108.93 73.77L109.12 71.39"
fill="none" stroke="black" stroke-width="0.5"/>
<path d="M109.12 531.51L108.93 529.13M108.93 529.13L108.36 526.81M108.36 526.81L107.42 524.61M107.42 524.61L106.14 522.59M106.14 522.59L104.56 520.81M104.56 520.81L102.71 519.29M102.71 519.29L100.64 518.1M100.64 518.1L98.41 517.25M98.41 517.25L96.07 516.78M96.07 516.78L93.68 516.68M93.68 516.68L91.31 516.97M91.31 516.97L89.01 517.63M89.01 517.63L86.86 518.66M86.86 518.66L84.89 520.01M84.89 520.01L83.17 521.67M83.17 521.67L81.73 523.58M81.73 523.58L80.62 525.69M80.62 525.69L79.87 527.96M79.87 527.96L79.48 530.32M79.48 530.32L79.48 532.7M79.48 532.7L79.87 535.06M79.87 535.06L80.62 537.33M80.62 537.33L81.73 539.44M81.73 539.44L83.17 541.35M83.17 541.35L84.89 543.01M84.89 543.01L86.86 544.36M86.86 544.36L89.01 545.39M89.01 545.39L91.31 546.05M91.31 546.05L93.68 546.34M93.68 546.34L96.07 546.24M96.07 546.24L98.41 545.77M98.41 545.77L100.64 544.92M100.64 544.92L102.71 543.73M102.71 543.73L104.56 542.21M104.56 542.21L106.14 540.43M106.14 540.43L107.42 538.41M107.42 538.41L108.36 536.21M108.36 536.21L108.93 533.89M108.93 533.89L109.12 531.51"
fill="none" stroke="black" stroke-width="0.5"/>
<path d="M64.59 294.03L183.33 294.03"
fill="none" stroke="black" stroke-width="0.5"/>
<path d="M64.59 204.97L60.48 205.16M60.48 205.16L56.41 205.73M56.41 205.73L52.41 206.67M52.41 206.67L48.51 207.98M48.51 207.98L44.74 209.64M44.74 209.64L41.15 211.64M41.15 211.64L37.76 213.97M37.76 213.97L34.59 216.59M34.59 216.59L31.68 219.5M31.68 219.5L29.06 222.67M29.06 222.67L26.73 226.06M26.73 226.06L24.73 229.65M24.73 229.65L23.07 233.41M23.07 233.41L21.76 237.31M21.76 237.31L20.82 241.32M20.82 241.32L20.25 245.39M20.25 245.39L20.06 249.5M20.06 249.5L20.25 253.61M20.25 253.61L20.82 257.68M20.82 257.68L21.76 261.69M21.76 261.69L23.07 265.58M23.07 265.58L24.73 269.35M24.73 269.35L26.73 272.94M26.73 272.94L29.06 276.33M29.06 276.33L31.68 279.5M31.68 279.5L34.59 282.41M34.59 282.41L37.76 285.03M37.76 285.03L41.15 287.36M41.15 287.36L44.74 289.36M44.74 289.36L48.51 291.02M48.51 291.02L52.41 292.33M52.41 292.33L56.41 293.27M56.41 293.27L60.48 293.84M60.48 293.84L64.59 294.03"
fill="none" stroke="black" stroke-width="0.5"/>
<path d="M64.59 308.87L60.48 309.06M60.48 309.06L56.41 309.63M56.41 309.63L52.41 310.57M52.41 310.57L48.51 311.88M48.51 311.88L44.74 313.54M44.74 313.54L41.15 315.54M41.15 315.54L37.76 317.86M37.76 317.86L34.59 320.49M34.59 320.49L31.68 323.4M31.68 323.4L29.06 326.56M29.06 326.56L26.73 329.96M26.73 329.96L24.73 333.55M24.73 333.55L23.07 337.31M23.07 337.31L21.76 341.21M21.76 341.21L20.82 345.22M20.82 345.22L20.25 349.29M20.25 349.29L20.06 353.4M20.06 353.4L20.25 357.51M20.25 357.51L20.82 361.58M20.82 361.58L21.76 365.58M21.76 365.58L23.07 369.48M23.07 369.48L24.73 373.25M24.73 373.25L26.73 376.84M26.73 376.84L29.06 380.23M29.06 380.23L31.68 383.4M31.68 383.4L34.59 386.3M34.59 386.3L37.76 388.93M37.76 388.93L41.15 391.26M41.15 391.26L44.74 393.26M44.74 393.26L48.51 394.92M48.51 394.92L52.41 396.23M52.41 396.23L56.41 397.17M56.41 397.17L60.48 397.74M60.48 397.74L64.59 397.93"
fill="none" stroke="black" stroke-width="0.5"/>
<path d="M64.59 308.87L183.33 308.87"
fill="none" stroke="black" stroke-width="0.5"/>
<path d="M64.59 486.98L183.33 486.98"
fill="none" stroke="black" stroke-width="0.5"/>
<path d="M64.59 397.93L60.48 398.12M60.48 398.12L56.41 398.68M56.41 398.68L52.41 399.63M52.41 399.63L48.51 400.93M48.51 400.93L44.74 402.59M44.74 402.59L41.15 404.6M41.15 404.6L37.76 406.92M37.76 406.92L34.59 409.55M34.59 409.55L31.68 412.46M31.68 412.46L29.06 415.62M29.06 415.62L26.73 419.01M26.73 419.01L24.73 422.61M24.73 422.61L23.07 426.37M23.07 426.37L21.76 430.27M21.76 430.27L20.82 434.27M20.82 434.27L20.25 438.35M20.25 438.35L20.06 442.45M20.06 442.45L20.25 446.56M20.25 446.56L20.82 450.64M20.82 450.64L21.76 454.64M21.76 454.64L23.07 458.54M23.07 458.54L24.73 462.3M24.73 462.3L26.73 465.9M26.73 465.9L29.06 469.29M29.06 469.29L31.68 472.45M31.68 472.45L34.59 475.36M34.59 475.36L37.76 477.99M37.76 477.99L41.15 480.31M41.15 480.31L44.74 482.31M44.74 482.31L48.51 483.98M48.51 483.98L52.41 485.28M52.41 485.28L56.41 486.22M56.41 486.22L60.48 486.79M60.48 486.79L64.59 486.98"
fill="none" stroke="black" stroke-width="0.5"/>
</svg>
