<?xml version="1.0" encoding="UTF-8"?>
<svg xmlns="http://www.w3.org/2000/svg" width="800.000" height="600.000" viewBox="0.0 0.0 800.000 600.000" version="1.1">
  <title>Produce by Acme CAD Converter</title>
  <desc>Produce by Acme CAD Converter</desc>
<path d="M394.06 598.3L394.06 1.7"
fill="none" stroke="black" stroke-width="0.5"/>
<path d="M86.44 568.17L86.44 555.32 84.21 565.43 86.44 568.17Z"
fill-rule="evenodd" fill="blue"/>
<path d="M86.44 568.17L90.75 573.45 86.44 555.32 86.44 568.17Z"
fill-rule="evenodd" fill="blue"/>
<path d="M90.75 573.45L90.75 553.23 86.44 555.32 90.75 573.45Z"
fill-rule="evenodd" fill="blue"/>
<path d="M90.75 573.45L95.76 573.37 90.75 553.23 90.75 573.45Z"
fill-rule="evenodd" fill="blue"/>
<path d="M95.76 573.37L95.76 550.81 90.75 553.23 95.76 573.37Z"
fill-rule="evenodd" fill="blue"/>
<path d="M95.76 573.37L101.1 573.28 95.76 550.81 95.76 573.37Z"
fill-rule="evenodd" fill="blue"/>
<path d="M101.1 573.28L101.1 552.66 95.76 550.81 101.1 573.28Z"
fill-rule="evenodd" fill="blue"/>
<path d="M101.1 573.28L103.12 570.64 101.1 552.66 101.1 573.28Z"
fill-rule="evenodd" fill="blue"/>
<path d="M103.12 570.64L103.12 553.36 101.1 552.66 103.12 570.64Z"
fill-rule="evenodd" fill="blue"/>
<path d="M103.12 570.64L107.39 565.06 103.12 553.36 103.12 570.64Z"
fill-rule="evenodd" fill="blue"/>
<path d="M107.39 565.06L107.39 562.18 103.12 553.36 107.39 565.06Z"
fill-rule="evenodd" fill="blue"/>
<path d="M107.39 565.06L107.63 562.68 107.39 562.18 107.39 565.06Z"
fill-rule="evenodd" fill="blue"/>
<path d="M85.16 45.56L85.16 35.08 84.99 35.21 85.16 45.56Z"
fill-rule="evenodd" fill="blue"/>
<path d="M85.16 45.56L93.02 51.57 85.16 35.08 85.16 45.56Z"
fill-rule="evenodd" fill="blue"/>
<path d="M93.02 51.57L93.02 28.67 85.16 35.08 93.02 51.57Z"
fill-rule="evenodd" fill="blue"/>
<path d="M93.02 51.57L93.38 51.85 93.02 28.67 93.02 51.57Z"
fill-rule="evenodd" fill="blue"/>
<path d="M93.38 51.85L93.38 28.75 93.02 28.67 93.38 51.85Z"
fill-rule="evenodd" fill="blue"/>
<path d="M93.38 51.85L103.12 49.37 93.38 28.75 93.38 51.85Z"
fill-rule="evenodd" fill="blue"/>
<path d="M103.12 49.37L103.12 30.9 93.38 28.75 103.12 49.37Z"
fill-rule="evenodd" fill="blue"/>
<path d="M103.12 49.37L103.41 49.3 103.12 30.9 103.12 49.37Z"
fill-rule="evenodd" fill="blue"/>
<path d="M103.41 49.3L103.41 31.49 103.12 30.9 103.41 49.3Z"
fill-rule="evenodd" fill="blue"/>
<path d="M103.41 49.3L107.63 40.22 103.41 31.49 103.41 49.3Z"
fill-rule="evenodd" fill="blue"/>
<path d="M95.76 598.3L95.76 4.6"
fill="none" stroke="black" stroke-width="0.5"/>
<path d="M72.01 75.84L68.29 76.04M68.29 76.04L64.61 76.62M64.61 76.62L61 77.58M61 77.58L57.52 78.92M57.52 78.92L54.2 80.61M54.2 80.61L51.07 82.64M51.07 82.64L48.18 84.99M48.18 84.99L45.54 87.63M45.54 87.63L43.19 90.52M43.19 90.52L41.16 93.65M41.16 93.65L39.47 96.97M39.47 96.97L38.13 100.45M38.13 100.45L37.17 104.06M37.17 104.06L36.59 107.74M36.59 107.74L36.39 111.46M36.39 111.46L36.59 115.19M36.59 115.19L37.17 118.87M37.17 118.87L38.13 122.47M38.13 122.47L39.47 125.95M39.47 125.95L41.16 129.27M41.16 129.27L43.19 132.4M43.19 132.4L45.54 135.3M45.54 135.3L48.18 137.94M48.18 137.94L51.07 140.28M51.07 140.28L54.2 142.31M54.2 142.31L57.52 144.01M57.52 144.01L61 145.34M61 145.34L64.61 146.31M64.61 146.31L68.29 146.89M68.29 146.89L72.01 147.09"
fill="none" stroke="black" stroke-width="0.5"/>
<path d="M72.01 75.84L167.01 75.84"
fill="none" stroke="black" stroke-width="0.5"/>
<path d="M107.63 40.22L107.44 38.1M107.44 38.1L106.88 36.05M106.88 36.05L105.95 34.13M105.95 34.13L104.7 32.41M104.7 32.41L103.16 30.93M103.16 30.93L101.39 29.76M101.39 29.76L99.43 28.92M99.43 28.92L97.35 28.45M97.35 28.45L95.23 28.36M95.23 28.36L93.12 28.64M93.12 28.64L91.09 29.3M91.09 29.3L89.22 30.31M89.22 30.31L87.55 31.64M87.55 31.64L86.15 33.24M86.15 33.24L85.06 35.07M85.06 35.07L84.31 37.06M84.31 37.06L83.93 39.15M83.93 39.15L83.93 41.28M83.93 41.28L84.31 43.38M84.31 43.38L85.06 45.37M85.06 45.37L86.15 47.2M86.15 47.2L87.55 48.8M87.55 48.8L89.22 50.13M89.22 50.13L91.09 51.14M91.09 51.14L93.12 51.79M93.12 51.79L95.23 52.08M95.23 52.08L97.35 51.98M97.35 51.98L99.43 51.51M99.43 51.51L101.39 50.67M101.39 50.67L103.16 49.5M103.16 49.5L104.7 48.03M104.7 48.03L105.95 46.31M105.95 46.31L106.88 44.39M106.88 44.39L107.44 42.34M107.44 42.34L107.63 40.22"
fill="none" stroke="black" stroke-width="0.5"/>
<path d="M72.01 218.33L167.01 218.33"
fill="none" stroke="black" stroke-width="0.5"/>
<path d="M72.01 147.09L68.29 147.28M68.29 147.28L64.61 147.86M64.61 147.86L61 148.83M61 148.83L57.52 150.16M57.52 150.16L54.2 151.86M54.2 151.86L51.07 153.89M51.07 153.89L48.18 156.23M48.18 156.23L45.54 158.87M45.54 158.87L43.19 161.77M43.19 161.77L41.16 164.9M41.16 164.9L39.47 168.22M39.47 168.22L38.13 171.7M38.13 171.7L37.17 175.3M37.17 175.3L36.59 178.98M36.59 178.98L36.39 182.71M36.39 182.71L36.59 186.43M36.59 186.43L37.17 190.11M37.17 190.11L38.13 193.72M38.13 193.72L39.47 197.2M39.47 197.2L41.16 200.52M41.16 200.52L43.19 203.65M43.19 203.65L45.54 206.54M45.54 206.54L48.18 209.18M48.18 209.18L51.07 211.53M51.07 211.53L54.2 213.56M54.2 213.56L57.52 215.25M57.52 215.25L61 216.59M61 216.59L64.61 217.55M64.61 217.55L68.29 218.13M68.29 218.13L72.01 218.33"
fill="none" stroke="black" stroke-width="0.5"/>
<path d="M72.01 230.2L68.29 230.4M68.29 230.4L64.61 230.98M64.61 230.98L61 231.95M61 231.95L57.52 233.28M57.52 233.28L54.2 234.98M54.2 234.98L51.07 237.01M51.07 237.01L48.18 239.35M48.18 239.35L45.54 241.99M45.54 241.99L43.19 244.89M43.19 244.89L41.16 248.02M41.16 248.02L39.47 251.34M39.47 251.34L38.13 254.82M38.13 254.82L37.17 258.42M37.17 258.42L36.59 262.1M36.59 262.1L36.39 265.83M36.39 265.83L36.59 269.55M36.59 269.55L37.17 273.23M37.17 273.23L38.13 276.83M38.13 276.83L39.47 280.32M39.47 280.32L41.16 283.64M41.16 283.64L43.19 286.76M43.19 286.76L45.54 289.66M45.54 289.66L48.18 292.3M48.18 292.3L51.07 294.65M51.07 294.65L54.2 296.68M54.2 296.68L57.52 298.37M57.52 298.37L61 299.71M61 299.71L64.61 300.67M64.61 300.67L68.29 301.25M68.29 301.25L72.01 301.45"
fill="none" stroke="black" stroke-width="0.5"/>
<path d="M72.01 230.2L167.01 230.2"
fill="none" stroke="black" stroke-width="0.5"/>
<path d="M72.01 372.69L167.01 372.69"
fill="none" stroke="black" stroke-width="0.5"/>
<path d="M72.01 301.45L68.29 301.64M68.29 301.64L64.61 302.23M64.61 302.23L61 303.19M61 303.19L57.52 304.53M57.52 304.53L54.2 306.22M54.2 306.22L51.07 308.25M51.07 308.25L48.18 310.6M48.18 310.6L45.54 313.24M45.54 313.24L43.19 316.13M43.19 316.13L41.16 319.26M41.16 319.26L39.47 322.58M39.47 322.58L38.13 326.06M38.13 326.06L37.17 329.66M37.17 329.66L36.59 333.35M36.59 333.35L36.39 337.07M36.39 337.07L36.59 340.79M36.59 340.79L37.17 344.48M37.17 344.48L38.13 348.08M38.13 348.08L39.47 351.56M39.47 351.56L41.16 354.88M41.16 354.88L43.19 358.01M43.19 358.01L45.54 360.91M45.54 360.91L48.18 363.54M48.18 363.54L51.07 365.89M51.07 365.89L54.2 367.92M54.2 367.92L57.52 369.61M57.52 369.61L61 370.95M61 370.95L64.61 371.92M64.61 371.92L68.29 372.5M68.29 372.5L72.01 372.69"
fill="none" stroke="black" stroke-width="0.5"/>
<path d="M107.63 562.68L107.44 560.56M107.44 560.56L106.88 558.51M106.88 558.51L105.95 556.59M105.95 556.59L104.7 554.87M104.7 554.87L103.16 553.4M103.16 553.4L101.39 552.22M101.39 552.22L99.43 551.39M99.43 551.39L97.35 550.91M97.35 550.91L95.23 550.82M95.23 550.82L93.12 551.1M93.12 551.1L91.09 551.76M91.09 551.76L89.22 552.77M89.22 552.77L87.55 554.1M87.55 554.1L86.15 555.7M86.15 555.7L85.06 557.53M85.06 557.53L84.31 559.52M84.31 559.52L83.93 561.62M83.93 561.62L83.93 563.74M83.93 563.74L84.31 565.84M84.31 565.84L85.06 567.83M85.06 567.83L86.15 569.66M86.15 569.66L87.55 571.26M87.55 571.26L89.22 572.59M89.22 572.59L91.09 573.6M91.09 573.6L93.12 574.26M93.12 574.26L95.23 574.54M95.23 574.54L97.35 574.45M97.35 574.45L99.43 573.97M99.43 573.97L101.39 573.14M101.39 573.14L103.16 571.96M103.16 571.96L104.7 570.49M104.7 570.49L105.95 568.77M105.95 568.77L106.88 566.85M106.88 566.85L107.44 564.8M107.44 564.8L107.63 562.68"
fill="none" stroke="black" stroke-width="0.5"/>
<path d="M72.01 384.57L68.29 384.76M68.29 384.76L64.61 385.35M64.61 385.35L61 386.31M61 386.31L57.52 387.65M57.52 387.65L54.2 389.34M54.2 389.34L51.07 391.37M51.07 391.37L48.18 393.72M48.18 393.72L45.54 396.35M45.54 396.35L43.19 399.25M43.19 399.25L41.16 402.38M41.16 402.38L39.47 405.7M39.47 405.7L38.13 409.18M38.13 409.18L37.17 412.78M37.17 412.78L36.59 416.47M36.59 416.47L36.39 420.19M36.39 420.19L36.59 423.91M36.59 423.91L37.17 427.6M37.17 427.6L38.13 431.2M38.13 431.2L39.47 434.68M39.47 434.68L41.16 438M41.16 438L43.19 441.13M43.19 441.13L45.54 444.03M45.54 444.03L48.18 446.66M48.18 446.66L51.07 449.01M51.07 449.01L54.2 451.04M54.2 451.04L57.52 452.73M57.52 452.73L61 454.07M61 454.07L64.61 455.03M64.61 455.03L68.29 455.62M68.29 455.62L72.01 455.81"
fill="none" stroke="black" stroke-width="0.5"/>
<path d="M72.01 384.57L167.01 384.57"
fill="none" stroke="black" stroke-width="0.5"/>
<path d="M72.01 527.06L167.01 527.06"
fill="none" stroke="black" stroke-width="0.5"/>
<path d="M72.01 455.81L68.29 456.01M68.29 456.01L64.61 456.59M64.61 456.59L61 457.56M61 457.56L57.52 458.89M57.52 458.89L54.2 460.59M54.2 460.59L51.07 462.62M51.07 462.62L48.18 464.96M48.18 464.96L45.54 467.6M45.54 467.6L43.19 470.5M43.19 470.5L41.16 473.62M41.16 473.62L39.47 476.95M39.47 476.95L38.13 480.43M38.13 480.43L37.17 484.03M37.17 484.03L36.59 487.71M36.59 487.71L36.39 491.44M36.39 491.44L36.59 495.16M36.59 495.16L37.17 498.84M37.17 498.84L38.13 502.44M38.13 502.44L39.47 505.92M39.47 505.92L41.16 509.25M41.16 509.25L43.19 512.37M43.19 512.37L45.54 515.27M45.54 515.27L48.18 517.91M48.18 517.91L51.07 520.25M51.07 520.25L54.2 522.28M54.2 522.28L57.52 523.98M57.52 523.98L61 525.31M61 525.31L64.61 526.28M64.61 526.28L68.29 526.86M68.29 526.86L72.01 527.06"
fill="none" stroke="black" stroke-width="0.5"/>
<path d="M683.05 568.17L683.05 555.32 680.81 565.43 683.05 568.17Z"
fill-rule="evenodd" fill="blue"/>
<path d="M683.05 568.17L687.36 573.45 683.05 555.32 683.05 568.17Z"
fill-rule="evenodd" fill="blue"/>
<path d="M687.36 573.45L687.36 553.23 683.05 555.32 687.36 573.45Z"
fill-rule="evenodd" fill="blue"/>
<path d="M687.36 573.45L692.37 573.37 687.36 553.23 687.36 573.45Z"
fill-rule="evenodd" fill="blue"/>
<path d="M692.37 573.37L692.37 550.81 687.36 553.23 692.37 573.37Z"
fill-rule="evenodd" fill="blue"/>
<path d="M692.37 573.37L697.71 573.28 692.37 550.81 692.37 573.37Z"
fill-rule="evenodd" fill="blue"/>
<path d="M697.71 573.28L697.71 552.66 692.37 550.81 697.71 573.28Z"
fill-rule="evenodd" fill="blue"/>
<path d="M697.71 573.28L699.73 570.64 697.71 552.66 697.71 573.28Z"
fill-rule="evenodd" fill="blue"/>
<path d="M699.73 570.64L699.73 553.36 697.71 552.66 699.73 570.64Z"
fill-rule="evenodd" fill="blue"/>
<path d="M699.73 570.64L704 565.06 699.73 553.36 699.73 570.64Z"
fill-rule="evenodd" fill="blue"/>
<path d="M704 565.06L704 562.18 699.73 553.36 704 565.06Z"
fill-rule="evenodd" fill="blue"/>
<path d="M704 565.06L704.24 562.68 704 562.18 704 565.06Z"
fill-rule="evenodd" fill="blue"/>
<path d="M681.76 45.56L681.76 35.08 681.6 35.21 681.76 45.56Z"
fill-rule="evenodd" fill="blue"/>
<path d="M681.76 45.56L689.62 51.57 681.76 35.08 681.76 45.56Z"
fill-rule="evenodd" fill="blue"/>
<path d="M689.62 51.57L689.62 28.67 681.76 35.08 689.62 51.57Z"
fill-rule="evenodd" fill="blue"/>
<path d="M689.62 51.57L689.98 51.85 689.62 28.67 689.62 51.57Z"
fill-rule="evenodd" fill="blue"/>
<path d="M689.98 51.85L689.98 28.75 689.62 28.67 689.98 51.85Z"
fill-rule="evenodd" fill="blue"/>
<path d="M689.98 51.85L699.73 49.37 689.98 28.75 689.98 51.85Z"
fill-rule="evenodd" fill="blue"/>
<path d="M699.73 49.37L699.73 30.9 689.98 28.75 699.73 49.37Z"
fill-rule="evenodd" fill="blue"/>
<path d="M699.73 49.37L700.01 49.3 699.73 30.9 699.73 49.37Z"
fill-rule="evenodd" fill="blue"/>
<path d="M700.01 49.3L700.01 31.49 699.73 30.9 700.01 49.3Z"
fill-rule="evenodd" fill="blue"/>
<path d="M700.01 49.3L704.24 40.22 700.01 31.49 700.01 49.3Z"
fill-rule="evenodd" fill="blue"/>
<path d="M692.37 598.3L692.37 4.6"
fill="none" stroke="black" stroke-width="0.5"/>
<path d="M668.62 75.84L664.89 76.04M664.89 76.04L661.21 76.62M661.21 76.62L657.61 77.58M657.61 77.58L654.13 78.92M654.13 78.92L650.81 80.61M650.81 80.61L647.68 82.64M647.68 82.64L644.78 84.99M644.78 84.99L642.14 87.63M642.14 87.63L639.8 90.52M639.8 90.52L637.77 93.65M637.77 93.65L636.07 96.97M636.07 96.97L634.74 100.45M634.74 100.45L633.77 104.06M633.77 104.06L633.19 107.74M633.19 107.74L632.99 111.46M632.99 111.46L633.19 115.19M633.19 115.19L633.77 118.87M633.77 118.87L634.74 122.47M634.74 122.47L636.07 125.95M636.07 125.95L637.77 129.27M637.77 129.27L639.8 132.4M639.8 132.4L642.14 135.3M642.14 135.3L644.78 137.94M644.78 137.94L647.68 140.28M647.68 140.28L650.81 142.31M650.81 142.31L654.13 144.01M654.13 144.01L657.61 145.34M657.61 145.34L661.21 146.31M661.21 146.31L664.89 146.89M664.89 146.89L668.62 147.09"
fill="none" stroke="black" stroke-width="0.5"/>
<path d="M668.62 75.84L763.61 75.84"
fill="none" stroke="black" stroke-width="0.5"/>
<path d="M704.24 40.22L704.05 38.1M704.05 38.1L703.48 36.05M703.48 36.05L702.56 34.13M702.56 34.13L701.31 32.41M701.31 32.41L699.77 30.93M699.77 30.93L697.99 29.76M697.99 29.76L696.03 28.92M696.03 28.92L693.96 28.45M693.96 28.45L691.83 28.36M691.83 28.36L689.72 28.64M689.72 28.64L687.7 29.3M687.7 29.3L685.82 30.31M685.82 30.31L684.16 31.64M684.16 31.64L682.76 33.24M682.76 33.24L681.67 35.07M681.67 35.07L680.92 37.06M680.92 37.06L680.54 39.15M680.54 39.15L680.54 41.28M680.54 41.28L680.92 43.38M680.92 43.38L681.67 45.37M681.67 45.37L682.76 47.2M682.76 47.2L684.16 48.8M684.16 48.8L685.82 50.13M685.82 50.13L687.7 51.14M687.7 51.14L689.72 51.79M689.72 51.79L691.83 52.08M691.83 52.08L693.96 51.98M693.96 51.98L696.03 51.51M696.03 51.51L697.99 50.67M697.99 50.67L699.77 49.5M699.77 49.5L701.31 48.03M701.31 48.03L702.56 46.31M702.56 46.31L703.48 44.39M703.48 44.39L704.05 42.34M704.05 42.34L704.24 40.22"
fill="none" stroke="black" stroke-width="0.5"/>
<path d="M668.62 218.33L763.61 218.33"
fill="none" stroke="black" stroke-width="0.5"/>
<path d="M668.62 147.09L664.89 147.28M664.89 147.28L661.21 147.86M661.21 147.86L657.61 148.83M657.61 148.83L654.13 150.16M654.13 150.16L650.81 151.86M650.81 151.86L647.68 153.89M647.68 153.89L644.78 156.23M644.78 156.23L642.14 158.87M642.14 158.87L639.8 161.77M639.8 161.77L637.77 164.9M637.77 164.9L636.07 168.22M636.07 168.22L634.74 171.7M634.74 171.7L633.77 175.3M633.77 175.3L633.19 178.98M633.19 178.98L632.99 182.71M632.99 182.71L633.19 186.43M633.19 186.43L633.77 190.11M633.77 190.11L634.74 193.72M634.74 193.72L636.07 197.2M636.07 197.2L637.77 200.52M637.77 200.52L639.8 203.65M639.8 203.65L642.14 206.54M642.14 206.54L644.78 209.18M644.78 209.18L647.68 211.53M647.68 211.53L650.81 213.56M650.81 213.56L654.13 215.25M654.13 215.25L657.61 216.59M657.61 216.59L661.21 217.55M661.21 217.55L664.89 218.13M664.89 218.13L668.62 218.33"
fill="none" stroke="black" stroke-width="0.5"/>
<path d="M668.62 230.2L664.89 230.4M664.89 230.4L661.21 230.98M661.21 230.98L657.61 231.95M657.61 231.95L654.13 233.28M654.13 233.28L650.81 234.98M650.81 234.98L647.68 237.01M647.68 237.01L644.78 239.35M644.78 239.35L642.14 241.99M642.14 241.99L639.8 244.89M639.8 244.89L637.77 248.02M637.77 248.02L636.07 251.34M636.07 251.34L634.74 254.82M634.74 254.82L633.77 258.42M633.77 258.42L633.19 262.1M633.19 262.1L632.99 265.83M632.99 265.83L633.19 269.55M633.19 269.55L633.77 273.23M633.77 273.23L634.74 276.83M634.74 276.83L636.07 280.32M636.07 280.32L637.77 283.64M637.77 283.64L639.8 286.76M639.8 286.76L642.14 289.66M642.14 289.66L644.78 292.3M644.78 292.3L647.68 294.65M647.68 294.65L650.81 296.68M650.81 296.68L654.13 298.37M654.13 298.37L657.61 299.71M657.61 299.71L661.21 300.67M661.21 300.67L664.89 301.25M664.89 301.25L668.62 301.45"
fill="none" stroke="black" stroke-width="0.5"/>
<path d="M668.62 230.2L763.61 230.2"
fill="none" stroke="black" stroke-width="0.5"/>
<path d="M668.62 372.69L763.61 372.69"
fill="none" stroke="black" stroke-width="0.5"/>
<path d="M668.62 301.45L664.89 301.64M664.89 301.64L661.21 302.23M661.21 302.23L657.61 303.19M657.61 303.19L654.13 304.53M654.13 304.53L650.81 306.22M650.81 306.22L647.68 308.25M647.68 308.25L644.78 310.6M644.78 310.6L642.14 313.24M642.14 313.24L639.8 316.13M639.8 316.13L637.77 319.26M637.77 319.26L636.07 322.58M636.07 322.58L634.74 326.06M634.74 326.06L633.77 329.66M633.77 329.66L633.19 333.35M633.19 333.35L632.99 337.07M632.99 337.07L633.19 340.79M633.19 340.79L633.77 344.48M633.77 344.48L634.74 348.08M634.74 348.08L636.07 351.56M636.07 351.56L637.77 354.88M637.77 354.88L639.8 358.01M639.8 358.01L642.14 360.91M642.14 360.91L644.78 363.54M644.78 363.54L647.68 365.89M647.68 365.89L650.81 367.92M650.81 367.92L654.13 369.61M654.13 369.61L657.61 370.95M657.61 370.95L661.21 371.92M661.21 371.92L664.89 372.5M664.89 372.5L668.62 372.69"
fill="none" stroke="black" stroke-width="0.5"/>
<path d="M704.24 562.68L704.05 560.56M704.05 560.56L703.48 558.51M703.48 558.51L702.56 556.59M702.56 556.59L701.31 554.87M701.31 554.87L699.77 553.4M699.77 553.4L697.99 552.22M697.99 552.22L696.03 551.39M696.03 551.39L693.96 550.91M693.96 550.91L691.83 550.82M691.83 550.82L689.72 551.1M689.72 551.1L687.7 551.76M687.7 551.76L685.82 552.77M685.82 552.77L684.16 554.1M684.16 554.1L682.76 555.7M682.76 555.7L681.67 557.53M681.67 557.53L680.92 559.52M680.92 559.52L680.54 561.62M680.54 561.62L680.54 563.74M680.54 563.74L680.92 565.84M680.92 565.84L681.67 567.83M681.67 567.83L682.76 569.66M682.76 569.66L684.16 571.26M684.16 571.26L685.82 572.59M685.82 572.59L687.7 573.6M687.7 573.6L689.72 574.26M689.72 574.26L691.83 574.54M691.83 574.54L693.96 574.45M693.96 574.45L696.03 573.97M696.03 573.97L697.99 573.14M697.99 573.14L699.77 571.96M699.77 571.96L701.31 570.49M701.31 570.49L702.56 568.77M702.56 568.77L703.48 566.85M703.48 566.85L704.05 564.8M704.05 564.8L704.24 562.68"
fill="none" stroke="black" stroke-width="0.5"/>
<path d="M668.62 384.57L664.89 384.76M664.89 384.76L661.21 385.35M661.21 385.35L657.61 386.31M657.61 386.31L654.13 387.65M654.13 387.65L650.81 389.34M650.81 389.34L647.68 391.37M647.68 391.37L644.78 393.72M644.78 393.72L642.14 396.35M642.14 396.35L639.8 399.25M639.8 399.25L637.77 402.38M637.77 402.38L636.07 405.7M636.07 405.7L634.74 409.18M634.74 409.18L633.77 412.78M633.77 412.78L633.19 416.47M633.19 416.47L632.99 420.19M632.99 420.19L633.19 423.91M633.19 423.91L633.77 427.6M633.77 427.6L634.74 431.2M634.74 431.2L636.07 434.68M636.07 434.68L637.77 438M637.77 438L639.8 441.13M639.8 441.13L642.14 444.03M642.14 444.03L644.78 446.66M644.78 446.66L647.68 449.01M647.68 449.01L650.81 451.04M650.81 451.04L654.13 452.73M654.13 452.73L657.61 454.07M657.61 454.07L661.21 455.03M661.21 455.03L664.89 455.62M664.89 455.62L668.62 455.81"
fill="none" stroke="black" stroke-width="0.5"/>
<path d="M668.62 384.57L763.61 384.57"
fill="none" stroke="black" stroke-width="0.5"/>
<path d="M668.62 527.06L763.61 527.06"
fill="none" stroke="black" stroke-width="0.5"/>
<path d="M668.62 455.81L664.89 456.01M664.89 456.01L661.21 456.59M661.21 456.59L657.61 457.56M657.61 457.56L654.13 458.89M654.13 458.89L650.81 460.59M650.81 460.59L647.68 462.62M647.68 462.62L644.78 464.96M644.78 464.96L642.14 467.6M642.14 467.6L639.8 470.5M639.8 470.5L637.77 473.62M637.77 473.62L636.07 476.95M636.07 476.95L634.74 480.43M634.74 480.43L633.77 484.03M633.77 484.03L633.19 487.71M633.19 487.71L632.99 491.44M632.99 491.44L633.19 495.16M633.19 495.16L633.77 498.84M633.77 498.84L634.74 502.44M634.74 502.44L636.07 505.92M636.07 505.92L637.77 509.25M637.77 509.25L639.8 512.37M639.8 512.37L642.14 515.27M642.14 515.27L644.78 517.91M644.78 517.91L647.68 520.25M647.68 520.25L650.81 522.28M650.81 522.28L654.13 523.98M654.13 523.98L657.61 525.31M657.61 525.31L661.21 526.28M661.21 526.28L664.89 526.86M664.89 526.86L668.62 527.06"
fill="none" stroke="black" stroke-width="0.5"/>
</svg>
